<svg xmlns="http://www.w3.org/2000/svg" width="63.289" height="71.795" viewBox="0 0 63.289 71.795">
  <g id="Group_3851" data-name="Group 3851" transform="translate(-512.352 -327.276)">
    <path id="Path_2222" data-name="Path 2222" d="M537.518,463.427H581.5v7.625H537.518v-7.625Z" transform="translate(-15.512 -83.922)" fill="#fff" fill-rule="evenodd"/>
    <path id="Path_2223" data-name="Path 2223" d="M537.565,483.152H581.51v12H537.565v-12Z" transform="translate(-15.541 -96.081)" fill="#018837" fill-rule="evenodd"/>
    <path id="Path_2224" data-name="Path 2224" d="M541.02,492.536h-.66l.287-.891h.373v-4.524h.8v4.487h1.7v-4.487h.813v9.032h-.812v-3.617h-1.7v3.617h-.8v-3.617Z" transform="translate(-17.264 -98.527)" fill="#fff" fill-rule="evenodd"/>
    <path id="Path_2225" data-name="Path 2225" d="M556.618,491.486a22.462,22.462,0,0,1-.1,2.3,4.167,4.167,0,0,1-.509,1.664,1.326,1.326,0,0,1-1.232.707,1.343,1.343,0,0,1-1.025-.421,2.768,2.768,0,0,1-.565-1.111,8.7,8.7,0,0,1-.228-1.435c-.028-.507-.048-1.071-.048-1.7s.02-1.2.048-1.7a8.426,8.426,0,0,1,.228-1.424,2.706,2.706,0,0,1,.565-1.093,1.445,1.445,0,0,1,2.257.28,4.1,4.1,0,0,1,.509,1.645,22.426,22.426,0,0,1,.1,2.3Zm-1.845-3.742h-.021c-.316,0-.544.193-.7.575a4.144,4.144,0,0,0-.279,1.331c-.037.5-.058,1.118-.058,1.837,0,.7.021,1.3.058,1.826a4.293,4.293,0,0,0,.3,1.351c.153.381.383.582.7.582s.524-.2.679-.582a4.622,4.622,0,0,0,.286-1.369c.038-.527.057-1.128.057-1.808,0-.7-.019-1.3-.047-1.818a4.54,4.54,0,0,0-.287-1.35c-.152-.382-.383-.575-.688-.575Z" transform="translate(-24.998 -98.358)" fill="#fff" fill-rule="evenodd"/>
    <path id="Path_2226" data-name="Path 2226" d="M566.216,495.5l-.775-6.085-.937,6.554-.775-.163,1.34-8.525.688-.747.527,4.937.565-4.2.7-.746,1.14,9.27-.738.163-.727-6.573-1.006,6.113Z" transform="translate(-31.668 -98.159)" fill="#fff" fill-rule="evenodd"/>
    <path id="Path_2227" data-name="Path 2227" d="M581.55,491.486a22.34,22.34,0,0,1-.105,2.3,4.164,4.164,0,0,1-.5,1.664,1.353,1.353,0,0,1-1.243.707,1.322,1.322,0,0,1-1.015-.421,2.559,2.559,0,0,1-.565-1.111,7.164,7.164,0,0,1-.23-1.435c-.028-.507-.047-1.071-.047-1.7s.019-1.2.047-1.7a6.962,6.962,0,0,1,.23-1.424,2.5,2.5,0,0,1,.565-1.093,1.327,1.327,0,0,1,1.015-.42,1.362,1.362,0,0,1,1.243.7,4.1,4.1,0,0,1,.5,1.645,22.3,22.3,0,0,1,.105,2.3Zm-1.846-3.742h-.018c-.316,0-.547.193-.7.575a4.408,4.408,0,0,0-.277,1.331c-.029.5-.048,1.118-.048,1.837,0,.7.019,1.3.057,1.826a4.519,4.519,0,0,0,.287,1.351c.153.381.392.582.7.582s.535-.2.689-.582a5.388,5.388,0,0,0,.286-1.369c.038-.527.058-1.128.058-1.808,0-.7-.02-1.3-.058-1.818a4.861,4.861,0,0,0-.276-1.35c-.153-.382-.383-.575-.7-.575Z" transform="translate(-40.371 -98.358)" fill="#fff" fill-rule="evenodd"/>
    <path id="Path_2228" data-name="Path 2228" d="M592.523,496.2h-2.477v-9h.821v8.092h1.369l.287.911Z" transform="translate(-47.89 -98.573)" fill="#fff" fill-rule="evenodd"/>
    <path id="Path_2229" data-name="Path 2229" d="M601.377,491.486a22.958,22.958,0,0,1-.1,2.3,4.147,4.147,0,0,1-.508,1.664,1.329,1.329,0,0,1-1.233.707,1.345,1.345,0,0,1-1.025-.421,2.656,2.656,0,0,1-.564-1.111,8.7,8.7,0,0,1-.23-1.435c-.029-.507-.048-1.071-.048-1.7s.019-1.2.048-1.7a8.431,8.431,0,0,1,.23-1.424,2.6,2.6,0,0,1,.564-1.093,1.447,1.447,0,0,1,2.259.28,4.083,4.083,0,0,1,.508,1.645,22.922,22.922,0,0,1,.1,2.3Zm-1.837-3.742h-.021a.747.747,0,0,0-.7.575,4.177,4.177,0,0,0-.278,1.331c-.037.5-.056,1.118-.056,1.837,0,.7.019,1.3.056,1.826a4.591,4.591,0,0,0,.289,1.351.772.772,0,0,0,.708.582c.306,0,.525-.2.679-.582a4.576,4.576,0,0,0,.288-1.369c.037-.527.056-1.128.056-1.808,0-.7-.019-1.3-.048-1.818a4.505,4.505,0,0,0-.286-1.35c-.153-.382-.382-.575-.689-.575Z" transform="translate(-52.592 -98.358)" fill="#fff" fill-rule="evenodd"/>
    <path id="Path_2230" data-name="Path 2230" d="M612.106,495.269v.373l-.086.106a1.094,1.094,0,0,1-.957.4,1.307,1.307,0,0,1-1-.412,2.545,2.545,0,0,1-.564-1.1,6.96,6.96,0,0,1-.24-1.445c-.038-.516-.057-1.073-.057-1.684,0-.659.019-1.235.049-1.731a7.367,7.367,0,0,1,.21-1.416,2.643,2.643,0,0,1,.565-1.111,1.329,1.329,0,0,1,1.042-.429,1.458,1.458,0,0,1,.976.4l.135.124-.326.976-.086-.133a.779.779,0,0,0-.7-.461.731.731,0,0,0-.67.365,2.2,2.2,0,0,0-.315.929,12.772,12.772,0,0,0-.087,1.349c.011.268.019.64.019,1.147,0,.554-.008.986-.019,1.29a9,9,0,0,0,.1,1.255,1.858,1.858,0,0,0,.315.832.758.758,0,0,0,.661.326,1.855,1.855,0,0,0,.212-.03v-2.812h-.651l.307-.909h1.176v3.8Z" transform="translate(-59.694 -98.343)" fill="#fff" fill-rule="evenodd"/>
    <path id="Path_2231" data-name="Path 2231" d="M620.191,489.159l-1.024,6.736-.842-.163,1.483-8.543.717-.765,1.494,9.308-.776.163-1.052-6.736Zm0,6.333-.785-1.137h1.55l-.766,1.137Z" transform="translate(-65.321 -98.097)" fill="#fff" fill-rule="evenodd"/>
    <path id="Path_2232" data-name="Path 2232" d="M629.352,487.2h1.5a1.316,1.316,0,0,1,1,.41,2.558,2.558,0,0,1,.555,1.072,6.43,6.43,0,0,1,.229,1.378c.04.477.056,1.025.056,1.646s-.016,1.165-.056,1.645a6.435,6.435,0,0,1-.229,1.378,2.69,2.69,0,0,1-.565,1.063,1.336,1.336,0,0,1-1,.412h-1.482v-9Zm.813,8.113h.6a.78.78,0,0,0,.717-.392,2.367,2.367,0,0,0,.307-.976,12.109,12.109,0,0,0,.066-1.406v-1.857a10.406,10.406,0,0,0-.066-1.311,2.09,2.09,0,0,0-.307-.889.8.8,0,0,0-.689-.354h-.631v7.185Z" transform="translate(-72.118 -98.573)" fill="#fff" fill-rule="evenodd"/>
    <path id="Path_2233" data-name="Path 2233" d="M643.676,491.486a22.727,22.727,0,0,1-.1,2.3,4.17,4.17,0,0,1-.506,1.664,1.442,1.442,0,0,1-2.259.287,2.616,2.616,0,0,1-.564-1.111,7.7,7.7,0,0,1-.23-1.435c-.03-.507-.049-1.071-.049-1.7s.019-1.2.049-1.7a7.474,7.474,0,0,1,.23-1.424,2.558,2.558,0,0,1,.564-1.093,1.346,1.346,0,0,1,1.024-.42,1.362,1.362,0,0,1,1.235.7,4.106,4.106,0,0,1,.506,1.645,22.692,22.692,0,0,1,.1,2.3Zm-1.837-3.742h-.019a.766.766,0,0,0-.709.575,4.723,4.723,0,0,0-.276,1.331c-.029.5-.049,1.118-.049,1.837,0,.7.02,1.3.057,1.826a4.533,4.533,0,0,0,.289,1.351.772.772,0,0,0,.707.582c.3,0,.527-.2.679-.582a4.634,4.634,0,0,0,.288-1.369c.038-.527.059-1.128.059-1.808,0-.7-.021-1.3-.059-1.818a4.549,4.549,0,0,0-.279-1.35c-.153-.382-.382-.575-.688-.575Z" transform="translate(-78.665 -98.358)" fill="#fff" fill-rule="evenodd"/>
    <path id="Path_2234" data-name="Path 2234" d="M537.342,354.236H581.3v41.878H537.342V354.236Z" transform="translate(-15.404 -16.618)" fill="#0f218b" fill-rule="evenodd"/>
    <path id="Path_2235" data-name="Path 2235" d="M528.742,358.131c9.873-3.637,16.675-12.954,14.619-16.878-3.4.689-6.181,2.556-9.272,3.829a26.6,26.6,0,0,0,.718-10.9c-3.291,2.459-8.333,4.516-9.98,11.882-2.792-3.347-6.084-6.382-12.475-6.093,1.454,4.134,5.875,13.049,12.265,14.332l.613-1.282c-4.526-2.161-7.827-7.75-10.3-11.472,6.076,1.686,8.784,6.593,10.046,7.244,1.445-.593,2.412-5.377,3.55-6.468s1.752-2.736,4.574-5c.056,5.2-1.608,7.922-2.412,11.873l1.023.593c1.962-2.746,6.114-3.723,9.167-5.588-.1,5.291-8.333,9.9-13.385,13.232l1.245.7Z" transform="translate(0 -4.258)" fill="#018837" fill-rule="evenodd"/>
    <path id="Path_2236" data-name="Path 2236" d="M607.6,357.423c3.4-3.827,6.209-6.5,11.92-8.228-3.281.114-2.067-5.569-4.621-6.956-3.281-1.166-4.506,1.5-6.323,4.4-1.35,2.085-4.143,3.588-5.608.928.49-2.937,1.7-5.443,1.465-8.812-.613-6.725-9.491-10.781-14.974-11.48l-1.089,1.4c8.027,2.774,11.8,4.87,14.121,10.085a40.1,40.1,0,0,1-1.712,8.928,3.438,3.438,0,0,0,2.8,2.668c2.068.929,3.4-.124,4.382-.583,2.68-1.981,3.167-5.789,5.357-5.789,1.828,1.274,1.694,3.357,2.554,4.515-3.9,1.617-6.7,4.526-9.375,7.415l1.1,1.512Z" transform="translate(-46.859)" fill="#cb2f20" fill-rule="evenodd"/>
    <path id="Path_2237" data-name="Path 2237" d="M546.142,447.988c0-1.187-.029-1.991-.1-2.92.249.02.546.058.919.058s.661-.038.908-.058c-.067.928-.095,1.733-.095,2.92v1.425c0,1.176.028,1.99.095,2.918a7.235,7.235,0,0,0-1.827,0c.067-.928.1-1.742.1-2.918v-1.425Z" transform="translate(-20.769 -72.606)" fill="#fff" fill-rule="evenodd"/>
    <path id="Path_2238" data-name="Path 2238" d="M557.407,447.988c0-1.187-.03-1.991-.086-2.92.239.02.537.058.909.058.631,0,1.359-.058,1.99-.058,1.33,0,2.248.489,2.248,1.628s-1.129,1.635-1.809,1.741v.02c.671.028,1.991.5,1.991,1.769,0,1.5-1.263,2.105-2.583,2.105-.585,0-1.072-.058-1.627-.058a10.818,10.818,0,0,0-1.119.058c.057-.928.086-1.742.086-2.918v-1.425Zm2.227-2.315a3.142,3.142,0,0,0-.543.029c-.021.516-.048,1.1-.048,1.462s.02.718.02,1.073h.5a1.246,1.246,0,0,0,1.264-1.341,1.092,1.092,0,0,0-1.189-1.223Zm-.1,3.165c-.192,0-.344.011-.468.011,0,.3-.02.583-.02,1.015,0,.669.028,1.473.028,1.846.2.01.364.02.614.02a1.276,1.276,0,0,0,1.213-1.436c0-.976-.477-1.455-1.368-1.455Z" transform="translate(-27.719 -72.606)" fill="#fff" fill-rule="evenodd"/>
    <path id="Path_2239" data-name="Path 2239" d="M581.87,452.256c-.354-.03-.669-.058-.977-.058s-.631.028-.947.058c-.228-.718-.486-1.445-.765-2.162-.478-.009-.938-.02-1.417-.02-.391,0-.765.011-1.157.02a20.822,20.822,0,0,0-.756,2.162,3.038,3.038,0,0,0-.517-.058,3.862,3.862,0,0,0-.554.058c.545-1.168,2.21-4.917,3.156-7.31a1.919,1.919,0,0,0,.842,0c.948,2.392,2.248,5.588,3.09,7.31Zm-2.938-2.785c-.323-.851-.64-1.682-.994-2.5-.372.814-.717,1.645-1.043,2.5Z" transform="translate(-38.481 -72.531)" fill="#fff" fill-rule="evenodd"/>
    <path id="Path_2240" data-name="Path 2240" d="M597.893,447.546c-.238,1.6-.335,3.2-.449,4.784a2.437,2.437,0,0,0-.516-.058,2.493,2.493,0,0,0-.528.058c.471-2.422.834-4.842,1.149-7.263a2.365,2.365,0,0,0,.45.058,2.445,2.445,0,0,0,.449-.058c.8,1.675,1.752,3.55,2.554,5.034.88-1.569,1.79-3.359,2.594-5.034a2.551,2.551,0,0,0,.469.058,2.446,2.446,0,0,0,.469-.058c.288,2.421.68,5.781.957,7.263a7.221,7.221,0,0,0-.9-.058,7.5,7.5,0,0,0-.919.058c-.076-1.465-.268-3.254-.449-4.88h-.02c-.832,1.626-1.654,3.243-2.449,4.88a.755.755,0,0,0-.42,0c-.794-1.589-1.589-3.186-2.421-4.784Z" transform="translate(-51.806 -72.606)" fill="#fff" fill-rule="evenodd"/>
    <path id="Path_2241" data-name="Path 2241" d="M630.328,452.256c-.354-.03-.66-.058-.975-.058s-.632.028-.938.058c-.239-.718-.5-1.445-.775-2.162-.468-.009-.938-.02-1.416-.02-.393,0-.766.011-1.158.02a20.87,20.87,0,0,0-.748,2.162,3.119,3.119,0,0,0-.525-.058,4.022,4.022,0,0,0-.555.058c.545-1.168,2.21-4.917,3.166-7.31a3.247,3.247,0,0,0,.422.047,3.2,3.2,0,0,0,.42-.047c.938,2.392,2.239,5.588,3.081,7.31Zm-2.937-2.785c-.325-.851-.631-1.682-.987-2.5-.382.814-.726,1.645-1.042,2.5Z" transform="translate(-68.35 -72.531)" fill="#fff" fill-rule="evenodd"/>
    <path id="Path_2242" data-name="Path 2242" d="M592.259,404.632a19.623,19.623,0,0,1-8.772,4.354c-6.172-.479-6.306-5.77-10.87-5.29-3.214-.124-9.261,6.112-11.117,5.29-2.841,1.521-7.29-6.478-10.007-6.124-2.229-1.062-6.908,2.468-9.759,6.237l1.11,1.168c2.228-2.469,5.567-5.636,7.29-5.521,3.338-.823,5.434,6.112,11.241,6.583,5.931-1.292,8.4-5.76,11.367-5.636,2.842-.717,4.822,5.166,10.745,5.292,4.821-.948,7.289-3.29,10.265-5.415l-1.493-.938Z" transform="translate(-18.111 -46.472)" fill="#0580b7" fill-rule="evenodd"/>
    <g id="Group_3850" data-name="Group 3850" transform="translate(521.925 380.603)">
      <path id="Path_2243" data-name="Path 2243" d="M537.374,468.595c0-.831-.016-1.4-.066-2.055.18.016.4.037.672.037.377,0,.8-.037,1.2-.037a2.318,2.318,0,0,1,1.426.3,1.159,1.159,0,0,1,.508,1c0,1.134-.885,1.587-2.106,1.587h-.417c0,.742.008,1.484.066,2.226-.18-.015-.4-.037-.672-.037s-.491.022-.672.037c.049-.653.066-1.224.066-2.055Zm1.574-1.632c-.132,0-.255,0-.344.008-.008.7-.017,1.394-.017,2.084.549,0,1.229-.133,1.229-1.09C539.815,467.208,539.414,466.963,538.947,466.963Z" transform="translate(-537.308 -466.444)" fill="#018837"/>
      <path id="Path_2244" data-name="Path 2244" d="M550.728,469.3h-.074v.3c0,.831.016,1.4.065,2.055-.18-.015-.4-.037-.671-.037s-.492.022-.672.037c.049-.653.066-1.224.066-2.055v-1.008c0-.831-.016-1.4-.066-2.055.181.016.4.037.672.037.294,0,.646-.037,1.2-.037a2.39,2.39,0,0,1,1.417.252,1.125,1.125,0,0,1,.533.979c0,.719-.46,1.179-1.271,1.364.524.838,1.147,1.683,1.745,2.522-.245-.015-.492-.037-.737-.037s-.5.022-.746.037Zm-.05-2.336c-.016.674-.025,1.343-.025,2.017a1.572,1.572,0,0,0,.181.015.974.974,0,0,0,1.114-1.06C551.947,467.059,551.571,466.963,550.678,466.963Z" transform="translate(-544.746 -466.444)" fill="#018837"/>
      <path id="Path_2245" data-name="Path 2245" d="M564.59,466.289c1.737,0,3.1.86,3.1,2.648a2.865,2.865,0,0,1-3.129,2.663c-1.729,0-3.122-.8-3.122-2.656C561.444,467.482,562.689,466.289,564.59,466.289Zm-.024.423c-1.123,0-1.778,1.023-1.778,2.3,0,1.579.8,2.128,1.721,2.128.982,0,1.843-.742,1.843-2.359A1.82,1.82,0,0,0,564.566,466.712Z" transform="translate(-552.185 -466.289)" fill="#018837"/>
      <path id="Path_2246" data-name="Path 2246" d="M584.111,470.643a2.294,2.294,0,0,0-.18.63,3.893,3.893,0,0,1-1.672.326c-1.9,0-3.024-1.076-3.024-2.478,0-2.047,1.532-2.833,3.253-2.833a4.013,4.013,0,0,1,1.671.363,2.522,2.522,0,0,0-.188.757h-.115a1.741,1.741,0,0,0-1.409-.66,1.993,1.993,0,0,0-1.868,2.263,1.909,1.909,0,0,0,1.941,2.128,2.318,2.318,0,0,0,1.484-.557Z" transform="translate(-563.151 -466.289)" fill="#018837"/>
      <path id="Path_2247" data-name="Path 2247" d="M596.629,466.289c1.737,0,3.1.86,3.1,2.648a2.865,2.865,0,0,1-3.13,2.663c-1.729,0-3.122-.8-3.122-2.656C593.483,467.482,594.728,466.289,596.629,466.289Zm-.025.423c-1.123,0-1.778,1.023-1.778,2.3,0,1.579.8,2.128,1.721,2.128.982,0,1.843-.742,1.843-2.359A1.821,1.821,0,0,0,596.6,466.712Z" transform="translate(-571.934 -466.289)" fill="#018837"/>
      <path id="Path_2248" data-name="Path 2248" d="M612.316,466.54a1.84,1.84,0,0,0,.736,0c1.181,1.18,2.353,2.352,3.557,3.53,0-1.178,0-3.2-.057-3.53a1.84,1.84,0,0,0,.737,0c-.13,2.159-.13,3.146-.13,5.118a1.73,1.73,0,0,0-.336-.037,1.446,1.446,0,0,0-.32.037q-1.683-1.8-3.581-3.6c-.016.555-.016,1.172-.016,1.729,0,1.186.025,1.6.049,1.876a2.341,2.341,0,0,0-.385-.037,2.184,2.184,0,0,0-.378.037c.041-.216.165-2.128.165-3.642C612.357,467.349,612.323,466.9,612.316,466.54Z" transform="translate(-583.466 -466.444)" fill="#018837"/>
      <path id="Path_2249" data-name="Path 2249" d="M632.058,466.54a1.761,1.761,0,0,0,.72,0c-.541,1.165-1.606,3.42-2.245,5.118a2.967,2.967,0,0,0-.361-.037,2.8,2.8,0,0,0-.36.037c-.508-1.268-1.688-3.983-2.221-5.118.254.023.5.037.738.037s.483-.015.72-.037c.369,1.106.959,2.485,1.458,3.723C631.075,469.025,631.631,467.691,632.058,466.54Z" transform="translate(-592.958 -466.444)" fill="#018837"/>
      <path id="Path_2250" data-name="Path 2250" d="M642.994,468.595c0-.831-.016-1.4-.066-2.055.484.007.975.037,1.458.037.8,0,1.492-.015,1.712-.037a1.639,1.639,0,0,0-.033.311,1.9,1.9,0,0,0,.033.334c-.622-.037-1.605-.089-1.851-.089-.041.541-.041,1.076-.041,1.617.713-.015,1.237-.031,1.859-.06a1.643,1.643,0,0,0-.041.334,2.281,2.281,0,0,0,.041.3c-.622-.044-1.237-.067-1.859-.067,0,.311-.008.631-.008.949s.008.631.025.928a18.187,18.187,0,0,0,1.875-.1,1.83,1.83,0,0,0-.033.333,1.532,1.532,0,0,0,.033.32c-.295-.008-.68-.037-1.433-.037-1.335,0-1.557.022-1.737.037.049-.653.066-1.224.066-2.055Z" transform="translate(-602.411 -466.444)" fill="#018837"/>
    </g>
  </g>
</svg>
