<svg xmlns="http://www.w3.org/2000/svg" width="16.757" height="14.265" viewBox="0 0 16.757 14.265">
    <defs>
        <style>
            .cls-1,.cls-2,.cls-3{stroke-width:.7px;fill-rule:evenodd}.cls-1{stroke:#40424a;fill:#6a6a6a}.cls-2,.cls-3{fill:#fff}.cls-2{stroke:#fff}.cls-3{stroke:#e50353}
        </style>
    </defs>
    <g id="Page-1" transform="translate(-.664 -.065)">
        <g id="_08-ÍCONES" data-name="08-ÍCONES" transform="translate(1.016 .415)">
            <g id="carro">
                <g id="Grupo_23" data-name="Grupo 23">
                    <path id="Stroke-1" d="M18.962 9.549a1 1 0 1 1-1-1 1 1 0 0 1 1 1z" class="cls-1" transform="translate(-4.658 -2.643)"/>
                    <g id="Grupo_22" data-name="Grupo 22">
                        <path id="Stroke-3" d="M4.137 9.549a1 1 0 1 1-1-1 1 1 0 0 1 1 1z" class="cls-1" transform="translate(-.595 -2.643)"/>
                        <path id="Stroke-5" d="M16.066 4.26c-.1-.67-1.483-.478-1.483-.478a.713.713 0 0 0 0 .957c.048.12-.12.43-.12.43l-.239-.335C13.172 2.227 12.7.787 11.608.653A31.383 31.383 0 0 0 7.693.415 28.913 28.913 0 0 0 4.1.7C3.01.824 2.912 2.227 1.86 4.834l-.239.335s-.167-.311-.12-.43a.713.713 0 0 0 0-.957S.114 3.59.019 4.26c0 0-.1.622 1 .622l.335.765a5.128 5.128 0 0 1-.287.957 8.148 8.148 0 0 0-.522 1.052 4.629 4.629 0 0 0-.1 1.291C.521 9.473.473 9.856.5 10c0 0-.06 2.26-.012 3.025a.985.985 0 0 0 .706.849s1.184.347 1.315-.765l.548-.331 4.956.029 4.913-.016.668.282c.179 1.04 1.339.885 1.339.885a.97.97 0 0 0 .717-.933A26.24 26.24 0 0 0 15.588 10c.024-.143-.024-.526.048-1.052a4.629 4.629 0 0 0-.1-1.291 8.148 8.148 0 0 0-.522-1.057 5.128 5.128 0 0 1-.287-.957l.335-.765c1.1.004 1.004-.618 1.004-.618z" class="cls-2" transform="translate(-.016 -.415)"/>
                        <path id="Stroke-7" d="M8.805 15.169q-5.7.022-5.656.318l11.324-.005q.048-.296-5.668-.313z" class="cls-3" transform="translate(-.875 -4.459)"/>
                        <path id="Stroke-9" d="M2.915 12.307a.627.627 0 0 1-.682.55.627.627 0 0 1-.682-.55.627.627 0 0 1 .682-.55.627.627 0 0 1 .682.55z" class="cls-3" transform="translate(-.437 -3.524)"/>
                        <path id="Stroke-11" d="M18.683 12.307a.7.7 0 0 0 1.363 0 .7.7 0 0 0-1.363 0z" class="cls-3" transform="translate(-5.132 -3.524)"/>
                        <path id="Stroke-15" d="M12.7 10.953l-2.3-.024a.687.687 0 0 0-.622-.49.67.67 0 0 0-.613.49l-2.3.024c-.622-.024-.5.143-.5.143a.49.49 0 0 0 .311.12h2.493a.638.638 0 0 0 .613.49.652.652 0 0 0 .622-.49h2.486a.49.49 0 0 0 .311-.12s.12-.167-.501-.143z" class="cls-3" transform="translate(-1.755 -3.162)"/>
                    </g>
                </g>
            </g>
        </g>
    </g>
</svg>
