<svg xmlns="http://www.w3.org/2000/svg" id="back" width="24.5" height="20.731" viewBox="0 0 24.5 20.731">
    <defs>
        <clipPath id="clip-path">
            <path id="Path_100" fill="#2ab4c7" d="M21.283 10.946l-8.776 8.5 1.333 1.29L24.5 10.411l-.047-.046.047-.046L13.839 0l-1.333 1.29L20.6 9.121H0v1.824z" clip-rule="evenodd"/>
        </clipPath>
        <clipPath id="clip-path-2">
            <path id="Path_99" d="M0 2035.385h3618.462V0H0z" class="cls-2"/>
        </clipPath>
        <clipPath id="clip-path-3">
            <path id="Rectangle_55" fill="url(#linear-gradient)" stroke="#ff8094" d="M0 0H62V59H0z"/>
        </clipPath>
        <clipPath id="clip-path-4">
            <path id="Path_98" d="M0 20.731h24.5V0H0z" class="cls-2"/>
        </clipPath>
        <linearGradient id="linear-gradient" x1=".5" x2=".5" y2="1" gradientUnits="objectBoundingBox">
            <stop offset="0" stop-color="#24ced1"/>
            <stop offset="1" stop-color="#0296ff"/>
        </linearGradient>
        <style>
            .cls-2{fill:url(#linear-gradient)}
        </style>
    </defs>
    <g id="Group_194" clip-path="url(#clip-path)" transform="rotate(180 12.25 10.366)">
        <g id="Group_193" clip-path="url(#clip-path-2)" transform="translate(-1121.346 -998.846)">
            <g id="Group_192" clip-path="url(#clip-path-3)" transform="translate(1102.346 979.577)">
                <g id="Group_191" clip-path="url(#clip-path-4)" transform="translate(19 19.269)">
                    <g id="Group_190" transform="rotate(180 12.25 10.366)">
                        <path id="Path_97" fill="url(#linear-gradient)" stroke="#ff8094" stroke-width="2px" d="M3.217 9.785l8.776-8.5L10.661 0 0 10.32l.047.046-.047.045 10.661 10.32 1.333-1.29L3.9 11.609h20.6V9.785z"/>
                    </g>
                </g>
            </g>
        </g>
    </g>
</svg>
