<svg xmlns="http://www.w3.org/2000/svg" width="21.074" height="17.562" viewBox="0 0 21.074 17.562">
    <defs>
        <style>
            .cls-1,.cls-3{fill:none}.cls-2{clip-path:url(#clip-path)}.cls-3,.cls-4{stroke:#ff8094;stroke-width:.7px}.cls-4{fill:#fff;stroke:#fff}
        </style>
        <clipPath id="clip-path">
            <path id="Caminho_15" d="M0-2.438h21.074V-20H0z" class="cls-1" data-name="Caminho 15" transform="translate(0 20)"/>
        </clipPath>
    </defs>
    <g id="Grupo_67" data-name="Grupo 67" transform="translate(0 20)">
        <g id="Grupo_66" class="cls-2" data-name="Grupo 66" transform="translate(0 -20)">
            <g id="Grupo_59" data-name="Grupo 59" transform="translate(15.765 7.503)">
                <path id="Caminho_8" d="M2.43 1.215A1.215 1.215 0 1 1 1.215 0 1.215 1.215 0 0 1 2.43 1.215z" class="cls-3" data-name="Caminho 8"/>
            </g>
            <g id="Grupo_60" data-name="Grupo 60" transform="translate(2.747 7.503)">
                <path id="Caminho_9" d="M2.43 1.215A1.215 1.215 0 1 1 1.215 0 1.215 1.215 0 0 1 2.43 1.215z" class="cls-3" data-name="Caminho 9"/>
            </g>
            <g id="Grupo_61" data-name="Grupo 61" transform="translate(.893 .365)">
                <path id="Caminho_10" d="M19.414 4.65c-.116-.81-1.794-.579-1.794-.579a.862.862 0 0 0 0 1.157c.058.145-.145.521-.145.521l-.289-.405C15.913 2.191 15.339.45 14.022.288A37.962 37.962 0 0 0 9.286 0a34.974 34.974 0 0 0-4.347.339C3.621.494 3.5 2.191 2.23 5.345l-.289.405s-.2-.376-.145-.521a.862.862 0 0 0 0-1.157S.118 3.84 0 4.65c0 0-.116.752 1.215.752l.405.926a6.2 6.2 0 0 1-.347 1.157 9.855 9.855 0 0 0-.634 1.273 5.6 5.6 0 0 0-.116 1.562c.087.636.029 1.1.058 1.273 0 0-.072 2.734-.014 3.66a1.192 1.192 0 0 0 .853 1.027s1.432.419 1.591-.926l.663-.4 6 .036 5.943-.02.808.341c.217 1.258 1.62 1.07 1.62 1.07a1.173 1.173 0 0 0 .868-1.128 31.74 31.74 0 0 0-.072-3.66c.029-.174-.029-.636.058-1.273a5.6 5.6 0 0 0-.116-1.562 9.855 9.855 0 0 0-.636-1.273 6.2 6.2 0 0 1-.347-1.157l.4-.928c1.33 0 1.214-.75 1.214-.75z" class="cls-4" data-name="Caminho 10"/>
            </g>
            <g id="Grupo_62" data-name="Grupo 62" transform="translate(3.643 13.32)">
                <path id="Caminho_11" d="M6.842 0Q-.057.027 0 .385L13.7.378Q13.756.02 6.842 0z" class="cls-3" data-name="Caminho 11"/>
            </g>
            <g id="Grupo_63" data-name="Grupo 63" transform="translate(2.24 10.323)">
                <path id="Caminho_12" d="M1.649.665a.758.758 0 0 1-.824.665A.758.758 0 0 1 0 .665.758.758 0 0 1 .824 0a.758.758 0 0 1 .825.665z" class="cls-3" data-name="Caminho 12"/>
            </g>
            <g id="Grupo_64" data-name="Grupo 64" transform="translate(17.283 10.323)">
                <path id="Caminho_13" d="M0 .665a.758.758 0 0 0 .824.665.758.758 0 0 0 .825-.665A.758.758 0 0 0 .824 0 .758.758 0 0 0 0 .665z" class="cls-3" data-name="Caminho 13"/>
            </g>
            <g id="Grupo_65" data-name="Grupo 65" transform="translate(6.464 9.166)">
                <path id="Caminho_14" d="M7.666.622L4.889.593A.83.83 0 0 0 4.137 0 .81.81 0 0 0 3.4.593L.619.622C-.133.593.011.8.011.8a.592.592 0 0 0 .376.14H3.4a.772.772 0 0 0 .741.593.789.789 0 0 0 .748-.593H7.9A.592.592 0 0 0 8.274.8s.144-.207-.608-.178z" class="cls-3" data-name="Caminho 14"/>
            </g>
        </g>
    </g>
</svg>
