<svg xmlns="http://www.w3.org/2000/svg" id="_003-twitter" width="24.211" height="19.671" data-name="003-twitter" viewBox="0 0 24.211 19.671">
	<defs>
		<style>
			.cls-1 {
				fill: #a7a7a7;
			}
		</style>
	</defs>
	<g id="Grupo_48" data-name="Grupo 48">
		<path id="Caminho_5" d="M24.211 50.329a10.348 10.348 0 0 1-2.86.784 4.936 4.936 0 0 0 2.184-2.743 9.919 9.919 0 0 1-3.147 1.2 4.963 4.963 0 0 0-8.588 3.395 5.111 5.111 0 0 0 .115 1.132A14.049 14.049 0 0 1 1.686 48.9a4.965 4.965 0 0 0 1.525 6.634 4.9 4.9 0 0 1-2.243-.611v.054a4.986 4.986 0 0 0 3.977 4.877 4.954 4.954 0 0 1-1.3.163 4.388 4.388 0 0 1-.94-.085 5.011 5.011 0 0 0 4.638 3.458 9.973 9.973 0 0 1-6.154 2.117A9.3 9.3 0 0 1 0 65.444a13.973 13.973 0 0 0 7.614 2.227 14.03 14.03 0 0 0 14.127-14.124c0-.219-.008-.431-.018-.642a9.9 9.9 0 0 0 2.488-2.576z" class="cls-1" data-name="Caminho 5" transform="translate(0 -48)"/>
	</g>
</svg>
