<svg xmlns="http://www.w3.org/2000/svg" width="39.791" height="30.428" viewBox="0 0 39.791 30.428">
    <defs>
        <style>
            .cls-1{fill:#fff}
        </style>
    </defs>
    <g id="Group_2" data-name="Group 2" transform="translate(.435 -.36)">
        <path id="Fill_1" d="M35.848 30.428h-3.6L32.382 3.6h-3.124V.044L39.791 0v3.6h-3.077zm-5.524 0h-3.581v-.078c0-2.158-.082-11.373-.459-13.67h-4.658L21.6 30.414h-3.68L17.555 0h9.118A27.092 27.092 0 0 1 29 6.654a56.023 56.023 0 0 1 1.111 7.666 144.09 144.09 0 0 1 .242 14.486v.008l-.031 1.614zM21.155 3.511l-.089 9.362h4.681c0-.01-.182-1.616-.549-3.541a23.211 23.211 0 0 0-1.723-5.8h-.052c-.229 0-2.249-.02-2.269-.02zm-6.028 26.917H11.15L10.533.009 15.214 0zm-10.856 0L.812 30.39 0 0l8.192.054v3.617H4.219V13H7.3v3.62H4.22l.05 13.8z" class="cls-1" data-name="Fill 1" transform="translate(-.435 .36)"/>
    </g>
</svg>
