<?xml version="1.0" encoding="utf-8"?>
<!-- Generator: Adobe Illustrator 26.3.1, SVG Export Plug-In . SVG Version: 6.00 Build 0)  -->
<svg version="1.1" id="scroll" xmlns="http://www.w3.org/2000/svg" xmlns:xlink="http://www.w3.org/1999/xlink" x="0px" y="0px"
	 viewBox="0 0 114 67" style="enable-background:new 0 0 114 67;" xml:space="preserve">
<style type="text/css">
	.st0{enable-background:new    ;}
	.st1{fill:#EDEDE3;}
	.st2{fill:#999891;fill-opacity:0;}
	.st3{fill:none;stroke:#EDEDE3;stroke-width:3;stroke-linecap:round;stroke-linejoin:round;}
	.st4{fill:none;stroke:#EDEDE3;stroke-width:2;stroke-linecap:round;}
</style>
<g class="st0">
	<path class="st1" d="M30.1,11.2c-0.2-0.4-0.6-0.9-0.9-1.2c-0.3-0.2-0.9-0.6-1.8-0.6c-1.6,0-2.7,1-2.7,2.5c0,0.6,0.2,1,0.6,1.4
		c0.5,0.5,1.1,0.7,1.7,1l1.5,0.7c0.9,0.4,1.8,0.8,2.5,1.5c0.8,0.8,1.2,1.8,1.2,2.9c0,3-2.2,4.9-5.1,4.9c-1.1,0-2.4-0.2-3.5-1.3
		c-0.8-0.8-1.3-1.9-1.5-2.8l1.7-0.5c0.1,0.8,0.5,1.6,1,2c0.7,0.7,1.5,0.9,2.3,0.9c2.2,0,3.2-1.6,3.2-3.2c0-0.7-0.2-1.3-0.8-1.9
		c-0.5-0.4-1.1-0.7-1.9-1.1l-1.4-0.7c-0.6-0.3-1.4-0.6-2.1-1.3c-0.7-0.7-1.1-1.4-1.1-2.6c0-2.5,1.9-4.1,4.5-4.1c1,0,1.8,0.2,2.6,0.7
		c0.6,0.4,1.2,1.1,1.6,1.8L30.1,11.2z"/>
	<path class="st1" d="M47.6,11.5c-0.5-0.5-1.3-1.1-2.1-1.5c-0.8-0.4-1.8-0.6-2.8-0.6c-3.7,0-6.4,3-6.4,6.7c0,4.3,3.5,6.5,6.5,6.5
		c1.1,0,2.1-0.3,3-0.7c0.9-0.5,1.6-1.1,1.8-1.3v2.2c-1.8,1.3-3.6,1.6-4.8,1.6c-4.8,0-8.3-3.6-8.3-8.2c0-4.8,3.6-8.3,8.4-8.3
		c1,0,2.8,0.1,4.7,1.6V11.5z"/>
	<path class="st1" d="M53.5,8c1.1,0,2.7,0.1,3.9,0.9c0.9,0.6,1.8,1.8,1.8,3.6c0,2.4-1.6,4.2-4,4.4l5.1,7.2H58l-4.9-7h-0.5v7h-1.8V8
		H53.5z M52.7,15.4h1.1c2.2,0,3.5-1.1,3.5-2.9c0-0.9-0.3-1.8-1.3-2.4c-0.7-0.4-1.5-0.5-2.3-0.5h-1.1V15.4z"/>
	<path class="st1" d="M62.1,16c0-4.8,3.7-8.3,8.3-8.3s8.3,3.5,8.3,8.3c0,4.8-3.7,8.3-8.3,8.3C65.8,24.3,62.1,20.8,62.1,16z M63.9,16
		c0,3.7,2.9,6.6,6.5,6.6c3.6,0,6.5-2.9,6.5-6.6c0-3.7-2.9-6.6-6.5-6.6C66.8,9.4,63.9,12.3,63.9,16z"/>
	<path class="st1" d="M83.8,8v14.3h4.4V24H82V8H83.8z"/>
	<path class="st1" d="M92.4,8v14.3h4.4V24h-6.2V8H92.4z"/>
</g>
<g class="st0">
	<path class="st1" d="M23.1,38.8h-0.9V31h0.9v0.7c0.6-0.7,1.3-0.8,1.7-0.8c1.6,0,2.4,1.3,2.4,2.6c0,1.4-0.9,2.6-2.4,2.6
		c-0.8,0-1.4-0.4-1.7-0.8V38.8z M26.3,33.5c0-1.2-0.8-1.9-1.6-1.9S23,32.3,23,33.5c0,1,0.6,1.8,1.7,1.8
		C25.7,35.4,26.3,34.5,26.3,33.5z"/>
	<path class="st1" d="M32.3,31h0.9v5h-0.9v-0.7c-0.3,0.4-0.8,0.8-1.7,0.8c-1.3,0-2.4-0.9-2.4-2.6c0-1.7,1.2-2.6,2.4-2.6
		c1,0,1.5,0.5,1.7,0.8V31z M29.1,33.5c0,1.1,0.6,1.9,1.6,1.9c1.1,0,1.7-0.9,1.7-1.9c0-1.3-0.9-1.8-1.7-1.8
		C29.9,31.7,29.1,32.3,29.1,33.5z"/>
	<path class="st1" d="M34.8,31h0.9v0.5c0.1-0.1,0.5-0.7,1.1-0.7c0.3,0,0.6,0.1,0.8,0.2l-0.4,0.8c-0.2-0.1-0.4-0.2-0.5-0.2
		c-0.3,0-0.6,0.1-0.7,0.3c-0.1,0.2-0.3,0.5-0.3,1.3V36h-0.9V31z"/>
	<path class="st1" d="M41.9,31h0.9v5h-0.9v-0.7c-0.3,0.4-0.8,0.8-1.7,0.8c-1.3,0-2.4-0.9-2.4-2.6c0-1.7,1.2-2.6,2.4-2.6
		c1,0,1.5,0.5,1.7,0.8V31z M38.7,33.5c0,1.1,0.6,1.9,1.6,1.9c1.1,0,1.7-0.9,1.7-1.9c0-1.3-0.9-1.8-1.7-1.8
		C39.5,31.7,38.7,32.3,38.7,33.5z"/>
	<path class="st1" d="M49.3,32.2c-0.1-0.3-0.4-0.5-0.7-0.5c-0.3,0-0.6,0.2-0.6,0.6c0,0.4,0.2,0.5,0.8,0.7c0.7,0.3,1.1,0.5,1.2,0.8
		c0.2,0.3,0.3,0.5,0.3,0.8c0,1-0.8,1.6-1.7,1.6c-0.2,0-1.3,0-1.7-1.3l0.7-0.3c0.1,0.3,0.4,0.8,1,0.8c0.6,0,0.8-0.4,0.8-0.8
		c0-0.5-0.3-0.6-0.8-0.8c-0.6-0.3-1-0.5-1.2-0.7c-0.2-0.2-0.2-0.5-0.2-0.7c0-0.9,0.6-1.4,1.5-1.4c0.3,0,1,0,1.4,0.9L49.3,32.2z"/>
	<path class="st1" d="M55.3,31h0.9v5h-0.9v-0.7c-0.3,0.4-0.8,0.8-1.7,0.8c-1.3,0-2.4-0.9-2.4-2.6c0-1.7,1.2-2.6,2.4-2.6
		c1,0,1.5,0.5,1.7,0.8V31z M52,33.5c0,1.1,0.6,1.9,1.6,1.9c1.1,0,1.7-0.9,1.7-1.9c0-1.3-0.9-1.8-1.7-1.8C52.8,31.7,52,32.3,52,33.5z
		"/>
	<path class="st1" d="M58.6,36h-0.9v-8.7h0.9v4.5c0.6-0.7,1.3-0.8,1.7-0.8c1.6,0,2.4,1.3,2.4,2.6c0,1.4-0.9,2.6-2.4,2.6
		c-0.8,0-1.4-0.4-1.7-0.8V36z M61.9,33.5c0-1.2-0.8-1.9-1.6-1.9c-0.8,0-1.7,0.7-1.7,1.9c0,1,0.6,1.8,1.7,1.8
		C61.2,35.4,61.9,34.5,61.9,33.5z"/>
	<path class="st1" d="M68.5,34.7c-0.1,0.3-0.4,0.6-0.6,0.8c-0.5,0.4-1,0.6-1.7,0.6c-1.2,0-2.5-0.8-2.5-2.6c0-1.5,0.9-2.6,2.4-2.6
		c1,0,1.6,0.5,1.9,0.9c0.3,0.4,0.5,1.2,0.5,1.9h-3.9c0,1,0.7,1.7,1.6,1.7c0.4,0,0.7-0.1,1-0.4c0.2-0.2,0.4-0.4,0.5-0.7L68.5,34.7z
		 M67.6,33c-0.1-0.8-0.7-1.3-1.5-1.3c-0.7,0-1.3,0.6-1.5,1.3H67.6z"/>
	<path class="st1" d="M69.8,31h0.9v0.5c0.1-0.1,0.5-0.7,1.1-0.7c0.3,0,0.6,0.1,0.8,0.2l-0.4,0.8c-0.2-0.1-0.4-0.2-0.5-0.2
		c-0.3,0-0.6,0.1-0.7,0.3c-0.1,0.2-0.3,0.5-0.3,1.3V36h-0.9V31z"/>
	<path class="st1" d="M76.2,31h0.9v0.5c0.3-0.4,0.7-0.6,1.2-0.6c0.9,0,1.3,0.6,1.4,0.8c0.5-0.8,1.2-0.8,1.5-0.8
		c1.5,0,1.6,1.2,1.6,1.9V36h-0.9v-3c0-0.6-0.1-1.3-0.9-1.3c-1,0-1.1,1-1.1,1.6V36H79v-3c0-0.3,0-1.4-0.9-1.4c-1,0-1.1,1-1.1,1.6V36
		h-0.9V31z"/>
	<path class="st1" d="M88.2,31h0.9v5h-0.9v-0.7c-0.3,0.4-0.8,0.8-1.7,0.8c-1.3,0-2.4-0.9-2.4-2.6c0-1.7,1.2-2.6,2.4-2.6
		c1,0,1.5,0.5,1.7,0.8V31z M85,33.5c0,1.1,0.6,1.9,1.6,1.9c1.1,0,1.7-0.9,1.7-1.9c0-1.3-0.9-1.8-1.7-1.8C85.8,31.7,85,32.3,85,33.5z
		"/>
	<path class="st1" d="M91.2,28.5c0.3,0,0.6,0.3,0.6,0.6s-0.3,0.6-0.6,0.6c-0.3,0-0.6-0.3-0.6-0.6S90.8,28.5,91.2,28.5z M91.6,31v5
		h-0.9v-5H91.6z"/>
	<path class="st1" d="M95.3,32.2c-0.1-0.3-0.4-0.5-0.7-0.5c-0.3,0-0.6,0.2-0.6,0.6c0,0.4,0.2,0.5,0.8,0.7c0.7,0.3,1.1,0.5,1.2,0.8
		c0.2,0.3,0.3,0.5,0.3,0.8c0,1-0.8,1.6-1.7,1.6c-0.2,0-1.3,0-1.7-1.3l0.7-0.3c0.1,0.3,0.4,0.8,1,0.8c0.6,0,0.8-0.4,0.8-0.8
		c0-0.5-0.3-0.6-0.8-0.8c-0.6-0.3-1-0.5-1.2-0.7c-0.2-0.2-0.2-0.5-0.2-0.7c0-0.9,0.6-1.4,1.5-1.4c0.3,0,1,0,1.4,0.9L95.3,32.2z"/>
</g>
<rect id="Rectangle_2631" y="1" class="st2" width="24" height="24"/>
<rect id="Rectangle_2631-2" y="25" class="st2" width="24" height="24"/>
<g id="arrow-bto" transform="translate(24 43) rotate(90)">
	
		<rect id="Rectangle_2631-3" transform="matrix(2.535182e-06 1 -1 2.535182e-06 24 -3.042214e-05)" class="st2" width="24" height="24"/>
	<path id="Path_1019" class="st3" d="M9,18l5.9-6.4L9,6"/>
</g>
<line id="Line_24" class="st4" x1="12" y1="31.5" x2="12" y2="7.5"/>
<line id="Line_25" class="st4" x1="12" y1="37.5" x2="12" y2="35.5"/>
<line id="Line_26" class="st4" x1="12" y1="49.5" x2="12" y2="41.5"/>
</svg>
