<svg xmlns="http://www.w3.org/2000/svg" width="9.41" height="7.68" viewBox="0 0 9.41 7.68">
  <g id="icon-arrow" transform="translate(-473.925 287.897) rotate(-90)">
    <g id="Group_617" data-name="Group 617" transform="translate(278.553 454.575)">
      <g id="noun_Arrow_1808421" transform="translate(10.913 0) rotate(90)">
        <path id="Path_6" data-name="Path 6" d="M9.271,3.475,6.134.164A.583.583,0,0,0,5.368.129a.547.547,0,0,0,0,.767l2.3,2.422H.523a.523.523,0,0,0,0,1.046H7.668l-2.3,2.422a.531.531,0,0,0,0,.767.584.584,0,0,0,.767-.035L9.271,4.207A.554.554,0,0,0,9.271,3.475Z" transform="translate(19.35 1.57)" fill="#edede3"/>
      </g>
    </g>
  </g>
</svg>
