<svg height="30.428" viewBox="0 0 39.791 30.428" width="39.791" xmlns="http://www.w3.org/2000/svg"><path d="m35.848 30.428h-3.6l.134-26.828h-3.124v-3.556l10.533-.044v3.6h-3.077zm-5.524 0h-3.581v-.078c0-2.158-.082-11.373-.459-13.67h-4.658l-.026 13.734h-3.68l-.365-30.414h9.118a27.092 27.092 0 0 1 2.327 6.654 56.023 56.023 0 0 1 1.111 7.666 144.09 144.09 0 0 1 .242 14.486v.008l-.031 1.614zm-9.169-26.917-.089 9.362h4.681c0-.01-.182-1.616-.549-3.541a23.211 23.211 0 0 0 -1.723-5.8h-.052c-.229 0-2.249-.02-2.269-.02zm-6.028 26.917h-3.977l-.617-30.419 4.681-.009zm-10.856 0-3.459-.038-.812-30.39 8.192.054v3.617h-3.973v9.329h3.081v3.62h-3.08l.05 13.8z" fill="#fff"/></svg>