<?xml version="1.0" standalone="no"?>
<!DOCTYPE svg PUBLIC "-//W3C//DTD SVG 1.1//EN" "http://www.w3.org/Graphics/SVG/1.1/DTD/svg11.dtd" >
<svg xmlns="http://www.w3.org/2000/svg" xmlns:xlink="http://www.w3.org/1999/xlink" version="1.1">
<metadata>
Created by FontForge 20170731 at Mon Mar  5 17:27:29 2018
 By Aleksey,,,
Copyright (c) 2018 Monotype Imaging Inc. All rights reserved.
</metadata>
<defs>
<font id="NeuePlak-CompExtraBlack" horiz-adv-x="310" >
  <font-face 
    font-family="Neue Plak Compressed ExtraBlack"
    font-weight="900"
    font-stretch="extra-condensed"
    units-per-em="1000"
    panose-1="2 11 11 8 3 2 2 2 2 4"
    ascent="800"
    descent="-200"
    x-height="540"
    cap-height="706"
    bbox="-386 -188 793 1022"
    underline-thickness="50"
    underline-position="-200"
    unicode-range="U+000D-FEFF"
  />
<missing-glyph horiz-adv-x="322" 
d="M10 0v706h302v-706h-302zM150 130h22v446h-22v-446z" />
    <glyph glyph-name=".notdef" horiz-adv-x="322" 
d="M10 0v706h302v-706h-302zM150 130h22v446h-22v-446z" />
    <glyph glyph-name=".null" horiz-adv-x="0" 
 />
    <glyph glyph-name="nonmarkingreturn" horiz-adv-x="333" 
 />
    <glyph glyph-name="NULL" horiz-adv-x="0" 
 />
    <glyph glyph-name="NULL" horiz-adv-x="0" 
 />
    <glyph glyph-name="CR" unicode="&#xd;" horiz-adv-x="100" 
 />
    <glyph glyph-name="space" unicode=" " horiz-adv-x="100" 
 />
    <glyph glyph-name="exclam" unicode="!" horiz-adv-x="208" 
d="M47 195l-13 511h140l-13 -511h-114zM104 -6q-33 0 -53.5 19.5t-20.5 53.5q0 35 20.5 54.5t53.5 19.5t53.5 -19.5t20.5 -54.5q0 -34 -20.5 -53.5t-53.5 -19.5z" />
    <glyph glyph-name="quotedbl" unicode="&#x22;" horiz-adv-x="335" 
d="M46 457l-15 249h128l-15 -249h-98zM191 457l-15 249h128l-15 -249h-98z" />
    <glyph glyph-name="numbersign" unicode="#" horiz-adv-x="399" 
d="M383 412h-53l-11 -117h54l-11 -124h-53l-16 -181h-109l16 181h-32l-16 -181h-108l16 181h-55l11 124h54l11 117h-55l11 124h54l16 180h108l-16 -180h32l16 180h109l-16 -180h54zM210 295l11 117h-32l-11 -117h32z" />
    <glyph glyph-name="dollar" unicode="$" horiz-adv-x="324" 
d="M203 414q43 -23 64.5 -42t32.5 -42q11 -24 13.5 -50.5t2.5 -95.5q0 -62 -2 -83.5t-12 -43.5q-29 -64 -129 -67v-55h-24v55q-99 3 -129 65q-9 20 -11 43.5t-2 117.5h134q0 -97 1 -101q2 -8 10 -10v182q-11 8 -31 19q-43 23 -64.5 42t-32.5 42q-11 24 -13.5 50t-2.5 92
q0 55 2 75t12 42q29 64 129 67v55h24v-55q99 -3 129 -65q9 -20 11 -43t2 -118h-134q0 96 -1 100q-2 9 -10 11v-168q11 -8 31 -19zM143 532q0 -56 8 -74l3 -6v149q-8 -2 -10 -11q-1 -4 -1 -58zM180 115q1 4 1 69q0 60 -8 78l-3 6v-163q8 2 10 10z" />
    <glyph glyph-name="percent" unicode="%" horiz-adv-x="400" 
d="M100 411q-62 0 -82 42q-8 17 -8 108t8 108q19 42 82 42q62 0 82 -42q8 -17 8 -108t-8 -108q-20 -42 -82 -42zM53 0l240 706h54l-240 -706h-54zM100 482q6 0 7 3q1 2 1 76t-1 76q-1 3 -7 3t-7 -3q-1 -2 -1 -76t1 -76q1 -3 7 -3zM300 -5q-62 0 -82 42q-8 17 -8 108t8 108
q20 42 82 42t82 -42q8 -17 8 -108t-8 -108q-20 -42 -82 -42zM300 66q6 0 7 3q1 2 1 76t-1 76q-1 3 -7 3t-7 -3q-1 -2 -1 -76t1 -76q1 -3 7 -3z" />
    <glyph glyph-name="ampersand" unicode="&#x26;" horiz-adv-x="399" 
d="M389 318q0 -114 -26 -186q3 -1 25 -6v-126q-60 0 -100 24q-49 -34 -121 -34q-157 0 -157 163q0 66 25 119.5t70 111.5q-49 132 -49 195t36 100t109 37q61 0 99 -31.5t38 -98.5q0 -33 -18 -74.5t-34 -65.5t-52 -75l44 -125q4 28 4 72h107zM178 577q0 -28 13 -77
q25 45 25 85q0 31 -18 31q-20 0 -20 -39zM145 180q0 -36 13.5 -55t36.5 -19q8 0 17 3l-12 29l-41 107q-14 -34 -14 -65z" />
    <glyph glyph-name="quotesingle" unicode="'" horiz-adv-x="190" 
d="M46 457l-15 249h128l-15 -249h-98z" />
    <glyph glyph-name="parenleft" unicode="(" horiz-adv-x="193" 
d="M87 -150q-40 108 -55.5 210.5t-15.5 242.5q0 139 16 241.5t56 211.5h103q-51 -213 -51 -453t51 -453h-104z" />
    <glyph glyph-name="parenright" unicode=")" horiz-adv-x="193" 
d="M106 -150h-104q51 213 51 453t-51 453h103q40 -109 56 -211.5t16 -241.5q0 -140 -15.5 -242.5t-55.5 -210.5z" />
    <glyph glyph-name="asterisk" unicode="*" horiz-adv-x="316" 
d="M133 463l-87 63l70 49l-86 -1l33 102l69 -51l-28 81h108l-28 -81l69 51l33 -102l-86 1l70 -49l-87 -63l-25 83z" />
    <glyph glyph-name="plus" unicode="+" horiz-adv-x="312" 
d="M292 366v-100h-85v-85h-102v85h-85v100h85v87h103v-87h84z" />
    <glyph glyph-name="comma" unicode="," horiz-adv-x="195" 
d="M18 -150l29 312h120l-49 -312h-100z" />
    <glyph glyph-name="hyphen" unicode="-" horiz-adv-x="202" 
d="M20 255v124h162v-124h-162z" />
    <glyph glyph-name="period" unicode="." horiz-adv-x="208" 
d="M104 -6q-33 0 -53.5 19.5t-20.5 53.5q0 35 20.5 54.5t53.5 19.5t53.5 -19.5t20.5 -54.5q0 -34 -20.5 -53.5t-53.5 -19.5z" />
    <glyph glyph-name="slash" unicode="/" horiz-adv-x="296" 
d="M10 -50l152 766h124l-152 -766h-124z" />
    <glyph glyph-name="zero" unicode="0" horiz-adv-x="324" 
d="M162 -10q-100 0 -134 75q-12 28 -14.5 72t-2.5 216t2.5 216t14.5 72q34 75 134 75t134 -75q12 -28 14.5 -72t2.5 -216t-2.5 -216t-14.5 -72q-34 -75 -134 -75zM162 115q9 0 10 7q1 4 1 231t-1 231q-1 7 -10 7t-10 -7q-1 -4 -1 -231t1 -231q1 -7 10 -7z" />
    <glyph glyph-name="one" unicode="1" horiz-adv-x="207" 
d="M53 0v572h-53l17 134h176v-706h-140z" />
    <glyph glyph-name="two" unicode="2" horiz-adv-x="298" 
d="M18 0v2l112 377q18 59 22.5 82.5t4.5 62.5q0 53 -1 57q-2 8 -10 8t-10 -8q-1 -4 -1 -91h-130q0 88 2 114.5t12 50.5q28 61 128 61q101 0 132 -69q14 -30 14 -96q0 -83 -32 -195l-63 -226h93v-130h-273z" />
    <glyph glyph-name="three" unicode="3" horiz-adv-x="303" 
d="M246 378q27 -11 36 -32q10 -22 10 -117q0 -100 -2 -126t-11 -46q-30 -67 -132 -67q-49 0 -80.5 14t-47.5 51q-10 20 -12 47t-2 114h130q0 -89 1 -92q2 -7 10 -7t10 7q1 4 1 99q0 65 -4 74q-7 16 -40 16h-18v121h20q31 0 38 16q4 9 4 66q0 61 -1 65q-2 7 -10 7t-10 -7
q-1 -4 -1 -91h-130q0 128 14 161q29 65 131 65q100 0 129 -67q9 -20 11 -41.5t2 -96.5q0 -80 -9 -100q-10 -22 -37 -33z" />
    <glyph glyph-name="four" unicode="4" horiz-adv-x="353" 
d="M348 269v-139h-30v-130h-135v130h-184v1l71 575h248v-437h30zM149 269h34v370h-2z" />
    <glyph glyph-name="five" unicode="5" horiz-adv-x="302" 
d="M147 -10q-98 0 -128 64q-9 19 -11.5 50.5t-2.5 111.5h130q0 -95 2 -99q3 -5 9 -5t9 5q2 4 2 117q0 110 -7 125q-7 17 -46 17q-31 0 -89 -8l26 338h248l-18 -134h-114l-9 -94q20 3 38 3q71 0 94 -50q8 -17 10 -47.5t2 -132.5q0 -116 -2 -146.5t-11 -51.5q-29 -63 -132 -63
z" />
    <glyph glyph-name="six" unicode="6" horiz-adv-x="313" 
d="M293 425q7 -17 8.5 -42.5t1.5 -137.5q0 -113 -2 -140t-12 -50q-28 -65 -130 -65q-99 0 -131 72q-12 28 -14.5 73t-2.5 218q0 172 2.5 216t14.5 72q34 75 131 75q68 0 104 -36q24 -25 29.5 -66.5t5.5 -123.5h-130q0 90 -3 94t-8 4q-8 0 -10 -7q-1 -4 -1 -139q23 24 69 24
q60 0 78 -41zM167 124q1 4 1 109q0 109 -1 113q-2 7 -10 7t-10 -7q-1 -4 -1 -113q0 -105 1 -109q1 -7 10 -7t10 7z" />
    <glyph glyph-name="seven" unicode="7" horiz-adv-x="270" 
d="M33 0l91 572h-119v134h270l-98 -706h-144z" />
    <glyph glyph-name="eight" unicode="8" horiz-adv-x="314" 
d="M252 406q32 -14 41 -35q7 -16 8.5 -42.5t1.5 -115.5q0 -93 -1.5 -117.5t-8.5 -40.5q-30 -65 -136 -65t-136 65q-7 16 -8.5 40.5t-1.5 117.5q0 89 1.5 115.5t8.5 42.5q9 21 41 35q-32 16 -42 39q-9 20 -9 105q0 77 12 102q30 64 134 64t134 -64q12 -25 12 -102
q0 -85 -9 -105q-10 -23 -42 -39zM166 451q2 4 2 71q0 66 -2 70q-2 5 -9 5t-9 -5q-2 -4 -2 -70q0 -67 2 -71q2 -5 9 -5t9 5zM166 122q2 4 2 108q0 103 -2 107q-2 5 -9 5t-9 -5q-2 -4 -2 -107q0 -104 2 -108q2 -5 9 -5t9 5z" />
    <glyph glyph-name="nine" unicode="9" horiz-adv-x="313" 
d="M285 644q12 -28 14.5 -73t2.5 -218q0 -172 -2.5 -216t-14.5 -72q-34 -75 -131 -75q-68 0 -104 36q-24 25 -29.5 66.5t-5.5 123.5h130q0 -90 3 -94t8 -4q8 0 10 7q1 4 1 139q-23 -24 -69 -24q-60 0 -78 41q-7 17 -8.5 42.5t-1.5 137.5q0 113 2 140t12 50q28 65 130 65
q99 0 131 -72zM166 360q1 4 1 113q0 105 -1 109q-1 7 -10 7t-10 -7q-1 -4 -1 -109q0 -109 1 -113q2 -7 10 -7t10 7z" />
    <glyph glyph-name="colon" unicode=":" horiz-adv-x="208" 
d="M104 353q-33 0 -53.5 19.5t-20.5 53.5q0 35 20.5 54.5t53.5 19.5t53.5 -19.5t20.5 -54.5q0 -34 -20.5 -53.5t-53.5 -19.5zM104 -6q-33 0 -53.5 19.5t-20.5 53.5q0 35 20.5 54.5t53.5 19.5t53.5 -19.5t20.5 -54.5q0 -34 -20.5 -53.5t-53.5 -19.5z" />
    <glyph glyph-name="semicolon" unicode=";" horiz-adv-x="205" 
d="M101 353q-33 0 -53.5 19.5t-20.5 53.5q0 35 20.5 54.5t53.5 19.5t53.5 -19.5t20.5 -54.5q0 -34 -20.5 -53.5t-53.5 -19.5zM18 -150l29 312h120l-49 -312h-100z" />
    <glyph glyph-name="less" unicode="&#x3c;" horiz-adv-x="312" 
d="M292 475v-100l-166 -58l166 -58v-100l-272 95v126z" />
    <glyph glyph-name="equal" unicode="=" horiz-adv-x="312" 
d="M20 345v100h272v-100h-272zM20 189v100h272v-100h-272z" />
    <glyph glyph-name="greater" unicode="&#x3e;" horiz-adv-x="312" 
d="M20 475l272 -95v-126l-272 -95v100l166 58l-166 58v100z" />
    <glyph glyph-name="question" unicode="?" horiz-adv-x="348" 
d="M97 195q64 226 77.5 281t13.5 93q0 25 -14 25q-9 0 -12 -9q-2 -7 -2 -76h-140q0 70 2 91t11 42q33 74 142 74q72 0 112.5 -37.5t40.5 -103.5q0 -31 -12 -81.5t-76 -298.5h-143zM165 -6q-33 0 -53.5 19.5t-20.5 53.5q0 35 20.5 54.5t53.5 19.5t53.5 -19.5t20.5 -54.5
q0 -34 -20.5 -53.5t-53.5 -19.5z" />
    <glyph glyph-name="at" unicode="@" horiz-adv-x="389" 
d="M350 614q19 -42 24 -104t5 -181q0 -107 -3 -156.5t-15 -76.5q-13 -29 -36.5 -38t-72.5 -9h-45v47q-26 -47 -67 -47q-38 0 -50 26q-7 15 -8.5 33.5t-1.5 82.5t1.5 82t8.5 35q10 23 30.5 33t63.5 10h21v11q0 98 -1 101q-2 6 -9 6t-9 -6q-1 -3 -1 -63h-99q0 75 13 103
q19 43 100 43t99 -41q12 -26 12 -120v-271q7 6 10 12q8 18 8 203q0 81 -1 118t-6 78.5t-15 64.5q-25 54 -109 54t-111 -61q-25 -56 -25 -253q0 -96 1 -142.5t6.5 -100t17.5 -78.5q26 -56 130 -56q33 0 73 5v-48q-40 -5 -73 -5q-75 0 -117 20t-62 65q-13 28 -19 83t-7 104
t-1 153q0 109 5.5 172t24.5 104q38 84 157 84q118 0 153 -76zM206 277v7h-6q-9 0 -12 -7q-2 -5 -2 -50q0 -58 1 -62q1 -6 9 -6t9 6q1 4 1 112z" />
    <glyph glyph-name="A" unicode="A" horiz-adv-x="334" 
d="M196 0l-4 85h-50l-4 -85h-138l57 706h220l57 -706h-138zM148 209h38l-18 377h-2z" />
    <glyph glyph-name="B" unicode="B" horiz-adv-x="324" 
d="M305 330q6 -14 7.5 -31.5t1.5 -85.5q0 -95 -1.5 -121t-8.5 -41q-14 -29 -39 -40t-68 -11h-185v706h181q85 0 108 -49q8 -17 9.5 -38t1.5 -95q0 -65 -1.5 -82t-7.5 -30q-14 -32 -76 -39q62 -7 78 -43zM173 443q1 4 1 81q0 52 -1 56q-3 11 -14 11h-7v-162h6q12 0 15 14z
M173 125q1 4 1 96q0 77 -1 81q-2 9 -13 9h-8v-196h8q11 0 13 10z" />
    <glyph glyph-name="C" unicode="C" horiz-adv-x="319" 
d="M161 -10q-100 0 -134 75q-12 28 -14.5 72t-2.5 216t2.5 216t14.5 72q34 75 134 75q67 0 105 -34q30 -28 38 -66t8 -126h-140q0 95 -4 99q-2 2 -7 2q-9 0 -10 -7q-1 -4 -1 -231t1 -231q1 -7 10 -7q5 0 7 2q4 3 4 99h140q0 -77 -10 -123t-37 -71q-35 -32 -104 -32z" />
    <glyph glyph-name="D" unicode="D" horiz-adv-x="324" 
d="M12 0v706h151q100 0 134 -75q12 -26 14.5 -68t2.5 -210t-2.5 -210t-14.5 -68q-34 -75 -134 -75h-151zM152 115h6q9 0 13 6q3 6 3 227q0 231 -3 237q-4 6 -13 6h-6v-476z" />
    <glyph glyph-name="E" unicode="E" horiz-adv-x="228" 
d="M12 0v706h206v-131h-66v-133h63v-130h-63v-182h66v-130h-206z" />
    <glyph glyph-name="F" unicode="F" horiz-adv-x="221" 
d="M12 0v706h199v-130h-59v-134h56v-130h-56v-312h-140z" />
    <glyph glyph-name="G" unicode="G" horiz-adv-x="322" 
d="M160 239v129h152v-55q0 -146 -2.5 -183.5t-13.5 -62.5q-35 -77 -135 -77t-134 75q-12 28 -14.5 72t-2.5 216t2.5 216t14.5 72q34 75 134 75q67 0 105 -34q30 -28 38 -66t8 -126h-140q0 95 -4 99q-2 2 -7 2q-9 0 -10 -7q-1 -4 -1 -231t1 -231q1 -7 10 -7t10 7q1 4 1 117
h-12z" />
    <glyph glyph-name="H" unicode="H" horiz-adv-x="326" 
d="M12 0v706h140v-264h22v264h140v-706h-140v312h-22v-312h-140z" />
    <glyph glyph-name="I" unicode="I" horiz-adv-x="164" 
d="M12 0v706h140v-706h-140z" />
    <glyph glyph-name="J" unicode="J" horiz-adv-x="188" 
d="M47 -1q-28 0 -43 1v130h11q23 0 23 30v546h140v-566q0 -73 -31.5 -107t-99.5 -34z" />
    <glyph glyph-name="K" unicode="K" horiz-adv-x="335" 
d="M334 0h-135l-47 339v-339h-140v706h140v-279l37 279h140l-57 -324z" />
    <glyph glyph-name="L" unicode="L" horiz-adv-x="204" 
d="M12 0v706h140v-576h48v-130h-188z" />
    <glyph glyph-name="M" unicode="M" horiz-adv-x="454" 
d="M12 0v706h176l39 -320l39 320h176v-706h-135v360l-35 -360h-90l-35 360v-360h-135z" />
    <glyph glyph-name="N" unicode="N" horiz-adv-x="363" 
d="M12 0v706h116l88 -291v291h135v-706h-110l-94 302v-302h-135z" />
    <glyph glyph-name="O" unicode="O" horiz-adv-x="322" 
d="M161 -10q-100 0 -134 75q-12 28 -14.5 72t-2.5 216t2.5 216t14.5 72q34 75 134 75t134 -75q12 -28 14.5 -72t2.5 -216t-2.5 -216t-14.5 -72q-34 -75 -134 -75zM161 115q9 0 10 7q1 4 1 231t-1 231q-1 7 -10 7t-10 -7q-1 -4 -1 -231t1 -231q1 -7 10 -7z" />
    <glyph glyph-name="P" unicode="P" horiz-adv-x="319" 
d="M12 0v706h183q85 0 108 -50q8 -18 9.5 -41t1.5 -107q0 -83 -1.5 -106t-9.5 -41q-22 -49 -108 -49h-43v-312h-140zM152 426h6q9 0 13 6q3 6 3 76q0 71 -3 77q-4 6 -13 6h-6v-165z" />
    <glyph glyph-name="Q" unicode="Q" horiz-adv-x="322" 
d="M295 65q-15 -33 -42 -51l52 -110l-109 -45l-55 132q-83 6 -114 74q-12 28 -14.5 72t-2.5 216t2.5 216t14.5 72q34 75 134 75t134 -75q12 -28 14.5 -72t2.5 -216t-2.5 -216t-14.5 -72zM151 584q-1 -4 -1 -231t1 -231q1 -7 10 -7t10 7q1 4 1 231t-1 231q-1 7 -10 7t-10 -7z
" />
    <glyph glyph-name="R" unicode="R" horiz-adv-x="326" 
d="M252 376q34 -5 48 -26t14 -66v-284h-140v296q0 16 -13 16h-9v-312h-140v706h185q86 0 108 -50q7 -16 9 -38t2 -94q0 -99 -7 -114q-12 -27 -57 -34zM171 438q3 6 3 82q0 59 -3 65q-4 6 -13 6h-6v-159h6q9 0 13 6z" />
    <glyph glyph-name="S" unicode="S" horiz-adv-x="314" 
d="M157 -10q-108 0 -138 65q-9 20 -11 43.5t-2 117.5h139q0 -90 1 -94q1 -7 10 -7t10 7q1 4 1 62q0 54 -8 72q-9 20 -48 44q-70 44 -88 84q-11 24 -13.5 52t-2.5 96q0 55 2 75t12 42q31 67 136 67q108 0 138 -65q9 -20 11 -43.5t2 -117.5h-139q0 90 -1 94q-1 7 -10 7t-10 -7
q-1 -4 -1 -52q0 -51 8 -69q9 -20 47 -43q70 -42 89 -85q11 -25 13.5 -51.5t2.5 -99.5q0 -62 -2 -83.5t-12 -43.5q-31 -67 -136 -67z" />
    <glyph glyph-name="T" unicode="T" horiz-adv-x="244" 
d="M52 0v576h-48v130h236v-130h-48v-576h-140z" />
    <glyph glyph-name="U" unicode="U" horiz-adv-x="324" 
d="M162 -10q-82 0 -116.5 37.5t-34.5 114.5v564h140v-570q0 -19 11 -19t11 19v570h140v-564q0 -76 -35.5 -114t-115.5 -38z" />
    <glyph glyph-name="V" unicode="V" horiz-adv-x="318" 
d="M183 706h135l-91 -706h-135l-92 706h135l24 -432z" />
    <glyph glyph-name="W" unicode="W" horiz-adv-x="512" 
d="M377 706h135l-82 -706h-135l-39 347l-39 -347h-135l-82 706h135l26 -377l34 377h122l34 -377z" />
    <glyph glyph-name="X" unicode="X" horiz-adv-x="335" 
d="M1 0l63 368l-61 338h135l30 -243l30 243h135l-62 -338l63 -368h-135l-31 274l-32 -274h-135z" />
    <glyph glyph-name="Y" unicode="Y" horiz-adv-x="334" 
d="M97 0v270l-97 436h135l32 -260l32 260h135l-97 -436v-270h-140z" />
    <glyph glyph-name="Z" unicode="Z" horiz-adv-x="242" 
d="M5 0l75 576h-69v130h226l-75 -576h72v-130h-229z" />
    <glyph glyph-name="bracketleft" unicode="[" horiz-adv-x="182" 
d="M20 -150v906h152v-114h-30v-678h30v-114h-152z" />
    <glyph glyph-name="backslash" unicode="\" horiz-adv-x="296" 
d="M286 -50h-124l-152 766h124z" />
    <glyph glyph-name="bracketright" unicode="]" horiz-adv-x="182" 
d="M162 -150h-152v114h30v678h-30v114h152v-906z" />
    <glyph glyph-name="asciicircum" unicode="^" horiz-adv-x="290" 
d="M285 430h-123l-17 162l-17 -162h-123l54 276h172z" />
    <glyph glyph-name="underscore" unicode="_" horiz-adv-x="210" 
d="M0 -150v120h210v-120h-210z" />
    <glyph glyph-name="grave" unicode="`" horiz-adv-x="282" 
d="M232 576h-112l-70 130h130z" />
    <glyph glyph-name="a" unicode="a" horiz-adv-x="305" 
d="M285 486q10 -22 10 -118v-368h-135v40q-32 -46 -80 -46q-49 0 -65 34q-7 15 -8.5 35t-1.5 88q0 72 1.5 92t9.5 37q12 27 39 40t81 13h24v8q0 86 -1 89q-1 6 -9 6t-9 -6q-1 -3 -1 -46h-127q0 76 11 101q27 60 129 60q105 0 132 -59zM150 104q8 0 9 6q1 4 1 126v7h-6
q-9 0 -12 -7q-2 -5 -2 -60q0 -62 1 -66q1 -6 9 -6z" />
    <glyph glyph-name="b" unicode="b" horiz-adv-x="313" 
d="M292 509q8 -18 9.5 -52.5t1.5 -186.5t-1.5 -186.5t-9.5 -52.5q-18 -37 -65 -37q-56 0 -85 46v-40h-132v706h135v-202q29 42 82 42q47 0 65 -37zM164 110q1 4 1 160t-1 160q-2 6 -9 6q-10 0 -10 -13v-306q0 -13 10 -13q7 0 9 6z" />
    <glyph glyph-name="c" unicode="c" 
d="M155 -6q-99 0 -131 66q-10 22 -12 54t-2 156t2 156t12 54q32 66 131 66q74 0 108 -31q26 -24 31.5 -54.5t5.5 -117.5h-135q0 88 -3 91q-2 2 -7 2q-7 0 -9 -6q-1 -4 -1 -160t1 -160q2 -6 9 -6q5 0 7 2q3 3 3 110h135q0 -101 -5.5 -134t-31.5 -57q-34 -31 -108 -31z" />
    <glyph glyph-name="d" unicode="d" horiz-adv-x="313" 
d="M168 706h135v-706h-132v40q-29 -46 -85 -46q-47 0 -65 37q-8 18 -9.5 52.5t-1.5 186.5t1.5 186.5t9.5 52.5q18 37 65 37q53 0 82 -42v202zM168 117v306q0 13 -10 13q-8 0 -9 -6q-1 -4 -1 -160t1 -160q1 -6 9 -6q10 0 10 13z" />
    <glyph glyph-name="e" unicode="e" 
d="M162 106q3 3 3 72h135q0 -71 -7 -100.5t-32 -52.5q-34 -31 -106 -31q-101 0 -131 66q-10 22 -12 54.5t-2 155.5t2 155.5t12 54.5q30 66 131 66t132 -67q9 -20 11 -58t2 -178h-155q0 -129 1 -133q2 -6 9 -6q5 0 7 2zM155 436q-7 0 -9 -6q-1 -3 -1 -97h20q0 94 -1 97
q-2 6 -9 6z" />
    <glyph glyph-name="f" unicode="f" horiz-adv-x="232" 
d="M41 0v405h-36v135h36v48q0 67 35.5 95.5t108.5 28.5q26 0 42 -1v-118h-16q-20 0 -27.5 -9t-7.5 -27v-17h44v-135h-44v-405h-135z" />
    <glyph glyph-name="g" unicode="g" horiz-adv-x="313" 
d="M171 540h132v-519q0 -92 -12 -116q-31 -65 -136 -65q-75 0 -107 29q-19 17 -25 41.5t-6 63.5h131q0 -32 3 -35q2 -2 7 -2q8 0 9 6q1 5 1 64v33q-28 -46 -80 -46q-48 0 -64 33q-9 19 -11.5 56.5t-2.5 183.5q0 155 2 189t11 52q19 37 65 37q54 0 83 -46v41zM158 104
q10 0 10 13v309q0 10 -10 10q-8 0 -9 -6q-1 -4 -1 -160t1 -160q1 -6 9 -6z" />
    <glyph glyph-name="h" unicode="h" 
d="M229 545q71 0 71 -86v-459h-135v421q0 15 -10 15t-10 -15v-421h-135v706h135v-207q32 46 84 46z" />
    <glyph glyph-name="i" unicode="i" horiz-adv-x="155" 
d="M79 576q-32 0 -52.5 19t-20.5 52t20.5 51t52.5 18q31 0 51 -18t20 -51t-20 -52t-51 -19zM10 0v540h135v-540h-135z" />
    <glyph glyph-name="j" unicode="j" horiz-adv-x="155" 
d="M78 576q-32 0 -52.5 19t-20.5 52t20.5 51t52.5 18q31 0 51 -18t20 -51t-20 -52t-51 -19zM19 -152q-29 0 -45 2v118q7 -1 13 -1q13 0 18 7t5 24v542h135v-578q0 -61 -31.5 -87.5t-94.5 -26.5z" />
    <glyph glyph-name="k" unicode="k" horiz-adv-x="318" 
d="M324 0h-143l-36 256v-256h-135v706h135v-379l30 213h144l-47 -248z" />
    <glyph glyph-name="l" unicode="l" horiz-adv-x="155" 
d="M10 0v706h135v-706h-135z" />
    <glyph glyph-name="m" unicode="m" horiz-adv-x="465" 
d="M382 545q39 0 56 -20t17 -65v-460h-135v417q0 19 -10 19t-10 -17v-419h-135v420q0 16 -10 16t-10 -17v-419h-135v540h135v-43q27 48 85 48q56 0 67 -49q32 49 85 49z" />
    <glyph glyph-name="n" unicode="n" 
d="M229 545q37 0 54 -20.5t17 -64.5v-460h-135v421q0 15 -10 15t-10 -15v-421h-135v540h135v-40q33 45 84 45z" />
    <glyph glyph-name="o" unicode="o" 
d="M155 -6q-101 0 -131 66q-10 22 -12 54.5t-2 155.5t2 155.5t12 54.5q30 66 131 66t131 -66q10 -22 12 -54.5t2 -155.5t-2 -155.5t-12 -54.5q-30 -66 -131 -66zM155 104q7 0 9 6q1 4 1 160t-1 160q-2 6 -9 6t-9 -6q-1 -4 -1 -160t1 -160q2 -6 9 -6z" />
    <glyph glyph-name="p" unicode="p" horiz-adv-x="313" 
d="M292 509q8 -18 9.5 -52.5t1.5 -186.5t-1.5 -186.5t-9.5 -52.5q-18 -37 -65 -37q-53 0 -82 42v-186h-135v690h132v-40q29 46 85 46q47 0 65 -37zM164 110q1 4 1 160t-1 160q-2 6 -9 6q-10 0 -10 -13v-306q0 -13 10 -13q7 0 9 6z" />
    <glyph glyph-name="q" unicode="q" horiz-adv-x="313" 
d="M171 540h132v-690h-135v186q-29 -42 -82 -42q-47 0 -65 37q-8 18 -9.5 52.5t-1.5 186.5t1.5 186.5t9.5 52.5q18 37 65 37q56 0 85 -46v40zM158 104q10 0 10 13v306q0 13 -10 13q-8 0 -9 -6q-1 -4 -1 -160t1 -160q1 -6 9 -6z" />
    <glyph glyph-name="r" unicode="r" horiz-adv-x="209" 
d="M199 540h3v-135h-3q-25 0 -39.5 -19.5t-14.5 -56.5v-329h-135v540h130v-47q7 22 24 34.5t35 12.5z" />
    <glyph glyph-name="s" unicode="s" horiz-adv-x="300" 
d="M149 -6q-53 0 -84 14.5t-47 48.5q-9 20 -11 41.5t-2 79.5h135q0 -65 1 -68q1 -6 9 -6t9 6q1 3 1 29q0 38 -5 49q-8 17 -47 40q-72 42 -90 83q-13 29 -13 97q0 48 10 71q29 66 136 66q106 0 134 -62q10 -23 10 -102h-135q0 44 -1 48q-2 7 -9 7t-9 -7q-1 -4 -1 -18
q0 -29 4 -38q8 -17 53 -44q39 -23 57.5 -39t28.5 -38q12 -26 12 -105q0 -59 -13 -89q-29 -64 -133 -64z" />
    <glyph glyph-name="t" unicode="t" horiz-adv-x="218" 
d="M163 -4q-67 0 -97 25.5t-30 97.5v286h-31v135h31v109h135v-109h33v-135h-33v-249q0 -22 6.5 -29t20.5 -7h15v-120q-27 -4 -50 -4z" />
    <glyph glyph-name="u" unicode="u" 
d="M165 540h135v-540h-135v40q-33 -45 -84 -45q-37 0 -54 20.5t-17 64.5v460h135v-421q0 -15 10 -15t10 15v421z" />
    <glyph glyph-name="v" unicode="v" horiz-adv-x="318" 
d="M85 0l-90 540h140l24 -365l24 365h140l-90 -540h-148z" />
    <glyph glyph-name="w" unicode="w" horiz-adv-x="480" 
d="M356 540h129l-83 -540h-133l-28 289l-29 -289h-134l-83 540h129l23 -290l32 290h122l33 -290z" />
    <glyph glyph-name="x" unicode="x" horiz-adv-x="318" 
d="M-6 0l71 281l-63 259h140l17 -150l17 150h140l-63 -259l71 -281h-140l-25 172l-25 -172h-140z" />
    <glyph glyph-name="y" unicode="y" horiz-adv-x="303" 
d="M172 540h136l-95 -539l-27 -151h-128l27 154l-90 536h140l21 -319z" />
    <glyph glyph-name="z" unicode="z" horiz-adv-x="262" 
d="M267 540l-100 -405h90v-135h-262l105 405h-95v135h262z" />
    <glyph glyph-name="braceleft" unicode="{" horiz-adv-x="195" 
d="M155 398q0 -44 -11.5 -66.5t-44.5 -28.5q33 -6 44.5 -28.5t11.5 -66.5v-210q0 -26 5 -34t20 -8h5v-106h-20q-70 0 -97.5 27.5t-27.5 101.5v221q0 21 -6 28t-24 7v136q18 0 24 7t6 28v221q0 74 27.5 101.5t97.5 27.5h20v-106h-5q-15 0 -20 -8t-5 -34v-210z" />
    <glyph glyph-name="bar" unicode="|" horiz-adv-x="164" 
d="M22 -150v906h120v-906h-120z" />
    <glyph glyph-name="braceright" unicode="}" horiz-adv-x="195" 
d="M155 406q0 -21 6 -28t24 -7v-136q-18 0 -24 -7t-6 -28v-221q0 -74 -27.5 -101.5t-97.5 -27.5h-20v106h5q15 0 20 8t5 34v210q0 44 11.5 66.5t44.5 28.5q-33 6 -44.5 28.5t-11.5 66.5v210q0 26 -5 34t-20 8h-5v106h20q70 0 97.5 -27.5t27.5 -101.5v-221z" />
    <glyph glyph-name="asciitilde" unicode="~" horiz-adv-x="312" 
d="M203 226q-31 0 -63 35q-12 14 -18 14q-9 0 -9 -48h-86q0 103 16 142t67 39q15 0 29 -7t18.5 -11.5t15.5 -16.5q12 -14 18 -14q9 0 9 48h86q0 -103 -16 -142t-67 -39z" />
    <glyph glyph-name="uni00A0" unicode="&#xa0;" horiz-adv-x="100" 
 />
    <glyph glyph-name="exclamdown" unicode="&#xa1;" horiz-adv-x="208" 
d="M104 399q-33 0 -53.5 19.5t-20.5 53.5q0 35 20.5 54.5t53.5 19.5t53.5 -19.5t20.5 -54.5q0 -34 -20.5 -53.5t-53.5 -19.5zM33 -150l13 495h115l12 -495h-140z" />
    <glyph glyph-name="cent" unicode="&#xa2;" 
d="M172 192q3 7 3 107h125q0 -101 -5.5 -134t-31.5 -57q-31 -28 -96 -31v-77h-24v77q-91 3 -120 67q-9 21 -11 53.5t-2 155.5t2 155.5t11 53.5q29 64 120 67v77h24v-77q65 -3 96 -31q26 -24 31.5 -54.5t5.5 -117.5h-125q0 83 -3 90q-3 6 -8 7v-338q5 1 8 7zM138 192
q3 -6 8 -7v338q-5 -1 -8 -7q-3 -7 -3 -163q0 -154 3 -161z" />
    <glyph glyph-name="sterling" unicode="&#xa3;" horiz-adv-x="339" 
d="M191 137q1 4 1 79h140q0 -70 -3 -93t-14 -48q-34 -75 -134 -75h-173v130h22v195h-22v68h22v60q0 103 3 132.5t14 55.5q34 75 134 75t134 -75q11 -26 14 -50.5t3 -100.5h-140q0 95 -1 99q-1 7 -10 7t-10 -7q-1 -4 -1 -136v-60h90v-68h-90v-195h11q9 0 10 7z" />
    <glyph glyph-name="currency" unicode="&#xa4;" horiz-adv-x="268" 
d="M239 189q-6 -12 -12 -21l30 -107h-81l-20 78q-7 -1 -22 -1q-17 0 -24 1l-21 -78h-78l29 109q-6 8 -11 19q-9 19 -11 45t-2 119t2 119t11 45q5 11 11 19l-30 112h78l22 -81q7 1 24 1t25 -1l22 81h77l-29 -112q5 -8 10 -19q9 -19 11 -45t2 -119t-2 -119t-11 -45zM144 456
q-2 7 -10 7t-10 -7t-2 -103t2 -103t10 -7t10 7t2 103t-2 103z" />
    <glyph glyph-name="yen" unicode="&#xa5;" horiz-adv-x="334" 
d="M334 706l-94 -366h78v-58h-81v-28h81v-58h-81v-196h-140v196h-81v58h81v28h-81v58h78l-94 366h135l32 -220l32 220h135z" />
    <glyph glyph-name="brokenbar" unicode="&#xa6;" horiz-adv-x="164" 
d="M22 453v303h120v-303h-120zM22 -150v303h120v-303h-120z" />
    <glyph glyph-name="section" unicode="&#xa7;" horiz-adv-x="302" 
d="M283 178q-11 -27 -37 -43q27 -21 38 -46q12 -26 12 -92q0 -59 -13 -89q-29 -64 -133 -64q-53 0 -84 14.5t-47 48.5q-9 20 -11 41.5t-2 79.5h135q0 -60 1 -63q2 -6 9 -6t9 6q1 3 1 27q0 28 -5 39q-8 17 -47 40q-72 42 -90 83q-13 29 -13 140q0 82 10 105q14 30 42 46
q-28 24 -39 49q-13 29 -13 84q0 48 10 71q29 66 136 66q106 0 134 -62q10 -23 10 -102h-135q0 42 -1 46q-2 7 -9 7t-9 -7q-1 -4 -1 -18q0 -20 4 -29q8 -17 53 -44q39 -23 57.5 -39t28.5 -38q12 -26 12 -135q0 -86 -13 -116zM142 215q2 -6 9 -6t9 6q1 3 1 79q0 69 -1 73
q-2 7 -9 7t-9 -7q-1 -4 -1 -73q0 -76 1 -79z" />
    <glyph glyph-name="dieresis" unicode="&#xa8;" horiz-adv-x="371" 
d="M115 572q-29 0 -47 17t-18 46q0 30 18 46t47 16q28 0 45.5 -16t17.5 -46q0 -29 -17.5 -46t-45.5 -17zM258 572q-29 0 -47 17t-18 46q0 30 18 46t47 16q28 0 45.5 -16t17.5 -46q0 -29 -17.5 -46t-45.5 -17z" />
    <glyph glyph-name="copyright" unicode="&#xa9;" horiz-adv-x="394" 
d="M197 -10q-123 0 -161 84q-12 27 -18 76.5t-7 88.5t-1 114q0 76 1 114.5t7 87.5t18 76q38 85 161 85q122 0 160 -82q13 -27 19 -77t7 -89t1 -115q0 -85 -1 -124t-7 -83t-18 -71q-39 -85 -161 -85zM197 38q86 0 115 64q9 20 13.5 60t5 76t0.5 115q0 209 -21 255
q-28 60 -113 60q-87 0 -115 -63q-19 -41 -19 -252q0 -77 0.5 -113.5t5 -78t13.5 -61.5q15 -33 42 -47.5t73 -14.5zM197 99q-70 0 -95 53q-8 18 -10 48t-2 153q0 120 2 151t10 50q24 53 95 53q47 0 74 -24q22 -20 27.5 -47t5.5 -88h-100q0 67 -1 70q-1 4 -6 4t-6 -4t-1 -165
q0 -154 1 -157q1 -4 6 -4t6 4q1 3 1 73h100q0 -69 -5 -97.5t-26 -46.5q-29 -26 -76 -26z" />
    <glyph glyph-name="ordfeminine" unicode="&#xaa;" horiz-adv-x="212" 
d="M198 675q7 -15 7 -83v-257h-93v29q-22 -33 -57 -33q-33 0 -45 24q-7 16 -7 85q0 73 8 91q16 36 83 36h18v7q0 60 -1 63q-2 5 -7 5t-7 -5q-1 -3 -1 -33h-87q0 55 7 70q19 42 90 42q73 0 92 -41zM104 406q5 0 7 5q1 3 1 89v6h-6q-7 0 -9 -5q-1 -3 -1 -43q0 -44 1 -47
q2 -5 7 -5z" />
    <glyph glyph-name="guillemotleft" unicode="&#xab;" horiz-adv-x="300" 
d="M56 150l-51 162l51 162h109l-51 -162l51 -162h-109zM186 150l-51 162l51 162h109l-51 -162l51 -162h-109z" />
    <glyph glyph-name="logicalnot" unicode="&#xac;" horiz-adv-x="312" 
d="M190 182v118h-170v100h272v-218h-102z" />
    <glyph glyph-name="uni00AD" unicode="&#xad;" horiz-adv-x="202" 
d="M20 255v124h162v-124h-162z" />
    <glyph glyph-name="registered" unicode="&#xae;" 
d="M284 653q11 -23 13.5 -44t2.5 -97t-2.5 -97t-13.5 -44q-28 -59 -129 -59t-129 59q-11 23 -13.5 44t-2.5 97t2.5 97t13.5 44q28 59 129 59t129 -59zM242 392q11 23 11 120t-11 120q-17 36 -87 36t-87 -36q-11 -23 -11 -120t11 -120q17 -36 87 -36t87 36zM226 562
q0 -32 -5 -42.5t-26 -11.5q30 -5 30 -40v-77h-62v76q0 9 -9 9h-6v-85h-62v242h82q39 0 48.5 -13.5t9.5 -57.5zM156 536q5 0 6.5 4t1.5 19q0 23 -8 23h-8v-46h8z" />
    <glyph glyph-name="macron" unicode="&#xaf;" horiz-adv-x="301" 
d="M50 585v99h201v-99h-201z" />
    <glyph glyph-name="degree" unicode="&#xb0;" horiz-adv-x="250" 
d="M125 496q-50 0 -80 31t-30 79q0 49 30 79.5t80 30.5t80 -30.5t30 -79.5q0 -48 -30 -79t-80 -31zM125 577q25 0 25 29t-25 29t-25 -29t25 -29z" />
    <glyph glyph-name="plusminus" unicode="&#xb1;" horiz-adv-x="312" 
d="M207 407h85v-100h-86v-68h-101v68h-85v100h85v68h102v-68zM20 124v100h272v-100h-272z" />
    <glyph glyph-name="uni00B2" unicode="&#xb2;" horiz-adv-x="212" 
d="M6 438v2l86 198q18 40 18 72q0 35 -1 37q-2 4 -7 4t-7 -4q-1 -2 -1 -33h-90q0 60 9 78q19 40 89 40q77 0 97 -43q9 -21 9 -48q0 -65 -23 -118l-43 -101h59v-84h-195z" />
    <glyph glyph-name="uni00B3" unicode="&#xb3;" horiz-adv-x="215" 
d="M172 651q23 -6 29 -20q6 -13 6 -66q0 -73 -9 -92q-19 -41 -97 -41q-70 0 -89 41q-8 17 -8 94h90q0 -48 1 -50q2 -4 7 -4t7 4q1 2 1 44q0 34 -3 40q-5 9 -25 9h-10v77h11q19 0 24 9q3 6 3 25q0 24 -1 26q-2 4 -7 4t-7 -4q-1 -2 -1 -33h-90q0 55 7 74q12 26 33.5 35t56.5 9
q79 0 99 -44q7 -15 7 -70q0 -34 -5 -45q-7 -16 -30 -22z" />
    <glyph glyph-name="acute" unicode="&#xb4;" horiz-adv-x="282" 
d="M50 576l52 130h130l-70 -130h-112z" />
    <glyph glyph-name="uni00B5" unicode="&#xb5;" 
d="M165 540h135v-540h-129v56q-14 -48 -36 -58q10 -54 10 -113v-35h-135v690h135v-414q0 -15 10 -15t10 15v414z" />
    <glyph glyph-name="paragraph" unicode="&#xb6;" horiz-adv-x="407" 
d="M148 -150v420h-24q-85 0 -108 50q-8 18 -9.5 43.5t-1.5 124.5t1.5 124.5t9.5 43.5q23 50 108 50h279v-115h-25v-741h-105v741h-20v-741h-105z" />
    <glyph glyph-name="periodcentered" unicode="&#xb7;" horiz-adv-x="208" 
d="M104 244q-33 0 -53.5 19.5t-20.5 53.5q0 35 20.5 54.5t53.5 19.5t53.5 -19.5t20.5 -54.5q0 -34 -20.5 -53.5t-53.5 -19.5z" />
    <glyph glyph-name="cedilla" unicode="&#xb8;" horiz-adv-x="284" 
d="M168 -21q66 -5 66 -63q0 -76 -111 -76q-33 0 -73 10l14 60q24 -8 48 -8q34 0 34 17q0 11 -10.5 14.5t-37.5 3.5h-28l17 83h89z" />
    <glyph glyph-name="uni00B9" unicode="&#xb9;" horiz-adv-x="151" 
d="M40 438v305h-40l10 83h130v-388h-100z" />
    <glyph glyph-name="ordmasculine" unicode="&#xba;" horiz-adv-x="216" 
d="M108 330q-71 0 -91 45q-7 16 -8.5 37.5t-1.5 110.5t1.5 110.5t8.5 37.5q20 45 91 45t91 -45q7 -16 8.5 -37.5t1.5 -110.5t-1.5 -110.5t-8.5 -37.5q-20 -45 -91 -45zM108 405q5 0 7 5q1 3 1 113t-1 113q-2 5 -7 5t-7 -5q-1 -3 -1 -113t1 -113q2 -5 7 -5z" />
    <glyph glyph-name="guillemotright" unicode="&#xbb;" horiz-adv-x="300" 
d="M114 150h-109l51 162l-51 162h109l51 -162zM244 150h-109l51 162l-51 162h109l51 -162z" />
    <glyph glyph-name="onequarter" unicode="&#xbc;" horiz-adv-x="491" 
d="M40 318v305h-40l10 83h130v-388h-100zM58 0l240 706h54l-240 -706h-54zM371 0v60h-133v2l56 326h170v-235h23v-93h-23v-60h-93zM342 153h29v197z" />
    <glyph glyph-name="onehalf" unicode="&#xbd;" horiz-adv-x="471" 
d="M40 318v305h-40l10 83h130v-388h-100zM58 0l240 706h54l-240 -706h-54zM265 0v2l86 198q18 41 18 72q0 35 -1 37q-2 4 -7 4t-7 -4q-1 -2 -1 -33h-90q0 60 9 78q19 40 89 40q77 0 97 -43q9 -21 9 -48q0 -65 -23 -118l-43 -101h59v-84h-195z" />
    <glyph glyph-name="threequarters" unicode="&#xbe;" horiz-adv-x="559" 
d="M198 353q-19 -41 -97 -41q-70 0 -89 41q-8 17 -8 94h90q0 -48 1 -50q2 -4 7 -4t7 4q1 2 1 44q0 34 -3 40q-5 9 -25 9h-10v77h11q19 0 24 9q3 6 3 25q0 24 -1 26q-2 4 -7 4t-7 -4q-1 -2 -1 -33h-90q0 55 7 74q12 26 33.5 35t56.5 9q79 0 99 -44q7 -15 7 -70q0 -34 -5 -45
q-7 -16 -30 -22q23 -6 29 -20q6 -13 6 -66q0 -73 -9 -92zM366 706h54l-240 -706h-54zM532 153h23v-93h-23v-60h-93v60h-133v2l56 326h170v-235zM439 153v197l-29 -197h29z" />
    <glyph glyph-name="questiondown" unicode="&#xbf;" horiz-adv-x="346" 
d="M181 399q-33 0 -53.5 19.5t-20.5 53.5q0 35 20.5 54.5t53.5 19.5t53.5 -19.5t20.5 -54.5q0 -34 -20.5 -53.5t-53.5 -19.5zM171 -159q-71 0 -111 37.5t-40 103.5q0 30 11.5 77t74.5 286h143q-64 -215 -77.5 -267.5t-13.5 -89.5q0 -25 14 -25q9 0 12 9q2 7 2 76h140
q0 -69 -1.5 -89t-9.5 -40q-15 -38 -53.5 -58t-90.5 -20z" />
    <glyph glyph-name="Agrave" unicode="&#xc0;" horiz-adv-x="334" 
d="M232 738h-119l-80 100h137zM196 0l-4 85h-50l-4 -85h-138l57 706h220l57 -706h-138zM148 209h38l-18 377h-2z" />
    <glyph glyph-name="Aacute" unicode="&#xc1;" horiz-adv-x="334" 
d="M301 838l-80 -100h-119l62 100h137zM196 0l-4 85h-50l-4 -85h-138l57 706h220l57 -706h-138zM148 209h38l-18 377h-2z" />
    <glyph glyph-name="Acircumflex" unicode="&#xc2;" horiz-adv-x="334" 
d="M166 780l-23 -42h-109l54 100h154l57 -100h-110zM196 0l-4 85h-50l-4 -85h-138l57 706h220l57 -706h-138zM148 209h38l-18 377h-2z" />
    <glyph glyph-name="Atilde" unicode="&#xc3;" horiz-adv-x="334" 
d="M141 755q-13 0 -17 -17h-86q0 103 79 103q17 0 47 -13q18 -8 27 -8q14 0 18 18h86q0 -52 -19.5 -77.5t-63.5 -25.5q-22 0 -46 11q-20 9 -25 9zM196 0l-4 85h-50l-4 -85h-138l57 706h220l57 -706h-138zM148 209h38l-18 377h-2z" />
    <glyph glyph-name="Adieresis" unicode="&#xc4;" horiz-adv-x="334" 
d="M98 733q-28 0 -45 16.5t-17 45.5q0 28 17.5 43.5t44.5 15.5t43.5 -15.5t16.5 -43.5q0 -29 -16.5 -45.5t-43.5 -16.5zM238 733q-28 0 -45 16.5t-17 45.5q0 28 17.5 43.5t44.5 15.5t43.5 -15.5t16.5 -43.5q0 -29 -16.5 -45.5t-43.5 -16.5zM196 0l-4 85h-50l-4 -85h-138
l57 706h220l57 -706h-138zM148 209h38l-18 377h-2z" />
    <glyph glyph-name="Aring" unicode="&#xc5;" horiz-adv-x="334" 
d="M167 719q-42 0 -69.5 23t-27.5 62q0 40 27.5 63t69.5 23t69.5 -23t27.5 -63q0 -39 -27.5 -62t-69.5 -23zM167 831q-26 0 -26 -27q0 -26 26 -26q27 0 27 26q0 12 -7.5 19.5t-19.5 7.5zM196 0l-4 85h-50l-4 -85h-138l57 706h220l57 -706h-138zM148 209h38l-18 377h-2z" />
    <glyph glyph-name="AE" unicode="&#xc6;" horiz-adv-x="383" 
d="M373 575h-67l5 -133h59v-130h-55l6 -182h52v-130h-178l-2 85h-50l-6 -85h-137l73 706h300v-131zM152 209h38l-10 366h-2z" />
    <glyph glyph-name="Ccedilla" unicode="&#xc7;" horiz-adv-x="319" 
d="M168 117q4 3 4 99h140q0 -77 -10 -123t-37 -71q-24 -22 -61 -28l-3 -15q66 -5 66 -63q0 -76 -111 -76q-33 0 -73 10l14 60q24 -8 48 -8q34 0 34 17q0 11 -10.5 14.5t-37.5 3.5h-28l12 58q-63 13 -88 70q-12 28 -14.5 72t-2.5 216t2.5 216t14.5 72q34 75 134 75
q67 0 105 -34q30 -28 38 -66t8 -126h-140q0 95 -4 99q-2 2 -7 2q-9 0 -10 -7q-1 -4 -1 -231t1 -231q1 -7 10 -7q5 0 7 2z" />
    <glyph glyph-name="Egrave" unicode="&#xc8;" horiz-adv-x="228" 
d="M181 738h-119l-80 100h137zM12 0v706h206v-131h-66v-133h63v-130h-63v-182h66v-130h-206z" />
    <glyph glyph-name="Eacute" unicode="&#xc9;" horiz-adv-x="228" 
d="M51 738l62 100h137l-80 -100h-119zM12 0v706h206v-131h-66v-133h63v-130h-63v-182h66v-130h-206z" />
    <glyph glyph-name="Ecircumflex" unicode="&#xca;" horiz-adv-x="228" 
d="M-17 738l54 100h154l57 -100h-110l-23 42l-23 -42h-109zM12 0v706h206v-131h-66v-133h63v-130h-63v-182h66v-130h-206z" />
    <glyph glyph-name="Edieresis" unicode="&#xcb;" horiz-adv-x="228" 
d="M47 733q-28 0 -45 16.5t-17 45.5q0 28 17.5 43.5t44.5 15.5t43.5 -15.5t16.5 -43.5q0 -29 -16.5 -45.5t-43.5 -16.5zM187 733q-28 0 -45 16.5t-17 45.5q0 28 17.5 43.5t44.5 15.5t43.5 -15.5t16.5 -43.5q0 -29 -16.5 -45.5t-43.5 -16.5zM12 0v706h206v-131h-66v-133h63
v-130h-63v-182h66v-130h-206z" />
    <glyph glyph-name="Igrave" unicode="&#xcc;" horiz-adv-x="164" 
d="M147 738h-119l-80 100h137zM12 0v706h140v-706h-140z" />
    <glyph glyph-name="Iacute" unicode="&#xcd;" horiz-adv-x="164" 
d="M17 738l62 100h137l-80 -100h-119zM12 0v706h140v-706h-140z" />
    <glyph glyph-name="Icircumflex" unicode="&#xce;" horiz-adv-x="164" 
d="M-47 738l53 100h150l54 -100h-109l-19 36l-20 -36h-109zM12 0v706h140v-706h-140z" />
    <glyph glyph-name="Idieresis" unicode="&#xcf;" horiz-adv-x="164" 
d="M19 731q-25 0 -41.5 16.5t-16.5 45.5q0 28 16 44t42 16q25 0 41 -15.5t16 -44.5t-16 -45.5t-41 -16.5zM148 731q-25 0 -41.5 16.5t-16.5 45.5q0 28 16 44t42 16t41.5 -15.5t15.5 -44.5t-16 -45.5t-41 -16.5zM12 0v706h140v-706h-140z" />
    <glyph glyph-name="Eth" unicode="&#xd0;" horiz-adv-x="336" 
d="M309 631q12 -26 14.5 -68t2.5 -210t-2.5 -210t-14.5 -68q-34 -75 -134 -75h-151v312h-24v128h24v266h151q100 0 134 -75zM183 121q3 6 3 227q0 231 -3 237q-4 6 -13 6h-6v-151h12v-128h-12v-197h6q9 0 13 6z" />
    <glyph glyph-name="Ntilde" unicode="&#xd1;" horiz-adv-x="363" 
d="M225 735q-22 0 -46 11q-20 9 -25 9q-13 0 -17 -17h-86q0 103 79 103q17 0 47 -13q18 -8 27 -8q14 0 18 18h86q0 -52 -19.5 -77.5t-63.5 -25.5zM12 0v706h116l88 -291v291h135v-706h-110l-94 302v-302h-135z" />
    <glyph glyph-name="Ograve" unicode="&#xd2;" horiz-adv-x="322" 
d="M226 738h-119l-80 100h137zM161 -10q-100 0 -134 75q-12 28 -14.5 72t-2.5 216t2.5 216t14.5 72q34 75 134 75t134 -75q12 -28 14.5 -72t2.5 -216t-2.5 -216t-14.5 -72q-34 -75 -134 -75zM161 115q9 0 10 7q1 4 1 231t-1 231q-1 7 -10 7t-10 -7q-1 -4 -1 -231t1 -231
q1 -7 10 -7z" />
    <glyph glyph-name="Oacute" unicode="&#xd3;" horiz-adv-x="322" 
d="M96 738l62 100h137l-80 -100h-119zM161 -10q-100 0 -134 75q-12 28 -14.5 72t-2.5 216t2.5 216t14.5 72q34 75 134 75t134 -75q12 -28 14.5 -72t2.5 -216t-2.5 -216t-14.5 -72q-34 -75 -134 -75zM161 115q9 0 10 7q1 4 1 231t-1 231q-1 7 -10 7t-10 -7q-1 -4 -1 -231
t1 -231q1 -7 10 -7z" />
    <glyph glyph-name="Ocircumflex" unicode="&#xd4;" horiz-adv-x="322" 
d="M28 738l54 100h154l57 -100h-110l-23 42l-23 -42h-109zM161 -10q-100 0 -134 75q-12 28 -14.5 72t-2.5 216t2.5 216t14.5 72q34 75 134 75t134 -75q12 -28 14.5 -72t2.5 -216t-2.5 -216t-14.5 -72q-34 -75 -134 -75zM161 115q9 0 10 7q1 4 1 231t-1 231q-1 7 -10 7
t-10 -7q-1 -4 -1 -231t1 -231q1 -7 10 -7z" />
    <glyph glyph-name="Otilde" unicode="&#xd5;" horiz-adv-x="322" 
d="M206 735q-22 0 -46 11q-20 9 -25 9q-13 0 -17 -17h-86q0 103 79 103q17 0 47 -13q18 -8 27 -8q14 0 18 18h86q0 -52 -19.5 -77.5t-63.5 -25.5zM161 -10q-100 0 -134 75q-12 28 -14.5 72t-2.5 216t2.5 216t14.5 72q34 75 134 75t134 -75q12 -28 14.5 -72t2.5 -216
t-2.5 -216t-14.5 -72q-34 -75 -134 -75zM161 115q9 0 10 7q1 4 1 231t-1 231q-1 7 -10 7t-10 -7q-1 -4 -1 -231t1 -231q1 -7 10 -7z" />
    <glyph glyph-name="Odieresis" unicode="&#xd6;" horiz-adv-x="322" 
d="M92 733q-28 0 -45 16.5t-17 45.5q0 28 17.5 43.5t44.5 15.5t43.5 -15.5t16.5 -43.5q0 -29 -16.5 -45.5t-43.5 -16.5zM232 733q-28 0 -45 16.5t-17 45.5q0 28 17.5 43.5t44.5 15.5t43.5 -15.5t16.5 -43.5q0 -29 -16.5 -45.5t-43.5 -16.5zM161 -10q-100 0 -134 75
q-12 28 -14.5 72t-2.5 216t2.5 216t14.5 72q34 75 134 75t134 -75q12 -28 14.5 -72t2.5 -216t-2.5 -216t-14.5 -72q-34 -75 -134 -75zM161 115q9 0 10 7q1 4 1 231t-1 231q-1 7 -10 7t-10 -7q-1 -4 -1 -231t1 -231q1 -7 10 -7z" />
    <glyph glyph-name="multiply" unicode="&#xd7;" horiz-adv-x="312" 
d="M293 384l-66 -66l66 -67l-70 -70l-66 67l-67 -67l-70 70l67 67l-67 66l70 70l67 -66l66 66z" />
    <glyph glyph-name="Oslash" unicode="&#xd8;" horiz-adv-x="322" 
d="M334 707l-35 -75q9 -26 11 -72t2 -207q0 -172 -2.5 -216t-14.5 -72q-34 -75 -134 -75q-87 0 -124 56l-21 -45h-28l35 74q-9 26 -11 72t-2 206q0 172 2.5 216t14.5 72q34 75 134 75q86 0 123 -56l22 47h28zM161 591q-9 0 -10 -7q-1 -4 -1 -229l22 60q0 165 -1 169
q-1 7 -10 7zM171 122q1 4 1 231v2l-22 -60q0 -169 1 -173q1 -7 10 -7t10 7z" />
    <glyph glyph-name="Ugrave" unicode="&#xd9;" horiz-adv-x="324" 
d="M227 738h-119l-80 100h137zM162 -10q-82 0 -116.5 37.5t-34.5 114.5v564h140v-570q0 -19 11 -19t11 19v570h140v-564q0 -76 -35.5 -114t-115.5 -38z" />
    <glyph glyph-name="Uacute" unicode="&#xda;" horiz-adv-x="324" 
d="M97 738l62 100h137l-80 -100h-119zM162 -10q-82 0 -116.5 37.5t-34.5 114.5v564h140v-570q0 -19 11 -19t11 19v570h140v-564q0 -76 -35.5 -114t-115.5 -38z" />
    <glyph glyph-name="Ucircumflex" unicode="&#xdb;" horiz-adv-x="324" 
d="M29 738l54 100h154l57 -100h-110l-23 42l-23 -42h-109zM162 -10q-82 0 -116.5 37.5t-34.5 114.5v564h140v-570q0 -19 11 -19t11 19v570h140v-564q0 -76 -35.5 -114t-115.5 -38z" />
    <glyph glyph-name="Udieresis" unicode="&#xdc;" horiz-adv-x="324" 
d="M93 733q-28 0 -45 16.5t-17 45.5q0 28 17.5 43.5t44.5 15.5t43.5 -15.5t16.5 -43.5q0 -29 -16.5 -45.5t-43.5 -16.5zM233 733q-28 0 -45 16.5t-17 45.5q0 28 17.5 43.5t44.5 15.5t43.5 -15.5t16.5 -43.5q0 -29 -16.5 -45.5t-43.5 -16.5zM162 -10q-82 0 -116.5 37.5
t-34.5 114.5v564h140v-570q0 -19 11 -19t11 19v570h140v-564q0 -76 -35.5 -114t-115.5 -38z" />
    <glyph glyph-name="Yacute" unicode="&#xdd;" horiz-adv-x="334" 
d="M102 738l62 100h137l-80 -100h-119zM97 0v270l-97 436h135l32 -260l32 260h135l-97 -436v-270h-140z" />
    <glyph glyph-name="Thorn" unicode="&#xde;" horiz-adv-x="319" 
d="M12 0v706h140v-102h43q85 0 108 -50q8 -18 9.5 -46t1.5 -142t-1.5 -142t-9.5 -46q-23 -50 -108 -50h-43v-128h-140zM152 243h6q9 0 13 6q3 6 3 117t-3 117q-4 6 -13 6h-6v-246z" />
    <glyph glyph-name="germandbls" unicode="&#xdf;" horiz-adv-x="315" 
d="M291 382q10 -21 12 -46.5t2 -116.5t-2 -116.5t-11 -45.5q-26 -57 -112 -57h-24v125h2q9 0 11 9q1 4 1 98q0 95 -1 99q-2 9 -11 9h-3v122h2q9 0 11 6q1 4 1 62t-2 62q-3 6 -10 6t-10 -6q-2 -4 -2 -72v-520h-135v520q0 66 2 87.5t11 41.5q30 67 132 67t132 -67
q9 -20 11 -38t2 -67q0 -84 -13 -114q-7 -15 -19 -22q15 -9 23 -26z" />
    <glyph glyph-name="agrave" unicode="&#xe0;" horiz-adv-x="305" 
d="M223 576h-112l-70 130h130zM285 486q10 -22 10 -118v-368h-135v40q-32 -46 -80 -46q-49 0 -65 34q-7 15 -8.5 35t-1.5 88q0 72 1.5 92t9.5 37q12 27 39 40t81 13h24v8q0 86 -1 89q-1 6 -9 6t-9 -6q-1 -3 -1 -46h-127q0 76 11 101q27 60 129 60q105 0 132 -59zM150 104
q8 0 9 6q1 4 1 126v7h-6q-9 0 -12 -7q-2 -5 -2 -60q0 -62 1 -66q1 -6 9 -6z" />
    <glyph glyph-name="aacute" unicode="&#xe1;" horiz-adv-x="305" 
d="M275 706l-70 -130h-112l52 130h130zM285 486q10 -22 10 -118v-368h-135v40q-32 -46 -80 -46q-49 0 -65 34q-7 15 -8.5 35t-1.5 88q0 72 1.5 92t9.5 37q12 27 39 40t81 13h24v8q0 86 -1 89q-1 6 -9 6t-9 -6q-1 -3 -1 -46h-127q0 76 11 101q27 60 129 60q105 0 132 -59z
M150 104q8 0 9 6q1 4 1 126v7h-6q-9 0 -12 -7q-2 -5 -2 -60q0 -62 1 -66q1 -6 9 -6z" />
    <glyph glyph-name="acircumflex" unicode="&#xe2;" horiz-adv-x="305" 
d="M158 628l-23 -52h-107l63 130h134l63 -130h-107zM285 486q10 -22 10 -118v-368h-135v40q-32 -46 -80 -46q-49 0 -65 34q-7 15 -8.5 35t-1.5 88q0 72 1.5 92t9.5 37q12 27 39 40t81 13h24v8q0 86 -1 89q-1 6 -9 6t-9 -6q-1 -3 -1 -46h-127q0 76 11 101q27 60 129 60
q105 0 132 -59zM150 104q8 0 9 6q1 4 1 126v7h-6q-9 0 -12 -7q-2 -5 -2 -60q0 -62 1 -66q1 -6 9 -6z" />
    <glyph glyph-name="atilde" unicode="&#xe3;" horiz-adv-x="305" 
d="M128 608q-19 0 -23 -32h-74q0 70 15 100.5t57 30.5q27 0 54 -19q20 -14 31 -14q19 0 23 32h74q0 -70 -15 -100.5t-57 -30.5q-27 0 -54 19q-20 14 -31 14zM285 486q10 -22 10 -118v-368h-135v40q-32 -46 -80 -46q-49 0 -65 34q-7 15 -8.5 35t-1.5 88q0 72 1.5 92t9.5 37
q12 27 39 40t81 13h24v8q0 86 -1 89q-1 6 -9 6t-9 -6q-1 -3 -1 -46h-127q0 76 11 101q27 60 129 60q105 0 132 -59zM150 104q8 0 9 6q1 4 1 126v7h-6q-9 0 -12 -7q-2 -5 -2 -60q0 -62 1 -66q1 -6 9 -6z" />
    <glyph glyph-name="adieresis" unicode="&#xe4;" horiz-adv-x="305" 
d="M88 572q-29 0 -47 17t-18 46q0 30 18 46t47 16q28 0 45.5 -16t17.5 -46q0 -29 -17.5 -46t-45.5 -17zM231 572q-29 0 -47 17t-18 46q0 30 18 46t47 16q28 0 45.5 -16t17.5 -46q0 -29 -17.5 -46t-45.5 -17zM285 486q10 -22 10 -118v-368h-135v40q-32 -46 -80 -46
q-49 0 -65 34q-7 15 -8.5 35t-1.5 88q0 72 1.5 92t9.5 37q12 27 39 40t81 13h24v8q0 86 -1 89q-1 6 -9 6t-9 -6q-1 -3 -1 -46h-127q0 76 11 101q27 60 129 60q105 0 132 -59zM150 104q8 0 9 6q1 4 1 126v7h-6q-9 0 -12 -7q-2 -5 -2 -60q0 -62 1 -66q1 -6 9 -6z" />
    <glyph glyph-name="aring" unicode="&#xe5;" horiz-adv-x="305" 
d="M158 567q-42 0 -69.5 23t-27.5 62q0 40 27.5 63t69.5 23t69.5 -23t27.5 -63q0 -39 -27.5 -62t-69.5 -23zM158 679q-26 0 -26 -27q0 -26 26 -26q27 0 27 26q0 12 -7.5 19.5t-19.5 7.5zM285 486q10 -22 10 -118v-368h-135v40q-32 -46 -80 -46q-49 0 -65 34q-7 15 -8.5 35
t-1.5 88q0 72 1.5 92t9.5 37q12 27 39 40t81 13h24v8q0 86 -1 89q-1 6 -9 6t-9 -6q-1 -3 -1 -46h-127q0 76 11 101q27 60 129 60q105 0 132 -59zM150 104q8 0 9 6q1 4 1 126v7h-6q-9 0 -12 -7q-2 -5 -2 -60q0 -62 1 -66q1 -6 9 -6z" />
    <glyph glyph-name="ae" unicode="&#xe6;" horiz-adv-x="460" 
d="M312 106q3 3 3 72h135q0 -71 -7 -100.5t-32 -52.5q-34 -31 -106 -31q-46 0 -72 12.5t-43 40.5q-28 -53 -96 -53q-60 0 -77 35q-8 16 -10 38.5t-2 91.5q0 66 1.5 85t9.5 36q12 27 39 40t81 13h24v8q0 86 -1 89q-1 6 -9 6t-9 -6q-1 -3 -1 -46h-127q0 76 11 101
q27 60 129 60q50 0 77 -13q27 14 75 14q101 0 132 -67q9 -21 11 -53.5t2 -182.5h-155q0 -129 1 -133q2 -6 9 -6q5 0 7 2zM305 436q-7 0 -9 -6q-1 -3 -1 -97h20q0 94 -1 97q-2 6 -9 6zM160 236v7h-6q-9 0 -12 -7q-2 -5 -2 -60q0 -62 1 -66q1 -6 9 -6t9 6q1 4 1 126z" />
    <glyph glyph-name="ccedilla" unicode="&#xe7;" 
d="M162 106q3 3 3 110h135q0 -101 -5.5 -134t-31.5 -57q-24 -21 -65 -28l-3 -18q66 -5 66 -63q0 -76 -111 -76q-33 0 -73 10l14 60q24 -8 48 -8q34 0 34 17q0 11 -10.5 14.5t-37.5 3.5h-28l12 61q-60 10 -85 62q-10 22 -12 54t-2 156t2 156t12 54q32 66 131 66q74 0 108 -31
q26 -24 31.5 -54.5t5.5 -117.5h-135q0 88 -3 91q-2 2 -7 2q-7 0 -9 -6q-1 -4 -1 -160t1 -160q2 -6 9 -6q5 0 7 2z" />
    <glyph glyph-name="egrave" unicode="&#xe8;" 
d="M220 576h-112l-70 130h130zM162 106q3 3 3 72h135q0 -71 -7 -100.5t-32 -52.5q-34 -31 -106 -31q-101 0 -131 66q-10 22 -12 54.5t-2 155.5t2 155.5t12 54.5q30 66 131 66t132 -67q9 -20 11 -58t2 -178h-155q0 -129 1 -133q2 -6 9 -6q5 0 7 2zM155 436q-7 0 -9 -6
q-1 -3 -1 -97h20q0 94 -1 97q-2 6 -9 6z" />
    <glyph glyph-name="eacute" unicode="&#xe9;" 
d="M272 706l-70 -130h-112l52 130h130zM162 106q3 3 3 72h135q0 -71 -7 -100.5t-32 -52.5q-34 -31 -106 -31q-101 0 -131 66q-10 22 -12 54.5t-2 155.5t2 155.5t12 54.5q30 66 131 66t132 -67q9 -20 11 -58t2 -178h-155q0 -129 1 -133q2 -6 9 -6q5 0 7 2zM155 436
q-7 0 -9 -6q-1 -3 -1 -97h20q0 94 -1 97q-2 6 -9 6z" />
    <glyph glyph-name="ecircumflex" unicode="&#xea;" 
d="M155 628l-23 -52h-107l63 130h134l63 -130h-107zM162 106q3 3 3 72h135q0 -71 -7 -100.5t-32 -52.5q-34 -31 -106 -31q-101 0 -131 66q-10 22 -12 54.5t-2 155.5t2 155.5t12 54.5q30 66 131 66t132 -67q9 -20 11 -58t2 -178h-155q0 -129 1 -133q2 -6 9 -6q5 0 7 2z
M155 436q-7 0 -9 -6q-1 -3 -1 -97h20q0 94 -1 97q-2 6 -9 6z" />
    <glyph glyph-name="edieresis" unicode="&#xeb;" 
d="M85 572q-29 0 -47 17t-18 46q0 30 18 46t47 16q28 0 45.5 -16t17.5 -46q0 -29 -17.5 -46t-45.5 -17zM228 572q-29 0 -47 17t-18 46q0 30 18 46t47 16q28 0 45.5 -16t17.5 -46q0 -29 -17.5 -46t-45.5 -17zM162 106q3 3 3 72h135q0 -71 -7 -100.5t-32 -52.5
q-34 -31 -106 -31q-101 0 -131 66q-10 22 -12 54.5t-2 155.5t2 155.5t12 54.5q30 66 131 66t132 -67q9 -20 11 -58t2 -178h-155q0 -129 1 -133q2 -6 9 -6q5 0 7 2zM155 436q-7 0 -9 -6q-1 -3 -1 -97h20q0 94 -1 97q-2 6 -9 6z" />
    <glyph glyph-name="igrave" unicode="&#xec;" horiz-adv-x="155" 
d="M147 576h-102l-52 130h120zM10 0v540h135v-540h-135z" />
    <glyph glyph-name="iacute" unicode="&#xed;" horiz-adv-x="155" 
d="M9 576l34 130h120l-52 -130h-102zM10 0v540h135v-540h-135z" />
    <glyph glyph-name="icircumflex" unicode="&#xee;" horiz-adv-x="155" 
d="M-9 576l25 130h124l24 -130h-72l-14 62l-15 -62h-72zM10 0v540h135v-540h-135z" />
    <glyph glyph-name="idieresis" unicode="&#xef;" horiz-adv-x="155" 
d="M28 573q-48 0 -48 63q0 61 48 61q47 0 47 -61q0 -63 -47 -63zM129 573q-48 0 -48 63q0 61 48 61q47 0 47 -61q0 -63 -47 -63zM10 0v540h135v-540h-135z" />
    <glyph glyph-name="eth" unicode="&#xf0;" 
d="M254 609q32 -72 39 -124t7 -215q0 -125 -2 -157t-11 -52q-30 -67 -132 -67q-99 0 -131 66q-10 22 -12 54t-2 156q0 133 2 168.5t9 51.5q16 36 64 36q52 0 78 -39q-6 32 -28 80q-1 1 -1 2t-1 2l-99 -31v85l61 19q-12 20 -38 60v2h142q6 -8 16 -24l81 25v-85zM164 110
q1 4 1 160q0 128 -1 132q-2 6 -9 6t-9 -6q-1 -4 -1 -132q0 -156 1 -160q2 -6 9 -6t9 6z" />
    <glyph glyph-name="ntilde" unicode="&#xf1;" 
d="M130 608q-19 0 -23 -32h-74q0 70 15 100.5t57 30.5q27 0 54 -19q20 -14 31 -14q19 0 23 32h74q0 -70 -15 -100.5t-57 -30.5q-27 0 -54 19q-20 14 -31 14zM229 545q37 0 54 -20.5t17 -64.5v-460h-135v421q0 15 -10 15t-10 -15v-421h-135v540h135v-40q33 45 84 45z" />
    <glyph glyph-name="ograve" unicode="&#xf2;" 
d="M220 576h-112l-70 130h130zM155 -6q-101 0 -131 66q-10 22 -12 54.5t-2 155.5t2 155.5t12 54.5q30 66 131 66t131 -66q10 -22 12 -54.5t2 -155.5t-2 -155.5t-12 -54.5q-30 -66 -131 -66zM155 104q7 0 9 6q1 4 1 160t-1 160q-2 6 -9 6t-9 -6q-1 -4 -1 -160t1 -160
q2 -6 9 -6z" />
    <glyph glyph-name="oacute" unicode="&#xf3;" 
d="M90 576l52 130h130l-70 -130h-112zM155 -6q-101 0 -131 66q-10 22 -12 54.5t-2 155.5t2 155.5t12 54.5q30 66 131 66t131 -66q10 -22 12 -54.5t2 -155.5t-2 -155.5t-12 -54.5q-30 -66 -131 -66zM155 104q7 0 9 6q1 4 1 160t-1 160q-2 6 -9 6t-9 -6q-1 -4 -1 -160t1 -160
q2 -6 9 -6z" />
    <glyph glyph-name="ocircumflex" unicode="&#xf4;" 
d="M25 576l63 130h134l63 -130h-107l-23 52l-23 -52h-107zM155 -6q-101 0 -131 66q-10 22 -12 54.5t-2 155.5t2 155.5t12 54.5q30 66 131 66t131 -66q10 -22 12 -54.5t2 -155.5t-2 -155.5t-12 -54.5q-30 -66 -131 -66zM155 104q7 0 9 6q1 4 1 160t-1 160q-2 6 -9 6t-9 -6
q-1 -4 -1 -160t1 -160q2 -6 9 -6z" />
    <glyph glyph-name="otilde" unicode="&#xf5;" 
d="M210 575q-27 0 -54 19q-20 14 -31 14q-19 0 -23 -32h-74q0 70 15 100.5t57 30.5q27 0 54 -19q20 -14 31 -14q19 0 23 32h74q0 -70 -15 -100.5t-57 -30.5zM155 -6q-101 0 -131 66q-10 22 -12 54.5t-2 155.5t2 155.5t12 54.5q30 66 131 66t131 -66q10 -22 12 -54.5
t2 -155.5t-2 -155.5t-12 -54.5q-30 -66 -131 -66zM155 104q7 0 9 6q1 4 1 160t-1 160q-2 6 -9 6t-9 -6q-1 -4 -1 -160t1 -160q2 -6 9 -6z" />
    <glyph glyph-name="odieresis" unicode="&#xf6;" 
d="M85 572q-29 0 -47 17t-18 46q0 30 18 46t47 16q28 0 45.5 -16t17.5 -46q0 -29 -17.5 -46t-45.5 -17zM228 572q-29 0 -47 17t-18 46q0 30 18 46t47 16q28 0 45.5 -16t17.5 -46q0 -29 -17.5 -46t-45.5 -17zM155 -6q-101 0 -131 66q-10 22 -12 54.5t-2 155.5t2 155.5
t12 54.5q30 66 131 66t131 -66q10 -22 12 -54.5t2 -155.5t-2 -155.5t-12 -54.5q-30 -66 -131 -66zM155 104q7 0 9 6q1 4 1 160t-1 160q-2 6 -9 6t-9 -6q-1 -4 -1 -160t1 -160q2 -6 9 -6z" />
    <glyph glyph-name="divide" unicode="&#xf7;" horiz-adv-x="312" 
d="M156 397q-26 0 -42.5 15.5t-16.5 42.5q0 28 16.5 43.5t42.5 15.5t42.5 -15.5t16.5 -43.5q0 -27 -16.5 -42.5t-42.5 -15.5zM20 267v100h272v-100h-272zM156 120q-26 0 -42.5 15.5t-16.5 42.5q0 28 16.5 43.5t42.5 15.5t42.5 -15.5t16.5 -43.5q0 -27 -16.5 -42.5
t-42.5 -15.5z" />
    <glyph glyph-name="oslash" unicode="&#xf8;" 
d="M277 496q3 -3 9 -16q10 -22 12 -54.5t2 -155.5t-2 -155.5t-12 -54.5q-30 -66 -131 -66q-72 0 -105 30l-12 -24h-28l22 45q-4 6 -8 15q-10 22 -12 54.5t-2 155.5t2 155.5t12 54.5q30 66 131 66q72 0 105 -30l13 24h28zM155 436q-7 0 -9 -6q-1 -4 -1 -157l20 49
q0 105 -1 108q-2 6 -9 6zM155 104q7 0 9 6q1 4 1 153l-20 -49q0 -101 1 -104q2 -6 9 -6z" />
    <glyph glyph-name="ugrave" unicode="&#xf9;" 
d="M220 576h-112l-70 130h130zM165 540h135v-540h-135v40q-33 -45 -84 -45q-37 0 -54 20.5t-17 64.5v460h135v-421q0 -15 10 -15t10 15v421z" />
    <glyph glyph-name="uacute" unicode="&#xfa;" 
d="M272 706l-70 -130h-112l52 130h130zM165 540h135v-540h-135v40q-33 -45 -84 -45q-37 0 -54 20.5t-17 64.5v460h135v-421q0 -15 10 -15t10 15v421z" />
    <glyph glyph-name="ucircumflex" unicode="&#xfb;" 
d="M155 628l-23 -52h-107l63 130h134l63 -130h-107zM165 540h135v-540h-135v40q-33 -45 -84 -45q-37 0 -54 20.5t-17 64.5v460h135v-421q0 -15 10 -15t10 15v421z" />
    <glyph glyph-name="udieresis" unicode="&#xfc;" 
d="M85 572q-29 0 -47 17t-18 46q0 30 18 46t47 16q28 0 45.5 -16t17.5 -46q0 -29 -17.5 -46t-45.5 -17zM228 572q-29 0 -47 17t-18 46q0 30 18 46t47 16q28 0 45.5 -16t17.5 -46q0 -29 -17.5 -46t-45.5 -17zM165 540h135v-540h-135v40q-33 -45 -84 -45q-37 0 -54 20.5
t-17 64.5v460h135v-421q0 -15 10 -15t10 15v421z" />
    <glyph glyph-name="yacute" unicode="&#xfd;" horiz-adv-x="303" 
d="M271 706l-70 -130h-112l52 130h130zM172 540h136l-95 -539l-27 -151h-128l27 154l-90 536h140l21 -319z" />
    <glyph glyph-name="thorn" unicode="&#xfe;" horiz-adv-x="313" 
d="M292 509q8 -18 9.5 -52.5t1.5 -186.5t-1.5 -186.5t-9.5 -52.5q-18 -37 -65 -37q-53 0 -82 42v-186h-135v856h135v-202q29 42 82 42q47 0 65 -37zM164 110q1 4 1 160t-1 160q-2 6 -9 6q-10 0 -10 -13v-306q0 -13 10 -13q7 0 9 6z" />
    <glyph glyph-name="ydieresis" unicode="&#xff;" horiz-adv-x="303" 
d="M84 572q-29 0 -47 17t-18 46q0 30 18 46t47 16q28 0 45.5 -16t17.5 -46q0 -29 -17.5 -46t-45.5 -17zM227 572q-29 0 -47 17t-18 46q0 30 18 46t47 16q28 0 45.5 -16t17.5 -46q0 -29 -17.5 -46t-45.5 -17zM172 540h136l-95 -539l-27 -151h-128l27 154l-90 536h140l21 -319
z" />
    <glyph glyph-name="Amacron" unicode="&#x100;" horiz-adv-x="334" 
d="M273 836v-90h-213v90h213zM196 0l-4 85h-50l-4 -85h-138l57 706h220l57 -706h-138zM148 209h38l-18 377h-2z" />
    <glyph glyph-name="amacron" unicode="&#x101;" horiz-adv-x="305" 
d="M258 684v-99h-201v99h201zM285 486q10 -22 10 -118v-368h-135v40q-32 -46 -80 -46q-49 0 -65 34q-7 15 -8.5 35t-1.5 88q0 72 1.5 92t9.5 37q12 27 39 40t81 13h24v8q0 86 -1 89q-1 6 -9 6t-9 -6q-1 -3 -1 -46h-127q0 76 11 101q27 60 129 60q105 0 132 -59zM150 104
q8 0 9 6q1 4 1 126v7h-6q-9 0 -12 -7q-2 -5 -2 -60q0 -62 1 -66q1 -6 9 -6z" />
    <glyph glyph-name="Abreve" unicode="&#x102;" horiz-adv-x="334" 
d="M167 732q-122 0 -122 106h94q0 -32 28 -32t28 32h94q0 -106 -122 -106zM196 0l-4 85h-50l-4 -85h-138l57 706h220l57 -706h-138zM148 209h38l-18 377h-2z" />
    <glyph glyph-name="abreve" unicode="&#x103;" horiz-adv-x="305" 
d="M158 572q-62 0 -93 31.5t-31 102.5h92q0 -53 32 -53t32 53h92q0 -71 -31 -102.5t-93 -31.5zM285 486q10 -22 10 -118v-368h-135v40q-32 -46 -80 -46q-49 0 -65 34q-7 15 -8.5 35t-1.5 88q0 72 1.5 92t9.5 37q12 27 39 40t81 13h24v8q0 86 -1 89q-1 6 -9 6t-9 -6
q-1 -3 -1 -46h-127q0 76 11 101q27 60 129 60q105 0 132 -59zM150 104q8 0 9 6q1 4 1 126v7h-6q-9 0 -12 -7q-2 -5 -2 -60q0 -62 1 -66q1 -6 9 -6z" />
    <glyph glyph-name="Aogonek" unicode="&#x104;" horiz-adv-x="334" 
d="M279 -54q0 -24 26 -24q16 0 29 7v-79q-28 -10 -56 -10q-47 0 -75.5 20.5t-28.5 57.5q0 51 65 82h-43l-4 85h-50l-4 -85h-138l57 706h220l57 -706q-29 -16 -42 -27.5t-13 -26.5zM148 209h38l-18 377h-2z" />
    <glyph glyph-name="aogonek" unicode="&#x105;" horiz-adv-x="305" 
d="M295 0q-29 -16 -42 -27.5t-13 -26.5q0 -24 26 -24q16 0 29 7v-79q-28 -10 -56 -10q-47 0 -75.5 20.5t-28.5 57.5q0 51 65 82h-40v40q-32 -46 -80 -46q-49 0 -65 34q-7 15 -8.5 35t-1.5 88q0 72 1.5 92t9.5 37q12 27 39 40t81 13h24v8q0 86 -1 89q-1 6 -9 6t-9 -6
q-1 -3 -1 -46h-127q0 76 11 101q27 60 129 60q105 0 132 -59q10 -22 10 -118v-368zM150 104q8 0 9 6q1 4 1 126v7h-6q-9 0 -12 -7q-2 -5 -2 -60q0 -62 1 -66q1 -6 9 -6z" />
    <glyph glyph-name="Cacute" unicode="&#x106;" horiz-adv-x="319" 
d="M96 738l62 100h137l-80 -100h-119zM161 -10q-100 0 -134 75q-12 28 -14.5 72t-2.5 216t2.5 216t14.5 72q34 75 134 75q67 0 105 -34q30 -28 38 -66t8 -126h-140q0 95 -4 99q-2 2 -7 2q-9 0 -10 -7q-1 -4 -1 -231t1 -231q1 -7 10 -7q5 0 7 2q4 3 4 99h140q0 -77 -10 -123
t-37 -71q-35 -32 -104 -32z" />
    <glyph glyph-name="cacute" unicode="&#x107;" 
d="M90 576l52 130h130l-70 -130h-112zM155 -6q-99 0 -131 66q-10 22 -12 54t-2 156t2 156t12 54q32 66 131 66q74 0 108 -31q26 -24 31.5 -54.5t5.5 -117.5h-135q0 88 -3 91q-2 2 -7 2q-7 0 -9 -6q-1 -4 -1 -160t1 -160q2 -6 9 -6q5 0 7 2q3 3 3 110h135q0 -101 -5.5 -134
t-31.5 -57q-34 -31 -108 -31z" />
    <glyph glyph-name="Ccircumflex" unicode="&#x108;" horiz-adv-x="319" 
d="M28 738l54 100h154l57 -100h-110l-23 42l-23 -42h-109zM161 -10q-100 0 -134 75q-12 28 -14.5 72t-2.5 216t2.5 216t14.5 72q34 75 134 75q67 0 105 -34q30 -28 38 -66t8 -126h-140q0 95 -4 99q-2 2 -7 2q-9 0 -10 -7q-1 -4 -1 -231t1 -231q1 -7 10 -7q5 0 7 2q4 3 4 99
h140q0 -77 -10 -123t-37 -71q-35 -32 -104 -32z" />
    <glyph glyph-name="ccircumflex" unicode="&#x109;" 
d="M25 576l63 130h134l63 -130h-107l-23 52l-23 -52h-107zM155 -6q-99 0 -131 66q-10 22 -12 54t-2 156t2 156t12 54q32 66 131 66q74 0 108 -31q26 -24 31.5 -54.5t5.5 -117.5h-135q0 88 -3 91q-2 2 -7 2q-7 0 -9 -6q-1 -4 -1 -160t1 -160q2 -6 9 -6q5 0 7 2q3 3 3 110h135
q0 -101 -5.5 -134t-31.5 -57q-34 -31 -108 -31z" />
    <glyph glyph-name="Cdotaccent" unicode="&#x10a;" horiz-adv-x="319" 
d="M162 730q-29 0 -48.5 17.5t-19.5 48.5t19 47.5t49 16.5q29 0 47.5 -16.5t18.5 -47.5t-18.5 -48.5t-47.5 -17.5zM161 -10q-100 0 -134 75q-12 28 -14.5 72t-2.5 216t2.5 216t14.5 72q34 75 134 75q67 0 105 -34q30 -28 38 -66t8 -126h-140q0 95 -4 99q-2 2 -7 2
q-9 0 -10 -7q-1 -4 -1 -231t1 -231q1 -7 10 -7q5 0 7 2q4 3 4 99h140q0 -77 -10 -123t-37 -71q-35 -32 -104 -32z" />
    <glyph glyph-name="cdotaccent" unicode="&#x10b;" 
d="M156 576q-31 0 -50 18t-19 49t19.5 48t49.5 17t48.5 -17t18.5 -48t-18.5 -49t-48.5 -18zM155 -6q-99 0 -131 66q-10 22 -12 54t-2 156t2 156t12 54q32 66 131 66q74 0 108 -31q26 -24 31.5 -54.5t5.5 -117.5h-135q0 88 -3 91q-2 2 -7 2q-7 0 -9 -6q-1 -4 -1 -160t1 -160
q2 -6 9 -6q5 0 7 2q3 3 3 110h135q0 -101 -5.5 -134t-31.5 -57q-34 -31 -108 -31z" />
    <glyph glyph-name="Ccaron" unicode="&#x10c;" horiz-adv-x="319" 
d="M293 838l-54 -100h-154l-57 100h110l23 -42l23 42h109zM161 -10q-100 0 -134 75q-12 28 -14.5 72t-2.5 216t2.5 216t14.5 72q34 75 134 75q67 0 105 -34q30 -28 38 -66t8 -126h-140q0 95 -4 99q-2 2 -7 2q-9 0 -10 -7q-1 -4 -1 -231t1 -231q1 -7 10 -7q5 0 7 2q4 3 4 99
h140q0 -77 -10 -123t-37 -71q-35 -32 -104 -32z" />
    <glyph glyph-name="ccaron" unicode="&#x10d;" 
d="M285 706l-63 -130h-134l-63 130h107l23 -52l23 52h107zM155 -6q-99 0 -131 66q-10 22 -12 54t-2 156t2 156t12 54q32 66 131 66q74 0 108 -31q26 -24 31.5 -54.5t5.5 -117.5h-135q0 88 -3 91q-2 2 -7 2q-7 0 -9 -6q-1 -4 -1 -160t1 -160q2 -6 9 -6q5 0 7 2q3 3 3 110h135
q0 -101 -5.5 -134t-31.5 -57q-34 -31 -108 -31z" />
    <glyph glyph-name="Dcaron" unicode="&#x10e;" horiz-adv-x="324" 
d="M282 838l-54 -100h-154l-57 100h110l23 -42l23 42h109zM12 0v706h151q100 0 134 -75q12 -26 14.5 -68t2.5 -210t-2.5 -210t-14.5 -68q-34 -75 -134 -75h-151zM152 115h6q9 0 13 6q3 6 3 227q0 231 -3 237q-4 6 -13 6h-6v-476z" />
    <glyph glyph-name="dcaron" unicode="&#x10f;" horiz-adv-x="412" 
d="M168 504v202h135v-706h-132v40q-29 -46 -85 -46q-47 0 -65 37q-8 18 -9.5 52.5t-1.5 186.5t1.5 186.5t9.5 52.5q18 37 65 37q53 0 82 -42zM324 706h88l-25 -147h-74zM168 117v306q0 13 -10 13q-8 0 -9 -6q-1 -4 -1 -160t1 -160q1 -6 9 -6q10 0 10 13z" />
    <glyph glyph-name="Dcroat" unicode="&#x110;" horiz-adv-x="336" 
d="M309 631q12 -26 14.5 -68t2.5 -210t-2.5 -210t-14.5 -68q-34 -75 -134 -75h-151v312h-24v128h24v266h151q100 0 134 -75zM183 121q3 6 3 227q0 231 -3 237q-4 6 -13 6h-6v-151h12v-128h-12v-197h6q9 0 13 6z" />
    <glyph glyph-name="dcroat" unicode="&#x111;" horiz-adv-x="313" 
d="M313 666v-90h-10v-576h-132v40q-29 -46 -85 -46q-47 0 -65 37q-8 18 -9.5 52.5t-1.5 186.5t1.5 186.5t9.5 52.5q18 37 65 37q53 0 82 -42v72h-113v90h113v40h135v-40h10zM168 117v306q0 13 -10 13q-8 0 -9 -6q-1 -4 -1 -160t1 -160q1 -6 9 -6q10 0 10 13z" />
    <glyph glyph-name="Emacron" unicode="&#x112;" horiz-adv-x="228" 
d="M9 746v90h213v-90h-213zM12 0v706h206v-131h-66v-133h63v-130h-63v-182h66v-130h-206z" />
    <glyph glyph-name="emacron" unicode="&#x113;" 
d="M255 684v-99h-201v99h201zM162 106q3 3 3 72h135q0 -71 -7 -100.5t-32 -52.5q-34 -31 -106 -31q-101 0 -131 66q-10 22 -12 54.5t-2 155.5t2 155.5t12 54.5q30 66 131 66t132 -67q9 -20 11 -58t2 -178h-155q0 -129 1 -133q2 -6 9 -6q5 0 7 2zM155 436q-7 0 -9 -6
q-1 -3 -1 -97h20q0 94 -1 97q-2 6 -9 6z" />
    <glyph glyph-name="Ebreve" unicode="&#x114;" horiz-adv-x="228" 
d="M116 732q-122 0 -122 106h94q0 -32 28 -32t28 32h94q0 -106 -122 -106zM12 0v706h206v-131h-66v-133h63v-130h-63v-182h66v-130h-206z" />
    <glyph glyph-name="ebreve" unicode="&#x115;" 
d="M155 572q-62 0 -93 31.5t-31 102.5h92q0 -53 32 -53t32 53h92q0 -71 -31 -102.5t-93 -31.5zM162 106q3 3 3 72h135q0 -71 -7 -100.5t-32 -52.5q-34 -31 -106 -31q-101 0 -131 66q-10 22 -12 54.5t-2 155.5t2 155.5t12 54.5q30 66 131 66t132 -67q9 -20 11 -58t2 -178
h-155q0 -129 1 -133q2 -6 9 -6q5 0 7 2zM155 436q-7 0 -9 -6q-1 -3 -1 -97h20q0 94 -1 97q-2 6 -9 6z" />
    <glyph glyph-name="Edotaccent" unicode="&#x116;" horiz-adv-x="228" 
d="M117 730q-29 0 -48.5 17.5t-19.5 48.5t19 47.5t49 16.5q29 0 47.5 -16.5t18.5 -47.5t-18.5 -48.5t-47.5 -17.5zM12 0v706h206v-131h-66v-133h63v-130h-63v-182h66v-130h-206z" />
    <glyph glyph-name="edotaccent" unicode="&#x117;" 
d="M156 576q-31 0 -50 18t-19 49t19.5 48t49.5 17t48.5 -17t18.5 -48t-18.5 -49t-48.5 -18zM162 106q3 3 3 72h135q0 -71 -7 -100.5t-32 -52.5q-34 -31 -106 -31q-101 0 -131 66q-10 22 -12 54.5t-2 155.5t2 155.5t12 54.5q30 66 131 66t132 -67q9 -20 11 -58t2 -178h-155
q0 -129 1 -133q2 -6 9 -6q5 0 7 2zM155 436q-7 0 -9 -6q-1 -3 -1 -97h20q0 94 -1 97q-2 6 -9 6z" />
    <glyph glyph-name="Eogonek" unicode="&#x118;" horiz-adv-x="228" 
d="M218 575h-66v-133h63v-130h-63v-182h66v-130q-29 -16 -42 -27.5t-13 -26.5q0 -24 26 -24q16 0 29 7v-79q-28 -10 -56 -10q-47 0 -75.5 20.5t-28.5 57.5q0 51 65 82h-111v706h206v-131z" />
    <glyph glyph-name="eogonek" unicode="&#x119;" 
d="M162 106q3 3 3 72h135q0 -75 -9 -108t-38 -56q-49 -39 -49 -63q0 -29 26 -29q16 0 29 7v-79q-28 -10 -56 -10q-47 0 -75.5 21.5t-28.5 61.5q0 44 39 71q-87 6 -114 66q-10 22 -12 54.5t-2 155.5t2 155.5t12 54.5q30 66 131 66t132 -67q9 -20 11 -58t2 -178h-155
q0 -129 1 -133q2 -6 9 -6q5 0 7 2zM155 436q-7 0 -9 -6q-1 -3 -1 -97h20q0 94 -1 97q-2 6 -9 6z" />
    <glyph glyph-name="Ecaron" unicode="&#x11a;" horiz-adv-x="228" 
d="M248 838l-54 -100h-154l-57 100h110l23 -42l23 42h109zM12 0v706h206v-131h-66v-133h63v-130h-63v-182h66v-130h-206z" />
    <glyph glyph-name="ecaron" unicode="&#x11b;" 
d="M222 576h-134l-63 130h107l23 -52l23 52h107zM162 106q3 3 3 72h135q0 -71 -7 -100.5t-32 -52.5q-34 -31 -106 -31q-101 0 -131 66q-10 22 -12 54.5t-2 155.5t2 155.5t12 54.5q30 66 131 66t132 -67q9 -20 11 -58t2 -178h-155q0 -129 1 -133q2 -6 9 -6q5 0 7 2zM155 436
q-7 0 -9 -6q-1 -3 -1 -97h20q0 94 -1 97q-2 6 -9 6z" />
    <glyph glyph-name="Gcircumflex" unicode="&#x11c;" horiz-adv-x="322" 
d="M160 780l-23 -42h-109l54 100h154l57 -100h-110zM160 239v129h152v-55q0 -146 -2.5 -183.5t-13.5 -62.5q-35 -77 -135 -77t-134 75q-12 28 -14.5 72t-2.5 216t2.5 216t14.5 72q34 75 134 75q67 0 105 -34q30 -28 38 -66t8 -126h-140q0 95 -4 99q-2 2 -7 2q-9 0 -10 -7
q-1 -4 -1 -231t1 -231q1 -7 10 -7t10 7q1 4 1 117h-12z" />
    <glyph glyph-name="gcircumflex" unicode="&#x11d;" horiz-adv-x="313" 
d="M158 628l-23 -52h-107l63 130h134l63 -130h-107zM171 540h132v-519q0 -92 -12 -116q-31 -65 -136 -65q-75 0 -107 29q-19 17 -25 41.5t-6 63.5h131q0 -32 3 -35q2 -2 7 -2q8 0 9 6q1 5 1 64v33q-28 -46 -80 -46q-48 0 -64 33q-9 19 -11.5 56.5t-2.5 183.5q0 155 2 189
t11 52q19 37 65 37q54 0 83 -46v41zM158 104q10 0 10 13v309q0 10 -10 10q-8 0 -9 -6q-1 -4 -1 -160t1 -160q1 -6 9 -6z" />
    <glyph glyph-name="Gbreve" unicode="&#x11e;" horiz-adv-x="322" 
d="M161 732q-122 0 -122 106h94q0 -32 28 -32t28 32h94q0 -106 -122 -106zM160 239v129h152v-55q0 -146 -2.5 -183.5t-13.5 -62.5q-35 -77 -135 -77t-134 75q-12 28 -14.5 72t-2.5 216t2.5 216t14.5 72q34 75 134 75q67 0 105 -34q30 -28 38 -66t8 -126h-140q0 95 -4 99
q-2 2 -7 2q-9 0 -10 -7q-1 -4 -1 -231t1 -231q1 -7 10 -7t10 7q1 4 1 117h-12z" />
    <glyph glyph-name="gbreve" unicode="&#x11f;" horiz-adv-x="313" 
d="M158 572q-62 0 -93 31.5t-31 102.5h92q0 -53 32 -53t32 53h92q0 -71 -31 -102.5t-93 -31.5zM171 540h132v-519q0 -92 -12 -116q-31 -65 -136 -65q-75 0 -107 29q-19 17 -25 41.5t-6 63.5h131q0 -32 3 -35q2 -2 7 -2q8 0 9 6q1 5 1 64v33q-28 -46 -80 -46q-48 0 -64 33
q-9 19 -11.5 56.5t-2.5 183.5q0 155 2 189t11 52q19 37 65 37q54 0 83 -46v41zM158 104q10 0 10 13v309q0 10 -10 10q-8 0 -9 -6q-1 -4 -1 -160t1 -160q1 -6 9 -6z" />
    <glyph glyph-name="Gdotaccent" unicode="&#x120;" horiz-adv-x="322" 
d="M162 730q-29 0 -48.5 17.5t-19.5 48.5t19 47.5t49 16.5q29 0 47.5 -16.5t18.5 -47.5t-18.5 -48.5t-47.5 -17.5zM160 239v129h152v-55q0 -146 -2.5 -183.5t-13.5 -62.5q-35 -77 -135 -77t-134 75q-12 28 -14.5 72t-2.5 216t2.5 216t14.5 72q34 75 134 75q67 0 105 -34
q30 -28 38 -66t8 -126h-140q0 95 -4 99q-2 2 -7 2q-9 0 -10 -7q-1 -4 -1 -231t1 -231q1 -7 10 -7t10 7q1 4 1 117h-12z" />
    <glyph glyph-name="gdotaccent" unicode="&#x121;" horiz-adv-x="313" 
d="M159 576q-31 0 -50 18t-19 49t19.5 48t49.5 17t48.5 -17t18.5 -48t-18.5 -49t-48.5 -18zM171 540h132v-519q0 -92 -12 -116q-31 -65 -136 -65q-75 0 -107 29q-19 17 -25 41.5t-6 63.5h131q0 -32 3 -35q2 -2 7 -2q8 0 9 6q1 5 1 64v33q-28 -46 -80 -46q-48 0 -64 33
q-9 19 -11.5 56.5t-2.5 183.5q0 155 2 189t11 52q19 37 65 37q54 0 83 -46v41zM158 104q10 0 10 13v309q0 10 -10 10q-8 0 -9 -6q-1 -4 -1 -160t1 -160q1 -6 9 -6z" />
    <glyph glyph-name="uni0122" unicode="&#x122;" horiz-adv-x="322" 
d="M160 239v129h152v-55q0 -146 -2.5 -183.5t-13.5 -62.5q-35 -77 -135 -77t-134 75q-12 28 -14.5 72t-2.5 216t2.5 216t14.5 72q34 75 134 75q67 0 105 -34q30 -28 38 -66t8 -126h-140q0 95 -4 99q-2 2 -7 2q-9 0 -10 -7q-1 -4 -1 -231t1 -231q1 -7 10 -7t10 7q1 4 1 117
h-12zM74 -150l17 116h134l-31 -116h-120z" />
    <glyph glyph-name="uni0123" unicode="&#x123;" horiz-adv-x="313" 
d="M222 704l-17 -116h-134l31 116h120zM171 540h132v-519q0 -92 -12 -116q-31 -65 -136 -65q-75 0 -107 29q-19 17 -25 41.5t-6 63.5h131q0 -32 3 -35q2 -2 7 -2q8 0 9 6q1 5 1 64v33q-28 -46 -80 -46q-48 0 -64 33q-9 19 -11.5 56.5t-2.5 183.5q0 155 2 189t11 52
q19 37 65 37q54 0 83 -46v41zM158 104q10 0 10 13v309q0 10 -10 10q-8 0 -9 -6q-1 -4 -1 -160t1 -160q1 -6 9 -6z" />
    <glyph glyph-name="Hcircumflex" unicode="&#x124;" horiz-adv-x="326" 
d="M30 738l54 100h154l57 -100h-110l-23 42l-23 -42h-109zM12 0v706h140v-264h22v264h140v-706h-140v312h-22v-312h-140z" />
    <glyph glyph-name="hcircumflex" unicode="&#x125;" 
d="M154 780l-23 -42h-109l54 100h154l57 -100h-110zM229 545q71 0 71 -86v-459h-135v421q0 15 -10 15t-10 -15v-421h-135v706h135v-207q32 46 84 46z" />
    <glyph glyph-name="Hbar" unicode="&#x126;" horiz-adv-x="326" 
d="M174 706h140v-706h-140v312h-22v-312h-140v706h140v-89h22v89zM152 442h22v91h-22v-91z" />
    <glyph glyph-name="hbar" unicode="&#x127;" 
d="M229 545q71 0 71 -86v-459h-135v421q0 15 -10 15t-10 -15v-421h-135v576h-10v90h10v40h135v-40h113v-90h-113v-77q32 46 84 46z" />
    <glyph glyph-name="Itilde" unicode="&#x128;" horiz-adv-x="164" 
d="M124 737q-24 0 -43 9q-18 9 -25 9q-13 0 -17 -17h-70q0 54 16.5 77.5t53.5 23.5q19 0 43 -10q22 -9 27 -9q13 0 17 18h69q0 -53 -16.5 -77t-54.5 -24zM12 0v706h140v-706h-140z" />
    <glyph glyph-name="itilde" unicode="&#x129;" horiz-adv-x="155" 
d="M108 575q-30 0 -38 28q-4 13 -10 13q-8 0 -9 -40h-57q0 73 11 102t42 29q30 0 38 -28q4 -13 10 -13q8 0 9 40h57q0 -73 -11 -102t-42 -29zM10 0v540h135v-540h-135z" />
    <glyph glyph-name="Imacron" unicode="&#x12a;" horiz-adv-x="164" 
d="M-5 746v90h173v-90h-173zM12 0v706h140v-706h-140z" />
    <glyph glyph-name="imacron" unicode="&#x12b;" horiz-adv-x="155" 
d="M-4 585v99h163v-99h-163zM10 0v540h135v-540h-135z" />
    <glyph glyph-name="Ibreve" unicode="&#x12c;" horiz-adv-x="164" 
d="M82 733q-52 0 -78 25t-26 80h84q0 -33 20 -33t20 33h84q0 -56 -25.5 -80.5t-78.5 -24.5zM12 0v706h140v-706h-140z" />
    <glyph glyph-name="ibreve" unicode="&#x12d;" horiz-adv-x="155" 
d="M78 572q-48 0 -66 30t-18 104h74q0 -52 10 -52q6 0 8 10t2 42h74q0 -74 -18 -104t-66 -30zM10 0v540h135v-540h-135z" />
    <glyph glyph-name="Iogonek" unicode="&#x12e;" horiz-adv-x="164" 
d="M152 0q-24 -16 -34.5 -27.5t-10.5 -27.5q0 -23 22 -23q11 0 23 5v-77q-21 -10 -51 -10q-42 0 -68 21t-26 60q0 48 50 79h-45v706h140v-706z" />
    <glyph glyph-name="iogonek" unicode="&#x12f;" horiz-adv-x="155" 
d="M79 576q-32 0 -52.5 19t-20.5 52t20.5 51t52.5 18q31 0 51 -18t20 -51t-20 -52t-51 -19zM10 0v540h135v-540q-24 -16 -34.5 -27.5t-10.5 -27.5q0 -23 22 -23q11 0 23 5v-77q-21 -10 -51 -10q-42 0 -68 21t-26 60q0 48 50 79h-40z" />
    <glyph glyph-name="Idotaccent" unicode="&#x130;" horiz-adv-x="164" 
d="M83 730q-29 0 -48.5 17.5t-19.5 48.5t19 47.5t49 16.5q29 0 47.5 -16.5t18.5 -47.5t-18.5 -48.5t-47.5 -17.5zM12 0v706h140v-706h-140z" />
    <glyph glyph-name="dotlessi" unicode="&#x131;" horiz-adv-x="155" 
d="M10 0v540h135v-540h-135z" />
    <glyph glyph-name="IJ" unicode="&#x132;" horiz-adv-x="352" 
d="M12 0v706h140v-706h-140zM211 -1q-28 0 -43 1v130h11q23 0 23 30v546h140v-566q0 -73 -31.5 -107t-99.5 -34z" />
    <glyph glyph-name="ij" unicode="&#x133;" 
d="M79 576q-32 0 -52.5 19t-20.5 52t20.5 51t52.5 18q31 0 51 -18t20 -51t-20 -52t-51 -19zM233 576q-32 0 -52.5 19t-20.5 52t20.5 51t52.5 18q31 0 51 -18t20 -51t-20 -52t-51 -19zM10 0v540h135v-540h-135zM174 -152q-29 0 -45 2v118q7 -1 13 -1q13 0 18 7t5 24v542h135
v-578q0 -61 -31.5 -87.5t-94.5 -26.5z" />
    <glyph glyph-name="Jcircumflex" unicode="&#x134;" horiz-adv-x="188" 
d="M-18 738l53 100h150l54 -100h-109l-19 36l-20 -36h-109zM47 -1q-28 0 -43 1v130h11q23 0 23 30v546h140v-566q0 -73 -31.5 -107t-99.5 -34z" />
    <glyph glyph-name="jcircumflex" unicode="&#x135;" horiz-adv-x="155" 
d="M-10 576l25 130h124l24 -130h-72l-14 62l-15 -62h-72zM19 -152q-29 0 -45 2v118q7 -1 13 -1q13 0 18 7t5 24v542h135v-578q0 -61 -31.5 -87.5t-94.5 -26.5z" />
    <glyph glyph-name="uni0136" unicode="&#x136;" horiz-adv-x="335" 
d="M152 339v-339h-140v706h140v-279l37 279h140l-57 -324l62 -382h-135zM89 -150l17 116h134l-31 -116h-120z" />
    <glyph glyph-name="uni0137" unicode="&#x137;" horiz-adv-x="318" 
d="M145 256v-256h-135v706h135v-379l30 213h144l-47 -248l52 -292h-143zM76 -150l17 116h134l-31 -116h-120z" />
    <glyph glyph-name="kgreenlandic" unicode="&#x138;" horiz-adv-x="318" 
d="M324 0h-143l-36 256v-256h-135v540h135v-213l30 213h144l-47 -248z" />
    <glyph glyph-name="Lacute" unicode="&#x139;" horiz-adv-x="204" 
d="M37 738l62 100h137l-80 -100h-119zM12 0v706h140v-576h48v-130h-188z" />
    <glyph glyph-name="lacute" unicode="&#x13a;" horiz-adv-x="155" 
d="M13 738l62 100h137l-80 -100h-119zM10 0v706h135v-706h-135z" />
    <glyph glyph-name="uni013B" unicode="&#x13b;" horiz-adv-x="204" 
d="M12 0v706h140v-576h48v-130h-188zM25 -150l17 116h134l-31 -116h-120z" />
    <glyph glyph-name="uni013C" unicode="&#x13c;" horiz-adv-x="155" 
d="M10 0v706h135v-706h-135zM-9 -150l17 116h134l-31 -116h-120z" />
    <glyph glyph-name="Lcaron" unicode="&#x13d;" horiz-adv-x="258" 
d="M12 0v706h140v-576h48v-130h-188zM162 559l11 147h88l-25 -147h-74z" />
    <glyph glyph-name="lcaron" unicode="&#x13e;" horiz-adv-x="254" 
d="M10 0v706h135v-706h-135zM155 559l11 147h88l-25 -147h-74z" />
    <glyph glyph-name="Ldot" unicode="&#x13f;" horiz-adv-x="318" 
d="M12 0v706h140v-576h48v-130h-188zM241 324q-33 0 -53.5 19.5t-20.5 53.5q0 35 20.5 54.5t53.5 19.5t53.5 -19.5t20.5 -54.5q0 -34 -20.5 -53.5t-53.5 -19.5z" />
    <glyph glyph-name="ldot" unicode="&#x140;" horiz-adv-x="313" 
d="M10 0v706h135v-706h-135zM234 295q-33 0 -53.5 19.5t-20.5 53.5q0 35 20.5 54.5t53.5 19.5t53.5 -19.5t20.5 -54.5q0 -34 -20.5 -53.5t-53.5 -19.5z" />
    <glyph glyph-name="Lslash" unicode="&#x141;" horiz-adv-x="218" 
d="M214 388l-50 -34v-224h48v-130h-188v283l-24 -15v138l24 15v285h140v-214l50 34v-138z" />
    <glyph glyph-name="lslash" unicode="&#x142;" horiz-adv-x="192" 
d="M192 487v-106l-29 -22v-359h-135v278l-28 -21v107l28 21v321h135v-241z" />
    <glyph glyph-name="Nacute" unicode="&#x143;" horiz-adv-x="363" 
d="M115 738l62 100h137l-80 -100h-119zM12 0v706h116l88 -291v291h135v-706h-110l-94 302v-302h-135z" />
    <glyph glyph-name="nacute" unicode="&#x144;" 
d="M277 706l-70 -130h-112l52 130h130zM229 545q37 0 54 -20.5t17 -64.5v-460h-135v421q0 15 -10 15t-10 -15v-421h-135v540h135v-40q33 45 84 45z" />
    <glyph glyph-name="uni0145" unicode="&#x145;" horiz-adv-x="363" 
d="M12 0v706h116l88 -291v291h135v-706h-110l-94 302v-302h-135zM108 -150l17 116h134l-31 -116h-120z" />
    <glyph glyph-name="uni0146" unicode="&#x146;" 
d="M229 545q37 0 54 -20.5t17 -64.5v-460h-135v421q0 15 -10 15t-10 -15v-421h-135v540h135v-40q33 45 84 45zM68 -150l17 116h134l-31 -116h-120z" />
    <glyph glyph-name="Ncaron" unicode="&#x147;" horiz-adv-x="363" 
d="M312 838l-54 -100h-154l-57 100h110l23 -42l23 42h109zM12 0v706h116l88 -291v291h135v-706h-110l-94 302v-302h-135z" />
    <glyph glyph-name="ncaron" unicode="&#x148;" 
d="M227 576h-134l-63 130h107l23 -52l23 52h107zM229 545q37 0 54 -20.5t17 -64.5v-460h-135v421q0 15 -10 15t-10 -15v-421h-135v540h135v-40q33 45 84 45z" />
    <glyph glyph-name="napostrophe" unicode="&#x149;" horiz-adv-x="458" 
d="M35 706h128l-58 -249h-98zM377 545q37 0 54 -20.5t17 -64.5v-460h-135v421q0 15 -10 15t-10 -15v-421h-135v540h135v-40q33 45 84 45z" />
    <glyph glyph-name="Eng" unicode="&#x14a;" horiz-adv-x="363" 
d="M216 706h135v-744q0 -61 -31.5 -87.5t-94.5 -26.5q-29 0 -45 2v118q7 -1 13 -1q23 0 23 34v82l-69 229v-312h-135v706h116l88 -292v292z" />
    <glyph glyph-name="eng" unicode="&#x14b;" 
d="M229 545q37 0 54 -20.5t17 -64.5v-498q0 -61 -31.5 -87.5t-94.5 -26.5q-29 0 -45 2v118q7 -1 13 -1q13 0 18 7t5 24v423q0 15 -10 15t-10 -15v-421h-135v540h135v-40q33 45 84 45z" />
    <glyph glyph-name="Omacron" unicode="&#x14c;" horiz-adv-x="322" 
d="M54 746v90h213v-90h-213zM161 -10q-100 0 -134 75q-12 28 -14.5 72t-2.5 216t2.5 216t14.5 72q34 75 134 75t134 -75q12 -28 14.5 -72t2.5 -216t-2.5 -216t-14.5 -72q-34 -75 -134 -75zM161 115q9 0 10 7q1 4 1 231t-1 231q-1 7 -10 7t-10 -7q-1 -4 -1 -231t1 -231
q1 -7 10 -7z" />
    <glyph glyph-name="omacron" unicode="&#x14d;" 
d="M54 585v99h201v-99h-201zM155 -6q-101 0 -131 66q-10 22 -12 54.5t-2 155.5t2 155.5t12 54.5q30 66 131 66t131 -66q10 -22 12 -54.5t2 -155.5t-2 -155.5t-12 -54.5q-30 -66 -131 -66zM155 104q7 0 9 6q1 4 1 160t-1 160q-2 6 -9 6t-9 -6q-1 -4 -1 -160t1 -160q2 -6 9 -6
z" />
    <glyph glyph-name="Obreve" unicode="&#x14e;" horiz-adv-x="322" 
d="M161 732q-122 0 -122 106h94q0 -32 28 -32t28 32h94q0 -106 -122 -106zM161 -10q-100 0 -134 75q-12 28 -14.5 72t-2.5 216t2.5 216t14.5 72q34 75 134 75t134 -75q12 -28 14.5 -72t2.5 -216t-2.5 -216t-14.5 -72q-34 -75 -134 -75zM161 115q9 0 10 7q1 4 1 231t-1 231
q-1 7 -10 7t-10 -7q-1 -4 -1 -231t1 -231q1 -7 10 -7z" />
    <glyph glyph-name="obreve" unicode="&#x14f;" 
d="M155 572q-62 0 -93 31.5t-31 102.5h92q0 -53 32 -53t32 53h92q0 -71 -31 -102.5t-93 -31.5zM155 -6q-101 0 -131 66q-10 22 -12 54.5t-2 155.5t2 155.5t12 54.5q30 66 131 66t131 -66q10 -22 12 -54.5t2 -155.5t-2 -155.5t-12 -54.5q-30 -66 -131 -66zM155 104q7 0 9 6
q1 4 1 160t-1 160q-2 6 -9 6t-9 -6q-1 -4 -1 -160t1 -160q2 -6 9 -6z" />
    <glyph glyph-name="Ohungarumlaut" unicode="&#x150;" horiz-adv-x="322" 
d="M46 738l43 100h113l-61 -100h-95zM176 738l43 100h117l-61 -100h-99zM161 -10q-100 0 -134 75q-12 28 -14.5 72t-2.5 216t2.5 216t14.5 72q34 75 134 75t134 -75q12 -28 14.5 -72t2.5 -216t-2.5 -216t-14.5 -72q-34 -75 -134 -75zM161 115q9 0 10 7q1 4 1 231t-1 231
q-1 7 -10 7t-10 -7q-1 -4 -1 -231t1 -231q1 -7 10 -7z" />
    <glyph glyph-name="ohungarumlaut" unicode="&#x151;" 
d="M46 576l42 130h107l-60 -130h-89zM170 576l42 130h107l-60 -130h-89zM155 -6q-101 0 -131 66q-10 22 -12 54.5t-2 155.5t2 155.5t12 54.5q30 66 131 66t131 -66q10 -22 12 -54.5t2 -155.5t-2 -155.5t-12 -54.5q-30 -66 -131 -66zM155 104q7 0 9 6q1 4 1 160t-1 160
q-2 6 -9 6t-9 -6q-1 -4 -1 -160t1 -160q2 -6 9 -6z" />
    <glyph glyph-name="OE" unicode="&#x152;" horiz-adv-x="388" 
d="M378 576h-66v-134h63v-130h-63v-182h66v-130h-168q-21 -6 -49 -6q-100 0 -134 71q-12 26 -14.5 69.5t-2.5 218.5t2.5 218.5t14.5 69.5q34 71 134 71q28 0 49 -6h168v-130zM161 115q9 0 10 7q1 4 1 231t-1 231q-1 7 -10 7t-10 -7q-1 -4 -1 -231t1 -231q1 -7 10 -7z" />
    <glyph glyph-name="oe" unicode="&#x153;" horiz-adv-x="465" 
d="M317 106q3 3 3 72h135q0 -71 -7 -100.5t-32 -52.5q-34 -31 -106 -31q-48 0 -77 15q-29 -15 -78 -15q-99 0 -131 66q-10 22 -12 54t-2 156t2 156t12 54q32 66 131 66q49 0 78 -15q29 15 77 15q101 0 132 -67q9 -20 11 -58t2 -178h-155q0 -129 1 -133q1 -6 9 -6q5 0 7 2z
M164 110q1 4 1 160t-1 160q-2 6 -9 6t-9 -6q-1 -4 -1 -160t1 -160q2 -6 9 -6t9 6zM310 436q-8 0 -9 -6q-1 -3 -1 -97h20q0 94 -1 97q-1 6 -9 6z" />
    <glyph glyph-name="Racute" unicode="&#x154;" horiz-adv-x="326" 
d="M296 838l-80 -100h-119l62 100h137zM252 376q34 -5 48 -26t14 -66v-284h-140v296q0 16 -13 16h-9v-312h-140v706h185q86 0 108 -50q7 -16 9 -38t2 -94q0 -99 -7 -114q-12 -27 -57 -34zM171 438q3 6 3 82q0 59 -3 65q-4 6 -13 6h-6v-159h6q9 0 13 6z" />
    <glyph glyph-name="racute" unicode="&#x155;" horiz-adv-x="209" 
d="M222 706l-70 -130h-112l52 130h130zM140 493q7 22 24 34.5t35 12.5h3v-135h-3q-25 0 -39.5 -19.5t-14.5 -56.5v-329h-135v540h130v-47z" />
    <glyph glyph-name="uni0156" unicode="&#x156;" horiz-adv-x="326" 
d="M252 376q34 -5 48 -26t14 -66v-284h-140v296q0 16 -13 16h-9v-312h-140v706h185q86 0 108 -50q7 -16 9 -38t2 -94q0 -99 -7 -114q-12 -27 -57 -34zM171 438q3 6 3 82q0 59 -3 65q-4 6 -13 6h-6v-159h6q9 0 13 6zM76 -150l17 116h134l-31 -116h-120z" />
    <glyph glyph-name="uni0157" unicode="&#x157;" horiz-adv-x="209" 
d="M199 540h3v-135h-3q-25 0 -39.5 -19.5t-14.5 -56.5v-329h-135v540h130v-47q7 22 24 34.5t35 12.5zM-6 -150l17 116h134l-31 -116h-120z" />
    <glyph glyph-name="Rcaron" unicode="&#x158;" horiz-adv-x="326" 
d="M240 738h-154l-57 100h110l23 -42l23 42h109zM252 376q34 -5 48 -26t14 -66v-284h-140v296q0 16 -13 16h-9v-312h-140v706h185q86 0 108 -50q7 -16 9 -38t2 -94q0 -99 -7 -114q-12 -27 -57 -34zM171 438q3 6 3 82q0 59 -3 65q-4 6 -13 6h-6v-159h6q9 0 13 6z" />
    <glyph glyph-name="rcaron" unicode="&#x159;" horiz-adv-x="209" 
d="M172 576h-134l-63 130h107l23 -52l23 52h107zM140 493q7 22 24 34.5t35 12.5h3v-135h-3q-25 0 -39.5 -19.5t-14.5 -56.5v-329h-135v540h130v-47z" />
    <glyph glyph-name="Sacute" unicode="&#x15a;" horiz-adv-x="314" 
d="M65 738l62 100h137l-80 -100h-119zM157 -10q-108 0 -138 65q-9 20 -11 43.5t-2 117.5h139q0 -90 1 -94q1 -7 10 -7t10 7q1 4 1 62q0 54 -8 72q-9 20 -48 44q-70 44 -88 84q-11 24 -13.5 52t-2.5 96q0 55 2 75t12 42q31 67 136 67q108 0 138 -65q9 -20 11 -43.5t2 -117.5
h-139q0 90 -1 94q-1 7 -10 7t-10 -7q-1 -4 -1 -52q0 -51 8 -69q9 -20 47 -43q70 -42 89 -85q11 -25 13.5 -51.5t2.5 -99.5q0 -62 -2 -83.5t-12 -43.5q-31 -67 -136 -67z" />
    <glyph glyph-name="sacute" unicode="&#x15b;" horiz-adv-x="300" 
d="M83 576l52 130h130l-70 -130h-112zM149 -6q-53 0 -84 14.5t-47 48.5q-9 20 -11 41.5t-2 79.5h135q0 -65 1 -68q1 -6 9 -6t9 6q1 3 1 29q0 38 -5 49q-8 17 -47 40q-72 42 -90 83q-13 29 -13 97q0 48 10 71q29 66 136 66q106 0 134 -62q10 -23 10 -102h-135q0 44 -1 48
q-2 7 -9 7t-9 -7q-1 -4 -1 -18q0 -29 4 -38q8 -17 53 -44q39 -23 57.5 -39t28.5 -38q12 -26 12 -105q0 -59 -13 -89q-29 -64 -133 -64z" />
    <glyph glyph-name="Scircumflex" unicode="&#x15c;" horiz-adv-x="314" 
d="M24 738l54 100h154l57 -100h-110l-23 42l-23 -42h-109zM157 -10q-108 0 -138 65q-9 20 -11 43.5t-2 117.5h139q0 -90 1 -94q1 -7 10 -7t10 7q1 4 1 62q0 54 -8 72q-9 20 -48 44q-70 44 -88 84q-11 24 -13.5 52t-2.5 96q0 55 2 75t12 42q31 67 136 67q108 0 138 -65
q9 -20 11 -43.5t2 -117.5h-139q0 90 -1 94q-1 7 -10 7t-10 -7q-1 -4 -1 -52q0 -51 8 -69q9 -20 47 -43q70 -42 89 -85q11 -25 13.5 -51.5t2.5 -99.5q0 -62 -2 -83.5t-12 -43.5q-31 -67 -136 -67z" />
    <glyph glyph-name="scircumflex" unicode="&#x15d;" horiz-adv-x="300" 
d="M18 576l63 130h134l63 -130h-107l-23 52l-23 -52h-107zM149 -6q-53 0 -84 14.5t-47 48.5q-9 20 -11 41.5t-2 79.5h135q0 -65 1 -68q1 -6 9 -6t9 6q1 3 1 29q0 38 -5 49q-8 17 -47 40q-72 42 -90 83q-13 29 -13 97q0 48 10 71q29 66 136 66q106 0 134 -62q10 -23 10 -102
h-135q0 44 -1 48q-2 7 -9 7t-9 -7q-1 -4 -1 -18q0 -29 4 -38q8 -17 53 -44q39 -23 57.5 -39t28.5 -38q12 -26 12 -105q0 -59 -13 -89q-29 -64 -133 -64z" />
    <glyph glyph-name="Scedilla" unicode="&#x15e;" horiz-adv-x="314" 
d="M202 420q70 -42 89 -85q11 -25 13.5 -51.5t2.5 -99.5q0 -62 -2 -83.5t-12 -43.5q-24 -53 -93 -64l-3 -14q66 -5 66 -63q0 -76 -111 -76q-33 0 -73 10l14 60q24 -8 48 -8q34 0 34 17q0 11 -10.5 14.5t-37.5 3.5h-28l12 56q-68 12 -92 62q-9 20 -11 43.5t-2 117.5h139
q0 -90 1 -94q1 -7 10 -7t10 7q1 4 1 62q0 54 -8 72q-9 20 -48 44q-70 44 -88 84q-11 24 -13.5 52t-2.5 96q0 55 2 75t12 42q31 67 136 67q108 0 138 -65q9 -20 11 -43.5t2 -117.5h-139q0 90 -1 94q-1 7 -10 7t-10 -7q-1 -4 -1 -52q0 -51 8 -69q9 -20 47 -43z" />
    <glyph glyph-name="scedilla" unicode="&#x15f;" horiz-adv-x="300" 
d="M197 329q39 -23 57.5 -39t28.5 -38q12 -26 12 -105q0 -59 -13 -89q-22 -48 -84 -60l-4 -19q66 -5 66 -63q0 -76 -111 -76q-33 0 -73 10l14 60q24 -8 48 -8q34 0 34 17q0 11 -10.5 14.5t-37.5 3.5h-28l12 59q-66 10 -90 61q-9 20 -11 41.5t-2 79.5h135q0 -65 1 -68
q1 -6 9 -6t9 6q1 3 1 29q0 38 -5 49q-8 17 -47 40q-72 42 -90 83q-13 29 -13 97q0 48 10 71q29 66 136 66q106 0 134 -62q10 -23 10 -102h-135q0 44 -1 48q-2 7 -9 7t-9 -7q-1 -4 -1 -18q0 -29 4 -38q8 -17 53 -44z" />
    <glyph glyph-name="Scaron" unicode="&#x160;" horiz-adv-x="314" 
d="M289 838l-54 -100h-154l-57 100h110l23 -42l23 42h109zM157 -10q-108 0 -138 65q-9 20 -11 43.5t-2 117.5h139q0 -90 1 -94q1 -7 10 -7t10 7q1 4 1 62q0 54 -8 72q-9 20 -48 44q-70 44 -88 84q-11 24 -13.5 52t-2.5 96q0 55 2 75t12 42q31 67 136 67q108 0 138 -65
q9 -20 11 -43.5t2 -117.5h-139q0 90 -1 94q-1 7 -10 7t-10 -7q-1 -4 -1 -52q0 -51 8 -69q9 -20 47 -43q70 -42 89 -85q11 -25 13.5 -51.5t2.5 -99.5q0 -62 -2 -83.5t-12 -43.5q-31 -67 -136 -67z" />
    <glyph glyph-name="scaron" unicode="&#x161;" horiz-adv-x="300" 
d="M278 706l-63 -130h-134l-63 130h107l23 -52l23 52h107zM149 -6q-53 0 -84 14.5t-47 48.5q-9 20 -11 41.5t-2 79.5h135q0 -65 1 -68q1 -6 9 -6t9 6q1 3 1 29q0 38 -5 49q-8 17 -47 40q-72 42 -90 83q-13 29 -13 97q0 48 10 71q29 66 136 66q106 0 134 -62q10 -23 10 -102
h-135q0 44 -1 48q-2 7 -9 7t-9 -7q-1 -4 -1 -18q0 -29 4 -38q8 -17 53 -44q39 -23 57.5 -39t28.5 -38q12 -26 12 -105q0 -59 -13 -89q-29 -64 -133 -64z" />
    <glyph glyph-name="uni0162" unicode="&#x162;" horiz-adv-x="244" 
d="M192 0h-23l-4 -21q66 -5 66 -63q0 -76 -111 -76q-33 0 -73 10l14 60q24 -8 48 -8q34 0 34 17q0 11 -10.5 14.5t-37.5 3.5h-28l13 63h-28v576h-48v130h236v-130h-48v-576z" />
    <glyph glyph-name="uni0163" unicode="&#x163;" horiz-adv-x="218" 
d="M176 -21q66 -5 66 -63q0 -76 -111 -76q-33 0 -73 10l14 60q24 -8 48 -8q34 0 34 17q0 11 -10.5 14.5t-37.5 3.5h-28l14 69q-56 21 -56 113v286h-31v135h31v109h135v-109h33v-135h-33v-249q0 -22 6.5 -29t20.5 -7h15v-120q-14 -2 -34 -4z" />
    <glyph glyph-name="Tcaron" unicode="&#x164;" horiz-adv-x="244" 
d="M254 838l-54 -100h-154l-57 100h110l23 -42l23 42h109zM52 0v576h-48v130h236v-130h-48v-576h-140z" />
    <glyph glyph-name="tcaron" unicode="&#x165;" horiz-adv-x="278" 
d="M181 559l11 147h88l-25 -147h-74zM163 -4q-67 0 -97 25.5t-30 97.5v286h-31v135h31v109h135v-109h33v-135h-33v-249q0 -22 6.5 -29t20.5 -7h15v-120q-27 -4 -50 -4z" />
    <glyph glyph-name="Tbar" unicode="&#x166;" horiz-adv-x="244" 
d="M240 576h-48v-136h36v-128h-36v-312h-140v312h-37v128h37v136h-48v130h236v-130z" />
    <glyph glyph-name="tbar" unicode="&#x167;" horiz-adv-x="218" 
d="M198 120h15v-120q-27 -4 -50 -4q-67 0 -97 25.5t-30 97.5v101h-31v100h31v85h-31v135h31v109h135v-109h33v-135h-33v-85h34v-100h-34v-64q0 -22 6.5 -29t20.5 -7z" />
    <glyph glyph-name="Utilde" unicode="&#x168;" horiz-adv-x="324" 
d="M207 735q-22 0 -46 11q-20 9 -25 9q-13 0 -17 -17h-86q0 103 79 103q17 0 47 -13q18 -8 27 -8q14 0 18 18h86q0 -52 -19.5 -77.5t-63.5 -25.5zM162 -10q-82 0 -116.5 37.5t-34.5 114.5v564h140v-570q0 -19 11 -19t11 19v570h140v-564q0 -76 -35.5 -114t-115.5 -38z" />
    <glyph glyph-name="utilde" unicode="&#x169;" 
d="M125 608q-19 0 -23 -32h-74q0 70 15 100.5t57 30.5q27 0 54 -19q20 -14 31 -14q19 0 23 32h74q0 -70 -15 -100.5t-57 -30.5q-27 0 -54 19q-20 14 -31 14zM165 540h135v-540h-135v40q-33 -45 -84 -45q-37 0 -54 20.5t-17 64.5v460h135v-421q0 -15 10 -15t10 15v421z" />
    <glyph glyph-name="Umacron" unicode="&#x16a;" horiz-adv-x="324" 
d="M55 746v90h213v-90h-213zM162 -10q-82 0 -116.5 37.5t-34.5 114.5v564h140v-570q0 -19 11 -19t11 19v570h140v-564q0 -76 -35.5 -114t-115.5 -38z" />
    <glyph glyph-name="umacron" unicode="&#x16b;" 
d="M255 684v-99h-201v99h201zM165 540h135v-540h-135v40q-33 -45 -84 -45q-37 0 -54 20.5t-17 64.5v460h135v-421q0 -15 10 -15t10 15v421z" />
    <glyph glyph-name="Ubreve" unicode="&#x16c;" horiz-adv-x="324" 
d="M162 732q-122 0 -122 106h94q0 -32 28 -32t28 32h94q0 -106 -122 -106zM162 -10q-82 0 -116.5 37.5t-34.5 114.5v564h140v-570q0 -19 11 -19t11 19v570h140v-564q0 -76 -35.5 -114t-115.5 -38z" />
    <glyph glyph-name="ubreve" unicode="&#x16d;" 
d="M155 572q-62 0 -93 31.5t-31 102.5h92q0 -53 32 -53t32 53h92q0 -71 -31 -102.5t-93 -31.5zM165 540h135v-540h-135v40q-33 -45 -84 -45q-37 0 -54 20.5t-17 64.5v460h135v-421q0 -15 10 -15t10 15v421z" />
    <glyph glyph-name="Uring" unicode="&#x16e;" horiz-adv-x="324" 
d="M162 719q-42 0 -69.5 23t-27.5 62q0 40 27.5 63t69.5 23t69.5 -23t27.5 -63q0 -39 -27.5 -62t-69.5 -23zM162 778q27 0 27 26q0 12 -7.5 19.5t-19.5 7.5q-26 0 -26 -27q0 -26 26 -26zM162 -10q-82 0 -116.5 37.5t-34.5 114.5v564h140v-570q0 -19 11 -19t11 19v570h140
v-564q0 -76 -35.5 -114t-115.5 -38z" />
    <glyph glyph-name="uring" unicode="&#x16f;" 
d="M155 567q-42 0 -69.5 23t-27.5 62q0 40 27.5 63t69.5 23t69.5 -23t27.5 -63q0 -39 -27.5 -62t-69.5 -23zM155 679q-26 0 -26 -27q0 -26 26 -26q27 0 27 26q0 12 -7.5 19.5t-19.5 7.5zM165 540h135v-540h-135v40q-33 -45 -84 -45q-37 0 -54 20.5t-17 64.5v460h135v-421
q0 -15 10 -15t10 15v421z" />
    <glyph glyph-name="Uhungarumlaut" unicode="&#x170;" horiz-adv-x="324" 
d="M47 738l43 100h113l-61 -100h-95zM177 738l43 100h117l-61 -100h-99zM162 -10q-82 0 -116.5 37.5t-34.5 114.5v564h140v-570q0 -19 11 -19t11 19v570h140v-564q0 -76 -35.5 -114t-115.5 -38z" />
    <glyph glyph-name="uhungarumlaut" unicode="&#x171;" 
d="M195 706l-60 -130h-89l42 130h107zM259 576h-89l42 130h107zM165 119v421h135v-540h-135v40q-33 -45 -84 -45q-37 0 -54 20.5t-17 64.5v460h135v-421q0 -15 10 -15t10 15z" />
    <glyph glyph-name="Uogonek" unicode="&#x172;" horiz-adv-x="324" 
d="M173 706h140v-564q0 -93 -57 -132q-30 -21 -41.5 -32.5t-11.5 -28.5q0 -27 26 -27q16 0 29 7v-79q-28 -10 -56 -10q-47 0 -75.5 21t-28.5 60q0 43 35 70q-66 7 -94 44t-28 107v564h140v-570q0 -19 11 -19t11 19v570z" />
    <glyph glyph-name="uogonek" unicode="&#x173;" 
d="M300 0q-29 -16 -42 -27.5t-13 -26.5q0 -24 26 -24q16 0 29 7v-79q-28 -10 -56 -10q-47 0 -75.5 20.5t-28.5 57.5q0 51 65 82h-40v40q-33 -45 -84 -45q-37 0 -54 20.5t-17 64.5v460h135v-421q0 -15 10 -15t10 15v421h135v-540z" />
    <glyph glyph-name="Wcircumflex" unicode="&#x174;" horiz-adv-x="512" 
d="M255 780l-23 -42h-109l54 100h154l57 -100h-110zM377 706h135l-82 -706h-135l-39 347l-39 -347h-135l-82 706h135l26 -377l34 377h122l34 -377z" />
    <glyph glyph-name="wcircumflex" unicode="&#x175;" horiz-adv-x="480" 
d="M240 628l-23 -52h-107l63 130h134l63 -130h-107zM356 540h129l-83 -540h-133l-28 289l-29 -289h-134l-83 540h129l23 -290l32 290h122l33 -290z" />
    <glyph glyph-name="Ycircumflex" unicode="&#x176;" horiz-adv-x="334" 
d="M34 738l54 100h154l57 -100h-110l-23 42l-23 -42h-109zM97 0v270l-97 436h135l32 -260l32 260h135l-97 -436v-270h-140z" />
    <glyph glyph-name="ycircumflex" unicode="&#x177;" horiz-adv-x="303" 
d="M154 628l-23 -52h-107l63 130h134l63 -130h-107zM172 540h136l-95 -539l-27 -151h-128l27 154l-90 536h140l21 -319z" />
    <glyph glyph-name="Ydieresis" unicode="&#x178;" horiz-adv-x="334" 
d="M98 733q-28 0 -45 16.5t-17 45.5q0 28 17.5 43.5t44.5 15.5t43.5 -15.5t16.5 -43.5q0 -29 -16.5 -45.5t-43.5 -16.5zM238 733q-28 0 -45 16.5t-17 45.5q0 28 17.5 43.5t44.5 15.5t43.5 -15.5t16.5 -43.5q0 -29 -16.5 -45.5t-43.5 -16.5zM97 0v270l-97 436h135l32 -260
l32 260h135l-97 -436v-270h-140z" />
    <glyph glyph-name="Zacute" unicode="&#x179;" horiz-adv-x="242" 
d="M57 738l62 100h137l-80 -100h-119zM5 0l75 576h-69v130h226l-75 -576h72v-130h-229z" />
    <glyph glyph-name="zacute" unicode="&#x17a;" horiz-adv-x="262" 
d="M252 706l-70 -130h-112l52 130h130zM267 540l-100 -405h90v-135h-262l105 405h-95v135h262z" />
    <glyph glyph-name="Zdotaccent" unicode="&#x17b;" horiz-adv-x="242" 
d="M123 730q-29 0 -48.5 17.5t-19.5 48.5t19 47.5t49 16.5q29 0 47.5 -16.5t18.5 -47.5t-18.5 -48.5t-47.5 -17.5zM5 0l75 576h-69v130h226l-75 -576h72v-130h-229z" />
    <glyph glyph-name="zdotaccent" unicode="&#x17c;" horiz-adv-x="262" 
d="M136 576q-31 0 -50 18t-19 49t19.5 48t49.5 17t48.5 -17t18.5 -48t-18.5 -49t-48.5 -18zM267 540l-100 -405h90v-135h-262l105 405h-95v135h262z" />
    <glyph glyph-name="Zcaron" unicode="&#x17d;" horiz-adv-x="242" 
d="M254 838l-54 -100h-154l-57 100h110l23 -42l23 42h109zM5 0l75 576h-69v130h226l-75 -576h72v-130h-229z" />
    <glyph glyph-name="zcaron" unicode="&#x17e;" horiz-adv-x="262" 
d="M202 576h-134l-63 130h107l23 -52l23 52h107zM267 540l-100 -405h90v-135h-262l105 405h-95v135h262z" />
    <glyph glyph-name="uni018F" unicode="&#x18f;" horiz-adv-x="322" 
d="M295 641q12 -28 14.5 -72t2.5 -216t-2.5 -216t-14.5 -72q-34 -75 -134 -75t-135 77q-11 25 -13.5 62.5t-2.5 183.5v55h162q0 212 -1 216q-1 7 -10 7q-5 0 -7 -2q-4 -4 -4 -99h-140q0 88 8 126t38 66q38 34 105 34q100 0 134 -75zM161 115q9 0 10 7q1 3 1 117h-22
q0 -113 1 -117q1 -7 10 -7z" />
    <glyph glyph-name="florin" unicode="&#x192;" horiz-adv-x="247" 
d="M47 -1q-26 0 -42 1v118h16q19 0 27 8.5t8 27.5v230h-44v68h44v136q0 67 35.5 95.5t108.5 28.5q26 0 42 -1v-118h-16q-19 0 -27 -8.5t-8 -27.5v-105h44v-68h-44v-261q0 -67 -35.5 -95.5t-108.5 -28.5z" />
    <glyph glyph-name="Aringacute" unicode="&#x1fa;" horiz-adv-x="334" 
d="M301 1022l-80 -100h-119l62 100h137zM167 719q-42 0 -69.5 23t-27.5 62q0 40 27.5 63t69.5 23t69.5 -23t27.5 -63q0 -39 -27.5 -62t-69.5 -23zM167 831q-26 0 -26 -27q0 -26 26 -26q27 0 27 26q0 12 -7.5 19.5t-19.5 7.5zM196 0l-4 85h-50l-4 -85h-138l57 706h220
l57 -706h-138zM148 209h38l-18 377h-2z" />
    <glyph glyph-name="aringacute" unicode="&#x1fb;" horiz-adv-x="305" 
d="M275 904l-70 -130h-112l52 130h130zM158 567q-42 0 -69.5 23t-27.5 62q0 40 27.5 63t69.5 23t69.5 -23t27.5 -63q0 -39 -27.5 -62t-69.5 -23zM158 679q-26 0 -26 -27q0 -26 26 -26q27 0 27 26q0 12 -7.5 19.5t-19.5 7.5zM285 486q10 -22 10 -118v-368h-135v40
q-32 -46 -80 -46q-49 0 -65 34q-7 15 -8.5 35t-1.5 88q0 72 1.5 92t9.5 37q12 27 39 40t81 13h24v8q0 86 -1 89q-1 6 -9 6t-9 -6q-1 -3 -1 -46h-127q0 76 11 101q27 60 129 60q105 0 132 -59zM150 104q8 0 9 6q1 4 1 126v7h-6q-9 0 -12 -7q-2 -5 -2 -60q0 -62 1 -66
q1 -6 9 -6z" />
    <glyph glyph-name="AEacute" unicode="&#x1fc;" horiz-adv-x="383" 
d="M347 838l-80 -100h-119l62 100h137zM373 575h-67l5 -133h59v-130h-55l6 -182h52v-130h-178l-2 85h-50l-6 -85h-137l73 706h300v-131zM152 209h38l-10 366h-2z" />
    <glyph glyph-name="aeacute" unicode="&#x1fd;" horiz-adv-x="460" 
d="M347 706l-70 -130h-112l52 130h130zM312 106q3 3 3 72h135q0 -71 -7 -100.5t-32 -52.5q-34 -31 -106 -31q-46 0 -72 12.5t-43 40.5q-28 -53 -96 -53q-60 0 -77 35q-8 16 -10 38.5t-2 91.5q0 66 1.5 85t9.5 36q12 27 39 40t81 13h24v8q0 86 -1 89q-1 6 -9 6t-9 -6
q-1 -3 -1 -46h-127q0 76 11 101q27 60 129 60q50 0 77 -13q27 14 75 14q101 0 132 -67q9 -21 11 -53.5t2 -182.5h-155q0 -129 1 -133q2 -6 9 -6q5 0 7 2zM305 436q-7 0 -9 -6q-1 -3 -1 -97h20q0 94 -1 97q-2 6 -9 6zM160 236v7h-6q-9 0 -12 -7q-2 -5 -2 -60q0 -62 1 -66
q1 -6 9 -6t9 6q1 4 1 126z" />
    <glyph glyph-name="Oslashacute" unicode="&#x1fe;" horiz-adv-x="322" 
d="M295 838l-80 -100h-119l62 100h137zM334 707l-35 -75q9 -26 11 -72t2 -207q0 -172 -2.5 -216t-14.5 -72q-34 -75 -134 -75q-87 0 -124 56l-21 -45h-28l35 74q-9 26 -11 72t-2 206q0 172 2.5 216t14.5 72q34 75 134 75q86 0 123 -56l22 47h28zM161 591q-9 0 -10 -7
q-1 -4 -1 -229l22 60q0 165 -1 169q-1 7 -10 7zM171 122q1 4 1 231v2l-22 -60q0 -169 1 -173q1 -7 10 -7t10 7z" />
    <glyph glyph-name="oslashacute" unicode="&#x1ff;" 
d="M272 706l-70 -130h-112l52 130h130zM277 496q3 -3 9 -16q10 -22 12 -54.5t2 -155.5t-2 -155.5t-12 -54.5q-30 -66 -131 -66q-72 0 -105 30l-12 -24h-28l22 45q-4 6 -8 15q-10 22 -12 54.5t-2 155.5t2 155.5t12 54.5q30 66 131 66q72 0 105 -30l13 24h28zM155 436
q-7 0 -9 -6q-1 -4 -1 -157l20 49q0 105 -1 108q-2 6 -9 6zM155 104q7 0 9 6q1 4 1 153l-20 -49q0 -101 1 -104q2 -6 9 -6z" />
    <glyph glyph-name="uni0218" unicode="&#x218;" horiz-adv-x="314" 
d="M157 -10q-108 0 -138 65q-9 20 -11 43.5t-2 117.5h139q0 -90 1 -94q1 -7 10 -7t10 7q1 4 1 62q0 54 -8 72q-9 20 -48 44q-70 44 -88 84q-11 24 -13.5 52t-2.5 96q0 55 2 75t12 42q31 67 136 67q108 0 138 -65q9 -20 11 -43.5t2 -117.5h-139q0 90 -1 94q-1 7 -10 7t-10 -7
q-1 -4 -1 -52q0 -51 8 -69q9 -20 47 -43q70 -42 89 -85q11 -25 13.5 -51.5t2.5 -99.5q0 -62 -2 -83.5t-12 -43.5q-31 -67 -136 -67zM70 -150l17 116h134l-31 -116h-120z" />
    <glyph glyph-name="uni0219" unicode="&#x219;" horiz-adv-x="300" 
d="M149 -6q-53 0 -84 14.5t-47 48.5q-9 20 -11 41.5t-2 79.5h135q0 -65 1 -68q1 -6 9 -6t9 6q1 3 1 29q0 38 -5 49q-8 17 -47 40q-72 42 -90 83q-13 29 -13 97q0 48 10 71q29 66 136 66q106 0 134 -62q10 -23 10 -102h-135q0 44 -1 48q-2 7 -9 7t-9 -7q-1 -4 -1 -18
q0 -29 4 -38q8 -17 53 -44q39 -23 57.5 -39t28.5 -38q12 -26 12 -105q0 -59 -13 -89q-29 -64 -133 -64zM67 -150l17 116h134l-31 -116h-120z" />
    <glyph glyph-name="uni021A" unicode="&#x21a;" horiz-adv-x="244" 
d="M52 0v576h-48v130h236v-130h-48v-576h-140zM38 -150l17 116h134l-31 -116h-120z" />
    <glyph glyph-name="uni021B" unicode="&#x21b;" horiz-adv-x="218" 
d="M163 -4q-67 0 -97 25.5t-30 97.5v286h-31v135h31v109h135v-109h33v-135h-33v-249q0 -22 6.5 -29t20.5 -7h15v-120q-27 -4 -50 -4zM49 -150l17 116h134l-31 -116h-120z" />
    <glyph glyph-name="uni0237" unicode="&#x237;" horiz-adv-x="155" 
d="M19 -152q-29 0 -45 2v118q7 -1 13 -1q13 0 18 7t5 24v542h135v-578q0 -61 -31.5 -87.5t-94.5 -26.5z" />
    <glyph glyph-name="uni0259" unicode="&#x259;" 
d="M286 480q10 -22 12 -54.5t2 -155.5t-2 -155.5t-12 -54.5q-30 -66 -131 -66t-132 67q-9 20 -11 58t-2 178h155q0 129 -1 133q-2 6 -9 6q-5 0 -7 -2q-3 -3 -3 -72h-135q0 71 7 100.5t32 52.5q34 31 106 31q101 0 131 -66zM155 104q7 0 9 6q1 3 1 97h-20q0 -94 1 -97
q2 -6 9 -6z" />
    <glyph glyph-name="circumflex" unicode="&#x2c6;" horiz-adv-x="360" 
d="M50 576l63 130h134l63 -130h-107l-23 52l-23 -52h-107z" />
    <glyph glyph-name="caron" unicode="&#x2c7;" horiz-adv-x="360" 
d="M310 706l-63 -130h-134l-63 130h107l23 -52l23 52h107z" />
    <glyph glyph-name="uni02C9" unicode="&#x2c9;" horiz-adv-x="301" 
d="M50 585v99h201v-99h-201z" />
    <glyph glyph-name="breve" unicode="&#x2d8;" horiz-adv-x="348" 
d="M174 572q-62 0 -93 31.5t-31 102.5h92q0 -53 32 -53t32 53h92q0 -71 -31 -102.5t-93 -31.5z" />
    <glyph glyph-name="dotaccent" unicode="&#x2d9;" horiz-adv-x="236" 
d="M119 576q-31 0 -50 18t-19 49t19.5 48t49.5 17t48.5 -17t18.5 -48t-18.5 -49t-48.5 -18z" />
    <glyph glyph-name="ring" unicode="&#x2da;" horiz-adv-x="294" 
d="M147 567q-42 0 -69.5 23t-27.5 62q0 40 27.5 63t69.5 23t69.5 -23t27.5 -63q0 -39 -27.5 -62t-69.5 -23zM147 626q27 0 27 26q0 12 -7.5 19.5t-19.5 7.5q-26 0 -26 -27q0 -26 26 -26z" />
    <glyph glyph-name="ogonek" unicode="&#x2db;" horiz-adv-x="260" 
d="M154 -160q-47 0 -75.5 20.5t-28.5 57.5q0 51 65 82h95q-29 -16 -42 -27.5t-13 -26.5q0 -24 26 -24q16 0 29 7v-79q-28 -10 -56 -10z" />
    <glyph glyph-name="tilde" unicode="&#x2dc;" horiz-adv-x="354" 
d="M232 575q-27 0 -54 19q-20 14 -31 14q-19 0 -23 -32h-74q0 70 15 100.5t57 30.5q27 0 54 -19q20 -14 31 -14q19 0 23 32h74q0 -70 -15 -100.5t-57 -30.5z" />
    <glyph glyph-name="hungarumlaut" unicode="&#x2dd;" horiz-adv-x="373" 
d="M50 576l42 130h107l-60 -130h-89zM174 576l42 130h107l-60 -130h-89z" />
    <glyph glyph-name="gravecomb" unicode="&#x300;" horiz-adv-x="0" 
d="M-50 576h-112l-70 130h130z" />
    <glyph glyph-name="acutecomb" unicode="&#x301;" horiz-adv-x="0" 
d="M-232 576l52 130h130l-70 -130h-112z" />
    <glyph glyph-name="uni0302" unicode="&#x302;" horiz-adv-x="0" 
d="M-310 576l63 130h134l63 -130h-107l-23 52l-23 -52h-107z" />
    <glyph glyph-name="tildecomb" unicode="&#x303;" horiz-adv-x="0" 
d="M-122 575q-27 0 -54 19q-20 14 -31 14q-19 0 -23 -32h-74q0 70 15 100.5t57 30.5q27 0 54 -19q20 -14 31 -14q19 0 23 32h74q0 -70 -15 -100.5t-57 -30.5z" />
    <glyph glyph-name="uni0304" unicode="&#x304;" horiz-adv-x="0" 
d="M-251 585v99h201v-99h-201z" />
    <glyph glyph-name="uni0306" unicode="&#x306;" horiz-adv-x="0" 
d="M-174 572q-62 0 -93 31.5t-31 102.5h92q0 -53 32 -53t32 53h92q0 -71 -31 -102.5t-93 -31.5z" />
    <glyph glyph-name="uni0307" unicode="&#x307;" horiz-adv-x="0" 
d="M-117 576q-31 0 -50 18t-19 49t19.5 48t49.5 17t48.5 -17t18.5 -48t-18.5 -49t-48.5 -18z" />
    <glyph glyph-name="uni0308" unicode="&#x308;" horiz-adv-x="0" 
d="M-256 572q-29 0 -47 17t-18 46q0 30 18 46t47 16q28 0 45.5 -16t17.5 -46q0 -29 -17.5 -46t-45.5 -17zM-113 572q-29 0 -47 17t-18 46q0 30 18 46t47 16q28 0 45.5 -16t17.5 -46q0 -29 -17.5 -46t-45.5 -17z" />
    <glyph glyph-name="uni030A" unicode="&#x30a;" horiz-adv-x="0" 
d="M-147 567q-42 0 -69.5 23t-27.5 62q0 40 27.5 63t69.5 23t69.5 -23t27.5 -63q0 -39 -27.5 -62t-69.5 -23zM-147 626q27 0 27 26q0 12 -7.5 19.5t-19.5 7.5q-26 0 -26 -27q0 -26 26 -26z" />
    <glyph glyph-name="uni030B" unicode="&#x30b;" horiz-adv-x="0" 
d="M-323 576l42 130h107l-60 -130h-89zM-199 576l42 130h107l-60 -130h-89z" />
    <glyph glyph-name="uni030C" unicode="&#x30c;" horiz-adv-x="0" 
d="M-50 706l-63 -130h-134l-63 130h107l23 -52l23 52h107z" />
    <glyph glyph-name="uni0312" unicode="&#x312;" horiz-adv-x="0" 
d="M-50 704l-17 -116h-134l31 116h120z" />
    <glyph glyph-name="uni0326" unicode="&#x326;" horiz-adv-x="0" 
d="M-201 -150l17 116h134l-31 -116h-120z" />
    <glyph glyph-name="uni0327" unicode="&#x327;" horiz-adv-x="0" 
d="M-116 -21q66 -5 66 -63q0 -76 -111 -76q-33 0 -73 10l14 60q24 -8 48 -8q34 0 34 17q0 11 -10.5 14.5t-37.5 3.5h-28l17 83h89z" />
    <glyph glyph-name="uni0328" unicode="&#x328;" horiz-adv-x="0" 
d="M-106 -160q-47 0 -75.5 20.5t-28.5 57.5q0 51 65 82h95q-29 -16 -42 -27.5t-13 -26.5q0 -24 26 -24q16 0 29 7v-79q-28 -10 -56 -10z" />
    <glyph glyph-name="uni0335" unicode="&#x335;" horiz-adv-x="0" 
d="M-250 278v100h200v-100h-200z" />
    <glyph glyph-name="uni0336" unicode="&#x336;" horiz-adv-x="0" 
d="M-140 589v84h140v-84h-140z" />
    <glyph glyph-name="uni0337" unicode="&#x337;" horiz-adv-x="0" 
d="M-96 415l96 72v-106l-96 -73v22l-96 -73v107l96 73v-22z" />
    <glyph glyph-name="uni0338" unicode="&#x338;" horiz-adv-x="0" 
d="M-331 0l83 166l5 -10l118 293l4 -9l53 100h28l-72 -135l-3 6l-122 -297l-5 11l-61 -125h-28z" />
    <glyph glyph-name="uni0394" unicode="&#x394;" horiz-adv-x="334" 
d="M277 706l57 -706h-334l57 706h220zM144 124h46l-22 462h-2z" />
    <glyph glyph-name="uni03A9" unicode="&#x3a9;" horiz-adv-x="322" 
d="M246 145v-22h62v-123h-141v254q3 1 4 4t1 146q0 196 -2 201q-2 4 -9 4t-9 -4q-2 -5 -2 -201q0 -143 1 -146t4 -4v-254h-141v123h62v22q-37 18 -54 51q-9 20 -10.5 47t-1.5 161q0 159 2 193t13 58q27 61 136 61t136 -61q11 -24 13 -58t2 -193q0 -134 -1.5 -161t-10.5 -47
q-17 -33 -54 -51z" />
    <glyph glyph-name="uni03BC" unicode="&#x3bc;" 
d="M165 540h135v-540h-129v56q-14 -48 -36 -58q10 -54 10 -113v-35h-135v690h135v-414q0 -15 10 -15t10 15v414z" />
    <glyph glyph-name="pi" unicode="&#x3c0;" horiz-adv-x="396" 
d="M335 -4q-66 0 -96.5 26.5t-30.5 96.5v286h-22v-405h-135v405h-31v135h356v-135h-33v-254q0 -31 21 -31h12v-120q-21 -4 -41 -4z" />
    <glyph glyph-name="Wgrave" unicode="&#x1e80;" horiz-adv-x="512" 
d="M321 738h-119l-80 100h137zM377 706h135l-82 -706h-135l-39 347l-39 -347h-135l-82 706h135l26 -377l34 377h122l34 -377z" />
    <glyph glyph-name="wgrave" unicode="&#x1e81;" horiz-adv-x="480" 
d="M305 576h-112l-70 130h130zM356 540h129l-83 -540h-133l-28 289l-29 -289h-134l-83 540h129l23 -290l32 290h122l33 -290z" />
    <glyph glyph-name="Wacute" unicode="&#x1e82;" horiz-adv-x="512" 
d="M390 838l-80 -100h-119l62 100h137zM377 706h135l-82 -706h-135l-39 347l-39 -347h-135l-82 706h135l26 -377l34 377h122l34 -377z" />
    <glyph glyph-name="wacute" unicode="&#x1e83;" horiz-adv-x="480" 
d="M357 706l-70 -130h-112l52 130h130zM356 540h129l-83 -540h-133l-28 289l-29 -289h-134l-83 540h129l23 -290l32 290h122l33 -290z" />
    <glyph glyph-name="Wdieresis" unicode="&#x1e84;" horiz-adv-x="512" 
d="M187 733q-28 0 -45 16.5t-17 45.5q0 28 17.5 43.5t44.5 15.5t43.5 -15.5t16.5 -43.5q0 -29 -16.5 -45.5t-43.5 -16.5zM327 733q-28 0 -45 16.5t-17 45.5q0 28 17.5 43.5t44.5 15.5t43.5 -15.5t16.5 -43.5q0 -29 -16.5 -45.5t-43.5 -16.5zM377 706h135l-82 -706h-135
l-39 347l-39 -347h-135l-82 706h135l26 -377l34 377h122l34 -377z" />
    <glyph glyph-name="wdieresis" unicode="&#x1e85;" horiz-adv-x="480" 
d="M170 572q-29 0 -47 17t-18 46q0 30 18 46t47 16q28 0 45.5 -16t17.5 -46q0 -29 -17.5 -46t-45.5 -17zM313 572q-29 0 -47 17t-18 46q0 30 18 46t47 16q28 0 45.5 -16t17.5 -46q0 -29 -17.5 -46t-45.5 -17zM356 540h129l-83 -540h-133l-28 289l-29 -289h-134l-83 540h129
l23 -290l32 290h122l33 -290z" />
    <glyph glyph-name="uni1E9E" unicode="&#x1e9e;" horiz-adv-x="336" 
d="M326 706v-2l-36 -301q16 -10 25 -28q6 -14 7.5 -36t1.5 -111q0 -106 -1.5 -134t-8.5 -43q-14 -29 -39 -40.5t-68 -11.5q-29 0 -44 1v111h7q11 0 13 10q1 4 1 99q0 96 -1 100q-2 9 -13 9h-4v2l29 245h-43v-576h-140v706h314z" />
    <glyph glyph-name="Ygrave" unicode="&#x1ef2;" horiz-adv-x="334" 
d="M232 738h-119l-80 100h137zM97 0v270l-97 436h135l32 -260l32 260h135l-97 -436v-270h-140z" />
    <glyph glyph-name="ygrave" unicode="&#x1ef3;" horiz-adv-x="303" 
d="M219 576h-112l-70 130h130zM172 540h136l-95 -539l-27 -151h-128l27 154l-90 536h140l21 -319z" />
    <glyph glyph-name="uni2009" unicode="&#x2009;" horiz-adv-x="40" 
 />
    <glyph glyph-name="uni2011" unicode="&#x2011;" horiz-adv-x="202" 
d="M20 255v124h162v-124h-162z" />
    <glyph glyph-name="endash" unicode="&#x2013;" horiz-adv-x="250" 
d="M20 257v120h210v-120h-210z" />
    <glyph glyph-name="emdash" unicode="&#x2014;" horiz-adv-x="500" 
d="M20 257v120h460v-120h-460z" />
    <glyph glyph-name="quoteleft" unicode="&#x2018;" horiz-adv-x="170" 
d="M163 706l-28 -249h-128l58 249h98z" />
    <glyph glyph-name="quoteright" unicode="&#x2019;" horiz-adv-x="170" 
d="M7 457l28 249h128l-58 -249h-98z" />
    <glyph glyph-name="quotesinglbase" unicode="&#x201a;" horiz-adv-x="170" 
d="M7 -103l28 249h128l-58 -249h-98z" />
    <glyph glyph-name="quotedblleft" unicode="&#x201c;" horiz-adv-x="315" 
d="M163 706l-28 -249h-128l58 249h98zM308 706l-28 -249h-128l58 249h98z" />
    <glyph glyph-name="quotedblright" unicode="&#x201d;" horiz-adv-x="315" 
d="M7 457l28 249h128l-58 -249h-98zM152 457l28 249h128l-58 -249h-98z" />
    <glyph glyph-name="quotedblbase" unicode="&#x201e;" horiz-adv-x="315" 
d="M7 -103l28 249h128l-58 -249h-98zM152 -103l28 249h128l-58 -249h-98z" />
    <glyph glyph-name="dagger" unicode="&#x2020;" horiz-adv-x="254" 
d="M244 569v-140h-48v-429h-138v429h-48v140h48v137h138v-137h48z" />
    <glyph glyph-name="daggerdbl" unicode="&#x2021;" horiz-adv-x="254" 
d="M244 449h-48v-192h48v-140h-48v-117h-138v117h-48v140h48v192h-48v140h48v117h138v-117h48v-140z" />
    <glyph glyph-name="bullet" unicode="&#x2022;" horiz-adv-x="328" 
d="M164 245q-55 0 -90 33.5t-35 90.5q0 59 34.5 92t90.5 33t90.5 -33t34.5 -92q0 -57 -34.5 -90.5t-90.5 -33.5z" />
    <glyph glyph-name="ellipsis" unicode="&#x2026;" horiz-adv-x="568" 
d="M104 -6q-33 0 -53.5 19.5t-20.5 53.5q0 35 20.5 54.5t53.5 19.5t53.5 -19.5t20.5 -54.5q0 -34 -20.5 -53.5t-53.5 -19.5zM284 -6q-33 0 -53.5 19.5t-20.5 53.5q0 35 20.5 54.5t53.5 19.5t53.5 -19.5t20.5 -54.5q0 -34 -20.5 -53.5t-53.5 -19.5zM464 -6q-33 0 -53.5 19.5
t-20.5 53.5q0 35 20.5 54.5t53.5 19.5t53.5 -19.5t20.5 -54.5q0 -34 -20.5 -53.5t-53.5 -19.5z" />
    <glyph glyph-name="perthousand" unicode="&#x2030;" horiz-adv-x="600" 
d="M100 411q-62 0 -82 42q-8 17 -8 108t8 108q19 42 82 42q62 0 82 -42q8 -17 8 -108t-8 -108q-20 -42 -82 -42zM53 0l240 706h54l-240 -706h-54zM100 482q6 0 7 3q1 2 1 76t-1 76q-1 3 -7 3t-7 -3q-1 -2 -1 -76t1 -76q1 -3 7 -3zM300 -5q-62 0 -82 42q-8 17 -8 108t8 108
q20 42 82 42t82 -42q8 -17 8 -108t-8 -108q-20 -42 -82 -42zM500 -5q-62 0 -82 42q-8 17 -8 108t8 108q20 42 82 42t82 -42q8 -17 8 -108t-8 -108q-20 -42 -82 -42zM300 66q6 0 7 3q1 2 1 76t-1 76q-1 3 -7 3t-7 -3q-1 -2 -1 -76t1 -76q1 -3 7 -3zM500 66q6 0 7 3q1 2 1 76
t-1 76q-1 3 -7 3t-7 -3q-1 -2 -1 -76t1 -76q1 -3 7 -3z" />
    <glyph glyph-name="guilsinglleft" unicode="&#x2039;" horiz-adv-x="170" 
d="M56 150l-51 162l51 162h109l-51 -162l51 -162h-109z" />
    <glyph glyph-name="guilsinglright" unicode="&#x203a;" horiz-adv-x="170" 
d="M114 150h-109l51 162l-51 162h109l51 -162z" />
    <glyph glyph-name="fraction" unicode="&#x2044;" horiz-adv-x="108" 
d="M-93 0l240 706h54l-240 -706h-54z" />
    <glyph glyph-name="uni2070" unicode="&#x2070;" horiz-adv-x="234" 
d="M117 432q-77 0 -99 48q-9 20 -9 152t9 152q22 48 99 48t99 -48q9 -20 9 -152t-9 -152q-22 -48 -99 -48zM117 513q5 0 7 5q1 4 1 114t-1 114q-2 5 -7 5t-7 -5q-1 -4 -1 -114t1 -114q2 -5 7 -5z" />
    <glyph glyph-name="uni2074" unicode="&#x2074;" horiz-adv-x="252" 
d="M132 438v60h-133v2l56 326h170v-235h23v-93h-23v-60h-93zM103 591h29v197z" />
    <glyph glyph-name="uni2075" unicode="&#x2075;" horiz-adv-x="215" 
d="M103 432q-72 0 -91 41q-8 17 -8 94h90q0 -48 1 -50q2 -4 7 -4t7 4q1 2 1 50q0 49 -4 58q-5 12 -38 12q-19 0 -61 -4l14 193h182l-8 -83h-88l-3 -41q16 2 31 2q51 0 64 -30q8 -18 8 -97q0 -87 -8 -104q-18 -41 -96 -41z" />
    <glyph glyph-name="uni2076" unicode="&#x2076;" horiz-adv-x="226" 
d="M212 666q6 -14 6 -92q0 -56 -1.5 -70.5t-7.5 -28.5q-20 -43 -95 -43q-77 0 -97 43q-6 13 -7.5 36t-1.5 121q0 93 1.5 115.5t9.5 40.5q21 44 95 44q52 0 78 -26q19 -19 19 -92h-90q0 31 -1 33q-2 4 -7 4t-7 -4q-1 -2 -1 -63q18 12 49 12q44 0 58 -30zM120 517q1 2 1 50
q0 54 -1 56q-2 4 -7 4t-7 -4q-1 -2 -1 -56q0 -48 1 -50q2 -4 7 -4t7 4z" />
    <glyph glyph-name="uni2077" unicode="&#x2077;" horiz-adv-x="177" 
d="M10 438l61 305h-67v83h177l-70 -388h-101z" />
    <glyph glyph-name="uni2078" unicode="&#x2078;" horiz-adv-x="226" 
d="M179 662q21 -10 31 -29q8 -17 8 -77q0 -61 -8 -79q-21 -45 -97 -45q-77 0 -98 46q-7 15 -7 78q0 65 7 79q8 16 32 27q-26 10 -34 28q-5 10 -5 51q0 29 8 47q20 44 97 44t97 -44q8 -18 8 -47q0 -35 -7 -50q-10 -20 -32 -29zM120 691q1 2 1 34q0 30 -1 32q-2 4 -7 4t-7 -4
q-1 -2 -1 -32q0 -32 1 -34q2 -4 7 -4t7 4zM120 511q1 2 1 54t-1 54q-2 4 -7 4t-7 -4q-1 -2 -1 -54t1 -54q2 -4 7 -4t7 4z" />
    <glyph glyph-name="uni2079" unicode="&#x2079;" horiz-adv-x="226" 
d="M209 789q6 -13 7.5 -36t1.5 -121q0 -93 -1.5 -115.5t-9.5 -40.5q-21 -44 -95 -44q-52 0 -78 26q-19 19 -19 92h90q0 -31 1 -33q2 -4 7 -4t7 4q1 2 1 63q-18 -12 -49 -12q-44 0 -58 30q-6 14 -6 92q0 56 1.5 70.5t7.5 28.5q20 43 95 43q77 0 97 -43zM113 637q5 0 7 4
q1 2 1 56q0 48 -1 50q-2 4 -7 4t-7 -4q-1 -2 -1 -50q0 -54 1 -56q2 -4 7 -4z" />
    <glyph glyph-name="uni207A" unicode="&#x207a;" horiz-adv-x="213" 
d="M201 671v-78h-56v-51h-77v51h-56v78h56v53h78v-53h55z" />
    <glyph glyph-name="uni207B" unicode="&#x207b;" horiz-adv-x="213" 
d="M12 593v78h189v-78h-189z" />
    <glyph glyph-name="uni207C" unicode="&#x207c;" horiz-adv-x="193" 
d="M12 645v64h169v-64h-169zM12 554v64h169v-64h-169z" />
    <glyph glyph-name="uni207D" unicode="&#x207d;" horiz-adv-x="132" 
d="M54 380q-24 66 -34 120.5t-10 131.5q0 78 10 132t34 120h77q-24 -117 -24 -252q0 -133 24 -252h-77z" />
    <glyph glyph-name="uni207E" unicode="&#x207e;" horiz-adv-x="132" 
d="M78 380h-77q24 119 24 252q0 135 -24 252h77q24 -66 34 -120t10 -132q0 -77 -10 -131.5t-34 -120.5z" />
    <glyph glyph-name="uni207F" unicode="&#x207f;" horiz-adv-x="213" 
d="M156 710q50 0 50 -59v-316h-92v285q0 11 -7 11q-8 0 -8 -11v-285h-92v371h92v-24q23 28 57 28z" />
    <glyph glyph-name="uni2080" unicode="&#x2080;" horiz-adv-x="234" 
d="M117 -126q-77 0 -99 48q-9 20 -9 152t9 152q22 48 99 48t99 -48q9 -20 9 -152t-9 -152q-22 -48 -99 -48zM117 -45q5 0 7 5q1 4 1 114t-1 114q-2 5 -7 5t-7 -5q-1 -4 -1 -114t1 -114q2 -5 7 -5z" />
    <glyph glyph-name="uni2081" unicode="&#x2081;" horiz-adv-x="151" 
d="M40 -120v305h-40l10 83h130v-388h-100z" />
    <glyph glyph-name="uni2082" unicode="&#x2082;" horiz-adv-x="212" 
d="M6 -120v2l86 198q18 41 18 72q0 35 -1 37q-2 4 -7 4t-7 -4q-1 -2 -1 -33h-90q0 60 9 78q19 40 89 40q77 0 97 -43q9 -21 9 -48q0 -65 -23 -118l-43 -101h59v-84h-195z" />
    <glyph glyph-name="uni2083" unicode="&#x2083;" horiz-adv-x="215" 
d="M172 93q23 -6 29 -20q6 -13 6 -66q0 -73 -9 -92q-19 -41 -97 -41q-70 0 -89 41q-8 17 -8 94h90q0 -48 1 -50q2 -4 7 -4t7 4q1 2 1 44q0 34 -3 40q-5 9 -25 9h-10v77h11q19 0 24 9q3 6 3 25q0 24 -1 26q-2 4 -7 4t-7 -4q-1 -2 -1 -33h-90q0 55 7 74q12 26 33.5 35t56.5 9
q79 0 99 -44q7 -15 7 -70q0 -34 -5 -45q-7 -16 -30 -22z" />
    <glyph glyph-name="uni2084" unicode="&#x2084;" horiz-adv-x="252" 
d="M132 -120v60h-133v2l56 326h170v-235h23v-93h-23v-60h-93zM103 33h29v197z" />
    <glyph glyph-name="uni2085" unicode="&#x2085;" horiz-adv-x="215" 
d="M103 -126q-72 0 -91 41q-8 17 -8 94h90q0 -48 1 -50q2 -4 7 -4t7 4q1 2 1 50q0 49 -4 58q-5 12 -38 12q-19 0 -61 -4l14 193h182l-8 -83h-88l-3 -41q16 2 31 2q51 0 64 -30q8 -18 8 -97q0 -87 -8 -104q-18 -41 -96 -41z" />
    <glyph glyph-name="uni2086" unicode="&#x2086;" horiz-adv-x="226" 
d="M212 108q6 -14 6 -92q0 -56 -1.5 -70.5t-7.5 -28.5q-20 -43 -95 -43q-77 0 -97 43q-6 13 -7.5 36t-1.5 121q0 93 1.5 115.5t9.5 40.5q21 44 95 44q52 0 78 -26q19 -19 19 -92h-90q0 31 -1 33q-2 4 -7 4t-7 -4q-1 -2 -1 -63q18 12 49 12q44 0 58 -30zM120 -41q1 2 1 50
q0 54 -1 56q-2 4 -7 4t-7 -4q-1 -2 -1 -56q0 -48 1 -50q2 -4 7 -4t7 4z" />
    <glyph glyph-name="uni2087" unicode="&#x2087;" horiz-adv-x="177" 
d="M10 -120l61 305h-67v83h177l-70 -388h-101z" />
    <glyph glyph-name="uni2088" unicode="&#x2088;" horiz-adv-x="226" 
d="M179 104q21 -10 31 -29q8 -17 8 -77q0 -61 -8 -79q-21 -45 -97 -45q-77 0 -98 46q-7 15 -7 78q0 65 7 79q8 16 32 27q-26 10 -34 28q-5 10 -5 51q0 29 8 47q20 44 97 44t97 -44q8 -18 8 -47q0 -35 -7 -50q-10 -20 -32 -29zM120 133q1 2 1 34q0 30 -1 32q-2 4 -7 4t-7 -4
q-1 -2 -1 -32q0 -32 1 -34q2 -4 7 -4t7 4zM120 -47q1 2 1 54t-1 54q-2 4 -7 4t-7 -4q-1 -2 -1 -54t1 -54q2 -4 7 -4t7 4z" />
    <glyph glyph-name="uni2089" unicode="&#x2089;" horiz-adv-x="226" 
d="M209 231q6 -13 7.5 -36t1.5 -121q0 -93 -1.5 -115.5t-9.5 -40.5q-21 -44 -95 -44q-52 0 -78 26q-19 19 -19 92h90q0 -31 1 -33q2 -4 7 -4t7 4q1 2 1 63q-18 -12 -49 -12q-44 0 -58 30q-6 14 -6 92q0 56 1.5 70.5t7.5 28.5q20 43 95 43q77 0 97 -43zM113 79q5 0 7 4
q1 2 1 56q0 48 -1 50q-2 4 -7 4t-7 -4q-1 -2 -1 -50q0 -54 1 -56q2 -4 7 -4z" />
    <glyph glyph-name="uni208A" unicode="&#x208a;" horiz-adv-x="213" 
d="M201 113v-78h-56v-51h-77v51h-56v78h56v53h78v-53h55z" />
    <glyph glyph-name="uni208B" unicode="&#x208b;" horiz-adv-x="213" 
d="M12 35v78h189v-78h-189z" />
    <glyph glyph-name="uni208C" unicode="&#x208c;" horiz-adv-x="193" 
d="M12 87v64h169v-64h-169zM12 -4v64h169v-64h-169z" />
    <glyph glyph-name="uni208D" unicode="&#x208d;" horiz-adv-x="132" 
d="M54 -178q-24 66 -34 120.5t-10 131.5q0 78 10 132t34 120h77q-24 -117 -24 -252q0 -133 24 -252h-77z" />
    <glyph glyph-name="uni208E" unicode="&#x208e;" horiz-adv-x="132" 
d="M78 -178h-77q24 119 24 252q0 135 -24 252h77q24 -66 34 -120t10 -132q0 -77 -10 -131.5t-34 -120.5z" />
    <glyph glyph-name="uni2099" unicode="&#x2099;" horiz-adv-x="213" 
d="M156 188q50 0 50 -59v-317h-92v286q0 11 -7 11q-8 0 -8 -11v-286h-92v372h92v-24q23 28 57 28z" />
    <glyph glyph-name="Euro" unicode="&#x20ac;" horiz-adv-x="337" 
d="M186 117q4 3 4 99h140q0 -77 -10 -123t-37 -71q-35 -32 -104 -32q-100 0 -134 75q-11 26 -14 64t-3 157h-20v58h20v9v19h-20v58h20q0 113 3 149.5t14 61.5q34 75 134 75q67 0 105 -34q30 -28 38 -66t8 -126h-140q0 95 -4 99q-2 2 -7 2q-9 0 -10 -7q-1 -3 -1 -154h97v-58
h-97v-19v-9h97v-58h-97q0 -160 1 -164q1 -7 10 -7q5 0 7 2z" />
    <glyph glyph-name="uni20B9" unicode="&#x20b9;" horiz-adv-x="210" 
d="M206 706v-68h-33l1 -1v-1q11 -22 11 -109h20v-68h-20q0 -106 -11 -129q-9 -20 -26 -32l50 -298h-140l-46 387h15q9 0 13 6q3 5 3 66h-33v68h33q0 56 -3 61q-4 6 -13 6h-16v112h195z" />
    <glyph glyph-name="uni20BA" unicode="&#x20ba;" horiz-adv-x="337" 
d="M192 316h140q0 -141 -2.5 -178t-14.5 -63q-34 -75 -134 -75h-151v303l-22 -9v68l22 9v28l-22 -9v68l22 9v239h140v-187l96 41v-68l-96 -41v-28l96 41v-68l-96 -41v-225h11q9 0 10 7q1 4 1 179z" />
    <glyph glyph-name="uni20BC" unicode="&#x20bc;" horiz-adv-x="486" 
d="M457 561q11 -26 14 -55.5t3 -132.5v-373h-140v373q0 124 -1 128q-4 15 -20 15v-516h-140v516q-16 0 -20 -15q-1 -4 -1 -128v-373h-140v373q0 105 2.5 134.5t14.5 53.5q37 75 144 75v70h140v-70q111 0 144 -75z" />
    <glyph glyph-name="uni2113" unicode="&#x2113;" horiz-adv-x="342" 
d="M175 197q0 -43 17 -60.5t58 -17.5q30 0 57 10v-122q-38 -13 -87 -13q-180 0 -180 176v7q-10 -1 -30 -1v108h30v240q0 100 34.5 146t111.5 46q81 0 113.5 -51t32.5 -166q0 -128 -36.5 -200t-120.5 -101v-1zM184 608q-9 0 -9 -46v-225q22 41 22 162q0 39 -0.5 60.5
t-2.5 32.5t-4 13.5t-6 2.5z" />
    <glyph glyph-name="uni2117" unicode="&#x2117;" horiz-adv-x="394" 
d="M197 -10q-123 0 -161 84q-12 27 -18 76.5t-7 88.5t-1 114q0 76 1 114.5t7 87.5t18 76q38 85 161 85q122 0 160 -82q13 -27 19 -77t7 -89t1 -115q0 -85 -1 -124t-7 -83t-18 -71q-39 -85 -161 -85zM197 38q86 0 115 64q9 20 13.5 60t5 76t0.5 115q0 209 -21 255
q-28 60 -113 60q-87 0 -115 -63q-19 -41 -19 -252q0 -77 0.5 -113.5t5 -78t13.5 -61.5q15 -33 42 -47.5t73 -14.5zM91 106v494h130q61 0 76 -35q8 -18 8 -104q0 -87 -8 -105q-16 -34 -76 -34h-30v-216h-100zM191 404h4q6 0 8 4t2 53t-2 53q-3 4 -8 4h-4v-114z" />
    <glyph glyph-name="trademark" unicode="&#x2122;" horiz-adv-x="428" 
d="M29 396v227h-27v83h144v-83h-27v-227h-90zM155 396v310h113l20 -179l20 179h113v-310h-82v167l-22 -167h-58l-22 167v-167h-82z" />
    <glyph glyph-name="uni2126" unicode="&#x2126;" horiz-adv-x="322" 
d="M246 145v-22h62v-123h-141v254q3 1 4 4t1 146q0 196 -2 201q-2 4 -9 4t-9 -4q-2 -5 -2 -201q0 -143 1 -146t4 -4v-254h-141v123h62v22q-37 18 -54 51q-9 20 -10.5 47t-1.5 161q0 159 2 193t13 58q27 61 136 61t136 -61q11 -24 13 -58t2 -193q0 -134 -1.5 -161t-10.5 -47
q-17 -33 -54 -51z" />
    <glyph glyph-name="estimated" unicode="&#x212e;" horiz-adv-x="830" 
d="M415 -11q-100 0 -186 42.5t-139.5 121.5t-53.5 177q0 145 110.5 243t268.5 98q156 0 267 -99.5t111 -247.5h-608q-10 0 -10 -11v-197q47 -51 110 -78.5t130 -27.5q73 0 139 32.5t113 88.5h57q-56 -68 -138 -105t-171 -37zM185 347h461q9 0 9 11v184q-44 51 -108 79.5
t-132 28.5q-70 0 -133 -28.5t-107 -78.5v-185q0 -11 10 -11z" />
    <glyph glyph-name="partialdiff" unicode="&#x2202;" horiz-adv-x="313" 
d="M286 647q11 -24 13.5 -67.5t2.5 -226.5t-2.5 -226.5t-13.5 -67.5q-32 -69 -132 -69q-102 0 -130 65q-10 23 -12 50t-2 140q0 112 1.5 137.5t8.5 42.5q18 41 78 41q46 0 69 -24q0 135 -1 139q-2 7 -10 7q-5 0 -8 -4t-3 -54h-130q0 113 35 150q36 36 104 36q100 0 132 -69z
M166 124q1 4 1 109q0 109 -1 113q-2 7 -10 7t-10 -7q-1 -4 -1 -113q0 -105 1 -109q1 -7 10 -7t10 7z" />
    <glyph glyph-name="uni2206" unicode="&#x2206;" horiz-adv-x="334" 
d="M277 706l57 -706h-334l57 706h220zM144 124h46l-22 462h-2z" />
    <glyph glyph-name="product" unicode="&#x220f;" horiz-adv-x="326" 
d="M12 -150v856h302v-856h-140v733h-22v-733h-140z" />
    <glyph glyph-name="summation" unicode="&#x2211;" horiz-adv-x="223" 
d="M5 -150l64 457l-59 399h213v-130h-72l42 -269l-43 -327h73v-130h-218z" />
    <glyph glyph-name="minus" unicode="&#x2212;" horiz-adv-x="312" 
d="M20 267v100h272v-100h-272z" />
    <glyph glyph-name="uni2215" unicode="&#x2215;" horiz-adv-x="312" 
d="M31 0l144 706h105l-144 -706h-105z" />
    <glyph glyph-name="uni2219" unicode="&#x2219;" horiz-adv-x="312" 
d="M156 244q-33 0 -53.5 19.5t-20.5 53.5q0 35 20.5 54.5t53.5 19.5t53.5 -19.5t20.5 -54.5q0 -34 -20.5 -53.5t-53.5 -19.5z" />
    <glyph glyph-name="radical" unicode="&#x221a;" horiz-adv-x="336" 
d="M194 706h142l-75 -855h-185l-30 412l-36 -5v119l140 19l21 -432z" />
    <glyph glyph-name="infinity" unicode="&#x221e;" horiz-adv-x="486" 
d="M463 449q9 -21 11 -46t2 -133t-2 -133t-11 -46q-30 -67 -122 -67q-72 0 -98 50q-26 -50 -98 -50q-92 0 -122 67q-9 21 -11 46t-2 133t2 133t11 46q30 67 122 67q72 0 98 -50q26 50 98 50q92 0 122 -67zM155 142q5 0 7 3t4.5 17t4 37.5l4.5 70.5l-4.5 70.5t-4 37.5
t-4.5 17t-7 3q-7 0 -9 -6q-1 -4 -1 -122t1 -122q2 -6 9 -6zM340 148q1 4 1 122t-1 122q-2 6 -9 6q-5 0 -7 -3t-4.5 -17t-4 -37.5l-4.5 -70.5l4.5 -70.5t4 -37.5t4.5 -17t7 -3q7 0 9 6z" />
    <glyph glyph-name="integral" unicode="&#x222b;" horiz-adv-x="261" 
d="M54 -154q-30 0 -54 4l21 118q6 -2 11 -2q20 0 21 32l32 596q3 61 36 88t96 27q21 0 44 -3l-16 -118q-4 1 -10 1q-16 0 -17 -31l-32 -596q-3 -61 -36 -88.5t-96 -27.5z" />
    <glyph glyph-name="approxequal" unicode="&#x2248;" horiz-adv-x="312" 
d="M207 327q-38 0 -69 24q-12 10 -19 10q-11 0 -11 -33h-83q0 69 18.5 98t62.5 29q38 0 69 -24q12 -10 19 -10q11 0 11 33h83q0 -69 -18.5 -98t-62.5 -29zM207 179q-38 0 -69 24q-12 10 -19 10q-11 0 -11 -33h-83q0 69 18.5 98t62.5 29q38 0 69 -24q12 -10 19 -10
q11 0 11 33h83q0 -69 -18.5 -98t-62.5 -29z" />
    <glyph glyph-name="notequal" unicode="&#x2260;" horiz-adv-x="312" 
d="M292 345h-98l-23 -56h121v-100h-157l-34 -85h-54l34 85h-61v100h97l23 56h-120v100h156l35 85h54l-35 -85h62v-100z" />
    <glyph glyph-name="lessequal" unicode="&#x2264;" horiz-adv-x="312" 
d="M292 475v-100l-163 -18l163 -18v-100l-272 55v126zM20 124v100h272v-100h-272z" />
    <glyph glyph-name="greaterequal" unicode="&#x2265;" horiz-adv-x="312" 
d="M20 475l272 -55v-126l-272 -55v100l163 18l-163 18v100zM20 124v100h272v-100h-272z" />
    <glyph glyph-name="lozenge" unicode="&#x25ca;" horiz-adv-x="337" 
d="M95 -150l-90 428l90 428h148l89 -428l-89 -428h-148zM169 -15l34 293l-34 293l-34 -293z" />
    <glyph glyph-name="uniFB00" unicode="&#xfb00;" horiz-adv-x="464" 
d="M41 0v405h-36v135h36v48q0 67 35.5 95.5t108.5 28.5q26 0 42 -1v-118h-16q-20 0 -27.5 -9t-7.5 -27v-17h44v-135h-44v-405h-135zM273 0v405h-36v135h36v48q0 67 35.5 95.5t108.5 28.5q26 0 42 -1v-118h-16q-20 0 -27.5 -9t-7.5 -27v-17h44v-135h-44v-405h-135z" />
    <glyph glyph-name="fi" unicode="&#xfb01;" horiz-adv-x="387" 
d="M311 576q-32 0 -52.5 19t-20.5 52t20.5 51t52.5 18q31 0 51 -18t20 -51t-20 -52t-51 -19zM41 0v405h-36v135h36v48q0 67 35.5 95.5t108.5 28.5q26 0 42 -1v-118h-16q-20 0 -27.5 -9t-7.5 -27v-17h44v-135h-44v-405h-135zM242 0v540h135v-540h-135z" />
    <glyph glyph-name="fl" unicode="&#xfb02;" horiz-adv-x="387" 
d="M41 0v405h-36v135h36v48q0 67 35.5 95.5t108.5 28.5q26 0 42 -1v-118h-16q-20 0 -27.5 -9t-7.5 -27v-17h44v-135h-44v-405h-135zM242 0v706h135v-706h-135z" />
    <glyph glyph-name="uniFB03" unicode="&#xfb03;" horiz-adv-x="619" 
d="M543 576q-32 0 -52.5 19t-20.5 52t20.5 51t52.5 18q31 0 51 -18t20 -51t-20 -52t-51 -19zM41 0v405h-36v135h36v48q0 67 35.5 95.5t108.5 28.5q26 0 42 -1v-118h-16q-20 0 -27.5 -9t-7.5 -27v-17h44v-135h-44v-405h-135zM273 0v405h-36v135h36v48q0 67 35.5 95.5
t108.5 28.5q26 0 42 -1v-118h-16q-20 0 -27.5 -9t-7.5 -27v-17h44v-135h-44v-405h-135zM474 0v540h135v-540h-135z" />
    <glyph glyph-name="uniFB04" unicode="&#xfb04;" horiz-adv-x="619" 
d="M41 0v405h-36v135h36v48q0 67 35.5 95.5t108.5 28.5q26 0 42 -1v-118h-16q-20 0 -27.5 -9t-7.5 -27v-17h44v-135h-44v-405h-135zM273 0v405h-36v135h36v48q0 67 35.5 95.5t108.5 28.5q26 0 42 -1v-118h-16q-20 0 -27.5 -9t-7.5 -27v-17h44v-135h-44v-405h-135zM474 0v706
h135v-706h-135z" />
    <glyph glyph-name="uniFEFF" unicode="&#xfeff;" horiz-adv-x="0" 
 />
    <glyph glyph-name="uni00A40301" horiz-adv-x="188" 
d="M46 738l62 100h137l-80 -100h-119zM47 -1q-28 0 -43 1v130h11q23 0 23 30v546h140v-566q0 -73 -31.5 -107t-99.5 -34z" />
    <glyph glyph-name="M.ss01" horiz-adv-x="454" 
d="M12 0v706h156l59 -189l59 189h156v-706h-135v444l-35 -158h-90l-35 158v-444h-135z" />
    <glyph glyph-name="Q.ss02" horiz-adv-x="322" 
d="M295 65q-15 -33 -42 -51l52 -110l-109 -45l-55 132q-83 6 -114 74q-12 28 -14.5 72t-2.5 216t2.5 216t14.5 72q34 75 134 75t134 -75q12 -28 14.5 -72t2.5 -216t-2.5 -216t-14.5 -72zM151 584q-1 -4 -1 -231t1 -231q1 -7 10 -7t10 7q1 4 1 231t-1 231q-1 7 -10 7t-10 -7z
" />
    <glyph glyph-name="R.ss03" horiz-adv-x="325" 
d="M180 0l-24 312h-4v-312h-140v706h185q86 0 108 -50q7 -16 9 -39.5t2 -103.5q0 -85 -2 -110t-9 -41q-7 -17 -23 -30l38 -332h-140zM152 591v-172h6q9 0 13 6q3 6 3 86q0 68 -3 74q-4 6 -13 6h-6z" />
    <glyph glyph-name="Racute.ss03" horiz-adv-x="325" 
d="M290 838l-80 -100h-119l62 100h137zM180 0l-24 312h-4v-312h-140v706h185q86 0 108 -50q7 -16 9 -39.5t2 -103.5q0 -85 -2 -110t-9 -41q-7 -17 -23 -30l38 -332h-140zM152 591v-172h6q9 0 13 6q3 6 3 86q0 68 -3 74q-4 6 -13 6h-6z" />
    <glyph glyph-name="Rcaron.ss03" horiz-adv-x="325" 
d="M234 738h-154l-57 100h110l23 -42l23 42h109zM180 0l-24 312h-4v-312h-140v706h185q86 0 108 -50q7 -16 9 -39.5t2 -103.5q0 -85 -2 -110t-9 -41q-7 -17 -23 -30l38 -332h-140zM152 591v-172h6q9 0 13 6q3 6 3 86q0 68 -3 74q-4 6 -13 6h-6z" />
    <glyph glyph-name="uni0156.ss03" horiz-adv-x="325" 
d="M152 312v-312h-140v706h185q86 0 108 -50q7 -16 9 -39.5t2 -103.5q0 -85 -2 -110t-9 -41q-7 -17 -23 -30l38 -332h-140l-24 312h-4zM158 591h-6v-172h6q9 0 13 6q3 6 3 86q0 68 -3 74q-4 6 -13 6zM79 -150l17 116h134l-31 -116h-120z" />
    <glyph glyph-name="Oslash.ss04" horiz-adv-x="322" 
d="M289 654l6 -13q12 -28 14.5 -72t2.5 -216t-2.5 -216t-14.5 -72q-34 -75 -134 -75q-25 0 -42 4l-30 -64l-89 41l38 74q-7 10 -11 20q-12 28 -14.5 72t-2.5 216t2.5 216t14.5 72q34 75 134 75q23 0 48 -5l29 64l92 -38zM171 122q1 4 1 231t-1 231q-1 7 -10 7t-10 -7
q-1 -4 -1 -231t1 -231q1 -7 10 -7t10 7z" />
    <glyph glyph-name="i.loclTRK" horiz-adv-x="155" 
d="M79 576q-32 0 -52.5 19t-20.5 52t20.5 51t52.5 18q31 0 51 -18t20 -51t-20 -52t-51 -19zM10 0v540h135v-540h-135z" />
    <glyph glyph-name="uni006A0301" horiz-adv-x="155" 
d="M8 576l34 130h120l-52 -130h-102zM19 -152q-29 0 -45 2v118q7 -1 13 -1q13 0 18 7t5 24v542h135v-578q0 -61 -31.5 -87.5t-94.5 -26.5z" />
    <glyph glyph-name="oslash.ss04" 
d="M276 498q4 -6 10 -18q10 -22 12 -54.5t2 -155.5t-2 -155.5t-12 -54.5q-30 -66 -131 -66q-16 0 -23 1l-27 -59l-100 41l30 64q-8 12 -11 19q-10 22 -12 54.5t-2 155.5t2 155.5t12 54.5q30 66 131 66q17 0 24 -1l28 61l100 -41zM164 110q1 4 1 160t-1 160q-2 6 -9 6t-9 -6
q-1 -4 -1 -160t1 -160q2 -6 9 -6t9 6z" />
    <glyph glyph-name="r.ss05" horiz-adv-x="283" 
d="M10 0v540h135v-43q21 48 70 48q28 0 47 -18t19 -50q0 -33 -20 -52t-51 -19q-26 0 -46 13q-11 -5 -15 -17t-4 -40v-362h-135z" />
    <glyph glyph-name="racute.ss05" horiz-adv-x="283" 
d="M73 576l34 130h120l-52 -130h-102zM10 0v540h135v-43q21 48 70 48q28 0 47 -18t19 -50q0 -33 -20 -52t-51 -19q-26 0 -46 13q-11 -5 -15 -17t-4 -40v-362h-135z" />
    <glyph glyph-name="rcaron.ss05" horiz-adv-x="283" 
d="M55 706h72l15 -62l14 62h72l-24 -130h-124zM10 0v540h135v-43q21 48 70 48q28 0 47 -18t19 -50q0 -33 -20 -52t-51 -19q-26 0 -46 13q-11 -5 -15 -17t-4 -40v-362h-135z" />
    <glyph glyph-name="uni0157.ss05" horiz-adv-x="283" 
d="M10 0v540h135v-43q21 48 70 48q28 0 47 -18t19 -50q0 -33 -20 -52t-51 -19q-26 0 -46 13q-11 -5 -15 -17t-4 -40v-362h-135zM-9 -150l17 116h134l-31 -116h-120z" />
    <glyph glyph-name="f_i" horiz-adv-x="387" 
d="M311 576q-32 0 -52.5 19t-20.5 52t20.5 51t52.5 18q31 0 51 -18t20 -51t-20 -52t-51 -19zM41 0v405h-36v135h36v48q0 67 35.5 95.5t108.5 28.5q26 0 42 -1v-118h-16q-20 0 -27.5 -9t-7.5 -27v-17h44v-135h-44v-405h-135zM242 0v540h135v-540h-135z" />
    <glyph glyph-name="f_l" horiz-adv-x="387" 
d="M41 0v405h-36v135h36v48q0 67 35.5 95.5t108.5 28.5q26 0 42 -1v-118h-16q-20 0 -27.5 -9t-7.5 -27v-17h44v-135h-44v-405h-135zM242 0v706h135v-706h-135z" />
    <glyph glyph-name="zero.tf" horiz-adv-x="314" 
d="M157 -10q-95 0 -129 75q-12 26 -14.5 69.5t-2.5 218.5t2.5 218.5t14.5 69.5q34 75 129 75t129 -75q12 -26 14.5 -69.5t2.5 -218.5t-2.5 -218.5t-14.5 -69.5q-34 -75 -129 -75zM157 117q9 0 10 7q1 4 1 229q0 224 -1 228q-1 7 -10 7t-10 -7q-1 -4 -1 -228q0 -225 1 -229
q1 -7 10 -7z" />
    <glyph glyph-name="one.tf" horiz-adv-x="314" 
d="M101 0v572h-73l17 134h196v-706h-140z" />
    <glyph glyph-name="two.tf" horiz-adv-x="314" 
d="M26 0v2l112 377q18 59 22.5 82.5t4.5 62.5q0 53 -1 57q-2 8 -10 8t-10 -8q-1 -4 -1 -91h-130q0 88 2 114.5t12 50.5q28 61 128 61q101 0 132 -69q14 -30 14 -96q0 -83 -32 -195l-63 -226h93v-130h-273z" />
    <glyph glyph-name="three.tf" horiz-adv-x="314" 
d="M257 378q27 -11 36 -32q10 -22 10 -117q0 -100 -2 -126t-11 -46q-30 -67 -137 -67q-98 0 -129 65q-9 20 -11 47t-2 114h135q0 -89 1 -92q2 -7 10 -7t10 7q1 4 1 99q0 65 -4 74q-7 16 -40 16h-18v121h20q31 0 38 16q4 9 4 66q0 61 -1 65q-2 7 -10 7t-10 -7q-1 -4 -1 -91
h-135q0 74 2.5 106t12.5 55q29 65 130 65q105 0 134 -67q9 -20 11 -41.5t2 -96.5q0 -80 -9 -100q-10 -22 -37 -33z" />
    <glyph glyph-name="four.tf" horiz-adv-x="314" 
d="M309 268v-138h-25v-130h-122v130h-162v1l56 575h228v-438h25zM132 268h30v371h-2z" />
    <glyph glyph-name="five.tf" horiz-adv-x="314" 
d="M155 -10q-98 0 -128 64q-9 19 -11.5 50.5t-2.5 111.5h130q0 -95 2 -99q3 -5 9 -5t9 5q2 4 2 117q0 110 -7 125q-7 17 -46 17q-31 0 -89 -8l26 338h248l-18 -134h-114l-9 -94q20 3 38 3q71 0 94 -50q8 -17 10 -47.5t2 -132.5q0 -116 -2 -146.5t-11 -51.5q-29 -63 -132 -63
z" />
    <glyph glyph-name="six.tf" horiz-adv-x="314" 
d="M293 425q7 -17 8.5 -42.5t1.5 -137.5q0 -113 -2 -140t-12 -50q-28 -65 -130 -65q-97 0 -131 75q-12 28 -14.5 72t-2.5 216t2.5 216t14.5 72q34 75 131 75q68 0 104 -36q24 -25 29.5 -66.5t5.5 -123.5h-130q0 90 -3 94t-8 4q-8 0 -10 -7q-1 -4 -1 -139q23 24 69 24
q60 0 78 -41zM167 124q1 4 1 109q0 109 -1 113q-2 7 -10 7t-10 -7q-1 -4 -1 -113q0 -105 1 -109q1 -7 10 -7t10 7z" />
    <glyph glyph-name="seven.tf" horiz-adv-x="314" 
d="M63 0l91 572h-149v134h300l-98 -706h-144z" />
    <glyph glyph-name="eight.tf" horiz-adv-x="314" 
d="M252 406q32 -14 41 -35q7 -16 8.5 -42.5t1.5 -115.5q0 -93 -1.5 -117.5t-8.5 -40.5q-30 -65 -136 -65t-136 65q-7 16 -8.5 40.5t-1.5 117.5q0 89 1.5 115.5t8.5 42.5q9 21 41 35q-32 16 -42 39q-9 20 -9 105q0 77 12 102q30 64 134 64t134 -64q12 -25 12 -102
q0 -85 -9 -105q-10 -23 -42 -39zM166 451q2 4 2 71q0 66 -2 70q-2 5 -9 5t-9 -5q-2 -4 -2 -70q0 -67 2 -71q2 -5 9 -5t9 5zM166 122q2 4 2 108q0 103 -2 107q-2 5 -9 5t-9 -5q-2 -4 -2 -107q0 -104 2 -108q2 -5 9 -5t9 5z" />
    <glyph glyph-name="nine.tf" horiz-adv-x="314" 
d="M286 641q12 -28 14.5 -72t2.5 -216t-2.5 -216t-14.5 -72q-34 -75 -131 -75q-68 0 -104 36q-24 25 -29.5 66.5t-5.5 123.5h130q0 -90 3 -94t8 -4q8 0 10 7q1 4 1 139q-23 -24 -69 -24q-60 0 -78 41q-7 17 -8.5 42.5t-1.5 137.5q0 113 2 140t12 50q28 65 130 65
q97 0 131 -75zM167 360q1 4 1 113q0 105 -1 109q-1 7 -10 7t-10 -7q-1 -4 -1 -109q0 -109 1 -113q2 -7 10 -7t10 7z" />
    <glyph glyph-name="zero.dnom" horiz-adv-x="234" 
d="M117 -6q-77 0 -99 48q-9 20 -9 152t9 152q22 48 99 48t99 -48q9 -20 9 -152t-9 -152q-22 -48 -99 -48zM117 75q5 0 7 5q1 4 1 114t-1 114q-2 5 -7 5t-7 -5q-1 -4 -1 -114t1 -114q2 -5 7 -5z" />
    <glyph glyph-name="one.dnom" horiz-adv-x="151" 
d="M40 0v305h-40l10 83h130v-388h-100z" />
    <glyph glyph-name="two.dnom" horiz-adv-x="212" 
d="M6 0v2l86 198q18 40 18 72q0 35 -1 37q-2 4 -7 4t-7 -4q-1 -2 -1 -33h-90q0 60 9 78q19 40 89 40q77 0 97 -43q9 -21 9 -48q0 -65 -23 -118l-43 -101h59v-84h-195z" />
    <glyph glyph-name="three.dnom" horiz-adv-x="215" 
d="M172 213q23 -6 29 -20q6 -13 6 -66q0 -73 -9 -92q-19 -41 -97 -41q-70 0 -89 41q-8 17 -8 94h90q0 -48 1 -50q2 -4 7 -4t7 4q1 2 1 44q0 34 -3 40q-5 9 -25 9h-10v77h11q19 0 24 9q3 6 3 25q0 24 -1 26q-2 4 -7 4t-7 -4q-1 -2 -1 -33h-90q0 55 7 74q12 26 33.5 35t56.5 9
q79 0 99 -44q7 -15 7 -70q0 -34 -5 -45q-7 -16 -30 -22z" />
    <glyph glyph-name="four.dnom" horiz-adv-x="252" 
d="M132 0v60h-133v2l56 326h170v-235h23v-93h-23v-60h-93zM103 153h29v197z" />
    <glyph glyph-name="five.dnom" horiz-adv-x="215" 
d="M103 -6q-72 0 -91 41q-8 17 -8 94h90q0 -48 1 -50q2 -4 7 -4t7 4q1 2 1 50q0 49 -4 58q-5 12 -38 12q-19 0 -61 -4l14 193h182l-8 -83h-88l-3 -41q16 2 31 2q51 0 64 -30q8 -18 8 -97q0 -87 -8 -104q-18 -41 -96 -41z" />
    <glyph glyph-name="six.dnom" horiz-adv-x="226" 
d="M212 228q6 -14 6 -92q0 -56 -1.5 -70.5t-7.5 -28.5q-20 -43 -95 -43q-77 0 -97 43q-6 13 -7.5 36t-1.5 121q0 93 1.5 115.5t9.5 40.5q21 44 95 44q52 0 78 -26q19 -19 19 -92h-90q0 31 -1 33q-2 4 -7 4t-7 -4q-1 -2 -1 -63q18 12 49 12q44 0 58 -30zM120 79q1 2 1 50
q0 54 -1 56q-2 4 -7 4t-7 -4q-1 -2 -1 -56q0 -48 1 -50q2 -4 7 -4t7 4z" />
    <glyph glyph-name="seven.dnom" horiz-adv-x="177" 
d="M10 0l61 305h-67v83h177l-70 -388h-101z" />
    <glyph glyph-name="eight.dnom" horiz-adv-x="226" 
d="M179 224q21 -10 31 -29q8 -17 8 -77q0 -61 -8 -79q-21 -45 -97 -45q-77 0 -98 46q-7 15 -7 78q0 65 7 79q8 16 32 27q-26 10 -34 28q-5 10 -5 51q0 29 8 47q20 44 97 44t97 -44q8 -18 8 -47q0 -35 -7 -50q-10 -20 -32 -29zM120 253q1 2 1 34q0 30 -1 32q-2 4 -7 4t-7 -4
q-1 -2 -1 -32q0 -32 1 -34q2 -4 7 -4t7 4zM120 73q1 2 1 54t-1 54q-2 4 -7 4t-7 -4q-1 -2 -1 -54t1 -54q2 -4 7 -4t7 4z" />
    <glyph glyph-name="nine.dnom" horiz-adv-x="226" 
d="M209 351q6 -13 7.5 -36t1.5 -121q0 -93 -1.5 -115.5t-9.5 -40.5q-21 -44 -95 -44q-52 0 -78 26q-19 19 -19 92h90q0 -31 1 -33q2 -4 7 -4t7 4q1 2 1 63q-18 -12 -49 -12q-44 0 -58 30q-6 14 -6 92q0 56 1.5 70.5t7.5 28.5q20 43 95 43q77 0 97 -43zM113 199q5 0 7 4
q1 2 1 56q0 48 -1 50q-2 4 -7 4t-7 -4q-1 -2 -1 -50q0 -54 1 -56q2 -4 7 -4z" />
    <glyph glyph-name="zero.numr" horiz-adv-x="234" 
d="M117 312q-77 0 -99 48q-9 20 -9 152t9 152q22 48 99 48t99 -48q9 -20 9 -152t-9 -152q-22 -48 -99 -48zM117 393q5 0 7 5q1 4 1 114t-1 114q-2 5 -7 5t-7 -5q-1 -4 -1 -114t1 -114q2 -5 7 -5z" />
    <glyph glyph-name="one.numr" horiz-adv-x="151" 
d="M40 318v305h-40l10 83h130v-388h-100z" />
    <glyph glyph-name="two.numr" horiz-adv-x="212" 
d="M6 318v2l86 198q18 40 18 72q0 35 -1 37q-2 4 -7 4t-7 -4q-1 -2 -1 -33h-90q0 60 9 78q19 40 89 40q77 0 97 -43q9 -21 9 -48q0 -65 -23 -118l-43 -101h59v-84h-195z" />
    <glyph glyph-name="three.numr" horiz-adv-x="215" 
d="M172 531q23 -6 29 -20q6 -13 6 -66q0 -73 -9 -92q-19 -41 -97 -41q-70 0 -89 41q-8 17 -8 94h90q0 -48 1 -50q2 -4 7 -4t7 4q1 2 1 44q0 34 -3 40q-5 9 -25 9h-10v77h11q19 0 24 9q3 6 3 25q0 24 -1 26q-2 4 -7 4t-7 -4q-1 -2 -1 -33h-90q0 55 7 74q12 26 33.5 35t56.5 9
q79 0 99 -44q7 -15 7 -70q0 -34 -5 -45q-7 -16 -30 -22z" />
    <glyph glyph-name="four.numr" horiz-adv-x="252" 
d="M132 318v60h-133v2l56 326h170v-235h23v-93h-23v-60h-93zM103 471h29v197z" />
    <glyph glyph-name="five.numr" horiz-adv-x="215" 
d="M103 312q-72 0 -91 41q-8 17 -8 94h90q0 -48 1 -50q2 -4 7 -4t7 4q1 2 1 50q0 49 -4 58q-5 12 -38 12q-19 0 -61 -4l14 193h182l-8 -83h-88l-3 -41q16 2 31 2q51 0 64 -30q8 -18 8 -97q0 -87 -8 -104q-18 -41 -96 -41z" />
    <glyph glyph-name="six.numr" horiz-adv-x="226" 
d="M212 546q6 -14 6 -92q0 -56 -1.5 -70.5t-7.5 -28.5q-20 -43 -95 -43q-77 0 -97 43q-6 13 -7.5 36t-1.5 121q0 93 1.5 115.5t9.5 40.5q21 44 95 44q52 0 78 -26q19 -19 19 -92h-90q0 31 -1 33q-2 4 -7 4t-7 -4q-1 -2 -1 -63q18 12 49 12q44 0 58 -30zM120 397q1 2 1 50
q0 54 -1 56q-2 4 -7 4t-7 -4q-1 -2 -1 -56q0 -48 1 -50q2 -4 7 -4t7 4z" />
    <glyph glyph-name="seven.numr" horiz-adv-x="177" 
d="M10 318l61 305h-67v83h177l-70 -388h-101z" />
    <glyph glyph-name="eight.numr" horiz-adv-x="226" 
d="M179 542q21 -10 31 -29q8 -17 8 -77q0 -61 -8 -79q-21 -45 -97 -45q-77 0 -98 46q-7 15 -7 78q0 65 7 79q8 16 32 27q-26 10 -34 28q-5 10 -5 51q0 29 8 47q20 44 97 44t97 -44q8 -18 8 -47q0 -35 -7 -50q-10 -20 -32 -29zM120 571q1 2 1 34q0 30 -1 32q-2 4 -7 4t-7 -4
q-1 -2 -1 -32q0 -32 1 -34q2 -4 7 -4t7 4zM120 391q1 2 1 54t-1 54q-2 4 -7 4t-7 -4q-1 -2 -1 -54t1 -54q2 -4 7 -4t7 4z" />
    <glyph glyph-name="nine.numr" horiz-adv-x="226" 
d="M209 669q6 -13 7.5 -36t1.5 -121q0 -93 -1.5 -115.5t-9.5 -40.5q-21 -44 -95 -44q-52 0 -78 26q-19 19 -19 92h90q0 -31 1 -33q2 -4 7 -4t7 4q1 2 1 63q-18 -12 -49 -12q-44 0 -58 30q-6 14 -6 92q0 56 1.5 70.5t7.5 28.5q20 43 95 43q77 0 97 -43zM113 517q5 0 7 4
q1 2 1 56q0 48 -1 50q-2 4 -7 4t-7 -4q-1 -2 -1 -50q0 -54 1 -56q2 -4 7 -4z" />
    <glyph glyph-name="colon.case" horiz-adv-x="208" 
d="M104 459q-33 0 -53.5 19.5t-20.5 53.5q0 35 20.5 54.5t53.5 19.5t53.5 -19.5t20.5 -54.5q0 -34 -20.5 -53.5t-53.5 -19.5zM104 100q-33 0 -53.5 19.5t-20.5 53.5q0 35 20.5 54.5t53.5 19.5t53.5 -19.5t20.5 -54.5q0 -34 -20.5 -53.5t-53.5 -19.5z" />
    <glyph glyph-name="semicolon.case" horiz-adv-x="205" 
d="M101 459q-33 0 -53.5 19.5t-20.5 53.5q0 35 20.5 54.5t53.5 19.5t53.5 -19.5t20.5 -54.5q0 -34 -20.5 -53.5t-53.5 -19.5zM18 -44l29 312h120l-49 -312h-100z" />
    <glyph glyph-name="exclamdown.case" horiz-adv-x="208" 
d="M104 708q33 0 53.5 -19.5t20.5 -53.5q0 -35 -20.5 -54.5t-53.5 -19.5t-53.5 19.5t-20.5 54.5q0 34 20.5 53.5t53.5 19.5zM161 507l13 -511h-140l13 511h114z" />
    <glyph glyph-name="questiondown.case" horiz-adv-x="348" 
d="M183 713q33 0 53.5 -19.5t20.5 -53.5q0 -35 -20.5 -54.5t-53.5 -19.5t-53.5 19.5t-20.5 54.5q0 34 20.5 53.5t53.5 19.5zM251 512q-64 -226 -77.5 -281t-13.5 -93q0 -25 14 -25q9 0 12 9q2 7 2 76h140q0 -70 -2 -91t-11 -42q-33 -74 -142 -74q-72 0 -112.5 37.5
t-40.5 103.5q0 31 12 81.5t76 298.5h143z" />
    <glyph glyph-name="periodcentered.case" horiz-adv-x="208" 
d="M104 299q-33 0 -53.5 19.5t-20.5 53.5q0 35 20.5 54.5t53.5 19.5t53.5 -19.5t20.5 -54.5q0 -34 -20.5 -53.5t-53.5 -19.5z" />
    <glyph glyph-name="periodcentered.loclCAT.case" horiz-adv-x="114" 
d="M37 324q-33 0 -53.5 19.5t-20.5 53.5q0 35 20.5 54.5t53.5 19.5t53.5 -19.5t20.5 -54.5q0 -34 -20.5 -53.5t-53.5 -19.5z" />
    <glyph glyph-name="slash.case" horiz-adv-x="296" 
d="M10 -50l160 806h124l-160 -806h-124z" />
    <glyph glyph-name="periodcentered.loclCAT" horiz-adv-x="158" 
d="M79 295q-33 0 -53.5 19.5t-20.5 53.5q0 35 20.5 54.5t53.5 19.5t53.5 -19.5t20.5 -54.5q0 -34 -20.5 -53.5t-53.5 -19.5z" />
    <glyph glyph-name="parenleft.case" horiz-adv-x="193" 
d="M87 -113q-40 109 -55.5 213t-15.5 253t16 253.5t56 213.5h103q-51 -213 -51 -467q0 -253 51 -466h-104z" />
    <glyph glyph-name="parenright.case" horiz-adv-x="193" 
d="M106 -113h-104q51 213 51 466q0 254 -51 467h103q40 -109 56 -213.5t16 -253.5t-15.5 -253t-55.5 -213z" />
    <glyph glyph-name="braceleft.case" horiz-adv-x="195" 
d="M155 448q0 -44 -11.5 -66.5t-44.5 -28.5q33 -6 44.5 -28.5t11.5 -66.5v-216q0 -26 5 -34t20 -8h5v-106h-20q-70 0 -97.5 27.5t-27.5 101.5v227q0 21 -6 28t-24 7v136q18 0 24 7t6 28v227q0 74 27.5 101.5t97.5 27.5h20v-106h-5q-15 0 -20 -8t-5 -34v-216z" />
    <glyph glyph-name="braceright.case" horiz-adv-x="195" 
d="M155 456q0 -21 6 -28t24 -7v-136q-18 0 -24 -7t-6 -28v-227q0 -74 -27.5 -101.5t-97.5 -27.5h-20v106h5q15 0 20 8t5 34v216q0 44 11.5 66.5t44.5 28.5q-33 6 -44.5 28.5t-11.5 66.5v216q0 26 -5 34t-20 8h-5v106h20q70 0 97.5 -27.5t27.5 -101.5v-227z" />
    <glyph glyph-name="bracketleft.case" horiz-adv-x="182" 
d="M20 -114v934h152v-114h-30v-706h30v-114h-152z" />
    <glyph glyph-name="bracketright.case" horiz-adv-x="182" 
d="M162 -114h-152v114h30v706h-30v114h152v-934z" />
    <glyph glyph-name="hyphen.case" horiz-adv-x="202" 
d="M20 310v124h162v-124h-162z" />
    <glyph glyph-name="uni00AD.case" horiz-adv-x="202" 
d="M20 310v124h162v-124h-162z" />
    <glyph glyph-name="endash.case" horiz-adv-x="250" 
d="M20 312v120h210v-120h-210z" />
    <glyph glyph-name="emdash.case" horiz-adv-x="500" 
d="M20 312v120h460v-120h-460z" />
    <glyph glyph-name="guillemotleft.case" horiz-adv-x="300" 
d="M56 205l-51 162l51 162h109l-51 -162l51 -162h-109zM186 205l-51 162l51 162h109l-51 -162l51 -162h-109z" />
    <glyph glyph-name="guillemotright.case" horiz-adv-x="300" 
d="M114 205h-109l51 162l-51 162h109l51 -162zM244 205h-109l51 162l-51 162h109l51 -162z" />
    <glyph glyph-name="guilsinglleft.case" horiz-adv-x="170" 
d="M56 205l-51 162l51 162h109l-51 -162l51 -162h-109z" />
    <glyph glyph-name="guilsinglright.case" horiz-adv-x="170" 
d="M114 205h-109l51 162l-51 162h109l51 -162z" />
    <glyph glyph-name="cent.ss06" 
d="M162 189q3 3 3 110h135q0 -101 -5.5 -134t-31.5 -57q-21 -19 -58 -27v-81h-100v82q-58 12 -81 61q-10 22 -12 54.5t-2 155.5t2 155.5t12 54.5q23 49 81 61v82h100v-81q37 -8 58 -27q26 -24 31.5 -54.5t5.5 -117.5h-135q0 88 -3 91q-2 2 -7 2q-7 0 -9 -6q-1 -4 -1 -160
t1 -160q2 -6 9 -6q5 0 7 2z" />
    <glyph glyph-name="dollar.ss06" horiz-adv-x="316" 
d="M203 420q70 -42 89 -85q11 -25 13.5 -51.5t2.5 -99.5q0 -62 -2 -83.5t-12 -43.5q-23 -50 -86 -63v-78h-100v78q-65 12 -88 61q-9 20 -11 43.5t-2 117.5h139q0 -90 1 -94q1 -7 10 -7t10 7q1 4 1 62q0 54 -8 72q-9 20 -48 44q-70 44 -88 84q-11 24 -13.5 52t-2.5 96
q0 55 2 75t12 42q23 50 86 63v78h100v-78q65 -12 88 -61q9 -20 11 -43.5t2 -117.5h-139q0 90 -1 94q-1 7 -10 7t-10 -7q-1 -4 -1 -52q0 -51 8 -69q9 -20 47 -43z" />
    <glyph glyph-name="paragraph.ss07" horiz-adv-x="407" 
d="M148 -150v420h-24q-86 0 -108 50q-8 18 -9.5 44.5t-1.5 123.5q0 96 1.5 123t9.5 45q13 27 37.5 38.5t70.5 11.5h279v-115h-25v-741h-105v741h-20v-741h-105zM141 385h7v206h-7q-9 0 -13 -6q-3 -8 -3 -97q0 -90 3 -97q4 -6 13 -6z" />
    <glyph glyph-name="caroncomb.alt" horiz-adv-x="0" 
d="M-99 559l11 147h88l-25 -147h-74z" />
    <glyph glyph-name="uni0335.Eth" horiz-adv-x="0" 
d="M-176 312v128h176v-128h-176z" />
    <glyph glyph-name="uni0335.Tbar" horiz-adv-x="0" 
d="M-263 312v128h213v-128h-213z" />
    <glyph glyph-name="caron.alt" horiz-adv-x="199" 
d="M50 559l11 147h88l-25 -147h-74z" />
    <glyph glyph-name="uni0308.case" horiz-adv-x="0" 
d="M-250 733q-28 0 -45 16.5t-17 45.5q0 28 17.5 43.5t44.5 15.5t43.5 -15.5t16.5 -43.5q0 -29 -16.5 -45.5t-43.5 -16.5zM-110 733q-28 0 -45 16.5t-17 45.5q0 28 17.5 43.5t44.5 15.5t43.5 -15.5t16.5 -43.5q0 -29 -16.5 -45.5t-43.5 -16.5z" />
    <glyph glyph-name="uni0307.case" horiz-adv-x="0" 
d="M-116 730q-29 0 -48.5 17.5t-19.5 48.5t19 47.5t49 16.5q29 0 47.5 -16.5t18.5 -47.5t-18.5 -48.5t-47.5 -17.5z" />
    <glyph glyph-name="gravecomb.case" horiz-adv-x="0" 
d="M-50 738h-119l-80 100h137z" />
    <glyph glyph-name="acutecomb.case" horiz-adv-x="0" 
d="M-249 738l62 100h137l-80 -100h-119z" />
    <glyph glyph-name="uni030B.case" horiz-adv-x="0" 
d="M-340 738l43 100h113l-61 -100h-95zM-210 738l43 100h117l-61 -100h-99z" />
    <glyph glyph-name="uni0302.case" horiz-adv-x="0" 
d="M-315 738l54 100h154l57 -100h-110l-23 42l-23 -42h-109z" />
    <glyph glyph-name="uni030C.case" horiz-adv-x="0" 
d="M-50 838l-54 -100h-154l-57 100h110l23 -42l23 42h109z" />
    <glyph glyph-name="uni0306.case" horiz-adv-x="0" 
d="M-172 732q-122 0 -122 106h94q0 -32 28 -32t28 32h94q0 -106 -122 -106z" />
    <glyph glyph-name="uni030A.case" horiz-adv-x="0" 
d="M-147 719q-42 0 -69.5 23t-27.5 62q0 40 27.5 63t69.5 23t69.5 -23t27.5 -63q0 -39 -27.5 -62t-69.5 -23zM-147 778q27 0 27 26q0 12 -7.5 19.5t-19.5 7.5q-26 0 -26 -27q0 -26 26 -26z" />
    <glyph glyph-name="tildecomb.case" horiz-adv-x="0" 
d="M-133 735q-22 0 -46 11q-20 9 -25 9q-13 0 -17 -17h-86q0 103 79 103q17 0 47 -13q18 -8 27 -8q14 0 18 18h86q0 -52 -19.5 -77.5t-63.5 -25.5z" />
    <glyph glyph-name="uni0304.case" horiz-adv-x="0" 
d="M-263 746v90h213v-90h-213z" />
    <glyph glyph-name="uni0337.case" horiz-adv-x="0" 
d="M-124 442l124 84v-138l-124 -84v22l-90 -58v138l90 58v-22z" />
    <glyph glyph-name="uni0338.case" horiz-adv-x="0" 
d="M-386 0l79 169l8 -18l156 423l7 -14l68 146h28l-83 -178l-9 19l-155 -427l-7 16l-64 -136h-28z" />
    <glyph glyph-name="uni0308.narrow.case" horiz-adv-x="0" 
d="M-236 731q-25 0 -41.5 16.5t-16.5 45.5q0 28 16 44t42 16t41.5 -15.5t15.5 -44.5t-16 -45.5t-41 -16.5zM-107 731q-25 0 -41.5 16.5t-16.5 45.5q0 28 16 44t42 16q25 0 41 -15.5t16 -44.5t-16 -45.5t-41 -16.5z" />
    <glyph glyph-name="uni0302.narrow.case" horiz-adv-x="0" 
d="M-307 738l53 100h150l54 -100h-109l-19 36l-20 -36h-109z" />
    <glyph glyph-name="uni0306.narrow.case" horiz-adv-x="0" 
d="M-154 733q-52 0 -78 25t-26 80h84q0 -33 20 -33t20 33h84q0 -56 -25.5 -80.5t-78.5 -24.5z" />
    <glyph glyph-name="tildecomb.narrow.case" horiz-adv-x="0" 
d="M-121 737q-23 0 -43 9q-18 9 -25 9q-13 0 -17 -17h-70q0 54 16.5 77.5t53.5 23.5q19 0 43 -10q22 -9 27 -9q13 0 17 18h69q0 -53 -16.5 -77t-54.5 -24z" />
    <glyph glyph-name="uni0304.narrow.case" horiz-adv-x="0" 
d="M-223 746v90h173v-90h-173z" />
    <glyph glyph-name="uni0335.dh" horiz-adv-x="0" 
d="M-258 292v90h258v-90h-258z" />
    <glyph glyph-name="uni0307.i" horiz-adv-x="0" 
d="M-121 576q-32 0 -52.5 19t-20.5 52t20.5 51t52.5 18q31 0 51 -18t20 -51t-20 -52t-51 -19z" />
    <glyph glyph-name="uni0308.narrow" horiz-adv-x="0" 
d="M-198 573q-48 0 -48 63q0 61 48 61q47 0 47 -61q0 -63 -47 -63zM-97 573q-48 0 -48 63q0 61 48 61q47 0 47 -61q0 -63 -47 -63z" />
    <glyph glyph-name="gravecomb.narrow" horiz-adv-x="0" 
d="M-50 576h-102l-52 130h120z" />
    <glyph glyph-name="acutecomb.narrow" horiz-adv-x="0" 
d="M-204 576l34 130h120l-52 -130h-102z" />
    <glyph glyph-name="uni0302.narrow" horiz-adv-x="0" 
d="M-223 576l25 130h124l24 -130h-72l-14 62l-15 -62h-72z" />
    <glyph glyph-name="uni030C.narrow" horiz-adv-x="0" 
d="M-223 706h72l15 -62l14 62h72l-24 -130h-124z" />
    <glyph glyph-name="uni0306.narrow" horiz-adv-x="0" 
d="M-134 572q-48 0 -66 30t-18 104h74q0 -52 10 -52q6 0 8 10t2 42h74q0 -74 -18 -104t-66 -30z" />
    <glyph glyph-name="tildecomb.narrow" horiz-adv-x="0" 
d="M-103 575q-30 0 -38 28q-4 13 -10 13q-8 0 -9 -40h-57q0 73 11 102t42 29q30 0 38 -28q4 -13 10 -13q8 0 9 40h57q0 -73 -11 -102t-42 -29z" />
    <glyph glyph-name="uni0304.narrow" horiz-adv-x="0" 
d="M-213 585v99h163v-99h-163z" />
    <glyph glyph-name="uni0328.narrow" horiz-adv-x="0" 
d="M-101 -160q-42 0 -68 21t-26 60q0 48 50 79h95q-24 -16 -34.5 -27.5t-10.5 -27.5q0 -23 22 -23q11 0 23 5v-77q-21 -10 -51 -10z" />
    <glyph glyph-name="uni0338.ss04" horiz-adv-x="0" 
d="M-81 398l-60 126l37 81l100 -41zM-206 -65l-100 41l82 178l59 -130z" />
    <glyph glyph-name="uni0338.case.ss04" horiz-adv-x="0" 
d="M-78 563l-46 124l40 87l92 -38zM-233 -71l-89 41l85 166l44 -121z" />
    </font>
</defs>
</svg>
