<?xml version="1.0" standalone="no"?>
<!DOCTYPE svg PUBLIC "-//W3C//DTD SVG 1.1//EN" "http://www.w3.org/Graphics/SVG/1.1/DTD/svg11.dtd" >
<svg xmlns="http://www.w3.org/2000/svg" xmlns:xlink="http://www.w3.org/1999/xlink" version="1.1">
<metadata>
Created by FontForge 20170731 at Tue Sep  5 15:55:10 2017
 By Aleksey,,,
Copyright (c) 2017 Monotype Imaging Inc. All rights reserved.
</metadata>
<defs>
<font id="FuturaBTLight" horiz-adv-x="380" >
  <font-face 
    font-family="FuturaBTLight"
    font-weight="300"
    font-stretch="normal"
    units-per-em="1000"
    panose-1="2 11 3 2 2 2 4 2 3 3"
    ascent="800"
    descent="-200"
    x-height="433"
    cap-height="715"
    bbox="-667 -256 1065 1033"
    underline-thickness="50"
    underline-position="-275"
    unicode-range="U+000D-FEFF"
  />
<missing-glyph horiz-adv-x="412" 
d="M0 757h412v-757h-412v757zM372 39v679h-332v-679h332z" />
    <glyph glyph-name="IJ" unicode="IJ" horiz-adv-x="616" 
d="M154 715v-715h-65v715h65zM304 0q-35 19 -58 55l46 42q20 -27 42.5 -40.5t47.5 -13.5q35 0 54.5 17t27 50t7.5 86v519h65v-561q0 -86 -39 -129.5t-113 -43.5q-45 0 -80 19z" />
    <glyph glyph-name="ij" unicode="ij" horiz-adv-x="460" 
d="M82 569.5q-13 13.5 -13 32.5q0 20 13.5 33t32.5 13t33 -13t14 -33q0 -19 -13.5 -32.5t-33.5 -13.5t-33 13.5zM85 433h60v-433h-60v433zM312 569.5q-13 13.5 -13 32.5q0 20 13.5 33t32.5 13t33 -13t14 -33q0 -19 -13.5 -32.5t-33.5 -13.5t-33 13.5zM315 433h60v-651h-60
v651z" />
    <glyph glyph-name="ff" unicode="ff" horiz-adv-x="518" 
d="M94 382h-81v51h81v125q0 79 7 121t31.5 64.5t75.5 22.5q29 0 58 -10l-11 -53q-24 12 -43 12q-24 0 -36.5 -12.5t-17 -37.5t-4.5 -68v-164h95v-51h-95v-382h-60v382zM353 382h-81v51h81v125q0 79 7 121t31.5 64.5t75.5 22.5q29 0 58 -10l-11 -53q-24 12 -43 12
q-24 0 -36.5 -12.5t-17 -37.5t-4.5 -68v-164h95v-51h-95v-382h-60v382z" />
    <glyph glyph-name="fi" unicode="fi" horiz-adv-x="471" 
d="M94 382h-81v51h81v125q0 79 7 121t31.5 64.5t75.5 22.5q29 0 58 -10l-11 -53q-24 12 -43 12q-24 0 -36.5 -12.5t-17 -37.5t-4.5 -68v-164h95v-51h-95v-382h-60v382zM324 569.5q-13 13.5 -13 32.5q0 20 13.5 33t32.5 13t32.5 -13t13.5 -33q0 -19 -13 -32.5t-33 -13.5
t-33 13.5zM327 433h60v-433h-60v433z" />
    <glyph glyph-name="fl" unicode="fl" horiz-adv-x="476" 
d="M94 382h-81v51h81v125q0 79 7 121t31.5 64.5t75.5 22.5q29 0 58 -10l-11 -53q-24 12 -43 12q-24 0 -36.5 -12.5t-17 -37.5t-4.5 -68v-164h95v-51h-95v-382h-60v382zM332 757h60v-757h-60v757z" />
    <glyph glyph-name="ffi" unicode="ffi" horiz-adv-x="748" 
d="M94 382h-81v51h81v125q0 79 7 121t31.5 64.5t75.5 22.5q29 0 58 -10l-11 -53q-24 12 -43 12q-24 0 -36.5 -12.5t-17 -37.5t-4.5 -68v-164h95v-51h-95v-382h-60v382zM353 382h-81v51h81v125q0 79 7 121t31.5 64.5t75.5 22.5q29 0 58 -10l-11 -53q-24 12 -43 12
q-24 0 -36.5 -12.5t-17 -37.5t-4.5 -68v-164h95v-51h-95v-382h-60v382zM600 569.5q-13 13.5 -13 32.5q0 20 13.5 33t32.5 13t33 -13t14 -33q0 -19 -13.5 -32.5t-33.5 -13.5t-33 13.5zM603 433h60v-433h-60v433z" />
    <glyph glyph-name="ffl" unicode="ffl" horiz-adv-x="748" 
d="M94 382h-81v51h81v125q0 79 7 121t31.5 64.5t75.5 22.5q29 0 58 -10l-11 -53q-24 12 -43 12q-24 0 -36.5 -12.5t-17 -37.5t-4.5 -68v-164h95v-51h-95v-382h-60v382zM353 382h-81v51h81v125q0 79 7 121t31.5 64.5t75.5 22.5q29 0 58 -10l-11 -53q-24 12 -43 12
q-24 0 -36.5 -12.5t-17 -37.5t-4.5 -68v-164h95v-51h-95v-382h-60v382zM604 757h60v-757h-60v757z" />
    <glyph glyph-name=".notdef" horiz-adv-x="412" 
d="M0 757h412v-757h-412v757zM372 39v679h-332v-679h332z" />
    <glyph glyph-name=".null" horiz-adv-x="0" 
 />
    <glyph glyph-name="nonmarkingreturn" horiz-adv-x="333" 
 />
    <glyph glyph-name="NULL" horiz-adv-x="0" 
 />
    <glyph glyph-name="NULL" horiz-adv-x="0" 
 />
    <glyph glyph-name="CR" unicode="&#xd;" horiz-adv-x="288" 
 />
    <glyph glyph-name="space" unicode=" " horiz-adv-x="288" 
 />
    <glyph glyph-name="exclam" unicode="!" horiz-adv-x="310" 
d="M125 731h60v-583h-60v583zM119.5 -4.5q-14.5 14.5 -14.5 35.5t14.5 35.5t35.5 14.5t35.5 -14t14.5 -36t-14.5 -36t-35.5 -14t-35.5 14.5z" />
    <glyph glyph-name="quotedbl" unicode="&#x22;" horiz-adv-x="269" 
d="M49 700h42v-270h-42v270zM178 700h42v-270h-42v270z" />
    <glyph glyph-name="numbersign" unicode="#" horiz-adv-x="769" 
d="M226 241h-163l15 44h164l49 138h-176l14 44h178l86 243h54l-85 -243h132l86 243h54l-85 -243h157l-15 -44h-158l-49 -138h170l-15 -44h-171l-85 -241h-55l86 241h-132l-87 -241h-54zM429 285l49 138h-132l-48 -138h131z" />
    <glyph glyph-name="dollar" unicode="$" horiz-adv-x="576" 
d="M271 3q-67 0 -115.5 33t-77.5 98l56 28q15 -48 49.5 -74.5t87.5 -31.5v309q-57 28 -92 55t-52.5 59t-17.5 73q0 43 19 77.5t55.5 56.5t87.5 29v49h39v-48q50 -6 85 -27t58 -60l-51 -28q-13 26 -37 41.5t-55 17.5v-247q65 -31 102.5 -59.5t55.5 -63.5t18 -85
q0 -53 -21.5 -96.5t-61 -71.5t-93.5 -36v-83h-39v85zM271 660q-28 -4 -50.5 -19.5t-34.5 -38.5t-12 -48q0 -41 23.5 -70t73.5 -53v229zM393.5 102q30.5 38 30.5 98q0 49 -27.5 84t-86.5 63v-290q53 7 83.5 45z" />
    <glyph glyph-name="percent" unicode="%" horiz-adv-x="731" 
d="M97.5 377.5q-32.5 21.5 -49.5 62.5t-17 99t17.5 99t49.5 62.5t76 21.5t76.5 -21.5t50 -62.5t17.5 -99q0 -57 -17.5 -98.5t-50 -63t-76.5 -21.5t-76.5 21.5zM543 722h53l-411 -741h-53zM237.5 437.5q22.5 35.5 22.5 102.5q0 137 -86 137q-41 0 -63 -35.5t-22 -101.5
q0 -67 22 -102.5t63 -35.5t63.5 35.5zM452 28.5q-38 47.5 -38 134.5q0 58 17.5 99t49.5 62.5t76 21.5t76.5 -21.5t50 -62.5t17.5 -99q0 -57 -17.5 -98t-50 -62.5t-76.5 -21.5q-67 0 -105 47.5zM620.5 61.5q22.5 35.5 22.5 102.5q0 137 -86 137q-41 0 -63 -35.5t-22 -101.5
q0 -67 22 -102.5t63 -35.5t63.5 35.5z" />
    <glyph glyph-name="ampersand" unicode="&#x26;" horiz-adv-x="640" 
d="M142 13.5q-48 26.5 -74 72t-26 100.5q0 64 42.5 118t134.5 113l-27 36q-19 24 -30.5 42.5t-18.5 40.5t-7 48q0 35 19.5 64.5t55.5 46.5t81 17q41 0 73 -17t50 -47.5t18 -68.5q0 -50 -31.5 -90t-100.5 -84l176 -218q54 66 85 118l42 -24q-46 -77 -97 -137l123 -144h-71
l-89 105q-52 -60 -105 -89t-113 -29q-62 0 -110 26.5zM301 465q75 53 75 115q0 23 -12 42t-32 29.5t-44 10.5q-26 0 -47 -10.5t-33 -29t-12 -42.5q0 -18 8.5 -40t24.5 -43l40 -54zM437 147l-187 228l-32 -23q-41 -29 -64 -50t-36.5 -48.5t-13.5 -64.5q0 -41 20.5 -75.5
t55 -54.5t75.5 -20q85 0 182 108z" />
    <glyph glyph-name="quotesingle" unicode="'" horiz-adv-x="139" 
d="M49 700h42v-270h-42v270z" />
    <glyph glyph-name="parenleft" unicode="(" horiz-adv-x="273" 
d="M90 271q0 267 116 477l44 -24q-52 -107 -78 -220t-26 -235q0 -133 25.5 -247t78.5 -214l-44 -26q-116 214 -116 489z" />
    <glyph glyph-name="parenright" unicode=")" horiz-adv-x="273" 
d="M23 -192q54 100 79.5 214.5t25.5 246.5q0 122 -26 234.5t-79 220.5l44 24q116 -210 116 -477q0 -275 -116 -489z" />
    <glyph glyph-name="asterisk" unicode="*" horiz-adv-x="417" 
d="M191 520l-112 -67l-21 38l114 60l-114 63l21 38l111 -71l-3 134h43l-4 -134l112 70l21 -37l-114 -63l114 -60l-23 -38l-111 68l4 -130h-42z" />
    <glyph glyph-name="plus" unicode="+" horiz-adv-x="833" 
d="M397 278h-273v39h273v278h39v-278h273v-39h-273v-278h-39v278z" />
    <glyph glyph-name="comma" unicode="," horiz-adv-x="288" 
d="M59 -138l99 262l71 -30l-129 -251z" />
    <glyph glyph-name="hyphen" unicode="-" horiz-adv-x="347" 
d="M67 247h213v-63h-213v63z" />
    <glyph glyph-name="period" unicode="." horiz-adv-x="288" 
d="M108.5 5.5q-14.5 14.5 -14.5 35.5t14.5 35.5t35.5 14.5t35.5 -14t14.5 -36t-14.5 -36t-35.5 -14t-35.5 14.5z" />
    <glyph glyph-name="slash" unicode="/" horiz-adv-x="403" 
d="M350 731h53l-350 -824h-53z" />
    <glyph glyph-name="zero" unicode="0" horiz-adv-x="576" 
d="M162.5 24.5q-53.5 43.5 -83 127t-29.5 199.5q0 117 29 200.5t83 127t127 43.5t126.5 -43.5t82.5 -127t29 -200.5q0 -118 -29 -201t-83 -126t-128 -43q-71 0 -124.5 43.5zM418 118.5q44 79.5 44 233.5q0 152 -45 232t-130 80q-53 0 -92 -37.5t-60 -108.5t-21 -168
q0 -96 21 -166t60.5 -107.5t93.5 -37.5q85 0 129 79.5z" />
    <glyph glyph-name="one" unicode="1" horiz-adv-x="576" 
d="M266 650h-129l31 58h161v-708h-63v650z" />
    <glyph glyph-name="two" unicode="2" horiz-adv-x="576" 
d="M189 169q22 25 45 48q76 83 112 126.5t58.5 87.5t22.5 88q0 42 -19.5 75t-55.5 51.5t-83 18.5q-46 0 -81.5 -20t-54.5 -57.5t-19 -88.5v-3h-64v7q0 67 27.5 117t78.5 76.5t120 26.5q66 0 116 -25t77.5 -70t27.5 -104q0 -55 -20.5 -101.5t-52.5 -85.5t-100 -112l-157 -168
h327v-56h-459z" />
    <glyph glyph-name="three" unicode="3" horiz-adv-x="576" 
d="M113.5 32.5q-58.5 51.5 -65.5 147.5h70q4 -70 44 -105.5t112 -35.5q51 0 86.5 19t54 53t18.5 79q0 46 -18.5 80.5t-54 53.5t-83.5 19q-19 0 -32 -1v62q17 -1 36 -1q44 0 76 16t48.5 44.5t16.5 67.5q0 40 -17.5 70.5t-49 47t-73.5 16.5q-57 0 -92.5 -30t-42.5 -85h-70
q5 52 32 91t71.5 60t101.5 21q61 0 108 -23t73 -65t26 -97q0 -61 -33 -105t-91 -61q65 -21 100.5 -68.5t35.5 -112.5q0 -62 -27 -109.5t-78.5 -73.5t-121.5 -26q-102 0 -160.5 51.5z" />
    <glyph glyph-name="four" unicode="4" horiz-adv-x="576" 
d="M352 181h-322l387 551v-495h73v-56h-73v-181h-65v181zM352 237l1 322l-226 -322h225z" />
    <glyph glyph-name="five" unicode="5" horiz-adv-x="576" 
d="M130.5 14q-54.5 34 -90.5 103l51 38q32 -60 73 -88t100 -28q51 0 90 23t60.5 65t21.5 99q0 52 -21.5 91t-61.5 60.5t-94 21.5q-92 0 -148 -52l-20 2l91 359h289v-55h-244l-56 -222q58 24 106 24q67 0 118 -28.5t79.5 -79.5t28.5 -117q0 -74 -30.5 -130.5t-85.5 -88
t-126 -31.5q-76 0 -130.5 34z" />
    <glyph glyph-name="six" unicode="6" horiz-adv-x="576" 
d="M163 7q-49 27 -76 76.5t-27 115.5q0 51 17 98t44.5 91t78.5 115l167 233l53 -33l-229 -310q29 18 56.5 27t57.5 9q59 0 106.5 -27.5t74.5 -77.5t27 -115q0 -67 -30 -119.5t-83.5 -81t-121.5 -28.5q-66 0 -115 27zM370 58.5q36 21.5 56 61.5t20 92q0 46 -19.5 83t-55.5 58
t-83 21q-48 0 -84.5 -22t-56.5 -61t-20 -88q0 -51 20 -88.5t56.5 -57.5t83.5 -20t83 21.5z" />
    <glyph glyph-name="seven" unicode="7" horiz-adv-x="576" 
d="M109 9l326 644h-345v55h439l-360 -730z" />
    <glyph glyph-name="eight" unicode="8" horiz-adv-x="576" 
d="M166.5 7.5q-51.5 26.5 -78.5 74t-27 110.5q0 48 16.5 88t48.5 67t75 38q-53 17 -83 59.5t-30 102.5q0 49 25 89t70.5 63t105.5 23q61 0 106 -23t69.5 -64.5t24.5 -95.5q0 -55 -29 -94.5t-84 -59.5q42 -11 73.5 -38t48.5 -66.5t17 -86.5q0 -65 -27 -113t-77.5 -74
t-121.5 -26t-122.5 26.5zM362 426.5q30 15.5 45.5 44t15.5 66.5q0 39 -16.5 68t-47 44.5t-70.5 15.5t-70 -15.5t-46.5 -44.5t-16.5 -68q0 -38 15.5 -66.5t46 -44t72.5 -15.5t72 15.5zM375 58.5q36 19.5 54.5 54.5t18.5 82q0 48 -19.5 84t-55.5 55t-85 19t-85 -19t-55 -54.5
t-19 -84.5q0 -48 18.5 -83t54.5 -54t86 -19q51 0 87 19.5z" />
    <glyph glyph-name="nine" unicode="9" horiz-adv-x="576" 
d="M149 -1l233 310q-29 -18 -56 -26.5t-57 -8.5q-59 0 -107 27t-75 77t-27 115q0 67 30 119.5t83.5 81t121.5 28.5q66 0 115.5 -27t76.5 -77t27 -115q0 -49 -16.5 -96t-46 -94t-78.5 -114l-171 -232zM370 350q37 22 57 61t20 88q0 51 -20 88.5t-56.5 58t-83.5 20.5
t-83 -21.5t-56 -61.5t-20 -92q0 -46 19.5 -83t55 -58.5t82.5 -21.5q48 0 85 22z" />
    <glyph glyph-name="colon" unicode=":" horiz-adv-x="310" 
d="M119.5 335.5q-14.5 14.5 -14.5 35.5t14.5 35.5t35.5 14.5t35.5 -14t14.5 -36t-14.5 -36t-35.5 -14t-35.5 14.5zM119.5 5.5q-14.5 14.5 -14.5 35.5t14.5 35.5t35.5 14.5t35.5 -14t14.5 -36t-14.5 -36t-35.5 -14t-35.5 14.5z" />
    <glyph glyph-name="semicolon" unicode=";" horiz-adv-x="352" 
d="M161.5 335.5q-14.5 14.5 -14.5 35.5t14.5 35.5t35.5 14.5t35.5 -14t14.5 -36t-14.5 -36t-35.5 -14t-35.5 14.5zM63 -138l99 262l71 -30l-129 -251z" />
    <glyph glyph-name="less" unicode="&#x3c;" horiz-adv-x="833" 
d="M129 283v30l575 236v-44l-510 -207l510 -207v-43z" />
    <glyph glyph-name="equal" unicode="=" horiz-adv-x="833" 
d="M124 406h585v-39h-585v39zM124 229h585v-39h-585v39z" />
    <glyph glyph-name="greater" unicode="&#x3e;" horiz-adv-x="833" 
d="M129 91l510 207l-510 207v44l575 -236v-30l-575 -235v43z" />
    <glyph glyph-name="question" unicode="?" horiz-adv-x="514" 
d="M177 146.5q-31 16.5 -48.5 46.5t-17.5 68t16 65.5t42 48t76 51.5q48 31 69.5 47.5t35 38.5t13.5 53q0 47 -28.5 75.5t-76.5 28.5q-55 0 -85.5 -34t-30.5 -97v-3h-58v16q0 55 21.5 95.5t61.5 62.5t94 22q49 0 86 -20t57 -56.5t20 -85.5q0 -47 -16.5 -79t-44.5 -54.5
t-84 -57.5q-8 -5 -43 -27t-49 -43t-14 -48q0 -35 22.5 -56.5t59.5 -21.5q42 0 66.5 23t24.5 64v9h54v-12q0 -66 -39 -101t-113 -35q-40 0 -71 16.5zM210.5 -4.5q-14.5 14.5 -14.5 35.5t14.5 35.5t35.5 14.5t35.5 -14t14.5 -36t-14.5 -36t-35.5 -14t-35.5 14.5z" />
    <glyph glyph-name="at" unicode="@" horiz-adv-x="1000" 
d="M206 -46q-74 56 -110.5 130.5t-36.5 170.5q0 79 25 150t72 129q70 86 168.5 130t219.5 44q79 0 149.5 -22t120.5 -60q62 -48 94.5 -110.5t32.5 -135.5q0 -83 -31 -151t-88 -113q-33 -26 -71.5 -40t-77.5 -14q-47 0 -70.5 18t-23.5 53q0 5 2 19q-24 -43 -61 -66.5
t-81 -23.5q-75 0 -114 40.5t-39 118.5q0 74 30.5 135t82 96t112.5 35q47 0 78.5 -21t46.5 -62l30 63h39l-67 -270q-10 -37 -10 -53q0 -21 15 -33t42 -12q23 0 48.5 9.5t50.5 27.5q49 36 79 100.5t30 138.5q0 87 -44 154.5t-124 104.5t-186 37q-164 0 -278 -94
q-75 -62 -113 -144.5t-38 -183.5q0 -105 48.5 -184t138.5 -122.5t210 -43.5q78 0 157.5 24.5t146.5 69.5l14 -22q-143 -107 -316 -107q-184 0 -303 90zM510 114q31 16 53 45.5t32 68.5l31 124q-11 48 -39.5 73.5t-74.5 25.5q-49 0 -89 -31t-63 -84t-23 -118q0 -57 28 -88.5
t78 -31.5q36 0 67 16z" />
    <glyph glyph-name="A" unicode="A" horiz-adv-x="597" 
d="M305 743l301 -743h-71l-91 242h-292l-95 -242h-66zM423 298l-122 311l-127 -311h249z" />
    <glyph glyph-name="B" unicode="B" horiz-adv-x="553" 
d="M89 715h124q46 0 76 -2t56 -9.5t47 -23.5q35 -26 54 -65t19 -86q0 -57 -30 -97t-82 -53q45 -6 78 -29t51 -58.5t18 -81.5q0 -110 -74 -167q-26 -20 -57 -29t-65 -11.5t-90 -2.5h-125v715zM235 397q56 0 91.5 11t53.5 39t18 77q0 53 -17 82t-52 40.5t-94 11.5h-81v-261h81
zM250 56q50 0 79 4.5t51 21.5q23 17 36.5 48.5t13.5 66.5q0 44 -15 76t-42 48q-21 13 -46 16.5t-65 3.5h-108v-285h96z" />
    <glyph glyph-name="C" unicode="C" horiz-adv-x="715" 
d="M238.5 28q-85.5 47 -134.5 133t-49 196q0 108 49.5 193t135.5 133t191 48q137 0 233 -75l-2 -72q-53 46 -108 68t-117 22q-92 0 -163 -40.5t-110 -112.5t-39 -164q0 -94 39.5 -165.5t108.5 -111t155 -39.5q62 0 121 21t110 62l-1 -76q-51 -32 -110.5 -49.5t-116.5 -17.5
q-107 0 -192.5 47z" />
    <glyph glyph-name="D" unicode="D" horiz-adv-x="697" 
d="M89 715h111q79 0 125 -2.5t89.5 -12.5t79.5 -32q70 -43 108.5 -123.5t38.5 -187.5q0 -97 -31.5 -171.5t-89.5 -119.5q-39 -30 -83 -44t-90.5 -18t-116.5 -4h-141v715zM250 56q54 0 89.5 2.5t67 11.5t57.5 27q52 37 80 104t28 157q0 73 -18.5 131t-54.5 97
q-31 35 -69.5 51t-82 20t-116.5 4h-77v-605h96z" />
    <glyph glyph-name="E" unicode="E" horiz-adv-x="513" 
d="M89 715h354v-61h-289v-224h289v-61h-289v-308h289v-61h-354v715z" />
    <glyph glyph-name="F" unicode="F" horiz-adv-x="501" 
d="M89 715h354v-61h-289v-224h278v-61h-278v-369h-65v715z" />
    <glyph glyph-name="G" unicode="G" horiz-adv-x="817" 
d="M229 28q-83 47 -128.5 132.5t-45.5 195.5q0 107 46 192.5t128.5 134t186.5 48.5q108 0 186 -39t120 -116l-47 -41q-43 67 -106.5 102t-143.5 35q-88 0 -156.5 -41t-106 -114.5t-37.5 -167.5q0 -86 39 -156.5t107 -111t154 -40.5q79 0 140.5 32.5t96.5 90.5t36 133h-247
v56h318v-10q0 -112 -42 -193.5t-121 -125t-187 -43.5q-107 0 -190 47z" />
    <glyph glyph-name="H" unicode="H" horiz-adv-x="697" 
d="M89 715h65v-290h389v290h65v-715h-65v369h-389v-369h-65v715z" />
    <glyph glyph-name="I" unicode="I" horiz-adv-x="243" 
d="M154 715v-715h-65v715h65z" />
    <glyph glyph-name="J" unicode="J" horiz-adv-x="373" 
d="M61 0q-35 19 -58 55l46 42q20 -27 42.5 -40.5t47.5 -13.5q35 0 54.5 17t27 50t7.5 86v519h65v-561q0 -86 -39 -129.5t-113 -43.5q-45 0 -80 19z" />
    <glyph glyph-name="K" unicode="K" horiz-adv-x="574" 
d="M89 715h65v-335l323 335h85l-339 -342l355 -373h-94l-330 363v-363h-65v715z" />
    <glyph glyph-name="L" unicode="L" horiz-adv-x="413" 
d="M89 715h65v-654h245v-61h-310v715z" />
    <glyph glyph-name="M" unicode="M" horiz-adv-x="836" 
d="M164 546l-54 -546h-67l97 745l274 -636l284 636l92 -745h-67l-53 546l-255 -574z" />
    <glyph glyph-name="N" unicode="N" horiz-adv-x="745" 
d="M154 578v-578h-65v745l502 -598v568h65v-736z" />
    <glyph glyph-name="O" unicode="O" horiz-adv-x="875" 
d="M290 9.5q-69 28.5 -123 81.5t-83 121.5t-29 143.5q0 77 28.5 145.5t83.5 121.5q54 53 122.5 80.5t147.5 27.5t148 -27.5t123 -80.5t83 -122t29 -145t-29 -144t-83 -121q-55 -53 -124.5 -81.5t-146.5 -28.5q-78 0 -147 28.5zM595 81.5q72 42.5 114 115t42 159.5t-42 160
t-114 115.5t-158 42.5q-85 0 -157 -42.5t-114 -115.5t-42 -160t41.5 -159.5t113.5 -115t158 -42.5t158 42.5z" />
    <glyph glyph-name="P" unicode="P" horiz-adv-x="500" 
d="M89 715h139q41 0 68 -2t52.5 -10t47.5 -24q33 -24 52 -66.5t19 -94.5q0 -104 -58.5 -150.5t-179.5 -46.5h-75v-321h-65v715zM198 378q72 0 113.5 9t64 38.5t22.5 87.5q0 38 -12.5 68.5t-35.5 48.5q-16 13 -37 19t-46.5 7.5t-68.5 1.5h-44v-280h44z" />
    <glyph glyph-name="Q" unicode="Q" horiz-adv-x="875" 
d="M660 51q-52 -34 -108 -50t-121 -16q-75 0 -143 27.5t-121 79.5q-55 53 -83.5 121.5t-28.5 143.5t29 143.5t83 121.5t123.5 81t146.5 28t147 -28t124 -81q55 -53 83.5 -121t28.5 -144q0 -155 -115 -266l121 -141h-79zM538.5 57q47.5 16 79.5 43l-166 193h80l133 -155
q86 95 86 219q0 87 -42 159.5t-114 115t-158 42.5q-85 0 -156.5 -42.5t-113.5 -115t-42 -159.5t41.5 -159.5t113.5 -114.5t159 -42q52 0 99.5 16z" />
    <glyph glyph-name="R" unicode="R" horiz-adv-x="528" 
d="M89 715h131q116 0 174 -48.5t58 -146.5q0 -56 -22.5 -96t-64.5 -61.5t-99 -21.5l257 -341h-79l-251 341h-39v-341h-65v715zM219 394q58 0 93 11t52.5 39t17.5 78q0 51 -17 81t-52 42.5t-94 12.5h-65v-264h65z" />
    <glyph glyph-name="S" unicode="S" horiz-adv-x="498" 
d="M113 16q-50 35 -79 104l56 30q15 -53 54 -82t92 -29q68 0 106 39.5t38 111.5q0 42 -15.5 70.5t-43.5 48.5t-77 46q-64 33 -101 60t-57.5 62t-20.5 83q0 50 23.5 89t65.5 61t96 22q108 0 158 -91l-50 -30q-15 31 -44 47t-68 16q-53 0 -84 -31t-31 -84q0 -36 14 -59.5
t37.5 -39t69.5 -39.5l37 -20q56 -31 88.5 -58.5t48.5 -63.5t16 -89q0 -64 -25.5 -111t-72.5 -72.5t-111 -25.5q-70 0 -120 35z" />
    <glyph glyph-name="T" unicode="T" horiz-adv-x="497" 
d="M216 654h-197v61h459v-61h-197v-654h-65v654z" />
    <glyph glyph-name="U" unicode="U" horiz-adv-x="692" 
d="M151 715v-467q0 -105 48 -157t147 -52t147 52t48 157v467h65v-446q0 -91 -26 -155q-55 -133 -234 -133t-234 134q-26 63 -26 154v446h65z" />
    <glyph glyph-name="V" unicode="V" horiz-adv-x="551" 
d="M-9 715h75l206 -582l217 582h71l-289 -734z" />
    <glyph glyph-name="W" unicode="W" horiz-adv-x="898" 
d="M12 715h68l179 -571l190 599l198 -594l172 566h67l-239 -734l-198 598l-190 -598z" />
    <glyph glyph-name="X" unicode="X" horiz-adv-x="484" 
d="M206 376l-197 339h73l161 -284l163 284h70l-197 -337l217 -378h-72l-182 317l-183 -317h-71z" />
    <glyph glyph-name="Y" unicode="Y" horiz-adv-x="546" 
d="M242 329l-237 386h78l192 -328l193 328h74l-235 -386v-329h-65v329z" />
    <glyph glyph-name="Z" unicode="Z" horiz-adv-x="560" 
d="M437 656h-363v59h474l-423 -655h380v-60h-493z" />
    <glyph glyph-name="bracketleft" unicode="[" horiz-adv-x="273" 
d="M108 731h142v-48h-85v-836h85v-48h-142v932z" />
    <glyph glyph-name="backslash" unicode="\" horiz-adv-x="403" 
d="M0 731h53l350 -824h-53z" />
    <glyph glyph-name="bracketright" unicode="]" horiz-adv-x="273" 
d="M23 -153h86v836h-86v48h142v-932h-142v48z" />
    <glyph glyph-name="asciicircum" unicode="^" horiz-adv-x="1000" 
d="M470 712h58l264 -272h-61l-231 229l-232 -229h-61z" />
    <glyph glyph-name="underscore" unicode="_" horiz-adv-x="500" 
d="M0 -197h500v-39h-500v39z" />
    <glyph glyph-name="grave" unicode="`" horiz-adv-x="244" 
d="M30 674h80l104 -171h-46z" />
    <glyph glyph-name="a" unicode="a" horiz-adv-x="541" 
d="M140 10q-47 29 -73 82t-26 122t26 122.5t71.5 83t103.5 29.5q55 0 95.5 -24t62.5 -71v79h60v-433h-60v79q-21 -48 -60 -73t-92 -25q-61 0 -108 29zM331 58.5q33 21.5 51.5 63.5t18.5 101q0 53 -18 91.5t-51 59t-77 20.5t-77 -21.5t-51.5 -62.5t-18.5 -98q0 -84 38 -129.5
t108 -45.5q44 0 77 21.5z" />
    <glyph glyph-name="b" unicode="b" horiz-adv-x="541" 
d="M199.5 6q-38.5 25 -59.5 73v-79h-60v757h60v-403q22 47 62 71t95 24q58 0 103.5 -29.5t71.5 -83t26 -122.5t-26 -122t-73 -82t-108 -29q-53 0 -91.5 25zM393.5 82q37.5 45 37.5 130q0 57 -18.5 98t-51.5 62.5t-77 21.5t-76.5 -20.5t-50.5 -59t-18 -91.5q0 -59 18.5 -101
t51.5 -63.5t77 -21.5q70 0 107.5 45z" />
    <glyph glyph-name="c" unicode="c" horiz-adv-x="456" 
d="M154 9q-51 30 -80 83t-29 119q0 69 30 123.5t84 84.5t124 30q38 0 73 -7.5t62 -21.5l-1 -66q-62 42 -135 42q-54 0 -93.5 -23.5t-61 -66.5t-21.5 -99q0 -49 22 -89t62.5 -63t91.5 -23q36 0 72 12.5t70 36.5l1 -66q-66 -36 -154 -36q-66 0 -117 30z" />
    <glyph glyph-name="d" unicode="d" horiz-adv-x="541" 
d="M142 10q-47 29 -73 82t-26 122t26 122.5t71.5 83t103.5 29.5q55 0 95 -24t63 -71v403h60v-757h-60v79q-22 -48 -60.5 -73t-91.5 -25q-61 0 -108 29zM333 58.5q33 21.5 51 63.5t18 101q0 53 -18 91.5t-50.5 59t-76.5 20.5t-77 -21.5t-51.5 -62.5t-18.5 -98
q0 -84 38 -129.5t108 -45.5q44 0 77 21.5z" />
    <glyph glyph-name="e" unicode="e" horiz-adv-x="497" 
d="M145 10.5q-48 29.5 -75 82t-27 119.5q0 71 27 124.5t75 83t109 29.5q58 0 103 -26.5t70 -76.5t25 -116v-15h-344q1 -56 20 -96.5t52 -62t76 -21.5q48 0 83.5 26t60.5 78l55 -30q-33 -66 -81 -97t-118 -31q-63 0 -111 29.5zM381 266q-4 60 -39.5 92.5t-95.5 32.5
q-35 0 -64.5 -15.5t-48 -44t-21.5 -65.5h269z" />
    <glyph glyph-name="f" unicode="f" horiz-adv-x="259" 
d="M94 382h-81v51h81v125q0 79 7 121t31.5 64.5t75.5 22.5q29 0 58 -10l-11 -53q-24 12 -43 12q-24 0 -36.5 -12.5t-17 -37.5t-4.5 -68v-164h95v-51h-95v-382h-60v382z" />
    <glyph glyph-name="g" unicode="g" horiz-adv-x="541" 
d="M121 -184.5q-48 33.5 -59 101.5l75 -2q8 -39 39 -59t84 -20q39 0 71.5 14.5t48.5 38.5q12 19 16.5 41.5t4.5 54.5v95q-20 -46 -62 -72.5t-95 -26.5q-59 0 -104 28t-70.5 80.5t-25.5 125.5q0 70 25.5 123t71.5 82t106 29q34 0 65 -12.5t54 -34.5t35 -50v81h60v-361
q0 -77 -4.5 -123.5t-15.5 -70.5q-44 -96 -186 -96q-86 0 -134 33.5zM326.5 58.5q34.5 21.5 54.5 62.5t20 98q0 56 -18 95t-51 59.5t-78 20.5t-77.5 -21.5t-50 -62t-17.5 -96.5t17 -96t48 -60.5t74 -20.5q44 0 78.5 21.5z" />
    <glyph glyph-name="h" unicode="h" horiz-adv-x="521" 
d="M80 757h60v-391q49 83 150 83q73 0 114.5 -40.5t41.5 -114.5v-294h-60v267q0 65 -27.5 96.5t-84.5 31.5q-70 0 -102 -41.5t-32 -127.5v-226h-60v757z" />
    <glyph glyph-name="i" unicode="i" horiz-adv-x="230" 
d="M82 569.5q-13 13.5 -13 32.5q0 20 13.5 33t32.5 13t33 -13t14 -33q0 -19 -13.5 -32.5t-33.5 -13.5t-33 13.5zM85 433h60v-433h-60v433z" />
    <glyph glyph-name="j" unicode="j" horiz-adv-x="230" 
d="M82 569.5q-13 13.5 -13 32.5q0 20 13.5 33t32.5 13t33 -13t14 -33q0 -19 -13.5 -32.5t-33.5 -13.5t-33 13.5zM85 433h60v-651h-60v651z" />
    <glyph glyph-name="k" unicode="k" horiz-adv-x="458" 
d="M80 757h60v-516l216 192h83l-232 -194l249 -239h-83l-233 224v-224h-60v757z" />
    <glyph glyph-name="l" unicode="l" horiz-adv-x="230" 
d="M86 757h60v-757h-60v757z" />
    <glyph glyph-name="m" unicode="m" horiz-adv-x="789" 
d="M80 433h60v-68q21 41 56.5 62.5t81.5 21.5q47 0 80.5 -21.5t51.5 -63.5q52 85 151 85q46 0 79 -19t51 -54t18 -83v-293h-60v269q0 128 -104 128q-63 0 -91.5 -41.5t-28.5 -127.5v-228h-60v269q0 65 -24 96.5t-78 31.5q-64 0 -93.5 -42t-29.5 -127v-228h-60v433z" />
    <glyph glyph-name="n" unicode="n" horiz-adv-x="521" 
d="M80 433h57v-67q53 83 153 83q73 0 114.5 -40.5t41.5 -114.5v-294h-60v267q0 65 -27.5 96.5t-84.5 31.5q-70 0 -102 -41.5t-32 -127.5v-226h-60v433z" />
    <glyph glyph-name="o" unicode="o" horiz-adv-x="558" 
d="M160.5 12q-53.5 31 -85 85t-31.5 119q0 64 31.5 117.5t84.5 84.5t117 31q65 0 119.5 -31t86 -84.5t31.5 -117.5t-32 -118t-86.5 -85.5t-118.5 -31.5q-63 0 -116.5 31zM364 60.5q39 23.5 62 64.5t23 90q0 50 -23 90.5t-62 64t-85 23.5q-47 0 -86 -23.5t-61.5 -64
t-22.5 -90.5q0 -49 23 -90t62 -64.5t85 -23.5t85 23.5z" />
    <glyph glyph-name="p" unicode="p" horiz-adv-x="541" 
d="M80 433h60v-81q23 46 63 71.5t90 25.5q60 0 106 -29t71.5 -82t25.5 -123q0 -73 -25.5 -125.5t-70.5 -80.5t-104 -28q-53 0 -92.5 25t-63.5 74v-298h-60v651zM367 57.5q31 20.5 47.5 60.5t16.5 96t-17 96.5t-49.5 62t-77.5 21.5t-78 -20.5t-51 -59.5t-18 -95q0 -57 20 -98
t54.5 -62.5t78.5 -21.5q43 0 74 20.5z" />
    <glyph glyph-name="q" unicode="q" horiz-adv-x="541" 
d="M401 80q-24 -49 -64 -74t-93 -25q-59 0 -104 28t-70.5 80.5t-25.5 125.5q0 70 25.5 123t71.5 82t106 29q50 0 90.5 -25.5t63.5 -71.5v81h60v-651h-60v298zM326.5 58.5q34.5 21.5 54.5 62.5t20 98q0 56 -18 95t-51 59.5t-78 20.5t-77.5 -21.5t-50 -62t-17.5 -96.5t17 -96
t48 -60.5t74 -20.5q44 0 78.5 21.5z" />
    <glyph glyph-name="r" unicode="r" horiz-adv-x="315" 
d="M80 433h60v-87q33 56 64 79.5t76 23.5q26 0 51 -9l-19 -57q-21 7 -41 7q-34 0 -64 -22.5t-48.5 -62.5t-18.5 -92v-213h-60v433z" />
    <glyph glyph-name="s" unicode="s" horiz-adv-x="382" 
d="M87.5 6.5q-39.5 25.5 -56.5 70.5l57 33q15 -37 41.5 -55t65.5 -18q38 0 60.5 19.5t22.5 51.5q0 24 -10.5 38.5t-27.5 23.5t-50 22l-34 13q-54 22 -79 50t-25 69q0 36 17.5 65t49.5 45t73 16q53 0 90 -22.5t54 -65.5l-55 -31q-10 31 -34 47t-59 16q-31 0 -51.5 -18.5
t-20.5 -45.5q0 -21 11 -35t32.5 -24.5t59.5 -23.5q43 -14 68.5 -30t39 -41t13.5 -64t-18.5 -68.5t-54 -46t-84.5 -16.5q-56 0 -95.5 25.5z" />
    <glyph glyph-name="t" unicode="t" horiz-adv-x="248" 
d="M93 382h-80v51h80v178h60v-178h86v-51h-86v-382h-60v382z" />
    <glyph glyph-name="u" unicode="u" horiz-adv-x="527" 
d="M127 33q-47 52 -47 153v247h60v-216q0 -63 11 -102t38 -58.5t74 -19.5t74 19.5t38.5 58.5t11.5 102v216h60v-247q0 -102 -46.5 -153.5t-136.5 -51.5t-137 52z" />
    <glyph glyph-name="v" unicode="v" horiz-adv-x="427" 
d="M15 433h66l133 -328l132 328h67l-199 -452z" />
    <glyph glyph-name="w" unicode="w" horiz-adv-x="648" 
d="M12 433h63l113 -312l136 335l136 -335l113 312h63l-173 -452l-138 336l-140 -336z" />
    <glyph glyph-name="x" unicode="x" horiz-adv-x="394" 
d="M162 225l-147 208h75l106 -159l106 159h73l-146 -208l161 -225h-74l-121 175l-120 -175h-75z" />
    <glyph glyph-name="y" unicode="y" horiz-adv-x="403" 
d="M177 3l-156 430h64l124 -339l114 339h64l-224 -651h-62z" />
    <glyph glyph-name="z" unicode="z" horiz-adv-x="381" 
d="M253 379h-225v54h329l-240 -380h247v-53h-353z" />
    <glyph glyph-name="braceleft" unicode="{" horiz-adv-x="500" 
d="M292.5 -184q-33.5 17 -46 55.5t-12.5 110.5v121q0 51 -12 81.5t-39.5 44.5t-74.5 14l-22 -1v44q9 -1 24 -1q46 0 73 14t39 44.5t12 81.5v122q0 72 12.5 110.5t46.5 56t100 17.5h21v-43h-18q-48 0 -71.5 -12t-32 -39t-8.5 -78v-123q0 -53 -7.5 -86t-28 -54t-59.5 -32
q40 -12 60.5 -33t27.5 -53.5t7 -85.5v-122q0 -51 8.5 -78t32 -38.5t70.5 -11.5h19v-43h-21q-67 0 -100.5 17z" />
    <glyph glyph-name="bar" unicode="|" horiz-adv-x="500" 
d="M228 764h44v-1000h-44v1000z" />
    <glyph glyph-name="braceright" unicode="}" horiz-adv-x="500" 
d="M86 -158h19q47 0 70.5 11.5t32 38.5t8.5 78v122q0 53 7.5 85.5t28 53.5t60.5 33q-40 11 -60.5 32t-28 54t-7.5 86v123q0 51 -8.5 78t-32 39t-71.5 12h-18v43h21q66 0 100 -17.5t46.5 -56t12.5 -110.5v-122q0 -51 12 -81.5t39.5 -44.5t74.5 -14l22 1v-44l-22 1
q-47 0 -74.5 -14t-39.5 -44.5t-12 -81.5v-121q0 -72 -12.5 -110.5t-46 -55.5t-100.5 -17h-21v43z" />
    <glyph glyph-name="asciitilde" unicode="~" horiz-adv-x="833" 
d="M87 280q103 72 189 72q31 0 59 -7.5t51.5 -16t30.5 -10.5t36.5 -13t55.5 -16.5t49 -5.5q43 0 88 19.5t101 58.5v-45q-103 -72 -189 -72q-25 0 -48 4.5t-47 13t-46 16.5q-8 3 -37.5 13.5t-55 16t-48.5 5.5q-43 0 -88 -19.5t-101 -58.5v45z" />
    <glyph glyph-name="uni00A0" unicode="&#xa0;" horiz-adv-x="288" 
 />
    <glyph glyph-name="exclamdown" unicode="&#xa1;" horiz-adv-x="310" 
d="M119.5 645.5q-14.5 14.5 -14.5 35.5t14.5 35.5t35.5 14.5t35.5 -14t14.5 -36t-14.5 -36t-35.5 -14t-35.5 14.5zM125 565h60v-584h-60v584z" />
    <glyph glyph-name="cent" unicode="&#xa2;" horiz-adv-x="576" 
d="M277 129q-63 3 -112.5 34t-77 82.5t-27.5 113.5q0 63 26 114.5t75 83.5t116 39v79h39v-78q66 0 138 -29v-66q-31 20 -64.5 30t-73.5 12v-364q46 5 80 16.5t58 30.5v-64q-30 -17 -63.5 -25.5t-74.5 -9.5v-100h-39v101zM277 542q-43 -3 -78 -28t-55 -64t-20 -85
q0 -49 18.5 -88t53 -63.5t81.5 -30.5v359z" />
    <glyph glyph-name="sterling" unicode="&#xa3;" horiz-adv-x="576" 
d="M49 10q35 65 95 83q20 27 29.5 51.5t9.5 48.5q0 43 -22 100h-112v44h90q-50 108 -50 181q0 58 27.5 104.5t77.5 73t114 26.5q65 0 113 -24.5t74.5 -72t28.5 -112.5l-62 -11q-1 78 -41.5 120.5t-110.5 42.5q-47 0 -82 -18.5t-54 -52t-19 -77.5q0 -65 49 -180h190v-44h-175
q19 -51 19 -86q0 -70 -50 -112q30 0 55.5 -8t61.5 -23q29 -13 48.5 -19t38.5 -6q31 0 55.5 17t47.5 53l43 -29q-26 -50 -61 -74t-81 -24q-28 0 -53.5 8t-59.5 24q-30 14 -50 20.5t-40 6.5q-30 0 -54.5 -15t-47.5 -46z" />
    <glyph glyph-name="currency" unicode="&#xa4;" horiz-adv-x="607" 
d="M46 144l101 100q-45 57 -45 128t45 128l-101 100l28 29l101 -101q58 46 128 46q71 0 129 -46l100 101l29 -29l-101 -100q45 -57 45 -128t-45 -128l101 -100l-29 -29l-100 101q-57 -45 -129 -45q-71 0 -128 45l-101 -101zM385.5 233q37.5 22 59 59t21.5 81t-21.5 81
t-59 58.5t-81.5 21.5t-81.5 -22t-59 -59t-21.5 -80q0 -44 21.5 -81t59 -59t81.5 -22t81.5 22z" />
    <glyph glyph-name="yen" unicode="&#xa5;" horiz-adv-x="577" 
d="M259 308h-243v48h223l-48 79h-175v49h143l-138 225h72l196 -330l201 330h66l-137 -225h141v-49h-172l-48 -79h220v-48h-239v-308h-62v308z" />
    <glyph glyph-name="brokenbar" unicode="&#xa6;" horiz-adv-x="500" 
d="M228 699h44v-370h-44v370zM228 199h44v-370h-44v370z" />
    <glyph glyph-name="section" unicode="&#xa7;" horiz-adv-x="509" 
d="M168.5 -201.5q-39.5 20.5 -61 57.5t-21.5 86v13h62q1 -58 29 -86t82 -28q51 0 79.5 28t28.5 76q0 33 -15 53.5t-39.5 33.5t-71.5 30q-67 24 -105 46t-59 57.5t-21 93.5q0 59 35.5 105t96.5 65q-55 23 -81 58t-26 87q0 47 21.5 82.5t62.5 55.5t97 20q82 0 126 -42t44 -119
v-12h-66q-4 120 -108 120q-31 0 -55.5 -13t-38.5 -36t-14 -52q0 -37 16.5 -60.5t44 -37t80.5 -32.5q85 -31 125 -74.5t40 -112.5q0 -65 -32.5 -109.5t-96.5 -64.5q106 -46 106 -149q0 -44 -22 -80.5t-61.5 -58t-89.5 -21.5q-52 0 -91.5 20.5zM324 142q31 18 49 49t18 68
q0 39 -17 69.5t-47.5 47.5t-69.5 17q-37 0 -68 -18t-49 -48.5t-18 -67.5q0 -41 16.5 -71.5t47 -47t71.5 -16.5q36 0 67 18z" />
    <glyph glyph-name="dieresis" unicode="&#xa8;" horiz-adv-x="326" 
d="M43.5 546.5q-13.5 13.5 -13.5 33.5q0 19 14 33.5t33 14.5t33.5 -14.5t14.5 -33.5q0 -20 -14 -33.5t-34 -13.5t-33.5 13.5zM215 546.5q-14 13.5 -14 33.5q0 19 14.5 33.5t33.5 14.5t33 -14.5t14 -33.5q0 -20 -13.5 -33.5t-33.5 -13.5t-34 13.5z" />
    <glyph glyph-name="copyright" unicode="&#xa9;" horiz-adv-x="833" 
d="M280.5 22.5q-64.5 27.5 -115.5 78.5t-78 115.5t-27 135.5t27 136.5t79 117.5q50 50 113.5 76.5t136.5 26.5t138 -27t116 -78q50 -50 76.5 -115t26.5 -137q0 -73 -26.5 -136.5t-76.5 -113.5q-53 -52 -118.5 -79.5t-135.5 -27.5q-71 0 -135.5 27.5zM538.5 56
q59.5 25 106.5 71q45 44 69 101.5t24 123.5q0 65 -24 123.5t-69 103.5q-46 46 -105 70.5t-124 24.5t-123 -24t-102 -69q-47 -47 -71.5 -106t-24.5 -123t24.5 -122t70.5 -104t104 -70.5t122 -24.5q63 0 122.5 25zM317.5 157.5q-41.5 26.5 -64.5 77t-23 119.5q0 67 24 116.5
t67 76.5t99 27q42 0 77 -16t56.5 -44.5t25.5 -65.5h-51q-10 40 -39 62t-72 22q-61 0 -95.5 -47.5t-34.5 -133.5q0 -55 16 -95.5t45.5 -61.5t68.5 -21q44 0 76 25.5t41 68.5h50q-3 -40 -26 -70.5t-60.5 -48t-83.5 -17.5q-55 0 -96.5 26.5z" />
    <glyph glyph-name="ordfeminine" unicode="&#xaa;" horiz-adv-x="406" 
d="M105 419.5q-35 20.5 -54.5 57.5t-19.5 85t19.5 85.5t54 58t77.5 20.5q41 0 71.5 -16.5t46.5 -49.5v55h45v-303h-45v55q-16 -34 -45 -51t-69 -17q-46 0 -81 20.5zM271 472q30 34 30 96q0 56 -30 88t-80 32t-80 -34t-30 -94q0 -59 28.5 -90.5t81.5 -31.5q50 0 80 34z" />
    <glyph glyph-name="guillemotleft" unicode="&#xab;" horiz-adv-x="382" 
d="M22 213l119 193l42 -26l-102 -168l104 -162l-40 -26zM196 213l120 193l42 -26l-103 -168l105 -162l-40 -26z" />
    <glyph glyph-name="logicalnot" unicode="&#xac;" horiz-adv-x="833" 
d="M670 379h-546v39h585v-245h-39v206z" />
    <glyph glyph-name="uni00AD" unicode="&#xad;" horiz-adv-x="347" 
d="M67 247h213v-63h-213v63z" />
    <glyph glyph-name="registered" unicode="&#xae;" horiz-adv-x="833" 
d="M280.5 22.5q-64.5 27.5 -115.5 78.5t-78 115.5t-27 135.5t27 136.5t79 117.5q50 50 113.5 76.5t136.5 26.5t138 -27t116 -78q50 -50 76.5 -115t26.5 -137q0 -73 -26.5 -136.5t-76.5 -113.5q-53 -52 -118.5 -79.5t-135.5 -27.5q-71 0 -135.5 27.5zM538.5 56
q59.5 25 106.5 71q45 44 69 101.5t24 123.5q0 65 -24 123.5t-69 103.5q-46 46 -105 70.5t-124 24.5t-123 -24t-102 -69q-47 -47 -71.5 -106t-24.5 -123t24.5 -122t70.5 -104t104 -70.5t122 -24.5q63 0 122.5 25zM278 564h149q87 0 128.5 -27.5t41.5 -86.5q0 -43 -27 -72.5
t-72 -34.5l93 -192h-64l-89 184h-104v-184h-56v413zM416 373q46 0 72.5 7t39 24t12.5 48q0 39 -30.5 56.5t-93.5 17.5h-82v-153h82z" />
    <glyph glyph-name="macron" unicode="&#xaf;" horiz-adv-x="312" 
d="M30 603h252v-57h-252v57z" />
    <glyph glyph-name="degree" unicode="&#xb0;" horiz-adv-x="329" 
d="M96.5 459q-30.5 18 -48 48.5t-17.5 66.5q0 37 18 67.5t49 48.5t67 18t66.5 -18t48.5 -49t18 -67t-18 -66.5t-48.5 -48.5t-67.5 -18t-67.5 18zM217 484q24 14 38 38t14 52t-14 52t-38 38t-52 14q-29 0 -52.5 -14t-37.5 -37.5t-14 -52.5q0 -28 14 -52t38 -38t52 -14t52 14z
" />
    <glyph glyph-name="plusminus" unicode="&#xb1;" horiz-adv-x="833" 
d="M397 355h-273v39h273v173h39v-173h273v-39h-273v-172h-39v172zM124 69h585v-39h-585v39z" />
    <glyph glyph-name="twosuperior" unicode="&#xb2;" 
d="M125 382l32 32q48 47 72 73.5t38.5 52.5t14.5 52q0 25 -13 45t-36.5 31t-54.5 11q-47 0 -75 -26.5t-28 -72.5v-2h-42v4q0 41 18 70.5t51.5 45.5t79.5 16q44 0 77 -15t51 -42t18 -62q0 -33 -13.5 -61t-35 -51.5t-65.5 -67.5l-104 -100h216v-34h-303z" />
    <glyph glyph-name="threesuperior" unicode="&#xb3;" 
d="M74.5 300.5q-38.5 30.5 -42.5 88.5h46q3 -42 29 -63.5t74 -21.5q50 0 77.5 25t27.5 66q0 42 -27.5 67t-75.5 25q-13 0 -21 -1v37h23q45 0 69.5 20.5t24.5 56.5t-25.5 58t-67.5 22q-38 0 -61.5 -18t-27.5 -51h-46q5 48 41.5 75.5t93.5 27.5q40 0 71 -14t48.5 -39t17.5 -58
q0 -36 -22 -62.5t-60 -36.5q43 -13 66.5 -41.5t23.5 -67.5q0 -37 -18 -65.5t-52 -44t-80 -15.5q-68 0 -106.5 30.5z" />
    <glyph glyph-name="acute" unicode="&#xb4;" horiz-adv-x="244" 
d="M134 674h80l-138 -171h-46z" />
    <glyph glyph-name="mu" unicode="&#xb5;" horiz-adv-x="534" 
d="M100 519h59l-60 -288q-8 -40 -8 -69q0 -61 29 -93.5t85 -32.5q61 0 106.5 52.5t67.5 153.5l61 277h59l-81 -384q-1 -6 -4 -20t-5.5 -27t-2.5 -19q0 -31 33 -31l19 1l-9 -47q-28 -6 -37 -6q-33 0 -49 15.5t-16 46.5q0 6 2 22q-21 -41 -60.5 -62.5t-91.5 -21.5
q-48 0 -83 22t-51 62l-58 -277h-59z" />
    <glyph glyph-name="paragraph" unicode="&#xb6;" horiz-adv-x="500" 
d="M230 382q-57 2 -99 24t-64.5 60t-22.5 86q0 50 23.5 88.5t67.5 60t102 21.5h218v-31h-63v-691h-34v691h-94v-691h-34v382z" />
    <glyph glyph-name="periodcentered" unicode="&#xb7;" horiz-adv-x="288" 
d="M108.5 315.5q-14.5 14.5 -14.5 35.5t14.5 35.5t35.5 14.5t35.5 -14t14.5 -36t-14.5 -36t-35.5 -14t-35.5 14.5z" />
    <glyph glyph-name="cedilla" unicode="&#xb8;" horiz-adv-x="283" 
d="M91.5 -162.5q29.5 -4.5 48.5 -4.5q61 0 61 43q0 22 -16.5 33t-50.5 11q-14 0 -22 -1v81h30v-49h7q50 0 77 -19.5t27 -54.5q0 -80 -105 -80q-49 0 -118 18v34q32 -7 61.5 -11.5z" />
    <glyph glyph-name="onesuperior" unicode="&#xb9;" 
d="M176 671h-85l20 35h106v-425h-41v390z" />
    <glyph glyph-name="ordmasculine" unicode="&#xba;" horiz-adv-x="419" 
d="M121 421q-40 22 -64 59.5t-24 82.5t23.5 82.5t63.5 59t88 21.5q49 0 89.5 -21.5t64.5 -59t24 -82.5t-24 -82.5t-65 -59.5t-89 -22q-47 0 -87 22zM273 454.5q29 16.5 46.5 45t17.5 62.5q0 35 -17 63.5t-46.5 45t-64.5 16.5t-64 -16.5t-46 -45t-17 -63.5q0 -34 17 -62.5
t46 -45t64 -16.5t64 16.5z" />
    <glyph glyph-name="guillemotright" unicode="&#xbb;" horiz-adv-x="382" 
d="M22 50l105 162l-103 168l42 26l119 -193l-123 -189zM196 50l105 162l-102 168l42 26l119 -193l-123 -189z" />
    <glyph glyph-name="onequarter" unicode="&#xbc;" horiz-adv-x="893" 
d="M644 722h52l-447 -741h-53zM168 673h-82l20 32h101v-396h-39v364zM752 101h-203l244 309v-277h46v-32h-46v-101h-41v101zM752 133v180l-142 -180h142z" />
    <glyph glyph-name="onehalf" unicode="&#xbd;" horiz-adv-x="893" 
d="M644 722h52l-447 -741h-53zM168 673h-82l20 32h101v-396h-39v364zM649 95l29 28q45 42 69 68t38 50.5t14 49.5q0 23 -12.5 41.5t-35 29t-52.5 10.5q-44 0 -70.5 -25t-26.5 -68v-2h-41v4q0 38 17.5 65.5t49.5 42.5t76 15q42 0 73.5 -14t48.5 -39t17 -58q0 -31 -13 -57
t-32.5 -47t-63.5 -64l-99 -94h206v-31h-289z" />
    <glyph glyph-name="threequarters" unicode="&#xbe;" horiz-adv-x="893" 
d="M644 722h52l-447 -741h-53zM72 327q-37 29 -42 83h44q3 -39 28 -59t71 -20q48 0 74 23t26 61q0 39 -26.5 62.5t-71.5 23.5h-21v34h23q42 0 65.5 19t23.5 52q0 34 -24 54.5t-64 20.5q-36 0 -58.5 -16.5t-26.5 -47.5h-44q4 44 39.5 70t89.5 26q38 0 67.5 -13t46 -36
t16.5 -54q0 -34 -20.5 -58.5t-57.5 -34.5q41 -12 63.5 -38.5t22.5 -63.5q0 -35 -17 -61.5t-49.5 -41t-76.5 -14.5q-64 0 -101 29zM752 101h-203l244 309v-277h46v-32h-46v-101h-41v101zM752 133v180l-142 -180h142z" />
    <glyph glyph-name="questiondown" unicode="&#xbf;" horiz-adv-x="514" 
d="M227 645q-14 14 -14 36t14 36t35 14t35.5 -14.5t14.5 -35.5t-14.5 -35.5t-35.5 -14.5t-35 14zM161 1q-37 20 -57 57t-20 86q0 47 16.5 78.5t44.5 53.5t85 58q7 5 42.5 27t49.5 43.5t14 48.5q0 35 -23 56.5t-60 21.5q-42 0 -66.5 -23t-24.5 -64v-9h-54v12q0 66 39 101
t113 35q40 0 71 -16.5t48.5 -46.5t17.5 -68t-16 -65.5t-42 -48t-75 -51.5q-49 -32 -70.5 -48t-35 -38t-13.5 -53q0 -47 28.5 -75.5t76.5 -28.5q55 0 85.5 34t30.5 97v3h58v-16q0 -55 -21.5 -96t-61.5 -63t-94 -22q-49 0 -86 20z" />
    <glyph glyph-name="Agrave" unicode="&#xc0;" horiz-adv-x="597" 
d="M305 743l301 -743h-71l-91 242h-292l-95 -242h-66zM423 298l-122 311l-127 -311h249zM180 956h80l104 -171h-46z" />
    <glyph glyph-name="Aacute" unicode="&#xc1;" horiz-adv-x="597" 
d="M305 743l301 -743h-71l-91 242h-292l-95 -242h-66zM423 298l-122 311l-127 -311h249zM338 956h80l-138 -171h-46z" />
    <glyph glyph-name="Acircumflex" unicode="&#xc2;" horiz-adv-x="597" 
d="M305 743l301 -743h-71l-91 242h-292l-95 -242h-66zM423 298l-122 311l-127 -311h249zM263 956h71l104 -171h-45l-94 122l-95 -122h-45z" />
    <glyph glyph-name="Atilde" unicode="&#xc3;" horiz-adv-x="597" 
d="M305 743l301 -743h-71l-91 242h-292l-95 -242h-66zM423 298l-122 311l-127 -311h249zM202 881q25 22 62 22q17 0 29 -4l38 -13q17 -5 30 -5q34 0 47 33h43q-12 -44 -37 -67t-60 -23q-15 0 -32 5l-39 13q-12 4 -28 4t-26.5 -7.5t-18.5 -22.5h-43q10 43 35 65z" />
    <glyph glyph-name="Adieresis" unicode="&#xc4;" horiz-adv-x="597" 
d="M305 743l301 -743h-71l-91 242h-292l-95 -242h-66zM423 298l-122 311l-127 -311h249zM179.5 828.5q-13.5 13.5 -13.5 33.5q0 19 14 33.5t33 14.5t33.5 -14.5t14.5 -33.5q0 -20 -14 -33.5t-34 -13.5t-33.5 13.5zM351 828.5q-14 13.5 -14 33.5q0 19 14.5 33.5t33.5 14.5
t33 -14.5t14 -33.5q0 -20 -13.5 -33.5t-33.5 -13.5t-34 13.5z" />
    <glyph glyph-name="Aring" unicode="&#xc5;" horiz-adv-x="597" 
d="M247.5 748.5q-26.5 15.5 -42 42t-15.5 57.5t15.5 57.5t42 42t57.5 15.5q32 0 58.5 -15t41.5 -41.5t15 -58.5q0 -31 -15.5 -57.5t-42 -42t-57.5 -15.5t-57.5 15.5zM338 791.5q15 8.5 23.5 23.5t8.5 33q0 28 -19 46.5t-46 18.5q-18 0 -33 -8.5t-23.5 -23.5t-8.5 -33
t8.5 -33t23.5 -23.5t33 -8.5t33 8.5zM296 713h19l291 -713h-71l-91 242h-292l-95 -242h-66zM423 298l-122 309l-127 -309h249z" />
    <glyph glyph-name="AE" unicode="&#xc6;" horiz-adv-x="824" 
d="M262 715h302l20 -61h-247l77 -224h257l21 -61h-257l105 -308h260l20 -61h-325l-83 242h-260l-86 -242h-62zM393 298l-106 323l-117 -323h223z" />
    <glyph glyph-name="Ccedilla" unicode="&#xc7;" horiz-adv-x="715" 
d="M238.5 28q-85.5 47 -134.5 133t-49 196q0 108 49.5 193t135.5 133t191 48q137 0 233 -75l-2 -72q-53 46 -108 68t-117 22q-92 0 -163 -40.5t-110 -112.5t-39 -164q0 -94 39.5 -165.5t108.5 -111t155 -39.5q62 0 121 21t110 62l-1 -76q-51 -32 -110.5 -49.5t-116.5 -17.5
q-107 0 -192.5 47zM378.5 -162.5q29.5 -4.5 48.5 -4.5q61 0 61 43q0 22 -16.5 33t-50.5 11q-14 0 -22 -1v81h30v-49h7q50 0 77 -19.5t27 -54.5q0 -80 -105 -80q-49 0 -118 18v34q32 -7 61.5 -11.5z" />
    <glyph glyph-name="Egrave" unicode="&#xc8;" horiz-adv-x="513" 
d="M89 715h354v-61h-289v-224h289v-61h-289v-308h289v-61h-354v715zM145 956h80l104 -171h-46z" />
    <glyph glyph-name="Eacute" unicode="&#xc9;" horiz-adv-x="513" 
d="M89 715h354v-61h-289v-224h289v-61h-289v-308h289v-61h-354v715zM303 956h80l-138 -171h-46z" />
    <glyph glyph-name="Ecircumflex" unicode="&#xca;" horiz-adv-x="513" 
d="M89 715h354v-61h-289v-224h289v-61h-289v-308h289v-61h-354v715zM228 956h71l104 -171h-45l-94 122l-95 -122h-45z" />
    <glyph glyph-name="Edieresis" unicode="&#xcb;" horiz-adv-x="513" 
d="M89 715h354v-61h-289v-224h289v-61h-289v-308h289v-61h-354v715zM144.5 828.5q-13.5 13.5 -13.5 33.5q0 19 14 33.5t33 14.5t33.5 -14.5t14.5 -33.5q0 -20 -14 -33.5t-34 -13.5t-33.5 13.5zM316 828.5q-14 13.5 -14 33.5q0 19 14.5 33.5t33.5 14.5t33 -14.5t14 -33.5
q0 -20 -13.5 -33.5t-33.5 -13.5t-34 13.5z" />
    <glyph glyph-name="Igrave" unicode="&#xcc;" horiz-adv-x="243" 
d="M154 715v-715h-65v715h65zM3 956h80l104 -171h-46z" />
    <glyph glyph-name="Iacute" unicode="&#xcd;" horiz-adv-x="243" 
d="M154 715v-715h-65v715h65zM161 956h80l-138 -171h-46z" />
    <glyph glyph-name="Icircumflex" unicode="&#xce;" horiz-adv-x="243" 
d="M154 715v-715h-65v715h65zM86 956h71l104 -171h-45l-94 122l-95 -122h-45z" />
    <glyph glyph-name="Idieresis" unicode="&#xcf;" horiz-adv-x="243" 
d="M154 715v-715h-65v715h65zM2.5 828.5q-13.5 13.5 -13.5 33.5q0 19 14 33.5t33 14.5t33.5 -14.5t14.5 -33.5q0 -20 -14 -33.5t-34 -13.5t-33.5 13.5zM174 828.5q-14 13.5 -14 33.5q0 19 14.5 33.5t33.5 14.5t33 -14.5t14 -33.5q0 -20 -13.5 -33.5t-33.5 -13.5t-34 13.5z
" />
    <glyph glyph-name="Eth" unicode="&#xd0;" horiz-adv-x="701" 
d="M94 372h-94v50h94v293h111q87 0 138 -3.5t97.5 -17.5t83.5 -44q59 -48 90.5 -123t31.5 -170q0 -96 -31.5 -170.5t-91.5 -121.5q-37 -29 -80.5 -43t-90 -18t-116.5 -4h-142v372zM254 56q55 0 90.5 2.5t67 11.5t57.5 27q51 37 79 104t28 157q0 73 -18.5 131t-53.5 97
q-31 35 -69.5 51t-82.5 20t-117 4h-76v-239h208v-50h-208v-316h95z" />
    <glyph glyph-name="Ntilde" unicode="&#xd1;" horiz-adv-x="745" 
d="M154 578v-578h-65v745l502 -598v568h65v-736zM276 881q25 22 62 22q17 0 29 -4l38 -13q17 -5 30 -5q34 0 47 33h43q-12 -44 -37 -67t-60 -23q-15 0 -32 5l-39 13q-12 4 -28 4t-26.5 -7.5t-18.5 -22.5h-43q10 43 35 65z" />
    <glyph glyph-name="Ograve" unicode="&#xd2;" horiz-adv-x="875" 
d="M290 9.5q-69 28.5 -123 81.5t-83 121.5t-29 143.5q0 77 28.5 145.5t83.5 121.5q54 53 122.5 80.5t147.5 27.5t148 -27.5t123 -80.5t83 -122t29 -145t-29 -144t-83 -121q-55 -53 -124.5 -81.5t-146.5 -28.5q-78 0 -147 28.5zM595 81.5q72 42.5 114 115t42 159.5t-42 160
t-114 115.5t-158 42.5q-85 0 -157 -42.5t-114 -115.5t-42 -160t41.5 -159.5t113.5 -115t158 -42.5t158 42.5zM319 956h80l104 -171h-46z" />
    <glyph glyph-name="Oacute" unicode="&#xd3;" horiz-adv-x="875" 
d="M290 9.5q-69 28.5 -123 81.5t-83 121.5t-29 143.5q0 77 28.5 145.5t83.5 121.5q54 53 122.5 80.5t147.5 27.5t148 -27.5t123 -80.5t83 -122t29 -145t-29 -144t-83 -121q-55 -53 -124.5 -81.5t-146.5 -28.5q-78 0 -147 28.5zM595 81.5q72 42.5 114 115t42 159.5t-42 160
t-114 115.5t-158 42.5q-85 0 -157 -42.5t-114 -115.5t-42 -160t41.5 -159.5t113.5 -115t158 -42.5t158 42.5zM477 956h80l-138 -171h-46z" />
    <glyph glyph-name="Ocircumflex" unicode="&#xd4;" horiz-adv-x="875" 
d="M290 9.5q-69 28.5 -123 81.5t-83 121.5t-29 143.5q0 77 28.5 145.5t83.5 121.5q54 53 122.5 80.5t147.5 27.5t148 -27.5t123 -80.5t83 -122t29 -145t-29 -144t-83 -121q-55 -53 -124.5 -81.5t-146.5 -28.5q-78 0 -147 28.5zM595 81.5q72 42.5 114 115t42 159.5t-42 160
t-114 115.5t-158 42.5q-85 0 -157 -42.5t-114 -115.5t-42 -160t41.5 -159.5t113.5 -115t158 -42.5t158 42.5zM402 956h71l104 -171h-45l-94 122l-95 -122h-45z" />
    <glyph glyph-name="Otilde" unicode="&#xd5;" horiz-adv-x="875" 
d="M290 9.5q-69 28.5 -123 81.5t-83 121.5t-29 143.5q0 77 28.5 145.5t83.5 121.5q54 53 122.5 80.5t147.5 27.5t148 -27.5t123 -80.5t83 -122t29 -145t-29 -144t-83 -121q-55 -53 -124.5 -81.5t-146.5 -28.5q-78 0 -147 28.5zM595 81.5q72 42.5 114 115t42 159.5t-42 160
t-114 115.5t-158 42.5q-85 0 -157 -42.5t-114 -115.5t-42 -160t41.5 -159.5t113.5 -115t158 -42.5t158 42.5zM341 881q25 22 62 22q17 0 29 -4l38 -13q17 -5 30 -5q34 0 47 33h43q-12 -44 -37 -67t-60 -23q-15 0 -32 5l-39 13q-12 4 -28 4t-26.5 -7.5t-18.5 -22.5h-43
q10 43 35 65z" />
    <glyph glyph-name="Odieresis" unicode="&#xd6;" horiz-adv-x="875" 
d="M290 9.5q-69 28.5 -123 81.5t-83 121.5t-29 143.5q0 77 28.5 145.5t83.5 121.5q54 53 122.5 80.5t147.5 27.5t148 -27.5t123 -80.5t83 -122t29 -145t-29 -144t-83 -121q-55 -53 -124.5 -81.5t-146.5 -28.5q-78 0 -147 28.5zM595 81.5q72 42.5 114 115t42 159.5t-42 160
t-114 115.5t-158 42.5q-85 0 -157 -42.5t-114 -115.5t-42 -160t41.5 -159.5t113.5 -115t158 -42.5t158 42.5zM318.5 828.5q-13.5 13.5 -13.5 33.5q0 19 14 33.5t33 14.5t33.5 -14.5t14.5 -33.5q0 -20 -14 -33.5t-34 -13.5t-33.5 13.5zM490 828.5q-14 13.5 -14 33.5
q0 19 14.5 33.5t33.5 14.5t33 -14.5t14 -33.5q0 -20 -13.5 -33.5t-33.5 -13.5t-34 13.5z" />
    <glyph glyph-name="multiply" unicode="&#xd7;" horiz-adv-x="833" 
d="M151 60l238 238l-238 238l28 28l238 -238l238 238l28 -28l-238 -238l238 -238l-28 -28l-238 238l-238 -238z" />
    <glyph glyph-name="Oslash" unicode="&#xd8;" horiz-adv-x="875" 
d="M75 12l86 88q-51 48 -78.5 115t-27.5 142q0 76 28.5 144t83.5 121q54 53 123.5 81.5t146.5 28.5q74 0 138 -23t113 -68l90 94l34 -33l-91 -93q47 -51 73 -117t26 -135q0 -85 -36 -160t-104 -129q-51 -41 -114 -62.5t-134 -21.5q-69 0 -126.5 20.5t-111.5 63.5l-87 -90z
M644 596q-45 40 -96 59t-111 19q-85 0 -156.5 -42.5t-113.5 -115t-42 -159.5q0 -60 19.5 -110t61.5 -102zM594 83q72 42 114.5 114.5t42.5 159.5q0 57 -18 106t-57 100l-437 -449q48 -38 95.5 -55.5t102.5 -17.5q85 0 157 42z" />
    <glyph glyph-name="Ugrave" unicode="&#xd9;" horiz-adv-x="692" 
d="M151 715v-467q0 -105 48 -157t147 -52t147 52t48 157v467h65v-446q0 -91 -26 -155q-55 -133 -234 -133t-234 134q-26 63 -26 154v446h65zM227 956h80l104 -171h-46z" />
    <glyph glyph-name="Uacute" unicode="&#xda;" horiz-adv-x="692" 
d="M151 715v-467q0 -105 48 -157t147 -52t147 52t48 157v467h65v-446q0 -91 -26 -155q-55 -133 -234 -133t-234 134q-26 63 -26 154v446h65zM385 956h80l-138 -171h-46z" />
    <glyph glyph-name="Ucircumflex" unicode="&#xdb;" horiz-adv-x="692" 
d="M151 715v-467q0 -105 48 -157t147 -52t147 52t48 157v467h65v-446q0 -91 -26 -155q-55 -133 -234 -133t-234 134q-26 63 -26 154v446h65zM310 956h71l104 -171h-45l-94 122l-95 -122h-45z" />
    <glyph glyph-name="Udieresis" unicode="&#xdc;" horiz-adv-x="692" 
d="M151 715v-467q0 -105 48 -157t147 -52t147 52t48 157v467h65v-446q0 -91 -26 -155q-55 -133 -234 -133t-234 134q-26 63 -26 154v446h65zM226.5 828.5q-13.5 13.5 -13.5 33.5q0 19 14 33.5t33 14.5t33.5 -14.5t14.5 -33.5q0 -20 -14 -33.5t-34 -13.5t-33.5 13.5z
M398 828.5q-14 13.5 -14 33.5q0 19 14.5 33.5t33.5 14.5t33 -14.5t14 -33.5q0 -20 -13.5 -33.5t-33.5 -13.5t-34 13.5z" />
    <glyph glyph-name="Yacute" unicode="&#xdd;" horiz-adv-x="546" 
d="M242 329l-237 386h78l192 -328l193 328h74l-235 -386v-329h-65v329zM312 956h80l-138 -171h-46z" />
    <glyph glyph-name="Thorn" unicode="&#xde;" horiz-adv-x="500" 
d="M89 715h65v-146h65q43 0 72 -2t55.5 -10t49.5 -25q33 -24 52 -66t19 -94q0 -104 -58.5 -151t-179.5 -47h-75v-174h-65v715zM198 231q72 0 113.5 9t64 38.5t22.5 87.5q0 38 -12.5 68t-35.5 49q-22 18 -56 23t-96 5h-44v-280h44z" />
    <glyph glyph-name="germandbls" unicode="&#xdf;" horiz-adv-x="517" 
d="M201 -10v64q29 -15 64 -15q66 0 103.5 45t37.5 128q0 86 -41 132.5t-117 46.5l-36 -2v61q8 -1 24 -1q64 0 95 32.5t31 99.5q0 64 -30 97.5t-88 33.5q-30 0 -54 -12.5t-37 -35.5q-11 -19 -14.5 -46t-3.5 -70v-548h-60v382h-59v51h59v145q0 92 46 140.5t128 48.5
q53 0 92.5 -23t61 -66t21.5 -101q0 -56 -27 -95.5t-79 -59.5q74 -8 112.5 -62t38.5 -149q0 -70 -25.5 -122.5t-72.5 -81.5t-110 -29q-28 0 -60 12z" />
    <glyph glyph-name="agrave" unicode="&#xe0;" horiz-adv-x="541" 
d="M140 10q-47 29 -73 82t-26 122t26 122.5t71.5 83t103.5 29.5q55 0 95.5 -24t62.5 -71v79h60v-433h-60v79q-21 -48 -60 -73t-92 -25q-61 0 -108 29zM331 58.5q33 21.5 51.5 63.5t18.5 101q0 53 -18 91.5t-51 59t-77 20.5t-77 -21.5t-51.5 -62.5t-18.5 -98q0 -84 38 -129.5
t108 -45.5q44 0 77 21.5zM152 674h80l104 -171h-46z" />
    <glyph glyph-name="aacute" unicode="&#xe1;" horiz-adv-x="541" 
d="M140 10q-47 29 -73 82t-26 122t26 122.5t71.5 83t103.5 29.5q55 0 95.5 -24t62.5 -71v79h60v-433h-60v79q-21 -48 -60 -73t-92 -25q-61 0 -108 29zM331 58.5q33 21.5 51.5 63.5t18.5 101q0 53 -18 91.5t-51 59t-77 20.5t-77 -21.5t-51.5 -62.5t-18.5 -98q0 -84 38 -129.5
t108 -45.5q44 0 77 21.5zM310 674h80l-138 -171h-46z" />
    <glyph glyph-name="acircumflex" unicode="&#xe2;" horiz-adv-x="541" 
d="M140 10q-47 29 -73 82t-26 122t26 122.5t71.5 83t103.5 29.5q55 0 95.5 -24t62.5 -71v79h60v-433h-60v79q-21 -48 -60 -73t-92 -25q-61 0 -108 29zM331 58.5q33 21.5 51.5 63.5t18.5 101q0 53 -18 91.5t-51 59t-77 20.5t-77 -21.5t-51.5 -62.5t-18.5 -98q0 -84 38 -129.5
t108 -45.5q44 0 77 21.5zM235 674h71l104 -171h-45l-94 122l-95 -122h-45z" />
    <glyph glyph-name="atilde" unicode="&#xe3;" horiz-adv-x="541" 
d="M140 10q-47 29 -73 82t-26 122t26 122.5t71.5 83t103.5 29.5q55 0 95.5 -24t62.5 -71v79h60v-433h-60v79q-21 -48 -60 -73t-92 -25q-61 0 -108 29zM331 58.5q33 21.5 51.5 63.5t18.5 101q0 53 -18 91.5t-51 59t-77 20.5t-77 -21.5t-51.5 -62.5t-18.5 -98q0 -84 38 -129.5
t108 -45.5q44 0 77 21.5zM174 599q25 22 62 22q17 0 29 -4l38 -13q17 -5 30 -5q34 0 47 33h43q-12 -44 -37 -67t-60 -23q-15 0 -32 5l-39 13q-12 4 -28 4t-26.5 -7.5t-18.5 -22.5h-43q10 43 35 65z" />
    <glyph glyph-name="adieresis" unicode="&#xe4;" horiz-adv-x="541" 
d="M140 10q-47 29 -73 82t-26 122t26 122.5t71.5 83t103.5 29.5q55 0 95.5 -24t62.5 -71v79h60v-433h-60v79q-21 -48 -60 -73t-92 -25q-61 0 -108 29zM331 58.5q33 21.5 51.5 63.5t18.5 101q0 53 -18 91.5t-51 59t-77 20.5t-77 -21.5t-51.5 -62.5t-18.5 -98q0 -84 38 -129.5
t108 -45.5q44 0 77 21.5zM151.5 546.5q-13.5 13.5 -13.5 33.5q0 19 14 33.5t33 14.5t33.5 -14.5t14.5 -33.5q0 -20 -14 -33.5t-34 -13.5t-33.5 13.5zM323 546.5q-14 13.5 -14 33.5q0 19 14.5 33.5t33.5 14.5t33 -14.5t14 -33.5q0 -20 -13.5 -33.5t-33.5 -13.5t-34 13.5z" />
    <glyph glyph-name="aring" unicode="&#xe5;" horiz-adv-x="541" 
d="M140 10q-47 29 -73 82t-26 122t26 122.5t71.5 83t103.5 29.5q55 0 95.5 -24t62.5 -71v79h60v-433h-60v79q-21 -48 -60 -73t-92 -25q-61 0 -108 29zM331 58.5q33 21.5 51.5 63.5t18.5 101q0 53 -18 91.5t-51 59t-77 20.5t-77 -21.5t-51.5 -62.5t-18.5 -98q0 -84 38 -129.5
t108 -45.5q44 0 77 21.5zM198.5 496.5q-26.5 15.5 -42 42t-15.5 57.5t15.5 57.5t42 42t57.5 15.5q32 0 58.5 -15t41.5 -41.5t15 -58.5q0 -31 -15.5 -57.5t-42 -42t-57.5 -15.5t-57.5 15.5zM289 539.5q15 8.5 23.5 23.5t8.5 33t-8.5 33t-23.5 24t-33 9t-33 -9t-23.5 -24
t-8.5 -33t8.5 -33t23.5 -23.5t33 -8.5t33 8.5z" />
    <glyph glyph-name="ae" unicode="&#xe6;" horiz-adv-x="793" 
d="M112 -2q-37 18 -57 49.5t-20 72.5q0 42 21.5 75.5t61.5 52.5t94 19q82 0 135 -45l2 34q0 71 -33.5 106t-101.5 35q-38 0 -73.5 -9.5t-73.5 -28.5l1 64q77 27 151 27q66 0 111 -25t56 -67q22 43 65 66.5t96 23.5q60 0 106 -27t71 -77t25 -118v-12h-344q2 -56 20.5 -96
t50 -61t73.5 -21q100 0 146 103l57 -30q-35 -66 -83.5 -97.5t-118.5 -31.5q-61 0 -103.5 26t-73.5 82q-17 -51 -63 -79.5t-111 -28.5q-50 0 -87 18zM678 265q-4 60 -39.5 93t-95.5 33q-35 0 -64.5 -15.5t-48 -44.5t-21.5 -66h269zM282.5 48q29.5 13 45 35t15.5 49
q0 24 -14.5 42.5t-42 29t-64.5 10.5q-58 0 -89.5 -24.5t-31.5 -67.5q0 -41 29.5 -64t84.5 -23q38 0 67.5 13z" />
    <glyph glyph-name="ccedilla" unicode="&#xe7;" horiz-adv-x="456" 
d="M154 9q-51 30 -80 83t-29 119q0 69 30 123.5t84 84.5t124 30q38 0 73 -7.5t62 -21.5l-1 -66q-62 42 -135 42q-54 0 -93.5 -23.5t-61 -66.5t-21.5 -99q0 -49 22 -89t62.5 -63t91.5 -23q36 0 72 12.5t70 36.5l1 -66q-66 -36 -154 -36q-66 0 -117 30zM224.5 -162.5
q29.5 -4.5 48.5 -4.5q61 0 61 43q0 22 -16.5 33t-50.5 11q-14 0 -22 -1v81h30v-49h7q50 0 77 -19.5t27 -54.5q0 -80 -105 -80q-49 0 -118 18v34q32 -7 61.5 -11.5z" />
    <glyph glyph-name="egrave" unicode="&#xe8;" horiz-adv-x="497" 
d="M145 10.5q-48 29.5 -75 82t-27 119.5q0 71 27 124.5t75 83t109 29.5q58 0 103 -26.5t70 -76.5t25 -116v-15h-344q1 -56 20 -96.5t52 -62t76 -21.5q48 0 83.5 26t60.5 78l55 -30q-33 -66 -81 -97t-118 -31q-63 0 -111 29.5zM381 266q-4 60 -39.5 92.5t-95.5 32.5
q-35 0 -64.5 -15.5t-48 -44t-21.5 -65.5h269zM130 674h80l104 -171h-46z" />
    <glyph glyph-name="eacute" unicode="&#xe9;" horiz-adv-x="497" 
d="M145 10.5q-48 29.5 -75 82t-27 119.5q0 71 27 124.5t75 83t109 29.5q58 0 103 -26.5t70 -76.5t25 -116v-15h-344q1 -56 20 -96.5t52 -62t76 -21.5q48 0 83.5 26t60.5 78l55 -30q-33 -66 -81 -97t-118 -31q-63 0 -111 29.5zM381 266q-4 60 -39.5 92.5t-95.5 32.5
q-35 0 -64.5 -15.5t-48 -44t-21.5 -65.5h269zM288 674h80l-138 -171h-46z" />
    <glyph glyph-name="ecircumflex" unicode="&#xea;" horiz-adv-x="497" 
d="M145 10.5q-48 29.5 -75 82t-27 119.5q0 71 27 124.5t75 83t109 29.5q58 0 103 -26.5t70 -76.5t25 -116v-15h-344q1 -56 20 -96.5t52 -62t76 -21.5q48 0 83.5 26t60.5 78l55 -30q-33 -66 -81 -97t-118 -31q-63 0 -111 29.5zM381 266q-4 60 -39.5 92.5t-95.5 32.5
q-35 0 -64.5 -15.5t-48 -44t-21.5 -65.5h269zM213 674h71l104 -171h-45l-94 122l-95 -122h-45z" />
    <glyph glyph-name="edieresis" unicode="&#xeb;" horiz-adv-x="497" 
d="M145 10.5q-48 29.5 -75 82t-27 119.5q0 71 27 124.5t75 83t109 29.5q58 0 103 -26.5t70 -76.5t25 -116v-15h-344q1 -56 20 -96.5t52 -62t76 -21.5q48 0 83.5 26t60.5 78l55 -30q-33 -66 -81 -97t-118 -31q-63 0 -111 29.5zM381 266q-4 60 -39.5 92.5t-95.5 32.5
q-35 0 -64.5 -15.5t-48 -44t-21.5 -65.5h269zM129.5 546.5q-13.5 13.5 -13.5 33.5q0 19 14 33.5t33 14.5t33.5 -14.5t14.5 -33.5q0 -20 -14 -33.5t-34 -13.5t-33.5 13.5zM301 546.5q-14 13.5 -14 33.5q0 19 14.5 33.5t33.5 14.5t33 -14.5t14 -33.5q0 -20 -13.5 -33.5
t-33.5 -13.5t-34 13.5z" />
    <glyph glyph-name="igrave" unicode="&#xec;" horiz-adv-x="230" 
d="M85 433h60v-433h-60v433zM-4 674h80l104 -171h-46z" />
    <glyph glyph-name="iacute" unicode="&#xed;" horiz-adv-x="230" 
d="M85 433h60v-433h-60v433zM154 674h80l-138 -171h-46z" />
    <glyph glyph-name="icircumflex" unicode="&#xee;" horiz-adv-x="230" 
d="M85 433h60v-433h-60v433zM79 674h71l104 -171h-45l-94 122l-95 -122h-45z" />
    <glyph glyph-name="idieresis" unicode="&#xef;" horiz-adv-x="230" 
d="M85 433h60v-433h-60v433zM-4.5 546.5q-13.5 13.5 -13.5 33.5q0 19 14 33.5t33 14.5t33.5 -14.5t14.5 -33.5q0 -20 -14 -33.5t-34 -13.5t-33.5 13.5zM167 546.5q-14 13.5 -14 33.5q0 19 14.5 33.5t33.5 14.5t33 -14.5t14 -33.5q0 -20 -13.5 -33.5t-33.5 -13.5t-34 13.5z
" />
    <glyph glyph-name="eth" unicode="&#xf0;" horiz-adv-x="556" 
d="M159 11q-54 30 -86 82t-32 114q0 61 32 113t84.5 82.5t110.5 30.5q46 0 86.5 -17.5t81.5 -53.5q-16 61 -56.5 123.5t-101.5 116.5l-153 -71l-23 40l135 64q-49 38 -119 77l29 44q89 -52 145 -96l167 78l25 -41l-150 -72q89 -88 134.5 -185t45.5 -198q0 -80 -30 -139
t-84 -90.5t-123 -31.5q-64 0 -118 30zM362 60q39 23 62 62.5t23 86.5t-22.5 86.5t-61.5 62.5t-86 23t-86 -23t-61.5 -62.5t-22.5 -86.5t22.5 -86.5t61.5 -62.5t86 -23q46 0 85 23z" />
    <glyph glyph-name="ntilde" unicode="&#xf1;" horiz-adv-x="521" 
d="M80 433h57v-67q53 83 153 83q73 0 114.5 -40.5t41.5 -114.5v-294h-60v267q0 65 -27.5 96.5t-84.5 31.5q-70 0 -102 -41.5t-32 -127.5v-226h-60v433zM164 599q25 22 62 22q17 0 29 -4l38 -13q17 -5 30 -5q34 0 47 33h43q-12 -44 -37 -67t-60 -23q-15 0 -32 5l-39 13
q-12 4 -28 4t-26.5 -7.5t-18.5 -22.5h-43q10 43 35 65z" />
    <glyph glyph-name="ograve" unicode="&#xf2;" horiz-adv-x="558" 
d="M160.5 12q-53.5 31 -85 85t-31.5 119q0 64 31.5 117.5t84.5 84.5t117 31q65 0 119.5 -31t86 -84.5t31.5 -117.5t-32 -118t-86.5 -85.5t-118.5 -31.5q-63 0 -116.5 31zM364 60.5q39 23.5 62 64.5t23 90q0 50 -23 90.5t-62 64t-85 23.5q-47 0 -86 -23.5t-61.5 -64
t-22.5 -90.5q0 -49 23 -90t62 -64.5t85 -23.5t85 23.5zM160 674h80l104 -171h-46z" />
    <glyph glyph-name="oacute" unicode="&#xf3;" horiz-adv-x="558" 
d="M160.5 12q-53.5 31 -85 85t-31.5 119q0 64 31.5 117.5t84.5 84.5t117 31q65 0 119.5 -31t86 -84.5t31.5 -117.5t-32 -118t-86.5 -85.5t-118.5 -31.5q-63 0 -116.5 31zM364 60.5q39 23.5 62 64.5t23 90q0 50 -23 90.5t-62 64t-85 23.5q-47 0 -86 -23.5t-61.5 -64
t-22.5 -90.5q0 -49 23 -90t62 -64.5t85 -23.5t85 23.5zM318 674h80l-138 -171h-46z" />
    <glyph glyph-name="ocircumflex" unicode="&#xf4;" horiz-adv-x="558" 
d="M160.5 12q-53.5 31 -85 85t-31.5 119q0 64 31.5 117.5t84.5 84.5t117 31q65 0 119.5 -31t86 -84.5t31.5 -117.5t-32 -118t-86.5 -85.5t-118.5 -31.5q-63 0 -116.5 31zM364 60.5q39 23.5 62 64.5t23 90q0 50 -23 90.5t-62 64t-85 23.5q-47 0 -86 -23.5t-61.5 -64
t-22.5 -90.5q0 -49 23 -90t62 -64.5t85 -23.5t85 23.5zM243 674h71l104 -171h-45l-94 122l-95 -122h-45z" />
    <glyph glyph-name="otilde" unicode="&#xf5;" horiz-adv-x="558" 
d="M160.5 12q-53.5 31 -85 85t-31.5 119q0 64 31.5 117.5t84.5 84.5t117 31q65 0 119.5 -31t86 -84.5t31.5 -117.5t-32 -118t-86.5 -85.5t-118.5 -31.5q-63 0 -116.5 31zM364 60.5q39 23.5 62 64.5t23 90q0 50 -23 90.5t-62 64t-85 23.5q-47 0 -86 -23.5t-61.5 -64
t-22.5 -90.5q0 -49 23 -90t62 -64.5t85 -23.5t85 23.5zM182 599q25 22 62 22q17 0 29 -4l38 -13q17 -5 30 -5q34 0 47 33h43q-12 -44 -37 -67t-60 -23q-15 0 -32 5l-39 13q-12 4 -28 4t-26.5 -7.5t-18.5 -22.5h-43q10 43 35 65z" />
    <glyph glyph-name="odieresis" unicode="&#xf6;" horiz-adv-x="558" 
d="M160.5 12q-53.5 31 -85 85t-31.5 119q0 64 31.5 117.5t84.5 84.5t117 31q65 0 119.5 -31t86 -84.5t31.5 -117.5t-32 -118t-86.5 -85.5t-118.5 -31.5q-63 0 -116.5 31zM364 60.5q39 23.5 62 64.5t23 90q0 50 -23 90.5t-62 64t-85 23.5q-47 0 -86 -23.5t-61.5 -64
t-22.5 -90.5q0 -49 23 -90t62 -64.5t85 -23.5t85 23.5zM159.5 546.5q-13.5 13.5 -13.5 33.5q0 19 14 33.5t33 14.5t33.5 -14.5t14.5 -33.5q0 -20 -14 -33.5t-34 -13.5t-33.5 13.5zM331 546.5q-14 13.5 -14 33.5q0 19 14.5 33.5t33.5 14.5t33 -14.5t14 -33.5
q0 -20 -13.5 -33.5t-33.5 -13.5t-34 13.5z" />
    <glyph glyph-name="divide" unicode="&#xf7;" horiz-adv-x="833" 
d="M383 432.5q-14 14.5 -14 34.5t14 34t34 14t34 -14t14 -34t-14 -34.5t-34 -14.5t-34 14.5zM124 318h585v-39h-585v39zM383 95.5q-14 13.5 -14 34.5q0 20 14.5 34.5t33.5 14.5q20 0 34 -14.5t14 -34.5t-14 -34t-34 -14t-34 13.5z" />
    <glyph glyph-name="oslash" unicode="&#xf8;" horiz-adv-x="558" 
d="M45 9l54 55q-29 36 -42.5 71t-13.5 76q0 65 31 119.5t85 86.5t122 32q42 0 76.5 -13t70.5 -41l54 55l30 -28l-55 -54q29 -38 43 -74t14 -77q0 -68 -32.5 -121.5t-87.5 -84t-121 -30.5q-41 0 -75 13t-69 42l-57 -56zM387 353q-23 20 -48 30t-55 10q-50 0 -90 -23
t-62.5 -64t-22.5 -94q0 -28 8.5 -53t25.5 -51zM363.5 61q39.5 23 62 64t22.5 92q0 29 -8 54.5t-25 52.5l-246 -246q26 -21 51 -30.5t55 -9.5q49 0 88.5 23z" />
    <glyph glyph-name="ugrave" unicode="&#xf9;" horiz-adv-x="527" 
d="M127 33q-47 52 -47 153v247h60v-216q0 -63 11 -102t38 -58.5t74 -19.5t74 19.5t38.5 58.5t11.5 102v216h60v-247q0 -102 -46.5 -153.5t-136.5 -51.5t-137 52zM145 674h80l104 -171h-46z" />
    <glyph glyph-name="uacute" unicode="&#xfa;" horiz-adv-x="527" 
d="M127 33q-47 52 -47 153v247h60v-216q0 -63 11 -102t38 -58.5t74 -19.5t74 19.5t38.5 58.5t11.5 102v216h60v-247q0 -102 -46.5 -153.5t-136.5 -51.5t-137 52zM303 674h80l-138 -171h-46z" />
    <glyph glyph-name="ucircumflex" unicode="&#xfb;" horiz-adv-x="527" 
d="M127 33q-47 52 -47 153v247h60v-216q0 -63 11 -102t38 -58.5t74 -19.5t74 19.5t38.5 58.5t11.5 102v216h60v-247q0 -102 -46.5 -153.5t-136.5 -51.5t-137 52zM228 674h71l104 -171h-45l-94 122l-95 -122h-45z" />
    <glyph glyph-name="udieresis" unicode="&#xfc;" horiz-adv-x="527" 
d="M127 33q-47 52 -47 153v247h60v-216q0 -63 11 -102t38 -58.5t74 -19.5t74 19.5t38.5 58.5t11.5 102v216h60v-247q0 -102 -46.5 -153.5t-136.5 -51.5t-137 52zM144.5 546.5q-13.5 13.5 -13.5 33.5q0 19 14 33.5t33 14.5t33.5 -14.5t14.5 -33.5q0 -20 -14 -33.5t-34 -13.5
t-33.5 13.5zM316 546.5q-14 13.5 -14 33.5q0 19 14.5 33.5t33.5 14.5t33 -14.5t14 -33.5q0 -20 -13.5 -33.5t-33.5 -13.5t-34 13.5z" />
    <glyph glyph-name="yacute" unicode="&#xfd;" horiz-adv-x="403" 
d="M177 3l-156 430h64l124 -339l114 339h64l-224 -651h-62zM241 674h80l-138 -171h-46z" />
    <glyph glyph-name="thorn" unicode="&#xfe;" horiz-adv-x="541" 
d="M80 757h58v-405q19 45 61 71t94 26q60 0 106 -29t71.5 -82t25.5 -123q0 -73 -25.5 -125.5t-70.5 -80.5t-104 -28q-53 0 -93 25t-65 74v-298h-58v975zM366.5 58q31.5 21 48 60.5t16.5 95.5t-17 96.5t-49.5 62t-77.5 21.5t-78 -20.5t-51.5 -59.5t-18.5 -95q0 -57 20 -98
t55 -62.5t79 -21.5q42 0 73.5 21z" />
    <glyph glyph-name="ydieresis" unicode="&#xff;" horiz-adv-x="403" 
d="M177 3l-156 430h64l124 -339l114 339h64l-224 -651h-62zM82.5 546.5q-13.5 13.5 -13.5 33.5q0 19 14 33.5t33 14.5t33.5 -14.5t14.5 -33.5q0 -20 -14 -33.5t-34 -13.5t-33.5 13.5zM254 546.5q-14 13.5 -14 33.5q0 19 14.5 33.5t33.5 14.5t33 -14.5t14 -33.5
q0 -20 -13.5 -33.5t-33.5 -13.5t-34 13.5z" />
    <glyph glyph-name="Amacron" unicode="&#x100;" horiz-adv-x="597" 
d="M305 743l301 -743h-71l-91 242h-292l-95 -242h-66zM423 298l-122 311l-127 -311h249zM173 885h252v-57h-252v57z" />
    <glyph glyph-name="amacron" unicode="&#x101;" horiz-adv-x="541" 
d="M140 10q-47 29 -73 82t-26 122t26 122.5t71.5 83t103.5 29.5q55 0 95.5 -24t62.5 -71v79h60v-433h-60v79q-21 -48 -60 -73t-92 -25q-61 0 -108 29zM331 58.5q33 21.5 51.5 63.5t18.5 101q0 53 -18 91.5t-51 59t-77 20.5t-77 -21.5t-51.5 -62.5t-18.5 -98q0 -84 38 -129.5
t108 -45.5q44 0 77 21.5zM145 603h252v-57h-252v57z" />
    <glyph glyph-name="Abreve" unicode="&#x102;" horiz-adv-x="597" 
d="M305 743l301 -743h-71l-91 242h-292l-95 -242h-66zM423 298l-122 311l-127 -311h249zM204 820q-32 28 -39 89h39q5 -33 28 -48t67 -15t66.5 15t27.5 48h40q-7 -61 -39 -89t-95 -28t-95 28z" />
    <glyph glyph-name="abreve" unicode="&#x103;" horiz-adv-x="541" 
d="M140 10q-47 29 -73 82t-26 122t26 122.5t71.5 83t103.5 29.5q55 0 95.5 -24t62.5 -71v79h60v-433h-60v79q-21 -48 -60 -73t-92 -25q-61 0 -108 29zM331 58.5q33 21.5 51.5 63.5t18.5 101q0 53 -18 91.5t-51 59t-77 20.5t-77 -21.5t-51.5 -62.5t-18.5 -98q0 -84 38 -129.5
t108 -45.5q44 0 77 21.5zM176 538q-32 28 -39 89h39q5 -33 28 -48t67 -15t66.5 15t27.5 48h40q-7 -61 -39 -89t-95 -28t-95 28z" />
    <glyph glyph-name="Aogonek" unicode="&#x104;" horiz-adv-x="597" 
d="M305 743l301 -743h-71l-91 242h-292l-95 -242h-66zM423 298l-122 311l-127 -311h249zM521 -111q0 -21 12.5 -32.5t30.5 -11.5q20 0 38 7v-50q-23 -8 -54 -8q-21 0 -39 8t-29.5 24.5t-11.5 39.5q0 34 21.5 67.5t71.5 71.5l31 -5q-71 -61 -71 -111z" />
    <glyph glyph-name="aogonek" unicode="&#x105;" horiz-adv-x="541" 
d="M140 10q-47 29 -73 82t-26 122t26 122.5t71.5 83t103.5 29.5q55 0 95.5 -24t62.5 -71v79h60v-433h-60v79q-21 -48 -60 -73t-92 -25q-61 0 -108 29zM331 58.5q33 21.5 51.5 63.5t18.5 101q0 53 -18 91.5t-51 59t-77 20.5t-77 -21.5t-51.5 -62.5t-18.5 -98q0 -84 38 -129.5
t108 -45.5q44 0 77 21.5zM379 -111q0 -21 12.5 -32.5t30.5 -11.5q20 0 38 7v-50q-23 -8 -54 -8q-21 0 -39 8t-29.5 24.5t-11.5 39.5q0 34 21.5 67.5t71.5 71.5l31 -5q-71 -61 -71 -111z" />
    <glyph glyph-name="Cacute" unicode="&#x106;" horiz-adv-x="715" 
d="M238.5 28q-85.5 47 -134.5 133t-49 196q0 108 49.5 193t135.5 133t191 48q137 0 233 -75l-2 -72q-53 46 -108 68t-117 22q-92 0 -163 -40.5t-110 -112.5t-39 -164q0 -94 39.5 -165.5t108.5 -111t155 -39.5q62 0 121 21t110 62l-1 -76q-51 -32 -110.5 -49.5t-116.5 -17.5
q-107 0 -192.5 47zM460 956h80l-138 -171h-46z" />
    <glyph glyph-name="cacute" unicode="&#x107;" horiz-adv-x="456" 
d="M154 9q-51 30 -80 83t-29 119q0 69 30 123.5t84 84.5t124 30q38 0 73 -7.5t62 -21.5l-1 -66q-62 42 -135 42q-54 0 -93.5 -23.5t-61 -66.5t-21.5 -99q0 -49 22 -89t62.5 -63t91.5 -23q36 0 72 12.5t70 36.5l1 -66q-66 -36 -154 -36q-66 0 -117 30zM306 674h80l-138 -171
h-46z" />
    <glyph glyph-name="Ccircumflex" unicode="&#x108;" horiz-adv-x="715" 
d="M238.5 28q-85.5 47 -134.5 133t-49 196q0 108 49.5 193t135.5 133t191 48q137 0 233 -75l-2 -72q-53 46 -108 68t-117 22q-92 0 -163 -40.5t-110 -112.5t-39 -164q0 -94 39.5 -165.5t108.5 -111t155 -39.5q62 0 121 21t110 62l-1 -76q-51 -32 -110.5 -49.5t-116.5 -17.5
q-107 0 -192.5 47zM385 956h71l104 -171h-45l-94 122l-95 -122h-45z" />
    <glyph glyph-name="ccircumflex" unicode="&#x109;" horiz-adv-x="456" 
d="M154 9q-51 30 -80 83t-29 119q0 69 30 123.5t84 84.5t124 30q38 0 73 -7.5t62 -21.5l-1 -66q-62 42 -135 42q-54 0 -93.5 -23.5t-61 -66.5t-21.5 -99q0 -49 22 -89t62.5 -63t91.5 -23q36 0 72 12.5t70 36.5l1 -66q-66 -36 -154 -36q-66 0 -117 30zM231 674h71l104 -171
h-45l-94 122l-95 -122h-45z" />
    <glyph glyph-name="Cdotaccent" unicode="&#x10a;" horiz-adv-x="715" 
d="M238.5 28q-85.5 47 -134.5 133t-49 196q0 108 49.5 193t135.5 133t191 48q137 0 233 -75l-2 -72q-53 46 -108 68t-117 22q-92 0 -163 -40.5t-110 -112.5t-39 -164q0 -94 39.5 -165.5t108.5 -111t155 -39.5q62 0 121 21t110 62l-1 -76q-51 -32 -110.5 -49.5t-116.5 -17.5
q-107 0 -192.5 47zM386 827q-15 15 -15 35t15 35.5t35 15.5t35 -15t15 -36q0 -20 -15 -35t-35 -15t-35 15z" />
    <glyph glyph-name="cdotaccent" unicode="&#x10b;" horiz-adv-x="456" 
d="M154 9q-51 30 -80 83t-29 119q0 69 30 123.5t84 84.5t124 30q38 0 73 -7.5t62 -21.5l-1 -66q-62 42 -135 42q-54 0 -93.5 -23.5t-61 -66.5t-21.5 -99q0 -49 22 -89t62.5 -63t91.5 -23q36 0 72 12.5t70 36.5l1 -66q-66 -36 -154 -36q-66 0 -117 30zM232 545q-15 15 -15 35
t15 35.5t35 15.5t35 -15t15 -36q0 -20 -15 -35t-35 -15t-35 15z" />
    <glyph glyph-name="Ccaron" unicode="&#x10c;" horiz-adv-x="715" 
d="M238.5 28q-85.5 47 -134.5 133t-49 196q0 108 49.5 193t135.5 133t191 48q137 0 233 -75l-2 -72q-53 46 -108 68t-117 22q-92 0 -163 -40.5t-110 -112.5t-39 -164q0 -94 39.5 -165.5t108.5 -111t155 -39.5q62 0 121 21t110 62l-1 -76q-51 -32 -110.5 -49.5t-116.5 -17.5
q-107 0 -192.5 47zM281 956h45l95 -122l94 122h45l-104 -171h-71z" />
    <glyph glyph-name="ccaron" unicode="&#x10d;" horiz-adv-x="456" 
d="M154 9q-51 30 -80 83t-29 119q0 69 30 123.5t84 84.5t124 30q38 0 73 -7.5t62 -21.5l-1 -66q-62 42 -135 42q-54 0 -93.5 -23.5t-61 -66.5t-21.5 -99q0 -49 22 -89t62.5 -63t91.5 -23q36 0 72 12.5t70 36.5l1 -66q-66 -36 -154 -36q-66 0 -117 30zM127 674h45l95 -122
l94 122h45l-104 -171h-71z" />
    <glyph glyph-name="Dcaron" unicode="&#x10e;" horiz-adv-x="697" 
d="M89 715h111q79 0 125 -2.5t89.5 -12.5t79.5 -32q70 -43 108.5 -123.5t38.5 -187.5q0 -97 -31.5 -171.5t-89.5 -119.5q-39 -30 -83 -44t-90.5 -18t-116.5 -4h-141v715zM250 56q54 0 89.5 2.5t67 11.5t57.5 27q52 37 80 104t28 157q0 73 -18.5 131t-54.5 97
q-31 35 -69.5 51t-82 20t-116.5 4h-77v-605h96zM177 956h45l95 -122l94 122h45l-104 -171h-71z" />
    <glyph glyph-name="dcaron" unicode="&#x10f;" horiz-adv-x="541" 
d="M142 10q-47 29 -73 82t-26 122t26 122.5t71.5 83t103.5 29.5q55 0 95 -24t63 -71v403h60v-757h-60v79q-22 -48 -60.5 -73t-91.5 -25q-61 0 -108 29zM333 58.5q33 21.5 51 63.5t18 101q0 53 -18 91.5t-50.5 59t-76.5 20.5t-77 -21.5t-51.5 -62.5t-18.5 -98
q0 -84 38 -129.5t108 -45.5q44 0 77 21.5zM516 617l56 140l55 -14l-76 -140z" />
    <glyph glyph-name="Dcroat" unicode="&#x110;" horiz-adv-x="701" 
d="M94 372h-94v50h94v293h111q87 0 138 -3.5t97.5 -17.5t83.5 -44q59 -48 90.5 -123t31.5 -170q0 -96 -31.5 -170.5t-91.5 -121.5q-37 -29 -80.5 -43t-90 -18t-116.5 -4h-142v372zM254 56q55 0 90.5 2.5t67 11.5t57.5 27q51 37 79 104t28 157q0 73 -18.5 131t-53.5 97
q-31 35 -69.5 51t-82.5 20t-117 4h-76v-239h208v-50h-208v-316h95z" />
    <glyph glyph-name="dcroat" unicode="&#x111;" horiz-adv-x="556" 
d="M543 589h-81v-589h-60v79q-22 -48 -60.5 -73t-91.5 -25q-61 0 -108 29t-73 82t-26 122t26 122.5t71.5 83t103.5 29.5q55 0 95 -24t63 -71v58v177h-156v51h156v117h60v-117h81v-51zM333 58.5q33 21.5 51 63.5t18 101q0 53 -18 91.5t-50.5 59t-76.5 20.5t-77 -21.5
t-51.5 -62.5t-18.5 -98q0 -84 38 -129.5t108 -45.5q44 0 77 21.5z" />
    <glyph glyph-name="Emacron" unicode="&#x112;" horiz-adv-x="513" 
d="M89 715h354v-61h-289v-224h289v-61h-289v-308h289v-61h-354v715zM138 885h252v-57h-252v57z" />
    <glyph glyph-name="emacron" unicode="&#x113;" horiz-adv-x="497" 
d="M145 10.5q-48 29.5 -75 82t-27 119.5q0 71 27 124.5t75 83t109 29.5q58 0 103 -26.5t70 -76.5t25 -116v-15h-344q1 -56 20 -96.5t52 -62t76 -21.5q48 0 83.5 26t60.5 78l55 -30q-33 -66 -81 -97t-118 -31q-63 0 -111 29.5zM381 266q-4 60 -39.5 92.5t-95.5 32.5
q-35 0 -64.5 -15.5t-48 -44t-21.5 -65.5h269zM123 603h252v-57h-252v57z" />
    <glyph glyph-name="Ebreve" unicode="&#x114;" horiz-adv-x="513" 
d="M89 715h354v-61h-289v-224h289v-61h-289v-308h289v-61h-354v715zM169 820q-32 28 -39 89h39q5 -33 28 -48t67 -15t66.5 15t27.5 48h40q-7 -61 -39 -89t-95 -28t-95 28z" />
    <glyph glyph-name="ebreve" unicode="&#x115;" horiz-adv-x="497" 
d="M145 10.5q-48 29.5 -75 82t-27 119.5q0 71 27 124.5t75 83t109 29.5q58 0 103 -26.5t70 -76.5t25 -116v-15h-344q1 -56 20 -96.5t52 -62t76 -21.5q48 0 83.5 26t60.5 78l55 -30q-33 -66 -81 -97t-118 -31q-63 0 -111 29.5zM381 266q-4 60 -39.5 92.5t-95.5 32.5
q-35 0 -64.5 -15.5t-48 -44t-21.5 -65.5h269zM154 538q-32 28 -39 89h39q5 -33 28 -48t67 -15t66.5 15t27.5 48h40q-7 -61 -39 -89t-95 -28t-95 28z" />
    <glyph glyph-name="Edotaccent" unicode="&#x116;" horiz-adv-x="513" 
d="M89 715h354v-61h-289v-224h289v-61h-289v-308h289v-61h-354v715zM229 827q-15 15 -15 35t15 35.5t35 15.5t35 -15t15 -36q0 -20 -15 -35t-35 -15t-35 15z" />
    <glyph glyph-name="edotaccent" unicode="&#x117;" horiz-adv-x="497" 
d="M145 10.5q-48 29.5 -75 82t-27 119.5q0 71 27 124.5t75 83t109 29.5q58 0 103 -26.5t70 -76.5t25 -116v-15h-344q1 -56 20 -96.5t52 -62t76 -21.5q48 0 83.5 26t60.5 78l55 -30q-33 -66 -81 -97t-118 -31q-63 0 -111 29.5zM381 266q-4 60 -39.5 92.5t-95.5 32.5
q-35 0 -64.5 -15.5t-48 -44t-21.5 -65.5h269zM214 545q-15 15 -15 35t15 35.5t35 15.5t35 -15t15 -36q0 -20 -15 -35t-35 -15t-35 15z" />
    <glyph glyph-name="Eogonek" unicode="&#x118;" horiz-adv-x="513" 
d="M89 715h354v-61h-289v-224h289v-61h-289v-308h289v-61h-354v715zM347 -111q0 -21 12.5 -32.5t30.5 -11.5q20 0 38 7v-50q-23 -8 -54 -8q-21 0 -39 8t-29.5 24.5t-11.5 39.5q0 34 21.5 67.5t71.5 71.5l31 -5q-71 -61 -71 -111z" />
    <glyph glyph-name="eogonek" unicode="&#x119;" horiz-adv-x="497" 
d="M145 10.5q-48 29.5 -75 82t-27 119.5q0 71 27 124.5t75 83t109 29.5q58 0 103 -26.5t70 -76.5t25 -116v-15h-344q1 -56 20 -96.5t52 -62t76 -21.5q48 0 83.5 26t60.5 78l55 -30q-33 -66 -81 -97t-118 -31q-63 0 -111 29.5zM381 266q-4 60 -39.5 92.5t-95.5 32.5
q-35 0 -64.5 -15.5t-48 -44t-21.5 -65.5h269zM281 -111q0 -21 12.5 -32.5t30.5 -11.5q20 0 38 7v-50q-23 -8 -54 -8q-21 0 -39 8t-29.5 24.5t-11.5 39.5q0 34 21.5 67.5t71.5 71.5l31 -5q-71 -61 -71 -111z" />
    <glyph glyph-name="Ecaron" unicode="&#x11a;" horiz-adv-x="513" 
d="M89 715h354v-61h-289v-224h289v-61h-289v-308h289v-61h-354v715zM124 956h45l95 -122l94 122h45l-104 -171h-71z" />
    <glyph glyph-name="ecaron" unicode="&#x11b;" horiz-adv-x="497" 
d="M145 10.5q-48 29.5 -75 82t-27 119.5q0 71 27 124.5t75 83t109 29.5q58 0 103 -26.5t70 -76.5t25 -116v-15h-344q1 -56 20 -96.5t52 -62t76 -21.5q48 0 83.5 26t60.5 78l55 -30q-33 -66 -81 -97t-118 -31q-63 0 -111 29.5zM381 266q-4 60 -39.5 92.5t-95.5 32.5
q-35 0 -64.5 -15.5t-48 -44t-21.5 -65.5h269zM109 674h45l95 -122l94 122h45l-104 -171h-71z" />
    <glyph glyph-name="Gcircumflex" unicode="&#x11c;" horiz-adv-x="817" 
d="M229 28q-83 47 -128.5 132.5t-45.5 195.5q0 107 46 192.5t128.5 134t186.5 48.5q108 0 186 -39t120 -116l-47 -41q-43 67 -106.5 102t-143.5 35q-88 0 -156.5 -41t-106 -114.5t-37.5 -167.5q0 -86 39 -156.5t107 -111t154 -40.5q79 0 140.5 32.5t96.5 90.5t36 133h-247
v56h318v-10q0 -112 -42 -193.5t-121 -125t-187 -43.5q-107 0 -190 47zM378 956h71l104 -171h-45l-94 122l-95 -122h-45z" />
    <glyph glyph-name="gcircumflex" unicode="&#x11d;" horiz-adv-x="541" 
d="M121 -184.5q-48 33.5 -59 101.5l75 -2q8 -39 39 -59t84 -20q39 0 71.5 14.5t48.5 38.5q12 19 16.5 41.5t4.5 54.5v95q-20 -46 -62 -72.5t-95 -26.5q-59 0 -104 28t-70.5 80.5t-25.5 125.5q0 70 25.5 123t71.5 82t106 29q34 0 65 -12.5t54 -34.5t35 -50v81h60v-361
q0 -77 -4.5 -123.5t-15.5 -70.5q-44 -96 -186 -96q-86 0 -134 33.5zM326.5 58.5q34.5 21.5 54.5 62.5t20 98q0 56 -18 95t-51 59.5t-78 20.5t-77.5 -21.5t-50 -62t-17.5 -96.5t17 -96t48 -60.5t74 -20.5q44 0 78.5 21.5zM235 674h71l104 -171h-45l-94 122l-95 -122h-45z" />
    <glyph glyph-name="Gbreve" unicode="&#x11e;" horiz-adv-x="817" 
d="M229 28q-83 47 -128.5 132.5t-45.5 195.5q0 107 46 192.5t128.5 134t186.5 48.5q108 0 186 -39t120 -116l-47 -41q-43 67 -106.5 102t-143.5 35q-88 0 -156.5 -41t-106 -114.5t-37.5 -167.5q0 -86 39 -156.5t107 -111t154 -40.5q79 0 140.5 32.5t96.5 90.5t36 133h-247
v56h318v-10q0 -112 -42 -193.5t-121 -125t-187 -43.5q-107 0 -190 47zM319 820q-32 28 -39 89h39q5 -33 28 -48t67 -15t66.5 15t27.5 48h40q-7 -61 -39 -89t-95 -28t-95 28z" />
    <glyph glyph-name="gbreve" unicode="&#x11f;" horiz-adv-x="541" 
d="M121 -184.5q-48 33.5 -59 101.5l75 -2q8 -39 39 -59t84 -20q39 0 71.5 14.5t48.5 38.5q12 19 16.5 41.5t4.5 54.5v95q-20 -46 -62 -72.5t-95 -26.5q-59 0 -104 28t-70.5 80.5t-25.5 125.5q0 70 25.5 123t71.5 82t106 29q34 0 65 -12.5t54 -34.5t35 -50v81h60v-361
q0 -77 -4.5 -123.5t-15.5 -70.5q-44 -96 -186 -96q-86 0 -134 33.5zM326.5 58.5q34.5 21.5 54.5 62.5t20 98q0 56 -18 95t-51 59.5t-78 20.5t-77.5 -21.5t-50 -62t-17.5 -96.5t17 -96t48 -60.5t74 -20.5q44 0 78.5 21.5zM176 538q-32 28 -39 89h39q5 -33 28 -48t67 -15
t66.5 15t27.5 48h40q-7 -61 -39 -89t-95 -28t-95 28z" />
    <glyph glyph-name="Gdotaccent" unicode="&#x120;" horiz-adv-x="817" 
d="M229 28q-83 47 -128.5 132.5t-45.5 195.5q0 107 46 192.5t128.5 134t186.5 48.5q108 0 186 -39t120 -116l-47 -41q-43 67 -106.5 102t-143.5 35q-88 0 -156.5 -41t-106 -114.5t-37.5 -167.5q0 -86 39 -156.5t107 -111t154 -40.5q79 0 140.5 32.5t96.5 90.5t36 133h-247
v56h318v-10q0 -112 -42 -193.5t-121 -125t-187 -43.5q-107 0 -190 47zM379 827q-15 15 -15 35t15 35.5t35 15.5t35 -15t15 -36q0 -20 -15 -35t-35 -15t-35 15z" />
    <glyph glyph-name="gdotaccent" unicode="&#x121;" horiz-adv-x="541" 
d="M121 -184.5q-48 33.5 -59 101.5l75 -2q8 -39 39 -59t84 -20q39 0 71.5 14.5t48.5 38.5q12 19 16.5 41.5t4.5 54.5v95q-20 -46 -62 -72.5t-95 -26.5q-59 0 -104 28t-70.5 80.5t-25.5 125.5q0 70 25.5 123t71.5 82t106 29q34 0 65 -12.5t54 -34.5t35 -50v81h60v-361
q0 -77 -4.5 -123.5t-15.5 -70.5q-44 -96 -186 -96q-86 0 -134 33.5zM326.5 58.5q34.5 21.5 54.5 62.5t20 98q0 56 -18 95t-51 59.5t-78 20.5t-77.5 -21.5t-50 -62t-17.5 -96.5t17 -96t48 -60.5t74 -20.5q44 0 78.5 21.5zM236 545q-15 15 -15 35t15 35.5t35 15.5t35 -15
t15 -36q0 -20 -15 -35t-35 -15t-35 15z" />
    <glyph glyph-name="Gcommaaccent" unicode="&#x122;" horiz-adv-x="817" 
d="M229 28q-83 47 -128.5 132.5t-45.5 195.5q0 107 46 192.5t128.5 134t186.5 48.5q108 0 186 -39t120 -116l-47 -41q-43 67 -106.5 102t-143.5 35q-88 0 -156.5 -41t-106 -114.5t-37.5 -167.5q0 -86 39 -156.5t107 -111t154 -40.5q79 0 140.5 32.5t96.5 90.5t36 133h-247
v56h318v-10q0 -112 -42 -193.5t-121 -125t-187 -43.5q-107 0 -190 47zM345 -189l56 140l55 -14l-76 -140z" />
    <glyph glyph-name="gcommaaccent" unicode="&#x123;" horiz-adv-x="541" 
d="M121 -184.5q-48 33.5 -59 101.5l75 -2q8 -39 39 -59t84 -20q39 0 71.5 14.5t48.5 38.5q12 19 16.5 41.5t4.5 54.5v95q-20 -46 -62 -72.5t-95 -26.5q-59 0 -104 28t-70.5 80.5t-25.5 125.5q0 70 25.5 123t71.5 82t106 29q34 0 65 -12.5t54 -34.5t35 -50v81h60v-361
q0 -77 -4.5 -123.5t-15.5 -70.5q-44 -96 -186 -96q-86 0 -134 33.5zM326.5 58.5q34.5 21.5 54.5 62.5t20 98q0 56 -18 95t-51 59.5t-78 20.5t-77.5 -21.5t-50 -62t-17.5 -96.5t17 -96t48 -60.5t74 -20.5q44 0 78.5 21.5zM213 520l76 140l35 -14l-56 -140z" />
    <glyph glyph-name="Hcircumflex" unicode="&#x124;" horiz-adv-x="697" 
d="M89 715h65v-290h389v290h65v-715h-65v369h-389v-369h-65v715zM313 956h71l104 -171h-45l-94 122l-95 -122h-45z" />
    <glyph glyph-name="hcircumflex" unicode="&#x125;" horiz-adv-x="521" 
d="M80 757h60v-391q49 83 150 83q73 0 114.5 -40.5t41.5 -114.5v-294h-60v267q0 65 -27.5 96.5t-84.5 31.5q-70 0 -102 -41.5t-32 -127.5v-226h-60v757zM74 998h71l104 -171h-45l-94 122l-95 -122h-45z" />
    <glyph glyph-name="Hbar" unicode="&#x126;" horiz-adv-x="697" 
d="M680 604v-50h-72v-554h-65v369h-389v-369h-65v554h-72v50h72v111h65v-111h389v111h65v-111h72zM543 554h-389v-129h389v129z" />
    <glyph glyph-name="hbar" unicode="&#x127;" horiz-adv-x="535" 
d="M418.5 408.5q41.5 -40.5 41.5 -114.5v-294h-60v267q0 65 -27.5 96.5t-84.5 31.5q-70 0 -102 -41.5t-32 -127.5v-226h-60v589h-81v51h81v117h60v-117h156v-51h-156v-223q49 83 150 83q73 0 114.5 -40.5z" />
    <glyph glyph-name="Itilde" unicode="&#x128;" horiz-adv-x="243" 
d="M154 715v-715h-65v715h65zM25 881q25 22 62 22q17 0 29 -4l38 -13q17 -5 30 -5q34 0 47 33h43q-12 -44 -37 -67t-60 -23q-15 0 -32 5l-39 13q-12 4 -28 4t-26.5 -7.5t-18.5 -22.5h-43q10 43 35 65z" />
    <glyph glyph-name="itilde" unicode="&#x129;" horiz-adv-x="230" 
d="M85 433h60v-433h-60v433zM18 599q25 22 62 22q17 0 29 -4l38 -13q17 -5 30 -5q34 0 47 33h43q-12 -44 -37 -67t-60 -23q-15 0 -32 5l-39 13q-12 4 -28 4t-26.5 -7.5t-18.5 -22.5h-43q10 43 35 65z" />
    <glyph glyph-name="Imacron" unicode="&#x12a;" horiz-adv-x="243" 
d="M154 715v-715h-65v715h65zM-4 885h252v-57h-252v57z" />
    <glyph glyph-name="imacron" unicode="&#x12b;" horiz-adv-x="230" 
d="M85 433h60v-433h-60v433zM-11 603h252v-57h-252v57z" />
    <glyph glyph-name="Ibreve" unicode="&#x12c;" horiz-adv-x="243" 
d="M154 715v-715h-65v715h65zM27 820q-32 28 -39 89h39q5 -33 28 -48t67 -15t66.5 15t27.5 48h40q-7 -61 -39 -89t-95 -28t-95 28z" />
    <glyph glyph-name="ibreve" unicode="&#x12d;" horiz-adv-x="230" 
d="M85 433h60v-433h-60v433zM20 538q-32 28 -39 89h39q5 -33 28 -48t67 -15t66.5 15t27.5 48h40q-7 -61 -39 -89t-95 -28t-95 28z" />
    <glyph glyph-name="Iogonek" unicode="&#x12e;" horiz-adv-x="243" 
d="M154 715v-715h-65v715h65zM75 -111q0 -21 12.5 -32.5t30.5 -11.5q20 0 38 7v-50q-23 -8 -54 -8q-21 0 -39 8t-29.5 24.5t-11.5 39.5q0 34 21.5 67.5t71.5 71.5l31 -5q-71 -61 -71 -111z" />
    <glyph glyph-name="iogonek" unicode="&#x12f;" horiz-adv-x="230" 
d="M82 569.5q-13 13.5 -13 32.5q0 20 13.5 33t32.5 13t33 -13t14 -33q0 -19 -13.5 -32.5t-33.5 -13.5t-33 13.5zM85 433h60v-433h-60v433zM68 -111q0 -21 12.5 -32.5t30.5 -11.5q20 0 38 7v-50q-23 -8 -54 -8q-21 0 -39 8t-29.5 24.5t-11.5 39.5q0 34 21.5 67.5t71.5 71.5
l31 -5q-71 -61 -71 -111z" />
    <glyph glyph-name="Idotaccent" unicode="&#x130;" horiz-adv-x="243" 
d="M154 715v-715h-65v715h65zM87 827q-15 15 -15 35t15 35.5t35 15.5t35 -15t15 -36q0 -20 -15 -35t-35 -15t-35 15z" />
    <glyph glyph-name="dotlessi" unicode="&#x131;" horiz-adv-x="230" 
d="M85 433h60v-433h-60v433z" />
    <glyph glyph-name="Jcircumflex" unicode="&#x134;" horiz-adv-x="373" 
d="M61 0q-35 19 -58 55l46 42q20 -27 42.5 -40.5t47.5 -13.5q35 0 54.5 17t27 50t7.5 86v519h65v-561q0 -86 -39 -129.5t-113 -43.5q-45 0 -80 19zM225 956h71l104 -171h-45l-94 122l-95 -122h-45z" />
    <glyph glyph-name="jcircumflex" unicode="&#x135;" horiz-adv-x="230" 
d="M85 433h60v-651h-60v651zM79 674h71l104 -171h-45l-94 122l-95 -122h-45z" />
    <glyph glyph-name="Kcommaaccent" unicode="&#x136;" horiz-adv-x="574" 
d="M89 715h65v-335l323 335h85l-339 -342l355 -373h-94l-330 363v-363h-65v715zM225 -189l56 140l55 -14l-76 -140z" />
    <glyph glyph-name="kcommaaccent" unicode="&#x137;" horiz-adv-x="458" 
d="M80 757h60v-516l216 192h83l-232 -194l249 -239h-83l-233 224v-224h-60v757zM165 -189l56 140l55 -14l-76 -140z" />
    <glyph glyph-name="kgreenlandic" unicode="&#x138;" horiz-adv-x="458" 
d="M80 433h60v-197l216 197h83l-232 -199l249 -234h-83l-233 219v-219h-60v433z" />
    <glyph glyph-name="Lacute" unicode="&#x139;" horiz-adv-x="413" 
d="M89 715h65v-654h245v-61h-310v715zM161 956h80l-138 -171h-46z" />
    <glyph glyph-name="lacute" unicode="&#x13a;" horiz-adv-x="230" 
d="M86 757h60v-757h-60v757zM154 998h80l-138 -171h-46z" />
    <glyph glyph-name="Lcommaaccent" unicode="&#x13b;" horiz-adv-x="413" 
d="M89 715h65v-654h245v-61h-310v715zM176 -189l56 140l55 -14l-76 -140z" />
    <glyph glyph-name="lcommaaccent" unicode="&#x13c;" horiz-adv-x="230" 
d="M86 757h60v-757h-60v757zM34 -189l56 140l55 -14l-76 -140z" />
    <glyph glyph-name="Lcaron" unicode="&#x13d;" horiz-adv-x="413" 
d="M89 715h65v-654h245v-61h-310v715zM245 575l56 140l55 -14l-76 -140z" />
    <glyph glyph-name="lcaron" unicode="&#x13e;" horiz-adv-x="230" 
d="M86 757h60v-757h-60v757zM200 617l56 140l55 -14l-76 -140z" />
    <glyph glyph-name="Ldot" unicode="&#x13f;" horiz-adv-x="413" 
d="M89 715h65v-654h245v-61h-310v715zM292.5 406.5q-14.5 14.5 -14.5 35.5t14.5 35.5t35.5 14.5t35.5 -14t14.5 -36t-14.5 -36t-35.5 -14t-35.5 14.5z" />
    <glyph glyph-name="ldot" unicode="&#x140;" horiz-adv-x="260" 
d="M86 757h60v-757h-60v757zM210.5 378.5q-14.5 14.5 -14.5 35.5t14.5 35.5t35.5 14.5t35.5 -14t14.5 -36t-14.5 -36t-35.5 -14t-35.5 14.5z" />
    <glyph glyph-name="Lslash" unicode="&#x141;" horiz-adv-x="418" 
d="M94 328l-95 -66l-32 39l127 90v324h65v-289l116 81l31 -42l-147 -102v-302h245v-61h-310v328z" />
    <glyph glyph-name="lslash" unicode="&#x142;" horiz-adv-x="244" 
d="M93 310l-75 -53l-28 40l103 72v388h60v-351l74 52l27 -40l-101 -72v-346h-60v310z" />
    <glyph glyph-name="Nacute" unicode="&#x143;" horiz-adv-x="745" 
d="M154 578v-578h-65v745l502 -598v568h65v-736zM412 956h80l-138 -171h-46z" />
    <glyph glyph-name="nacute" unicode="&#x144;" horiz-adv-x="521" 
d="M80 433h57v-67q53 83 153 83q73 0 114.5 -40.5t41.5 -114.5v-294h-60v267q0 65 -27.5 96.5t-84.5 31.5q-70 0 -102 -41.5t-32 -127.5v-226h-60v433zM300 674h80l-138 -171h-46z" />
    <glyph glyph-name="Ncommaaccent" unicode="&#x145;" horiz-adv-x="745" 
d="M154 578v-578h-65v745l502 -598v568h65v-736zM300 -189l56 140l55 -14l-76 -140z" />
    <glyph glyph-name="ncommaaccent" unicode="&#x146;" horiz-adv-x="521" 
d="M80 433h57v-67q53 83 153 83q73 0 114.5 -40.5t41.5 -114.5v-294h-60v267q0 65 -27.5 96.5t-84.5 31.5q-70 0 -102 -41.5t-32 -127.5v-226h-60v433zM182 -189l56 140l55 -14l-76 -140z" />
    <glyph glyph-name="Ncaron" unicode="&#x147;" horiz-adv-x="745" 
d="M154 578v-578h-65v745l502 -598v568h65v-736zM233 956h45l95 -122l94 122h45l-104 -171h-71z" />
    <glyph glyph-name="ncaron" unicode="&#x148;" horiz-adv-x="521" 
d="M80 433h57v-67q53 83 153 83q73 0 114.5 -40.5t41.5 -114.5v-294h-60v267q0 65 -27.5 96.5t-84.5 31.5q-70 0 -102 -41.5t-32 -127.5v-226h-60v433zM121 674h45l95 -122l94 122h45l-104 -171h-71z" />
    <glyph glyph-name="napostrophe" unicode="&#x149;" horiz-adv-x="521" 
d="M80 433h57v-67q53 83 153 83q73 0 114.5 -40.5t41.5 -114.5v-294h-60v267q0 65 -27.5 96.5t-84.5 31.5q-70 0 -102 -41.5t-32 -127.5v-226h-60v433zM10 434l-35 14l56 140l55 -14z" />
    <glyph glyph-name="Eng" unicode="&#x14a;" horiz-adv-x="745" 
d="M656 715v-731q0 -86 -39 -129.5t-113 -43.5q-45 0 -80 19t-58 55l46 42q20 -27 42.5 -40.5t47.5 -13.5q35 0 54.5 17t27 50t7.5 86v30l-437 522v-578h-65v745l502 -598v568h65z" />
    <glyph glyph-name="eng" unicode="&#x14b;" horiz-adv-x="521" 
d="M386 267q0 65 -27.5 96.5t-84.5 31.5q-70 0 -102 -41.5t-32 -127.5v-226h-60v433h57v-67q53 83 153 83q73 0 114.5 -40.5t41.5 -114.5v-512h-60v485z" />
    <glyph glyph-name="Omacron" unicode="&#x14c;" horiz-adv-x="875" 
d="M290 9.5q-69 28.5 -123 81.5t-83 121.5t-29 143.5q0 77 28.5 145.5t83.5 121.5q54 53 122.5 80.5t147.5 27.5t148 -27.5t123 -80.5t83 -122t29 -145t-29 -144t-83 -121q-55 -53 -124.5 -81.5t-146.5 -28.5q-78 0 -147 28.5zM595 81.5q72 42.5 114 115t42 159.5t-42 160
t-114 115.5t-158 42.5q-85 0 -157 -42.5t-114 -115.5t-42 -160t41.5 -159.5t113.5 -115t158 -42.5t158 42.5zM312 885h252v-57h-252v57z" />
    <glyph glyph-name="omacron" unicode="&#x14d;" horiz-adv-x="558" 
d="M160.5 12q-53.5 31 -85 85t-31.5 119q0 64 31.5 117.5t84.5 84.5t117 31q65 0 119.5 -31t86 -84.5t31.5 -117.5t-32 -118t-86.5 -85.5t-118.5 -31.5q-63 0 -116.5 31zM364 60.5q39 23.5 62 64.5t23 90q0 50 -23 90.5t-62 64t-85 23.5q-47 0 -86 -23.5t-61.5 -64
t-22.5 -90.5q0 -49 23 -90t62 -64.5t85 -23.5t85 23.5zM153 603h252v-57h-252v57z" />
    <glyph glyph-name="Obreve" unicode="&#x14e;" horiz-adv-x="875" 
d="M290 9.5q-69 28.5 -123 81.5t-83 121.5t-29 143.5q0 77 28.5 145.5t83.5 121.5q54 53 122.5 80.5t147.5 27.5t148 -27.5t123 -80.5t83 -122t29 -145t-29 -144t-83 -121q-55 -53 -124.5 -81.5t-146.5 -28.5q-78 0 -147 28.5zM595 81.5q72 42.5 114 115t42 159.5t-42 160
t-114 115.5t-158 42.5q-85 0 -157 -42.5t-114 -115.5t-42 -160t41.5 -159.5t113.5 -115t158 -42.5t158 42.5zM343 820q-32 28 -39 89h39q5 -33 28 -48t67 -15t66.5 15t27.5 48h40q-7 -61 -39 -89t-95 -28t-95 28z" />
    <glyph glyph-name="obreve" unicode="&#x14f;" horiz-adv-x="558" 
d="M160.5 12q-53.5 31 -85 85t-31.5 119q0 64 31.5 117.5t84.5 84.5t117 31q65 0 119.5 -31t86 -84.5t31.5 -117.5t-32 -118t-86.5 -85.5t-118.5 -31.5q-63 0 -116.5 31zM364 60.5q39 23.5 62 64.5t23 90q0 50 -23 90.5t-62 64t-85 23.5q-47 0 -86 -23.5t-61.5 -64
t-22.5 -90.5q0 -49 23 -90t62 -64.5t85 -23.5t85 23.5zM184 538q-32 28 -39 89h39q5 -33 28 -48t67 -15t66.5 15t27.5 48h40q-7 -61 -39 -89t-95 -28t-95 28z" />
    <glyph glyph-name="Ohungarumlaut" unicode="&#x150;" horiz-adv-x="875" 
d="M290 9.5q-69 28.5 -123 81.5t-83 121.5t-29 143.5q0 77 28.5 145.5t83.5 121.5q54 53 122.5 80.5t147.5 27.5t148 -27.5t123 -80.5t83 -122t29 -145t-29 -144t-83 -121q-55 -53 -124.5 -81.5t-146.5 -28.5q-78 0 -147 28.5zM595 81.5q72 42.5 114 115t42 159.5t-42 160
t-114 115.5t-158 42.5q-85 0 -157 -42.5t-114 -115.5t-42 -160t41.5 -159.5t113.5 -115t158 -42.5t158 42.5zM424 956h77l-108 -171h-41zM560 956h76l-117 -171h-41z" />
    <glyph glyph-name="ohungarumlaut" unicode="&#x151;" horiz-adv-x="558" 
d="M160.5 12q-53.5 31 -85 85t-31.5 119q0 64 31.5 117.5t84.5 84.5t117 31q65 0 119.5 -31t86 -84.5t31.5 -117.5t-32 -118t-86.5 -85.5t-118.5 -31.5q-63 0 -116.5 31zM364 60.5q39 23.5 62 64.5t23 90q0 50 -23 90.5t-62 64t-85 23.5q-47 0 -86 -23.5t-61.5 -64
t-22.5 -90.5q0 -49 23 -90t62 -64.5t85 -23.5t85 23.5zM267 674h77l-108 -171h-41zM403 674h76l-117 -171h-41z" />
    <glyph glyph-name="OE" unicode="&#x152;" horiz-adv-x="1133" 
d="M304 3q-57 20 -106 58q-68 53 -105.5 130.5t-37.5 166.5q0 76 27.5 143.5t79.5 120.5q53 53 121.5 81.5t145.5 28.5q97 0 171 -41.5t124 -123.5v148h341v-61h-281v-224h281v-61h-281v-308h281v-61h-341v152q-46 -81 -125 -125t-176 -44q-62 0 -119 20zM574.5 83.5
q68.5 41.5 108 113.5t39.5 160q0 92 -39 164t-108 112t-154 40q-50 0 -97 -16.5t-87 -48.5q-57 -45 -88 -110.5t-31 -140.5q0 -63 23 -120.5t67 -103.5q42 -44 97.5 -67.5t115.5 -23.5q85 0 153.5 41.5z" />
    <glyph glyph-name="oe" unicode="&#x153;" horiz-adv-x="899" 
d="M578 -4.5q-38 14.5 -64.5 41t-37.5 60.5q-27 -55 -79.5 -85t-118.5 -30q-65 0 -118.5 31t-84 85t-30.5 118t31.5 117.5t84.5 84.5t114 31q71 0 121.5 -28.5t79.5 -84.5q19 52 67.5 83t110.5 31q59 0 104.5 -27t70.5 -77.5t25 -117.5v-12h-344v-3q0 -52 18.5 -92t51 -62
t73.5 -22q100 0 147 104l57 -31q-35 -65 -83 -97t-114 -32q-44 0 -82 14.5zM365 60.5q39 23.5 62 64.5t23 90q0 50 -23 91t-62 64.5t-85 23.5q-47 0 -86 -23.5t-61.5 -64.5t-22.5 -91q0 -49 23 -90t62 -64.5t85 -23.5t85 23.5zM783 266q-4 60 -39.5 93t-95.5 33
q-35 0 -64.5 -16t-48.5 -44.5t-21 -65.5h269z" />
    <glyph glyph-name="Racute" unicode="&#x154;" horiz-adv-x="528" 
d="M89 715h131q116 0 174 -48.5t58 -146.5q0 -56 -22.5 -96t-64.5 -61.5t-99 -21.5l257 -341h-79l-251 341h-39v-341h-65v715zM219 394q58 0 93 11t52.5 39t17.5 78q0 51 -17 81t-52 42.5t-94 12.5h-65v-264h65zM276 956h80l-138 -171h-46z" />
    <glyph glyph-name="racute" unicode="&#x155;" horiz-adv-x="315" 
d="M80 433h60v-87q33 56 64 79.5t76 23.5q26 0 51 -9l-19 -57q-21 7 -41 7q-34 0 -64 -22.5t-48.5 -62.5t-18.5 -92v-213h-60v433zM233 674h80l-138 -171h-46z" />
    <glyph glyph-name="Rcommaaccent" unicode="&#x156;" horiz-adv-x="528" 
d="M89 715h131q116 0 174 -48.5t58 -146.5q0 -56 -22.5 -96t-64.5 -61.5t-99 -21.5l257 -341h-79l-251 341h-39v-341h-65v715zM219 394q58 0 93 11t52.5 39t17.5 78q0 51 -17 81t-52 42.5t-94 12.5h-65v-264h65zM199 -189l56 140l55 -14l-76 -140z" />
    <glyph glyph-name="rcommaaccent" unicode="&#x157;" horiz-adv-x="315" 
d="M80 433h60v-87q33 56 64 79.5t76 23.5q26 0 51 -9l-19 -57q-21 7 -41 7q-34 0 -64 -22.5t-48.5 -62.5t-18.5 -92v-213h-60v433zM29 -189l56 140l55 -14l-76 -140z" />
    <glyph glyph-name="Rcaron" unicode="&#x158;" horiz-adv-x="528" 
d="M89 715h131q116 0 174 -48.5t58 -146.5q0 -56 -22.5 -96t-64.5 -61.5t-99 -21.5l257 -341h-79l-251 341h-39v-341h-65v715zM219 394q58 0 93 11t52.5 39t17.5 78q0 51 -17 81t-52 42.5t-94 12.5h-65v-264h65zM97 956h45l95 -122l94 122h45l-104 -171h-71z" />
    <glyph glyph-name="rcaron" unicode="&#x159;" horiz-adv-x="315" 
d="M80 433h60v-87q33 56 64 79.5t76 23.5q26 0 51 -9l-19 -57q-21 7 -41 7q-34 0 -64 -22.5t-48.5 -62.5t-18.5 -92v-213h-60v433zM54 674h45l95 -122l94 122h45l-104 -171h-71z" />
    <glyph glyph-name="Sacute" unicode="&#x15a;" horiz-adv-x="498" 
d="M113 16q-50 35 -79 104l56 30q15 -53 54 -82t92 -29q68 0 106 39.5t38 111.5q0 42 -15.5 70.5t-43.5 48.5t-77 46q-64 33 -101 60t-57.5 62t-20.5 83q0 50 23.5 89t65.5 61t96 22q108 0 158 -91l-50 -30q-15 31 -44 47t-68 16q-53 0 -84 -31t-31 -84q0 -36 14 -59.5
t37.5 -39t69.5 -39.5l37 -20q56 -31 88.5 -58.5t48.5 -63.5t16 -89q0 -64 -25.5 -111t-72.5 -72.5t-111 -25.5q-70 0 -120 35zM288 956h80l-138 -171h-46z" />
    <glyph glyph-name="sacute" unicode="&#x15b;" horiz-adv-x="382" 
d="M87.5 6.5q-39.5 25.5 -56.5 70.5l57 33q15 -37 41.5 -55t65.5 -18q38 0 60.5 19.5t22.5 51.5q0 24 -10.5 38.5t-27.5 23.5t-50 22l-34 13q-54 22 -79 50t-25 69q0 36 17.5 65t49.5 45t73 16q53 0 90 -22.5t54 -65.5l-55 -31q-10 31 -34 47t-59 16q-31 0 -51.5 -18.5
t-20.5 -45.5q0 -21 11 -35t32.5 -24.5t59.5 -23.5q43 -14 68.5 -30t39 -41t13.5 -64t-18.5 -68.5t-54 -46t-84.5 -16.5q-56 0 -95.5 25.5zM230 674h80l-138 -171h-46z" />
    <glyph glyph-name="Scircumflex" unicode="&#x15c;" horiz-adv-x="498" 
d="M113 16q-50 35 -79 104l56 30q15 -53 54 -82t92 -29q68 0 106 39.5t38 111.5q0 42 -15.5 70.5t-43.5 48.5t-77 46q-64 33 -101 60t-57.5 62t-20.5 83q0 50 23.5 89t65.5 61t96 22q108 0 158 -91l-50 -30q-15 31 -44 47t-68 16q-53 0 -84 -31t-31 -84q0 -36 14 -59.5
t37.5 -39t69.5 -39.5l37 -20q56 -31 88.5 -58.5t48.5 -63.5t16 -89q0 -64 -25.5 -111t-72.5 -72.5t-111 -25.5q-70 0 -120 35zM213 956h71l104 -171h-45l-94 122l-95 -122h-45z" />
    <glyph glyph-name="scircumflex" unicode="&#x15d;" horiz-adv-x="382" 
d="M87.5 6.5q-39.5 25.5 -56.5 70.5l57 33q15 -37 41.5 -55t65.5 -18q38 0 60.5 19.5t22.5 51.5q0 24 -10.5 38.5t-27.5 23.5t-50 22l-34 13q-54 22 -79 50t-25 69q0 36 17.5 65t49.5 45t73 16q53 0 90 -22.5t54 -65.5l-55 -31q-10 31 -34 47t-59 16q-31 0 -51.5 -18.5
t-20.5 -45.5q0 -21 11 -35t32.5 -24.5t59.5 -23.5q43 -14 68.5 -30t39 -41t13.5 -64t-18.5 -68.5t-54 -46t-84.5 -16.5q-56 0 -95.5 25.5zM155 674h71l104 -171h-45l-94 122l-95 -122h-45z" />
    <glyph glyph-name="Scedilla" unicode="&#x15e;" horiz-adv-x="498" 
d="M113 16q-50 35 -79 104l56 30q15 -53 54 -82t92 -29q68 0 106 39.5t38 111.5q0 42 -15.5 70.5t-43.5 48.5t-77 46q-64 33 -101 60t-57.5 62t-20.5 83q0 50 23.5 89t65.5 61t96 22q108 0 158 -91l-50 -30q-15 31 -44 47t-68 16q-53 0 -84 -31t-31 -84q0 -36 14 -59.5
t37.5 -39t69.5 -39.5l37 -20q56 -31 88.5 -58.5t48.5 -63.5t16 -89q0 -64 -25.5 -111t-72.5 -72.5t-111 -25.5q-70 0 -120 35zM198.5 -162.5q29.5 -4.5 48.5 -4.5q61 0 61 43q0 22 -16.5 33t-50.5 11q-14 0 -22 -1v81h30v-49h7q50 0 77 -19.5t27 -54.5q0 -80 -105 -80
q-49 0 -118 18v34q32 -7 61.5 -11.5z" />
    <glyph glyph-name="scedilla" unicode="&#x15f;" horiz-adv-x="382" 
d="M87.5 6.5q-39.5 25.5 -56.5 70.5l57 33q15 -37 41.5 -55t65.5 -18q38 0 60.5 19.5t22.5 51.5q0 24 -10.5 38.5t-27.5 23.5t-50 22l-34 13q-54 22 -79 50t-25 69q0 36 17.5 65t49.5 45t73 16q53 0 90 -22.5t54 -65.5l-55 -31q-10 31 -34 47t-59 16q-31 0 -51.5 -18.5
t-20.5 -45.5q0 -21 11 -35t32.5 -24.5t59.5 -23.5q43 -14 68.5 -30t39 -41t13.5 -64t-18.5 -68.5t-54 -46t-84.5 -16.5q-56 0 -95.5 25.5zM154.5 -162.5q29.5 -4.5 48.5 -4.5q61 0 61 43q0 22 -16.5 33t-50.5 11q-14 0 -22 -1v81h30v-49h7q50 0 77 -19.5t27 -54.5
q0 -80 -105 -80q-49 0 -118 18v34q32 -7 61.5 -11.5z" />
    <glyph glyph-name="Scaron" unicode="&#x160;" horiz-adv-x="498" 
d="M113 16q-50 35 -79 104l56 30q15 -53 54 -82t92 -29q68 0 106 39.5t38 111.5q0 42 -15.5 70.5t-43.5 48.5t-77 46q-64 33 -101 60t-57.5 62t-20.5 83q0 50 23.5 89t65.5 61t96 22q108 0 158 -91l-50 -30q-15 31 -44 47t-68 16q-53 0 -84 -31t-31 -84q0 -36 14 -59.5
t37.5 -39t69.5 -39.5l37 -20q56 -31 88.5 -58.5t48.5 -63.5t16 -89q0 -64 -25.5 -111t-72.5 -72.5t-111 -25.5q-70 0 -120 35zM109 956h45l95 -122l94 122h45l-104 -171h-71z" />
    <glyph glyph-name="scaron" unicode="&#x161;" horiz-adv-x="382" 
d="M87.5 6.5q-39.5 25.5 -56.5 70.5l57 33q15 -37 41.5 -55t65.5 -18q38 0 60.5 19.5t22.5 51.5q0 24 -10.5 38.5t-27.5 23.5t-50 22l-34 13q-54 22 -79 50t-25 69q0 36 17.5 65t49.5 45t73 16q53 0 90 -22.5t54 -65.5l-55 -31q-10 31 -34 47t-59 16q-31 0 -51.5 -18.5
t-20.5 -45.5q0 -21 11 -35t32.5 -24.5t59.5 -23.5q43 -14 68.5 -30t39 -41t13.5 -64t-18.5 -68.5t-54 -46t-84.5 -16.5q-56 0 -95.5 25.5zM51 674h45l95 -122l94 122h45l-104 -171h-71z" />
    <glyph glyph-name="uni0162" unicode="&#x162;" horiz-adv-x="497" 
d="M216 654h-197v61h459v-61h-197v-654h-65v654zM168 -189l56 140l55 -14l-76 -140z" />
    <glyph glyph-name="uni0163" unicode="&#x163;" horiz-adv-x="248" 
d="M93 382h-80v51h80v178h60v-178h86v-51h-86v-382h-60v382zM42 -189l56 140l55 -14l-76 -140z" />
    <glyph glyph-name="Tcaron" unicode="&#x164;" horiz-adv-x="497" 
d="M216 654h-197v61h459v-61h-197v-654h-65v654zM109 956h45l95 -122l94 122h45l-104 -171h-71z" />
    <glyph glyph-name="tcaron" unicode="&#x165;" horiz-adv-x="248" 
d="M93 382h-80v51h80v178h60v-178h86v-51h-86v-382h-60v382zM208 568l56 140l55 -14l-76 -140z" />
    <glyph glyph-name="Tbar" unicode="&#x166;" horiz-adv-x="497" 
d="M281 654v-232h125v-50h-125v-372h-65v372h-125v50h125v232h-197v61h459v-61h-197z" />
    <glyph glyph-name="tbar" unicode="&#x167;" horiz-adv-x="248" 
d="M153 382v-105h86v-51h-86v-226h-60v226h-80v51h80v105h-80v51h80v178h60v-178h86v-51h-86z" />
    <glyph glyph-name="Utilde" unicode="&#x168;" horiz-adv-x="692" 
d="M151 715v-467q0 -105 48 -157t147 -52t147 52t48 157v467h65v-446q0 -91 -26 -155q-55 -133 -234 -133t-234 134q-26 63 -26 154v446h65zM249 881q25 22 62 22q17 0 29 -4l38 -13q17 -5 30 -5q34 0 47 33h43q-12 -44 -37 -67t-60 -23q-15 0 -32 5l-39 13q-12 4 -28 4
t-26.5 -7.5t-18.5 -22.5h-43q10 43 35 65z" />
    <glyph glyph-name="utilde" unicode="&#x169;" horiz-adv-x="527" 
d="M127 33q-47 52 -47 153v247h60v-216q0 -63 11 -102t38 -58.5t74 -19.5t74 19.5t38.5 58.5t11.5 102v216h60v-247q0 -102 -46.5 -153.5t-136.5 -51.5t-137 52zM167 599q25 22 62 22q17 0 29 -4l38 -13q17 -5 30 -5q34 0 47 33h43q-12 -44 -37 -67t-60 -23q-15 0 -32 5
l-39 13q-12 4 -28 4t-26.5 -7.5t-18.5 -22.5h-43q10 43 35 65z" />
    <glyph glyph-name="Umacron" unicode="&#x16a;" horiz-adv-x="692" 
d="M151 715v-467q0 -105 48 -157t147 -52t147 52t48 157v467h65v-446q0 -91 -26 -155q-55 -133 -234 -133t-234 134q-26 63 -26 154v446h65zM220 885h252v-57h-252v57z" />
    <glyph glyph-name="umacron" unicode="&#x16b;" horiz-adv-x="527" 
d="M127 33q-47 52 -47 153v247h60v-216q0 -63 11 -102t38 -58.5t74 -19.5t74 19.5t38.5 58.5t11.5 102v216h60v-247q0 -102 -46.5 -153.5t-136.5 -51.5t-137 52zM138 603h252v-57h-252v57z" />
    <glyph glyph-name="Ubreve" unicode="&#x16c;" horiz-adv-x="692" 
d="M151 715v-467q0 -105 48 -157t147 -52t147 52t48 157v467h65v-446q0 -91 -26 -155q-55 -133 -234 -133t-234 134q-26 63 -26 154v446h65zM251 820q-32 28 -39 89h39q5 -33 28 -48t67 -15t66.5 15t27.5 48h40q-7 -61 -39 -89t-95 -28t-95 28z" />
    <glyph glyph-name="ubreve" unicode="&#x16d;" horiz-adv-x="527" 
d="M127 33q-47 52 -47 153v247h60v-216q0 -63 11 -102t38 -58.5t74 -19.5t74 19.5t38.5 58.5t11.5 102v216h60v-247q0 -102 -46.5 -153.5t-136.5 -51.5t-137 52zM169 538q-32 28 -39 89h39q5 -33 28 -48t67 -15t66.5 15t27.5 48h40q-7 -61 -39 -89t-95 -28t-95 28z" />
    <glyph glyph-name="Uring" unicode="&#x16e;" horiz-adv-x="692" 
d="M151 715v-467q0 -105 48 -157t147 -52t147 52t48 157v467h65v-446q0 -91 -26 -155q-55 -133 -234 -133t-234 134q-26 63 -26 154v446h65zM288.5 748.5q-26.5 15.5 -42 42t-15.5 57.5t15.5 57.5t42 42t57.5 15.5q32 0 58.5 -15t41.5 -41.5t15 -58.5q0 -31 -15.5 -57.5
t-42 -42t-57.5 -15.5t-57.5 15.5zM379 791.5q15 8.5 23.5 23.5t8.5 33q0 28 -19 46.5t-46 18.5q-18 0 -33 -8.5t-23.5 -23.5t-8.5 -33t8.5 -33t23.5 -23.5t33 -8.5t33 8.5z" />
    <glyph glyph-name="uring" unicode="&#x16f;" horiz-adv-x="527" 
d="M127 33q-47 52 -47 153v247h60v-216q0 -63 11 -102t38 -58.5t74 -19.5t74 19.5t38.5 58.5t11.5 102v216h60v-247q0 -102 -46.5 -153.5t-136.5 -51.5t-137 52zM206.5 496.5q-26.5 15.5 -42 42t-15.5 57.5t15.5 57.5t42 42t57.5 15.5q32 0 58.5 -15t41.5 -41.5t15 -58.5
q0 -31 -15.5 -57.5t-42 -42t-57.5 -15.5t-57.5 15.5zM297 539.5q15 8.5 23.5 23.5t8.5 33t-8.5 33t-23.5 24t-33 9t-33 -9t-23.5 -24t-8.5 -33t8.5 -33t23.5 -23.5t33 -8.5t33 8.5z" />
    <glyph glyph-name="Uhungarumlaut" unicode="&#x170;" horiz-adv-x="692" 
d="M151 715v-467q0 -105 48 -157t147 -52t147 52t48 157v467h65v-446q0 -91 -26 -155q-55 -133 -234 -133t-234 134q-26 63 -26 154v446h65zM332 956h77l-108 -171h-41zM468 956h76l-117 -171h-41z" />
    <glyph glyph-name="uhungarumlaut" unicode="&#x171;" horiz-adv-x="527" 
d="M127 33q-47 52 -47 153v247h60v-216q0 -63 11 -102t38 -58.5t74 -19.5t74 19.5t38.5 58.5t11.5 102v216h60v-247q0 -102 -46.5 -153.5t-136.5 -51.5t-137 52zM252 674h77l-108 -171h-41zM388 674h76l-117 -171h-41z" />
    <glyph glyph-name="Uogonek" unicode="&#x172;" horiz-adv-x="692" 
d="M151 715v-467q0 -105 48 -157t147 -52t147 52t48 157v467h65v-446q0 -91 -26 -155q-55 -133 -234 -133t-234 134q-26 63 -26 154v446h65zM392 -111q0 -21 12.5 -32.5t30.5 -11.5q20 0 38 7v-50q-23 -8 -54 -8q-21 0 -39 8t-29.5 24.5t-11.5 39.5q0 34 21.5 67.5
t71.5 71.5l31 -5q-71 -61 -71 -111z" />
    <glyph glyph-name="uogonek" unicode="&#x173;" horiz-adv-x="527" 
d="M127 33q-47 52 -47 153v247h60v-216q0 -63 11 -102t38 -58.5t74 -19.5t74 19.5t38.5 58.5t11.5 102v216h60v-247q0 -102 -46.5 -153.5t-136.5 -51.5t-137 52zM286 -111q0 -21 12.5 -32.5t30.5 -11.5q20 0 38 7v-50q-23 -8 -54 -8q-21 0 -39 8t-29.5 24.5t-11.5 39.5
q0 34 21.5 67.5t71.5 71.5l31 -5q-71 -61 -71 -111z" />
    <glyph glyph-name="Wcircumflex" unicode="&#x174;" horiz-adv-x="898" 
d="M12 715h68l179 -571l190 599l198 -594l172 566h67l-239 -734l-198 598l-190 -598zM413 956h71l104 -171h-45l-94 122l-95 -122h-45z" />
    <glyph glyph-name="wcircumflex" unicode="&#x175;" horiz-adv-x="648" 
d="M12 433h63l113 -312l136 335l136 -335l113 312h63l-173 -452l-138 336l-140 -336zM288 674h71l104 -171h-45l-94 122l-95 -122h-45z" />
    <glyph glyph-name="Ycircumflex" unicode="&#x176;" horiz-adv-x="546" 
d="M242 329l-237 386h78l192 -328l193 328h74l-235 -386v-329h-65v329zM237 956h71l104 -171h-45l-94 122l-95 -122h-45z" />
    <glyph glyph-name="ycircumflex" unicode="&#x177;" horiz-adv-x="403" 
d="M177 3l-156 430h64l124 -339l114 339h64l-224 -651h-62zM166 674h71l104 -171h-45l-94 122l-95 -122h-45z" />
    <glyph glyph-name="Ydieresis" unicode="&#x178;" horiz-adv-x="546" 
d="M242 329l-237 386h78l192 -328l193 328h74l-235 -386v-329h-65v329zM153.5 828.5q-13.5 13.5 -13.5 33.5q0 19 14 33.5t33 14.5t33.5 -14.5t14.5 -33.5q0 -20 -14 -33.5t-34 -13.5t-33.5 13.5zM325 828.5q-14 13.5 -14 33.5q0 19 14.5 33.5t33.5 14.5t33 -14.5t14 -33.5
q0 -20 -13.5 -33.5t-33.5 -13.5t-34 13.5z" />
    <glyph glyph-name="Zacute" unicode="&#x179;" horiz-adv-x="560" 
d="M437 656h-363v59h474l-423 -655h380v-60h-493zM319 956h80l-138 -171h-46z" />
    <glyph glyph-name="zacute" unicode="&#x17a;" horiz-adv-x="381" 
d="M253 379h-225v54h329l-240 -380h247v-53h-353zM230 674h80l-138 -171h-46z" />
    <glyph glyph-name="Zdotaccent" unicode="&#x17b;" horiz-adv-x="560" 
d="M437 656h-363v59h474l-423 -655h380v-60h-493zM245 827q-15 15 -15 35t15 35.5t35 15.5t35 -15t15 -36q0 -20 -15 -35t-35 -15t-35 15z" />
    <glyph glyph-name="zdotaccent" unicode="&#x17c;" horiz-adv-x="381" 
d="M253 379h-225v54h329l-240 -380h247v-53h-353zM156 545q-15 15 -15 35t15 35.5t35 15.5t35 -15t15 -36q0 -20 -15 -35t-35 -15t-35 15z" />
    <glyph glyph-name="Zcaron" unicode="&#x17d;" horiz-adv-x="560" 
d="M437 656h-363v59h474l-423 -655h380v-60h-493zM140 956h45l95 -122l94 122h45l-104 -171h-71z" />
    <glyph glyph-name="zcaron" unicode="&#x17e;" horiz-adv-x="381" 
d="M253 379h-225v54h329l-240 -380h247v-53h-353zM51 674h45l95 -122l94 122h45l-104 -171h-71z" />
    <glyph glyph-name="florin" unicode="&#x192;" horiz-adv-x="576" 
d="M91 -213l15 58q12 -6 30 -6q29 0 43.5 21t22 60t16.5 122l40 361h-80l5 46h80l10 89q7 66 22.5 105.5t44 59t75.5 19.5q34 0 62 -14l-10 -52q-31 11 -52 11q-30 0 -45.5 -14.5t-22 -41t-11.5 -77.5l-9 -85h95l-3 -46h-97l-43 -391q-10 -86 -24.5 -135t-42.5 -73t-76 -24
q-12 0 -45 7z" />
    <glyph glyph-name="Ohorn" unicode="&#x1a0;" horiz-adv-x="875" 
d="M791 501q29 -69 29 -145t-29 -144t-83 -121q-55 -53 -124.5 -81.5t-146.5 -28.5q-78 0 -147 28.5t-123 81.5t-83 121.5t-29 143.5q0 77 28.5 145.5t83.5 121.5q54 53 122.5 80.5t147.5 27.5q41 0 71 -6t68 -17q16 -5 31.5 -9t27.5 -4q38 0 64 21t26 60q0 21 -5 44h58
q5 -23 5 -44q0 -47 -29.5 -79.5t-84.5 -40.5q22 -16 39 -33q54 -53 83 -122zM595 81.5q72 42.5 114 115t42 159.5t-42 160t-114 115.5t-158 42.5q-85 0 -157 -42.5t-114 -115.5t-42 -160t41.5 -159.5t113.5 -115t158 -42.5t158 42.5z" />
    <glyph glyph-name="ohorn" unicode="&#x1a1;" horiz-adv-x="558" 
d="M495.5 307.5q18.5 -44.5 18.5 -91.5q0 -64 -32 -118t-86.5 -85.5t-118.5 -31.5q-63 0 -116.5 31t-85 85t-31.5 119q0 64 31.5 117.5t84.5 84.5t117 31q26 0 46 -4t42 -11q12 -4 23.5 -6.5t21.5 -2.5q18 0 36 8.5t29.5 26.5t11.5 44q0 21 -5 44h58q5 -23 5 -44
q0 -45 -27 -76.5t-79 -40.5q38 -35 56.5 -79.5zM364 60.5q39 23.5 62 64.5t23 90q0 50 -23 90.5t-62 64t-85 23.5q-47 0 -86 -23.5t-61.5 -64t-22.5 -90.5q0 -49 23 -90t62 -64.5t85 -23.5t85 23.5z" />
    <glyph glyph-name="Uhorn" unicode="&#x1af;" horiz-adv-x="696" 
d="M151 715v-467q0 -105 48 -157t147 -52t147 52t48 157v467h65v-446q0 -91 -26 -155q-55 -133 -234 -133t-234 134q-26 63 -26 154v446h65zM641 735.5q25 20.5 25 60.5q0 21 -5 44h58q5 -23 5 -44q0 -38 -19.5 -65t-53.5 -40.5t-77 -13.5v38q42 0 67 20.5z" />
    <glyph glyph-name="uhorn" unicode="&#x1b0;" horiz-adv-x="567" 
d="M127 33q-47 52 -47 153v247h60v-216q0 -63 11 -102t38 -58.5t74 -19.5t74 19.5t38.5 58.5t11.5 102v216h60v-247q0 -102 -46.5 -153.5t-136.5 -51.5t-137 52zM484 453.5q25 20.5 25 60.5q0 21 -5 44h58q5 -23 5 -44q0 -38 -19.5 -65t-53.5 -40.5t-77 -13.5v38
q42 0 67 20.5z" />
    <glyph glyph-name="Scommaaccent" unicode="&#x218;" horiz-adv-x="498" 
d="M113 16q-50 35 -79 104l56 30q15 -53 54 -82t92 -29q68 0 106 39.5t38 111.5q0 42 -15.5 70.5t-43.5 48.5t-77 46q-64 33 -101 60t-57.5 62t-20.5 83q0 50 23.5 89t65.5 61t96 22q108 0 158 -91l-50 -30q-15 31 -44 47t-68 16q-53 0 -84 -31t-31 -84q0 -36 14 -59.5
t37.5 -39t69.5 -39.5l37 -20q56 -31 88.5 -58.5t48.5 -63.5t16 -89q0 -64 -25.5 -111t-72.5 -72.5t-111 -25.5q-70 0 -120 35zM168 -189l56 140l55 -14l-76 -140z" />
    <glyph glyph-name="scommaaccent" unicode="&#x219;" horiz-adv-x="382" 
d="M87.5 6.5q-39.5 25.5 -56.5 70.5l57 33q15 -37 41.5 -55t65.5 -18q38 0 60.5 19.5t22.5 51.5q0 24 -10.5 38.5t-27.5 23.5t-50 22l-34 13q-54 22 -79 50t-25 69q0 36 17.5 65t49.5 45t73 16q53 0 90 -22.5t54 -65.5l-55 -31q-10 31 -34 47t-59 16q-31 0 -51.5 -18.5
t-20.5 -45.5q0 -21 11 -35t32.5 -24.5t59.5 -23.5q43 -14 68.5 -30t39 -41t13.5 -64t-18.5 -68.5t-54 -46t-84.5 -16.5q-56 0 -95.5 25.5zM124 -189l56 140l55 -14l-76 -140z" />
    <glyph glyph-name="uni021A" unicode="&#x21a;" horiz-adv-x="497" 
d="M216 654h-197v61h459v-61h-197v-654h-65v654zM168 -189l56 140l55 -14l-76 -140z" />
    <glyph glyph-name="uni021B" unicode="&#x21b;" horiz-adv-x="248" 
d="M93 382h-80v51h80v178h60v-178h86v-51h-86v-382h-60v382zM42 -189l56 140l55 -14l-76 -140z" />
    <glyph glyph-name="dotlessj" unicode="&#x237;" horiz-adv-x="230" 
d="M85 433h60v-651h-60v651z" />
    <glyph glyph-name="uni02BC" unicode="&#x2bc;" horiz-adv-x="441" 
d="M65 547l-35 14l56 140l55 -14z" />
    <glyph glyph-name="circumflex" unicode="&#x2c6;" horiz-adv-x="339" 
d="M134 674h71l104 -171h-45l-94 122l-95 -122h-45z" />
    <glyph glyph-name="caron" unicode="&#x2c7;" horiz-adv-x="339" 
d="M30 674h45l95 -122l94 122h45l-104 -171h-71z" />
    <glyph glyph-name="uni02C9" unicode="&#x2c9;" horiz-adv-x="582" 
d="M30 603h252v-57h-252v57z" />
    <glyph glyph-name="breve" unicode="&#x2d8;" horiz-adv-x="328" 
d="M69 538q-32 28 -39 89h39q5 -33 28 -48t67 -15t66.5 15t27.5 48h40q-7 -61 -39 -89t-95 -28t-95 28z" />
    <glyph glyph-name="dotaccent" unicode="&#x2d9;" horiz-adv-x="160" 
d="M45 545q-15 15 -15 35t15 35.5t35 15.5t35 -15t15 -36q0 -20 -15 -35t-35 -15t-35 15z" />
    <glyph glyph-name="ring" unicode="&#x2da;" horiz-adv-x="302" 
d="M93.5 496.5q-26.5 15.5 -42 42t-15.5 57.5t15.5 57.5t42 42t57.5 15.5q32 0 58.5 -15t41.5 -41.5t15 -58.5q0 -31 -15.5 -57.5t-42 -42t-57.5 -15.5t-57.5 15.5zM184 539.5q15 8.5 23.5 23.5t8.5 33t-8.5 33t-23.5 24t-33 9t-33 -9t-23.5 -24t-8.5 -33t8.5 -33
t23.5 -23.5t33 -8.5t33 8.5z" />
    <glyph glyph-name="ogonek" unicode="&#x2db;" horiz-adv-x="207" 
d="M90 -111q0 -21 12.5 -32.5t30.5 -11.5q20 0 38 7v-50q-23 -8 -54 -8q-21 0 -39 8t-29.5 24.5t-11.5 39.5q0 34 21.5 67.5t71.5 71.5l31 -5q-71 -61 -71 -111z" />
    <glyph glyph-name="tilde" unicode="&#x2dc;" horiz-adv-x="344" 
d="M75 599q25 22 62 22q17 0 29 -4l38 -13q17 -5 30 -5q34 0 47 33h43q-12 -44 -37 -67t-60 -23q-15 0 -32 5l-39 13q-12 4 -28 4t-26.5 -7.5t-18.5 -22.5h-43q10 43 35 65z" />
    <glyph glyph-name="hungarumlaut" unicode="&#x2dd;" horiz-adv-x="344" 
d="M102 674h77l-108 -171h-41zM238 674h76l-117 -171h-41z" />
    <glyph glyph-name="gravecomb" unicode="&#x300;" horiz-adv-x="0" 
d="M-119 674h80l104 -171h-46z" />
    <glyph glyph-name="acutecomb" unicode="&#x301;" horiz-adv-x="0" 
d="M39 674h80l-138 -171h-46z" />
    <glyph glyph-name="circumflexcomb" unicode="&#x302;" horiz-adv-x="0" 
d="M-36 674h71l104 -171h-45l-94 122l-95 -122h-45z" />
    <glyph glyph-name="tildecomb" unicode="&#x303;" horiz-adv-x="0" 
d="M-97 599q25 22 62 22q17 0 29 -4l38 -13q17 -5 30 -5q34 0 47 33h43q-12 -44 -37 -67t-60 -23q-15 0 -32 5l-39 13q-12 4 -28 4t-26.5 -7.5t-18.5 -22.5h-43q10 43 35 65z" />
    <glyph glyph-name="brevecomb" unicode="&#x306;" horiz-adv-x="0" 
d="M-95 538q-32 28 -39 89h39q5 -33 28 -48t67 -15t66.5 15t27.5 48h40q-7 -61 -39 -89t-95 -28t-95 28z" />
    <glyph glyph-name="hookcomb" unicode="&#x309;" horiz-adv-x="0" 
d="M79.5 658q28.5 -21 28.5 -63q0 -41 -30.5 -63.5t-77.5 -22.5q-16 0 -26 2v34q9 -1 24 -1q27 0 41.5 13t14.5 35q0 24 -14.5 36t-41.5 12q-30 0 -66 -14v37q32 16 73 16q46 0 74.5 -21z" />
    <glyph glyph-name="commaturnedabovecomb" unicode="&#x312;" horiz-adv-x="0" 
d="M30 566l76 140l35 -14l-56 -140z" />
    <glyph glyph-name="uni031B" unicode="&#x31b;" horiz-adv-x="0" 
d="M67 453.5q25 20.5 25 60.5q0 21 -5 44h58q5 -23 5 -44q0 -38 -19.5 -65t-53.5 -40.5t-77 -13.5v38q42 0 67 20.5z" />
    <glyph glyph-name="dotbelowcomb" unicode="&#x323;" horiz-adv-x="0" 
d="M35 -90q15 -15 15 -35t-15 -35.5t-35 -15.5t-35 15t-15 36q0 20 15 35t35 15t35 -15z" />
    <glyph glyph-name="commaaccent" unicode="&#x326;" horiz-adv-x="0" 
d="M30 -189l56 140l55 -14l-76 -140z" />
    <glyph glyph-name="uni0335" unicode="&#x335;" horiz-adv-x="0" 
d="M-126 603h252v-57h-252v57z" />
    <glyph glyph-name="uni0394" unicode="&#x394;" horiz-adv-x="597" 
d="M606 0h-615l314 743zM512 61l-211 548l-220 -548h431z" />
    <glyph glyph-name="uni03A9" unicode="&#x3a9;" horiz-adv-x="784" 
d="M60 61h205v86q-62 19 -108.5 60t-71.5 98.5t-25 124.5q0 87 42.5 155.5t118 107t171.5 38.5t171.5 -38.5t118 -107t42.5 -155.5q0 -67 -25 -124.5t-71.5 -98.5t-108.5 -60v-86h205v-61h-256v184q55 10 97.5 42.5t66 82t23.5 108.5q0 72 -34 131t-94.5 92.5t-134.5 33.5
t-134.5 -33.5t-94.5 -92.5t-34 -131q0 -59 23.5 -108.5t66 -82t97.5 -42.5v-184h-256v61z" />
    <glyph glyph-name="uni03BC" unicode="&#x3bc;" horiz-adv-x="534" 
d="M100 519h59l-60 -288q-8 -40 -8 -69q0 -61 29 -93.5t85 -32.5q61 0 106.5 52.5t67.5 153.5l61 277h59l-81 -384q-1 -6 -4 -20t-5.5 -27t-2.5 -19q0 -31 33 -31l19 1l-9 -47q-28 -6 -37 -6q-33 0 -49 15.5t-16 46.5q0 6 2 22q-21 -41 -60.5 -62.5t-91.5 -21.5
q-48 0 -83 22t-51 62l-58 -277h-59z" />
    <glyph glyph-name="pi" unicode="&#x3c0;" horiz-adv-x="472" 
d="M352 5.5q-18 10.5 -26 33t-8 61.5v282h-186v-382h-60v382h-72v51h456v-51h-78v-284q0 -28 8.5 -39t30.5 -11q26 0 45 12v-51q-29 -14 -62 -14q-30 0 -48 10.5z" />
    <glyph glyph-name="Wgrave" unicode="&#x1e80;" horiz-adv-x="898" 
d="M12 715h68l179 -571l190 599l198 -594l172 566h67l-239 -734l-198 598l-190 -598zM330 956h80l104 -171h-46z" />
    <glyph glyph-name="wgrave" unicode="&#x1e81;" horiz-adv-x="648" 
d="M12 433h63l113 -312l136 335l136 -335l113 312h63l-173 -452l-138 336l-140 -336zM205 674h80l104 -171h-46z" />
    <glyph glyph-name="Wacute" unicode="&#x1e82;" horiz-adv-x="898" 
d="M12 715h68l179 -571l190 599l198 -594l172 566h67l-239 -734l-198 598l-190 -598zM488 956h80l-138 -171h-46z" />
    <glyph glyph-name="wacute" unicode="&#x1e83;" horiz-adv-x="648" 
d="M12 433h63l113 -312l136 335l136 -335l113 312h63l-173 -452l-138 336l-140 -336zM363 674h80l-138 -171h-46z" />
    <glyph glyph-name="Wdieresis" unicode="&#x1e84;" horiz-adv-x="898" 
d="M12 715h68l179 -571l190 599l198 -594l172 566h67l-239 -734l-198 598l-190 -598zM329.5 828.5q-13.5 13.5 -13.5 33.5q0 19 14 33.5t33 14.5t33.5 -14.5t14.5 -33.5q0 -20 -14 -33.5t-34 -13.5t-33.5 13.5zM501 828.5q-14 13.5 -14 33.5q0 19 14.5 33.5t33.5 14.5
t33 -14.5t14 -33.5q0 -20 -13.5 -33.5t-33.5 -13.5t-34 13.5z" />
    <glyph glyph-name="wdieresis" unicode="&#x1e85;" horiz-adv-x="648" 
d="M12 433h63l113 -312l136 335l136 -335l113 312h63l-173 -452l-138 336l-140 -336zM204.5 546.5q-13.5 13.5 -13.5 33.5q0 19 14 33.5t33 14.5t33.5 -14.5t14.5 -33.5q0 -20 -14 -33.5t-34 -13.5t-33.5 13.5zM376 546.5q-14 13.5 -14 33.5q0 19 14.5 33.5t33.5 14.5
t33 -14.5t14 -33.5q0 -20 -13.5 -33.5t-33.5 -13.5t-34 13.5z" />
    <glyph glyph-name="Germandbls" unicode="&#x1e9e;" horiz-adv-x="672" 
d="M520.5 375.5q50.5 -26.5 76 -73t25.5 -110.5t-24.5 -111.5t-67.5 -73.5t-98 -26q-68 0 -117.5 35t-77.5 104l56 30q16 -53 53 -82t89 -29q36 0 64.5 18t44.5 52.5t16 82.5q0 79 -43 117.5t-142 38.5h-49v41l159 270h-331v-659h-65v715h469v-46l-160 -265
q72 -2 122.5 -28.5z" />
    <glyph glyph-name="uni1EA0" unicode="&#x1ea0;" horiz-adv-x="597" 
d="M305 743l301 -743h-71l-91 242h-292l-95 -242h-66zM423 298l-122 311l-127 -311h249zM331 -90q15 -15 15 -35t-15 -35.5t-35 -15.5t-35 15t-15 36q0 20 15 35t35 15t35 -15z" />
    <glyph glyph-name="uni1EA1" unicode="&#x1ea1;" horiz-adv-x="541" 
d="M140 10q-47 29 -73 82t-26 122t26 122.5t71.5 83t103.5 29.5q55 0 95.5 -24t62.5 -71v79h60v-433h-60v79q-21 -48 -60 -73t-92 -25q-61 0 -108 29zM331 58.5q33 21.5 51.5 63.5t18.5 101q0 53 -18 91.5t-51 59t-77 20.5t-77 -21.5t-51.5 -62.5t-18.5 -98q0 -84 38 -129.5
t108 -45.5q44 0 77 21.5zM306 -90q15 -15 15 -35t-15 -35.5t-35 -15.5t-35 15t-15 36q0 20 15 35t35 15t35 -15z" />
    <glyph glyph-name="uni1EA2" unicode="&#x1ea2;" horiz-adv-x="597" 
d="M305 743l301 -743h-71l-91 242h-292l-95 -242h-66zM423 298l-122 311l-127 -311h249zM358.5 940q28.5 -21 28.5 -63q0 -41 -30.5 -63.5t-77.5 -22.5q-16 0 -26 2v34q9 -1 24 -1q27 0 41.5 13t14.5 35q0 24 -14.5 36t-41.5 12q-30 0 -66 -14v37q32 16 73 16q46 0 74.5 -21
z" />
    <glyph glyph-name="uni1EA3" unicode="&#x1ea3;" horiz-adv-x="541" 
d="M140 10q-47 29 -73 82t-26 122t26 122.5t71.5 83t103.5 29.5q55 0 95.5 -24t62.5 -71v79h60v-433h-60v79q-21 -48 -60 -73t-92 -25q-61 0 -108 29zM331 58.5q33 21.5 51.5 63.5t18.5 101q0 53 -18 91.5t-51 59t-77 20.5t-77 -21.5t-51.5 -62.5t-18.5 -98q0 -84 38 -129.5
t108 -45.5q44 0 77 21.5zM329.5 658q28.5 -21 28.5 -63q0 -41 -30.5 -63.5t-77.5 -22.5q-16 0 -26 2v34q9 -1 24 -1q27 0 41.5 13t14.5 35q0 24 -14.5 36t-41.5 12q-30 0 -66 -14v37q32 16 73 16q46 0 74.5 -21z" />
    <glyph glyph-name="uni1EA4" unicode="&#x1ea4;" horiz-adv-x="597" 
d="M305 743l301 -743h-71l-91 242h-292l-95 -242h-66zM423 298l-122 311l-127 -311h249zM454 987h72l-102 -97h-42zM263 928h71l104 -143h-45l-94 98l-95 -98h-45z" />
    <glyph glyph-name="uni1EA5" unicode="&#x1ea5;" horiz-adv-x="541" 
d="M140 10q-47 29 -73 82t-26 122t26 122.5t71.5 83t103.5 29.5q55 0 95.5 -24t62.5 -71v79h60v-433h-60v79q-21 -48 -60 -73t-92 -25q-61 0 -108 29zM331 58.5q33 21.5 51.5 63.5t18.5 101q0 53 -18 91.5t-51 59t-77 20.5t-77 -21.5t-51.5 -62.5t-18.5 -98q0 -84 38 -129.5
t108 -45.5q44 0 77 21.5zM426 705h72l-102 -97h-42zM235 646h71l104 -143h-45l-94 98l-95 -98h-45z" />
    <glyph glyph-name="uni1EA6" unicode="&#x1ea6;" horiz-adv-x="597" 
d="M305 743l301 -743h-71l-91 242h-292l-95 -242h-66zM423 298l-122 311l-127 -311h249zM143 987l72 -97h-42l-102 97h72zM263 928h71l104 -143h-45l-94 98l-95 -98h-45z" />
    <glyph glyph-name="uni1EA7" unicode="&#x1ea7;" horiz-adv-x="541" 
d="M140 10q-47 29 -73 82t-26 122t26 122.5t71.5 83t103.5 29.5q55 0 95.5 -24t62.5 -71v79h60v-433h-60v79q-21 -48 -60 -73t-92 -25q-61 0 -108 29zM331 58.5q33 21.5 51.5 63.5t18.5 101q0 53 -18 91.5t-51 59t-77 20.5t-77 -21.5t-51.5 -62.5t-18.5 -98q0 -84 38 -129.5
t108 -45.5q44 0 77 21.5zM115 705l72 -97h-42l-102 97h72zM235 646h71l104 -143h-45l-94 98l-95 -98h-45z" />
    <glyph glyph-name="uni1EA8" unicode="&#x1ea8;" horiz-adv-x="597" 
d="M305 743l301 -743h-71l-91 242h-292l-95 -242h-66zM423 298l-122 311l-127 -311h249zM497 1002q26 -17 26 -50q0 -34 -26.5 -51.5t-64.5 -17.5q-19 0 -34 3v34q16 -2 27 -2q21 0 32.5 8t11.5 23q0 31 -47 31q-28 0 -62 -14v37q14 7 32.5 11.5t36.5 4.5q42 0 68 -17z
M159 785l104 143h71l104 -143h-45l-94 98l-95 -98h-45z" />
    <glyph glyph-name="uni1EA9" unicode="&#x1ea9;" horiz-adv-x="541" 
d="M140 10q-47 29 -73 82t-26 122t26 122.5t71.5 83t103.5 29.5q55 0 95.5 -24t62.5 -71v79h60v-433h-60v79q-21 -48 -60 -73t-92 -25q-61 0 -108 29zM331 58.5q33 21.5 51.5 63.5t18.5 101q0 53 -18 91.5t-51 59t-77 20.5t-77 -21.5t-51.5 -62.5t-18.5 -98q0 -84 38 -129.5
t108 -45.5q44 0 77 21.5zM469 720q26 -17 26 -50q0 -34 -26.5 -51.5t-64.5 -17.5q-19 0 -34 3v34q16 -2 27 -2q21 0 32.5 8t11.5 23q0 31 -47 31q-28 0 -62 -14v37q14 7 32.5 11.5t36.5 4.5q42 0 68 -17zM131 503l104 143h71l104 -143h-45l-94 98l-95 -98h-45z" />
    <glyph glyph-name="uni1EAA" unicode="&#x1eaa;" horiz-adv-x="597" 
d="M305 743l301 -743h-71l-91 242h-292l-95 -242h-66zM423 298l-122 311l-127 -311h249zM196.5 987.5q23.5 18.5 57.5 18.5q19 0 35 -5l34 -10q15 -5 28 -5q31 0 43 29h40q-11 -39 -34.5 -58t-54.5 -19q-18 0 -36 5l-38 11q-16 4 -26 4q-14 0 -24 -6.5t-17 -20.5h-40
q9 38 32.5 56.5zM262 908h73l103 -123h-47l-92 83l-93 -83h-47z" />
    <glyph glyph-name="uni1EAB" unicode="&#x1eab;" horiz-adv-x="541" 
d="M140 10q-47 29 -73 82t-26 122t26 122.5t71.5 83t103.5 29.5q55 0 95.5 -24t62.5 -71v79h60v-433h-60v79q-21 -48 -60 -73t-92 -25q-61 0 -108 29zM331 58.5q33 21.5 51.5 63.5t18.5 101q0 53 -18 91.5t-51 59t-77 20.5t-77 -21.5t-51.5 -62.5t-18.5 -98q0 -84 38 -129.5
t108 -45.5q44 0 77 21.5zM168.5 705.5q23.5 18.5 57.5 18.5q19 0 35 -5l34 -10q15 -5 28 -5q31 0 43 29h40q-11 -39 -34.5 -58t-54.5 -19q-18 0 -36 5l-38 11q-16 4 -26 4q-14 0 -24 -6.5t-17 -20.5h-40q9 38 32.5 56.5zM234 626h73l103 -123h-47l-92 83l-93 -83h-47z" />
    <glyph glyph-name="uni1EAC" unicode="&#x1eac;" horiz-adv-x="597" 
d="M305 743l301 -743h-71l-91 242h-292l-95 -242h-66zM423 298l-122 311l-127 -311h249zM263 956h71l104 -171h-45l-94 122l-95 -122h-45zM331 -90q15 -15 15 -35t-15 -35.5t-35 -15.5t-35 15t-15 36q0 20 15 35t35 15t35 -15z" />
    <glyph glyph-name="uni1EAD" unicode="&#x1ead;" horiz-adv-x="541" 
d="M140 10q-47 29 -73 82t-26 122t26 122.5t71.5 83t103.5 29.5q55 0 95.5 -24t62.5 -71v79h60v-433h-60v79q-21 -48 -60 -73t-92 -25q-61 0 -108 29zM331 58.5q33 21.5 51.5 63.5t18.5 101q0 53 -18 91.5t-51 59t-77 20.5t-77 -21.5t-51.5 -62.5t-18.5 -98q0 -84 38 -129.5
t108 -45.5q44 0 77 21.5zM235 674h71l104 -171h-45l-94 122l-95 -122h-45zM306 -90q15 -15 15 -35t-15 -35.5t-35 -15.5t-35 15t-15 36q0 20 15 35t35 15t35 -15z" />
    <glyph glyph-name="uni1EAE" unicode="&#x1eae;" horiz-adv-x="597" 
d="M305 743l301 -743h-71l-91 242h-292l-95 -242h-66zM423 298l-122 311l-127 -311h249zM346 997h72l-102 -97h-42zM204 819q-32 27 -39 86h39q5 -31 28 -45t67 -14t66.5 14t27.5 45h40q-7 -59 -39 -86t-95 -27t-95 27z" />
    <glyph glyph-name="uni1EAF" unicode="&#x1eaf;" horiz-adv-x="541" 
d="M140 10q-47 29 -73 82t-26 122t26 122.5t71.5 83t103.5 29.5q55 0 95.5 -24t62.5 -71v79h60v-433h-60v79q-21 -48 -60 -73t-92 -25q-61 0 -108 29zM331 58.5q33 21.5 51.5 63.5t18.5 101q0 53 -18 91.5t-51 59t-77 20.5t-77 -21.5t-51.5 -62.5t-18.5 -98q0 -84 38 -129.5
t108 -45.5q44 0 77 21.5zM318 715h72l-102 -97h-42zM176 537q-32 27 -39 86h39q5 -31 28 -45t67 -14t66.5 14t27.5 45h40q-7 -59 -39 -86t-95 -27t-95 27z" />
    <glyph glyph-name="uni1EB0" unicode="&#x1eb0;" horiz-adv-x="597" 
d="M305 743l301 -743h-71l-91 242h-292l-95 -242h-66zM423 298l-122 311l-127 -311h249zM176 997h72l72 -97h-42zM204 819q-32 27 -39 86h39q5 -31 28 -45t67 -14t66.5 14t27.5 45h40q-7 -59 -39 -86t-95 -27t-95 27z" />
    <glyph glyph-name="uni1EB1" unicode="&#x1eb1;" horiz-adv-x="541" 
d="M140 10q-47 29 -73 82t-26 122t26 122.5t71.5 83t103.5 29.5q55 0 95.5 -24t62.5 -71v79h60v-433h-60v79q-21 -48 -60 -73t-92 -25q-61 0 -108 29zM331 58.5q33 21.5 51.5 63.5t18.5 101q0 53 -18 91.5t-51 59t-77 20.5t-77 -21.5t-51.5 -62.5t-18.5 -98q0 -84 38 -129.5
t108 -45.5q44 0 77 21.5zM148 715h72l72 -97h-42zM176 537q-32 27 -39 86h39q5 -31 28 -45t67 -14t66.5 14t27.5 45h40q-7 -59 -39 -86t-95 -27t-95 27z" />
    <glyph glyph-name="uni1EB2" unicode="&#x1eb2;" horiz-adv-x="597" 
d="M305 743l301 -743h-71l-91 242h-292l-95 -242h-66zM423 298l-122 311l-127 -311h249zM357 1016.5q27 -16.5 27 -50.5t-29 -51.5t-70 -17.5q-23 0 -38 3v34q18 -2 33 -2q23 0 36.5 8t13.5 23q0 17 -12 24t-35 7q-32 0 -66 -14v37q34 16 69 16q44 0 71 -16.5zM230 860.5
q25 -14.5 69 -14.5t68.5 14t29.5 45h40q-7 -59 -40.5 -86t-97.5 -27t-97.5 27t-40.5 86h39q5 -30 30 -44.5z" />
    <glyph glyph-name="uni1EB3" unicode="&#x1eb3;" horiz-adv-x="541" 
d="M140 10q-47 29 -73 82t-26 122t26 122.5t71.5 83t103.5 29.5q55 0 95.5 -24t62.5 -71v79h60v-433h-60v79q-21 -48 -60 -73t-92 -25q-61 0 -108 29zM331 58.5q33 21.5 51.5 63.5t18.5 101q0 53 -18 91.5t-51 59t-77 20.5t-77 -21.5t-51.5 -62.5t-18.5 -98q0 -84 38 -129.5
t108 -45.5q44 0 77 21.5zM329 734.5q27 -16.5 27 -50.5t-29 -51.5t-70 -17.5q-23 0 -38 3v34q18 -2 33 -2q23 0 36.5 8t13.5 23q0 17 -12 24t-35 7q-32 0 -66 -14v37q34 16 69 16q44 0 71 -16.5zM202 578.5q25 -14.5 69 -14.5t68.5 14t29.5 45h40q-7 -59 -40.5 -86
t-97.5 -27t-97.5 27t-40.5 86h39q5 -30 30 -44.5z" />
    <glyph glyph-name="uni1EB4" unicode="&#x1eb4;" horiz-adv-x="597" 
d="M305 743l301 -743h-71l-91 242h-292l-95 -242h-66zM423 298l-122 311l-127 -311h249zM196.5 987.5q23.5 18.5 57.5 18.5q19 0 35 -5l34 -10q15 -5 28 -5q31 0 43 29h40q-11 -39 -34.5 -58t-54.5 -19q-18 0 -36 5l-38 11q-16 4 -26 4q-14 0 -24 -6.5t-17 -20.5h-40
q9 38 32.5 56.5zM204 819q-32 27 -39 86h39q5 -31 28 -45t67 -14t66.5 14t27.5 45h40q-7 -59 -39 -86t-95 -27t-95 27z" />
    <glyph glyph-name="uni1EB5" unicode="&#x1eb5;" horiz-adv-x="541" 
d="M140 10q-47 29 -73 82t-26 122t26 122.5t71.5 83t103.5 29.5q55 0 95.5 -24t62.5 -71v79h60v-433h-60v79q-21 -48 -60 -73t-92 -25q-61 0 -108 29zM331 58.5q33 21.5 51.5 63.5t18.5 101q0 53 -18 91.5t-51 59t-77 20.5t-77 -21.5t-51.5 -62.5t-18.5 -98q0 -84 38 -129.5
t108 -45.5q44 0 77 21.5zM168.5 705.5q23.5 18.5 57.5 18.5q19 0 35 -5l34 -10q15 -5 28 -5q31 0 43 29h40q-11 -39 -34.5 -58t-54.5 -19q-18 0 -36 5l-38 11q-16 4 -26 4q-14 0 -24 -6.5t-17 -20.5h-40q9 38 32.5 56.5zM176 537q-32 27 -39 86h39q5 -31 28 -45t67 -14
t66.5 14t27.5 45h40q-7 -59 -39 -86t-95 -27t-95 27z" />
    <glyph glyph-name="uni1EB6" unicode="&#x1eb6;" horiz-adv-x="597" 
d="M305 743l301 -743h-71l-91 242h-292l-95 -242h-66zM423 298l-122 311l-127 -311h249zM204 820q-32 28 -39 89h39q5 -33 28 -48t67 -15t66.5 15t27.5 48h40q-7 -61 -39 -89t-95 -28t-95 28zM331 -90q15 -15 15 -35t-15 -35.5t-35 -15.5t-35 15t-15 36q0 20 15 35t35 15
t35 -15z" />
    <glyph glyph-name="uni1EB7" unicode="&#x1eb7;" horiz-adv-x="541" 
d="M140 10q-47 29 -73 82t-26 122t26 122.5t71.5 83t103.5 29.5q55 0 95.5 -24t62.5 -71v79h60v-433h-60v79q-21 -48 -60 -73t-92 -25q-61 0 -108 29zM331 58.5q33 21.5 51.5 63.5t18.5 101q0 53 -18 91.5t-51 59t-77 20.5t-77 -21.5t-51.5 -62.5t-18.5 -98q0 -84 38 -129.5
t108 -45.5q44 0 77 21.5zM176 538q-32 28 -39 89h39q5 -33 28 -48t67 -15t66.5 15t27.5 48h40q-7 -61 -39 -89t-95 -28t-95 28zM306 -90q15 -15 15 -35t-15 -35.5t-35 -15.5t-35 15t-15 36q0 20 15 35t35 15t35 -15z" />
    <glyph glyph-name="uni1EB8" unicode="&#x1eb8;" horiz-adv-x="513" 
d="M89 715h354v-61h-289v-224h289v-61h-289v-308h289v-61h-354v715zM298 -90q15 -15 15 -35t-15 -35.5t-35 -15.5t-35 15t-15 36q0 20 15 35t35 15t35 -15z" />
    <glyph glyph-name="uni1EB9" unicode="&#x1eb9;" horiz-adv-x="497" 
d="M145 10.5q-48 29.5 -75 82t-27 119.5q0 71 27 124.5t75 83t109 29.5q58 0 103 -26.5t70 -76.5t25 -116v-15h-344q1 -56 20 -96.5t52 -62t76 -21.5q48 0 83.5 26t60.5 78l55 -30q-33 -66 -81 -97t-118 -31q-63 0 -111 29.5zM381 266q-4 60 -39.5 92.5t-95.5 32.5
q-35 0 -64.5 -15.5t-48 -44t-21.5 -65.5h269zM285 -90q15 -15 15 -35t-15 -35.5t-35 -15.5t-35 15t-15 36q0 20 15 35t35 15t35 -15z" />
    <glyph glyph-name="uni1EBA" unicode="&#x1eba;" horiz-adv-x="513" 
d="M89 715h354v-61h-289v-224h289v-61h-289v-308h289v-61h-354v715zM323.5 940q28.5 -21 28.5 -63q0 -41 -30.5 -63.5t-77.5 -22.5q-16 0 -26 2v34q9 -1 24 -1q27 0 41.5 13t14.5 35q0 24 -14.5 36t-41.5 12q-30 0 -66 -14v37q32 16 73 16q46 0 74.5 -21z" />
    <glyph glyph-name="uni1EBB" unicode="&#x1ebb;" horiz-adv-x="497" 
d="M145 10.5q-48 29.5 -75 82t-27 119.5q0 71 27 124.5t75 83t109 29.5q58 0 103 -26.5t70 -76.5t25 -116v-15h-344q1 -56 20 -96.5t52 -62t76 -21.5q48 0 83.5 26t60.5 78l55 -30q-33 -66 -81 -97t-118 -31q-63 0 -111 29.5zM381 266q-4 60 -39.5 92.5t-95.5 32.5
q-35 0 -64.5 -15.5t-48 -44t-21.5 -65.5h269zM307.5 658q28.5 -21 28.5 -63q0 -41 -30.5 -63.5t-77.5 -22.5q-16 0 -26 2v34q9 -1 24 -1q27 0 41.5 13t14.5 35q0 24 -14.5 36t-41.5 12q-30 0 -66 -14v37q32 16 73 16q46 0 74.5 -21z" />
    <glyph glyph-name="uni1EBC" unicode="&#x1ebc;" horiz-adv-x="513" 
d="M89 715h354v-61h-289v-224h289v-61h-289v-308h289v-61h-354v715zM167 881q25 22 62 22q17 0 29 -4l38 -13q17 -5 30 -5q34 0 47 33h43q-12 -44 -37 -67t-60 -23q-15 0 -32 5l-39 13q-12 4 -28 4t-26.5 -7.5t-18.5 -22.5h-43q10 43 35 65z" />
    <glyph glyph-name="uni1EBD" unicode="&#x1ebd;" horiz-adv-x="497" 
d="M145 10.5q-48 29.5 -75 82t-27 119.5q0 71 27 124.5t75 83t109 29.5q58 0 103 -26.5t70 -76.5t25 -116v-15h-344q1 -56 20 -96.5t52 -62t76 -21.5q48 0 83.5 26t60.5 78l55 -30q-33 -66 -81 -97t-118 -31q-63 0 -111 29.5zM381 266q-4 60 -39.5 92.5t-95.5 32.5
q-35 0 -64.5 -15.5t-48 -44t-21.5 -65.5h269zM152 599q25 22 62 22q17 0 29 -4l38 -13q17 -5 30 -5q34 0 47 33h43q-12 -44 -37 -67t-60 -23q-15 0 -32 5l-39 13q-12 4 -28 4t-26.5 -7.5t-18.5 -22.5h-43q10 43 35 65z" />
    <glyph glyph-name="uni1EBE" unicode="&#x1ebe;" horiz-adv-x="513" 
d="M89 715h354v-61h-289v-224h289v-61h-289v-308h289v-61h-354v715zM419 987h72l-102 -97h-42zM228 928h71l104 -143h-45l-94 98l-95 -98h-45z" />
    <glyph glyph-name="uni1EBF" unicode="&#x1ebf;" horiz-adv-x="497" 
d="M145 10.5q-48 29.5 -75 82t-27 119.5q0 71 27 124.5t75 83t109 29.5q58 0 103 -26.5t70 -76.5t25 -116v-15h-344q1 -56 20 -96.5t52 -62t76 -21.5q48 0 83.5 26t60.5 78l55 -30q-33 -66 -81 -97t-118 -31q-63 0 -111 29.5zM381 266q-4 60 -39.5 92.5t-95.5 32.5
q-35 0 -64.5 -15.5t-48 -44t-21.5 -65.5h269zM404 705h72l-102 -97h-42zM213 646h71l104 -143h-45l-94 98l-95 -98h-45z" />
    <glyph glyph-name="uni1EC0" unicode="&#x1ec0;" horiz-adv-x="513" 
d="M89 715h354v-61h-289v-224h289v-61h-289v-308h289v-61h-354v715zM108 987l72 -97h-42l-102 97h72zM228 928h71l104 -143h-45l-94 98l-95 -98h-45z" />
    <glyph glyph-name="uni1EC1" unicode="&#x1ec1;" horiz-adv-x="497" 
d="M145 10.5q-48 29.5 -75 82t-27 119.5q0 71 27 124.5t75 83t109 29.5q58 0 103 -26.5t70 -76.5t25 -116v-15h-344q1 -56 20 -96.5t52 -62t76 -21.5q48 0 83.5 26t60.5 78l55 -30q-33 -66 -81 -97t-118 -31q-63 0 -111 29.5zM381 266q-4 60 -39.5 92.5t-95.5 32.5
q-35 0 -64.5 -15.5t-48 -44t-21.5 -65.5h269zM93 705l72 -97h-42l-102 97h72zM213 646h71l104 -143h-45l-94 98l-95 -98h-45z" />
    <glyph glyph-name="uni1EC2" unicode="&#x1ec2;" horiz-adv-x="513" 
d="M89 715h354v-61h-289v-224h289v-61h-289v-308h289v-61h-354v715zM462 1002q26 -17 26 -50q0 -34 -26.5 -51.5t-64.5 -17.5q-19 0 -34 3v34q16 -2 27 -2q21 0 32.5 8t11.5 23q0 31 -47 31q-28 0 -62 -14v37q14 7 32.5 11.5t36.5 4.5q42 0 68 -17zM124 785l104 143h71
l104 -143h-45l-94 98l-95 -98h-45z" />
    <glyph glyph-name="uni1EC3" unicode="&#x1ec3;" horiz-adv-x="497" 
d="M145 10.5q-48 29.5 -75 82t-27 119.5q0 71 27 124.5t75 83t109 29.5q58 0 103 -26.5t70 -76.5t25 -116v-15h-344q1 -56 20 -96.5t52 -62t76 -21.5q48 0 83.5 26t60.5 78l55 -30q-33 -66 -81 -97t-118 -31q-63 0 -111 29.5zM381 266q-4 60 -39.5 92.5t-95.5 32.5
q-35 0 -64.5 -15.5t-48 -44t-21.5 -65.5h269zM447 720q26 -17 26 -50q0 -34 -26.5 -51.5t-64.5 -17.5q-19 0 -34 3v34q16 -2 27 -2q21 0 32.5 8t11.5 23q0 31 -47 31q-28 0 -62 -14v37q14 7 32.5 11.5t36.5 4.5q42 0 68 -17zM109 503l104 143h71l104 -143h-45l-94 98
l-95 -98h-45z" />
    <glyph glyph-name="uni1EC4" unicode="&#x1ec4;" horiz-adv-x="513" 
d="M89 715h354v-61h-289v-224h289v-61h-289v-308h289v-61h-354v715zM161.5 987.5q23.5 18.5 57.5 18.5q19 0 35 -5l34 -10q15 -5 28 -5q31 0 43 29h40q-11 -39 -34.5 -58t-54.5 -19q-18 0 -36 5l-38 11q-16 4 -26 4q-14 0 -24 -6.5t-17 -20.5h-40q9 38 32.5 56.5zM227 908
h73l103 -123h-47l-92 83l-93 -83h-47z" />
    <glyph glyph-name="uni1EC5" unicode="&#x1ec5;" horiz-adv-x="497" 
d="M145 10.5q-48 29.5 -75 82t-27 119.5q0 71 27 124.5t75 83t109 29.5q58 0 103 -26.5t70 -76.5t25 -116v-15h-344q1 -56 20 -96.5t52 -62t76 -21.5q48 0 83.5 26t60.5 78l55 -30q-33 -66 -81 -97t-118 -31q-63 0 -111 29.5zM381 266q-4 60 -39.5 92.5t-95.5 32.5
q-35 0 -64.5 -15.5t-48 -44t-21.5 -65.5h269zM146.5 705.5q23.5 18.5 57.5 18.5q19 0 35 -5l34 -10q15 -5 28 -5q31 0 43 29h40q-11 -39 -34.5 -58t-54.5 -19q-18 0 -36 5l-38 11q-16 4 -26 4q-14 0 -24 -6.5t-17 -20.5h-40q9 38 32.5 56.5zM212 626h73l103 -123h-47l-92 83
l-93 -83h-47z" />
    <glyph glyph-name="uni1EC6" unicode="&#x1ec6;" horiz-adv-x="513" 
d="M89 715h354v-61h-289v-224h289v-61h-289v-308h289v-61h-354v715zM228 956h71l104 -171h-45l-94 122l-95 -122h-45zM298 -90q15 -15 15 -35t-15 -35.5t-35 -15.5t-35 15t-15 36q0 20 15 35t35 15t35 -15z" />
    <glyph glyph-name="uni1EC7" unicode="&#x1ec7;" horiz-adv-x="497" 
d="M145 10.5q-48 29.5 -75 82t-27 119.5q0 71 27 124.5t75 83t109 29.5q58 0 103 -26.5t70 -76.5t25 -116v-15h-344q1 -56 20 -96.5t52 -62t76 -21.5q48 0 83.5 26t60.5 78l55 -30q-33 -66 -81 -97t-118 -31q-63 0 -111 29.5zM381 266q-4 60 -39.5 92.5t-95.5 32.5
q-35 0 -64.5 -15.5t-48 -44t-21.5 -65.5h269zM213 674h71l104 -171h-45l-94 122l-95 -122h-45zM285 -90q15 -15 15 -35t-15 -35.5t-35 -15.5t-35 15t-15 36q0 20 15 35t35 15t35 -15z" />
    <glyph glyph-name="uni1EC8" unicode="&#x1ec8;" horiz-adv-x="243" 
d="M154 715v-715h-65v715h65zM181.5 940q28.5 -21 28.5 -63q0 -41 -30.5 -63.5t-77.5 -22.5q-16 0 -26 2v34q9 -1 24 -1q27 0 41.5 13t14.5 35q0 24 -14.5 36t-41.5 12q-30 0 -66 -14v37q32 16 73 16q46 0 74.5 -21z" />
    <glyph glyph-name="uni1EC9" unicode="&#x1ec9;" horiz-adv-x="230" 
d="M85 433h60v-433h-60v433zM173.5 658q28.5 -21 28.5 -63q0 -41 -30.5 -63.5t-77.5 -22.5q-16 0 -26 2v34q9 -1 24 -1q27 0 41.5 13t14.5 35q0 24 -14.5 36t-41.5 12q-30 0 -66 -14v37q32 16 73 16q46 0 74.5 -21z" />
    <glyph glyph-name="uni1ECA" unicode="&#x1eca;" horiz-adv-x="243" 
d="M154 715v-715h-65v715h65zM157 -90q15 -15 15 -35t-15 -35.5t-35 -15.5t-35 15t-15 36q0 20 15 35t35 15t35 -15z" />
    <glyph glyph-name="uni1ECB" unicode="&#x1ecb;" horiz-adv-x="230" 
d="M82 569.5q-13 13.5 -13 32.5q0 20 13.5 33t32.5 13t33 -13t14 -33q0 -19 -13.5 -32.5t-33.5 -13.5t-33 13.5zM85 433h60v-433h-60v433zM150 -90q15 -15 15 -35t-15 -35.5t-35 -15.5t-35 15t-15 36q0 20 15 35t35 15t35 -15z" />
    <glyph glyph-name="uni1ECC" unicode="&#x1ecc;" horiz-adv-x="875" 
d="M290 9.5q-69 28.5 -123 81.5t-83 121.5t-29 143.5q0 77 28.5 145.5t83.5 121.5q54 53 122.5 80.5t147.5 27.5t148 -27.5t123 -80.5t83 -122t29 -145t-29 -144t-83 -121q-55 -53 -124.5 -81.5t-146.5 -28.5q-78 0 -147 28.5zM595 81.5q72 42.5 114 115t42 159.5t-42 160
t-114 115.5t-158 42.5q-85 0 -157 -42.5t-114 -115.5t-42 -160t41.5 -159.5t113.5 -115t158 -42.5t158 42.5zM472 -90q15 -15 15 -35t-15 -35.5t-35 -15.5t-35 15t-15 36q0 20 15 35t35 15t35 -15z" />
    <glyph glyph-name="uni1ECD" unicode="&#x1ecd;" horiz-adv-x="558" 
d="M160.5 12q-53.5 31 -85 85t-31.5 119q0 64 31.5 117.5t84.5 84.5t117 31q65 0 119.5 -31t86 -84.5t31.5 -117.5t-32 -118t-86.5 -85.5t-118.5 -31.5q-63 0 -116.5 31zM364 60.5q39 23.5 62 64.5t23 90q0 50 -23 90.5t-62 64t-85 23.5q-47 0 -86 -23.5t-61.5 -64
t-22.5 -90.5q0 -49 23 -90t62 -64.5t85 -23.5t85 23.5zM312 -90q15 -15 15 -35t-15 -35.5t-35 -15.5t-35 15t-15 36q0 20 15 35t35 15t35 -15z" />
    <glyph glyph-name="uni1ECE" unicode="&#x1ece;" horiz-adv-x="875" 
d="M290 9.5q-69 28.5 -123 81.5t-83 121.5t-29 143.5q0 77 28.5 145.5t83.5 121.5q54 53 122.5 80.5t147.5 27.5t148 -27.5t123 -80.5t83 -122t29 -145t-29 -144t-83 -121q-55 -53 -124.5 -81.5t-146.5 -28.5q-78 0 -147 28.5zM595 81.5q72 42.5 114 115t42 159.5t-42 160
t-114 115.5t-158 42.5q-85 0 -157 -42.5t-114 -115.5t-42 -160t41.5 -159.5t113.5 -115t158 -42.5t158 42.5zM497.5 940q28.5 -21 28.5 -63q0 -41 -30.5 -63.5t-77.5 -22.5q-16 0 -26 2v34q9 -1 24 -1q27 0 41.5 13t14.5 35q0 24 -14.5 36t-41.5 12q-30 0 -66 -14v37
q32 16 73 16q46 0 74.5 -21z" />
    <glyph glyph-name="uni1ECF" unicode="&#x1ecf;" horiz-adv-x="558" 
d="M160.5 12q-53.5 31 -85 85t-31.5 119q0 64 31.5 117.5t84.5 84.5t117 31q65 0 119.5 -31t86 -84.5t31.5 -117.5t-32 -118t-86.5 -85.5t-118.5 -31.5q-63 0 -116.5 31zM364 60.5q39 23.5 62 64.5t23 90q0 50 -23 90.5t-62 64t-85 23.5q-47 0 -86 -23.5t-61.5 -64
t-22.5 -90.5q0 -49 23 -90t62 -64.5t85 -23.5t85 23.5zM337.5 658q28.5 -21 28.5 -63q0 -41 -30.5 -63.5t-77.5 -22.5q-16 0 -26 2v34q9 -1 24 -1q27 0 41.5 13t14.5 35q0 24 -14.5 36t-41.5 12q-30 0 -66 -14v37q32 16 73 16q46 0 74.5 -21z" />
    <glyph glyph-name="uni1ED0" unicode="&#x1ed0;" horiz-adv-x="875" 
d="M290 9.5q-69 28.5 -123 81.5t-83 121.5t-29 143.5q0 77 28.5 145.5t83.5 121.5q54 53 122.5 80.5t147.5 27.5t148 -27.5t123 -80.5t83 -122t29 -145t-29 -144t-83 -121q-55 -53 -124.5 -81.5t-146.5 -28.5q-78 0 -147 28.5zM595 81.5q72 42.5 114 115t42 159.5t-42 160
t-114 115.5t-158 42.5q-85 0 -157 -42.5t-114 -115.5t-42 -160t41.5 -159.5t113.5 -115t158 -42.5t158 42.5zM593 987h72l-102 -97h-42zM402 928h71l104 -143h-45l-94 98l-95 -98h-45z" />
    <glyph glyph-name="uni1ED1" unicode="&#x1ed1;" horiz-adv-x="558" 
d="M160.5 12q-53.5 31 -85 85t-31.5 119q0 64 31.5 117.5t84.5 84.5t117 31q65 0 119.5 -31t86 -84.5t31.5 -117.5t-32 -118t-86.5 -85.5t-118.5 -31.5q-63 0 -116.5 31zM364 60.5q39 23.5 62 64.5t23 90q0 50 -23 90.5t-62 64t-85 23.5q-47 0 -86 -23.5t-61.5 -64
t-22.5 -90.5q0 -49 23 -90t62 -64.5t85 -23.5t85 23.5zM434 705h72l-102 -97h-42zM243 646h71l104 -143h-45l-94 98l-95 -98h-45z" />
    <glyph glyph-name="uni1ED2" unicode="&#x1ed2;" horiz-adv-x="875" 
d="M290 9.5q-69 28.5 -123 81.5t-83 121.5t-29 143.5q0 77 28.5 145.5t83.5 121.5q54 53 122.5 80.5t147.5 27.5t148 -27.5t123 -80.5t83 -122t29 -145t-29 -144t-83 -121q-55 -53 -124.5 -81.5t-146.5 -28.5q-78 0 -147 28.5zM595 81.5q72 42.5 114 115t42 159.5t-42 160
t-114 115.5t-158 42.5q-85 0 -157 -42.5t-114 -115.5t-42 -160t41.5 -159.5t113.5 -115t158 -42.5t158 42.5zM282 987l72 -97h-42l-102 97h72zM402 928h71l104 -143h-45l-94 98l-95 -98h-45z" />
    <glyph glyph-name="uni1ED3" unicode="&#x1ed3;" horiz-adv-x="558" 
d="M160.5 12q-53.5 31 -85 85t-31.5 119q0 64 31.5 117.5t84.5 84.5t117 31q65 0 119.5 -31t86 -84.5t31.5 -117.5t-32 -118t-86.5 -85.5t-118.5 -31.5q-63 0 -116.5 31zM364 60.5q39 23.5 62 64.5t23 90q0 50 -23 90.5t-62 64t-85 23.5q-47 0 -86 -23.5t-61.5 -64
t-22.5 -90.5q0 -49 23 -90t62 -64.5t85 -23.5t85 23.5zM123 705l72 -97h-42l-102 97h72zM243 646h71l104 -143h-45l-94 98l-95 -98h-45z" />
    <glyph glyph-name="uni1ED4" unicode="&#x1ed4;" horiz-adv-x="875" 
d="M290 9.5q-69 28.5 -123 81.5t-83 121.5t-29 143.5q0 77 28.5 145.5t83.5 121.5q54 53 122.5 80.5t147.5 27.5t148 -27.5t123 -80.5t83 -122t29 -145t-29 -144t-83 -121q-55 -53 -124.5 -81.5t-146.5 -28.5q-78 0 -147 28.5zM595 81.5q72 42.5 114 115t42 159.5t-42 160
t-114 115.5t-158 42.5q-85 0 -157 -42.5t-114 -115.5t-42 -160t41.5 -159.5t113.5 -115t158 -42.5t158 42.5zM636 1002q26 -17 26 -50q0 -34 -26.5 -51.5t-64.5 -17.5q-19 0 -34 3v34q16 -2 27 -2q21 0 32.5 8t11.5 23q0 31 -47 31q-28 0 -62 -14v37q14 7 32.5 11.5
t36.5 4.5q42 0 68 -17zM298 785l104 143h71l104 -143h-45l-94 98l-95 -98h-45z" />
    <glyph glyph-name="uni1ED5" unicode="&#x1ed5;" horiz-adv-x="558" 
d="M160.5 12q-53.5 31 -85 85t-31.5 119q0 64 31.5 117.5t84.5 84.5t117 31q65 0 119.5 -31t86 -84.5t31.5 -117.5t-32 -118t-86.5 -85.5t-118.5 -31.5q-63 0 -116.5 31zM364 60.5q39 23.5 62 64.5t23 90q0 50 -23 90.5t-62 64t-85 23.5q-47 0 -86 -23.5t-61.5 -64
t-22.5 -90.5q0 -49 23 -90t62 -64.5t85 -23.5t85 23.5zM477 720q26 -17 26 -50q0 -34 -26.5 -51.5t-64.5 -17.5q-19 0 -34 3v34q16 -2 27 -2q21 0 32.5 8t11.5 23q0 31 -47 31q-28 0 -62 -14v37q14 7 32.5 11.5t36.5 4.5q42 0 68 -17zM139 503l104 143h71l104 -143h-45
l-94 98l-95 -98h-45z" />
    <glyph glyph-name="uni1ED6" unicode="&#x1ed6;" horiz-adv-x="875" 
d="M290 9.5q-69 28.5 -123 81.5t-83 121.5t-29 143.5q0 77 28.5 145.5t83.5 121.5q54 53 122.5 80.5t147.5 27.5t148 -27.5t123 -80.5t83 -122t29 -145t-29 -144t-83 -121q-55 -53 -124.5 -81.5t-146.5 -28.5q-78 0 -147 28.5zM595 81.5q72 42.5 114 115t42 159.5t-42 160
t-114 115.5t-158 42.5q-85 0 -157 -42.5t-114 -115.5t-42 -160t41.5 -159.5t113.5 -115t158 -42.5t158 42.5zM335.5 987.5q23.5 18.5 57.5 18.5q19 0 35 -5l34 -10q15 -5 28 -5q31 0 43 29h40q-11 -39 -34.5 -58t-54.5 -19q-18 0 -36 5l-38 11q-16 4 -26 4q-14 0 -24 -6.5
t-17 -20.5h-40q9 38 32.5 56.5zM401 908h73l103 -123h-47l-92 83l-93 -83h-47z" />
    <glyph glyph-name="uni1ED7" unicode="&#x1ed7;" horiz-adv-x="558" 
d="M160.5 12q-53.5 31 -85 85t-31.5 119q0 64 31.5 117.5t84.5 84.5t117 31q65 0 119.5 -31t86 -84.5t31.5 -117.5t-32 -118t-86.5 -85.5t-118.5 -31.5q-63 0 -116.5 31zM364 60.5q39 23.5 62 64.5t23 90q0 50 -23 90.5t-62 64t-85 23.5q-47 0 -86 -23.5t-61.5 -64
t-22.5 -90.5q0 -49 23 -90t62 -64.5t85 -23.5t85 23.5zM176.5 705.5q23.5 18.5 57.5 18.5q19 0 35 -5l34 -10q15 -5 28 -5q31 0 43 29h40q-11 -39 -34.5 -58t-54.5 -19q-18 0 -36 5l-38 11q-16 4 -26 4q-14 0 -24 -6.5t-17 -20.5h-40q9 38 32.5 56.5zM242 626h73l103 -123
h-47l-92 83l-93 -83h-47z" />
    <glyph glyph-name="uni1ED8" unicode="&#x1ed8;" horiz-adv-x="875" 
d="M290 9.5q-69 28.5 -123 81.5t-83 121.5t-29 143.5q0 77 28.5 145.5t83.5 121.5q54 53 122.5 80.5t147.5 27.5t148 -27.5t123 -80.5t83 -122t29 -145t-29 -144t-83 -121q-55 -53 -124.5 -81.5t-146.5 -28.5q-78 0 -147 28.5zM595 81.5q72 42.5 114 115t42 159.5t-42 160
t-114 115.5t-158 42.5q-85 0 -157 -42.5t-114 -115.5t-42 -160t41.5 -159.5t113.5 -115t158 -42.5t158 42.5zM402 956h71l104 -171h-45l-94 122l-95 -122h-45zM472 -90q15 -15 15 -35t-15 -35.5t-35 -15.5t-35 15t-15 36q0 20 15 35t35 15t35 -15z" />
    <glyph glyph-name="uni1ED9" unicode="&#x1ed9;" horiz-adv-x="558" 
d="M160.5 12q-53.5 31 -85 85t-31.5 119q0 64 31.5 117.5t84.5 84.5t117 31q65 0 119.5 -31t86 -84.5t31.5 -117.5t-32 -118t-86.5 -85.5t-118.5 -31.5q-63 0 -116.5 31zM364 60.5q39 23.5 62 64.5t23 90q0 50 -23 90.5t-62 64t-85 23.5q-47 0 -86 -23.5t-61.5 -64
t-22.5 -90.5q0 -49 23 -90t62 -64.5t85 -23.5t85 23.5zM243 674h71l104 -171h-45l-94 122l-95 -122h-45zM312 -90q15 -15 15 -35t-15 -35.5t-35 -15.5t-35 15t-15 36q0 20 15 35t35 15t35 -15z" />
    <glyph glyph-name="uni1EDA" unicode="&#x1eda;" horiz-adv-x="875" 
d="M791 501q29 -69 29 -145t-29 -144t-83 -121q-55 -53 -124.5 -81.5t-146.5 -28.5q-78 0 -147 28.5t-123 81.5t-83 121.5t-29 143.5q0 77 28.5 145.5t83.5 121.5q54 53 122.5 80.5t147.5 27.5q41 0 71 -6t68 -17q16 -5 31.5 -9t27.5 -4q38 0 64 21t26 60q0 21 -5 44h58
q5 -23 5 -44q0 -47 -29.5 -79.5t-84.5 -40.5q22 -16 39 -33q54 -53 83 -122zM595 81.5q72 42.5 114 115t42 159.5t-42 160t-114 115.5t-158 42.5q-85 0 -157 -42.5t-114 -115.5t-42 -160t41.5 -159.5t113.5 -115t158 -42.5t158 42.5zM477 956h80l-138 -171h-46z" />
    <glyph glyph-name="uni1EDB" unicode="&#x1edb;" horiz-adv-x="558" 
d="M495.5 307.5q18.5 -44.5 18.5 -91.5q0 -64 -32 -118t-86.5 -85.5t-118.5 -31.5q-63 0 -116.5 31t-85 85t-31.5 119q0 64 31.5 117.5t84.5 84.5t117 31q26 0 46 -4t42 -11q12 -4 23.5 -6.5t21.5 -2.5q18 0 36 8.5t29.5 26.5t11.5 44q0 21 -5 44h58q5 -23 5 -44
q0 -45 -27 -76.5t-79 -40.5q38 -35 56.5 -79.5zM364 60.5q39 23.5 62 64.5t23 90q0 50 -23 90.5t-62 64t-85 23.5q-47 0 -86 -23.5t-61.5 -64t-22.5 -90.5q0 -49 23 -90t62 -64.5t85 -23.5t85 23.5zM318 674h80l-138 -171h-46z" />
    <glyph glyph-name="uni1EDC" unicode="&#x1edc;" horiz-adv-x="875" 
d="M791 501q29 -69 29 -145t-29 -144t-83 -121q-55 -53 -124.5 -81.5t-146.5 -28.5q-78 0 -147 28.5t-123 81.5t-83 121.5t-29 143.5q0 77 28.5 145.5t83.5 121.5q54 53 122.5 80.5t147.5 27.5q41 0 71 -6t68 -17q16 -5 31.5 -9t27.5 -4q38 0 64 21t26 60q0 21 -5 44h58
q5 -23 5 -44q0 -47 -29.5 -79.5t-84.5 -40.5q22 -16 39 -33q54 -53 83 -122zM595 81.5q72 42.5 114 115t42 159.5t-42 160t-114 115.5t-158 42.5q-85 0 -157 -42.5t-114 -115.5t-42 -160t41.5 -159.5t113.5 -115t158 -42.5t158 42.5zM319 956h80l104 -171h-46z" />
    <glyph glyph-name="uni1EDD" unicode="&#x1edd;" horiz-adv-x="558" 
d="M495.5 307.5q18.5 -44.5 18.5 -91.5q0 -64 -32 -118t-86.5 -85.5t-118.5 -31.5q-63 0 -116.5 31t-85 85t-31.5 119q0 64 31.5 117.5t84.5 84.5t117 31q26 0 46 -4t42 -11q12 -4 23.5 -6.5t21.5 -2.5q18 0 36 8.5t29.5 26.5t11.5 44q0 21 -5 44h58q5 -23 5 -44
q0 -45 -27 -76.5t-79 -40.5q38 -35 56.5 -79.5zM364 60.5q39 23.5 62 64.5t23 90q0 50 -23 90.5t-62 64t-85 23.5q-47 0 -86 -23.5t-61.5 -64t-22.5 -90.5q0 -49 23 -90t62 -64.5t85 -23.5t85 23.5zM160 674h80l104 -171h-46z" />
    <glyph glyph-name="uni1EDE" unicode="&#x1ede;" horiz-adv-x="875" 
d="M791 501q29 -69 29 -145t-29 -144t-83 -121q-55 -53 -124.5 -81.5t-146.5 -28.5q-78 0 -147 28.5t-123 81.5t-83 121.5t-29 143.5q0 77 28.5 145.5t83.5 121.5q54 53 122.5 80.5t147.5 27.5q41 0 71 -6t68 -17q16 -5 31.5 -9t27.5 -4q38 0 64 21t26 60q0 21 -5 44h58
q5 -23 5 -44q0 -47 -29.5 -79.5t-84.5 -40.5q22 -16 39 -33q54 -53 83 -122zM595 81.5q72 42.5 114 115t42 159.5t-42 160t-114 115.5t-158 42.5q-85 0 -157 -42.5t-114 -115.5t-42 -160t41.5 -159.5t113.5 -115t158 -42.5t158 42.5zM497.5 940q28.5 -21 28.5 -63
q0 -41 -30.5 -63.5t-77.5 -22.5q-16 0 -26 2v34q9 -1 24 -1q27 0 41.5 13t14.5 35q0 24 -14.5 36t-41.5 12q-30 0 -66 -14v37q32 16 73 16q46 0 74.5 -21z" />
    <glyph glyph-name="uni1EDF" unicode="&#x1edf;" horiz-adv-x="558" 
d="M495.5 307.5q18.5 -44.5 18.5 -91.5q0 -64 -32 -118t-86.5 -85.5t-118.5 -31.5q-63 0 -116.5 31t-85 85t-31.5 119q0 64 31.5 117.5t84.5 84.5t117 31q26 0 46 -4t42 -11q12 -4 23.5 -6.5t21.5 -2.5q18 0 36 8.5t29.5 26.5t11.5 44q0 21 -5 44h58q5 -23 5 -44
q0 -45 -27 -76.5t-79 -40.5q38 -35 56.5 -79.5zM364 60.5q39 23.5 62 64.5t23 90q0 50 -23 90.5t-62 64t-85 23.5q-47 0 -86 -23.5t-61.5 -64t-22.5 -90.5q0 -49 23 -90t62 -64.5t85 -23.5t85 23.5zM337.5 658q28.5 -21 28.5 -63q0 -41 -30.5 -63.5t-77.5 -22.5q-16 0 -26 2
v34q9 -1 24 -1q27 0 41.5 13t14.5 35q0 24 -14.5 36t-41.5 12q-30 0 -66 -14v37q32 16 73 16q46 0 74.5 -21z" />
    <glyph glyph-name="uni1EE0" unicode="&#x1ee0;" horiz-adv-x="875" 
d="M791 501q29 -69 29 -145t-29 -144t-83 -121q-55 -53 -124.5 -81.5t-146.5 -28.5q-78 0 -147 28.5t-123 81.5t-83 121.5t-29 143.5q0 77 28.5 145.5t83.5 121.5q54 53 122.5 80.5t147.5 27.5q41 0 71 -6t68 -17q16 -5 31.5 -9t27.5 -4q38 0 64 21t26 60q0 21 -5 44h58
q5 -23 5 -44q0 -47 -29.5 -79.5t-84.5 -40.5q22 -16 39 -33q54 -53 83 -122zM595 81.5q72 42.5 114 115t42 159.5t-42 160t-114 115.5t-158 42.5q-85 0 -157 -42.5t-114 -115.5t-42 -160t41.5 -159.5t113.5 -115t158 -42.5t158 42.5zM341 881q25 22 62 22q17 0 29 -4l38 -13
q17 -5 30 -5q34 0 47 33h43q-12 -44 -37 -67t-60 -23q-15 0 -32 5l-39 13q-12 4 -28 4t-26.5 -7.5t-18.5 -22.5h-43q10 43 35 65z" />
    <glyph glyph-name="uni1EE1" unicode="&#x1ee1;" horiz-adv-x="558" 
d="M495.5 307.5q18.5 -44.5 18.5 -91.5q0 -64 -32 -118t-86.5 -85.5t-118.5 -31.5q-63 0 -116.5 31t-85 85t-31.5 119q0 64 31.5 117.5t84.5 84.5t117 31q26 0 46 -4t42 -11q12 -4 23.5 -6.5t21.5 -2.5q18 0 36 8.5t29.5 26.5t11.5 44q0 21 -5 44h58q5 -23 5 -44
q0 -45 -27 -76.5t-79 -40.5q38 -35 56.5 -79.5zM364 60.5q39 23.5 62 64.5t23 90q0 50 -23 90.5t-62 64t-85 23.5q-47 0 -86 -23.5t-61.5 -64t-22.5 -90.5q0 -49 23 -90t62 -64.5t85 -23.5t85 23.5zM182 599q25 22 62 22q17 0 29 -4l38 -13q17 -5 30 -5q34 0 47 33h43
q-12 -44 -37 -67t-60 -23q-15 0 -32 5l-39 13q-12 4 -28 4t-26.5 -7.5t-18.5 -22.5h-43q10 43 35 65z" />
    <glyph glyph-name="uni1EE2" unicode="&#x1ee2;" horiz-adv-x="875" 
d="M791 501q29 -69 29 -145t-29 -144t-83 -121q-55 -53 -124.5 -81.5t-146.5 -28.5q-78 0 -147 28.5t-123 81.5t-83 121.5t-29 143.5q0 77 28.5 145.5t83.5 121.5q54 53 122.5 80.5t147.5 27.5q41 0 71 -6t68 -17q16 -5 31.5 -9t27.5 -4q38 0 64 21t26 60q0 21 -5 44h58
q5 -23 5 -44q0 -47 -29.5 -79.5t-84.5 -40.5q22 -16 39 -33q54 -53 83 -122zM595 81.5q72 42.5 114 115t42 159.5t-42 160t-114 115.5t-158 42.5q-85 0 -157 -42.5t-114 -115.5t-42 -160t41.5 -159.5t113.5 -115t158 -42.5t158 42.5zM472 -90q15 -15 15 -35t-15 -35.5
t-35 -15.5t-35 15t-15 36q0 20 15 35t35 15t35 -15z" />
    <glyph glyph-name="uni1EE3" unicode="&#x1ee3;" horiz-adv-x="558" 
d="M495.5 307.5q18.5 -44.5 18.5 -91.5q0 -64 -32 -118t-86.5 -85.5t-118.5 -31.5q-63 0 -116.5 31t-85 85t-31.5 119q0 64 31.5 117.5t84.5 84.5t117 31q26 0 46 -4t42 -11q12 -4 23.5 -6.5t21.5 -2.5q18 0 36 8.5t29.5 26.5t11.5 44q0 21 -5 44h58q5 -23 5 -44
q0 -45 -27 -76.5t-79 -40.5q38 -35 56.5 -79.5zM364 60.5q39 23.5 62 64.5t23 90q0 50 -23 90.5t-62 64t-85 23.5q-47 0 -86 -23.5t-61.5 -64t-22.5 -90.5q0 -49 23 -90t62 -64.5t85 -23.5t85 23.5zM312 -90q15 -15 15 -35t-15 -35.5t-35 -15.5t-35 15t-15 36q0 20 15 35
t35 15t35 -15z" />
    <glyph glyph-name="uni1EE4" unicode="&#x1ee4;" horiz-adv-x="692" 
d="M151 715v-467q0 -105 48 -157t147 -52t147 52t48 157v467h65v-446q0 -91 -26 -155q-55 -133 -234 -133t-234 134q-26 63 -26 154v446h65zM381 -90q15 -15 15 -35t-15 -35.5t-35 -15.5t-35 15t-15 36q0 20 15 35t35 15t35 -15z" />
    <glyph glyph-name="uni1EE5" unicode="&#x1ee5;" horiz-adv-x="527" 
d="M127 33q-47 52 -47 153v247h60v-216q0 -63 11 -102t38 -58.5t74 -19.5t74 19.5t38.5 58.5t11.5 102v216h60v-247q0 -102 -46.5 -153.5t-136.5 -51.5t-137 52zM299 -90q15 -15 15 -35t-15 -35.5t-35 -15.5t-35 15t-15 36q0 20 15 35t35 15t35 -15z" />
    <glyph glyph-name="uni1EE6" unicode="&#x1ee6;" horiz-adv-x="692" 
d="M151 715v-467q0 -105 48 -157t147 -52t147 52t48 157v467h65v-446q0 -91 -26 -155q-55 -133 -234 -133t-234 134q-26 63 -26 154v446h65zM405.5 940q28.5 -21 28.5 -63q0 -41 -30.5 -63.5t-77.5 -22.5q-16 0 -26 2v34q9 -1 24 -1q27 0 41.5 13t14.5 35q0 24 -14.5 36
t-41.5 12q-30 0 -66 -14v37q32 16 73 16q46 0 74.5 -21z" />
    <glyph glyph-name="uni1EE7" unicode="&#x1ee7;" horiz-adv-x="527" 
d="M127 33q-47 52 -47 153v247h60v-216q0 -63 11 -102t38 -58.5t74 -19.5t74 19.5t38.5 58.5t11.5 102v216h60v-247q0 -102 -46.5 -153.5t-136.5 -51.5t-137 52zM322.5 658q28.5 -21 28.5 -63q0 -41 -30.5 -63.5t-77.5 -22.5q-16 0 -26 2v34q9 -1 24 -1q27 0 41.5 13
t14.5 35q0 24 -14.5 36t-41.5 12q-30 0 -66 -14v37q32 16 73 16q46 0 74.5 -21z" />
    <glyph glyph-name="uni1EE8" unicode="&#x1ee8;" horiz-adv-x="696" 
d="M151 715v-467q0 -105 48 -157t147 -52t147 52t48 157v467h65v-446q0 -91 -26 -155q-55 -133 -234 -133t-234 134q-26 63 -26 154v446h65zM641 735.5q25 20.5 25 60.5q0 21 -5 44h58q5 -23 5 -44q0 -38 -19.5 -65t-53.5 -40.5t-77 -13.5v38q42 0 67 20.5zM385 956h80
l-138 -171h-46z" />
    <glyph glyph-name="uni1EE9" unicode="&#x1ee9;" horiz-adv-x="567" 
d="M127 33q-47 52 -47 153v247h60v-216q0 -63 11 -102t38 -58.5t74 -19.5t74 19.5t38.5 58.5t11.5 102v216h60v-247q0 -102 -46.5 -153.5t-136.5 -51.5t-137 52zM484 453.5q25 20.5 25 60.5q0 21 -5 44h58q5 -23 5 -44q0 -38 -19.5 -65t-53.5 -40.5t-77 -13.5v38
q42 0 67 20.5zM303 674h80l-138 -171h-46z" />
    <glyph glyph-name="uni1EEA" unicode="&#x1eea;" horiz-adv-x="696" 
d="M151 715v-467q0 -105 48 -157t147 -52t147 52t48 157v467h65v-446q0 -91 -26 -155q-55 -133 -234 -133t-234 134q-26 63 -26 154v446h65zM641 735.5q25 20.5 25 60.5q0 21 -5 44h58q5 -23 5 -44q0 -38 -19.5 -65t-53.5 -40.5t-77 -13.5v38q42 0 67 20.5zM227 956h80
l104 -171h-46z" />
    <glyph glyph-name="uni1EEB" unicode="&#x1eeb;" horiz-adv-x="567" 
d="M127 33q-47 52 -47 153v247h60v-216q0 -63 11 -102t38 -58.5t74 -19.5t74 19.5t38.5 58.5t11.5 102v216h60v-247q0 -102 -46.5 -153.5t-136.5 -51.5t-137 52zM484 453.5q25 20.5 25 60.5q0 21 -5 44h58q5 -23 5 -44q0 -38 -19.5 -65t-53.5 -40.5t-77 -13.5v38
q42 0 67 20.5zM145 674h80l104 -171h-46z" />
    <glyph glyph-name="uni1EEC" unicode="&#x1eec;" horiz-adv-x="696" 
d="M151 715v-467q0 -105 48 -157t147 -52t147 52t48 157v467h65v-446q0 -91 -26 -155q-55 -133 -234 -133t-234 134q-26 63 -26 154v446h65zM641 735.5q25 20.5 25 60.5q0 21 -5 44h58q5 -23 5 -44q0 -38 -19.5 -65t-53.5 -40.5t-77 -13.5v38q42 0 67 20.5zM405.5 940
q28.5 -21 28.5 -63q0 -41 -30.5 -63.5t-77.5 -22.5q-16 0 -26 2v34q9 -1 24 -1q27 0 41.5 13t14.5 35q0 24 -14.5 36t-41.5 12q-30 0 -66 -14v37q32 16 73 16q46 0 74.5 -21z" />
    <glyph glyph-name="uni1EED" unicode="&#x1eed;" horiz-adv-x="567" 
d="M127 33q-47 52 -47 153v247h60v-216q0 -63 11 -102t38 -58.5t74 -19.5t74 19.5t38.5 58.5t11.5 102v216h60v-247q0 -102 -46.5 -153.5t-136.5 -51.5t-137 52zM484 453.5q25 20.5 25 60.5q0 21 -5 44h58q5 -23 5 -44q0 -38 -19.5 -65t-53.5 -40.5t-77 -13.5v38
q42 0 67 20.5zM322.5 658q28.5 -21 28.5 -63q0 -41 -30.5 -63.5t-77.5 -22.5q-16 0 -26 2v34q9 -1 24 -1q27 0 41.5 13t14.5 35q0 24 -14.5 36t-41.5 12q-30 0 -66 -14v37q32 16 73 16q46 0 74.5 -21z" />
    <glyph glyph-name="uni1EEE" unicode="&#x1eee;" horiz-adv-x="696" 
d="M151 715v-467q0 -105 48 -157t147 -52t147 52t48 157v467h65v-446q0 -91 -26 -155q-55 -133 -234 -133t-234 134q-26 63 -26 154v446h65zM641 735.5q25 20.5 25 60.5q0 21 -5 44h58q5 -23 5 -44q0 -38 -19.5 -65t-53.5 -40.5t-77 -13.5v38q42 0 67 20.5zM249 881
q25 22 62 22q17 0 29 -4l38 -13q17 -5 30 -5q34 0 47 33h43q-12 -44 -37 -67t-60 -23q-15 0 -32 5l-39 13q-12 4 -28 4t-26.5 -7.5t-18.5 -22.5h-43q10 43 35 65z" />
    <glyph glyph-name="uni1EEF" unicode="&#x1eef;" horiz-adv-x="567" 
d="M127 33q-47 52 -47 153v247h60v-216q0 -63 11 -102t38 -58.5t74 -19.5t74 19.5t38.5 58.5t11.5 102v216h60v-247q0 -102 -46.5 -153.5t-136.5 -51.5t-137 52zM484 453.5q25 20.5 25 60.5q0 21 -5 44h58q5 -23 5 -44q0 -38 -19.5 -65t-53.5 -40.5t-77 -13.5v38
q42 0 67 20.5zM167 599q25 22 62 22q17 0 29 -4l38 -13q17 -5 30 -5q34 0 47 33h43q-12 -44 -37 -67t-60 -23q-15 0 -32 5l-39 13q-12 4 -28 4t-26.5 -7.5t-18.5 -22.5h-43q10 43 35 65z" />
    <glyph glyph-name="uni1EF0" unicode="&#x1ef0;" horiz-adv-x="696" 
d="M151 715v-467q0 -105 48 -157t147 -52t147 52t48 157v467h65v-446q0 -91 -26 -155q-55 -133 -234 -133t-234 134q-26 63 -26 154v446h65zM641 735.5q25 20.5 25 60.5q0 21 -5 44h58q5 -23 5 -44q0 -38 -19.5 -65t-53.5 -40.5t-77 -13.5v38q42 0 67 20.5zM381 -90
q15 -15 15 -35t-15 -35.5t-35 -15.5t-35 15t-15 36q0 20 15 35t35 15t35 -15z" />
    <glyph glyph-name="uni1EF1" unicode="&#x1ef1;" horiz-adv-x="567" 
d="M127 33q-47 52 -47 153v247h60v-216q0 -63 11 -102t38 -58.5t74 -19.5t74 19.5t38.5 58.5t11.5 102v216h60v-247q0 -102 -46.5 -153.5t-136.5 -51.5t-137 52zM484 453.5q25 20.5 25 60.5q0 21 -5 44h58q5 -23 5 -44q0 -38 -19.5 -65t-53.5 -40.5t-77 -13.5v38
q42 0 67 20.5zM299 -90q15 -15 15 -35t-15 -35.5t-35 -15.5t-35 15t-15 36q0 20 15 35t35 15t35 -15z" />
    <glyph glyph-name="Ygrave" unicode="&#x1ef2;" horiz-adv-x="546" 
d="M242 329l-237 386h78l192 -328l193 328h74l-235 -386v-329h-65v329zM154 956h80l104 -171h-46z" />
    <glyph glyph-name="ygrave" unicode="&#x1ef3;" horiz-adv-x="403" 
d="M177 3l-156 430h64l124 -339l114 339h64l-224 -651h-62zM83 674h80l104 -171h-46z" />
    <glyph glyph-name="uni1EF4" unicode="&#x1ef4;" horiz-adv-x="546" 
d="M242 329l-237 386h78l192 -328l193 328h74l-235 -386v-329h-65v329zM310 -90q15 -15 15 -35t-15 -35.5t-35 -15.5t-35 15t-15 36q0 20 15 35t35 15t35 -15z" />
    <glyph glyph-name="uni1EF5" unicode="&#x1ef5;" horiz-adv-x="403" 
d="M177 3l-156 430h64l124 -339l114 339h64l-224 -651h-62zM345 -90q15 -15 15 -35t-15 -35.5t-35 -15.5t-35 15t-15 36q0 20 15 35t35 15t35 -15z" />
    <glyph glyph-name="uni1EF6" unicode="&#x1ef6;" horiz-adv-x="546" 
d="M242 329l-237 386h78l192 -328l193 328h74l-235 -386v-329h-65v329zM332.5 940q28.5 -21 28.5 -63q0 -41 -30.5 -63.5t-77.5 -22.5q-16 0 -26 2v34q9 -1 24 -1q27 0 41.5 13t14.5 35q0 24 -14.5 36t-41.5 12q-30 0 -66 -14v37q32 16 73 16q46 0 74.5 -21z" />
    <glyph glyph-name="uni1EF7" unicode="&#x1ef7;" horiz-adv-x="403" 
d="M177 3l-156 430h64l124 -339l114 339h64l-224 -651h-62zM260.5 658q28.5 -21 28.5 -63q0 -41 -30.5 -63.5t-77.5 -22.5q-16 0 -26 2v34q9 -1 24 -1q27 0 41.5 13t14.5 35q0 24 -14.5 36t-41.5 12q-30 0 -66 -14v37q32 16 73 16q46 0 74.5 -21z" />
    <glyph glyph-name="uni1EF8" unicode="&#x1ef8;" horiz-adv-x="546" 
d="M242 329l-237 386h78l192 -328l193 328h74l-235 -386v-329h-65v329zM176 881q25 22 62 22q17 0 29 -4l38 -13q17 -5 30 -5q34 0 47 33h43q-12 -44 -37 -67t-60 -23q-15 0 -32 5l-39 13q-12 4 -28 4t-26.5 -7.5t-18.5 -22.5h-43q10 43 35 65z" />
    <glyph glyph-name="uni1EF9" unicode="&#x1ef9;" horiz-adv-x="403" 
d="M177 3l-156 430h64l124 -339l114 339h64l-224 -651h-62zM105 599q25 22 62 22q17 0 29 -4l38 -13q17 -5 30 -5q34 0 47 33h43q-12 -44 -37 -67t-60 -23q-15 0 -32 5l-39 13q-12 4 -28 4t-26.5 -7.5t-18.5 -22.5h-43q10 43 35 65z" />
    <glyph glyph-name="uni2011" unicode="&#x2011;" horiz-adv-x="347" 
d="M67 247h213v-63h-213v63z" />
    <glyph glyph-name="endash" unicode="&#x2013;" horiz-adv-x="500" 
d="M0 235h500v-39h-500v39z" />
    <glyph glyph-name="emdash" unicode="&#x2014;" horiz-adv-x="1000" 
d="M0 235h1000v-39h-1000v39z" />
    <glyph glyph-name="quoteleft" unicode="&#x2018;" horiz-adv-x="288" 
d="M60 485l128 246l40 -15l-95 -264z" />
    <glyph glyph-name="quoteright" unicode="&#x2019;" horiz-adv-x="288" 
d="M60 468l95 263l73 -32l-128 -247z" />
    <glyph glyph-name="quotesinglbase" unicode="&#x201a;" horiz-adv-x="288" 
d="M59 -138l99 262l71 -30l-129 -251z" />
    <glyph glyph-name="quotedblleft" unicode="&#x201c;" horiz-adv-x="428" 
d="M52 485l127 246l40 -15l-95 -264zM209 485l128 246l40 -15l-95 -264z" />
    <glyph glyph-name="quotedblright" unicode="&#x201d;" horiz-adv-x="428" 
d="M52 468l94 263l73 -32l-128 -247zM209 468l95 263l73 -32l-128 -247z" />
    <glyph glyph-name="quotedblbase" unicode="&#x201e;" horiz-adv-x="428" 
d="M52 -140l94 264l73 -33l-128 -247zM209 -140l95 264l73 -33l-128 -247z" />
    <glyph glyph-name="dagger" unicode="&#x2020;" horiz-adv-x="509" 
d="M225 378h-176v56h176v281h60v-281h176v-56h-176v-596h-60v596z" />
    <glyph glyph-name="daggerdbl" unicode="&#x2021;" horiz-adv-x="509" 
d="M224 19h-175v55h175v352h-175v55h175v234h60v-234h177v-55h-177v-352h177v-55h-177v-237h-60v237z" />
    <glyph glyph-name="bullet" unicode="&#x2022;" horiz-adv-x="590" 
d="M222 246.5q-33 19.5 -52.5 53t-19.5 72.5t19.5 72t53 52.5t72.5 19.5t72 -19.5t52.5 -52.5t19.5 -72t-19.5 -72.5t-53 -53t-72.5 -19.5t-72 19.5z" />
    <glyph glyph-name="ellipsis" unicode="&#x2026;" horiz-adv-x="1000" 
d="M131.5 5.5q-14.5 14.5 -14.5 35.5t14.5 35.5t35.5 14.5t35.5 -14t14.5 -36t-14.5 -36t-35.5 -14t-35.5 14.5zM464.5 5.5q-14.5 14.5 -14.5 35.5t14.5 35.5t35.5 14.5t35.5 -14t14.5 -36t-14.5 -36t-35.5 -14t-35.5 14.5zM798.5 5.5q-14.5 14.5 -14.5 35.5t14.5 35.5
t35.5 14.5t35.5 -14t14.5 -36t-14.5 -36t-35.5 -14t-35.5 14.5z" />
    <glyph glyph-name="perthousand" unicode="&#x2030;" horiz-adv-x="1076" 
d="M96.5 377.5q-32.5 21.5 -49.5 62.5t-17 99t17.5 99t49.5 62.5t76 21.5t76.5 -21.5t50 -62.5t17.5 -99q0 -57 -17.5 -98.5t-50 -63t-76.5 -21.5t-76.5 21.5zM542 722h53l-411 -741h-52zM236.5 437.5q22.5 35.5 22.5 102.5q0 137 -86 137q-41 0 -63 -35.5t-22 -101.5
q0 -67 22 -102.5t63 -35.5t63.5 35.5zM451 28.5q-38 47.5 -38 134.5q0 58 17.5 99t49.5 62.5t76 21.5t76.5 -21.5t50 -62.5t17.5 -99q0 -57 -17.5 -98t-50 -62.5t-76.5 -21.5q-67 0 -105 47.5zM826 2q-32 21 -49.5 62t-17.5 99t17.5 99t50 62.5t76.5 21.5t76 -21.5
t49.5 -62.5t17.5 -99q0 -57 -17 -98t-49.5 -62.5t-76.5 -21.5q-45 0 -77 21zM619.5 61.5q22.5 35.5 22.5 102.5q0 137 -86 137q-41 0 -63 -35.5t-22 -101.5q0 -67 22 -102.5t63 -35.5t63.5 35.5zM966 61.5q22 35.5 22 102.5q0 137 -85 137q-41 0 -63.5 -35.5t-22.5 -101.5
q0 -67 22.5 -102.5t63.5 -35.5t63 35.5z" />
    <glyph glyph-name="guilsinglleft" unicode="&#x2039;" horiz-adv-x="206" 
d="M21 213l119 193l42 -25l-102 -169l105 -162l-41 -25z" />
    <glyph glyph-name="guilsinglright" unicode="&#x203a;" horiz-adv-x="206" 
d="M21 50l105 162l-103 169l43 25l119 -193l-124 -188z" />
    <glyph glyph-name="fraction" unicode="&#x2044;" horiz-adv-x="167" 
d="M281 722h52l-447 -741h-53z" />
    <glyph glyph-name="zero.superior" unicode="&#x2070;" 
d="M106 296q-35 26 -53 76t-18 120q0 106 40.5 164t115.5 58q74 0 114 -57.5t40 -164.5t-40 -164.5t-116 -57.5q-48 0 -83 26zM91.5 392q13.5 -42 39 -64.5t60.5 -22.5q54 0 82 47.5t28 140.5q0 90 -29 138t-83 48q-34 0 -59 -22.5t-38.5 -65t-13.5 -99.5q0 -58 13.5 -100z
" />
    <glyph glyph-name="four.superior" unicode="&#x2074;" 
d="M36 390l256 331v-296h44v-35h-44v-109h-39v109h-217zM107 425h146l1 192z" />
    <glyph glyph-name="five.superior" unicode="&#x2075;" 
d="M182 555q43 0 76.5 -17t52.5 -47.5t19 -70.5q0 -44 -20 -78t-55.5 -53t-81.5 -19q-53 0 -88 20t-57 62l31 23q19 -36 46.5 -53t69.5 -17q52 0 81 30.5t29 82.5q0 48 -29.5 76t-83.5 28q-32 0 -57.5 -8t-43.5 -24l-12 2l54 214h198v-35h-168l-34 -129q30 13 73 13z" />
    <glyph glyph-name="six.superior" unicode="&#x2076;" 
d="M163.5 534.5q17.5 5.5 43.5 5.5q40 0 71 -16.5t48.5 -46.5t17.5 -69q0 -41 -19 -72.5t-53 -48.5t-79 -17q-43 0 -76 16.5t-51 46t-18 69.5q0 43 21 86t63 96l112 140l32 -20l-149 -186q19 11 36.5 16.5zM120 330.5q27 -26.5 76 -26.5q48 0 75.5 28.5t27.5 76.5
q0 43 -27 70.5t-75 27.5q-49 0 -76.5 -28.5t-27.5 -74.5q0 -47 27 -73.5z" />
    <glyph glyph-name="seven.superior" unicode="&#x2077;" 
d="M66 670v35h288l-217 -438l-36 19l194 384h-229z" />
    <glyph glyph-name="eight.superior" unicode="&#x2078;" 
d="M76 548.5q-18 25.5 -18 61.5q0 29 16.5 53t47 37.5t69.5 13.5q40 0 70 -13.5t46 -38.5t16 -57q0 -33 -17.5 -57t-50.5 -35q39 -10 61.5 -41.5t22.5 -73.5q0 -39 -17.5 -68t-51 -44.5t-79.5 -15.5t-80 16t-51.5 44.5t-17.5 66.5q0 43 22.5 74.5t61.5 41.5q-32 10 -50 35.5
zM256.5 548.5q22.5 20.5 22.5 55.5t-23.5 55.5t-64.5 20.5q-42 0 -65 -20t-23 -56q0 -35 23 -55.5t66 -20.5q42 0 64.5 20.5zM266.5 330.5q26.5 25.5 26.5 68.5q0 44 -26.5 69t-76.5 25q-49 0 -76 -25t-27 -69t26.5 -69t76.5 -25t76.5 25.5z" />
    <glyph glyph-name="nine.superior" unicode="&#x2079;" 
d="M228.5 449.5q-17.5 -5.5 -43.5 -5.5q-40 0 -71 16.5t-48.5 46.5t-17.5 69q0 41 19 72.5t53 48.5t79 17q43 0 76 -16.5t51 -46t18 -69.5q0 -43 -21 -86t-63 -96l-112 -140l-32 20l149 186q-19 -11 -36.5 -16.5zM272 653.5q-27 26.5 -76 26.5q-48 0 -75.5 -28.5
t-27.5 -76.5q0 -43 27 -70.5t75 -27.5q49 0 76.5 28.5t27.5 74.5q0 47 -27 73.5z" />
    <glyph glyph-name="uni207A" unicode="&#x207a;" 
d="M178 459h-164v23h164v167h23v-167h164v-23h-164v-167h-23v167z" />
    <glyph glyph-name="uni207B" unicode="&#x207b;" 
d="M14 482h351v-23h-351v23z" />
    <glyph glyph-name="uni207C" unicode="&#x207c;" 
d="M14 536h351v-24h-351v24zM14 429h351v-23h-351v23z" />
    <glyph glyph-name="uni207D" unicode="&#x207d;" horiz-adv-x="136" 
d="M30 448q0 159 70 286l26 -14q-62 -127 -62 -274q0 -80 15 -148t47 -128l-26 -16q-70 128 -70 294z" />
    <glyph glyph-name="uni207E" unicode="&#x207e;" horiz-adv-x="136" 
d="M10 170q32 60 47 128t15 148q0 147 -62 274l26 14q70 -127 70 -286q0 -166 -70 -294z" />
    <glyph glyph-name="zero.inferior" unicode="&#x2080;" 
d="M106 -114q-35 26 -53 76t-18 120q0 106 40.5 164t115.5 58q74 0 114 -57.5t40 -164.5t-40 -164.5t-116 -57.5q-48 0 -83 26zM91.5 -18q13.5 -42 39 -64.5t60.5 -22.5q54 0 82 47.5t28 140.5q0 90 -29 138t-83 48q-34 0 -59 -22.5t-38.5 -65t-13.5 -99.5q0 -58 13.5 -100z
" />
    <glyph glyph-name="one.inferior" unicode="&#x2081;" 
d="M91 261l20 35h106v-425h-41v390h-85z" />
    <glyph glyph-name="two.inferior" unicode="&#x2082;" 
d="M23 -129l102 101l32 32q48 47 72 73.5t38.5 52.5t14.5 52q0 25 -13 45t-36.5 31t-54.5 11q-47 0 -75 -26.5t-28 -72.5v-2h-42v4q0 41 18 70.5t51.5 45.5t79.5 16q44 0 77 -15t51 -42t18 -62q0 -33 -13.5 -61t-35 -51.5t-65.5 -67.5l-104 -100h216v-34h-303z" />
    <glyph glyph-name="three.inferior" unicode="&#x2083;" 
d="M107 -84.5q26 -21.5 74 -21.5q50 0 77.5 25t27.5 66q0 42 -27.5 67t-75.5 25q-13 0 -21 -1v37h23q45 0 69.5 20.5t24.5 56.5t-25.5 58t-67.5 22q-38 0 -61.5 -18t-27.5 -51h-46q5 48 41.5 75.5t93.5 27.5q40 0 71 -14t48.5 -39t17.5 -58q0 -36 -22 -62.5t-60 -36.5
q43 -13 66.5 -41.5t23.5 -67.5q0 -37 -18 -65.5t-52 -44t-80 -15.5q-68 0 -106.5 30.5t-42.5 88.5h46q3 -42 29 -63.5z" />
    <glyph glyph-name="four.inferior" unicode="&#x2084;" 
d="M36 -20l256 331v-296h44v-35h-44v-109h-39v109h-217zM107 15h146l1 192z" />
    <glyph glyph-name="five.inferior" unicode="&#x2085;" 
d="M182 145q43 0 76.5 -17t52.5 -47.5t19 -70.5q0 -44 -20 -78t-55.5 -53t-81.5 -19q-53 0 -88 20t-57 62l31 23q19 -36 46.5 -53t69.5 -17q52 0 81 30.5t29 82.5q0 48 -29.5 76t-83.5 28q-32 0 -57.5 -8t-43.5 -24l-12 2l54 214h198v-35h-168l-34 -129q30 13 73 13z" />
    <glyph glyph-name="six.inferior" unicode="&#x2086;" 
d="M163.5 124.5q17.5 5.5 43.5 5.5q40 0 71 -16.5t48.5 -46.5t17.5 -69q0 -41 -19 -72.5t-53 -48.5t-79 -17q-43 0 -76 16.5t-51 46t-18 69.5q0 43 21 86t63 96l112 140l32 -20l-149 -186q19 11 36.5 16.5zM120 -79.5q27 -26.5 76 -26.5q48 0 75.5 28.5t27.5 76.5
q0 43 -27 70.5t-75 27.5q-49 0 -76.5 -28.5t-27.5 -74.5q0 -47 27 -73.5z" />
    <glyph glyph-name="seven.inferior" unicode="&#x2087;" 
d="M66 260v35h288l-217 -438l-36 19l194 384h-229z" />
    <glyph glyph-name="eight.inferior" unicode="&#x2088;" 
d="M76 138.5q-18 25.5 -18 61.5q0 29 16.5 53t47 37.5t69.5 13.5q40 0 70 -13.5t46 -38.5t16 -57q0 -33 -17.5 -57t-50.5 -35q39 -10 61.5 -41.5t22.5 -73.5q0 -39 -17.5 -68t-51 -44.5t-79.5 -15.5t-80 16t-51.5 44.5t-17.5 66.5q0 43 22.5 74.5t61.5 41.5q-32 10 -50 35.5
zM256.5 138.5q22.5 20.5 22.5 55.5t-23.5 55.5t-64.5 20.5q-42 0 -65 -20t-23 -56q0 -35 23 -55.5t66 -20.5q42 0 64.5 20.5zM266.5 -79.5q26.5 25.5 26.5 68.5q0 44 -26.5 69t-76.5 25q-49 0 -76 -25t-27 -69t26.5 -69t76.5 -25t76.5 25.5z" />
    <glyph glyph-name="nine.inferior" unicode="&#x2089;" 
d="M228.5 39.5q-17.5 -5.5 -43.5 -5.5q-40 0 -71 16.5t-48.5 46.5t-17.5 69q0 41 19 72.5t53 48.5t79 17q43 0 76 -16.5t51 -46t18 -69.5q0 -43 -21 -86t-63 -96l-112 -140l-32 20l149 186q-19 -11 -36.5 -16.5zM272 243.5q-27 26.5 -76 26.5q-48 0 -75.5 -28.5t-27.5 -76.5
q0 -43 27 -70.5t75 -27.5q49 0 76.5 28.5t27.5 74.5q0 47 -27 73.5z" />
    <glyph glyph-name="uni208A" unicode="&#x208a;" 
d="M179 49h-164v23h164v167h23v-167h164v-23h-164v-167h-23v167z" />
    <glyph glyph-name="uni208B" unicode="&#x208b;" 
d="M15 72h351v-23h-351v23z" />
    <glyph glyph-name="uni208C" unicode="&#x208c;" 
d="M15 126h351v-24h-351v24zM15 19h351v-23h-351v23z" />
    <glyph glyph-name="uni208D" unicode="&#x208d;" horiz-adv-x="136" 
d="M30 38q0 159 70 286l26 -14q-62 -127 -62 -274q0 -80 15 -148t47 -128l-26 -16q-70 128 -70 294z" />
    <glyph glyph-name="uni208E" unicode="&#x208e;" horiz-adv-x="136" 
d="M10 -240q32 60 47 128t15 148q0 147 -62 274l26 14q70 -127 70 -286q0 -166 -70 -294z" />
    <glyph glyph-name="dong" unicode="&#x20ab;" horiz-adv-x="532" 
d="M519 599v-49h-76v-550h-60v74q-21 -45 -58 -68.5t-86 -23.5q-58 0 -102.5 27.5t-69 77t-24.5 114.5t24.5 115.5t68 78t98.5 27.5q51 0 89 -22.5t60 -66.5v53v164h-147v49h147v109h60v-109h76zM318 57.5q31 19.5 48 58t17 92.5q0 49 -17 85t-48 55t-72 19t-72.5 -19.5
t-48.5 -57t-17 -88.5q0 -79 36 -121.5t101 -42.5q42 0 73 19.5zM55 -92h409v-49h-409v49z" />
    <glyph glyph-name="Euro" unicode="&#x20ac;" horiz-adv-x="576" 
d="M232 15.5q-59 34.5 -98 99.5t-52 153h-80l10 48h65q-1 11 -1 35q0 16 2 44h-76l10 49h72q15 84 54.5 147t97.5 97t127 34q103 0 175 -75v-73q-40 46 -81.5 68t-88.5 22q-57 0 -102.5 -27t-75 -76.5t-42.5 -116.5h318l-14 -49h-310q-2 -28 -2 -44q0 -24 1 -35h287l-15 -48
h-267q11 -70 41 -122t74.5 -79.5t99.5 -27.5q47 0 94.5 21.5t85.5 61.5l-2 -74q-38 -32 -85.5 -49.5t-90.5 -17.5q-72 0 -131 34.5z" />
    <glyph glyph-name="uni20B9" unicode="&#x20b9;" horiz-adv-x="576" 
d="M543 659h-175q55 -44 62 -113h111l-15 -48h-95q-7 -74 -56 -115.5t-129 -41.5l257 -341h-79l-243 330l17 59q54 0 87.5 9t52.5 33t23 67h-316l10 48h306q-6 59 -45 86t-117 27h-179l10 49h527z" />
    <glyph glyph-name="uni20BA" unicode="&#x20ba;" horiz-adv-x="576" 
d="M552 345q-29 -123 -75.5 -199t-115 -111t-164.5 -35h-38v317l-134 -45l8 53l126 42v82l-134 -45l8 53l126 42v209h65v-187l245 81l-13 -53l-232 -78v-82l245 81l-13 -53l-232 -78v-278q70 0 124.5 35.5t90.5 99.5t52 148z" />
    <glyph glyph-name="uni20BD" unicode="&#x20bd;" horiz-adv-x="576" 
d="M202 314v-83h154v-57h-154v-174h-65v174h-74v57h74v83h-74v57h74v337h139q41 0 68 -2t52.5 -10t47.5 -24q33 -24 52 -66.5t19 -94.5q0 -104 -58.5 -150.5t-179.5 -46.5h-75zM202 371h44q72 0 113.5 9t64 38.5t22.5 87.5q0 38 -12.5 68.5t-35.5 48.5q-16 13 -37 19
t-46.5 7.5t-68.5 1.5h-44v-280z" />
    <glyph glyph-name="uni2113" unicode="&#x2113;" horiz-adv-x="426" 
d="M376 46q-31 -29 -65.5 -42.5t-74.5 -13.5q-63 0 -92 35t-29 111v56l-54 -54l-31 42l85 83v276q0 90 32.5 136.5t95.5 46.5q38 0 66 -16.5t43 -46.5t15 -71q0 -70 -47.5 -153.5t-144.5 -182.5v-104q0 -52 18.5 -77t57.5 -25q49 0 95 40zM193 633.5q-18 -32.5 -18 -92.5
v-216q62 69 95 135t33 123q0 39 -15 61t-43 22q-34 0 -52 -32.5z" />
    <glyph glyph-name="uni2117" unicode="&#x2117;" horiz-adv-x="833" 
d="M279.5 22.5q-64.5 27.5 -115.5 78.5t-78 115.5t-27 135.5t27 136.5t79 117.5q50 50 113.5 76.5t136.5 26.5t138 -27t116 -78q50 -50 76.5 -115t26.5 -137q0 -73 -26.5 -136.5t-76.5 -113.5q-53 -52 -118.5 -79.5t-135.5 -27.5q-71 0 -135.5 27.5zM537.5 56
q59.5 25 106.5 71q45 44 69 101.5t24 123.5q0 65 -24 123.5t-69 103.5q-46 46 -105 70.5t-124 24.5t-123 -24t-102 -69q-47 -47 -71.5 -106t-24.5 -123t24.5 -122t70.5 -104t104 -70.5t122 -24.5q63 0 122.5 25zM286 564h158q72 0 114.5 -27t42.5 -89q0 -60 -41.5 -88
t-115.5 -28h-102v-181h-56v413zM426 379q43 0 67 4t37.5 18.5t13.5 43.5q0 31 -13.5 47t-38.5 22t-66 6h-84v-141h84z" />
    <glyph glyph-name="trademark" unicode="&#x2122;" horiz-adv-x="833" 
d="M221 685h-87v25h205v-25h-85v-234h-33v234zM403 710h49l85 -215l79 215h50v-259h-29v234l-88 -234h-24l-93 234v-234h-29v259z" />
    <glyph glyph-name="Omega" unicode="&#x2126;" horiz-adv-x="784" 
d="M60 61h205v86q-62 19 -108.5 60t-71.5 98.5t-25 124.5q0 87 42.5 155.5t118 107t171.5 38.5t171.5 -38.5t118 -107t42.5 -155.5q0 -67 -25 -124.5t-71.5 -98.5t-108.5 -60v-86h205v-61h-256v184q55 10 97.5 42.5t66 82t23.5 108.5q0 72 -34 131t-94.5 92.5t-134.5 33.5
t-134.5 -33.5t-94.5 -92.5t-34 -131q0 -59 23.5 -108.5t66 -82t97.5 -42.5v-184h-256v61z" />
    <glyph glyph-name="estimated" unicode="&#x212e;" horiz-adv-x="600" 
d="M159.5 19.5q-61.5 38.5 -95 104.5t-33.5 147t33.5 147.5t95 104.5t142.5 38q80 0 142 -37t96 -103.5t34 -150.5h-425v-185q31 -31 69.5 -47t83.5 -16q66 0 114 29.5t88 95.5l38 -24q-33 -51 -67 -82t-76 -45.5t-97 -14.5q-81 0 -142.5 38.5zM456 311v147q-69 64 -155 64
t-152 -64v-147h307z" />
    <glyph glyph-name="partialdiff" unicode="&#x2202;" horiz-adv-x="512" 
d="M401.5 629q61.5 -93 61.5 -276q0 -114 -26.5 -196t-76.5 -125.5t-120 -43.5q-58 0 -104 28.5t-72 79.5t-26 115q0 63 25 112t69.5 76.5t100.5 27.5q47 0 89.5 -20t74.5 -58v22q0 97 -22 163.5t-62 99t-95 32.5q-28 0 -54 -11.5t-57 -37.5l-42 45q37 31 76 45.5t83 14.5
q116 0 177.5 -93zM310 69.5q33 25.5 54.5 77t27.5 126.5q-29 45 -68.5 70.5t-82.5 25.5q-39 0 -70.5 -20.5t-49.5 -57t-18 -81.5q0 -46 17.5 -84t48 -60t66.5 -22q42 0 75 25.5z" />
    <glyph glyph-name="Delta" unicode="&#x2206;" horiz-adv-x="597" 
d="M606 0h-615l314 743zM512 61l-211 548l-220 -548h431z" />
    <glyph glyph-name="product" unicode="&#x220f;" horiz-adv-x="697" 
d="M89 715h519v-933h-65v877h-389v-877h-65v933z" />
    <glyph glyph-name="summation" unicode="&#x2211;" horiz-adv-x="598" 
d="M35 -165l313 418l-298 409v53h502v-56h-437l297 -406l-313 -415h464v-56h-528v53z" />
    <glyph glyph-name="minus" unicode="&#x2212;" horiz-adv-x="833" 
d="M124 318h585v-39h-585v39z" />
    <glyph glyph-name="uni2215" unicode="&#x2215;" horiz-adv-x="450" 
d="M428 722h52l-447 -741h-53z" />
    <glyph glyph-name="uni2219" unicode="&#x2219;" horiz-adv-x="590" 
d="M222 246.5q-33 19.5 -52.5 53t-19.5 72.5t19.5 72t53 52.5t72.5 19.5t72 -19.5t52.5 -52.5t19.5 -72t-19.5 -72.5t-53 -53t-72.5 -19.5t-72 19.5z" />
    <glyph glyph-name="radical" unicode="&#x221a;" horiz-adv-x="549" 
d="M90 136h-90l31 58h94l162 -356l193 948h59l-207 -1004h-79z" />
    <glyph glyph-name="infinity" unicode="&#x221e;" horiz-adv-x="834" 
d="M161.5 181.5q-29.5 17.5 -45.5 48t-16 68.5q0 37 16 68t44.5 48.5t65.5 17.5q42 0 88 -27t103 -84q57 57 103 84t88 27q37 0 65.5 -17.5t44.5 -48.5t16 -68q0 -38 -16 -68.5t-45.5 -48t-68.5 -17.5q-32 0 -56 9t-45 25t-60 51l-26 23l-26 -23q-39 -35 -60 -51t-45 -25
t-56 -9q-39 0 -68.5 17.5zM281 213.5q25 11.5 50 30.5t61 52q-45 46 -90 72.5t-78 26.5q-25 0 -45 -13t-31 -35.5t-11 -49.5q0 -43 25 -69t67 -26q27 0 52 11.5zM672 228q25 26 25 69q0 27 -11 49.5t-31 35.5t-45 13q-33 0 -78 -26.5t-90 -72.5q36 -33 61 -52t50 -30.5
t52 -11.5q42 0 67 26z" />
    <glyph glyph-name="integral" unicode="&#x222b;" horiz-adv-x="270" 
d="M-7 -208l11 53q24 -12 43 -12q24 0 36.5 12.5t17 37.5t4.5 68v607q0 79 7 121t31.5 64.5t75.5 22.5q29 0 58 -10l-11 -53q-24 12 -43 12q-24 0 -36.5 -12.5t-17 -37.5t-4.5 -68v-607q0 -79 -7 -121t-31.5 -64.5t-75.5 -22.5q-29 0 -58 10z" />
    <glyph glyph-name="approxequal" unicode="&#x2248;" horiz-adv-x="806" 
d="M254 430q43 0 78 -9t80 -27q46 -18 76 -26t67 -8t60 22t28 60h39q-13 -121 -130 -121q-43 0 -78 9t-80 27q-46 18 -76.5 26t-66.5 8q-37 0 -60 -22t-28 -60h-39q13 121 130 121zM254 275q43 0 78 -9t80 -27q46 -18 76 -26t67 -8t60 22t28 60h39q-13 -121 -130 -121
q-43 0 -78 9t-80 27q-46 17 -76.5 25.5t-66.5 8.5q-37 0 -60 -22t-28 -60h-39q13 121 130 121z" />
    <glyph glyph-name="notequal" unicode="&#x2260;" horiz-adv-x="833" 
d="M477 367l-79 -138h311v-39h-334l-105 -183h-42l105 183h-209v39h232l79 138h-311v39h333l106 184h42l-106 -184h210v-39h-232z" />
    <glyph glyph-name="lessequal" unicode="&#x2264;" horiz-adv-x="843" 
d="M129 304v30l585 236v-44l-520 -207l520 -207v-43zM129 39h585v-39h-585v39z" />
    <glyph glyph-name="greaterequal" unicode="&#x2265;" horiz-adv-x="843" 
d="M129 112l520 207l-520 207v44l585 -236v-30l-585 -235v43zM129 39h585v-39h-585v39z" />
    <glyph glyph-name="lozenge" unicode="&#x25ca;" horiz-adv-x="575" 
d="M100 351l169 387h36l170 -387l-170 -386h-36zM433 351l-147 338l-145 -338l145 -338z" />
    <glyph glyph-name="uniFEFF" unicode="&#xfeff;" horiz-adv-x="0" 
 />
    <glyph glyph-name="f_i" horiz-adv-x="471" 
d="M94 382h-81v51h81v125q0 79 7 121t31.5 64.5t75.5 22.5q29 0 58 -10l-11 -53q-24 12 -43 12q-24 0 -36.5 -12.5t-17 -37.5t-4.5 -68v-164h95v-51h-95v-382h-60v382zM324 569.5q-13 13.5 -13 32.5q0 20 13.5 33t32.5 13t32.5 -13t13.5 -33q0 -19 -13 -32.5t-33 -13.5
t-33 13.5zM327 433h60v-433h-60v433z" />
    <glyph glyph-name="f_l" horiz-adv-x="476" 
d="M94 382h-81v51h81v125q0 79 7 121t31.5 64.5t75.5 22.5q29 0 58 -10l-11 -53q-24 12 -43 12q-24 0 -36.5 -12.5t-17 -37.5t-4.5 -68v-164h95v-51h-95v-382h-60v382zM332 757h60v-757h-60v757z" />
    <glyph glyph-name="one.numerator" 
d="M86 673l20 32h101v-396h-39v364h-82z" />
    <glyph glyph-name="two.numerator" 
d="M39 309l97 95l29 28q45 42 69 68t38 50.5t14 49.5q0 23 -12.5 41.5t-35 29t-52.5 10.5q-44 0 -70.5 -25t-26.5 -68v-2h-41v4q0 38 17.5 65.5t49.5 42.5t76 15q42 0 73.5 -14t48.5 -39t17 -58q0 -31 -13 -57t-32.5 -47t-63.5 -64l-99 -94h206v-31h-289z" />
    <glyph glyph-name="three.numerator" 
d="M116 351q25 -20 71 -20q48 0 74 23t26 61q0 39 -26.5 62.5t-71.5 23.5h-21v34h23q42 0 65.5 19t23.5 52q0 34 -24 54.5t-64 20.5q-36 0 -58.5 -16.5t-26.5 -47.5h-44q4 44 39.5 70t89.5 26q38 0 67.5 -13t46 -36t16.5 -54q0 -34 -20.5 -58.5t-57.5 -34.5
q41 -12 63.5 -38.5t22.5 -63.5q0 -35 -17 -61.5t-49.5 -41t-76.5 -14.5q-64 0 -101 29t-42 83h44q3 -39 28 -59z" />
    <glyph glyph-name="four.numerator" 
d="M36 410l244 309v-277h46v-32h-46v-101h-41v101h-203zM97 442h142v180z" />
    <glyph glyph-name="five.numerator" 
d="M133.5 559.5q19.5 3.5 38.5 3.5q43 0 75.5 -15.5t50.5 -44t18 -65.5q0 -41 -19 -73t-53 -49.5t-78 -17.5q-49 0 -84.5 19.5t-55.5 57.5l28 21q18 -33 45.5 -49t68.5 -16q49 0 77 28t28 76q0 45 -29 71t-82 26q-30 0 -55 -7t-41 -22l-12 1l51 201h191v-32h-166l-31 -123
q15 6 34.5 9.5z" />
    <glyph glyph-name="seven.numerator" 
d="M65 673v32h270l-201 -410l-33 17l180 361h-216z" />
    <glyph glyph-name="eight.numerator" 
d="M79 557q-17 24 -17 57q0 29 15.5 51.5t44.5 35t68 12.5q40 0 68.5 -13t43.5 -36t15 -54t-16 -53t-47 -33q36 -10 57 -38.5t21 -68.5q0 -55 -37 -87t-105 -32t-105.5 32t-37.5 86q0 41 20.5 69.5t57.5 38.5q-29 9 -46 33zM254 557q21 19 21 52q0 34 -22 53t-63 19
q-42 0 -63.5 -19t-21.5 -53q0 -33 21.5 -52t64.5 -19q42 0 63 19zM263.5 353.5q24.5 23.5 24.5 64.5t-25 64.5t-73 23.5q-49 0 -74.5 -23.5t-25.5 -64.5q0 -42 25 -65t75 -23q49 0 73.5 23.5z" />
    <glyph glyph-name="zero.numerator" 
d="M111 322.5q-33 24.5 -51 71t-18 111.5q0 66 18 112.5t51.5 71t79.5 24.5t79 -24t50.5 -71t17.5 -113t-18 -112.5t-51.5 -70.5t-79.5 -24q-45 0 -78 24.5zM110.5 376q27.5 -46 80.5 -46q54 0 80 44t26 131t-26.5 131.5t-81.5 44.5q-51 0 -78.5 -46.5t-27.5 -130.5
q0 -82 27.5 -128z" />
    <glyph glyph-name="six.numerator" 
d="M160 544q16 5 37 5q38 0 67.5 -15.5t46.5 -43.5t17 -64q0 -37 -17.5 -66t-50 -45.5t-75.5 -16.5q-41 0 -73 15.5t-49.5 43.5t-17.5 63q0 29 10.5 55.5t27 50.5t47.5 64l102 130l29 -18l-134 -173q17 10 33 15zM113.5 354.5q26.5 -24.5 73.5 -24.5t72.5 26t25.5 72
q0 40 -25.5 65t-72.5 25q-30 0 -52.5 -12t-35 -34t-12.5 -49q0 -44 26.5 -68.5z" />
    <glyph glyph-name="nine.numerator" 
d="M213 467q-16 -5 -37 -5q-38 0 -67.5 15.5t-46.5 43.5t-17 64q0 37 17.5 66t50 45.5t75.5 16.5q41 0 73 -15.5t49.5 -43.5t17.5 -63q0 -29 -10.5 -55.5t-27 -50.5t-47.5 -64l-102 -130l-29 18l134 173q-17 -10 -33 -15zM259.5 656.5q-26.5 24.5 -73.5 24.5t-72.5 -26
t-25.5 -72q0 -40 25.5 -65t72.5 -25q30 0 52.5 12t35 34t12.5 49q0 44 -26.5 68.5z" />
    <glyph glyph-name="zero.denominator" 
d="M111 13.5q-33 24.5 -51 71t-18 111.5q0 66 18 112.5t51.5 71t79.5 24.5t79 -24t50.5 -71t17.5 -113t-18 -112.5t-51.5 -70.5t-79.5 -24q-45 0 -78 24.5zM110.5 67q27.5 -46 80.5 -46q54 0 80 44t26 131t-26.5 131.5t-81.5 44.5q-51 0 -78.5 -46.5t-27.5 -130.5
q0 -82 27.5 -128z" />
    <glyph glyph-name="one.denominator" 
d="M86 364l20 32h101v-396h-39v364h-82z" />
    <glyph glyph-name="two.denominator" 
d="M39 0l97 95l29 28q45 42 69 68t38 50.5t14 49.5q0 23 -12.5 41.5t-35 29t-52.5 10.5q-44 0 -70.5 -25t-26.5 -68v-2h-41v4q0 38 17.5 65.5t49.5 42.5t76 15q42 0 73.5 -14t48.5 -39t17 -58q0 -31 -13 -57t-32.5 -47t-63.5 -64l-99 -94h206v-31h-289z" />
    <glyph glyph-name="three.denominator" 
d="M116 42q25 -20 71 -20q48 0 74 23t26 61q0 39 -26.5 62.5t-71.5 23.5h-21v34h23q42 0 65.5 19t23.5 52q0 34 -24 54.5t-64 20.5q-36 0 -58.5 -16.5t-26.5 -47.5h-44q4 44 39.5 70t89.5 26q38 0 67.5 -13t46 -36t16.5 -54q0 -34 -20.5 -58.5t-57.5 -34.5
q41 -12 63.5 -38.5t22.5 -63.5q0 -35 -17 -61.5t-49.5 -41t-76.5 -14.5q-64 0 -101 29t-42 83h44q3 -39 28 -59z" />
    <glyph glyph-name="four.denominator" 
d="M36 101l244 309v-277h46v-32h-46v-101h-41v101h-203zM97 133h142v180z" />
    <glyph glyph-name="five.denominator" 
d="M133.5 250.5q19.5 3.5 38.5 3.5q43 0 75.5 -15.5t50.5 -44t18 -65.5q0 -41 -19 -73t-53 -49.5t-78 -17.5q-49 0 -84.5 19.5t-55.5 57.5l28 21q18 -33 45.5 -49t68.5 -16q49 0 77 28t28 76q0 45 -29 71t-82 26q-30 0 -55 -7t-41 -22l-12 1l51 201h191v-32h-166l-31 -123
q15 6 34.5 9.5z" />
    <glyph glyph-name="six.denominator" 
d="M160 235q16 5 37 5q38 0 67.5 -15.5t46.5 -43.5t17 -64q0 -37 -17.5 -66t-50 -45.5t-75.5 -16.5q-41 0 -73 15.5t-49.5 43.5t-17.5 63q0 29 10.5 55.5t27 50.5t47.5 64l102 130l29 -18l-134 -173q17 10 33 15zM113.5 45.5q26.5 -24.5 73.5 -24.5t72.5 26t25.5 72
q0 40 -25.5 65t-72.5 25q-30 0 -52.5 -12t-35 -34t-12.5 -49q0 -44 26.5 -68.5z" />
    <glyph glyph-name="seven.denominator" 
d="M65 364v32h270l-201 -410l-33 17l180 361h-216z" />
    <glyph glyph-name="eight.denominator" 
d="M79 248q-17 24 -17 57q0 29 15.5 51.5t44.5 35t68 12.5q40 0 68.5 -13t43.5 -36t15 -54t-16 -53t-47 -33q36 -10 57 -38.5t21 -68.5q0 -55 -37 -87t-105 -32t-105.5 32t-37.5 86q0 41 20.5 69.5t57.5 38.5q-29 9 -46 33zM254 248q21 19 21 52q0 34 -22 53t-63 19
q-42 0 -63.5 -19t-21.5 -53q0 -33 21.5 -52t64.5 -19q42 0 63 19zM263.5 44.5q24.5 23.5 24.5 64.5t-25 64.5t-73 23.5q-49 0 -74.5 -23.5t-25.5 -64.5q0 -42 25 -65t75 -23q49 0 73.5 23.5z" />
    <glyph glyph-name="nine.denominator" 
d="M213 158q-16 -5 -37 -5q-38 0 -67.5 15.5t-46.5 43.5t-17 64q0 37 17.5 66t50 45.5t75.5 16.5q41 0 73 -15.5t49.5 -43.5t17.5 -63q0 -29 -10.5 -55.5t-27 -50.5t-47.5 -64l-102 -130l-29 18l134 173q-17 -10 -33 -15zM259.5 347.5q-26.5 24.5 -73.5 24.5t-72.5 -26
t-25.5 -72q0 -40 25.5 -65t72.5 -25q30 0 52.5 12t35 34t12.5 49q0 44 -26.5 68.5z" />
    <glyph glyph-name="acute.cap" horiz-adv-x="244" 
d="M134 956h80l-138 -171h-46z" />
    <glyph glyph-name="breve.cap" horiz-adv-x="328" 
d="M69 820q-32 28 -39 89h39q5 -33 28 -48t67 -15t66.5 15t27.5 48h40q-7 -61 -39 -89t-95 -28t-95 28z" />
    <glyph glyph-name="caron.cap" horiz-adv-x="339" 
d="M30 956h45l95 -122l94 122h45l-104 -171h-71z" />
    <glyph glyph-name="circumflex.cap" horiz-adv-x="339" 
d="M134 956h71l104 -171h-45l-94 122l-95 -122h-45z" />
    <glyph glyph-name="dieresis.cap" horiz-adv-x="326" 
d="M43.5 828.5q-13.5 13.5 -13.5 33.5q0 19 14 33.5t33 14.5t33.5 -14.5t14.5 -33.5q0 -20 -14 -33.5t-34 -13.5t-33.5 13.5zM215 828.5q-14 13.5 -14 33.5q0 19 14.5 33.5t33.5 14.5t33 -14.5t14 -33.5q0 -20 -13.5 -33.5t-33.5 -13.5t-34 13.5z" />
    <glyph glyph-name="dotaccent.cap" horiz-adv-x="160" 
d="M45 827q-15 15 -15 35t15 35.5t35 15.5t35 -15t15 -36q0 -20 -15 -35t-35 -15t-35 15z" />
    <glyph glyph-name="grave.cap" horiz-adv-x="244" 
d="M30 956h80l104 -171h-46z" />
    <glyph glyph-name="hungarumlaut.cap" horiz-adv-x="344" 
d="M102 956h77l-108 -171h-41zM238 956h76l-117 -171h-41z" />
    <glyph glyph-name="macron.cap" horiz-adv-x="312" 
d="M30 885h252v-57h-252v57z" />
    <glyph glyph-name="ring.cap" horiz-adv-x="290" 
d="M87.5 748.5q-26.5 15.5 -42 42t-15.5 57.5t15.5 57.5t42 42t57.5 15.5q32 0 58.5 -15t41.5 -41.5t15 -58.5q0 -31 -15.5 -57.5t-42 -42t-57.5 -15.5t-57.5 15.5zM178 791.5q15 8.5 23.5 23.5t8.5 33q0 28 -19 46.5t-46 18.5q-18 0 -33 -8.5t-23.5 -23.5t-8.5 -33t8.5 -33
t23.5 -23.5t33 -8.5t33 8.5z" />
    <glyph glyph-name="tilde.cap" horiz-adv-x="344" 
d="M75 881q25 22 62 22q17 0 29 -4l38 -13q17 -5 30 -5q34 0 47 33h43q-12 -44 -37 -67t-60 -23q-15 0 -32 5l-39 13q-12 4 -28 4t-26.5 -7.5t-18.5 -22.5h-43q10 43 35 65z" />
    <glyph glyph-name="caron.alt" horiz-adv-x="171" 
d="M30 614l56 140l55 -14l-76 -140z" />
    <glyph glyph-name="zero.lf" horiz-adv-x="583" 
d="M165.5 24.5q-53.5 43.5 -83 127t-29.5 199.5q0 117 29 200.5t83 127t127 43.5t126.5 -43.5t82.5 -127t29 -200.5q0 -118 -29 -201t-83 -126t-128 -43q-71 0 -124.5 43.5zM138 184q21 -70 60.5 -107.5t93.5 -37.5q85 0 129 79.5t44 233.5q0 152 -45 232t-130 80
q-53 0 -92 -37.5t-60 -108.5t-21 -168q0 -96 21 -166z" />
    <glyph glyph-name="one.lf" horiz-adv-x="288" 
d="M10 650l31 58h161v-708h-63v650h-129z" />
    <glyph glyph-name="two.lf" horiz-adv-x="509" 
d="M7 0l154 169q23 26 45 48q76 83 112 126.5t58.5 87.5t22.5 88q0 42 -19.5 75t-55.5 51.5t-83 18.5q-46 0 -81.5 -20t-54.5 -57.5t-19 -88.5v-3h-64v7q0 67 27.5 117t78.5 76.5t120 26.5q66 0 116 -25t77.5 -70t27.5 -104q0 -55 -20.5 -101.5t-52.5 -85.5t-100 -112
l-157 -168h327v-56h-459z" />
    <glyph glyph-name="three.lf" horiz-adv-x="512" 
d="M131 74.5q40 -35.5 112 -35.5q51 0 86.5 19t54 53t18.5 79q0 46 -18.5 80.5t-54 53.5t-83.5 19q-19 0 -32 -1v62q17 -1 36 -1q44 0 76 16t48.5 44.5t16.5 67.5q0 40 -17.5 70.5t-49 47t-73.5 16.5q-57 0 -92.5 -30t-42.5 -85h-70q5 52 32 91t71.5 60t101.5 21
q61 0 108 -23t73 -65t26 -97q0 -61 -33 -105t-91 -61q65 -21 100.5 -68.5t35.5 -112.5q0 -62 -27 -109.5t-78.5 -73.5t-121.5 -26q-102 0 -160.5 51.5t-65.5 147.5h70q4 -70 44 -105.5z" />
    <glyph glyph-name="four.lf" horiz-adv-x="475" 
d="M-5 181l387 551v-495h73v-56h-73v-181h-65v181h-322zM92 237h225l1 322z" />
    <glyph glyph-name="five.lf" horiz-adv-x="506" 
d="M242 455q67 0 118 -28.5t79.5 -79.5t28.5 -117q0 -74 -30.5 -130.5t-85.5 -88t-126 -31.5q-76 0 -130.5 34t-90.5 103l51 38q32 -60 73 -88t100 -28q51 0 90 23t60.5 65t21.5 99q0 52 -21.5 91t-61.5 60.5t-94 21.5q-92 0 -148 -52l-20 2l91 359h289v-55h-244l-56 -222
q58 24 106 24z" />
    <glyph glyph-name="six.lf" horiz-adv-x="523" 
d="M221.5 420q27.5 9 57.5 9q59 0 106.5 -27.5t74.5 -77.5t27 -115q0 -67 -30 -119.5t-83.5 -81t-121.5 -28.5q-66 0 -115 27t-76 76.5t-27 115.5q0 51 17 98t44.5 91t78.5 115l167 233l53 -33l-229 -310q29 18 56.5 27zM121 114.5q20 -37.5 56.5 -57.5t83.5 -20t83 21.5
t56 61.5t20 92q0 46 -19.5 83t-55.5 58t-83 21q-48 0 -84.5 -22t-56.5 -61t-20 -88q0 -51 20 -88.5z" />
    <glyph glyph-name="seven.lf" horiz-adv-x="424" 
d="M10 653v55h439l-360 -730l-60 31l326 644h-345z" />
    <glyph glyph-name="eight.lf" horiz-adv-x="554" 
d="M102 444.5q-30 42.5 -30 102.5q0 50 25 89.5t72 62.5t109 23q63 0 109.5 -23t71 -64.5t24.5 -95.5q0 -55 -29 -94.5t-84 -59.5q42 -11 73.5 -38t48.5 -66.5t17 -86.5q0 -65 -27 -113t-79 -74t-125 -26t-125.5 26.5t-80 74t-27.5 110.5q0 48 16.5 88t48.5 67t75 38
q-53 17 -83 59.5zM381 445q36 34 36 92q0 39 -17 68t-48.5 44.5t-73.5 15.5q-43 0 -74 -15.5t-47.5 -44.5t-16.5 -68q0 -58 36 -92t103 -34q66 0 102 34zM367 58.5q37 19.5 56 54.5t19 82q0 48 -19.5 84t-57 55t-88.5 19q-52 0 -88.5 -19t-56 -54.5t-19.5 -84.5
q0 -73 42.5 -114.5t121.5 -41.5q53 0 90 19.5z" />
    <glyph glyph-name="nine.lf" horiz-adv-x="524" 
d="M302 282.5q-27 -8.5 -57 -8.5q-59 0 -107 27t-75 77t-27 115q0 67 30 119.5t83.5 81t121.5 28.5q66 0 115.5 -27t76.5 -77t27 -115q0 -49 -16.5 -96t-46 -94t-78.5 -114l-171 -232l-53 32l233 310q-29 -18 -56 -26.5zM403 587.5q-20 37.5 -56.5 58t-83.5 20.5t-83 -21.5
t-56 -61.5t-20 -92q0 -46 19.5 -83t55 -58.5t82.5 -21.5q48 0 85 22t57 61t20 88q0 51 -20 88.5z" />
    <glyph glyph-name="cent.lf" horiz-adv-x="484" 
d="M369.5 532q-33.5 10 -73.5 12v-364q46 5 80 16.5t58 30.5v-64q-30 -17 -63.5 -25.5t-74.5 -9.5v-100h-39v101q-63 3 -112.5 34t-77 82.5t-27.5 113.5q0 63 26 114.5t75 83.5t116 39v79h39v-78q66 0 138 -29v-66q-31 20 -64.5 30zM179 514q-35 -25 -55 -64t-20 -85
q0 -49 18.5 -88t53 -63.5t81.5 -30.5v359q-43 -3 -78 -28z" />
    <glyph glyph-name="currency.lf" horiz-adv-x="555" 
d="M277 574q71 0 129 -46l100 101l29 -29l-101 -100q45 -57 45 -128t-45 -128l101 -100l-29 -29l-100 101q-57 -45 -129 -45q-71 0 -128 45l-101 -101l-28 29l101 100q-45 57 -45 128t45 128l-101 100l28 29l101 -101q58 46 128 46zM418.5 454q-21.5 37 -59 58.5t-81.5 21.5
t-81.5 -22t-59 -59t-21.5 -80q0 -44 21.5 -81t59 -59t81.5 -22t81.5 22t59 59t21.5 81t-21.5 81z" />
    <glyph glyph-name="dollar.lf" horiz-adv-x="448" 
d="M203 3q-67 0 -115.5 33t-77.5 98l56 28q15 -48 49.5 -74.5t87.5 -31.5v309q-57 28 -92 55t-52.5 59t-17.5 73q0 43 19 77.5t55.5 56.5t87.5 29v49h39v-48q50 -6 85 -27t58 -60l-51 -28q-13 26 -37 41.5t-55 17.5v-247q65 -31 102.5 -59.5t55.5 -63.5t18 -85
q0 -53 -21.5 -96.5t-61 -71.5t-93.5 -36v-83h-39v85zM152.5 640.5q-22.5 -15.5 -34.5 -38.5t-12 -48q0 -41 23.5 -70t73.5 -53v229q-28 -4 -50.5 -19.5zM325.5 102q30.5 38 30.5 98q0 49 -27.5 84t-86.5 63v-290q53 7 83.5 45z" />
    <glyph glyph-name="dong.lf" horiz-adv-x="532" 
d="M519 599v-49h-76v-550h-60v74q-21 -45 -58 -68.5t-86 -23.5q-58 0 -102.5 27.5t-69 77t-24.5 114.5t24.5 115.5t68 78t98.5 27.5q51 0 89 -22.5t60 -66.5v53v164h-147v49h147v109h60v-109h76zM318 57.5q31 19.5 48 58t17 92.5q0 49 -17 85t-48 55t-72 19t-72.5 -19.5
t-48.5 -57t-17 -88.5q0 -79 36 -121.5t101 -42.5q42 0 73 19.5zM55 -92h409v-49h-409v49z" />
    <glyph glyph-name="Euro.lf" horiz-adv-x="566" 
d="M453.5 -1.5q-47.5 -17.5 -90.5 -17.5q-72 0 -131 34.5t-98 99.5t-52 153h-80l10 48h65q-1 11 -1 35q0 16 2 44h-76l10 49h72q15 84 54.5 147t97.5 97t127 34q103 0 175 -75v-73q-40 46 -81.5 68t-88.5 22q-57 0 -102.5 -27t-75 -76.5t-42.5 -116.5h318l-14 -49h-310
q-2 -28 -2 -44q0 -24 1 -35h287l-15 -48h-267q11 -70 41 -122t74.5 -79.5t99.5 -27.5q47 0 94.5 21.5t85.5 61.5l-2 -74q-38 -32 -85.5 -49.5z" />
    <glyph glyph-name="florin.lf" horiz-adv-x="376" 
d="M138.5 -123q-14.5 -49 -42.5 -73t-76 -24q-12 0 -45 7l15 58q12 -6 30 -6q29 0 43.5 21t22 60t16.5 122l40 361h-80l5 46h80l10 89q7 66 22.5 105.5t44 59t75.5 19.5q34 0 62 -14l-10 -52q-31 11 -52 11q-30 0 -45.5 -14.5t-22 -41t-11.5 -77.5l-9 -85h95l-3 -46h-97
l-43 -391q-10 -86 -24.5 -135z" />
    <glyph glyph-name="uni20BA.lf" horiz-adv-x="552" 
d="M532 345q-29 -123 -75.5 -199t-115 -111t-164.5 -35h-38v317l-134 -45l8 53l126 42v82l-134 -45l8 53l126 42v209h65v-187l245 81l-13 -53l-232 -78v-82l245 81l-13 -53l-232 -78v-278q70 0 124.5 35.5t90.5 99.5t52 148z" />
    <glyph glyph-name="uni20BD.lf" horiz-adv-x="497" 
d="M159 314v-83h154v-57h-154v-174h-65v174h-74v57h74v83h-74v57h74v337h139q41 0 68 -2t52.5 -10t47.5 -24q33 -24 52 -66.5t19 -94.5q0 -104 -58.5 -150.5t-179.5 -46.5h-75zM159 371h44q72 0 113.5 9t64 38.5t22.5 87.5q0 38 -12.5 68.5t-35.5 48.5q-16 13 -37 19
t-46.5 7.5t-68.5 1.5h-44v-280z" />
    <glyph glyph-name="uni20B9.lf" horiz-adv-x="537" 
d="M523 659h-175q55 -44 62 -113h111l-15 -48h-95q-7 -74 -56 -115.5t-129 -41.5l257 -341h-79l-243 330l17 59q54 0 87.5 9t52.5 33t23 67h-316l10 48h306q-6 59 -45 86t-117 27h-179l10 49h527z" />
    <glyph glyph-name="sterling.lf" horiz-adv-x="539" 
d="M125 93q20 27 29.5 51.5t9.5 48.5q0 43 -22 100h-112v44h90q-50 108 -50 181q0 58 27.5 104.5t77.5 73t114 26.5q65 0 113 -24.5t74.5 -72t28.5 -112.5l-62 -11q-1 78 -41.5 120.5t-110.5 42.5q-47 0 -82 -18.5t-54 -52t-19 -77.5q0 -65 49 -180h190v-44h-175
q19 -51 19 -86q0 -70 -50 -112q30 0 55.5 -8t61.5 -23q29 -13 48.5 -19t38.5 -6q31 0 55.5 17t47.5 53l43 -29q-26 -50 -61 -74t-81 -24q-28 0 -53.5 8t-59.5 24q-30 14 -50 20.5t-40 6.5q-30 0 -54.5 -15t-47.5 -46l-42 30q35 65 95 83z" />
    <glyph glyph-name="yen.lf" horiz-adv-x="584" 
d="M20 308v48h223l-48 79h-175v49h143l-138 225h72l196 -330l201 330h66l-137 -225h141v-49h-172l-48 -79h220v-48h-239v-308h-62v308h-243z" />
    <glyph glyph-name="gravecomb.cap" horiz-adv-x="0" 
d="M-119 956h80l104 -171h-46z" />
    <glyph glyph-name="acutecomb.cap" horiz-adv-x="0" 
d="M39 956h80l-138 -171h-46z" />
    <glyph glyph-name="uni0302.cap" horiz-adv-x="0" 
d="M-36 956h71l104 -171h-45l-94 122l-95 -122h-45z" />
    <glyph glyph-name="uni0306.cap" horiz-adv-x="0" 
d="M-95 820q-32 28 -39 89h39q5 -33 28 -48t67 -15t66.5 15t27.5 48h40q-7 -61 -39 -89t-95 -28t-95 28z" />
    <glyph glyph-name="tildecomb.cap" horiz-adv-x="0" 
d="M-97 881q25 22 62 22q17 0 29 -4l38 -13q17 -5 30 -5q34 0 47 33h43q-12 -44 -37 -67t-60 -23q-15 0 -32 5l-39 13q-12 4 -28 4t-26.5 -7.5t-18.5 -22.5h-43q10 43 35 65z" />
    <glyph glyph-name="uni031B.cap" horiz-adv-x="0" 
d="M67 735.5q25 20.5 25 60.5q0 21 -5 44h58q5 -23 5 -44q0 -38 -19.5 -65t-53.5 -40.5t-77 -13.5v38q42 0 67 20.5z" />
    <glyph glyph-name="cedilla.cap" horiz-adv-x="0" 
d="M-461.5 -162.5q29.5 -4.5 48.5 -4.5q61 0 61 43q0 22 -16.5 33t-50.5 11q-14 0 -22 -1v81h30v-49h7q50 0 77 -19.5t27 -54.5q0 -80 -105 -80q-49 0 -118 18v34q32 -7 61.5 -11.5z" />
    <glyph glyph-name="ogonek.cap" horiz-adv-x="0" 
d="M-381 -111q0 -21 12.5 -32.5t30.5 -11.5q20 0 38 7v-50q-23 -8 -54 -8q-21 0 -39 8t-29.5 24.5t-11.5 39.5q0 34 21.5 67.5t71.5 71.5l31 -5q-71 -61 -71 -111z" />
    <glyph glyph-name="hookcomb.cap" horiz-adv-x="0" 
d="M79.5 940q28.5 -21 28.5 -63q0 -41 -30.5 -63.5t-77.5 -22.5q-16 0 -26 2v34q9 -1 24 -1q27 0 41.5 13t14.5 35q0 24 -14.5 36t-41.5 12q-30 0 -66 -14v37q32 16 73 16q46 0 74.5 -21z" />
    <glyph glyph-name="acubreveviet" horiz-adv-x="0" 
d="M-387 715h72l-102 -97h-42zM-529 537q-32 27 -39 86h39q5 -31 28 -45t67 -14t66.5 14t27.5 45h40q-7 -59 -39 -86t-95 -27t-95 27z" />
    <glyph glyph-name="acutcircviet" horiz-adv-x="0" 
d="M-372 705h72l-102 -97h-42zM-563 646h71l104 -143h-45l-94 98l-95 -98h-45z" />
    <glyph glyph-name="gravbreveviet" horiz-adv-x="0" 
d="M-557 715h72l72 -97h-42zM-529 537q-32 27 -39 86h39q5 -31 28 -45t67 -14t66.5 14t27.5 45h40q-7 -59 -39 -86t-95 -27t-95 27z" />
    <glyph glyph-name="gravcircviet" horiz-adv-x="0" 
d="M-595 705l72 -97h-42l-102 97h72zM-475 646h71l104 -143h-45l-94 98l-95 -98h-45z" />
    <glyph glyph-name="hoibreveviet" horiz-adv-x="0" 
d="M-380 734.5q27 -16.5 27 -50.5t-29 -51.5t-70 -17.5q-23 0 -38 3v34q18 -2 33 -2q23 0 36.5 8t13.5 23q0 17 -12 24t-35 7q-32 0 -66 -14v37q34 16 69 16q44 0 71 -16.5zM-507 578.5q25 -14.5 69 -14.5t68.5 14t29.5 45h40q-7 -59 -40.5 -86t-97.5 -27t-97.5 27t-40.5 86
h39q5 -30 30 -44.5z" />
    <glyph glyph-name="hoicircviet" horiz-adv-x="0" 
d="M-326 720q26 -17 26 -50q0 -34 -26.5 -51.5t-64.5 -17.5q-19 0 -34 3v34q16 -2 27 -2q21 0 32.5 8t11.5 23q0 31 -47 31q-28 0 -62 -14v37q14 7 32.5 11.5t36.5 4.5q42 0 68 -17zM-664 503l104 143h71l104 -143h-45l-94 98l-95 -98h-45z" />
    <glyph glyph-name="tildebreveviet" horiz-adv-x="0" 
d="M-537.5 705.5q23.5 18.5 57.5 18.5q19 0 35 -5l34 -10q15 -5 28 -5q31 0 43 29h40q-11 -39 -34.5 -58t-54.5 -19q-18 0 -36 5l-38 11q-16 4 -26 4q-14 0 -24 -6.5t-17 -20.5h-40q9 38 32.5 56.5zM-530 537q-32 27 -39 86h39q5 -31 28 -45t67 -14t66.5 14t27.5 45h40
q-7 -59 -39 -86t-95 -27t-95 27z" />
    <glyph glyph-name="tildecircviet" horiz-adv-x="0" 
d="M-541.5 705.5q23.5 18.5 57.5 18.5q19 0 35 -5l34 -10q15 -5 28 -5q31 0 43 29h40q-11 -39 -34.5 -58t-54.5 -19q-18 0 -36 5l-38 11q-16 4 -26 4q-14 0 -24 -6.5t-17 -20.5h-40q9 38 32.5 56.5zM-476 626h73l103 -123h-47l-92 83l-93 -83h-47z" />
    <glyph glyph-name="acubreveviet.cap" horiz-adv-x="0" 
d="M-387 997h72l-102 -97h-42zM-529 819q-32 27 -39 86h39q5 -31 28 -45t67 -14t66.5 14t27.5 45h40q-7 -59 -39 -86t-95 -27t-95 27z" />
    <glyph glyph-name="acutcircviet.cap" horiz-adv-x="0" 
d="M-372 987h72l-102 -97h-42zM-563 928h71l104 -143h-45l-94 98l-95 -98h-45z" />
    <glyph glyph-name="gravbreveviet.cap" horiz-adv-x="0" 
d="M-557 997h72l72 -97h-42zM-529 819q-32 27 -39 86h39q5 -31 28 -45t67 -14t66.5 14t27.5 45h40q-7 -59 -39 -86t-95 -27t-95 27z" />
    <glyph glyph-name="gravcircviet.cap" horiz-adv-x="0" 
d="M-595 987l72 -97h-42l-102 97h72zM-475 928h71l104 -143h-45l-94 98l-95 -98h-45z" />
    <glyph glyph-name="hoibreveviet.cap" horiz-adv-x="0" 
d="M-380 1016.5q27 -16.5 27 -50.5t-29 -51.5t-70 -17.5q-23 0 -38 3v34q18 -2 33 -2q23 0 36.5 8t13.5 23q0 17 -12 24t-35 7q-32 0 -66 -14v37q34 16 69 16q44 0 71 -16.5zM-507 860.5q25 -14.5 69 -14.5t68.5 14t29.5 45h40q-7 -59 -40.5 -86t-97.5 -27t-97.5 27
t-40.5 86h39q5 -30 30 -44.5z" />
    <glyph glyph-name="hoicircviet.cap" horiz-adv-x="0" 
d="M-326 1002q26 -17 26 -50q0 -34 -26.5 -51.5t-64.5 -17.5q-19 0 -34 3v34q16 -2 27 -2q21 0 32.5 8t11.5 23q0 31 -47 31q-28 0 -62 -14v37q14 7 32.5 11.5t36.5 4.5q42 0 68 -17zM-664 785l104 143h71l104 -143h-45l-94 98l-95 -98h-45z" />
    <glyph glyph-name="tildebreveviet.cap" horiz-adv-x="0" 
d="M-537.5 987.5q23.5 18.5 57.5 18.5q19 0 35 -5l34 -10q15 -5 28 -5q31 0 43 29h40q-11 -39 -34.5 -58t-54.5 -19q-18 0 -36 5l-38 11q-16 4 -26 4q-14 0 -24 -6.5t-17 -20.5h-40q9 38 32.5 56.5zM-530 819q-32 27 -39 86h39q5 -31 28 -45t67 -14t66.5 14t27.5 45h40
q-7 -59 -39 -86t-95 -27t-95 27z" />
    <glyph glyph-name="tildecircviet.cap" horiz-adv-x="0" 
d="M-541.5 987.5q23.5 18.5 57.5 18.5q19 0 35 -5l34 -10q15 -5 28 -5q31 0 43 29h40q-11 -39 -34.5 -58t-54.5 -19q-18 0 -36 5l-38 11q-16 4 -26 4q-14 0 -24 -6.5t-17 -20.5h-40q9 38 32.5 56.5zM-476 908h73l103 -123h-47l-92 83l-93 -83h-47z" />
    </font>
</defs>
</svg>
