<svg height="16.246" viewBox="0 0 13.298 16.246" width="13.298" xmlns="http://www.w3.org/2000/svg"><g transform="translate(.35 .35)"><path d="m0 0h12.679v15.497h-12.679z" fill="#fff"/><g fill="#e50353" fill-rule="evenodd"><path d="m4.194 3.2a.171.171 0 0 0 -.166.176v2.624a.171.171 0 0 0 .166.176h8.371a.171.171 0 0 0 .167-.176v-2.619a.171.171 0 0 0 -.166-.176z" stroke="#e50353" stroke-width=".7" transform="translate(-2.085 -1.306)"/><path d="m3.946 10.764h2.326a.211.211 0 0 1 .211.211v1.053a.211.211 0 0 1 -.211.211h-2.326a.211.211 0 0 1 -.211-.211v-1.053a.211.211 0 0 1 .211-.211z" transform="translate(-1.998 -3.54)"/><path d="m8.854 10.764h2.326a.211.211 0 0 1 .211.211v1.053a.211.211 0 0 1 -.211.211h-2.326a.211.211 0 0 1 -.211-.211v-1.053a.211.211 0 0 1 .211-.211z" transform="translate(-3.703 -3.54)"/><path d="m13.762 10.764h2.326a.211.211 0 0 1 .211.211v1.053a.211.211 0 0 1 -.211.211h-2.326a.211.211 0 0 1 -.211-.211v-1.053a.211.211 0 0 1 .211-.211z" transform="translate(-5.406 -3.54)"/><path d="m3.946 14.574h2.326a.211.211 0 0 1 .211.211v1.053a.211.211 0 0 1 -.211.211h-2.326a.211.211 0 0 1 -.211-.211v-1.053a.211.211 0 0 1 .211-.211z" transform="translate(-1.998 -4.666)"/><path d="m8.854 14.574h2.326a.211.211 0 0 1 .211.211v1.053a.211.211 0 0 1 -.211.211h-2.326a.211.211 0 0 1 -.211-.211v-1.053a.211.211 0 0 1 .211-.211z" transform="translate(-3.703 -4.666)"/><path d="m13.762 14.574h2.326a.211.211 0 0 1 .211.211v1.053a.211.211 0 0 1 -.211.211h-2.326a.211.211 0 0 1 -.211-.211v-1.053a.211.211 0 0 1 .211-.211z" transform="translate(-5.406 -4.666)"/><path d="m3.946 18.384h2.326a.211.211 0 0 1 .211.211v1.053a.211.211 0 0 1 -.211.211h-2.326a.211.211 0 0 1 -.211-.211v-1.048a.211.211 0 0 1 .211-.216z" transform="translate(-1.998 -5.792)"/><path d="m8.854 18.384h2.326a.211.211 0 0 1 .211.211v1.053a.211.211 0 0 1 -.211.211h-2.326a.211.211 0 0 1 -.211-.211v-1.048a.211.211 0 0 1 .211-.216z" transform="translate(-3.703 -5.792)"/><path d="m13.762 18.384h2.326a.211.211 0 0 1 .211.211v1.053a.211.211 0 0 1 -.211.211h-2.326a.211.211 0 0 1 -.211-.211v-1.048a.211.211 0 0 1 .211-.216z" transform="translate(-5.406 -5.792)"/></g><path d="m1.71.509a.449.449 0 0 0 -.44.458v14.633a.449.449 0 0 0 .44.458h11.718a.449.449 0 0 0 .44-.458v-14.633a.449.449 0 0 0 -.44-.458z" fill="none" stroke="#fff" stroke-width=".7" transform="translate(-1.27 -.509)"/></g></svg>