<svg xmlns="http://www.w3.org/2000/svg" width="85.966" height="9.57" viewBox="0 0 85.966 9.57">
  <g id="Grupo_3437" data-name="Grupo 3437" transform="translate(315.86 605.196)">
    <path id="Caminho_2106" data-name="Caminho 2106" d="M-306.5-408.8a.606.606,0,0,0,.606-.606v-1.186a.606.606,0,0,0-.606-.606h-13.185a.606.606,0,0,0-.606.606v1.186a.606.606,0,0,0,.606.606Zm0,7.173a.606.606,0,0,0,.606-.606v-1.186a.606.606,0,0,0-.606-.606h-13.185a.606.606,0,0,0-.606.606v1.186a.606.606,0,0,0,.606.606Zm0-3.587a.606.606,0,0,0,.606-.606V-407a.606.606,0,0,0-.606-.606h-13.185a.606.606,0,0,0-.606.606v1.186a.606.606,0,0,0,.606.606Zm-28.937,0,10.134-2.4-9.835,0a.6.6,0,0,1-.6-.6.6.6,0,0,1,.6-.6h11.462a.606.606,0,0,0,.606-.606v-1.186a.606.606,0,0,0-.606-.606h-11.76a3,3,0,0,0-3,2.993,3,3,0,0,0,3,2.993l9.835,0a.6.6,0,0,1,.6.6.6.6,0,0,1-.6.6h-12.052a.606.606,0,0,0-.606.606v1.186a.606.606,0,0,0,.606.606h12.35a3,3,0,0,0,3-2.993,3,3,0,0,0-3-2.993m-52.348,2.4-11.632.225a.229.229,0,0,1,.229-.229l11.4,0a3,3,0,0,0,3-2.993,3,3,0,0,0-3-2.993h-13.6a.606.606,0,0,0-.606.606v1.186a.606.606,0,0,0,.606.606h13.3a.6.6,0,0,1,.6.6.6.6,0,0,1-.6.6l-11.648,0a2.206,2.206,0,0,0-2.207,2.2v3.176a.606.606,0,0,0,.606.606h1.309a.606.606,0,0,0,.606-.606Zm19.943-3.385,8.823.761,3.171-2.983v5.939a2.986,2.986,0,0,1-3,2.976l-3.167.051h-2.6l-3.167-.051a2.986,2.986,0,0,1-3-2.976v-5.939a.6.6,0,0,1,.606-.6h1.486a.6.6,0,0,1,.606.6v5.94a.594.594,0,0,0,.6.592h8.333a.594.594,0,0,0,.6-.592v-5.94a.6.6,0,0,1,.606-.6h1.486A.6.6,0,0,1-357.347-410.593Zm5.1,0a.606.606,0,0,0-.606-.606h-1.486a.606.606,0,0,0-.606.606v5.971a2.994,2.994,0,0,0,3,2.992h10.7a.606.606,0,0,0,.606-.606v-1.186a.606.606,0,0,0-.606-.606h-10.4a.6.6,0,0,1-.6-.6Z" transform="translate(76 -194)" fill="#18131f"/>
  </g>
</svg>
