<svg xmlns="http://www.w3.org/2000/svg" width="212.102" height="27" viewBox="0 0 212.102 27">
  <text id="fastback" transform="translate(25.102)" fill="#dc651e" font-size="20" font-family="SegoeUI-Bold, Segoe UI" font-weight="700" letter-spacing="0.01em">
    <tspan x="40.891" y="22">fastback</tspan>
  </text>
  <g id="Grupo_3942" data-name="Grupo 3942" transform="translate(-649.863 -383.053)">
    <path id="Caminho_2229" data-name="Caminho 2229" d="M-.136-25.179l2.895-2.369a.208.208,0,0,1,.286.023,1.808,1.808,0,0,0,1.447.723c1.03,0,1.535-.615,1.535-1.755v-9.124a.207.207,0,0,1,.22-.22h4.168a.207.207,0,0,1,.219.22v8.619c0,4.278-2.083,6.339-6.01,6.339a5.721,5.721,0,0,1-4.781-2.15.234.234,0,0,1,.022-.307" transform="translate(650.067 420.954)" fill="#d26d1c" />
    <g id="Grupo_3876" data-name="Grupo 3876" transform="translate(662.615 383.054)">
      <path id="Caminho_636" data-name="Caminho 636" d="M0-.432A.207.207,0,0,1,.22-.651H18.376a.207.207,0,0,1,.22.219V2.946a.207.207,0,0,1-.22.219H4.693a.117.117,0,0,0-.132.132V4.744a.116.116,0,0,0,.132.131H17.279a.207.207,0,0,1,.22.22v3.29a.207.207,0,0,1-.22.22H4.693a.116.116,0,0,0-.132.131v1.579a.117.117,0,0,0,.132.132H18.376a.208.208,0,0,1,.22.22v3.377a.207.207,0,0,1-.22.22H.22a.207.207,0,0,1-.22-.22Z" transform="translate(0 0.651)" fill="#d26d1c" />
    </g>
    <g id="Grupo_3877" data-name="Grupo 3877" transform="translate(682.841 383.054)">
      <path id="Caminho_637" data-name="Caminho 637" d="M0-.432A.206.206,0,0,1,.219-.651H10.2a.207.207,0,0,1,.22.219V2.946a.207.207,0,0,1-.22.219H4.693a.117.117,0,0,0-.132.132V4.744a.116.116,0,0,0,.132.131H9.1a.208.208,0,0,1,.22.22v3.29a.207.207,0,0,1-.22.22H4.693a.116.116,0,0,0-.132.131v1.579a.117.117,0,0,0,.132.132H10.2a.207.207,0,0,1,.22.22v3.377a.207.207,0,0,1-.22.22H.219A.206.206,0,0,1,0,14.044Z" transform="translate(0 0.651)" fill="#d26d1c" />
    </g>
    <g id="Grupo_3878" data-name="Grupo 3878" transform="translate(694.888 383.054)">
      <path id="Caminho_638" data-name="Caminho 638" d="M-.434-29.52a.207.207,0,0,1-.22-.22V-44.215a.207.207,0,0,1,.22-.219H5.728c4.1,0,5.9,2.17,5.9,5.154,0,2.895-1.865,5.154-5.9,5.154H4.062a.117.117,0,0,0-.132.131v4.255a.207.207,0,0,1-.219.22Zm7.458-9.76c0-.834-.527-1.339-1.536-1.339H4.062a.117.117,0,0,0-.132.133v2.412a.116.116,0,0,0,.132.131H5.487c1.009,0,1.536-.5,1.536-1.337" transform="translate(0.654 44.434)" fill="#d26d1c" />
    </g>
  </g>
</svg>