<svg width="25" height="25" viewBox="0 0 512 512" fill="none" xmlns="http://www.w3.org/2000/svg">
<g clip-path="url(#clip0)">
<path d="M506.141 477.851L361.689 333.399C427.503 253.324 423.025 134.455 348.238 59.669C268.679 -19.89 139.228 -19.89 59.669 59.669C-19.89 139.228 -19.89 268.679 59.669 348.238C134.435 423.004 253.289 427.531 333.399 361.689L477.851 506.141C485.663 513.953 498.328 513.953 506.14 506.141C513.953 498.328 513.953 485.663 506.141 477.851ZM319.949 319.948C255.989 383.908 151.919 383.907 87.959 319.948C23.999 255.988 23.999 151.918 87.959 87.958C151.917 24.001 255.987 23.996 319.949 87.958C383.909 151.918 383.909 255.988 319.949 319.948Z" fill="#209051"/>
<path d="M301.897 183.949H223.957V106.009C223.957 94.961 215.001 86.005 203.953 86.005C192.905 86.005 183.949 94.961 183.949 106.009V183.949H106.009C94.9609 183.949 86.0049 192.905 86.0049 203.953C86.0049 215.001 94.9609 223.957 106.009 223.957H183.949V301.897C183.949 312.945 192.905 321.901 203.953 321.901C215.001 321.901 223.957 312.945 223.957 301.897V223.957H301.897C312.945 223.957 321.901 215.001 321.901 203.953C321.901 192.905 312.945 183.949 301.897 183.949Z" fill="#209051"/>
</g>
<defs>
<clipPath id="clip0">
<rect width="512" height="512" fill="#209051"/>
</clipPath>
</defs>
</svg>
