<svg height="19" viewBox="0 0 19 19" width="19" xmlns="http://www.w3.org/2000/svg"><circle cx="9.5" cy="9.5" fill="#fff" r="9.5"/><g fill="none" stroke="#e50353" stroke-width=".8"><path d="m13.842 12.5a.965.965 0 1 0 -.965.965.967.967 0 0 0 .965-.965z" transform="translate(-3.411 -3.03)"/><path d="m11.9 15.611.149-2.567a.273.273 0 0 1 .4-.228l2.3 1.154a5.305 5.305 0 0 1 -2.849 1.641zm-5.038-1.641 2.3-1.153a.273.273 0 0 1 .395.228l.143 2.566a5.307 5.307 0 0 1 -2.838-1.641zm-1.362-3.548a5.282 5.282 0 0 1 .26-1.64l2.149 1.412a.273.273 0 0 1 0 .456l-2.151 1.413a5.282 5.282 0 0 1 -.258-1.641zm4.2-5.189-.147 2.567a.273.273 0 0 1 -.395.228l-2.3-1.153a5.306 5.306 0 0 1 2.842-1.642zm5.042 1.642-2.3 1.153a.273.273 0 0 1 -.4-.228l-.142-2.567a5.305 5.305 0 0 1 2.843 1.642zm1.364 3.547a5.288 5.288 0 0 1 -.26 1.641l-2.146-1.413a.273.273 0 0 1 0-.456l2.149-1.413a5.282 5.282 0 0 1 .258 1.641zm-5.306-6.207a6.207 6.207 0 1 0 6.207 6.207 6.213 6.213 0 0 0 -6.207-6.207z" transform="translate(-1.096 -.715)"/></g></svg>