<svg height="14.265" viewBox="0 0 16.757 14.265" width="16.757" xmlns="http://www.w3.org/2000/svg"><g fill-rule="evenodd" stroke-width=".7"><path d="m18.962 9.549a1 1 0 1 1 -1-1 1 1 0 0 1 1 1z" fill="#6a6a6a" stroke="#40424a" transform="translate(-4.306 -2.293)"/><path d="m4.137 9.549a1 1 0 1 1 -1-1 1 1 0 0 1 1 1z" fill="#6a6a6a" stroke="#40424a" transform="translate(-.243 -2.293)"/><g fill="#fff"><path d="m16.066 4.26c-.1-.67-1.483-.478-1.483-.478a.713.713 0 0 0 0 .957c.048.12-.12.43-.12.43l-.239-.335c-1.052-2.607-1.524-4.047-2.616-4.181a31.383 31.383 0 0 0 -3.915-.238 28.913 28.913 0 0 0 -3.593.285c-1.09.124-1.188 1.527-2.24 4.134l-.239.335s-.167-.311-.12-.43a.713.713 0 0 0 0-.957s-1.387-.192-1.482.478c0 0-.1.622 1 .622l.335.765a5.128 5.128 0 0 1 -.287.957 8.148 8.148 0 0 0 -.522 1.052 4.629 4.629 0 0 0 -.1 1.291c.076.526.028.909.055 1.053 0 0-.06 2.26-.012 3.025a.985.985 0 0 0 .706.849s1.184.347 1.315-.765l.548-.331 4.956.029 4.913-.016.668.282c.179 1.04 1.339.885 1.339.885a.97.97 0 0 0 .717-.933 26.24 26.24 0 0 0 -.062-3.025c.024-.143-.024-.526.048-1.052a4.629 4.629 0 0 0 -.1-1.291 8.148 8.148 0 0 0 -.522-1.057 5.128 5.128 0 0 1 -.287-.957l.335-.765c1.1.004 1.004-.618 1.004-.618z" stroke="#fff" transform="translate(.336 -.065)"/><path d="m8.805 15.169q-5.7.022-5.656.318l11.324-.005q.048-.296-5.668-.313z" stroke="#ff8094" transform="translate(-.523 -4.109)"/><path d="m2.915 12.307a.627.627 0 0 1 -.682.55.627.627 0 0 1 -.682-.55.627.627 0 0 1 .682-.55.627.627 0 0 1 .682.55z" stroke="#ff8094" transform="translate(-.085 -3.174)"/><path d="m18.683 12.307a.7.7 0 0 0 1.363 0 .7.7 0 0 0 -1.363 0z" stroke="#ff8094" transform="translate(-4.78 -3.174)"/><path d="m12.7 10.953-2.3-.024a.687.687 0 0 0 -.622-.49.67.67 0 0 0 -.613.49l-2.3.024c-.622-.024-.5.143-.5.143a.49.49 0 0 0 .311.12h2.493a.638.638 0 0 0 .613.49.652.652 0 0 0 .622-.49h2.486a.49.49 0 0 0 .311-.12s.12-.167-.501-.143z" stroke="#ff8094" transform="translate(-1.403 -2.812)"/></g></g></svg>