<svg height="22.906" viewBox="0 0 20.758 22.906" width="20.758" xmlns="http://www.w3.org/2000/svg"><path d="m.154 5.376a.563.563 0 0 0 -.154.387v12.994a.563.563 0 0 0 .563.563h9.475a.563.563 0 0 0 .563-.563v-12.994a.563.563 0 0 0 -.154-.387l-5.047-5.335-.01-.005a.13.13 0 0 0 -.184.005z" fill="#fff" fill-rule="evenodd" stroke="#fff" stroke-width=".7" transform="matrix(.81915204243 -.57357643161 .57357643161 .81915204243 .50424033774 6.59069000476)"/><g fill="#ff8094"><circle cx="1.117" cy="1.117" r="1.117" stroke="#ff8094" stroke-width=".5" transform="matrix(.81915204243 -.57357643161 .57357643161 .81915204243 5.89895649068 7.03786829323)"/><text font-family="FuturaPT-Medium, FuturaPT" font-size="7" font-weight="500" transform="matrix(.81915204243 -.57357643161 .57357643161 .81915204243 11.43480343433 17.22020357652)"><tspan x="0" y="0">$</tspan></text></g></svg>
