<svg xmlns="http://www.w3.org/2000/svg" width="157.158" height="20.105" viewBox="0 0 157.158 20.105">
  <g id="logoFastbackFiat" transform="translate(-1.264 0.553)">
    <path id="Path_4787" data-name="Path 4787" d="M8.176-9.408H4.4v2.016H7.84v2.656H4.4V0H1.264V-12.064H8.176Zm5.264-2.656V0H10.3V-12.064ZM22.784-4.48,21.376-8.5,19.968-4.48ZM23.616-2.1h-4.48L18.416,0H15.072l4.592-12.064h3.424L27.68,0H24.336ZM33.36-9.408V0H30.224V-9.408H27.648v-2.656h8.288v2.656Z" transform="translate(0 16)" fill="#fff"/>
    <g id="Fiat_Flag" data-name="Fiat Flag" transform="translate(42.289 -0.553)">
      <path id="Caminho_149" data-name="Caminho 149" d="M503.189,300.235l-6.524,20.106h3.02l6.524-20.106Z" transform="translate(-490.625 -300.235)" fill="#fff"/>
      <path id="Caminho_150" data-name="Caminho 150" d="M323.093,300.235l-6.524,20.106h3.02l6.524-20.106Z" transform="translate(-316.569 -300.235)" fill="#268f52"/>
      <path id="Caminho_151" data-name="Caminho 151" d="M683.284,300.235l-6.524,20.106h3.02l6.524-20.106Z" transform="translate(-664.68 -300.235)" fill="#fff"/>
      <path id="Caminho_152" data-name="Caminho 152" d="M863.38,300.235l-6.524,20.106h3.02l6.524-20.106Z" transform="translate(-838.736 -300.235)" fill="#ff1430"/>
    </g>
    <path id="logo-fastback" d="M81.549,4.2l-6.94,3.254,4.318-6.322a.557.557,0,0,0-.676-.853l-.343.11a.734.734,0,0,0-.354.261L71.09,9.107l-5.563,2.608-.9.455a1.068,1.068,0,0,1-1.449-.549c-.932-1.617,2.568-6.356,5.181-4.016a.449.449,0,0,0,.537.05,2.084,2.084,0,0,0,.647-.747.619.619,0,0,0-.074-.762C67.006,3.778,63.181,5.7,61.486,8.4l-1.83,1.3c-.121.086-.219.031-.1-.152.41-.609.9-1.335,1.5-2.223a1.3,1.3,0,0,0,.036-1.3c-.634-1.13-2.727-1.047-4.705-.273-2.5.981-3.043,1.288-6.42,2.833-.229.094-.39.088-.343-.169a2.944,2.944,0,0,0-4.3-3l-2.7,1.247L46.4,1.135a.557.557,0,0,0-.676-.853l-.343.11a.73.73,0,0,0-.354.261L39.235,8.231l-5.2,2.4c-.224.11-.469-.139-.266-.46l2.91-4.258c1.173-.052,1.987-.075,2.151-.075a.626.626,0,0,0,.463-.185,4.3,4.3,0,0,0,.525-.759c.309-.492.025-.637-.269-.637-.181,0-.889-.013-1.719-.029l2.114-3.093A.557.557,0,0,0,39.267.28l-.343.11a.733.733,0,0,0-.354.261l-2.716,3.54c-.549-.008-1-.013-1.209-.011C23.054,4.7,21.363,6.488,20.8,7.691A1.787,1.787,0,0,0,21.49,10.2a7.242,7.242,0,0,0,3.874.046c.676-.112.656.538.322.663a24.914,24.914,0,0,1-8.7,1.5c-.129,0-.456-.156-.184-.512.688-.9,1.475-2.12,3.138-4.565a1.306,1.306,0,0,0,.036-1.3c-.634-1.13-3.088-.739-4.462-.471C13.152,6.026,10.842,7,6.6,8.353L9.212,4.262C13.577,3.21,16.505,2.7,25.316,1.63a1.378,1.378,0,0,0,.743-.441c.479-.507.622-.692.406-.95a.77.77,0,0,0-.7-.237C19.926.021,7.466,1.92,4.027,3.461a4.563,4.563,0,0,0-.594.365,6.73,6.73,0,0,0-1.6,1.737c-.157.207-.157.573.554.4,1.366-.338,3.3-.935,4.367-1.2L.11,14.045c-.226.316-.085.834.244.892l.9.588a1.115,1.115,0,0,0,1.12-.569l2.1-3.29C5.719,11.135,7.789,10.253,8.7,9.9c.461-.181.582.081.405.386a3.8,3.8,0,0,0-.494,3.406c.81,1.8,3.063,1.016,4.631.062.07-.042.28-.143.262.19-.011.2-.019.478-.018.7,0,.319.071.334.18.348,2.474.31,12.378-.915,14.662-3.05,1.17-1.094,1.391-2.483.626-3.437-.642-.8-2.576-.518-4.579-.429-.62.028-.378-.6.208-.795,1.969-.668,6.445-1.053,9.864-1.256l-5.6,7.3s-.418.486-.217.821a1.315,1.315,0,0,0,.635.563c.246.1.575.045,1.154-.187l6.244-2.926L34.8,14.027c-.14.182-.041.492.156.492h1.96a.689.689,0,0,0,.558-.326l3-4.387,5.34-2.5c1.441-.592,1.885.656,1.285,1.633-.566.92-3.531,4.256-6.558,3.47a.571.571,0,0,0-.552.143,6.136,6.136,0,0,0-.7.875c-.12.172-.283.766.171.986,2.675,1.3,7.812-1.525,9.8-2.907.2-.139.376.01.314.32a2.918,2.918,0,0,0,.153,1.867c.81,1.8,3.064,1.016,4.631.062.07-.042.365-.246.359.156-.01.528-.008.41-.011.76s-.047.832.546.4l5.374-3.914q0,.134.015.268c.229,2.364,1.748,4.612,5.218,2.585l2.829-1.764-1.36,1.781c-.139.182-.04.492.156.492h1.96A.688.688,0,0,0,70,14.193l2.631-3.843,2.941,3.845a.761.761,0,0,0,.6.324l.694.008c.352,0,.542-.6.293-.923L74.155,9.394,81.63,5.582a1.323,1.323,0,0,0,.494-.5c.136-.237.054-1.194-.575-.878m-67.14,6.653A5.546,5.546,0,0,1,12.6,11.9c-.3.127-.883.216-1.041-.023-.534-.809,1.958-3.187,3.145-3.886a7.151,7.151,0,0,1,2.541-1.016c.632-.107.52.406.405.562a26.4,26.4,0,0,1-3.239,3.314M58.781,7.541a26.406,26.406,0,0,1-3.239,3.314A5.546,5.546,0,0,1,53.731,11.9c-.3.127-.883.216-1.041-.023-.534-.809,1.958-3.187,3.145-3.886a7.151,7.151,0,0,1,2.541-1.016c.632-.107.52.406.405.562" transform="translate(76.242 0.011)" fill="#fff" opacity="0.996"/>
  </g>
</svg>
