<svg xmlns="http://www.w3.org/2000/svg" width="478.671" height="190.853" viewBox="0 0 478.671 190.853">
  <g transform="translate(9792.706 5279.853)">
    <g transform="translate(-9558.023 -5266.337)" opacity="0.1">
      <path data-name="Path 168" d="M1090.68,240l-57.541,177.337h26.636L1117.315,240Z" transform="translate(-979.868 -240)" fill="#efebe0"/>
      <path data-name="Path 169" d="M903.166,240,845.625,417.337h26.636L929.8,240Z" transform="translate(-845.625 -240)" fill="#efebe0"/>
      <path data-name="Path 170" d="M1278.193,240l-57.539,177.337h26.636L1304.829,240Z" transform="translate(-1114.112 -240)" fill="#efebe0"/>
      <path data-name="Path 171" d="M1465.709,240l-57.542,177.337H1434.8L1492.343,240Z" transform="translate(-1248.355 -240)" fill="#efebe0"/>
    </g>
    <path data-name="Path 2232" d="M6.533,0l3.1-21.808L20.163,1.316,30.832-21.808,33.793,0h3.572L32.477-33.135,20.21-6.627,8.178-33.088,2.961,0Zm59.5,0h3.854L55.836-32.853,41.407,0h3.854l3.76-8.836H62.369ZM50.384-12.126l5.358-12.549,5.264,12.549ZM74.777-31.349V0h3.478V-31.349Zm28.811,4.371a9.482,9.482,0,0,0-3.055-3.478,8.493,8.493,0,0,0-5.029-1.41c-5.076,0-8.789,3.243-8.789,8.084a6.51,6.51,0,0,0,2.162,5.123,13.878,13.878,0,0,0,4.183,2.585l2.82,1.316A13.678,13.678,0,0,1,99.64-12.6a4.677,4.677,0,0,1,1.551,3.666,5.934,5.934,0,0,1-6.3,6.2,5.992,5.992,0,0,1-4.512-1.739A7.4,7.4,0,0,1,88.5-8.46l-3.384.94a11.364,11.364,0,0,0,2.914,5.546A9.349,9.349,0,0,0,94.846.564c5.64,0,9.917-3.854,9.917-9.635a7.544,7.544,0,0,0-2.256-5.687,15.227,15.227,0,0,0-4.841-2.961l-3.008-1.316a10.237,10.237,0,0,1-3.29-1.974,3.287,3.287,0,0,1-1.175-2.726c0-2.914,2.162-4.841,5.264-4.841A5.64,5.64,0,0,1,98.982-27.5a7.554,7.554,0,0,1,1.833,2.35Zm22.936-4.371h-3.478v20.163c0,2.632.282,5.17,1.974,7.52a11.074,11.074,0,0,0,9.165,4.23,11.074,11.074,0,0,0,9.165-4.23c1.692-2.35,1.974-4.888,1.974-7.52V-31.349h-3.478v19.223c0,2.632,0,5.5-2.491,7.614a8.705,8.705,0,0,1-5.17,1.786,8.705,8.705,0,0,1-5.17-1.786c-2.491-2.115-2.491-4.982-2.491-7.614ZM156.369,0l3.1-21.808L170,1.316l10.669-23.124L183.629,0H187.2l-4.888-33.135L170.046-6.627,158.014-33.088,152.8,0Zm59.5,0h3.854L205.672-32.853,191.243,0H195.1l3.76-8.836H212.2ZM200.22-12.126l5.358-12.549,5.264,12.549Zm32.148-19.223L245.058,1.88l12.69-33.229h-3.854L245.058-7.426l-8.836-23.923Zm46.53,0H262.636V0H278.9V-3.29H266.114V-15.463h12.408v-3.29H266.114v-9.306H278.9Zm26.884,0H285.055v3.29h14.9L282.846,0h22.466V-3.29H288.674Z" transform="translate(-9663 -5145)" fill="#efebe0"/>
    <path data-name="Path 2231" d="M34.658-38.688a23.363,23.363,0,0,0-12.586-3.6c-6.572,0-11.222,2.108-14.384,5.332a13.38,13.38,0,0,0-4.03,9.858,10.321,10.321,0,0,0,2.976,7.626,12.48,12.48,0,0,0,7.192,3.534l3.658.682c1.55.31,2.356.5,2.852.992a2.006,2.006,0,0,1,.5,1.426,2.216,2.216,0,0,1-.806,1.86,5.136,5.136,0,0,1-3.224.744,14.568,14.568,0,0,1-8.37-3.038L6.82-14.508,2.294-2.852l1.364.558C7.192-.868,11.408.93,17.732.93c7.75,0,12.214-2.852,14.57-5.27a13.321,13.321,0,0,0,3.72-9.734,11.042,11.042,0,0,0-3.162-8.184,13.965,13.965,0,0,0-7.068-3.534l-4.774-1.054c-2.294-.5-2.418-1.3-2.418-2.17a1.692,1.692,0,0,1,.744-1.488,4.932,4.932,0,0,1,2.852-.744c3.348,0,6.634,1.86,8.432,3.1ZM71.362,0V-11.346H58.094v-3.968H69.812v-10.85H58.094v-3.844h12.9V-41.354H43.09V0ZM124-38.688a23.363,23.363,0,0,0-12.586-3.6c-6.572,0-11.222,2.108-14.384,5.332A13.38,13.38,0,0,0,93-27.094a10.321,10.321,0,0,0,2.976,7.626,12.48,12.48,0,0,0,7.192,3.534l3.658.682c1.55.31,2.356.5,2.852.992a2.006,2.006,0,0,1,.5,1.426,2.216,2.216,0,0,1-.806,1.86,5.136,5.136,0,0,1-3.224.744,14.568,14.568,0,0,1-8.37-3.038l-1.612-1.24L91.636-2.852,93-2.294C96.534-.868,100.75.93,107.074.93c7.75,0,12.214-2.852,14.57-5.27a13.321,13.321,0,0,0,3.72-9.734,11.042,11.042,0,0,0-3.162-8.184,13.965,13.965,0,0,0-7.068-3.534l-4.774-1.054c-2.294-.5-2.418-1.3-2.418-2.17a1.692,1.692,0,0,1,.744-1.488,4.932,4.932,0,0,1,2.852-.744c3.348,0,6.634,1.86,8.432,3.1Zm8.432,23.746a14.6,14.6,0,0,0,3.782,10.416C140.926.558,147.808.93,151.59.93c4.588,0,10.54-.806,14.756-5.146A16.464,16.464,0,0,0,170.686-16V-41.354H155.744V-17.36c0,1.054,0,3.224-1.116,4.34a4.1,4.1,0,0,1-3.038.992,3.746,3.746,0,0,1-2.976-1.116,5.958,5.958,0,0,1-1.3-4.216V-41.354h-14.88ZM194.246,0V-12.462H201.5c3.162,0,6.882-.372,10.168-3.348,3.348-3.038,4.092-6.944,4.092-10.354a14.811,14.811,0,0,0-4.216-10.85c-1.736-1.674-5.518-4.34-12.09-4.34h-19.84V0Zm0-30.008h2.728a5.2,5.2,0,0,1,3.038.93,3.085,3.085,0,0,1,1.116,2.542,3.237,3.237,0,0,1-.992,2.542,4.7,4.7,0,0,1-3.348,1.116h-2.542ZM249.86,0V-11.346H236.592v-3.968H248.31v-10.85H236.592v-3.844h12.9V-41.354h-27.9V0Zm21.7,0V-13.268l.248-.124a6.766,6.766,0,0,0,.558,1.3L278.318,0h17.3l-9.3-13.95a5.812,5.812,0,0,0-2.17-1.922v-.372a9.874,9.874,0,0,0,5.7-3.286,11.154,11.154,0,0,0,2.294-7.378,13.682,13.682,0,0,0-3.906-10.168c-3.782-3.782-8.308-4.278-12.648-4.278H256.928V0Zm0-30.008h2.6a3.28,3.28,0,0,1,2.542,1.116,3.731,3.731,0,0,1,.806,2.48,3.26,3.26,0,0,1-1.054,2.542,4.914,4.914,0,0,1-3.162.93H271.56Zm72.54,9.3a21.038,21.038,0,0,0-5.766-14.942c-3.534-3.6-9.3-6.634-17.174-6.634s-13.64,3.038-17.174,6.634a21.038,21.038,0,0,0-5.766,14.942,21.084,21.084,0,0,0,5.766,15c3.534,3.6,9.3,6.634,17.174,6.634S334.8-2.108,338.334-5.7A21.084,21.084,0,0,0,344.1-20.708Zm-22.94-8.246a7.483,7.483,0,0,1,5.394,2.108,8.412,8.412,0,0,1,2.356,6.2,8.665,8.665,0,0,1-2.356,6.138A7.523,7.523,0,0,1,321.16-12.4a7.523,7.523,0,0,1-5.394-2.108,8.785,8.785,0,0,1-2.356-6.138,9.283,9.283,0,0,1,2.356-6.2A7.176,7.176,0,0,1,321.16-28.954Zm30.008,14.012A14.6,14.6,0,0,0,354.95-4.526C359.662.558,366.544.93,370.326.93c4.588,0,10.54-.806,14.756-5.146A16.464,16.464,0,0,0,389.422-16V-41.354H374.48V-17.36c0,1.054,0,3.224-1.116,4.34a4.1,4.1,0,0,1-3.038.992,3.746,3.746,0,0,1-2.976-1.116,5.958,5.958,0,0,1-1.3-4.216V-41.354h-14.88Z" transform="translate(-9795 -5191)" fill="#efebe0"/>
    <path data-name="Path 2233" d="M25,0h3.854L14.805-32.853.376,0H4.23L7.99-8.836H21.338ZM9.353-12.126l5.358-12.549,5.264,12.549ZM45.167-31.349V0H57.293V-3.29H48.645V-31.349Zm33.558,0H62.463V0H78.725V-3.29H65.941V-15.463H78.349v-3.29H65.941v-9.306H78.725ZM89.065,0V-24.205L113.5,1.41V-31.349h-3.478v24.3L85.587-32.665V0Zm32.994,0H128.4c5.593,0,8.6-1.175,11.468-3.619a14.923,14.923,0,0,0,5.5-12.032,15.283,15.283,0,0,0-5.358-12.032c-3.948-3.337-8.413-3.666-11.562-3.666h-6.392Zm3.478-28.059h3.055c7.943,0,13.207,4.888,13.207,12.408a12,12,0,0,1-4.23,9.541,13.394,13.394,0,0,1-8.977,2.82h-3.055ZM173.195,0h3.854L163-32.853,148.567,0h3.854l3.76-8.836h13.348ZM157.544-12.126,162.9-24.675l5.264,12.549Z" transform="translate(-9752 -5247)" fill="#efebe0"/>
  </g>
</svg>
