<?xml version="1.0" standalone="no"?>
<!DOCTYPE svg PUBLIC "-//W3C//DTD SVG 20010904//EN"
 "http://www.w3.org/TR/2001/REC-SVG-20010904/DTD/svg10.dtd">
<svg version="1.0" xmlns="http://www.w3.org/2000/svg"
 width="1024.000000pt" height="1024.000000pt" viewBox="0 0 1024.000000 1024.000000"
 preserveAspectRatio="xMidYMid meet">
<metadata>
Created by potrace 1.14, written by Peter Selinger 2001-2017
</metadata>
<g transform="translate(0.000000,1024.000000) scale(0.100000,-0.100000)"
fill="#000000" stroke="none">
<path d="M2432 8842 c-13 -2 -25 -9 -27 -15 -22 -74 -208 -655 -270 -842 -13
-38 -69 -212 -125 -385 -56 -173 -126 -389 -155 -480 -30 -91 -73 -223 -96
-295 -63 -196 -157 -484 -175 -535 -8 -25 -17 -52 -19 -60 -1 -8 -20 -67 -41
-130 -21 -63 -38 -117 -39 -120 -1 -6 -125 -389 -190 -585 -23 -71 -77 -238
-119 -370 -43 -132 -81 -251 -86 -265 -5 -14 -61 -187 -125 -385 -64 -198
-127 -391 -139 -430 -13 -38 -44 -133 -69 -210 -179 -552 -277 -857 -334
-1030 -36 -110 -66 -204 -67 -210 -1 -5 -46 -145 -100 -310 -54 -165 -120
-370 -148 -455 -28 -85 -63 -193 -78 -240 -16 -46 -27 -87 -25 -89 4 -3 1039
-5 1096 -2 13 1 32 50 79 194 34 105 97 300 140 432 93 285 275 845 336 1035
23 74 63 198 89 275 25 77 79 246 121 375 41 129 78 242 81 250 3 8 7 20 8 25
2 6 16 51 33 100 16 50 46 142 67 205 34 108 169 523 356 1100 46 140 84 257
84 260 1 5 107 331 208 640 28 85 52 160 53 166 1 7 11 38 22 70 25 72 119
361 247 759 53 165 126 390 162 500 35 110 70 218 78 240 7 22 59 180 114 350
55 171 111 344 124 385 14 41 23 77 21 79 -5 5 -1059 7 -1092 3z"/>
<path d="M4655 8835 c-7 -5 -22 -41 -34 -80 -12 -38 -74 -230 -137 -425 -207
-636 -345 -1063 -349 -1080 -1 -3 -4 -12 -8 -20 -3 -8 -51 -157 -107 -330
-167 -515 -201 -621 -225 -695 -13 -38 -65 -198 -115 -355 -51 -157 -107 -330
-125 -385 -18 -55 -79 -242 -135 -415 -56 -173 -153 -475 -217 -670 -139 -428
-198 -613 -338 -1045 -59 -181 -138 -424 -175 -540 -38 -115 -90 -275 -116
-355 -25 -80 -60 -185 -76 -235 -17 -49 -31 -94 -32 -100 -2 -8 -166 -513
-212 -654 -9 -27 -11 -47 -5 -50 5 -3 256 -6 557 -5 l548 1 39 119 c128 400
328 1018 334 1034 3 8 7 20 8 25 2 6 18 55 36 110 18 55 33 102 34 105 2 7
153 476 175 540 10 30 64 197 120 370 56 173 104 322 107 330 3 8 7 20 8 26 2
6 35 109 74 230 104 317 147 450 266 819 59 182 126 389 149 460 24 72 78 238
120 370 43 132 86 265 96 295 17 51 74 228 322 995 50 154 112 345 138 425 26
80 87 267 135 415 47 149 97 302 110 340 80 242 136 427 131 432 -11 11 -1088
9 -1101 -2z"/>
<path d="M6909 8842 c-22 -3 -28 -12 -48 -75 -21 -70 -224 -697 -261 -807 -24
-73 -107 -328 -225 -695 -53 -165 -105 -325 -115 -355 -10 -30 -58 -176 -105
-325 -48 -148 -102 -315 -120 -370 -18 -55 -76 -235 -130 -400 -53 -165 -107
-331 -120 -370 -13 -38 -43 -133 -68 -210 -43 -134 -220 -678 -332 -1025 -30
-91 -70 -217 -90 -280 -20 -63 -40 -124 -45 -135 -5 -11 -22 -63 -38 -115 -32
-101 -215 -666 -278 -860 -21 -63 -39 -118 -40 -122 -1 -5 -2 -9 -4 -10 -1 -2
-3 -11 -5 -20 -2 -10 -10 -37 -19 -60 -8 -24 -65 -198 -126 -388 -155 -478
-198 -611 -232 -714 -16 -49 -27 -93 -25 -99 2 -7 183 -11 555 -11 l553 -1 13
45 c8 25 71 221 141 435 69 215 178 550 241 745 64 195 119 366 124 380 5 14
52 160 105 325 54 165 108 332 120 370 13 39 69 212 125 385 196 608 221 685
235 725 7 22 53 162 100 310 48 149 125 385 170 525 46 140 123 377 170 525
48 149 101 310 117 359 17 49 31 94 32 100 1 6 35 110 74 231 79 240 105 320
242 745 51 157 114 350 140 430 26 80 89 273 139 430 51 157 99 305 107 329 7
25 12 47 9 49 -5 6 -1042 9 -1086 4z"/>
<path d="M9080 8710 c-24 -74 -58 -180 -76 -235 -54 -169 -342 -1057 -410
-1265 -21 -63 -39 -119 -40 -125 -1 -5 -25 -77 -52 -160 -27 -82 -82 -251
-122 -375 -39 -124 -78 -243 -85 -265 -18 -51 -267 -817 -270 -830 -1 -5 -5
-17 -8 -25 -3 -8 -47 -143 -97 -300 -51 -157 -103 -316 -115 -355 -13 -38 -48
-146 -78 -240 -66 -204 -146 -451 -232 -715 -35 -107 -111 -343 -170 -525 -58
-181 -113 -348 -122 -370 -8 -22 -14 -41 -13 -43 1 -1 -44 -141 -99 -310 -55
-169 -150 -462 -211 -652 -62 -190 -125 -383 -140 -430 -28 -83 -28 -85 -9
-90 16 -4 953 -5 1071 -1 23 1 29 8 41 49 9 26 49 151 90 277 70 214 209 643
347 1070 32 99 90 277 128 395 38 118 113 350 167 515 53 165 107 332 120 370
13 39 65 198 115 355 50 157 102 317 115 355 12 39 66 205 120 370 53 165 105
325 115 355 10 30 62 190 115 355 53 165 105 325 115 355 31 93 184 565 185
570 0 3 15 48 32 100 17 52 77 237 133 410 56 173 108 333 115 355 24 68 219
669 221 680 1 6 22 73 48 150 25 77 61 187 80 245 19 58 32 107 30 109 -2 2
-253 5 -557 5 l-554 1 -43 -135z"/>
</g>
</svg>
