<svg xmlns="http://www.w3.org/2000/svg" xmlns:xlink="http://www.w3.org/1999/xlink" viewBox="4.360000133514404 32.66200256347656 413.44000244140625 158.6045379638672">
	<g>
		<path d="M29.975,0l3.6-34.117c.109-1.417.109-4.251.109-5.668h.763a30.338,30.338,0,0,0,1.417,7.957L45.562,0H61.04L71.831-33.681c.436-1.417,1.09-4.251,1.417-6.1h.436a68.936,68.936,0,0,0,.436,7.194L77.39,0h25.4L90.906-72.7H63.983l-8.5,29.757a31.488,31.488,0,0,0-1.417,8.393H53.41a54.053,54.053,0,0,0-1.635-8.393L43.273-72.7H16.132L4.36,0ZM229.99-36.406c0-11.554-4.469-20.492-10.137-26.269C213.64-69,203.5-74.338,189.66-74.338S165.68-69,159.467-62.675C153.8-56.9,149.33-47.96,149.33-36.406c0,11.663,4.469,20.6,10.137,26.378,6.213,6.322,16.35,11.663,30.193,11.663s23.98-5.341,30.193-11.663C225.521-15.8,229.99-24.743,229.99-36.406ZM189.66-50.9a13.155,13.155,0,0,1,9.483,3.706c2.616,2.507,4.142,6.322,4.142,10.9a15.233,15.233,0,0,1-4.142,10.791A13.226,13.226,0,0,1,189.66-21.8a13.226,13.226,0,0,1-9.483-3.706A15.445,15.445,0,0,1,176.035-36.3a16.321,16.321,0,0,1,4.142-10.9A12.615,12.615,0,0,1,189.66-50.9ZM279.476,0h36.951c5.123,0,12.535-.654,18.639-5.559a17.758,17.758,0,0,0,6.867-14.715,16.477,16.477,0,0,0-5.341-12.644,16.846,16.846,0,0,0-7.63-4.36l.109-.654a15.4,15.4,0,0,0,6.322-4.469,15.462,15.462,0,0,0,3.052-10.028c0-8.175-3.815-12.535-5.559-14.17-5.777-5.45-15.478-6.1-21.691-6.1H279.476Zm24.416-55.263h4.142c.981,0,3.379.109,4.8,1.2a4.817,4.817,0,0,1,1.635,3.815,5.206,5.206,0,0,1-1.417,3.815c-1.2,1.2-3.488,1.635-5.014,1.635h-4.142Zm0,25.724h5.668c1.417,0,4.033.109,5.777,1.526a5.512,5.512,0,0,1,1.962,4.36,5.737,5.737,0,0,1-2.507,4.9,10.73,10.73,0,0,1-5.559,1.2h-5.341ZM417.8,0V-72.7H391.419V0Z" transform="translate(0 107)" fill="#ff8094"/>
		<path d="M39.516-9.62H22.5l5.18-4.958a63.589,63.589,0,0,0,7.918-8.51,17.567,17.567,0,0,0,3.7-10.878,16.508,16.508,0,0,0-4.588-11.84c-1.776-1.7-5.624-4.662-12.8-4.662-7.03,0-11.248,2.59-13.616,5.106C5.254-42.18,3.552-37.3,3.182-33h11.4a10.024,10.024,0,0,1,2.072-6.068,5.811,5.811,0,0,1,4.514-1.776,6.717,6.717,0,0,1,4.514,1.406A6.94,6.94,0,0,1,27.6-34.558c0,3.4-1.85,6.586-2.96,8.362a114.119,114.119,0,0,1-8.066,10.064L1.776,0h37.74Zm73.26-15.022c0-8.51-2.294-16.058-7.1-20.72a18.357,18.357,0,0,0-13.246-5.106,18.073,18.073,0,0,0-13.1,5.106c-4.81,4.662-7.1,12.21-7.1,20.72,0,8.436,2.294,15.91,7.1,20.646a18.073,18.073,0,0,0,13.1,5.106A18.357,18.357,0,0,0,105.672-4C110.482-8.732,112.776-16.206,112.776-24.642ZM92.5-40.7a6.136,6.136,0,0,1,4.588,1.85c3.626,3.552,4.144,10.656,4.144,14.134,0,3.848-.666,10.8-4.144,14.208A6.136,6.136,0,0,1,92.5-8.658a6.136,6.136,0,0,1-4.588-1.85c-3.478-3.4-4.144-10.36-4.144-14.208,0-3.478.518-10.582,4.144-14.134A6.136,6.136,0,0,1,92.5-40.7ZM179.3-9.62h-17.02l5.18-4.958a63.589,63.589,0,0,0,7.918-8.51,17.567,17.567,0,0,0,3.7-10.878,16.508,16.508,0,0,0-4.588-11.84c-1.776-1.7-5.624-4.662-12.8-4.662-7.03,0-11.248,2.59-13.616,5.106C145.04-42.18,143.338-37.3,142.968-33h11.4a10.024,10.024,0,0,1,2.072-6.068,5.811,5.811,0,0,1,4.514-1.776,6.717,6.717,0,0,1,4.514,1.406,6.94,6.94,0,0,1,1.924,4.884c0,3.4-1.85,6.586-2.96,8.362a114.12,114.12,0,0,1-8.066,10.064L141.562,0H179.3ZM220.224,0h11.4V-49.358H213.194v9.62h7.03Z" transform="translate(185 190.149)" fill="#ff8094"/>
	</g>
</svg>