<svg
	xmlns="http://www.w3.org/2000/svg"
	id="_001-facebook-app-logo"
	width="19.671"
	height="19.671"
	data-name="001-facebook-app-logo"
	viewBox="0 0 19.671 19.671">
	<defs>
		<style>
			.cls-1 {
				fill: #ffffff;
			}
		</style>
	</defs>
	<path
		id="Caminho_4"
		d="M18.585 0H1.086A1.086 1.086 0 0 0 0 1.087v17.5a1.086 1.086 0 0 0 1.086 1.086h9.421v-7.619H7.943V9.085h2.563V6.9a3.577 3.577 0 0 1 3.818-3.924 21.261 21.261 0 0 1 2.29.117v2.65h-1.571c-1.232 0-1.47.586-1.47 1.445v1.9h2.94l-.384 2.969h-2.557v7.618h5.012a1.087 1.087 0 0 0 1.087-1.085V1.086A1.086 1.086 0 0 0 18.585 0z"
		class="cls-1"
		data-name="Caminho 4"
		transform="translate(0 -.001)"
	/>
</svg>
