<svg
	xmlns="http://www.w3.org/2000/svg"
	id="_004-instagram"
	width="19.671"
	height="19.671"
	data-name="004-instagram"
	viewBox="0 0 19.671 19.671">
	<defs>
		<style>
			.cls-1 {
				fill: #ffffff;
			}
		</style>
	</defs>
	<g id="Grupo_50" data-name="Grupo 50">
		<g id="Grupo_49" data-name="Grupo 49">
			<path id="Caminho_6" d="M13.957 0H5.714A5.721 5.721 0 0 0 0 5.714v8.243a5.721 5.721 0 0 0 5.714 5.714h8.243a5.721 5.721 0 0 0 5.714-5.714V5.714A5.721 5.721 0 0 0 13.957 0zm4.177 13.957a4.182 4.182 0 0 1-4.177 4.177H5.714a4.182 4.182 0 0 1-4.177-4.177V5.714a4.182 4.182 0 0 1 4.177-4.177h8.243a4.182 4.182 0 0 1 4.177 4.177z" class="cls-1" data-name="Caminho 6"/>
		</g>
	</g>
	<g id="Grupo_52" data-name="Grupo 52" transform="translate(4.534 4.534)">
		<g id="Grupo_51" data-name="Grupo 51">
			<path id="Caminho_7" d="M123.3 118a5.3 5.3 0 1 0 5.3 5.3 5.308 5.308 0 0 0-5.3-5.3zm0 9.067a3.765 3.765 0 1 1 3.765-3.765 3.769 3.769 0 0 1-3.765 3.765z" class="cls-1" data-name="Caminho 7" transform="translate(-118 -118)"/>
		</g>
	</g>
	<g id="Grupo_54" data-name="Grupo 54" transform="translate(14.544 3.765)">
		<g id="Grupo_53" data-name="Grupo 53">
			<circle id="Elipse_2" cx=".5" cy=".5" r=".5" class="cls-1" data-name="Elipse 2" transform="translate(.129 .235)"/>
		</g>
	</g>
</svg>
