<svg xmlns="http://www.w3.org/2000/svg" width="19.651" height="19.652" viewBox="0 0 19.651 19.652">
	<defs>
		<style>
			.cls-1{fill:#fff}
			.cls-2{fill:none;stroke:#e50353;stroke-width:.8px;fill-rule:evenodd}
		</style>
	</defs>
	<g id="Page-1" transform="rotate(-2 -6.233 8.405)">
		<g id="_08-ÍCONES" data-name="08-ÍCONES" transform="translate(.5 1.119)">
			<g id="roda">
				<circle id="Elipse_1" cx="9.5" cy="9.5" r="9.5" class="cls-1" data-name="Elipse 1" transform="translate(-.233 -.233)"/>
				<path id="Stroke-3" d="M13.842 12.5a.965.965 0 1 0-.965.965.967.967 0 0 0 .965-.965z" class="cls-2" transform="translate(-3.644 -3.263)"/>
				<path id="Stroke-5" d="M11.9 15.611l.149-2.567a.273.273 0 0 1 .4-.228l2.3 1.154a5.305 5.305 0 0 1-2.849 1.641zM6.862 13.97l2.3-1.153a.273.273 0 0 1 .395.228l.143 2.566a5.307 5.307 0 0 1-2.838-1.641zM5.5 10.422a5.282 5.282 0 0 1 .26-1.64l2.149 1.412a.273.273 0 0 1 0 .456l-2.151 1.413a5.282 5.282 0 0 1-.258-1.641zm4.2-5.189L9.553 7.8a.273.273 0 0 1-.395.228l-2.3-1.153A5.306 5.306 0 0 1 9.7 5.233zm5.042 1.642l-2.3 1.153a.273.273 0 0 1-.4-.228L11.9 5.233a5.305 5.305 0 0 1 2.843 1.642zm1.364 3.547a5.288 5.288 0 0 1-.26 1.641L13.7 10.65a.273.273 0 0 1 0-.456l2.149-1.413a5.282 5.282 0 0 1 .258 1.641zM10.8 4.215a6.207 6.207 0 1 0 6.207 6.207A6.213 6.213 0 0 0 10.8 4.215z" class="cls-2" transform="translate(-1.329 -.948)"/>
			</g>
		</g>
	</g>
</svg>
