<svg
	xmlns="http://www.w3.org/2000/svg"
	id="_002-youtube-logo"
	width="16.393"
	height="19.671"
	data-name="002-youtube-logo"
	viewBox="0 0 16.393 19.671">
	<defs>
		<style>
			.cls-1 {
				fill: #ffffff;
			}
		</style>
	</defs>
	<path
		id="YouTube"
		d="M21.366 14.389h-1.08l.005-.627a.509.509 0 0 1 .508-.507h.069a.51.51 0 0 1 .51.507zm-4.049-1.344a.461.461 0 0 0-.5.409V16.5a.508.508 0 0 0 1 0v-3.05a.462.462 0 0 0-.5-.405zm6.576-1.706v5.8a2.617 2.617 0 0 1-2.682 2.53H10.182A2.617 2.617 0 0 1 7.5 17.141v-5.8a2.617 2.617 0 0 1 2.682-2.531h11.029a2.617 2.617 0 0 1 2.682 2.529zm-12.975 6.432v-6.112h1.367v-.906l-3.645-.004v.89h1.138v6.128zm4.1-5.2h-1.14v3.263a5.784 5.784 0 0 1 0 .791c-.093.253-.509.522-.672.027a6.5 6.5 0 0 1 0-.8v-3.286h-1.145V15.8c0 .5-.011.865 0 1.034.028.3.018.642.293.84a1.377 1.377 0 0 0 1.742-.583v.674h.915v-5.2zm3.646 3.737v-2.716c0-1.035-.775-1.655-1.826-.817v-2.019h-1.139l-.005 6.97.936-.014.085-.434c1.197 1.097 1.949.345 1.947-.971zm3.567-.36h-.855v.593a.467.467 0 0 1-.467.463h-.167a.467.467 0 0 1-.468-.463V15.29h1.957v-.737a11.621 11.621 0 0 0-.058-1.384c-.14-.974-1.507-1.128-2.2-.63a1.287 1.287 0 0 0-.478.644 3.624 3.624 0 0 0-.145 1.148v1.62c-.001 2.692 3.27 2.311 2.88-.004zm-4.385-8.794a.776.776 0 0 0 .274.346.794.794 0 0 0 .466.129.725.725 0 0 0 .437-.136 1.047 1.047 0 0 0 .32-.409l-.022.447h1.271v-5.4h-1v4.203a.416.416 0 0 1-.833 0V2.129h-1.045v3.644c0 .464.009.774.022.931a1.567 1.567 0 0 0 .11.45zM14 4.1a4.5 4.5 0 0 1 .129-1.216 1.3 1.3 0 0 1 1.328-.967 1.576 1.576 0 0 1 .756.171 1.26 1.26 0 0 1 .487.443 1.749 1.749 0 0 1 .235.563 4.487 4.487 0 0 1 .065.887v1.366a7.4 7.4 0 0 1-.059 1.1 1.75 1.75 0 0 1-.25.657 1.188 1.188 0 0 1-.489.449 1.56 1.56 0 0 1-.689.145 1.915 1.915 0 0 1-.735-.123A1.008 1.008 0 0 1 14.3 7.2a1.663 1.663 0 0 1-.239-.606 5.839 5.839 0 0 1-.071-1.065V4.1zm1 2.146a.507.507 0 1 0 1.01 0V3.373a.507.507 0 1 0-1.01 0zM11.474 7.7h1.2V3.557L14.09.007h-1.311l-.753 2.637L11.263 0h-1.3l1.507 3.559z"
		class="cls-1"
		transform="translate(-7.5)"
	/>
</svg>
