<svg xmlns="http://www.w3.org/2000/svg" width="49.259" height="35.874" viewBox="0 0 49.259 35.874">
  <rect id="Retângulo_2600" data-name="Retângulo 2600" width="5.431" height="35.874" transform="translate(12.762)" fill="#272727" />
  <path id="Caminho_2457" data-name="Caminho 2457" d="M70,917.347h5.431V901.108h3.974v-4.158H75.431V885.61h5.1v-4.136H70Z" transform="translate(-70 -881.474)" fill="#272727" />
  <path id="Caminho_2458" data-name="Caminho 2458" d="M197.441,881.474v4.136h3.886l.022,31.738h5.365l-.022-31.738h3.93v-4.136Z" transform="translate(-161.363 -881.474)" fill="#272727" />
  <path id="Caminho_2459" data-name="Caminho 2459" d="M149.442,896.973V885.566h2.649a30.465,30.465,0,0,1,2.009,7.074c.419,2.351.64,4.332.64,4.332Zm5.961-15.5H144.562v35.874h4.945V901.13h5.453c.486,2.96.53,15.259.53,16.217H160.5c.154-9.121.067-26.078-5.1-35.874" transform="translate(-123.454 -881.474)" fill="#272727" />
</svg>