<svg xmlns="http://www.w3.org/2000/svg" width="252.133" height="25.705" viewBox="0 0 252.133 25.705">
  <path id="info003" d="M2.317-27.438l-.882,7.411,4.059-.247L3.482-3.9h8.647L14.14-20.274l4.059.247.918-7.411Zm33.14,0L33.833-14.1c-.353,2.576-1.129,3.6-2.753,3.6a1.953,1.953,0,0,1-2.118-2.188c0-.282.071-.882.176-1.729l1.588-13.023H22.081L20.387-13.886a16.615,16.615,0,0,0-.106,1.87c0,2.823.776,4.659,2.647,6.176A13.024,13.024,0,0,0,31.257-3.3a11.254,11.254,0,0,0,7.976-2.753c2.082-1.906,2.647-3.353,3.282-8.364L44.1-27.438ZM66.338-14.486A6.69,6.69,0,0,0,68.7-19.674a7.724,7.724,0,0,0-2.753-5.859c-1.765-1.412-3.565-1.906-7.411-1.906H49.186L46.292-3.9h8.541l.459-3.953a27.85,27.85,0,0,0,.176-3.106c0-.635,0-.953-.035-1.729l.247-.035A25.548,25.548,0,0,0,56.6-9.58L58.715-3.9h9.247L62.844-13.11A5.866,5.866,0,0,0,66.338-14.486Zm-8.717-6.635c1.87,0,2.718.6,2.718,1.906,0,1.412-1.235,2.329-3.212,2.329h-.706l.529-4.235ZM88.713-16.18c2.506-.565,3.917-2.47,3.917-5.259a6.475,6.475,0,0,0-.6-2.541c-1.165-2.365-3.423-3.459-7.2-3.459H74.279L71.385-3.9h13.2c4.623,0,8.011-2.859,8.011-7.023,0-2.682-1.376-4.517-3.847-5.047Zm-5.753-5.612c1.129,0,1.765.494,1.765,1.553,0,1.306-.812,1.835-2.647,1.835h-.741l.424-3.388Zm-.776,8.329c1.553,0,2.223.494,2.223,1.623,0,1.8-1.094,2.435-3.6,2.435h-.565l.494-4.059Zm36.034-11.294A14.245,14.245,0,0,0,109.077-28a12.688,12.688,0,0,0-12.988,12.67c0,6.811,5.717,12.035,13.164,12.035,7.341,0,12.882-5.435,12.882-12.564A11.053,11.053,0,0,0,118.218-24.756ZM108.865-10.71a4.25,4.25,0,0,1-4.165-4.553,4.811,4.811,0,0,1,4.659-4.941,4.272,4.272,0,0,1,4.165,4.482A4.721,4.721,0,0,1,108.865-10.71Zm42.422.106a21.216,21.216,0,0,0-2.541.141,12.789,12.789,0,0,0-2.153.565l-.106-.388a22.787,22.787,0,0,0,3.353-1.447,16.354,16.354,0,0,0,2.929-2.118,7.713,7.713,0,0,0,2.541-5.823,7.762,7.762,0,0,0-2.435-5.823A10.613,10.613,0,0,0,145.358-28c-3.988,0-6.388,1.129-8.223,2.929a11.6,11.6,0,0,0-3.212,7.058h8.611a4.5,4.5,0,0,1,.529-2.012,2.013,2.013,0,0,1,1.8-1.059,2,2,0,0,1,1.306.459,2.181,2.181,0,0,1,.6,1.588c0,1.729-1.623,3.212-3.141,4.588L131.947-3.9h21.67l.812-6.706ZM170.309-28c-6.706,0-11.647,5.576-11.647,13.164,0,6.776,4.482,11.541,10.87,11.541,6.776,0,11.929-5.717,11.929-13.2C181.462-23.1,176.7-28,170.309-28ZM169.5-10.357c-1.482,0-2.365-1.553-2.365-4.059,0-3.388,1.623-6.423,3.423-6.423,1.447,0,2.435,1.482,2.435,3.706C172.992-13.357,171.439-10.357,169.5-10.357ZM196.5-28c-6.706,0-11.647,5.576-11.647,13.164,0,6.776,4.482,11.541,10.87,11.541,6.776,0,11.929-5.717,11.929-13.2C207.649-23.1,202.884-28,196.5-28Zm-.812,17.646c-1.482,0-2.365-1.553-2.365-4.059,0-3.388,1.623-6.423,3.423-6.423,1.447,0,2.435,1.482,2.435,3.706C199.179-13.357,197.626-10.357,195.685-10.357Zm28.058,3.317.176,3.141h8.717l-4.376-23.54h-9.741L207.649-3.9h9.176l1.129-3.141Zm-2.223-9.635a22.35,22.35,0,0,0,1.059-3.529h.282a15.715,15.715,0,0,0-.106,1.871c0,.671.035,1.271.071,1.659l.353,4.27h-3.247Zm14.117-10.764-.882,7.411,4.059-.247L236.8-3.9h8.647l2.012-16.376,4.059.247.918-7.411Z" transform="translate(-0.868 28.503)" fill="none" stroke="#ffb80f" stroke-width="1"/>
</svg>
