<svg xmlns="http://www.w3.org/2000/svg" width="319.034" height="83.438" viewBox="0 0 319.034 83.438">
  <g id="logo" transform="translate(0.254 -10)">
    <g id="Group_1334" data-name="Group 1334" transform="translate(0 10)">
      <g id="Group_1332" data-name="Group 1332">
        <path id="Path_1018" data-name="Path 1018" d="M-221.068-19.974V-33.887h10.6V-44.4h-10.6v-4.06h12.093V-59.8h-26.51v39.828Zm32.123,0V-59.8h-14.417v39.828Zm31.11-4.956,1.311,4.956h15.31L-155.392-59.8h-15.966l-13.761,39.828h15.251l1.072-4.956Zm-4.349-17.078,1.847,7.643h-5.779l1.966-7.643a20.774,20.774,0,0,0,.655-4.478h.536A44.234,44.234,0,0,0-162.183-42.008Zm41.714,22.034V-47.2l8.1.358V-59.8h-30.382v12.958l8.1-.358v27.229Zm49.353-4.956,1.311,4.956h15.31L-68.673-59.8H-84.639L-98.4-19.974h15.251l1.072-4.956Zm-4.349-17.078,1.847,7.643H-79.4l1.966-7.643a20.776,20.776,0,0,0,.655-4.478h.536A44.208,44.208,0,0,0-75.464-42.008Zm38.855,22.034V-32.753l.238-.119a6.526,6.526,0,0,0,.536,1.254l5.719,11.644H-13.5l-8.936-13.435a5.589,5.589,0,0,0-2.085-1.851v-.358a9.483,9.483,0,0,0,5.481-3.165,10.759,10.759,0,0,0,2.2-7.106,13.193,13.193,0,0,0-3.753-9.793c-3.634-3.642-7.983-4.12-12.153-4.12H-50.669v39.828Zm0-28.9h2.5A3.148,3.148,0,0,1-31.665-47.8a3.6,3.6,0,0,1,.774,2.388A3.143,3.143,0,0,1-31.9-42.963a4.714,4.714,0,0,1-3.038.9h-1.668ZM10.943-33.708H17.5c-.953,2.627-3.753,3.4-5.9,3.4A6.613,6.613,0,0,1,6.892-32.1,10.054,10.054,0,0,1,4.271-39.2,10.105,10.105,0,0,1,7.19-46.725a7.4,7.4,0,0,1,5.064-1.851,6.2,6.2,0,0,1,5.481,3.045L31.2-50.547a18.49,18.49,0,0,0-7.625-7.345A23.774,23.774,0,0,0,11.9-60.7c-7.983,0-13.463,2.926-16.68,6.27-2.681,2.747-5.481,7.345-5.481,14.63,0,5.255,1.37,10.091,5.123,14.152,2.979,3.224,8.042,6.568,16.383,6.568,6.553,0,12.927-2.269,16.859-6.509,4.766-5.135,5.183-11.763,5.183-16.66v-.9H10.943Zm70.607-6.21a20.287,20.287,0,0,0-5.54-14.391c-3.4-3.463-8.936-6.389-16.5-6.389s-13.106,2.926-16.5,6.389a20.287,20.287,0,0,0-5.54,14.391,20.332,20.332,0,0,0,5.54,14.45c3.4,3.463,8.936,6.389,16.5,6.389S72.614-22,76.01-25.468A20.332,20.332,0,0,0,81.55-39.918ZM59.508-47.86a7.181,7.181,0,0,1,5.183,2.03,8.112,8.112,0,0,1,2.264,5.971,8.356,8.356,0,0,1-2.264,5.912,7.22,7.22,0,0,1-5.183,2.03,7.22,7.22,0,0,1-5.183-2.03,8.472,8.472,0,0,1-2.264-5.912,8.953,8.953,0,0,1,2.264-5.971A6.887,6.887,0,0,1,59.508-47.86Z" transform="translate(236.23 101.516)" fill="none" stroke="#fe0141" stroke-width="2"/>
        <path id="Union_13" data-name="Union 13" d="M160.535,31.11a5.78,5.78,0,0,1,0-7.752,6.612,6.612,0,0,1,8.892,0,5.778,5.778,0,0,1,0,7.752,6.614,6.614,0,0,1-8.892,0Zm3.05-5.473a2.4,2.4,0,0,0-.61,1.605,2.272,2.272,0,0,0,.61,1.589,2.058,2.058,0,0,0,2.793,0,2.243,2.243,0,0,0,.61-1.589,2.176,2.176,0,0,0-.61-1.605,1.935,1.935,0,0,0-1.4-.546A1.858,1.858,0,0,0,163.585,25.637Zm11.039,7.117V22.069H318.034V32.754ZM0,32.754V22.069H140.88V32.754Zm147.486-.167V21.881h4.125a6.766,6.766,0,0,1,4.735,1.621,5.245,5.245,0,0,1,1.444,3.868,5.017,5.017,0,0,1-1.381,3.708,5.258,5.258,0,0,1-3.836,1.509Zm3.852-3.275h.288a2.351,2.351,0,0,0,1.653-.5,2.016,2.016,0,0,0,.626-1.541,2.231,2.231,0,0,0-.626-1.605,2.192,2.192,0,0,0-1.525-.514h-.417Zm157.03-15.059-.353-.145,1.172-3.017.418.321a3.771,3.771,0,0,0,2.167.786,1.328,1.328,0,0,0,.835-.192.573.573,0,0,0,.209-.481.523.523,0,0,0-.128-.37,1.457,1.457,0,0,0-.738-.256L311,10.722a3.234,3.234,0,0,1-1.862-.915,2.674,2.674,0,0,1-.771-1.975,3.463,3.463,0,0,1,1.043-2.552A4.983,4.983,0,0,1,313.136,3.9a6.049,6.049,0,0,1,3.258.931L315.351,7.56a4.156,4.156,0,0,0-2.183-.8,1.276,1.276,0,0,0-.738.193.437.437,0,0,0-.193.385c0,.225.032.433.626.562l1.236.273a3.617,3.617,0,0,1,1.83.915,2.858,2.858,0,0,1,.819,2.119,3.448,3.448,0,0,1-.963,2.519,5.044,5.044,0,0,1-3.772,1.365A8.907,8.907,0,0,1,308.368,14.253Zm-41.522-.883a5.457,5.457,0,0,1-1.492-3.884,5.448,5.448,0,0,1,1.492-3.868,6.615,6.615,0,0,1,8.892,0,5.448,5.448,0,0,1,1.492,3.868,5.457,5.457,0,0,1-1.492,3.884,6.613,6.613,0,0,1-8.892,0ZM269.9,7.9a2.4,2.4,0,0,0-.61,1.605,2.276,2.276,0,0,0,.61,1.589,2.059,2.059,0,0,0,2.793,0A2.243,2.243,0,0,0,273.3,9.5a2.176,2.176,0,0,0-.61-1.605,1.938,1.938,0,0,0-1.4-.546A1.857,1.857,0,0,0,269.9,7.9Zm-22.759,6.356-.354-.145,1.172-3.017.418.321a3.771,3.771,0,0,0,2.167.786,1.328,1.328,0,0,0,.835-.192.573.573,0,0,0,.209-.481.522.522,0,0,0-.128-.37,1.457,1.457,0,0,0-.738-.256l-.947-.177a3.234,3.234,0,0,1-1.862-.915,2.674,2.674,0,0,1-.77-1.975,3.462,3.462,0,0,1,1.043-2.552A4.983,4.983,0,0,1,251.9,3.9a6.048,6.048,0,0,1,3.258.931L254.118,7.56a4.156,4.156,0,0,0-2.183-.8,1.276,1.276,0,0,0-.738.193.438.438,0,0,0-.193.385c0,.225.032.433.626.562l1.236.273a3.616,3.616,0,0,1,1.83.915,2.857,2.857,0,0,1,.819,2.119,3.446,3.446,0,0,1-.963,2.519,5.044,5.044,0,0,1-3.772,1.365A8.9,8.9,0,0,1,247.137,14.253Zm-32.021,0-.353-.145,1.172-3.017.417.321a3.773,3.773,0,0,0,2.167.786,1.328,1.328,0,0,0,.835-.192.573.573,0,0,0,.209-.481.519.519,0,0,0-.128-.37,1.457,1.457,0,0,0-.738-.256l-.947-.177a3.23,3.23,0,0,1-1.861-.915,2.671,2.671,0,0,1-.771-1.975,3.463,3.463,0,0,1,1.043-2.552A4.981,4.981,0,0,1,219.883,3.9a6.048,6.048,0,0,1,3.258.931L222.1,7.56a4.153,4.153,0,0,0-2.183-.8,1.276,1.276,0,0,0-.738.193.438.438,0,0,0-.192.385c0,.225.032.433.626.562l1.236.273a3.622,3.622,0,0,1,1.83.915,2.859,2.859,0,0,1,.818,2.119,3.446,3.446,0,0,1-.963,2.519,5.042,5.042,0,0,1-3.771,1.365A8.9,8.9,0,0,1,215.116,14.253Zm-21.909,0-.354-.145,1.172-3.017.418.321a3.771,3.771,0,0,0,2.167.786,1.328,1.328,0,0,0,.834-.192.573.573,0,0,0,.209-.481.522.522,0,0,0-.128-.37,1.457,1.457,0,0,0-.738-.256l-.947-.177a3.234,3.234,0,0,1-1.862-.915,2.674,2.674,0,0,1-.77-1.975,3.462,3.462,0,0,1,1.043-2.552A4.983,4.983,0,0,1,197.974,3.9a6.048,6.048,0,0,1,3.258.931L200.189,7.56a4.156,4.156,0,0,0-2.183-.8,1.276,1.276,0,0,0-.738.193.438.438,0,0,0-.193.385c0,.225.032.433.626.562l1.236.273a3.617,3.617,0,0,1,1.83.915,2.857,2.857,0,0,1,.819,2.119,3.448,3.448,0,0,1-.963,2.519,5.044,5.044,0,0,1-3.772,1.365A8.9,8.9,0,0,1,193.207,14.253ZM181.2,13.37a5.454,5.454,0,0,1-1.493-3.884A5.445,5.445,0,0,1,181.2,5.618a6.614,6.614,0,0,1,8.892,0,5.448,5.448,0,0,1,1.493,3.868,5.457,5.457,0,0,1-1.493,3.884,6.612,6.612,0,0,1-8.892,0Zm3.05-5.473a2.4,2.4,0,0,0-.61,1.605,2.273,2.273,0,0,0,.61,1.589,2.058,2.058,0,0,0,2.793,0,2.243,2.243,0,0,0,.61-1.589,2.176,2.176,0,0,0-.61-1.605,1.937,1.937,0,0,0-1.4-.546A1.856,1.856,0,0,0,184.251,7.9ZM160.5,13.675a3.78,3.78,0,0,1-.979-2.7V4.141h3.852v6.212a1.542,1.542,0,0,0,.337,1.091.97.97,0,0,0,.77.289,1.06,1.06,0,0,0,.786-.257,1.673,1.673,0,0,0,.289-1.124V4.141h3.868v6.565a4.263,4.263,0,0,1-1.124,3.05,5.185,5.185,0,0,1-3.82,1.332A5.277,5.277,0,0,1,160.5,13.675Zm-45.952.578-.353-.145,1.172-3.017.418.321a3.77,3.77,0,0,0,2.166.786,1.331,1.331,0,0,0,.835-.192.575.575,0,0,0,.208-.481.519.519,0,0,0-.128-.37,1.454,1.454,0,0,0-.738-.256l-.946-.177a3.232,3.232,0,0,1-1.862-.915,2.672,2.672,0,0,1-.771-1.975,3.463,3.463,0,0,1,1.043-2.552A4.983,4.983,0,0,1,119.311,3.9a6.049,6.049,0,0,1,3.258.931L121.526,7.56a4.158,4.158,0,0,0-2.183-.8,1.277,1.277,0,0,0-.738.193.438.438,0,0,0-.192.385c0,.225.032.433.626.562l1.236.273a3.62,3.62,0,0,1,1.83.915,2.86,2.86,0,0,1,.819,2.119,3.446,3.446,0,0,1-.964,2.519,5.042,5.042,0,0,1-3.771,1.365A8.9,8.9,0,0,1,114.544,14.253ZM86.809,13.37a5.457,5.457,0,0,1-1.492-3.884,5.448,5.448,0,0,1,1.492-3.868,6.614,6.614,0,0,1,8.892,0,5.448,5.448,0,0,1,1.493,3.868A5.457,5.457,0,0,1,95.7,13.37a6.612,6.612,0,0,1-8.892,0ZM89.859,7.9a2.4,2.4,0,0,0-.61,1.605,2.273,2.273,0,0,0,.61,1.589,2.058,2.058,0,0,0,2.793,0,2.243,2.243,0,0,0,.61-1.589,2.176,2.176,0,0,0-.61-1.605,1.935,1.935,0,0,0-1.4-.546A1.856,1.856,0,0,0,89.859,7.9Zm213.358,6.949-.353-1.332H299.91l-.288,1.332h-4.109L299.22,4.141h4.3l3.82,10.706Zm-2.054-5.923-.53,2.054h1.556l-.5-2.054a11.858,11.858,0,0,1-.209-1.2h-.144A5.6,5.6,0,0,1,301.162,8.924Zm-10.69,5.923V4.141h3.884V14.847Zm-5.955,0-1.54-3.13a1.736,1.736,0,0,1-.144-.337l-.065.032v3.435H278.98V4.141h4.831a4.265,4.265,0,0,1,3.274,1.108A3.539,3.539,0,0,1,288.1,7.881a2.887,2.887,0,0,1-.594,1.91,2.558,2.558,0,0,1-1.477.851v.1a1.5,1.5,0,0,1,.562.5L289,14.847Zm-1.749-5.938h.45a1.27,1.27,0,0,0,.818-.241.843.843,0,0,0,.273-.658.969.969,0,0,0-.209-.642.85.85,0,0,0-.658-.288h-.674Zm-24.284,5.938V7.528l-2.183.1V4.141h8.186V7.624l-2.183-.1v7.319Zm-17.334,0V4.141h3.884V14.847Zm-5.971,0V11.123H232.8v3.723h-3.74V4.141h3.74V7.769h2.376V4.141h3.74V14.847Zm-25.215,0-.354-1.332h-2.953l-.288,1.332H202.26l3.708-10.706h4.3l3.819,10.706Zm-2.055-5.923-.53,2.054h1.557l-.5-2.054a11.884,11.884,0,0,1-.208-1.2h-.145A5.526,5.526,0,0,1,207.909,8.924Zm-36.258,5.923V4.141h3.884V11.4h3.275v3.451Zm-23.08,0V4.141h4.67a4.792,4.792,0,0,1,3.194.9,2.758,2.758,0,0,1,.818,2.087A2.278,2.278,0,0,1,156.8,8.6a2.264,2.264,0,0,1-.931.658l-.016.1a2.487,2.487,0,0,1,1.124.642,2.427,2.427,0,0,1,.786,1.862,2.613,2.613,0,0,1-1.011,2.166,4.29,4.29,0,0,1-2.745.819Zm3.6-2.584h.786a1.576,1.576,0,0,0,.818-.177.845.845,0,0,0,.369-.723.811.811,0,0,0-.289-.642A1.388,1.388,0,0,0,153,10.5h-.835Zm0-4.012h.61a1.133,1.133,0,0,0,.738-.241.764.764,0,0,0,.209-.562.71.71,0,0,0-.24-.562,1.278,1.278,0,0,0-.706-.177h-.61Zm-8.876,6.6-.354-1.332h-2.953l-.289,1.332h-4.109l3.708-10.706h4.3l3.819,10.706Zm-2.055-5.923-.53,2.054h1.557l-.5-2.054a11.687,11.687,0,0,1-.209-1.2h-.145A5.523,5.523,0,0,1,141.236,8.924Zm-12.743,5.923V4.141h7.142V7.19h-3.258V8.282h2.857v2.825h-2.857v3.74Zm-19.1,0-.353-1.332h-2.953l-.289,1.332h-4.109L105.4,4.141h4.3l3.82,10.706Zm-2.054-5.923-.53,2.054h1.557l-.5-2.054a11.874,11.874,0,0,1-.209-1.2h-.144A5.607,5.607,0,0,1,107.338,8.924ZM73.76,14.847V4.141h4.125A6.764,6.764,0,0,1,82.62,5.763,5.243,5.243,0,0,1,84.065,9.63a5.018,5.018,0,0,1-1.381,3.708,5.259,5.259,0,0,1-3.836,1.508Zm3.852-3.274H77.9a2.351,2.351,0,0,0,1.653-.5,2.018,2.018,0,0,0,.626-1.541,2.235,2.235,0,0,0-.626-1.605,2.191,2.191,0,0,0-1.525-.513h-.417Zm-9.807,3.274-2.664-4.221a14.313,14.313,0,0,1-.738-1.4h-.112a13.261,13.261,0,0,1,.24,1.975v3.643H60.824V4.141h3.708l2.488,4.045a11.605,11.605,0,0,1,1.012,1.894h.112a12.555,12.555,0,0,1-.337-2.536v-3.4h3.724V14.847Zm-13.1,0V4.141h3.885V14.847Zm-8.635,0L41.917,4.141h4.061l1.492,5.04a7.834,7.834,0,0,1,.241,1.429h.1a6.424,6.424,0,0,1,.225-1.429l1.461-5.04h4.061L49.412,14.847Zm-15.36,0-.481-4.8a10.1,10.1,0,0,1-.064-1.059H30.1c-.048.273-.144.69-.209.9l-1.589,4.96h-2.28L24.6,10.16a4.448,4.448,0,0,1-.209-1.172h-.113c0,.209,0,.626-.016.835l-.53,5.023H19.959L21.693,4.141h4l1.251,4.382a7.921,7.921,0,0,1,.241,1.236h.1a4.652,4.652,0,0,1,.209-1.236l1.252-4.382H32.7l1.749,10.706Zm-19.389,0V4.141h7.223V7.078H15.208v1h3.034v2.808H15.208V11.91h3.435v2.937Zm-10.947,0V4.141h4.67a4.792,4.792,0,0,1,3.194.9,2.757,2.757,0,0,1,.819,2.087A2.275,2.275,0,0,1,8.611,8.6a2.259,2.259,0,0,1-.931.658l-.016.1A2.481,2.481,0,0,1,8.788,10a2.425,2.425,0,0,1,.786,1.862,2.613,2.613,0,0,1-1.011,2.166,4.288,4.288,0,0,1-2.745.819Zm3.6-2.584H4.76a1.579,1.579,0,0,0,.819-.177.846.846,0,0,0,.369-.723.809.809,0,0,0-.289-.642,1.386,1.386,0,0,0-.85-.225H3.973Zm0-4.012h.61a1.135,1.135,0,0,0,.738-.241.767.767,0,0,0,.209-.562.71.71,0,0,0-.241-.562,1.278,1.278,0,0,0-.706-.177h-.61Zm32,3.788V9.149h5.056v2.889ZM270.121,2.343,271.982,0l1.878,1.172-2.344,2.054ZM105.668,1.172,107.546,0l1.846,2.343-1.381.883Z" fill="#fe0141"/>
      </g>
    </g>
  </g>
</svg>
