<svg xmlns="http://www.w3.org/2000/svg" id="Component_394_3" width="376" height="795.903" viewBox="0 0 376 595.903">
    <defs>
        <clipPath id="clip-path">
            <path id="Rectangle_372" fill="#0d9451" d="M0 0H376V648H0z"/>
        </clipPath>
        <clipPath id="clip-path-2">
            <path id="Rectangle_368" d="M0 0H188.393V57.918H0z" class="cls-2"/>
        </clipPath>
        <clipPath id="clip-path-3">
            <path id="Rectangle_370" d="M0 0H281.089V57.918H0z" class="cls-2"/>
        </clipPath>
        <style>
            .cls-2{fill:#4a2d87;stroke:#707070}
        </style>
    </defs>
    <g id="Component_363_41">
        <g id="Group_2553" transform="translate(-353 -35) translate(353 35)">
            <path id="Rectangle_367" fill="#85d6dd" d="M0 0H376V695H0z"/>
            <g id="Group_6" clip-path="url(#clip-path)">
                <path id="Path_1026" fill="#ffb700" d="M506.405 405.6v-36.98H0V110.411s1.018-58.742 2-58.9c.833-.131 29.159-.041 37.963-.01V41.222h11.1V29.089h17.221v-6.934h7.772v6.933h6.109v6.067h6.661v-13h6.665v-10.4h13.881v11.267h3.887v19.934h1.667V31.689h9.994v-3.467h26.653v4.768h15.547v9.1h11.1v-3.468h7.22v-9.533h13.882v6.067h8.327V23.022h12.218v12.134h4.441v14.733h9.438v-7.8h14.444v-5.2h7.218v-7.366h27.764v14.733h16.1v-7.367h8.884V17.823h27.766v7.8h5.48V10.592h20.265v12.562h16.915l14.714-.132v-5.905h26.325V6.811h13.935V0h18.205v6.811h24.159V2.226h19.132v9.92h6.732v6.649h28.176V2.226h29.048v6.768h14.777v10.718h19.979V14.6h22.606v9.46h13.53v8.2h5.825v9.76H649.8V19.712h18.21v6.87h20.1v7.064h11.728v-7.064H710v-3.463h7.936V13.106h35.646v20.54h15.684v10.147h6.725v-5.149h5.538V26.582h5.985v12.062h9.428v6.4h13.676v11.2h2.876v-4.366h8.052V64.8h20.782v7.8h5.481V57.572h20.266v12.562h16.913L899.7 70v-5.9h26.325V53.8h13.936v-6.82h18.2v6.811h24.159v-4.586h19.13v9.92h6.731v6.649h28.179V49.205h29.048v6.768h14.778v10.719h19.979v-5.11h22.606v9.458h13.529v8.2h5.824V89h14.08V66.692h18.21v6.87h20.1v7.064h11.729v-7.064h10.163V70.1h7.937V60.086h35.644v20.54h15.686v10.147h6.724v-5.149h5.539V73.562h5.985v12.062h9.427v6.4h13.674v11.2h2.879v-4.366h8.05V128.3l7.1 277.292z" transform="rotate(180 220.343 184.718)"/>
            </g>
        </g>
        <g id="Group_2555" transform="rotate(90 511.706 -111.81)">
            <g id="Group_2545" transform="translate(1261.5 23.896)">
                <g id="Mask_Group_3" clip-path="url(#clip-path-2)" transform="rotate(-90 188 188)">
                    <path id="Union_14" fill="none" stroke="#4a2d87" stroke-width="8px" d="M543.335 0L427.394 151.315zm-28.76 0L398.633 151.315zm-29.429 0L369.2 151.315zm-28.761 0L340.444 151.315zM430.3 0L314.358 151.315zm-28.76 0L285.6 151.315zm-29.43 0L256.169 151.315zm-28.76 0L227.409 151.315zm-27.423 0L199.985 151.315zm-28.76 0L171.225 151.315zm-29.43 0L141.8 151.315zm-28.76 0L113.035 151.315zm-26.085 0L86.95 151.315zm-28.761 0L58.19 151.315zM144.7 0L28.761 151.315zm-28.759 0L0 151.315z" transform="translate(-83.482 -30.191)"/>
                </g>
                <g id="Mask_Group_5" clip-path="url(#clip-path-3)" transform="matrix(0 -1 1 0 0 281.089)">
                    <path id="Union_16" fill="none" stroke="#4a2d87" stroke-width="15px" d="M542.363 0L426.629 151.315zm-28.709 0L397.92 151.315zm-29.376 0L368.543 151.315zm-28.709 0L339.835 151.315zM429.53 0L313.8 151.315zm-28.709 0L285.087 151.315zm-29.376 0L255.711 151.315zm-28.71 0L227 151.315zm-27.374 0L199.628 151.315zm-28.708 0L170.919 151.315zm-29.377 0L141.542 151.315zm-28.709 0L112.833 151.315zm-26.038 0L86.794 151.315zM173.82 0L58.086 151.315zm-29.377 0L28.709 151.315zm-28.709 0L0 151.315z" transform="translate(-8.467 -30.191)"/>
                </g>
            </g>
        </g>
    </g>
    <!--g id="logo" transform="translate(28.758 88.104)">
        <g id="Group_1334" transform="translate(0 10)">
            <g id="Group_1332">
                <path id="Path_1018" fill="none" stroke="#fe0141" stroke-width="2px" d="M-221.068-19.974v-13.913h10.6V-44.4h-10.6v-4.06h12.093V-59.8h-26.51v39.828zm32.123 0V-59.8h-14.417v39.828zm31.11-4.956l1.311 4.956h15.31L-155.392-59.8h-15.966l-13.761 39.828h15.251l1.072-4.956zm-4.349-17.078l1.847 7.643h-5.779l1.966-7.643a20.774 20.774 0 0 0 .655-4.478h.536a44.234 44.234 0 0 0 .776 4.478zm41.714 22.034V-47.2l8.1.358V-59.8h-30.382v12.958l8.1-.358v27.229zm49.353-4.956l1.311 4.956h15.31L-68.673-59.8h-15.966L-98.4-19.974h15.251l1.072-4.956zm-4.349-17.078l1.847 7.643H-79.4l1.966-7.643a20.776 20.776 0 0 0 .655-4.478h.536a44.208 44.208 0 0 0 .779 4.478zm38.855 22.034v-12.779l.238-.119a6.526 6.526 0 0 0 .536 1.254l5.719 11.644H-13.5l-8.936-13.435a5.589 5.589 0 0 0-2.085-1.851v-.358a9.483 9.483 0 0 0 5.481-3.165 10.759 10.759 0 0 0 2.2-7.106 13.193 13.193 0 0 0-3.753-9.793c-3.634-3.642-7.983-4.12-12.153-4.12h-17.923v39.828zm0-28.9h2.5a3.148 3.148 0 0 1 2.446 1.074 3.6 3.6 0 0 1 .774 2.388 3.143 3.143 0 0 1-1.009 2.449 4.714 4.714 0 0 1-3.038.9h-1.668zm47.554 15.166H17.5c-.953 2.627-3.753 3.4-5.9 3.4A6.613 6.613 0 0 1 6.892-32.1a10.054 10.054 0 0 1-2.621-7.1 10.105 10.105 0 0 1 2.919-7.525 7.4 7.4 0 0 1 5.064-1.851 6.2 6.2 0 0 1 5.481 3.045L31.2-50.547a18.49 18.49 0 0 0-7.625-7.345A23.774 23.774 0 0 0 11.9-60.7c-7.983 0-13.463 2.926-16.68 6.27-2.681 2.747-5.481 7.345-5.481 14.63 0 5.255 1.37 10.091 5.123 14.152 2.979 3.224 8.042 6.568 16.383 6.568 6.553 0 12.927-2.269 16.859-6.509 4.766-5.135 5.183-11.763 5.183-16.66v-.9H10.943zm70.607-6.21a20.287 20.287 0 0 0-5.54-14.391c-3.4-3.463-8.936-6.389-16.5-6.389s-13.106 2.926-16.5 6.389a20.287 20.287 0 0 0-5.54 14.391 20.332 20.332 0 0 0 5.54 14.45c3.4 3.463 8.936 6.389 16.5 6.389S72.614-22 76.01-25.468a20.332 20.332 0 0 0 5.54-14.45zM59.508-47.86a7.181 7.181 0 0 1 5.183 2.03 8.112 8.112 0 0 1 2.264 5.971 8.356 8.356 0 0 1-2.264 5.912 7.22 7.22 0 0 1-5.183 2.03 7.22 7.22 0 0 1-5.183-2.03 8.472 8.472 0 0 1-2.264-5.912 8.953 8.953 0 0 1 2.264-5.971 6.887 6.887 0 0 1 5.183-2.03z" transform="translate(236.23 101.516)"/>
                <path id="Union_13" fill="#fe0141" d="M160.535 31.11a5.78 5.78 0 0 1 0-7.752 6.612 6.612 0 0 1 8.892 0 5.778 5.778 0 0 1 0 7.752 6.614 6.614 0 0 1-8.892 0zm3.05-5.473a2.4 2.4 0 0 0-.61 1.605 2.272 2.272 0 0 0 .61 1.589 2.058 2.058 0 0 0 2.793 0 2.243 2.243 0 0 0 .61-1.589 2.176 2.176 0 0 0-.61-1.605 1.935 1.935 0 0 0-1.4-.546 1.858 1.858 0 0 0-1.393.546zm11.039 7.117V22.069h143.41v10.685zM0 32.754V22.069h140.88v10.685zm147.486-.167V21.881h4.125a6.766 6.766 0 0 1 4.735 1.621 5.245 5.245 0 0 1 1.444 3.868 5.017 5.017 0 0 1-1.381 3.708 5.258 5.258 0 0 1-3.836 1.509zm3.852-3.275h.288a2.351 2.351 0 0 0 1.653-.5 2.016 2.016 0 0 0 .626-1.541 2.231 2.231 0 0 0-.626-1.605 2.192 2.192 0 0 0-1.525-.514h-.417zm157.03-15.059l-.353-.145 1.172-3.017.418.321a3.771 3.771 0 0 0 2.167.786 1.328 1.328 0 0 0 .835-.192.573.573 0 0 0 .209-.481.523.523 0 0 0-.128-.37 1.457 1.457 0 0 0-.738-.256l-.95-.177a3.234 3.234 0 0 1-1.862-.915 2.674 2.674 0 0 1-.771-1.975 3.463 3.463 0 0 1 1.043-2.552 4.983 4.983 0 0 1 3.726-1.38 6.049 6.049 0 0 1 3.258.931l-1.043 2.729a4.156 4.156 0 0 0-2.183-.8 1.276 1.276 0 0 0-.738.193.437.437 0 0 0-.193.385c0 .225.032.433.626.562l1.236.273a3.617 3.617 0 0 1 1.83.915 2.858 2.858 0 0 1 .819 2.119 3.448 3.448 0 0 1-.963 2.519 5.044 5.044 0 0 1-3.772 1.365 8.907 8.907 0 0 1-3.645-.838zm-41.522-.883a5.457 5.457 0 0 1-1.492-3.884 5.448 5.448 0 0 1 1.492-3.868 6.615 6.615 0 0 1 8.892 0 5.448 5.448 0 0 1 1.492 3.868 5.457 5.457 0 0 1-1.492 3.884 6.613 6.613 0 0 1-8.892 0zM269.9 7.9a2.4 2.4 0 0 0-.61 1.605 2.276 2.276 0 0 0 .61 1.589 2.059 2.059 0 0 0 2.793 0A2.243 2.243 0 0 0 273.3 9.5a2.176 2.176 0 0 0-.61-1.605 1.938 1.938 0 0 0-1.4-.546 1.857 1.857 0 0 0-1.39.551zm-22.759 6.356l-.354-.145 1.172-3.017.418.321a3.771 3.771 0 0 0 2.167.786 1.328 1.328 0 0 0 .835-.192.573.573 0 0 0 .209-.481.522.522 0 0 0-.128-.37 1.457 1.457 0 0 0-.738-.256l-.947-.177a3.234 3.234 0 0 1-1.862-.915 2.674 2.674 0 0 1-.77-1.975 3.462 3.462 0 0 1 1.043-2.552A4.983 4.983 0 0 1 251.9 3.9a6.048 6.048 0 0 1 3.258.931l-1.04 2.729a4.156 4.156 0 0 0-2.183-.8 1.276 1.276 0 0 0-.738.193.438.438 0 0 0-.193.385c0 .225.032.433.626.562l1.236.273a3.616 3.616 0 0 1 1.83.915 2.857 2.857 0 0 1 .819 2.119 3.446 3.446 0 0 1-.963 2.519 5.044 5.044 0 0 1-3.772 1.365 8.9 8.9 0 0 1-3.643-.838zm-32.021 0l-.353-.145 1.172-3.017.417.321a3.773 3.773 0 0 0 2.167.786 1.328 1.328 0 0 0 .835-.192.573.573 0 0 0 .209-.481.519.519 0 0 0-.128-.37 1.457 1.457 0 0 0-.738-.256l-.947-.177a3.23 3.23 0 0 1-1.861-.915 2.671 2.671 0 0 1-.771-1.975 3.463 3.463 0 0 1 1.043-2.552 4.981 4.981 0 0 1 3.718-1.383 6.048 6.048 0 0 1 3.258.931L222.1 7.56a4.153 4.153 0 0 0-2.183-.8 1.276 1.276 0 0 0-.738.193.438.438 0 0 0-.192.385c0 .225.032.433.626.562l1.236.273a3.622 3.622 0 0 1 1.83.915 2.859 2.859 0 0 1 .818 2.119 3.446 3.446 0 0 1-.963 2.519 5.042 5.042 0 0 1-3.771 1.365 8.9 8.9 0 0 1-3.647-.838zm-21.909 0l-.354-.145 1.172-3.017.418.321a3.771 3.771 0 0 0 2.167.786 1.328 1.328 0 0 0 .834-.192.573.573 0 0 0 .209-.481.522.522 0 0 0-.128-.37 1.457 1.457 0 0 0-.738-.256l-.947-.177a3.234 3.234 0 0 1-1.862-.915 2.674 2.674 0 0 1-.77-1.975 3.462 3.462 0 0 1 1.043-2.552 4.983 4.983 0 0 1 3.719-1.383 6.048 6.048 0 0 1 3.258.931l-1.043 2.729a4.156 4.156 0 0 0-2.183-.8 1.276 1.276 0 0 0-.738.193.438.438 0 0 0-.193.385c0 .225.032.433.626.562l1.236.273a3.617 3.617 0 0 1 1.83.915 2.857 2.857 0 0 1 .819 2.119 3.448 3.448 0 0 1-.963 2.519 5.044 5.044 0 0 1-3.772 1.365 8.9 8.9 0 0 1-3.644-.838zM181.2 13.37a5.454 5.454 0 0 1-1.493-3.884 5.445 5.445 0 0 1 1.493-3.868 6.614 6.614 0 0 1 8.892 0 5.448 5.448 0 0 1 1.493 3.868 5.457 5.457 0 0 1-1.493 3.884 6.612 6.612 0 0 1-8.892 0zm3.05-5.473a2.4 2.4 0 0 0-.61 1.605 2.273 2.273 0 0 0 .61 1.589 2.058 2.058 0 0 0 2.793 0 2.243 2.243 0 0 0 .61-1.589 2.176 2.176 0 0 0-.61-1.605 1.937 1.937 0 0 0-1.4-.546 1.856 1.856 0 0 0-1.392.549zm-23.75 5.778a3.78 3.78 0 0 1-.979-2.7V4.141h3.852v6.212a1.542 1.542 0 0 0 .337 1.091.97.97 0 0 0 .77.289 1.06 1.06 0 0 0 .786-.257 1.673 1.673 0 0 0 .289-1.124V4.141h3.868v6.565a4.263 4.263 0 0 1-1.124 3.05 5.185 5.185 0 0 1-3.82 1.332 5.277 5.277 0 0 1-3.979-1.413zm-45.952.578l-.353-.145 1.172-3.017.418.321a3.77 3.77 0 0 0 2.166.786 1.331 1.331 0 0 0 .835-.192.575.575 0 0 0 .208-.481.519.519 0 0 0-.128-.37 1.454 1.454 0 0 0-.738-.256l-.946-.177a3.232 3.232 0 0 1-1.862-.915 2.672 2.672 0 0 1-.771-1.975 3.463 3.463 0 0 1 1.043-2.552 4.983 4.983 0 0 1 3.719-1.38 6.049 6.049 0 0 1 3.258.931l-1.043 2.729a4.158 4.158 0 0 0-2.183-.8 1.277 1.277 0 0 0-.738.193.438.438 0 0 0-.192.385c0 .225.032.433.626.562l1.236.273a3.62 3.62 0 0 1 1.83.915 2.86 2.86 0 0 1 .819 2.119 3.446 3.446 0 0 1-.964 2.519 5.042 5.042 0 0 1-3.771 1.365 8.9 8.9 0 0 1-3.645-.838zm-27.739-.883a5.457 5.457 0 0 1-1.492-3.884 5.448 5.448 0 0 1 1.492-3.868 6.614 6.614 0 0 1 8.892 0 5.448 5.448 0 0 1 1.493 3.868A5.457 5.457 0 0 1 95.7 13.37a6.612 6.612 0 0 1-8.892 0zm3.05-5.47a2.4 2.4 0 0 0-.61 1.605 2.273 2.273 0 0 0 .61 1.589 2.058 2.058 0 0 0 2.793 0 2.243 2.243 0 0 0 .61-1.589 2.176 2.176 0 0 0-.61-1.605 1.935 1.935 0 0 0-1.4-.546 1.856 1.856 0 0 0-1.393.546zm213.358 6.949l-.353-1.332h-2.954l-.288 1.332h-4.109l3.707-10.708h4.3l3.82 10.706zm-2.054-5.923l-.53 2.054h1.556l-.5-2.054a11.858 11.858 0 0 1-.209-1.2h-.144a5.6 5.6 0 0 1-.174 1.198zm-10.69 5.923V4.141h3.884v10.706zm-5.955 0l-1.54-3.13a1.736 1.736 0 0 1-.144-.337l-.065.032v3.435h-3.789V4.141h4.831a4.265 4.265 0 0 1 3.274 1.108 3.539 3.539 0 0 1 1.015 2.632 2.887 2.887 0 0 1-.594 1.91 2.558 2.558 0 0 1-1.477.851v.1a1.5 1.5 0 0 1 .562.5L289 14.847zm-1.749-5.938h.45a1.27 1.27 0 0 0 .818-.241.843.843 0 0 0 .273-.658.969.969 0 0 0-.209-.642.85.85 0 0 0-.658-.288h-.674zm-24.284 5.938V7.528l-2.183.1V4.141h8.186v3.483l-2.183-.1v7.319zm-17.334 0V4.141h3.884v10.706zm-5.971 0v-3.726h-2.38v3.723h-3.74V4.141h3.74v3.628h2.376V4.141h3.74v10.706zm-25.215 0l-.354-1.332h-2.953l-.288 1.332h-4.11l3.708-10.706h4.3l3.819 10.706zm-2.055-5.923l-.53 2.054h1.557l-.5-2.054a11.884 11.884 0 0 1-.208-1.2h-.145a5.526 5.526 0 0 1-.175 1.198zm-36.258 5.923V4.141h3.884V11.4h3.275v3.451zm-23.08 0V4.141h4.67a4.792 4.792 0 0 1 3.194.9 2.758 2.758 0 0 1 .818 2.087A2.278 2.278 0 0 1 156.8 8.6a2.264 2.264 0 0 1-.931.658l-.016.1a2.487 2.487 0 0 1 1.124.642 2.427 2.427 0 0 1 .786 1.862 2.613 2.613 0 0 1-1.011 2.166 4.29 4.29 0 0 1-2.745.819zm3.6-2.584h.786a1.576 1.576 0 0 0 .818-.177.845.845 0 0 0 .369-.723.811.811 0 0 0-.289-.642A1.388 1.388 0 0 0 153 10.5h-.835zm0-4.012h.61a1.133 1.133 0 0 0 .738-.241.764.764 0 0 0 .209-.562.71.71 0 0 0-.24-.562 1.278 1.278 0 0 0-.706-.177h-.61zm-8.876 6.6l-.354-1.332h-2.953l-.289 1.332h-4.109l3.708-10.706h4.3l3.819 10.706zm-2.055-5.923l-.53 2.054h1.557l-.5-2.054a11.687 11.687 0 0 1-.209-1.2h-.145a5.523 5.523 0 0 1-.178 1.194zm-12.743 5.923V4.141h7.142V7.19h-3.258v1.092h2.857v2.825h-2.857v3.74zm-19.1 0l-.353-1.332h-2.953l-.289 1.332h-4.109L105.4 4.141h4.3l3.82 10.706zm-2.054-5.923l-.53 2.054h1.557l-.5-2.054a11.874 11.874 0 0 1-.209-1.2h-.144a5.607 5.607 0 0 1-.18 1.194zM73.76 14.847V4.141h4.125a6.764 6.764 0 0 1 4.735 1.622 5.243 5.243 0 0 1 1.445 3.867 5.018 5.018 0 0 1-1.381 3.708 5.259 5.259 0 0 1-3.836 1.508zm3.852-3.274h.288a2.351 2.351 0 0 0 1.653-.5 2.018 2.018 0 0 0 .626-1.541 2.235 2.235 0 0 0-.626-1.605 2.191 2.191 0 0 0-1.525-.513h-.417zm-9.807 3.274l-2.664-4.221a14.313 14.313 0 0 1-.738-1.4h-.112a13.261 13.261 0 0 1 .24 1.975v3.643h-3.707V4.141h3.708l2.488 4.045a11.605 11.605 0 0 1 1.012 1.894h.112a12.555 12.555 0 0 1-.337-2.536v-3.4h3.724v10.703zm-13.1 0V4.141h3.885v10.706zm-8.635 0L41.917 4.141h4.061l1.492 5.04a7.834 7.834 0 0 1 .241 1.429h.1a6.424 6.424 0 0 1 .225-1.429l1.461-5.04h4.061l-4.146 10.706zm-15.36 0l-.481-4.8a10.1 10.1 0 0 1-.064-1.059H30.1c-.048.273-.144.69-.209.9l-1.589 4.96h-2.28L24.6 10.16a4.448 4.448 0 0 1-.209-1.172h-.113c0 .209 0 .626-.016.835l-.53 5.023h-3.773l1.734-10.705h4l1.251 4.382a7.921 7.921 0 0 1 .241 1.236h.1a4.652 4.652 0 0 1 .209-1.236l1.252-4.382H32.7l1.749 10.706zm-19.389 0V4.141h7.223v2.937h-3.336v1h3.034v2.808h-3.034v1.024h3.435v2.937zm-10.947 0V4.141h4.67a4.792 4.792 0 0 1 3.194.9 2.757 2.757 0 0 1 .819 2.087A2.275 2.275 0 0 1 8.611 8.6a2.259 2.259 0 0 1-.931.658l-.016.1A2.481 2.481 0 0 1 8.788 10a2.425 2.425 0 0 1 .786 1.862 2.613 2.613 0 0 1-1.011 2.166 4.288 4.288 0 0 1-2.745.819zm3.6-2.584h.786a1.579 1.579 0 0 0 .819-.177.846.846 0 0 0 .369-.723.809.809 0 0 0-.289-.642 1.386 1.386 0 0 0-.85-.225h-.836zm0-4.012h.61a1.135 1.135 0 0 0 .738-.241.767.767 0 0 0 .209-.562.71.71 0 0 0-.241-.562 1.278 1.278 0 0 0-.706-.177h-.61zm32 3.788v-2.89h5.056v2.889zm234.147-9.696L271.982 0l1.878 1.172-2.344 2.054zM105.668 1.172L107.546 0l1.846 2.343-1.381.883z"/>
            </g>
        </g>
    </g-->
</svg>
