<svg xmlns="http://www.w3.org/2000/svg" width="181.832" height="21" viewBox="0 0 181.832 21">
	<g id="Logo-Argo" transform="translate(0 -14.499)">
		<path d="M776.333,14.544a20.5,20.5,0,0,1,4.614.395,6.071,6.071,0,0,1,2.294,1,4.524,4.524,0,0,1,1.664,2.932,3.824,3.824,0,0,1-.168,1.986,11.3,11.3,0,0,1-2.616,4.339,7.783,7.783,0,0,1-4.057,2.185c-.741.158-1.493.234-2.239.354-.089.014-.2-.014-.272.1a2.02,2.02,0,0,0,.417.376q3.655,3.093,7.315,6.179a3.074,3.074,0,0,1,.527.589c.184.262.142.359-.189.482h-4.238c-.552,0-1.1-.005-1.656,0-2.16.024-4.32-.057-6.479-.03a1.159,1.159,0,0,1-.769-.329c-1.839-1.467-3.662-2.954-5.5-4.419-1.09-.867-2.166-1.75-3.253-2.62a1.349,1.349,0,0,0-.892-.315c-1.44.007-2.881,0-4.321,0-.5,0-.559.037-.741.511-.82,2.128-1.618,4.264-2.437,6.393-.043.112-.089.223-.128.336a.6.6,0,0,1-.651.439c-3.265-.011-6.53-.006-9.8-.007-.488,0-.6-.158-.42-.63q.826-2.228,1.65-4.457,1.355-3.664,2.761-7.309c.241-.625.3-.676.971-.676h24.164a2.98,2.98,0,0,0,.787-.068,1.481,1.481,0,0,0,1.08-1.059.728.728,0,0,0-.73-1.032c-.576-.021-1.153,0-1.728-.007-7.489-.148-14.978-.036-22.467-.071-.084,0-.169,0-.252-.006-.363-.034-.487-.2-.41-.555a3.875,3.875,0,0,1,.213-.649c.532-1.3,1.047-2.606,1.593-3.9.1-.235.171-.524.524-.506h2.775" transform="translate(-688.785 0)" fill="#fff"/>
		<path d="M1023.93,14.52" transform="translate(-950.165 -0.02)" fill="#fff"/>
		<path d="M487.66,14.52h9.522" transform="translate(-452.529 -0.02)" fill="#fff"/>
		<path d="M46.783,14.511a15.377,15.377,0,0,1,3.109.248,4.724,4.724,0,0,1,3.681,3.71,6.5,6.5,0,0,1-.274,2.948c-.674,2.246-1.643,4.379-2.508,6.551-.813,2.039-1.656,4.066-2.48,6.1-.14.344-.29.685-.426,1.031a.485.485,0,0,1-.434.373h-.424c-.732,0-1.465,0-2.2,0-2.508.014-5.015-.061-7.523-.037-.5.005-.62-.156-.467-.65.187-.609.448-1.19.689-1.779.642-1.565,1.269-3.137,1.907-4.7.184-.453.173-.468-.335-.468-2.689,0-5.378.047-8.065-.016-1.967-.046-3.935-.029-5.9-.062a2.468,2.468,0,0,0-1.514.455c-3.385,2.342-6.8,4.642-10.192,6.972a1.266,1.266,0,0,1-.764.258c-3.024-.032-6.047.053-9.071.031-.324,0-.648,0-.973,0-.756,0-1.512,0-2.268,0-.127,0-.271.042-.356-.106v-.216a2.819,2.819,0,0,1,.88-1.027q4.732-3.444,9.535-6.788c2.24-1.552,4.489-3.091,6.724-4.65a1.721,1.721,0,0,1,1.037-.323q7.708.012,15.415,0c1.728,0,3.457-.008,5.186.007.722.006,1.35-.049,2.07-.048a1.409,1.409,0,0,0,1.016-.519,3.114,3.114,0,0,0,.519-.942.43.43,0,0,0-.353-.64,2.47,2.47,0,0,0-.574-.029H23.376a3.092,3.092,0,0,1-.5-.015c-.322-.053-.479-.277-.352-.568a2.125,2.125,0,0,1,.744-1.034c2.012-1.287,3.994-2.622,6.007-3.907a.92.92,0,0,1,.506-.16h.835" transform="translate(0 -0.01)" fill="#fff"/>
		<path d="M2039,304.872a.408.408,0,0,1,.5,0Z" transform="translate(-1892.109 -269.373)" fill="#fff"/>
		<path d="M2001.011,22.614a3.842,3.842,0,0,0-2.394-3.436,10.045,10.045,0,0,0-3.9-.738c-1.256-.065-2.516-.018-3.776-.063-2.421-.087-4.844-.006-7.268-.071-1.987-.053-3.98-.068-5.971.043-1.508.084-3.021-.053-4.531.079a15.894,15.894,0,0,0-3.147.554,9.813,9.813,0,0,0-3.961,2.266,12.364,12.364,0,0,0-2.691,3.572,40.325,40.325,0,0,0-2.411,6.352,10.5,10.5,0,0,0-.514,3.183,4.37,4.37,0,0,0,3.386,4.365c.608.162,1.231.156,1.84.272h.432a.74.74,0,0,1,.5,0h22.477a.107.107,0,0,1,.061-.033,10.231,10.231,0,0,0,3.787-.9,9.833,9.833,0,0,0,4.258-3.423,22.53,22.53,0,0,0,2.707-5.894,20.531,20.531,0,0,0,1.146-4.806v-.072m-21.615,9.526-6.552,0a2.332,2.332,0,0,1-.988-.147.884.884,0,0,1-.532-1.169c.679-2.095,1.354-4.19,2.13-6.253a2.559,2.559,0,0,1,2.595-1.812c3.109-.058,6.216-.107,9.324-.012,1.248.038,2.5.055,3.743.091,1.181.035,1.475.413,1.147,1.533-.66,2.252-1.439,4.464-2.253,6.665a1.666,1.666,0,0,1-1.666,1.163" transform="translate(-1819.217 -3.495)" fill="#fff"/>
		<path d="M1380.1,36.7h-3.388l-4.861-.04c-2.113-.017-4.226-.016-6.338-.058a8.266,8.266,0,0,1-3.211-.528,4.163,4.163,0,0,1-2.526-3.941,10.561,10.561,0,0,1,.71-3.8,38.637,38.637,0,0,1,2.252-5.665,12.288,12.288,0,0,1,3.871-4.744,11.024,11.024,0,0,1,5.038-1.77,73.843,73.843,0,0,1,8.307-.272c4.214-.051,8.428-.014,12.642.032a29.079,29.079,0,0,1,5.023.317,5.364,5.364,0,0,1,2.008.746,2.65,2.65,0,0,1,1.207,1.839,6.936,6.936,0,0,1-.027,2.293c-.05.3-.195.39-.486.388q-7.4-.038-14.8-.061c-3.325-.012-6.652-.012-9.977-.026a2.418,2.418,0,0,0-2.433,1.557c-.836,1.911-1.476,3.894-2.152,5.863-.125.362-.251.725-.356,1.092a.615.615,0,0,0,.39.831,1.994,1.994,0,0,0,.875.167q3.242.006,6.483.014,3.422,0,6.843,0a4.228,4.228,0,0,0,1.207-.17,1.922,1.922,0,0,0,1.258-1.41c.061-.186-.045-.3-.221-.341a1.554,1.554,0,0,0-.323-.009h-8.465c-.56,0-.627-.089-.444-.607q.688-1.947,1.384-3.891c.226-.63.428-.769,1.073-.771l17.037-.036c.54,0,1.08-.01,1.62-.012.579,0,.781.277.615.845-.269.92-.607,1.815-.945,2.711a20.734,20.734,0,0,1-2.412,4.717,10.162,10.162,0,0,1-6.463,4.154,34.984,34.984,0,0,1-6.448.514C1382.478,36.662,1381.29,36.681,1380.1,36.7Z" transform="translate(-1261.81 -1.269)" fill="#fff"/>
	</g>
</svg>
