<svg xmlns="http://www.w3.org/2000/svg" width="104.955" height="12.121" viewBox="0 0 104.955 12.121">
    <defs>
        <style>
            .cls-1{fill:#fff}
        </style>
    </defs>
    <g id="Logo-Mobi" transform="translate(0 -14.499)">
        <path id="Caminho_104" d="M761.927 14.525a11.834 11.834 0 0 1 2.663.228 3.5 3.5 0 0 1 1.324.576 2.611 2.611 0 0 1 .961 1.692 2.206 2.206 0 0 1-.1 1.146 6.522 6.522 0 0 1-1.51 2.5 4.493 4.493 0 0 1-2.342 1.261c-.427.091-.862.135-1.292.2-.052.008-.113-.008-.157.059a1.164 1.164 0 0 0 .241.217q2.11 1.785 4.222 3.567a1.779 1.779 0 0 1 .3.34c.106.151.082.207-.109.278h-3.402c-1.247.014-2.493-.033-3.74-.017a.669.669 0 0 1-.444-.19c-1.061-.847-2.114-1.705-3.177-2.551-.629-.5-1.25-1.01-1.878-1.512a.778.778 0 0 0-.515-.182h-2.494c-.288 0-.323.022-.428.3-.473 1.228-.934 2.461-1.407 3.69-.025.064-.051.129-.074.194a.347.347 0 0 1-.376.253c-1.885-.006-3.769 0-5.654 0-.281 0-.343-.091-.242-.364l.953-2.573q.782-2.115 1.594-4.219c.139-.361.173-.39.56-.39h13.948a1.721 1.721 0 0 0 .454-.039.855.855 0 0 0 .623-.611.42.42 0 0 0-.422-.6c-.332-.012-.665 0-1 0-4.323-.085-8.645-.021-12.968-.041h-.146c-.209-.02-.281-.114-.237-.321a2.227 2.227 0 0 1 .123-.375c.307-.75.6-1.5.919-2.251.057-.136.1-.3.3-.292h1.6" class="cls-1" data-name="Caminho 104" transform="translate(-711.393)"/>
        <path id="Caminho_106" d="M487.66 14.52h5.5" class="cls-1" data-name="Caminho 106" transform="translate(-467.382 -.02)"/>
        <path id="Caminho_107" d="M27 14.51a8.876 8.876 0 0 1 1.795.143 2.727 2.727 0 0 1 2.124 2.142 3.749 3.749 0 0 1-.158 1.7c-.389 1.3-.948 2.527-1.447 3.781-.469 1.177-.956 2.347-1.431 3.521-.081.2-.167.4-.246.6a.28.28 0 0 1-.251.215h-1.513c-1.447.008-2.895-.035-4.342-.022-.29 0-.358-.09-.269-.375.108-.351.259-.687.4-1.027.37-.9.733-1.811 1.1-2.716.106-.262.1-.27-.193-.27-1.552 0-3.1.027-4.655-.009-1.136-.027-2.271-.017-3.406-.036a1.425 1.425 0 0 0-.874.263c-1.954 1.352-3.925 2.679-5.883 4.024a.731.731 0 0 1-.441.149c-1.745-.018-3.49.031-5.236.018H.204c-.073 0-.156.024-.205-.061v-.125a1.627 1.627 0 0 1 .508-.593q2.731-1.988 5.5-3.918c1.293-.9 2.591-1.784 3.881-2.684a.993.993 0 0 1 .6-.187q4.449.007 8.9 0h2.993c.417 0 .779-.028 1.2-.028a.813.813 0 0 0 .587-.3 1.8 1.8 0 0 0 .3-.543.248.248 0 0 0-.2-.37 1.426 1.426 0 0 0-.331-.017H13.493a1.785 1.785 0 0 1-.291-.009c-.186-.03-.277-.16-.2-.328a1.227 1.227 0 0 1 .43-.6c1.161-.743 2.305-1.513 3.468-2.255a.531.531 0 0 1 .292-.092h.482" class="cls-1" data-name="Caminho 107" transform="translate(0 -.011)"/>
        <path id="Caminho_108" d="M2039 304.835a.235.235 0 0 1 .291 0z" class="cls-1" data-name="Caminho 108" transform="translate(-1954.214 -278.215)"/>
        <path id="Caminho_109" d="M1983.862 20.775a2.217 2.217 0 0 0-1.382-1.983 5.8 5.8 0 0 0-2.249-.426c-.725-.037-1.452-.01-2.179-.037-1.4-.05-2.8 0-4.2-.041-1.147-.031-2.3-.04-3.447.025-.87.049-1.744-.031-2.615.046a9.172 9.172 0 0 0-1.817.32 5.664 5.664 0 0 0-2.286 1.308 7.135 7.135 0 0 0-1.553 2.062 23.263 23.263 0 0 0-1.392 3.666 6.064 6.064 0 0 0-.3 1.838 2.523 2.523 0 0 0 1.954 2.519c.351.094.71.09 1.062.157h.25a.427.427 0 0 1 .291 0h12.974a.061.061 0 0 1 .035-.019 5.906 5.906 0 0 0 2.186-.52 5.676 5.676 0 0 0 2.458-1.976 13 13 0 0 0 1.562-3.4 11.847 11.847 0 0 0 .662-2.774v-.04m-16.25 5.5a1.347 1.347 0 0 1-.571-.085.51.51 0 0 1-.307-.675c.392-1.209.782-2.418 1.23-3.609a1.477 1.477 0 0 1 1.5-1.046c1.794-.033 3.588-.062 5.382-.007.72.022 1.44.032 2.161.053.682.02.851.238.662.885a59.137 59.137 0 0 1-1.3 3.847.962.962 0 0 1-.962.671" class="cls-1" data-name="Caminho 109" transform="translate(-1878.929 -3.609)"/>
        <path id="Caminho_110" d="M1371.506 27.894h-1.956l-2.806-.023c-1.219-.01-2.439-.009-3.658-.033a4.77 4.77 0 0 1-1.854-.3 2.4 2.4 0 0 1-1.458-2.275 6.106 6.106 0 0 1 .41-2.191 22.338 22.338 0 0 1 1.3-3.27 7.094 7.094 0 0 1 2.234-2.738 6.363 6.363 0 0 1 2.908-1.022 42.621 42.621 0 0 1 4.795-.157c2.432-.03 4.865-.008 7.3.019a16.784 16.784 0 0 1 2.9.183 3.1 3.1 0 0 1 1.159.43 1.531 1.531 0 0 1 .7 1.062 4.008 4.008 0 0 1-.015 1.324c-.029.175-.112.225-.28.224q-4.272-.022-8.544-.035c-1.919-.007-3.839-.007-5.759-.015a1.4 1.4 0 0 0-1.4.9c-.483 1.1-.852 2.248-1.242 3.384-.072.209-.145.418-.205.63a.355.355 0 0 0 .225.48 1.15 1.15 0 0 0 .505.1q1.871 0 3.742.008h3.95a2.442 2.442 0 0 0 .7-.1 1.109 1.109 0 0 0 .726-.814c.035-.107-.026-.175-.128-.2a.9.9 0 0 0-.186-.005h-4.886c-.323 0-.362-.052-.257-.351l.8-2.246c.131-.364.247-.444.619-.445l9.834-.021c.312 0 .623-.006.935-.007.334 0 .451.16.355.488-.155.531-.35 1.047-.546 1.565a11.969 11.969 0 0 1-1.392 2.723 5.865 5.865 0 0 1-3.73 2.4 20.191 20.191 0 0 1-3.722.3c-.702.004-1.388.015-2.073.028z" class="cls-1" data-name="Caminho 110" transform="translate(-1303.227 -1.311)"/>
    </g>
</svg>
