<svg id="_002-youtube-logo" data-name="002-youtube-logo" xmlns="http://www.w3.org/2000/svg" width="23.032" height="27.638" viewBox="0 0 23.032 27.638">
  <path id="YouTube" d="M26.982,20.216H25.465l.007-.881a.715.715,0,0,1,.714-.712h.1a.716.716,0,0,1,.716.712Zm-5.689-1.888a.648.648,0,0,0-.7.575v4.285a.714.714,0,0,0,1.4,0V18.9A.649.649,0,0,0,21.292,18.328Zm9.239-2.4v8.151a3.677,3.677,0,0,1-3.768,3.555h-15.5A3.677,3.677,0,0,1,7.5,24.083V15.932a3.677,3.677,0,0,1,3.768-3.555h15.5A3.677,3.677,0,0,1,30.532,15.932ZM12.3,24.968V16.381h1.921V15.11L9.1,15.1v1.251l1.6,0v8.611ZM18.06,17.66h-1.6v4.585a8.127,8.127,0,0,1,0,1.112c-.13.356-.716.733-.944.038a9.125,9.125,0,0,1-.005-1.119L15.5,17.66H13.908l0,4.544c0,.7-.016,1.216.006,1.452.039.417.025.9.412,1.18a1.935,1.935,0,0,0,2.447-.819l0,.947,1.286,0V17.66Zm5.123,5.251,0-3.816c0-1.454-1.089-2.325-2.566-1.149l.006-2.837-1.6,0L19.013,24.9l1.316-.019.12-.61C22.129,25.818,23.186,24.761,23.183,22.911Zm5.012-.506-1.2.006c0,.048,0,.1,0,.162v.67a.656.656,0,0,1-.656.651H26.1a.656.656,0,0,1-.657-.651V21.482h2.75V20.447a16.328,16.328,0,0,0-.082-1.945c-.2-1.368-2.117-1.585-3.087-.885a1.808,1.808,0,0,0-.672.9,5.092,5.092,0,0,0-.2,1.613v2.276C24.149,26.194,28.743,25.659,28.2,22.405Zm-6.16-12.354a1.09,1.09,0,0,0,.385.486,1.115,1.115,0,0,0,.655.182,1.019,1.019,0,0,0,.614-.191,1.472,1.472,0,0,0,.449-.575l-.03.628h1.785V2.991H24.488V8.9a.585.585,0,0,1-1.17,0V2.991H21.851v5.12c0,.652.012,1.087.031,1.308A2.2,2.2,0,0,0,22.036,10.052Zm-5.41-4.288a6.317,6.317,0,0,1,.181-1.708A1.828,1.828,0,0,1,18.674,2.7a2.214,2.214,0,0,1,1.062.24,1.77,1.77,0,0,1,.685.623,2.457,2.457,0,0,1,.33.79,6.3,6.3,0,0,1,.089,1.243v1.92a10.394,10.394,0,0,1-.083,1.551,2.458,2.458,0,0,1-.352.922,1.669,1.669,0,0,1-.687.631,2.192,2.192,0,0,1-.969.2,2.69,2.69,0,0,1-1.032-.174,1.417,1.417,0,0,1-.658-.526,2.337,2.337,0,0,1-.335-.851,8.2,8.2,0,0,1-.1-1.5V5.764Zm1.4,3.016a.713.713,0,1,0,1.418,0V4.738a.712.712,0,1,0-1.418,0Zm-4.94,2.041h1.684l0-5.822L16.759.01H14.917l-1.058,3.7L12.787,0H10.964l2.117,5Z" transform="translate(-7.5)" fill="#edede3"/>
</svg>
