<svg xmlns="http://www.w3.org/2000/svg" width="27.638" height="27.638" viewBox="0 0 27.638 27.638">
  <g id="_001-facebook-app-logo" data-name="001-facebook-app-logo" transform="translate(0 0)">
    <path id="Caminho_4" data-name="Caminho 4" d="M26.112,0H1.525A1.525,1.525,0,0,0,0,1.526V26.113a1.526,1.526,0,0,0,1.525,1.526H14.762v-10.7h-3.6V12.764h3.6V9.688c0-3.569,2.179-5.514,5.364-5.514a29.872,29.872,0,0,1,3.218.164V8.069H21.135c-1.732,0-2.066.823-2.066,2.031v2.663H23.2l-.54,4.171H19.069v10.7h7.042a1.527,1.527,0,0,0,1.527-1.525V1.526A1.526,1.526,0,0,0,26.112,0Z" transform="translate(0 -0.001)" fill="#edede3"/>
  </g>
</svg>
