<svg xmlns="http://www.w3.org/2000/svg" width="18.892" height="23.15" viewBox="0 0 18.892 23.15">
  <g id="icon-arrow" transform="translate(-278.553 -487.425)">
    <g id="Grupo_617" data-name="Grupo 617" transform="translate(-201.176 -329.086)">
      <g id="noun_Arrow_1808421" transform="translate(498.621 816.512) rotate(90)">
        <path id="Caminho_6" data-name="Caminho 6" d="M22.807,8.548,15.091.4A1.433,1.433,0,0,0,13.2.317a1.346,1.346,0,0,0,0,1.886l5.659,5.959H1.286a1.286,1.286,0,0,0,0,2.572H18.863L13.2,16.694a1.307,1.307,0,0,0,0,1.886,1.436,1.436,0,0,0,1.886-.086l7.717-8.146A1.362,1.362,0,0,0,22.807,8.548Z" transform="translate(0 0)" fill="#edede3"/>
      </g>
    </g>
  </g>
</svg>
