<svg xmlns="http://www.w3.org/2000/svg" width="7.68" height="27.411" viewBox="0 0 7.68 27.411">
  <g id="icon-arrow" transform="translate(-280.217 -455.925)">
    <g id="Group_617" data-name="Group 617" transform="translate(278.553 454.575)">
      <g id="noun_Arrow_1808421" transform="translate(10.913 0) rotate(90)">
        <path id="Path_6" data-name="Path 6" d="M9.271,3.475,6.134.164A.583.583,0,0,0,5.368.129a.547.547,0,0,0,0,.767l2.3,2.422H.523a.523.523,0,0,0,0,1.046H7.668l-2.3,2.422a.531.531,0,0,0,0,.767.584.584,0,0,0,.767-.035L9.271,4.207A.554.554,0,0,0,9.271,3.475Z" transform="translate(19.35 1.57)" fill="#EFEBE0" />
        <rect id="Rectangle_2321" data-name="Rectangle 2321" width="4" height="1" rx="0.5" transform="translate(13.35 4.914)" fill="#EFEBE0" />
        <rect id="Rectangle_2322" data-name="Rectangle 2322" width="4" height="1" rx="0.5" transform="translate(7.35 4.914)" fill="#EFEBE0" />
        <rect id="Rectangle_2323" data-name="Rectangle 2323" width="4" height="1" rx="0.5" transform="translate(1.35 4.914)" fill="#EFEBE0" />
      </g>
    </g>
  </g>
</svg>