<?xml version="1.0" standalone="no"?>
<!DOCTYPE svg PUBLIC "-//W3C//DTD SVG 1.1//EN" "http://www.w3.org/Graphics/SVG/1.1/DTD/svg11.dtd" >
<svg xmlns="http://www.w3.org/2000/svg" xmlns:xlink="http://www.w3.org/1999/xlink" version="1.1">
<metadata>
Created by FontForge 20170731 at Tue Sep  5 15:55:55 2017
 By Aleksey,,,
Copyright (c) 2017 Monotype Imaging Inc. All rights reserved.
</metadata>
<defs>
<font id="FuturaBTExtraBlackItalic" horiz-adv-x="452" >
  <font-face 
    font-family="FuturaBTExtraBlackItalic"
    font-weight="900"
    font-style="italic"
    font-stretch="normal"
    units-per-em="1000"
    panose-1="2 11 11 2 2 2 4 9 3 3"
    ascent="800"
    descent="-200"
    x-height="505"
    cap-height="715"
    bbox="-525 -246 1251 1097"
    underline-thickness="50"
    underline-position="-275"
    slope="-10.5"
    unicode-range="U+000D-FEFF"
  />
<missing-glyph horiz-adv-x="557" 
d="M557 757v-757h-557v757h557zM368 185v387h-179v-387h179z" />
    <glyph glyph-name="IJ" unicode="IJ" horiz-adv-x="899" 
d="M400 715l-132 -715h-263l132 715h263zM475.5 231.5q13.5 -5.5 24.5 -5.5q23 0 36.5 12t21 34.5t14.5 63.5l70 379h261l-77 -417q-10 -55 -20.5 -94t-28.5 -74.5t-46 -65.5q-38 -41 -87.5 -62t-106.5 -21q-86 0 -162 46l67 222q20 -12 33.5 -17.5z" />
    <glyph glyph-name="ij" unicode="ij" horiz-adv-x="708" 
d="M154 546q-29 15 -45 41t-16 58q0 34 19.5 63.5t52.5 47t72 17.5q35 0 64 -15t45 -41t16 -58q0 -34 -19.5 -63.5t-52.5 -47t-72 -17.5q-35 0 -64 15zM323 505l-93 -505h-238l93 505h238zM508 546q-29 15 -45 41t-16 58q0 34 19.5 63.5t52.5 47t72 17.5q35 0 64 -15t45 -41
t16 -58q0 -34 -19.5 -63.5t-52.5 -47t-72 -17.5q-35 0 -64 15zM677 505l-134 -723h-237l133 723h238z" />
    <glyph glyph-name="ff" unicode="ff" horiz-adv-x="882" 
d="M24 324l34 181h62q16 92 47 150t81 86t122 28q56 0 118 -21l-35 -190q-30 16 -50 16q-23 0 -34.5 -16.5t-13.5 -52.5h88l-34 -181h-88l-59 -324h-235l60 324h-63zM465 324l34 181h62q16 92 47 150t81 86t122 28q56 0 118 -21l-35 -190q-30 16 -50 16q-23 0 -34.5 -16.5
t-13.5 -52.5h88l-34 -181h-88l-59 -324h-235l60 324h-63z" />
    <glyph glyph-name="fi" unicode="fi" horiz-adv-x="763" 
d="M563 546q-29 15 -45 41t-16 58q0 34 19 63.5t52 47t72 17.5q35 0 64 -15t45.5 -41t16.5 -58q0 -34 -19.5 -63.5t-52.5 -47t-72 -17.5q-35 0 -64 15zM25 324l33 181h63q16 92 47 150t80.5 86t121.5 28q56 0 118 -21l-35 -190q-30 16 -50 16q-23 0 -34.5 -16.5t-13.5 -52.5
h88l-34 -181h-87l-60 -324h-235l60 324h-62zM732 505l-94 -505h-238l94 505h238z" />
    <glyph glyph-name="fl" unicode="fl" horiz-adv-x="761" 
d="M25 324l33 181h63q16 92 47 150t80.5 86t121.5 28q56 0 118 -21l-35 -190q-30 16 -50 16q-23 0 -34.5 -16.5t-13.5 -52.5h88l-34 -181h-87l-60 -324h-235l60 324h-62zM541 757h235l-140 -757h-236z" />
    <glyph glyph-name="ffi" unicode="ffi" horiz-adv-x="1236" 
d="M24 324l34 181h62q16 92 47 150t81 86t122 28q56 0 118 -21l-35 -190q-30 16 -50 16q-23 0 -34.5 -16.5t-13.5 -52.5h88l-34 -181h-88l-59 -324h-235l60 324h-63zM465 324l34 181h62q16 92 47 150t81 86t122 28q56 0 118 -21l-35 -190q-30 16 -50 16q-23 0 -34.5 -16.5
t-13.5 -52.5h88l-34 -181h-88l-59 -324h-235l60 324h-63zM1036 546q-29 15 -45 41t-16 58q0 34 19.5 63.5t52.5 47t72 17.5q35 0 64 -15t45 -41t16 -58q0 -34 -19.5 -63.5t-52.5 -47t-72 -17.5q-35 0 -64 15zM1205 505l-93 -505h-238l93 505h238z" />
    <glyph glyph-name="ffl" unicode="ffl" horiz-adv-x="1236" 
d="M24 324l34 181h62q16 92 47 150t81 86t122 28q56 0 118 -21l-35 -190q-30 16 -50 16q-23 0 -34.5 -16.5t-13.5 -52.5h88l-34 -181h-88l-59 -324h-235l60 324h-63zM465 324l34 181h62q16 92 47 150t81 86t122 28q56 0 118 -21l-35 -190q-30 16 -50 16q-23 0 -34.5 -16.5
t-13.5 -52.5h88l-34 -181h-88l-59 -324h-235l60 324h-63zM1016 757h235l-140 -757h-235z" />
    <glyph glyph-name=".notdef" horiz-adv-x="557" 
d="M557 757v-757h-557v757h557zM368 185v387h-179v-387h179z" />
    <glyph glyph-name=".null" horiz-adv-x="0" 
 />
    <glyph glyph-name="nonmarkingreturn" horiz-adv-x="333" 
 />
    <glyph glyph-name="NULL" horiz-adv-x="0" 
 />
    <glyph glyph-name="NULL" horiz-adv-x="0" 
 />
    <glyph glyph-name="CR" unicode="&#xd;" horiz-adv-x="343" 
 />
    <glyph glyph-name="space" unicode=" " horiz-adv-x="343" 
 />
    <glyph glyph-name="exclam" unicode="!" horiz-adv-x="370" 
d="M390 757l-97 -459h-229l81 459h245zM75.5 0.5q-29.5 16.5 -46.5 43.5t-17 59q0 40 20 74t54.5 54t75.5 20q37 0 66.5 -16.5t46.5 -45t17 -62.5q0 -37 -20.5 -70t-55.5 -53t-75 -20q-36 0 -65.5 16.5z" />
    <glyph glyph-name="quotedbl" unicode="&#x22;" horiz-adv-x="370" 
d="M33 428v275h126v-275h-126zM210 428v275h127v-275h-127z" />
    <glyph glyph-name="numbersign" unicode="#" horiz-adv-x="769" 
d="M506 539l63 179h141l-63 -179h125l-49 -132h-123l-37 -104h126l-49 -132h-124l-64 -179h-141l64 179h-111l-64 -179h-141l64 179h-126l49 132h124l36 104h-126l48 132h126l63 179h141l-63 -179h111zM307 303h117l38 104h-117z" />
    <glyph glyph-name="dollar" unicode="$" horiz-adv-x="685" 
d="M207.5 215.5q48.5 -27.5 95.5 -27.5q23 0 35.5 8t12.5 20q0 13 -11 20t-41 19l-24 10q-90 37 -132 85.5t-42 119.5q0 62 28.5 114t81.5 86t125 44l12 79h177l-15 -89q78 -21 143 -74l-99 -172q-85 73 -144 73q-19 0 -29.5 -8t-10.5 -22q0 -11 8 -19.5t25.5 -17
t38.5 -17.5l19 -8q54 -24 87 -50.5t49.5 -62.5t16.5 -85q0 -59 -28 -110t-81 -87.5t-125 -52.5l-23 -121h-176l25 128q-124 30 -218 114l128 183q43 -52 91.5 -79.5z" />
    <glyph glyph-name="percent" unicode="%" horiz-adv-x="861" 
d="M373.5 449q-25.5 -50 -71.5 -78.5t-105 -28.5q-76 0 -118 43t-42 121q0 63 26.5 112.5t73 76.5t105.5 27q48 0 83.5 -19.5t54.5 -55t19 -84.5q0 -64 -25.5 -114zM690 722l-428 -741h-96l426 741h98zM235 469.5q12 16.5 19.5 45t7.5 62.5q0 21 -6.5 31.5t-19.5 10.5
q-15 0 -27.5 -17t-20 -46t-7.5 -63q0 -40 28 -40q14 0 26 16.5zM796.5 87.5q-25.5 -50.5 -71.5 -79t-105 -28.5q-76 0 -118 43t-42 121q0 63 26.5 112.5t73 77t105.5 27.5q48 0 83.5 -19.5t54.5 -55t19 -84.5q0 -64 -25.5 -114.5zM651.5 105.5q12.5 16.5 20 45.5t7.5 63
q0 21 -6.5 31t-19.5 10q-15 0 -27.5 -17t-20 -46t-7.5 -63q0 -40 27 -40q14 0 26.5 16.5z" />
    <glyph glyph-name="ampersand" unicode="&#x26;" horiz-adv-x="836" 
d="M291 -17q-80 0 -143 31.5t-98.5 84.5t-35.5 117q0 77 51 131.5t152 85.5q-32 56 -32 105q0 55 30.5 98.5t87 68.5t131.5 25q74 0 131.5 -27t89 -74t31.5 -104q0 -63 -41.5 -111.5t-119.5 -73.5l56 -65q56 40 113 95l118 -146q-56 -53 -116 -88l108 -136h-274l-30 35
q-112 -52 -209 -52zM472.5 498q16.5 16 16.5 38q0 16 -11 27t-28 11q-19 0 -31.5 -14t-12.5 -38q0 -26 19 -49q31 9 47.5 25zM261 268.5q-12 -11.5 -12 -26.5q0 -16 10 -29t28.5 -21t41.5 -8q13 0 44 7l-75 99q-25 -10 -37 -21.5z" />
    <glyph glyph-name="quotesingle" unicode="'" horiz-adv-x="192" 
d="M33 428v275h126v-275h-126z" />
    <glyph glyph-name="parenleft" unicode="(" horiz-adv-x="435" 
d="M306 442.5q-56 -104.5 -56 -230.5q0 -172 101 -321l-151 -86q-160 202 -160 427q0 166 83 302.5t249 241.5l109 -128q-119 -101 -175 -205.5z" />
    <glyph glyph-name="parenright" unicode=")" horiz-adv-x="435" 
d="M113 134q57 107 57 241q0 83 -25 161t-75 153l151 86q80 -101 119 -206t39 -219q0 -169 -81 -304.5t-249 -241.5l-113 130q120 93 177 200z" />
    <glyph glyph-name="asterisk" unicode="*" horiz-adv-x="521" 
d="M484 529l-122 -17l102 -69l-77 -82l-75 98l-9 -125l-112 25l47 116l-111 -54l-32 107l123 17l-103 69l76 82l76 -96l8 123l112 -25l-46 -115l109 53z" />
    <glyph glyph-name="plus" unicode="+" horiz-adv-x="833" 
d="M709 365v-133h-224v-232h-137v232h-224v133h224v231h137v-231h224z" />
    <glyph glyph-name="comma" unicode="," horiz-adv-x="343" 
d="M299 185l-224 -349h-210l181 349h253z" />
    <glyph glyph-name="hyphen" unicode="-" horiz-adv-x="440" 
d="M407 351l-38 -200h-374l39 200h373z" />
    <glyph glyph-name="period" unicode="." horiz-adv-x="343" 
d="M68 2.5q-30 16.5 -47 44t-17 59.5q0 40 20 74t55 53.5t76 19.5q37 0 66.5 -16.5t46 -44.5t16.5 -62q0 -37 -20.5 -70.5t-55 -53.5t-74.5 -20q-36 0 -66 16.5z" />
    <glyph glyph-name="slash" unicode="/" horiz-adv-x="495" 
d="M495 731l-382 -824h-113l382 824h113z" />
    <glyph glyph-name="zero" unicode="0" horiz-adv-x="685" 
d="M57 457q30 89 79 147t112 88t134 30q82 0 144.5 -36t97.5 -101t35 -150q0 -95 -30 -184.5t-80 -149.5q-49 -58 -111 -88.5t-133 -30.5q-82 0 -145 36.5t-98 102t-35 151.5q0 96 30 185zM339.5 472.5q-14.5 -14.5 -25.5 -43.5q-18 -47 -27.5 -93.5t-9.5 -76.5
q0 -25 9 -36.5t28 -11.5q27 0 46 35q19 34 33 89.5t14 99.5q0 27 -8 39.5t-26 12.5q-19 0 -33.5 -14.5z" />
    <glyph glyph-name="one" unicode="1" horiz-adv-x="685" 
d="M173 507l37 201h330l-131 -708h-245l94 507h-85z" />
    <glyph glyph-name="two" unicode="2" horiz-adv-x="685" 
d="M295.5 337.5q94.5 80.5 94.5 122.5q0 21 -12 33t-34 12q-25 0 -41 -17t-19 -49h-222q20 140 99.5 211.5t216.5 71.5q82 0 144.5 -28t96.5 -77.5t34 -111.5q0 -177 -268 -308h228l-37 -197h-587l26 142q186 115 280.5 195.5z" />
    <glyph glyph-name="three" unicode="3" horiz-adv-x="685" 
d="M322 170q29 0 47 16t18 41q0 27 -18 41.5t-52 14.5q-2 0 -7.5 -0.5t-16.5 -0.5l28 155q15 -3 29 -3q33 0 52 15.5t19 42.5q0 21 -14 33.5t-38 12.5q-26 0 -43 -15.5t-21 -43.5h-235q23 119 109 181t228 62q72 0 128 -25.5t87.5 -70t31.5 -98.5q0 -64 -37 -105.5
t-113 -63.5q61 -13 93.5 -51t32.5 -97q0 -65 -37.5 -117.5t-107 -82.5t-161.5 -30q-91 0 -159 30t-106.5 86t-42.5 132h236q8 -59 70 -59z" />
    <glyph glyph-name="four" unicode="4" horiz-adv-x="685" 
d="M-14 132l27 146l333 433h326l-74 -398h67l-33 -181h-67l-24 -132h-238l24 132h-341zM394 489q6 28 13 52h-5q-17 -47 -43 -84l-52 -76q-27 -39 -59 -68h112l27 140q1 8 7 36z" />
    <glyph glyph-name="five" unicode="5" horiz-adv-x="685" 
d="M165 190.5q50 -20.5 101 -20.5q41 0 64.5 18t23.5 46t-21 50.5t-61.5 35.5t-96.5 13q-47 0 -90 -10l121 385h453l-36 -195h-270l-12 -57h17q79 0 136.5 -26t88 -74t30.5 -112q0 -75 -41 -135t-115.5 -94.5t-171.5 -34.5q-150 0 -292 90l70 183q52 -42 102 -62.5z" />
    <glyph glyph-name="six" unicode="6" horiz-adv-x="685" 
d="M437 462q68 0 124 -38q42 -28 65 -71.5t23 -93.5q0 -60 -30 -115t-85 -97q-44 -32 -98 -49t-116 -17q-90 0 -156 34t-102 97t-36 147q0 107 82 218t248 231h344l-323 -253q37 7 60 7zM290 207.5q18 -17.5 44 -17.5t44.5 17.5t18.5 42.5t-18.5 42.5t-44.5 17.5t-44 -17.5
t-18 -42.5t18 -42.5z" />
    <glyph glyph-name="seven" unicode="7" horiz-adv-x="685" 
d="M78 504l42 204h621v-10l-410 -698h-295l355 504h-313z" />
    <glyph glyph-name="eight" unicode="8" horiz-adv-x="685" 
d="M124.5 430.5q-25.5 35.5 -25.5 87.5q0 60 34 106.5t97.5 72.5t150.5 26q89 0 152 -25t96 -71t33 -107q0 -65 -39.5 -107t-114.5 -55q61 -17 95 -59t34 -96q0 -68 -36.5 -118t-106 -77.5t-165.5 -27.5q-98 0 -168.5 27.5t-108 77.5t-37.5 115q0 74 47 119.5t137 58.5
q-49 17 -74.5 52.5zM343 537.5q-16 -16.5 -16 -40.5q0 -21 14 -34.5t38 -13.5q23 0 38.5 16.5t15.5 40.5q0 21 -14.5 34.5t-36.5 13.5q-23 0 -39 -16.5zM300.5 280q-14.5 -10 -23.5 -26.5t-9 -34.5q0 -24 16.5 -40t41.5 -16q28 0 46 19.5t18 49.5q0 25 -16.5 41.5
t-41.5 16.5q-17 0 -31.5 -10z" />
    <glyph glyph-name="nine" unicode="9" horiz-adv-x="685" 
d="M251 243q-63 0 -112 25.5t-75.5 71.5t-26.5 104q0 79 41.5 142t117.5 99.5t174 36.5q88 0 154.5 -34t102.5 -94.5t36 -137.5q0 -188 -176 -331l-156 -125h-344l323 248q-25 -5 -59 -5zM397 495.5q-18 17.5 -44 17.5t-44 -17.5t-18 -42.5t18 -42.5t44 -17.5t44 17.5
t18 42.5t-18 42.5z" />
    <glyph glyph-name="colon" unicode=":" horiz-adv-x="366" 
d="M122 283.5q-30 14.5 -47 39t-17 51.5q0 35 20 64.5t54.5 47.5t76.5 18q36 0 65.5 -15t46.5 -39t17 -51q0 -35 -20 -65t-54.5 -47.5t-75.5 -17.5q-36 0 -66 14.5zM68 2.5q-30 14.5 -47 39t-17 51.5q0 35 20 64.5t54.5 47.5t76.5 18q36 0 65.5 -14.5t46.5 -38.5t17 -51
q0 -35 -20 -65t-54.5 -48t-75.5 -18q-36 0 -66 14.5z" />
    <glyph glyph-name="semicolon" unicode=";" horiz-adv-x="366" 
d="M117 283.5q-30 14.5 -47 39t-17 51.5q0 35 20 64.5t54.5 47.5t76.5 18q36 0 66 -15t47 -39t17 -51q0 -35 -20 -65t-55 -47.5t-76 -17.5q-36 0 -66 14.5zM294 185l-224 -349h-209l180 349h253z" />
    <glyph glyph-name="less" unicode="&#x3c;" horiz-adv-x="833" 
d="M704 138v-146l-575 238v137l575 238v-147l-391 -160z" />
    <glyph glyph-name="equal" unicode="=" horiz-adv-x="833" 
d="M124 347v133h585v-133h-585zM124 117v133h585v-133h-585z" />
    <glyph glyph-name="greater" unicode="&#x3e;" horiz-adv-x="833" 
d="M129 -8v146l391 160l-391 160v147l575 -238v-137z" />
    <glyph glyph-name="question" unicode="?" horiz-adv-x="639" 
d="M244 464q70 0 104.5 18t34.5 56q0 20 -11.5 31t-32.5 11q-22 0 -37.5 -16t-16.5 -42h-236q7 72 47.5 125.5t107.5 82.5t154 29q86 0 149.5 -28t97.5 -79t34 -118q0 -69 -33.5 -121.5t-97.5 -83.5q-33 -16 -72.5 -23t-82 -8.5t-114.5 -1.5h-85l35 170q40 -2 55 -2z
M166.5 -3.5q-29.5 16.5 -46.5 43.5t-17 59q0 40 20 74t55 54t76 20q37 0 66.5 -16.5t46 -45t16.5 -62.5q0 -37 -20.5 -70t-55.5 -53t-75 -20q-36 0 -65.5 16.5z" />
    <glyph glyph-name="at" unicode="@" horiz-adv-x="1000" 
d="M748 485l-76 -306q-2 -10 -2 -15q0 -11 6 -17.5t17 -6.5q39 0 77 31t62 84t24 116q0 75 -38 133.5t-108.5 91t-164.5 32.5q-140 0 -240 -69q-75 -53 -116 -131.5t-41 -170.5q0 -95 44 -166t125 -109.5t190 -38.5q157 0 286 91l56 -78q-80 -59 -166.5 -88t-186.5 -29
q-92 0 -173.5 26.5t-143.5 76.5q-145 116 -145 312q0 86 27 162.5t80 138.5q73 86 176.5 132.5t225.5 46.5q125 0 221 -46t149 -128t53 -187q0 -84 -33.5 -154t-95.5 -118q-35 -27 -76 -41t-84 -14q-53 0 -81.5 18.5t-32.5 56.5q-29 -39 -62.5 -56.5t-78.5 -17.5
q-83 0 -125.5 43t-42.5 128q0 80 32.5 144t88 100.5t123.5 36.5q37 0 64 -14t44 -40l24 40h118zM552 388q-17 18 -44 18q-30 0 -57 -26t-43.5 -70.5t-16.5 -94.5q0 -36 15 -55t42 -19q35 0 63 26.5t39 73.5l23 95q-4 34 -21 52z" />
    <glyph glyph-name="A" unicode="A" horiz-adv-x="715" 
d="M586 715l93 -715h-254l-5 95h-172l-39 -95h-279l373 715h283zM407 341q0 9 -1.5 37.5t-1.5 57.5q0 32 1 50q-19 -59 -36 -103l-50 -119h91z" />
    <glyph glyph-name="B" unicode="B" horiz-adv-x="700" 
d="M378 715q149 0 225.5 -50t76.5 -145q0 -66 -39 -105.5t-114 -47.5q65 -10 101.5 -49t36.5 -97q0 -66 -36 -116t-106 -77.5t-168 -27.5h-355l132 715h246zM414.5 461.5q23.5 11.5 23.5 37.5q0 20 -15 31t-43 11h-34l-17 -91h13q49 0 72.5 11.5zM363 179.5q25 5.5 37 18.5
t12 36q0 26 -18 37.5t-56 11.5h-40l-20 -109h18q42 0 67 5.5z" />
    <glyph glyph-name="C" unicode="C" horiz-adv-x="639" 
d="M378 -19q-67 0 -125.5 21t-105.5 62q-52 45 -80.5 111t-28.5 141q0 80 24.5 149.5t73.5 126.5q57 67 139 103.5t179 36.5q100 0 182 -41l-44 -239q-75 43 -142 43q-44 0 -79.5 -19.5t-55 -54.5t-19.5 -79q0 -38 15.5 -65.5t43.5 -42.5t66 -15q31 0 66.5 11.5t69.5 32.5
l-48 -258q-66 -24 -131 -24z" />
    <glyph glyph-name="D" unicode="D" horiz-adv-x="778" 
d="M325 715q87 0 148.5 -8.5t100.5 -27.5q85 -42 129.5 -115t44.5 -169q0 -90 -39 -169t-110 -132q-70 -52 -159 -73t-215 -21h-225l132 715h193zM401.5 235q41.5 20 63 57t21.5 87q0 56 -35 88.5t-95 32.5h-5l-52 -285h3q58 0 99.5 20z" />
    <glyph glyph-name="E" unicode="E" horiz-adv-x="618" 
d="M622 715l-35 -194h-233l-13 -69h219l-33 -181h-219l-14 -77h254l-36 -194h-512l132 715h490z" />
    <glyph glyph-name="F" unicode="F" horiz-adv-x="580" 
d="M606 715l-36 -194h-212l-16 -86h202l-35 -188h-202l-46 -247h-261l132 715h474z" />
    <glyph glyph-name="G" unicode="G" horiz-adv-x="801" 
d="M397 -19q-107 0 -188.5 42.5t-126 119t-44.5 173.5q0 80 24.5 149.5t73.5 126.5q57 67 139 103t180 36q229 0 324 -183l-232 -86q-19 26 -43 38t-56 12q-45 0 -80 -23t-54.5 -63.5t-19.5 -92.5q0 -44 17.5 -77t49.5 -51t75 -18q18 0 37 3l13 70h-93l30 162h340l-62 -339
q-147 -102 -304 -102z" />
    <glyph glyph-name="H" unicode="H" horiz-adv-x="792" 
d="M391 715l-45 -247h141l45 247h260l-133 -715h-259l48 257h-141l-48 -257h-259l132 715h259z" />
    <glyph glyph-name="I" unicode="I" horiz-adv-x="405" 
d="M400 715l-132 -715h-263l132 715h263z" />
    <glyph glyph-name="J" unicode="J" horiz-adv-x="494" 
d="M70.5 231.5q13.5 -5.5 24.5 -5.5q23 0 36.5 12t21 34.5t14.5 63.5l70 379h261l-77 -417q-10 -55 -20.5 -94t-28.5 -74.5t-46 -65.5q-38 -41 -87.5 -62t-106.5 -21q-86 0 -162 46l67 222q20 -12 33.5 -17.5z" />
    <glyph glyph-name="K" unicode="K" horiz-adv-x="726" 
d="M391 715l-54 -290l191 290h302l-270 -361l146 -354h-280l-109 313l-58 -313h-259l132 715h259z" />
    <glyph glyph-name="L" unicode="L" horiz-adv-x="549" 
d="M396 715l-92 -495h220l-41 -220h-483l132 715h264z" />
    <glyph glyph-name="M" unicode="M" horiz-adv-x="950" 
d="M437 715l24 -232q7 -73 7 -157l171 389h261l-34 -715h-238l31 382q-18 -54 -46 -115l-124 -267h-147l-40 371q-8 -55 -25 -116l-72 -255h-242l214 715h260z" />
    <glyph glyph-name="N" unicode="N" horiz-adv-x="848" 
d="M394 715l82 -227q3 -8 12.5 -33.5t17.5 -54t14 -57.5l69 372h259l-132 -715h-262l-132 369q-1 -35 -8 -79.5t-15 -89.5l-37 -200h-262l132 715h262z" />
    <glyph glyph-name="O" unicode="O" horiz-adv-x="852" 
d="M147 65q-51 45 -80 110.5t-29 140.5q0 161 98 276q57 67 139 103.5t178 36.5q107 0 189 -42.5t127 -119t45 -173.5q0 -80 -24.5 -150t-73.5 -126q-59 -68 -140 -104t-178 -36q-153 0 -251 84zM364.5 474q-32.5 -20 -51 -54.5t-18.5 -76.5q0 -37 14.5 -65.5t41.5 -44
t63 -15.5q40 0 72.5 21t51 56.5t18.5 77.5q0 35 -15.5 62.5t-42.5 43t-61 15.5q-40 0 -72.5 -20z" />
    <glyph glyph-name="P" unicode="P" horiz-adv-x="737" 
d="M407 715q316 0 316 -232q0 -82 -37 -141t-109 -91t-175 -32h-102l-40 -219h-260l132 715h275zM437.5 423q27.5 17 27.5 53q0 27 -23 39.5t-72 12.5h-12l-23 -122h19q56 0 83.5 17z" />
    <glyph glyph-name="Q" unicode="Q" horiz-adv-x="852" 
d="M395 -15q-108 0 -189 42.5t-124.5 117.5t-43.5 172q0 80 24.5 149t73.5 126q57 67 139 103.5t178 36.5q107 0 189 -42.5t127 -118.5t45 -173q0 -120 -55.5 -214.5t-158.5 -151.5l102 -147l-243 -30zM365.5 473q-32.5 -20 -51.5 -55t-19 -77q0 -38 15 -66.5t42 -44
t63 -15.5q39 0 71.5 20.5t51.5 56.5t19 78q0 35 -15.5 63.5t-42.5 44t-61 15.5q-40 0 -72.5 -20z" />
    <glyph glyph-name="R" unicode="R" horiz-adv-x="744" 
d="M407 715q156 0 235.5 -55t79.5 -160q0 -89 -46 -148t-130 -77l103 -275h-265l-78 260l-48 -260h-258l132 715h275zM437 417q28 19 28 60q0 31 -22.5 45.5t-70.5 14.5h-15l-26 -139h19q59 0 87 19z" />
    <glyph glyph-name="S" unicode="S" horiz-adv-x="594" 
d="M174.5 219q48.5 -28 96.5 -28q22 0 34.5 8t12.5 20q0 14 -12 22t-44 20l-19 8q-90 38 -132.5 87.5t-42.5 121.5t36 130t103 90.5t156 32.5q152 0 258 -90l-100 -175q-85 75 -144 75q-18 0 -29 -8.5t-11 -22.5q0 -11 7.5 -19.5t23 -16.5t34.5 -16l26 -11q54 -24 87 -51.5
t49.5 -64t16.5 -86.5q0 -73 -39 -132.5t-109 -94.5t-159 -35q-84 0 -165 33t-154 97l128 187q43 -53 91.5 -81z" />
    <glyph glyph-name="T" unicode="T" horiz-adv-x="583" 
d="M33 498l41 217h562l-40 -217h-148l-92 -498h-262l92 498h-153z" />
    <glyph glyph-name="U" unicode="U" horiz-adv-x="763" 
d="M322 368q-6 -33 -10.5 -59.5t-4.5 -38.5q0 -28 14 -43t40 -15q27 0 41.5 15t22.5 43t19 85l66 360h261l-73 -398q-14 -72 -31.5 -123t-43.5 -86q-45 -61 -114.5 -94t-153.5 -33q-96 0 -165.5 31.5t-106.5 90t-37 139.5q0 28 5.5 67.5t16.5 99.5l56 306h262z" />
    <glyph glyph-name="V" unicode="V" horiz-adv-x="670" 
d="M281 715l26 -224q10 -87 11 -166q21 77 57 156l106 234h284l-390 -715h-232l-121 715h259z" />
    <glyph glyph-name="W" unicode="W" horiz-adv-x="1009" 
d="M279 715l9 -221q3 -52 3 -99q0 -39 -3 -77l156 397h206l25 -393q23 86 44 137l99 256h272l-306 -715h-261l-24 394q-18 -72 -46 -139l-108 -255h-258l-57 715h249z" />
    <glyph glyph-name="X" unicode="X" horiz-adv-x="712" 
d="M48 715h290l31 -69q18 -42 30 -85q10 31 41 73l58 81h317l-298 -362l176 -353h-290l-41 93q-16 36 -22 70q-34 -59 -47 -76l-68 -87h-329l320 382z" />
    <glyph glyph-name="Y" unicode="Y" horiz-adv-x="640" 
d="M-7 715h282l31 -94q19 -57 25 -101q7 26 17.5 45t31.5 51l63 99h310l-323 -422l-54 -293h-262l55 297z" />
    <glyph glyph-name="Z" unicode="Z" horiz-adv-x="660" 
d="M54 504l39 211h657l-365 -497h230l-40 -218h-635l365 504h-251z" />
    <glyph glyph-name="bracketleft" unicode="[" horiz-adv-x="435" 
d="M500 757l-33 -172h-126l-119 -619h127l-34 -171h-331l185 962h331z" />
    <glyph glyph-name="backslash" unicode="\" horiz-adv-x="495" 
d="M434 -93h-113l-260 824h113z" />
    <glyph glyph-name="bracketright" unicode="]" horiz-adv-x="435" 
d="M-94 -205l34 172h126l118 619h-126l33 171h332l-185 -962h-332z" />
    <glyph glyph-name="asciicircum" unicode="^" horiz-adv-x="1000" 
d="M650 438l-150 151l-151 -151h-148l216 276h165l216 -276h-148z" />
    <glyph glyph-name="underscore" unicode="_" horiz-adv-x="500" 
d="M0 -236v138h500v-138h-500z" />
    <glyph glyph-name="grave" unicode="`" horiz-adv-x="500" 
d="M375 575h-91l-134 172h150z" />
    <glyph glyph-name="a" unicode="a" horiz-adv-x="671" 
d="M554 0h-224l18 68q-32 -44 -69 -65t-83 -21q-53 0 -95.5 28t-66.5 79t-24 117q0 57 18.5 112.5t51.5 100.5q38 50 84.5 76t99.5 26q48 0 83 -22t60 -67l9 73h232zM266.5 293.5q-18.5 -22.5 -18.5 -58.5q0 -28 13.5 -42.5t38.5 -14.5q31 0 50.5 22t19.5 56q0 28 -15.5 44
t-40.5 16q-29 0 -47.5 -22.5z" />
    <glyph glyph-name="b" unicode="b" horiz-adv-x="684" 
d="M302 446q60 75 144 75q53 0 95.5 -28t66.5 -79t24 -117q0 -57 -18.5 -112.5t-51.5 -100.5q-38 -50 -84.5 -76t-99.5 -26q-89 0 -136 78l-12 -60h-236l139 757h238l-46 -245q-5 -27 -23 -66zM340.5 193q16.5 10 26 27.5t9.5 39.5q0 28 -15 44.5t-40 16.5q-19 0 -34 -10.5
t-24 -29t-9 -41.5q0 -27 13.5 -42t36.5 -15q20 0 36.5 10z" />
    <glyph glyph-name="c" unicode="c" horiz-adv-x="472" 
d="M254 -19q-71 0 -127 30t-87 83.5t-31 122.5q0 61 21.5 116t61.5 96q44 45 101 68.5t124 23.5q71 0 134 -29l-34 -188q-23 15 -42.5 22.5t-37.5 7.5q-40 0 -64.5 -25t-24.5 -65q0 -35 21.5 -55.5t57.5 -20.5q30 0 67 19l-32 -187q-62 -19 -108 -19z" />
    <glyph glyph-name="d" unicode="d" horiz-adv-x="684" 
d="M332 0l16 62q-31 -41 -67.5 -61t-80.5 -20q-52 0 -95.5 28.5t-68.5 78.5t-25 112q0 59 19 118.5t52 102.5q37 49 84 74.5t100 25.5q46 0 81.5 -22t62.5 -67v12q0 31 6 70l43 243h238l-141 -757h-224zM332.5 190.5q15.5 10.5 25 28t9.5 39.5q0 28 -15 44.5t-40 16.5
q-18 0 -33.5 -10.5t-24.5 -29t-9 -41.5q0 -28 14 -43t39 -15q19 0 34.5 10.5z" />
    <glyph glyph-name="e" unicode="e" horiz-adv-x="603" 
d="M240 164q16 -21 45 -21q21 0 37 10.5t34 34.5l179 -38q-89 -169 -278 -169q-73 0 -130.5 30.5t-89 84t-31.5 121.5q0 61 21 115t60 95q44 46 102 70t122 24q74 0 131 -29.5t89 -81t32 -115.5q0 -36 -4 -72h-335q0 -38 16 -59zM358 324q0 24 -13 38t-35 14q-27 0 -45 -14
t-28 -45h121v7z" />
    <glyph glyph-name="f" unicode="f" horiz-adv-x="441" 
d="M24 324l34 181h62q16 92 47 150t81 86t122 28q56 0 118 -21l-35 -190q-30 16 -50 16q-23 0 -34.5 -16.5t-13.5 -52.5h88l-34 -181h-88l-59 -324h-235l60 324h-63z" />
    <glyph glyph-name="g" unicode="g" horiz-adv-x="684" 
d="M563 48q-25 -130 -106.5 -197t-213.5 -67q-59 0 -116.5 14.5t-117.5 44.5l80 145q33 -22 64 -32.5t65 -10.5q45 0 77 27t46 78l12 43q-64 -84 -154 -84q-56 0 -98.5 25t-66 71t-23.5 106q0 54 18.5 108.5t51.5 98.5q37 50 84 75.5t100 25.5q48 0 83 -21.5t60 -66.5l9 74
h232zM269 299.5q-19 -22.5 -19 -56.5q0 -27 13.5 -41.5t38.5 -14.5q31 0 51 21t20 55q0 27 -15.5 43t-40.5 16q-29 0 -48 -22.5z" />
    <glyph glyph-name="h" unicode="h" horiz-adv-x="660" 
d="M363 757l-47 -247q-7 -35 -21 -77q39 45 79 66t90 21q44 0 76.5 -18t50.5 -52t18 -80t-9 -95l-50 -275h-240l47 254q5 26 5 49q0 14 -8.5 22.5t-21.5 8.5q-28 0 -43.5 -26.5t-25.5 -83.5l-41 -224h-238l139 757h240z" />
    <glyph glyph-name="i" unicode="i" horiz-adv-x="354" 
d="M154 546q-29 15 -45 41t-16 58q0 34 19.5 63.5t52.5 47t72 17.5q35 0 64 -15t45 -41t16 -58q0 -34 -19.5 -63.5t-52.5 -47t-72 -17.5q-35 0 -64 15zM323 505l-93 -505h-238l93 505h238z" />
    <glyph glyph-name="j" unicode="j" horiz-adv-x="354" 
d="M154 546q-29 15 -45 41t-16 58q0 34 19.5 63.5t52.5 47t72 17.5q35 0 64 -15t45 -41t16 -58q0 -34 -19.5 -63.5t-52.5 -47t-72 -17.5q-35 0 -64 15zM323 505l-134 -723h-237l133 723h238z" />
    <glyph glyph-name="k" unicode="k" horiz-adv-x="647" 
d="M362 757l-86 -463l145 211h262l-208 -250l113 -255h-252l-72 226l-42 -226h-236l141 757h235z" />
    <glyph glyph-name="l" unicode="l" horiz-adv-x="354" 
d="M134 757h235l-140 -757h-235z" />
    <glyph glyph-name="m" unicode="m" horiz-adv-x="975" 
d="M302 505l-15 -73q43 45 84 67t87 22t78 -25t51 -75q35 49 82 74t103 25q45 0 79.5 -18.5t53 -53t18.5 -80.5q0 -37 -10 -93l-51 -275h-240l50 253q5 23 5 49q0 14 -7.5 22.5t-20.5 8.5q-19 0 -30.5 -12t-19.5 -35t-15 -62l-41 -224h-241l50 253q5 26 5 45q0 17 -7.5 26
t-21.5 9q-19 0 -30.5 -12t-19.5 -35t-15 -62l-41 -224h-238l94 505h224z" />
    <glyph glyph-name="n" unicode="n" horiz-adv-x="660" 
d="M302 505l-15 -73q87 89 178 89q43 0 76 -18.5t51 -53t18 -79.5q0 -39 -10 -95l-50 -275h-240l47 254q5 26 5 49q0 14 -8.5 22.5t-21.5 8.5q-28 0 -43.5 -26t-25.5 -83l-41 -225h-238l94 505h224z" />
    <glyph glyph-name="o" unicode="o" horiz-adv-x="616" 
d="M27 332q21 54 62 95q45 46 102 69.5t122 23.5q77 0 135.5 -30t90 -84.5t31.5 -126.5q0 -52 -17.5 -99.5t-50.5 -87.5q-44 -53 -107 -82t-136 -29t-130.5 30.5t-90 84t-32.5 120.5q0 62 21 116zM262 308q-16 -11 -25 -29.5t-9 -41.5q0 -25 14.5 -40.5t38.5 -15.5
q31 0 50 23t19 59q0 26 -14 41t-39 15q-19 0 -35 -11z" />
    <glyph glyph-name="p" unicode="p" horiz-adv-x="668" 
d="M303 505l-12 -61q30 39 65 58t79 19q54 0 96.5 -28t67 -78.5t24.5 -114.5q0 -58 -18.5 -115t-51.5 -102q-74 -101 -185 -101q-45 0 -78.5 21t-64.5 68q2 -16 2 -24q0 -18 -3.5 -35t-4.5 -22l-38 -208h-235l133 723h224zM303.5 312q-16.5 -10 -26 -27.5t-9.5 -39.5
q0 -28 15 -44.5t40 -16.5q18 0 33.5 10.5t24.5 29t9 41.5q0 27 -13 42t-37 15q-20 0 -36.5 -10z" />
    <glyph glyph-name="q" unicode="q" horiz-adv-x="684" 
d="M515 -218h-236l39 208q3 20 15 63q-56 -71 -139 -71q-53 0 -95 28t-66 79t-24 117q0 58 18 113.5t51 99.5q38 50 84.5 76t99.5 26q96 0 143 -89l10 73h232zM279 306.5q-15 -10.5 -23.5 -29t-8.5 -41.5q0 -28 14.5 -43t40.5 -15q18 0 33.5 10t24.5 28.5t9 41.5
q0 27 -16 43t-40 16q-19 0 -34 -10.5z" />
    <glyph glyph-name="r" unicode="r" horiz-adv-x="471" 
d="M296 505l-17 -69q26 43 60 64t78 21q21 0 58 -8l-38 -206q-49 17 -81 17q-30 0 -48.5 -10.5t-28.5 -31.5t-16 -57l-41 -225h-238l94 505h218z" />
    <glyph glyph-name="s" unicode="s" horiz-adv-x="481" 
d="M127.5 158q35.5 -19 62.5 -19q12 0 19.5 6t7.5 15q0 10 -7.5 16t-30.5 18l-38 20q-45 23 -66.5 55t-21.5 74q0 50 27 90.5t76 64t113 23.5q50 0 99 -15t100 -46l-81 -136q-26 25 -49.5 37.5t-42.5 12.5q-12 0 -20 -6.5t-8 -15.5q0 -8 6 -12.5t17.5 -10t18.5 -8.5l30 -14
q46 -21 68 -53.5t22 -80.5q0 -56 -28 -99.5t-79.5 -68t-120.5 -24.5q-109 0 -236 85l89 149q38 -38 73.5 -57z" />
    <glyph glyph-name="t" unicode="t" horiz-adv-x="427" 
d="M21 323l34 182h63l26 141h238l-26 -141h73l-34 -182h-73l-60 -323h-237l59 323h-63z" />
    <glyph glyph-name="u" unicode="u" horiz-adv-x="653" 
d="M269 290q-2 -9 -5.5 -28t-3.5 -31q0 -20 10 -31t27 -11q19 0 30 11.5t17.5 32.5t14.5 65l38 207h231l-42 -228q-19 -107 -55 -171t-96.5 -94t-156.5 -30q-81 0 -139 25.5t-88.5 74t-30.5 115.5q0 23 5 56t12 68l34 184h237z" />
    <glyph glyph-name="v" unicode="v" horiz-adv-x="549" 
d="M233 386q6 -42 9 -108q17 56 57 135l46 92h242l-303 -505h-178l-118 505h230z" />
    <glyph glyph-name="w" unicode="w" horiz-adv-x="843" 
d="M222 505l13 -111q3 -27 4.5 -58t2.5 -61l105 230h156l15 -127q5 -48 5 -81q0 -19 -1 -28l109 236h243l-268 -505h-195l-22 251q-9 -28 -21 -56t-19.5 -43l-10.5 -21l-64 -131h-193l-86 505h227z" />
    <glyph glyph-name="x" unicode="x" horiz-adv-x="659" 
d="M14 505h264l29 -53q2 -5 10.5 -21t15.5 -34q17 30 38 57l42 51h272l-239 -257l166 -248h-262l-62 101q-34 -48 -50 -64l-35 -37h-282l252 263z" />
    <glyph glyph-name="y" unicode="y" horiz-adv-x="579" 
d="M0 505h228l25 -125q12 -55 13 -95q9 42 36 96l60 124h249l-425 -723h-260l188 309z" />
    <glyph glyph-name="z" unicode="z" horiz-adv-x="593" 
d="M32 319l34 186h527l-3 -14l-244 -306h188l-35 -185h-537l244 319h-174z" />
    <glyph glyph-name="braceleft" unicode="{" horiz-adv-x="500" 
d="M515 599q-26 0 -40 -7t-22 -23t-14 -47l-21 -116q-8 -44 -19.5 -68.5t-34.5 -39.5t-67 -22q31 -6 48 -15t24.5 -23t7.5 -36q0 -16 -7 -55l-22 -118q-4 -20 -4 -36q0 -22 11.5 -31t39.5 -9l22 1l-29 -159h-39h-45t-63.5 5.5t-42.5 16.5q-32 22 -32 83q0 24 5 59l23 136
q5 30 5 47q0 36 -16.5 51t-52.5 15l-17 -1l25 138l17 -1q44 0 69 26.5t37 86.5l29 145q7 38 15.5 62t23 41.5t39.5 29.5q29 13 65.5 17.5t92.5 4.5h39l-29 -159z" />
    <glyph glyph-name="bar" unicode="|" horiz-adv-x="500" 
d="M182 -236v1000h137v-1000h-137z" />
    <glyph glyph-name="braceright" unicode="}" horiz-adv-x="500" 
d="M-43 -47q26 0 40 7t22 23t14 47l21 116q8 44 19.5 68.5t34.5 39.5t67 22q-31 6 -48 15t-24.5 23t-7.5 36q0 17 7 55l22 118q4 20 4 36q0 22 -11.5 31t-39.5 9l-22 -1l29 159h39h45t63.5 -5.5t42.5 -16.5q32 -22 32 -83q0 -24 -5 -59l-23 -136q-5 -30 -5 -47
q0 -36 16.5 -51t52.5 -15l17 1l-25 -138l-17 1q-44 0 -69 -26.5t-37 -86.5l-29 -145q-7 -38 -15.5 -62t-23 -41.5t-39.5 -29.5q-29 -13 -65.5 -17.5t-92.5 -4.5h-39l29 159z" />
    <glyph glyph-name="asciitilde" unicode="~" horiz-adv-x="833" 
d="M654 216q-44 -16 -88 -16q-32 0 -61.5 7t-68.5 21q-49 17 -85 25.5t-77 8.5q-42 0 -87.5 -19t-99.5 -58v146q56 35 103.5 52.5t95.5 17.5q31 0 63.5 -6.5t72.5 -19.5q11 -3 31 -11q40 -14 64 -20t51 -6q43 0 86.5 18t92.5 55v-146q-49 -33 -93 -49z" />
    <glyph glyph-name="uni00A0" unicode="&#xa0;" horiz-adv-x="343" 
 />
    <glyph glyph-name="exclamdown" unicode="&#xa1;" horiz-adv-x="370" 
d="M317.5 740.5q29.5 -16.5 46.5 -43.5t17 -59q0 -40 -20 -74t-55 -53.5t-76 -19.5q-37 0 -66.5 16.5t-46 44.5t-16.5 62q0 37 20.5 70t55.5 53t75 20q36 0 65.5 -16.5zM2 -16l98 459h228l-80 -459h-246z" />
    <glyph glyph-name="cent" unicode="&#xa2;" horiz-adv-x="685" 
d="M411 -3.5q-25 -4.5 -45 -4.5l-14 -83h-110l18 103q-73 27 -111.5 81.5t-38.5 131.5q0 72 28.5 133.5t81 103.5t124.5 58l13 80h112l-12 -77q64 -7 108 -27l-35 -185q-47 29 -83 29q-27 0 -48 -11.5t-32.5 -31.5t-11.5 -46q0 -34 22.5 -54.5t59.5 -20.5q28 0 69 19
l-33 -184q-37 -10 -62 -14.5z" />
    <glyph glyph-name="sterling" unicode="&#xa3;" horiz-adv-x="685" 
d="M71.5 153q32.5 17 68.5 24q44 42 45 91h-128l27 139h79q-17 49 -17 90q0 65 33 116.5t94.5 80t142.5 28.5q78 0 135 -29t87 -83t30 -129h-185q-8 76 -69 76q-39 0 -62.5 -24.5t-23.5 -65.5q0 -27 8 -60h212l-26 -139h-172v-9q0 -30 -10.5 -51t-34.5 -38q21 0 54 -12
l21 -8q17 -7 35 -7q23 0 47.5 14t53.5 43l114 -121q-53 -51 -108 -74.5t-122 -23.5q-54 0 -94 11l-43 11q-32 9 -54 9q-45 0 -84 -29l-112 126q26 27 58.5 44z" />
    <glyph glyph-name="currency" unicode="&#xa4;" horiz-adv-x="685" 
d="M231.5 577q28.5 8 61.5 8q66 0 115 -33l97 97l65 -66l-96 -99q32 -52 32 -112t-32 -112l96 -98l-65 -67l-97 98q-50 -34 -115 -34q-33 0 -61.5 8.5t-54.5 25.5l-97 -98l-65 67l96 98q-32 49 -32 113q0 61 32 111l-96 99l65 66l97 -97q26 17 54.5 25zM395.5 430.5
q-16.5 27.5 -44 44t-58.5 16.5q-32 0 -59.5 -16.5t-44 -44t-16.5 -58.5q0 -32 16 -59t44 -43.5t60 -16.5t59.5 16.5t43.5 43.5t16 59q0 31 -16.5 58.5z" />
    <glyph glyph-name="yen" unicode="&#xa5;" horiz-adv-x="740" 
d="M0 248l17 89h204l-34 80h-156l17 89h100l-87 202h249l35 -98q20 -55 34 -126q50 91 70 120l69 104h277l-154 -202h103l-16 -89h-156l-61 -80h202l-16 -89h-231l-48 -248h-236l48 248h-230z" />
    <glyph glyph-name="brokenbar" unicode="&#xa6;" horiz-adv-x="500" 
d="M182 329v370h137v-370h-137zM182 -171v370h137v-370h-137z" />
    <glyph glyph-name="section" unicode="&#xa7;" horiz-adv-x="648" 
d="M208 14q0 -30 16 -46t45 -16t47.5 16t18.5 40t-16.5 37t-52.5 22l-73 18q-87 21 -130 62.5t-43 104.5q0 62 36.5 104.5t103.5 57.5q-30 24 -47.5 55t-17.5 69q0 53 34.5 97.5t97 70.5t142.5 26q79 0 136.5 -26t89 -74.5t31.5 -113.5h-197v5q0 28 -17 44t-46 16
q-26 0 -43 -14t-17 -34t20 -33.5t62 -23.5l62 -15q84 -20 125 -62t41 -108q0 -62 -36.5 -105t-102.5 -59q34 -23 50.5 -53t16.5 -67q0 -57 -34 -103t-97.5 -72t-147.5 -26q-120 0 -186 55t-71 159h200v-8zM287 328.5q-18 -10.5 -28 -28t-10 -37.5q0 -23 16 -37t44 -14
q35 0 56.5 21.5t21.5 54.5q0 24 -16 37.5t-44 13.5q-22 0 -40 -10.5z" />
    <glyph glyph-name="dieresis" unicode="&#xa8;" horiz-adv-x="500" 
d="M153 701.5q10 16.5 26.5 26.5t36.5 10t37 -9.5t26.5 -26t9.5 -36.5q0 -32 -20.5 -52.5t-52.5 -20.5q-20 0 -37 9.5t-26.5 26t-9.5 37.5q0 19 10 35.5zM335 701.5q10 16.5 26.5 26.5t35.5 10q20 0 36.5 -9.5t26.5 -26t10 -36.5q0 -32 -20.5 -52.5t-52.5 -20.5
q-20 0 -36.5 9.5t-26 26.5t-9.5 37q0 19 10 35.5z" />
    <glyph glyph-name="copyright" unicode="&#xa9;" horiz-adv-x="833" 
d="M558.5 701.5q67.5 -27.5 119.5 -79.5q51 -51 78.5 -118.5t27.5 -141.5q0 -76 -27 -141.5t-79 -115.5q-54 -53 -122 -81.5t-140 -28.5q-73 0 -139 28t-119 81q-52 52 -80 118.5t-28 139.5t28 140.5t81 121.5q50 51 116 78t141 27t142.5 -27.5zM687 475q-22 53 -63 94
q-42 42 -94.5 64t-112.5 22t-112.5 -21.5t-92.5 -62.5q-42 -43 -64.5 -96.5t-22.5 -111.5t22 -111t64 -95t94.5 -64t111.5 -22q58 0 111.5 22t96.5 65q41 41 62.5 92.5t21.5 112.5q0 59 -22 112zM463 479.5q-17 17.5 -45 17.5q-35 0 -55.5 -34.5t-20.5 -98.5q0 -128 80 -128
q29 0 44.5 17.5t17.5 52.5h121q-2 -48 -25.5 -84t-65 -55.5t-95.5 -19.5q-63 0 -109 25.5t-70.5 73.5t-24.5 114q0 65 25 114.5t69.5 76.5t100.5 27q87 0 136.5 -39t53.5 -108h-118q-2 31 -19 48.5z" />
    <glyph glyph-name="ordfeminine" unicode="&#xaa;" horiz-adv-x="503" 
d="M416 362h-168l13 48q-23 -31 -51.5 -46t-62.5 -15q-39 0 -71 19.5t-50 55.5t-18 82q0 40 13.5 79t38.5 70q29 35 63.5 53.5t74.5 18.5q71 0 107 -63l7 51h174zM200 567q-14 -16 -14 -41q0 -19 10 -29t29 -10q23 0 38 15t15 39q0 20 -11.5 31t-30.5 11q-22 0 -36 -16z" />
    <glyph glyph-name="guillemotleft" unicode="&#xab;" horiz-adv-x="556" 
d="M263 103l-112 -78l-145 237l188 214l97 -79l-125 -140zM504 103l-113 -78l-144 237l187 214l97 -79l-125 -140z" />
    <glyph glyph-name="logicalnot" unicode="&#xac;" horiz-adv-x="833" 
d="M576 179v115h-452v130h585v-245h-133z" />
    <glyph glyph-name="uni00AD" unicode="&#xad;" horiz-adv-x="440" 
d="M407 351l-38 -200h-374l39 200h373z" />
    <glyph glyph-name="registered" unicode="&#xae;" horiz-adv-x="833" 
d="M558.5 701.5q67.5 -27.5 119.5 -79.5q51 -51 78.5 -118.5t27.5 -141.5q0 -76 -27 -141.5t-79 -115.5q-54 -53 -122 -81.5t-140 -28.5q-73 0 -139 28t-119 81q-52 52 -80 118.5t-28 139.5t28 140.5t81 121.5q50 51 116 78t141 27t142.5 -27.5zM687 475q-22 53 -63 94
q-42 42 -94.5 64t-112.5 22t-112.5 -21.5t-92.5 -62.5q-42 -43 -64.5 -96.5t-22.5 -111.5t22 -111t64 -95t94.5 -64t111.5 -22q58 0 111.5 22t96.5 65q41 41 62.5 92.5t21.5 112.5q0 59 -22 112zM551 539q44 -30 44 -87q0 -38 -20.5 -66t-59.5 -41l87 -173h-136l-71 152h-12
v-152h-125v397h163q86 0 130 -30zM383 397h26q28 0 43 12.5t15 35.5q0 24 -16 35t-49 11h-19v-94z" />
    <glyph glyph-name="macron" unicode="&#xaf;" horiz-adv-x="500" 
d="M467 718l-17 -94h-299l17 94h299z" />
    <glyph glyph-name="degree" unicode="&#xb0;" horiz-adv-x="329" 
d="M244 698q36 -21 57 -57.5t21 -79.5q0 -42 -21 -78t-57.5 -57.5t-79.5 -21.5t-79 21t-57 57t-21 79t21.5 79.5t58 57.5t78.5 21q43 0 79 -21zM229 599q-10 17 -27.5 27t-37.5 10t-36.5 -10t-26.5 -27t-10 -37t10 -37.5t26.5 -27.5t37.5 -10q20 0 37 10.5t27 27.5t10 37
t-10 37z" />
    <glyph glyph-name="plusminus" unicode="&#xb1;" horiz-adv-x="833" 
d="M709 465v-133h-224v-151h-137v151h-224v133h224v151h137v-151h224zM124 -20v133h585v-133h-585z" />
    <glyph glyph-name="twosuperior" unicode="&#xb2;" 
d="M194.5 483.5q62.5 48.5 62.5 73.5q0 13 -8 20t-22 7q-16 0 -27 -10.5t-13 -29.5h-146q13 85 65.5 127.5t142.5 42.5q54 0 95.5 -16.5t64 -46.5t22.5 -67q0 -107 -177 -185h151l-25 -118h-387l17 85q122 69 184.5 117.5z" />
    <glyph glyph-name="threesuperior" unicode="&#xb3;" 
d="M213 383q19 0 30.5 9.5t11.5 24.5q0 34 -46 34q-1 0 -4.5 -0.5t-11.5 -0.5l19 93q12 -2 19 -2q22 0 34.5 9.5t12.5 25.5q0 13 -9 20.5t-25 7.5q-17 0 -28.5 -9.5t-14.5 -26.5h-155q16 72 72.5 109t150.5 37q47 0 84 -15.5t58 -42t21 -58.5q0 -39 -24.5 -63.5t-74.5 -38.5
q40 -7 61.5 -30t21.5 -58q0 -39 -24.5 -70.5t-70.5 -49.5t-107 -18q-60 0 -105 18t-70 51.5t-28 78.5h155q6 -35 47 -35z" />
    <glyph glyph-name="acute" unicode="&#xb4;" horiz-adv-x="500" 
d="M464 746l-181 -172h-93l108 172h166z" />
    <glyph glyph-name="mu" unicode="&#xb5;" horiz-adv-x="670" 
d="M251 205q0 -33 15.5 -49t46.5 -16q39 0 60.5 25.5t29.5 78.5l41 287h204l-77 -531h-180l9 64q-18 -34 -40.5 -50t-51.5 -16q-60 0 -86 61l-35 -265h-201l102 737h206l-41 -300q-2 -18 -2 -26z" />
    <glyph glyph-name="paragraph" unicode="&#xb6;" horiz-adv-x="500" 
d="M446 0h-99v653h-68v-653h-99v383q-53 2 -92.5 24.5t-61 60t-21.5 84.5q0 50 23 88.5t66 60t101 21.5h300v-69h-49v-653z" />
    <glyph glyph-name="periodcentered" unicode="&#xb7;" horiz-adv-x="343" 
d="M96.5 234.5q-29.5 16.5 -46.5 43.5t-17 59q0 40 20 74t55 53.5t76 19.5q37 0 66.5 -16.5t46 -44.5t16.5 -62q0 -37 -20.5 -70t-55.5 -53t-75 -20q-36 0 -65.5 16.5z" />
    <glyph glyph-name="cedilla" unicode="&#xb8;" horiz-adv-x="500" 
d="M156 -169q20 0 30.5 8t10.5 23t-17.5 21.5t-59.5 6.5h-11l36 110h58l-16 -45q114 -2 114 -85q0 -55 -35 -85.5t-101 -30.5q-51 0 -144 29l26 73q63 -25 109 -25z" />
    <glyph glyph-name="onesuperior" unicode="&#xb9;" 
d="M114 585l25 121h218l-87 -425h-162l62 304h-56z" />
    <glyph glyph-name="ordmasculine" unicode="&#xba;" horiz-adv-x="462" 
d="M20.5 594.5q15.5 37.5 46.5 66.5q34 32 76.5 48.5t91.5 16.5q58 0 101.5 -21t67.5 -59t24 -89q0 -36 -13 -69.5t-38 -61.5q-33 -37 -80.5 -57t-102.5 -20t-98 21t-67 58.5t-24 84.5q0 44 15.5 81.5zM186 568.5q-15 -16.5 -15 -40.5q0 -18 11 -28.5t29 -10.5q23 0 37.5 16
t14.5 41q0 19 -10.5 29t-29.5 10q-22 0 -37 -16.5z" />
    <glyph glyph-name="guillemotright" unicode="&#xbb;" horiz-adv-x="556" 
d="M12 399l113 77l145 -236l-188 -214l-97 78l125 140zM253 399l113 77l144 -236l-187 -214l-97 78l125 140z" />
    <glyph glyph-name="onequarter" unicode="&#xbc;" horiz-adv-x="1030" 
d="M765 722l-392 -741h-108l392 741h108zM109 593l23 112h208l-83 -396h-154l59 284h-53zM590 74l17 82l210 242h205l-46 -223h42l-21 -101h-42l-15 -74h-150l15 74h-215zM848.5 278q3.5 15 6.5 25h-3q-12 -30 -27 -47l-33 -43q-18 -23 -37 -38h71l17 79q2 9 5.5 24z" />
    <glyph glyph-name="onehalf" unicode="&#xbd;" horiz-adv-x="1030" 
d="M765 722l-392 -741h-108l392 741h108zM109 593l23 112h208l-83 -396h-154l59 284h-53zM785 189q60 45 60 69q0 11 -8 18t-21 7q-15 0 -26 -9.5t-12 -27.5h-140q12 79 62.5 118.5t136.5 39.5q52 0 91 -15.5t60.5 -43t21.5 -62.5q0 -99 -168 -173h143l-23 -110h-370l16 80
q117 64 177 109z" />
    <glyph glyph-name="threequarters" unicode="&#xbe;" horiz-adv-x="1030" 
d="M765 722l-392 -741h-108l392 741h108zM203 404q18 0 29.5 9t11.5 23q0 15 -11 23t-33 8h-15l17 87q14 -2 18 -2q21 0 33 9t12 24q0 11 -8.5 18t-24.5 7t-26.5 -8.5t-13.5 -24.5h-148q15 67 69 101.5t143 34.5q45 0 80.5 -14t55.5 -39t20 -55q0 -36 -23.5 -59.5
t-70.5 -35.5q38 -7 58.5 -28.5t20.5 -54.5q0 -37 -23.5 -66t-67.5 -46t-102 -17q-57 0 -100 17t-67 48.5t-27 73.5h149q5 -33 44 -33zM590 74l17 82l210 242h205l-46 -223h42l-21 -101h-42l-15 -74h-150l15 74h-215zM848.5 278q3.5 15 6.5 25h-3q-12 -30 -27 -47l-33 -43
q-18 -23 -37 -38h71l17 79q2 9 5.5 24z" />
    <glyph glyph-name="questiondown" unicode="&#xbf;" horiz-adv-x="639" 
d="M479 742.5q30 -16.5 47 -43.5t17 -59q0 -40 -20 -74t-55 -53.5t-76 -19.5q-37 0 -66.5 16.5t-46 44.5t-16.5 62q0 37 20.5 70t55 53t74.5 20q36 0 66 -16.5zM402 275q-70 0 -105 -18t-35 -56q0 -19 12 -30t33 -11q22 0 37.5 15.5t16.5 41.5h236q-7 -72 -47.5 -125.5
t-107.5 -82.5t-154 -29q-86 0 -149.5 28t-97.5 79.5t-34 118.5q0 69 33 121t97 83q33 16 72.5 23t82 8.5t115.5 1.5h85l-35 -170q-40 2 -55 2z" />
    <glyph glyph-name="Agrave" unicode="&#xc0;" horiz-adv-x="715" 
d="M586 715l93 -715h-254l-5 95h-172l-39 -95h-279l373 715h283zM407 341q0 9 -1.5 37.5t-1.5 57.5q0 32 1 50q-19 -59 -36 -103l-50 -119h91zM543 786h-91l-134 172h150z" />
    <glyph glyph-name="Aacute" unicode="&#xc1;" horiz-adv-x="715" 
d="M586 715l93 -715h-254l-5 95h-172l-39 -95h-279l373 715h283zM407 341q0 9 -1.5 37.5t-1.5 57.5q0 32 1 50q-19 -59 -36 -103l-50 -119h91zM612 958l-181 -172h-93l108 172h166z" />
    <glyph glyph-name="Acircumflex" unicode="&#xc2;" horiz-adv-x="715" 
d="M586 715l93 -715h-254l-5 95h-172l-39 -95h-279l373 715h283zM407 341q0 9 -1.5 37.5t-1.5 57.5q0 32 1 50q-19 -59 -36 -103l-50 -119h91zM476 868l-95 -82h-89l122 172h143l58 -172h-79z" />
    <glyph glyph-name="Atilde" unicode="&#xc3;" horiz-adv-x="715" 
d="M586 715l93 -715h-254l-5 95h-172l-39 -95h-279l373 715h283zM407 341q0 9 -1.5 37.5t-1.5 57.5q0 32 1 50q-19 -59 -36 -103l-50 -119h91zM576.5 849.5q-27.5 -33.5 -70.5 -33.5q-22 0 -43 7l-31 10q-20 6 -31 6q-34 0 -44 -33h-61q29 136 113 136q19 0 45 -8l31 -10
q18 -6 27 -6q19 0 29 8.5t18 30.5h62q-17 -74 -44.5 -107.5z" />
    <glyph glyph-name="Adieresis" unicode="&#xc4;" horiz-adv-x="715" 
d="M586 715l93 -715h-254l-5 95h-172l-39 -95h-279l373 715h283zM407 341q0 9 -1.5 37.5t-1.5 57.5q0 32 1 50q-19 -59 -36 -103l-50 -119h91zM310 912.5q10 16.5 26.5 26.5t36.5 10t37 -9.5t26.5 -26t9.5 -36.5q0 -32 -20.5 -52.5t-52.5 -20.5q-20 0 -37 9.5t-26.5 26
t-9.5 37.5q0 19 10 35.5zM492 912.5q10 16.5 26.5 26.5t35.5 10q20 0 36.5 -9.5t26.5 -26t10 -36.5q0 -32 -20.5 -52.5t-52.5 -20.5q-20 0 -36.5 9.5t-26 26.5t-9.5 37q0 19 10 35.5z" />
    <glyph glyph-name="Aring" unicode="&#xc5;" horiz-adv-x="715" 
d="M390 713v2q-35 15 -55.5 47t-20.5 70q0 36 17.5 66t47 47.5t65.5 17.5t66 -17.5t47.5 -48t17.5 -65.5q0 -82 -75 -117v-2l82 2l97 -715h-254l-5 95h-172l-39 -95h-279l375 715zM407 794q16 -16 38 -16q23 0 38.5 16t15.5 38q0 23 -16 39t-38 16t-38 -16t-16 -39
q0 -22 16 -38zM407 341q0 9 -1.5 37.5t-1.5 57.5q0 32 1 50q-19 -59 -36 -103l-50 -119h91z" />
    <glyph glyph-name="AE" unicode="&#xc6;" horiz-adv-x="851" 
d="M756 715l22 -192h-212l10 -73h195l21 -178h-195l10 -80h217l23 -192h-451l-7 98h-168l-39 -98h-260l353 715h481zM372 493q-14 -55 -44 -129l-41 -99h94z" />
    <glyph glyph-name="Ccedilla" unicode="&#xc7;" horiz-adv-x="639" 
d="M378 -19q-67 0 -125.5 21t-105.5 62q-52 45 -80.5 111t-28.5 141q0 80 24.5 149.5t73.5 126.5q57 67 139 103.5t179 36.5q100 0 182 -41l-44 -239q-75 43 -142 43q-44 0 -79.5 -19.5t-55 -54.5t-19.5 -79q0 -38 15.5 -65.5t43.5 -42.5t66 -15q31 0 66.5 11.5t69.5 32.5
l-48 -258q-66 -24 -131 -24zM325 -173q22 0 34 9.5t12 25.5q0 18 -19.5 25t-62.5 7h-11l36 106h58l-16 -45q114 -2 114 -85q0 -53 -35 -83t-101 -30q-51 0 -144 29l26 66q63 -25 109 -25z" />
    <glyph glyph-name="Egrave" unicode="&#xc8;" horiz-adv-x="618" 
d="M622 715l-35 -194h-233l-13 -69h219l-33 -181h-219l-14 -77h254l-36 -194h-512l132 715h490zM484 786h-91l-134 172h150z" />
    <glyph glyph-name="Eacute" unicode="&#xc9;" horiz-adv-x="618" 
d="M622 715l-35 -194h-233l-13 -69h219l-33 -181h-219l-14 -77h254l-36 -194h-512l132 715h490zM553 958l-181 -172h-93l108 172h166z" />
    <glyph glyph-name="Ecircumflex" unicode="&#xca;" horiz-adv-x="618" 
d="M622 715l-35 -194h-233l-13 -69h219l-33 -181h-219l-14 -77h254l-36 -194h-512l132 715h490zM417 868l-95 -82h-89l122 172h143l58 -172h-79z" />
    <glyph glyph-name="Edieresis" unicode="&#xcb;" horiz-adv-x="618" 
d="M622 715l-35 -194h-233l-13 -69h219l-33 -181h-219l-14 -77h254l-36 -194h-512l132 715h490zM251 912.5q10 16.5 26.5 26.5t36.5 10t37 -9.5t26.5 -26t9.5 -36.5q0 -32 -20.5 -52.5t-52.5 -20.5q-20 0 -37 9.5t-26.5 26t-9.5 37.5q0 19 10 35.5zM433 912.5
q10 16.5 26.5 26.5t35.5 10q20 0 36.5 -9.5t26.5 -26t10 -36.5q0 -32 -20.5 -52.5t-52.5 -20.5q-20 0 -36.5 9.5t-26 26.5t-9.5 37q0 19 10 35.5z" />
    <glyph glyph-name="Igrave" unicode="&#xcc;" horiz-adv-x="405" 
d="M400 715l-132 -715h-263l132 715h263zM365 786h-91l-134 172h150z" />
    <glyph glyph-name="Iacute" unicode="&#xcd;" horiz-adv-x="405" 
d="M400 715l-132 -715h-263l132 715h263zM434 958l-181 -172h-93l108 172h166z" />
    <glyph glyph-name="Icircumflex" unicode="&#xce;" horiz-adv-x="405" 
d="M400 715l-132 -715h-263l132 715h263zM298 868l-95 -82h-89l122 172h143l58 -172h-79z" />
    <glyph glyph-name="Idieresis" unicode="&#xcf;" horiz-adv-x="405" 
d="M400 715l-132 -715h-263l132 715h263zM132 912.5q10 16.5 26.5 26.5t36.5 10t37 -9.5t26.5 -26t9.5 -36.5q0 -32 -20.5 -52.5t-52.5 -20.5q-20 0 -37 9.5t-26.5 26t-9.5 37.5q0 19 10 35.5zM314 912.5q10 16.5 26.5 26.5t35.5 10q20 0 36.5 -9.5t26.5 -26t10 -36.5
q0 -32 -20.5 -52.5t-52.5 -20.5q-20 0 -36.5 9.5t-26 26.5t-9.5 37q0 19 10 35.5z" />
    <glyph glyph-name="Eth" unicode="&#xd0;" horiz-adv-x="789" 
d="M-12 285l29 156h76l51 274h193q87 0 148.5 -8.5t100.5 -27.5q85 -42 129.5 -115t44.5 -169q0 -90 -39 -169t-110 -132q-70 -52 -159 -73t-215 -21h-225l53 285h-77zM314 197q98 0 150 48t52 136q0 66 -36 101t-105 35q-16 0 -25 -1l-16 -82h103l-26 -142h-103l-17 -94z
" />
    <glyph glyph-name="Ntilde" unicode="&#xd1;" horiz-adv-x="848" 
d="M394 715l82 -227q3 -8 12.5 -33.5t17.5 -54t14 -57.5l69 372h259l-132 -715h-262l-132 369q-1 -35 -8 -79.5t-15 -89.5l-37 -200h-262l132 715h262zM626.5 849.5q-27.5 -33.5 -70.5 -33.5q-22 0 -43 7l-31 10q-20 6 -31 6q-34 0 -44 -33h-61q29 136 113 136q19 0 45 -8
l31 -10q18 -6 27 -6q19 0 29 8.5t18 30.5h62q-17 -74 -44.5 -107.5z" />
    <glyph glyph-name="Ograve" unicode="&#xd2;" horiz-adv-x="852" 
d="M147 65q-51 45 -80 110.5t-29 140.5q0 161 98 276q57 67 139 103.5t178 36.5q107 0 189 -42.5t127 -119t45 -173.5q0 -80 -24.5 -150t-73.5 -126q-59 -68 -140 -104t-178 -36q-153 0 -251 84zM364.5 474q-32.5 -20 -51 -54.5t-18.5 -76.5q0 -37 14.5 -65.5t41.5 -44
t63 -15.5q40 0 72.5 21t51 56.5t18.5 77.5q0 35 -15.5 62.5t-42.5 43t-61 15.5q-40 0 -72.5 -20zM568 786h-91l-134 172h150z" />
    <glyph glyph-name="Oacute" unicode="&#xd3;" horiz-adv-x="852" 
d="M147 65q-51 45 -80 110.5t-29 140.5q0 161 98 276q57 67 139 103.5t178 36.5q107 0 189 -42.5t127 -119t45 -173.5q0 -80 -24.5 -150t-73.5 -126q-59 -68 -140 -104t-178 -36q-153 0 -251 84zM364.5 474q-32.5 -20 -51 -54.5t-18.5 -76.5q0 -37 14.5 -65.5t41.5 -44
t63 -15.5q40 0 72.5 21t51 56.5t18.5 77.5q0 35 -15.5 62.5t-42.5 43t-61 15.5q-40 0 -72.5 -20zM637 958l-181 -172h-93l108 172h166z" />
    <glyph glyph-name="Ocircumflex" unicode="&#xd4;" horiz-adv-x="852" 
d="M147 65q-51 45 -80 110.5t-29 140.5q0 161 98 276q57 67 139 103.5t178 36.5q107 0 189 -42.5t127 -119t45 -173.5q0 -80 -24.5 -150t-73.5 -126q-59 -68 -140 -104t-178 -36q-153 0 -251 84zM364.5 474q-32.5 -20 -51 -54.5t-18.5 -76.5q0 -37 14.5 -65.5t41.5 -44
t63 -15.5q40 0 72.5 21t51 56.5t18.5 77.5q0 35 -15.5 62.5t-42.5 43t-61 15.5q-40 0 -72.5 -20zM501 868l-95 -82h-89l122 172h143l58 -172h-79z" />
    <glyph glyph-name="Otilde" unicode="&#xd5;" horiz-adv-x="852" 
d="M147 65q-51 45 -80 110.5t-29 140.5q0 161 98 276q57 67 139 103.5t178 36.5q107 0 189 -42.5t127 -119t45 -173.5q0 -80 -24.5 -150t-73.5 -126q-59 -68 -140 -104t-178 -36q-153 0 -251 84zM364.5 474q-32.5 -20 -51 -54.5t-18.5 -76.5q0 -37 14.5 -65.5t41.5 -44
t63 -15.5q40 0 72.5 21t51 56.5t18.5 77.5q0 35 -15.5 62.5t-42.5 43t-61 15.5q-40 0 -72.5 -20zM601.5 849.5q-27.5 -33.5 -70.5 -33.5q-22 0 -43 7l-31 10q-20 6 -31 6q-34 0 -44 -33h-61q29 136 113 136q19 0 45 -8l31 -10q18 -6 27 -6q19 0 29 8.5t18 30.5h62
q-17 -74 -44.5 -107.5z" />
    <glyph glyph-name="Odieresis" unicode="&#xd6;" horiz-adv-x="852" 
d="M147 65q-51 45 -80 110.5t-29 140.5q0 161 98 276q57 67 139 103.5t178 36.5q107 0 189 -42.5t127 -119t45 -173.5q0 -80 -24.5 -150t-73.5 -126q-59 -68 -140 -104t-178 -36q-153 0 -251 84zM364.5 474q-32.5 -20 -51 -54.5t-18.5 -76.5q0 -37 14.5 -65.5t41.5 -44
t63 -15.5q40 0 72.5 21t51 56.5t18.5 77.5q0 35 -15.5 62.5t-42.5 43t-61 15.5q-40 0 -72.5 -20zM335 912.5q10 16.5 26.5 26.5t36.5 10t37 -9.5t26.5 -26t9.5 -36.5q0 -32 -20.5 -52.5t-52.5 -20.5q-20 0 -37 9.5t-26.5 26t-9.5 37.5q0 19 10 35.5zM517 912.5
q10 16.5 26.5 26.5t35.5 10q20 0 36.5 -9.5t26.5 -26t10 -36.5q0 -32 -20.5 -52.5t-52.5 -20.5q-20 0 -36.5 9.5t-26 26.5t-9.5 37q0 19 10 35.5z" />
    <glyph glyph-name="multiply" unicode="&#xd7;" horiz-adv-x="833" 
d="M730 506l-208 -208l208 -208l-95 -95l-208 208l-208 -208l-95 95l208 208l-208 208l95 95l208 -208l208 208z" />
    <glyph glyph-name="Oslash" unicode="&#xd8;" horiz-adv-x="852" 
d="M126 83q-44 50 -66 109t-22 123q0 80 24.5 150.5t73.5 128.5q57 68 139.5 104t179.5 36q124 0 214 -59l56 59l54 -48l-52 -58q87 -99 87 -231q0 -81 -24.5 -151t-73.5 -127q-58 -69 -139.5 -104.5t-179.5 -35.5q-127 0 -213 57l-65 -69l-57 46zM441 514
q-46 0 -83.5 -23.5t-59 -63t-21.5 -86.5q0 -35 18 -74l211 229q-34 18 -65 18zM414 200q45 0 81.5 24t57.5 64.5t21 89.5q0 37 -16 66l-211 -230q29 -14 67 -14z" />
    <glyph glyph-name="Ugrave" unicode="&#xd9;" horiz-adv-x="763" 
d="M322 368q-6 -33 -10.5 -59.5t-4.5 -38.5q0 -28 14 -43t40 -15q27 0 41.5 15t22.5 43t19 85l66 360h261l-73 -398q-14 -72 -31.5 -123t-43.5 -86q-45 -61 -114.5 -94t-153.5 -33q-96 0 -165.5 31.5t-106.5 90t-37 139.5q0 28 5.5 67.5t16.5 99.5l56 306h262zM564 786h-91
l-134 172h150z" />
    <glyph glyph-name="Uacute" unicode="&#xda;" horiz-adv-x="763" 
d="M322 368q-6 -33 -10.5 -59.5t-4.5 -38.5q0 -28 14 -43t40 -15q27 0 41.5 15t22.5 43t19 85l66 360h261l-73 -398q-14 -72 -31.5 -123t-43.5 -86q-45 -61 -114.5 -94t-153.5 -33q-96 0 -165.5 31.5t-106.5 90t-37 139.5q0 28 5.5 67.5t16.5 99.5l56 306h262zM633 958
l-181 -172h-93l108 172h166z" />
    <glyph glyph-name="Ucircumflex" unicode="&#xdb;" horiz-adv-x="763" 
d="M322 368q-6 -33 -10.5 -59.5t-4.5 -38.5q0 -28 14 -43t40 -15q27 0 41.5 15t22.5 43t19 85l66 360h261l-73 -398q-14 -72 -31.5 -123t-43.5 -86q-45 -61 -114.5 -94t-153.5 -33q-96 0 -165.5 31.5t-106.5 90t-37 139.5q0 28 5.5 67.5t16.5 99.5l56 306h262zM497 868
l-95 -82h-89l122 172h143l58 -172h-79z" />
    <glyph glyph-name="Udieresis" unicode="&#xdc;" horiz-adv-x="763" 
d="M322 368q-6 -33 -10.5 -59.5t-4.5 -38.5q0 -28 14 -43t40 -15q27 0 41.5 15t22.5 43t19 85l66 360h261l-73 -398q-14 -72 -31.5 -123t-43.5 -86q-45 -61 -114.5 -94t-153.5 -33q-96 0 -165.5 31.5t-106.5 90t-37 139.5q0 28 5.5 67.5t16.5 99.5l56 306h262zM331 912.5
q10 16.5 26.5 26.5t36.5 10t37 -9.5t26.5 -26t9.5 -36.5q0 -32 -20.5 -52.5t-52.5 -20.5q-20 0 -37 9.5t-26.5 26t-9.5 37.5q0 19 10 35.5zM513 912.5q10 16.5 26.5 26.5t35.5 10q20 0 36.5 -9.5t26.5 -26t10 -36.5q0 -32 -20.5 -52.5t-52.5 -20.5q-20 0 -36.5 9.5t-26 26.5
t-9.5 37q0 19 10 35.5z" />
    <glyph glyph-name="Yacute" unicode="&#xdd;" horiz-adv-x="640" 
d="M-7 715h282l31 -94q19 -57 25 -101q7 26 17.5 45t31.5 51l63 99h310l-323 -422l-54 -293h-262l55 297zM541 958l-181 -172h-93l108 172h166z" />
    <glyph glyph-name="Thorn" unicode="&#xde;" horiz-adv-x="743" 
d="M392 715l-20 -109h13q157 0 237 -58t80 -172q0 -83 -37 -143t-109 -92t-175 -32h-102l-19 -109h-260l132 715h260zM417 313.5q27 16.5 27 52.5q0 27 -23.5 39.5t-72.5 12.5h-12l-22 -121h20q56 0 83 16.5z" />
    <glyph glyph-name="germandbls" unicode="&#xdf;" horiz-adv-x="689" 
d="M94 523q23 126 96.5 185t208.5 59q73 0 128 -25t84.5 -68.5t29.5 -98.5q0 -61 -35.5 -101t-102.5 -53q62 -14 95.5 -56.5t33.5 -108.5q0 -52 -17.5 -98.5t-50.5 -84.5q-36 -40 -87.5 -58.5t-124.5 -18.5l-54 2l-30 2l27 143q12 -2 17 -2q25 0 45.5 18.5t32 52t11.5 77.5
q0 36 -15 52t-52 17l27 142q24 -4 39 -4q20 0 31 12t11 34q0 20 -13 32.5t-35 12.5q-24 0 -38 -14.5t-22 -41t-17 -77.5l-86 -454h-234z" />
    <glyph glyph-name="agrave" unicode="&#xe0;" horiz-adv-x="671" 
d="M554 0h-224l18 68q-32 -44 -69 -65t-83 -21q-53 0 -95.5 28t-66.5 79t-24 117q0 57 18.5 112.5t51.5 100.5q38 50 84.5 76t99.5 26q48 0 83 -22t60 -67l9 73h232zM266.5 293.5q-18.5 -22.5 -18.5 -58.5q0 -28 13.5 -42.5t38.5 -14.5q31 0 50.5 22t19.5 56q0 28 -15.5 44
t-40.5 16q-29 0 -47.5 -22.5zM473 575h-91l-134 172h150z" />
    <glyph glyph-name="aacute" unicode="&#xe1;" horiz-adv-x="671" 
d="M554 0h-224l18 68q-32 -44 -69 -65t-83 -21q-53 0 -95.5 28t-66.5 79t-24 117q0 57 18.5 112.5t51.5 100.5q38 50 84.5 76t99.5 26q48 0 83 -22t60 -67l9 73h232zM266.5 293.5q-18.5 -22.5 -18.5 -58.5q0 -28 13.5 -42.5t38.5 -14.5q31 0 50.5 22t19.5 56q0 28 -15.5 44
t-40.5 16q-29 0 -47.5 -22.5zM562 746l-181 -172h-93l108 172h166z" />
    <glyph glyph-name="acircumflex" unicode="&#xe2;" horiz-adv-x="671" 
d="M554 0h-224l18 68q-32 -44 -69 -65t-83 -21q-53 0 -95.5 28t-66.5 79t-24 117q0 57 18.5 112.5t51.5 100.5q38 50 84.5 76t99.5 26q48 0 83 -22t60 -67l9 73h232zM266.5 293.5q-18.5 -22.5 -18.5 -58.5q0 -28 13.5 -42.5t38.5 -14.5q31 0 50.5 22t19.5 56q0 28 -15.5 44
t-40.5 16q-29 0 -47.5 -22.5zM419 657l-93 -82h-87l122 172h143l58 -172h-81z" />
    <glyph glyph-name="atilde" unicode="&#xe3;" horiz-adv-x="671" 
d="M554 0h-224l18 68q-32 -44 -69 -65t-83 -21q-53 0 -95.5 28t-66.5 79t-24 117q0 57 18.5 112.5t51.5 100.5q38 50 84.5 76t99.5 26q48 0 83 -22t60 -67l9 73h232zM266.5 293.5q-18.5 -22.5 -18.5 -58.5q0 -28 13.5 -42.5t38.5 -14.5q31 0 50.5 22t19.5 56q0 28 -15.5 44
t-40.5 16q-29 0 -47.5 -22.5zM523.5 634.5q-27.5 -33.5 -70.5 -33.5q-22 0 -43 7l-31 10q-20 6 -31 6q-34 0 -44 -33h-61q29 136 113 136q19 0 45 -8l31 -10q18 -6 27 -6q19 0 29 8.5t18 30.5h62q-17 -74 -44.5 -107.5z" />
    <glyph glyph-name="adieresis" unicode="&#xe4;" horiz-adv-x="671" 
d="M554 0h-224l18 68q-32 -44 -69 -65t-83 -21q-53 0 -95.5 28t-66.5 79t-24 117q0 57 18.5 112.5t51.5 100.5q38 50 84.5 76t99.5 26q48 0 83 -22t60 -67l9 73h232zM266.5 293.5q-18.5 -22.5 -18.5 -58.5q0 -28 13.5 -42.5t38.5 -14.5q31 0 50.5 22t19.5 56q0 28 -15.5 44
t-40.5 16q-29 0 -47.5 -22.5zM251 701.5q10 16.5 26.5 26.5t36.5 10t37 -9.5t26.5 -26t9.5 -36.5q0 -32 -20.5 -52.5t-52.5 -20.5q-20 0 -37 9.5t-26.5 26t-9.5 37.5q0 19 10 35.5zM433 701.5q10 16.5 26.5 26.5t35.5 10q20 0 36.5 -9.5t26.5 -26t10 -36.5
q0 -32 -20.5 -52.5t-52.5 -20.5q-20 0 -36.5 9.5t-26 26.5t-9.5 37q0 19 10 35.5z" />
    <glyph glyph-name="aring" unicode="&#xe5;" horiz-adv-x="672" 
d="M273.5 738.5q17.5 30.5 47.5 48t66 17.5t66.5 -17.5t48 -48t17.5 -66.5t-17.5 -66t-48 -47.5t-66.5 -17.5t-66 17.5t-47.5 47.5t-17.5 66t17.5 66.5zM348.5 633.5q16.5 -16.5 39.5 -16.5t39.5 16.5t16.5 39.5t-16.5 40t-39.5 17t-39.5 -17t-16.5 -40t16.5 -39.5zM554 0
h-224l18 68q-32 -44 -69 -65t-83 -21q-53 0 -95.5 28t-66.5 79t-24 117q0 57 18.5 112.5t51.5 100.5q38 50 84.5 76t99.5 26q48 0 83 -22t60 -67l9 73h232zM266.5 293.5q-18.5 -22.5 -18.5 -58.5q0 -28 13.5 -42.5t38.5 -14.5q31 0 50.5 22t19.5 56q0 28 -15.5 44t-40.5 16
q-29 0 -47.5 -22.5z" />
    <glyph glyph-name="ae" unicode="&#xe6;" horiz-adv-x="971" 
d="M587.5 504q44.5 18 94.5 18q72 0 129 -30t89 -82t32 -115q0 -40 -4 -72h-336q0 -38 16.5 -59t45.5 -21q21 0 37 10.5t34 34.5l179 -38q-88 -168 -277 -168q-55 0 -101 17.5t-84 52.5q-56 -34 -108.5 -50t-109.5 -16q-74 0 -126.5 20t-79.5 58.5t-27 91.5t29 94.5
t82.5 64.5t125.5 23q75 0 153 -33q1 5 1 16q0 39 -36 61t-101 22q-89 0 -183 -44l22 130q113 32 197 32q150 0 219 -72q43 36 87.5 54zM726 324q0 24 -12.5 38t-34.5 14q-27 0 -45 -14t-28 -45h120v7zM334 135q19 12 19 31q0 22 -20 35t-54 13q-32 0 -50.5 -12t-18.5 -31
q0 -22 19.5 -35t53.5 -13q32 0 51 12z" />
    <glyph glyph-name="ccedilla" unicode="&#xe7;" horiz-adv-x="472" 
d="M254 -19q-71 0 -127 30t-87 83.5t-31 122.5q0 61 21.5 116t61.5 96q44 45 101 68.5t124 23.5q71 0 134 -29l-34 -188q-23 15 -42.5 22.5t-37.5 7.5q-40 0 -64.5 -25t-24.5 -65q0 -35 21.5 -55.5t57.5 -20.5q30 0 67 19l-32 -187q-62 -19 -108 -19zM199 -169q20 0 30.5 8
t10.5 23t-17.5 21.5t-59.5 6.5h-11l36 110h58l-16 -45q114 -2 114 -85q0 -55 -35 -85.5t-101 -30.5q-51 0 -144 29l26 73q63 -25 109 -25z" />
    <glyph glyph-name="egrave" unicode="&#xe8;" horiz-adv-x="603" 
d="M240 164q16 -21 45 -21q21 0 37 10.5t34 34.5l179 -38q-89 -169 -278 -169q-73 0 -130.5 30.5t-89 84t-31.5 121.5q0 61 21 115t60 95q44 46 102 70t122 24q74 0 131 -29.5t89 -81t32 -115.5q0 -36 -4 -72h-335q0 -38 16 -59zM358 324q0 24 -13 38t-35 14q-27 0 -45 -14
t-28 -45h121v7zM414 575h-91l-134 172h150z" />
    <glyph glyph-name="eacute" unicode="&#xe9;" horiz-adv-x="603" 
d="M240 164q16 -21 45 -21q21 0 37 10.5t34 34.5l179 -38q-89 -169 -278 -169q-73 0 -130.5 30.5t-89 84t-31.5 121.5q0 61 21 115t60 95q44 46 102 70t122 24q74 0 131 -29.5t89 -81t32 -115.5q0 -36 -4 -72h-335q0 -38 16 -59zM358 324q0 24 -13 38t-35 14q-27 0 -45 -14
t-28 -45h121v7zM503 746l-181 -172h-93l108 172h166z" />
    <glyph glyph-name="ecircumflex" unicode="&#xea;" horiz-adv-x="603" 
d="M240 164q16 -21 45 -21q21 0 37 10.5t34 34.5l179 -38q-89 -169 -278 -169q-73 0 -130.5 30.5t-89 84t-31.5 121.5q0 61 21 115t60 95q44 46 102 70t122 24q74 0 131 -29.5t89 -81t32 -115.5q0 -36 -4 -72h-335q0 -38 16 -59zM358 324q0 24 -13 38t-35 14q-27 0 -45 -14
t-28 -45h121v7zM360 657l-93 -82h-87l122 172h143l58 -172h-81z" />
    <glyph glyph-name="edieresis" unicode="&#xeb;" horiz-adv-x="603" 
d="M240 164q16 -21 45 -21q21 0 37 10.5t34 34.5l179 -38q-89 -169 -278 -169q-73 0 -130.5 30.5t-89 84t-31.5 121.5q0 61 21 115t60 95q44 46 102 70t122 24q74 0 131 -29.5t89 -81t32 -115.5q0 -36 -4 -72h-335q0 -38 16 -59zM358 324q0 24 -13 38t-35 14q-27 0 -45 -14
t-28 -45h121v7zM192 701.5q10 16.5 26.5 26.5t36.5 10t37 -9.5t26.5 -26t9.5 -36.5q0 -32 -20.5 -52.5t-52.5 -20.5q-20 0 -37 9.5t-26.5 26t-9.5 37.5q0 19 10 35.5zM374 701.5q10 16.5 26.5 26.5t35.5 10q20 0 36.5 -9.5t26.5 -26t10 -36.5q0 -32 -20.5 -52.5t-52.5 -20.5
q-20 0 -36.5 9.5t-26 26.5t-9.5 37q0 19 10 35.5z" />
    <glyph glyph-name="igrave" unicode="&#xec;" horiz-adv-x="354" 
d="M323 505l-93 -505h-238l93 505h238zM285 575h-91l-134 172h150z" />
    <glyph glyph-name="iacute" unicode="&#xed;" horiz-adv-x="354" 
d="M323 505l-93 -505h-238l93 505h238zM374 746l-181 -172h-93l108 172h166z" />
    <glyph glyph-name="icircumflex" unicode="&#xee;" horiz-adv-x="354" 
d="M323 505l-93 -505h-238l93 505h238zM231 657l-93 -82h-87l122 172h143l58 -172h-81z" />
    <glyph glyph-name="idieresis" unicode="&#xef;" horiz-adv-x="354" 
d="M323 505l-93 -505h-238l93 505h238zM63 701.5q10 16.5 26.5 26.5t36.5 10t37 -9.5t26.5 -26t9.5 -36.5q0 -32 -20.5 -52.5t-52.5 -20.5q-20 0 -37 9.5t-26.5 26t-9.5 37.5q0 19 10 35.5zM245 701.5q10 16.5 26.5 26.5t35.5 10q20 0 36.5 -9.5t26.5 -26t10 -36.5
q0 -32 -20.5 -52.5t-52.5 -20.5q-20 0 -36.5 9.5t-26 26.5t-9.5 37q0 19 10 35.5z" />
    <glyph glyph-name="eth" unicode="&#xf0;" horiz-adv-x="616" 
d="M168 668l127 93q55 -53 95 -98l149 50l29 -70l-129 -44q68 -84 101.5 -161t33.5 -157q0 -87 -39.5 -155.5t-109 -107t-157.5 -38.5q-76 0 -136 29.5t-93 82t-33 118.5q0 75 29.5 132.5t82.5 89.5t120 32q38 0 86 -14q-22 51 -56 96l-148 -47l-22 70l122 41zM253 289.5
q-16 -10.5 -25 -29t-9 -40.5q0 -25 14.5 -39t38.5 -14q31 0 50.5 22t19.5 57q0 25 -14.5 39.5t-39.5 14.5q-19 0 -35 -10.5z" />
    <glyph glyph-name="ntilde" unicode="&#xf1;" horiz-adv-x="660" 
d="M302 505l-15 -73q87 89 178 89q43 0 76 -18.5t51 -53t18 -79.5q0 -39 -10 -95l-50 -275h-240l47 254q5 26 5 49q0 14 -8.5 22.5t-21.5 8.5q-28 0 -43.5 -26t-25.5 -83l-41 -225h-238l94 505h224zM501.5 634.5q-27.5 -33.5 -70.5 -33.5q-22 0 -43 7l-31 10q-20 6 -31 6
q-34 0 -44 -33h-61q29 136 113 136q19 0 45 -8l31 -10q18 -6 27 -6q19 0 29 8.5t18 30.5h62q-17 -74 -44.5 -107.5z" />
    <glyph glyph-name="ograve" unicode="&#xf2;" horiz-adv-x="616" 
d="M27 332q21 54 62 95q45 46 102 69.5t122 23.5q77 0 135.5 -30t90 -84.5t31.5 -126.5q0 -52 -17.5 -99.5t-50.5 -87.5q-44 -53 -107 -82t-136 -29t-130.5 30.5t-90 84t-32.5 120.5q0 62 21 116zM262 308q-16 -11 -25 -29.5t-9 -41.5q0 -25 14.5 -40.5t38.5 -15.5
q31 0 50 23t19 59q0 26 -14 41t-39 15q-19 0 -35 -11zM417 575h-91l-134 172h150z" />
    <glyph glyph-name="oacute" unicode="&#xf3;" horiz-adv-x="616" 
d="M27 332q21 54 62 95q45 46 102 69.5t122 23.5q77 0 135.5 -30t90 -84.5t31.5 -126.5q0 -52 -17.5 -99.5t-50.5 -87.5q-44 -53 -107 -82t-136 -29t-130.5 30.5t-90 84t-32.5 120.5q0 62 21 116zM262 308q-16 -11 -25 -29.5t-9 -41.5q0 -25 14.5 -40.5t38.5 -15.5
q31 0 50 23t19 59q0 26 -14 41t-39 15q-19 0 -35 -11zM506 746l-181 -172h-93l108 172h166z" />
    <glyph glyph-name="ocircumflex" unicode="&#xf4;" horiz-adv-x="616" 
d="M27 332q21 54 62 95q45 46 102 69.5t122 23.5q77 0 135.5 -30t90 -84.5t31.5 -126.5q0 -52 -17.5 -99.5t-50.5 -87.5q-44 -53 -107 -82t-136 -29t-130.5 30.5t-90 84t-32.5 120.5q0 62 21 116zM262 308q-16 -11 -25 -29.5t-9 -41.5q0 -25 14.5 -40.5t38.5 -15.5
q31 0 50 23t19 59q0 26 -14 41t-39 15q-19 0 -35 -11zM363 657l-93 -82h-87l122 172h143l58 -172h-81z" />
    <glyph glyph-name="otilde" unicode="&#xf5;" horiz-adv-x="616" 
d="M27 332q21 54 62 95q45 46 102 69.5t122 23.5q77 0 135.5 -30t90 -84.5t31.5 -126.5q0 -52 -17.5 -99.5t-50.5 -87.5q-44 -53 -107 -82t-136 -29t-130.5 30.5t-90 84t-32.5 120.5q0 62 21 116zM262 308q-16 -11 -25 -29.5t-9 -41.5q0 -25 14.5 -40.5t38.5 -15.5
q31 0 50 23t19 59q0 26 -14 41t-39 15q-19 0 -35 -11zM467.5 634.5q-27.5 -33.5 -70.5 -33.5q-22 0 -43 7l-31 10q-20 6 -31 6q-34 0 -44 -33h-61q29 136 113 136q19 0 45 -8l31 -10q18 -6 27 -6q19 0 29 8.5t18 30.5h62q-17 -74 -44.5 -107.5z" />
    <glyph glyph-name="odieresis" unicode="&#xf6;" horiz-adv-x="616" 
d="M27 332q21 54 62 95q45 46 102 69.5t122 23.5q77 0 135.5 -30t90 -84.5t31.5 -126.5q0 -52 -17.5 -99.5t-50.5 -87.5q-44 -53 -107 -82t-136 -29t-130.5 30.5t-90 84t-32.5 120.5q0 62 21 116zM262 308q-16 -11 -25 -29.5t-9 -41.5q0 -25 14.5 -40.5t38.5 -15.5
q31 0 50 23t19 59q0 26 -14 41t-39 15q-19 0 -35 -11zM195 701.5q10 16.5 26.5 26.5t36.5 10t37 -9.5t26.5 -26t9.5 -36.5q0 -32 -20.5 -52.5t-52.5 -20.5q-20 0 -37 9.5t-26.5 26t-9.5 37.5q0 19 10 35.5zM377 701.5q10 16.5 26.5 26.5t35.5 10q20 0 36.5 -9.5t26.5 -26
t10 -36.5q0 -32 -20.5 -52.5t-52.5 -20.5q-20 0 -36.5 9.5t-26 26.5t-9.5 37q0 19 10 35.5z" />
    <glyph glyph-name="divide" unicode="&#xf7;" horiz-adv-x="833" 
d="M461.5 581.5q20.5 -12.5 32.5 -33t12 -44.5q0 -23 -12 -43.5t-32.5 -33t-45.5 -12.5t-45 12t-32 32.5t-12 44.5q0 25 12 45.5t33 32.5t45 12t44.5 -12.5zM124 232v133h585v-133h-585zM461.5 169q20.5 -12 32.5 -32.5t12 -44.5q0 -23 -12 -43.5t-32.5 -33t-45.5 -12.5
t-45 12t-32 32.5t-12 44.5q0 25 12 45.5t33 32t45 11.5t44.5 -12z" />
    <glyph glyph-name="oslash" unicode="&#xf8;" horiz-adv-x="616" 
d="M71 55q-33 35 -49.5 73.5t-16.5 83.5q0 63 21.5 118.5t61.5 95.5q45 46 102.5 70t122.5 24q81 0 146 -37l52 57l48 -39l-51 -56q31 -34 46.5 -75t15.5 -91q0 -67 -28 -125.5t-80 -101.5q-41 -34 -92.5 -52t-108.5 -18q-73 0 -140 35l-57 -61l-46 37zM299 345
q-26 0 -47.5 -15t-34 -41.5t-12.5 -57.5q0 -12 5 -32l125 138q-22 8 -36 8zM282 156q25 0 46 14.5t33 40.5t12 59q0 17 -5 31l-124 -138q21 -7 38 -7z" />
    <glyph glyph-name="ugrave" unicode="&#xf9;" horiz-adv-x="653" 
d="M269 290q-2 -9 -5.5 -28t-3.5 -31q0 -20 10 -31t27 -11q19 0 30 11.5t17.5 32.5t14.5 65l38 207h231l-42 -228q-19 -107 -55 -171t-96.5 -94t-156.5 -30q-81 0 -139 25.5t-88.5 74t-30.5 115.5q0 23 5 56t12 68l34 184h237zM448 575h-91l-134 172h150z" />
    <glyph glyph-name="uacute" unicode="&#xfa;" horiz-adv-x="653" 
d="M269 290q-2 -9 -5.5 -28t-3.5 -31q0 -20 10 -31t27 -11q19 0 30 11.5t17.5 32.5t14.5 65l38 207h231l-42 -228q-19 -107 -55 -171t-96.5 -94t-156.5 -30q-81 0 -139 25.5t-88.5 74t-30.5 115.5q0 23 5 56t12 68l34 184h237zM537 746l-181 -172h-93l108 172h166z" />
    <glyph glyph-name="ucircumflex" unicode="&#xfb;" horiz-adv-x="653" 
d="M269 290q-2 -9 -5.5 -28t-3.5 -31q0 -20 10 -31t27 -11q19 0 30 11.5t17.5 32.5t14.5 65l38 207h231l-42 -228q-19 -107 -55 -171t-96.5 -94t-156.5 -30q-81 0 -139 25.5t-88.5 74t-30.5 115.5q0 23 5 56t12 68l34 184h237zM394 657l-93 -82h-87l122 172h143l58 -172h-81
z" />
    <glyph glyph-name="udieresis" unicode="&#xfc;" horiz-adv-x="653" 
d="M269 290q-2 -9 -5.5 -28t-3.5 -31q0 -20 10 -31t27 -11q19 0 30 11.5t17.5 32.5t14.5 65l38 207h231l-42 -228q-19 -107 -55 -171t-96.5 -94t-156.5 -30q-81 0 -139 25.5t-88.5 74t-30.5 115.5q0 23 5 56t12 68l34 184h237zM226 701.5q10 16.5 26.5 26.5t36.5 10t37 -9.5
t26.5 -26t9.5 -36.5q0 -32 -20.5 -52.5t-52.5 -20.5q-20 0 -37 9.5t-26.5 26t-9.5 37.5q0 19 10 35.5zM408 701.5q10 16.5 26.5 26.5t35.5 10q20 0 36.5 -9.5t26.5 -26t10 -36.5q0 -32 -20.5 -52.5t-52.5 -20.5q-20 0 -36.5 9.5t-26 26.5t-9.5 37q0 19 10 35.5z" />
    <glyph glyph-name="yacute" unicode="&#xfd;" horiz-adv-x="579" 
d="M0 505h228l25 -125q12 -55 13 -95q9 42 36 96l60 124h249l-425 -723h-260l188 309zM499 746l-181 -172h-93l108 172h166z" />
    <glyph glyph-name="thorn" unicode="&#xfe;" horiz-adv-x="669" 
d="M361 757l-42 -229q-4 -24 -26 -80q31 37 64.5 55t72.5 18q56 0 100 -27.5t68.5 -78t24.5 -115.5q0 -58 -18.5 -115t-51.5 -102q-74 -101 -185 -101q-45 0 -79 21t-64 68q2 -18 2 -25q0 -20 -3.5 -36.5t-4.5 -19.5l-38 -208h-235l180 975h235zM303.5 312
q-16.5 -10 -26 -27.5t-9.5 -39.5q0 -28 15 -44.5t40 -16.5q18 0 33.5 10.5t24.5 29t9 41.5q0 27 -13 42t-37 15q-20 0 -36.5 -10z" />
    <glyph glyph-name="ydieresis" unicode="&#xff;" horiz-adv-x="579" 
d="M0 505h228l25 -125q12 -55 13 -95q9 42 36 96l60 124h249l-425 -723h-260l188 309zM188 701.5q10 16.5 26.5 26.5t36.5 10t37 -9.5t26.5 -26t9.5 -36.5q0 -32 -20.5 -52.5t-52.5 -20.5q-20 0 -37 9.5t-26.5 26t-9.5 37.5q0 19 10 35.5zM370 701.5q10 16.5 26.5 26.5
t35.5 10q20 0 36.5 -9.5t26.5 -26t10 -36.5q0 -32 -20.5 -52.5t-52.5 -20.5q-20 0 -36.5 9.5t-26 26.5t-9.5 37q0 19 10 35.5z" />
    <glyph glyph-name="Amacron" unicode="&#x100;" horiz-adv-x="715" 
d="M586 715l93 -715h-254l-5 95h-172l-39 -95h-279l373 715h283zM407 341q0 9 -1.5 37.5t-1.5 57.5q0 32 1 50q-19 -59 -36 -103l-50 -119h91zM634 929l-17 -94h-299l17 94h299z" />
    <glyph glyph-name="amacron" unicode="&#x101;" horiz-adv-x="671" 
d="M554 0h-224l18 68q-32 -44 -69 -65t-83 -21q-53 0 -95.5 28t-66.5 79t-24 117q0 57 18.5 112.5t51.5 100.5q38 50 84.5 76t99.5 26q48 0 83 -22t60 -67l9 73h232zM266.5 293.5q-18.5 -22.5 -18.5 -58.5q0 -28 13.5 -42.5t38.5 -14.5q31 0 50.5 22t19.5 56q0 28 -15.5 44
t-40.5 16q-29 0 -47.5 -22.5zM556 718l-17 -94h-299l17 94h299z" />
    <glyph glyph-name="Abreve" unicode="&#x102;" horiz-adv-x="715" 
d="M586 715l93 -715h-254l-5 95h-172l-39 -95h-279l373 715h283zM407 341q0 9 -1.5 37.5t-1.5 57.5q0 32 1 50q-19 -59 -36 -103l-50 -119h91zM394 956q0 -27 16.5 -41t48.5 -14q37 0 62 16.5t40 48.5h75q-19 -83 -66.5 -124.5t-120.5 -41.5q-63 0 -95 33.5t-32 101.5v31h72
v-10z" />
    <glyph glyph-name="abreve" unicode="&#x103;" horiz-adv-x="671" 
d="M554 0h-224l18 68q-32 -44 -69 -65t-83 -21q-53 0 -95.5 28t-66.5 79t-24 117q0 57 18.5 112.5t51.5 100.5q38 50 84.5 76t99.5 26q48 0 83 -22t60 -67l9 73h232zM266.5 293.5q-18.5 -22.5 -18.5 -58.5q0 -28 13.5 -42.5t38.5 -14.5q31 0 50.5 22t19.5 56q0 28 -15.5 44
t-40.5 16q-29 0 -47.5 -22.5zM339 746q0 -27 16.5 -41t48.5 -14q37 0 62 16.5t40 48.5h75q-19 -83 -66.5 -124.5t-120.5 -41.5q-63 0 -95 33.5t-32 101.5v31h72v-10z" />
    <glyph glyph-name="Aogonek" unicode="&#x104;" horiz-adv-x="715" 
d="M586 715l93 -715h-254l-5 95h-172l-39 -95h-279l373 715h283zM407 341q0 9 -1.5 37.5t-1.5 57.5q0 32 1 50q-19 -59 -36 -103l-50 -119h91zM561 -48q-14 -22 -14 -47q0 -18 12.5 -26.5t43.5 -8.5h37l-18 -101h-28q-56 0 -87 9t-44.5 30.5t-13.5 59.5q0 33 27 69t73 63h56
q-30 -26 -44 -48z" />
    <glyph glyph-name="aogonek" unicode="&#x105;" horiz-adv-x="671" 
d="M554 0h-224l18 68q-32 -44 -69 -65t-83 -21q-53 0 -95.5 28t-66.5 79t-24 117q0 57 18.5 112.5t51.5 100.5q38 50 84.5 76t99.5 26q48 0 83 -22t60 -67l9 73h232zM266.5 293.5q-18.5 -22.5 -18.5 -58.5q0 -28 13.5 -42.5t38.5 -14.5q31 0 50.5 22t19.5 56q0 28 -15.5 44
t-40.5 16q-29 0 -47.5 -22.5zM447 -48q-14 -22 -14 -47q0 -17 9 -26t27 -9h57l-18 -98h-28q-49 0 -79.5 9t-45.5 30t-15 57q0 37 23 69t72 63h56q-30 -26 -44 -48z" />
    <glyph glyph-name="Cacute" unicode="&#x106;" horiz-adv-x="639" 
d="M378 -19q-67 0 -125.5 21t-105.5 62q-52 45 -80.5 111t-28.5 141q0 80 24.5 149.5t73.5 126.5q57 67 139 103.5t179 36.5q100 0 182 -41l-44 -239q-75 43 -142 43q-44 0 -79.5 -19.5t-55 -54.5t-19.5 -79q0 -38 15.5 -65.5t43.5 -42.5t66 -15q31 0 66.5 11.5t69.5 32.5
l-48 -258q-66 -24 -131 -24zM617 958l-181 -172h-93l108 172h166z" />
    <glyph glyph-name="cacute" unicode="&#x107;" horiz-adv-x="472" 
d="M254 -19q-71 0 -127 30t-87 83.5t-31 122.5q0 61 21.5 116t61.5 96q44 45 101 68.5t124 23.5q71 0 134 -29l-34 -188q-23 15 -42.5 22.5t-37.5 7.5q-40 0 -64.5 -25t-24.5 -65q0 -35 21.5 -55.5t57.5 -20.5q30 0 67 19l-32 -187q-62 -19 -108 -19zM472 746l-181 -172h-93
l108 172h166z" />
    <glyph glyph-name="Ccircumflex" unicode="&#x108;" horiz-adv-x="639" 
d="M378 -19q-67 0 -125.5 21t-105.5 62q-52 45 -80.5 111t-28.5 141q0 80 24.5 149.5t73.5 126.5q57 67 139 103.5t179 36.5q100 0 182 -41l-44 -239q-75 43 -142 43q-44 0 -79.5 -19.5t-55 -54.5t-19.5 -79q0 -38 15.5 -65.5t43.5 -42.5t66 -15q31 0 66.5 11.5t69.5 32.5
l-48 -258q-66 -24 -131 -24zM481 868l-95 -82h-89l122 172h143l58 -172h-79z" />
    <glyph glyph-name="ccircumflex" unicode="&#x109;" horiz-adv-x="472" 
d="M254 -19q-71 0 -127 30t-87 83.5t-31 122.5q0 61 21.5 116t61.5 96q44 45 101 68.5t124 23.5q71 0 134 -29l-34 -188q-23 15 -42.5 22.5t-37.5 7.5q-40 0 -64.5 -25t-24.5 -65q0 -35 21.5 -55.5t57.5 -20.5q30 0 67 19l-32 -187q-62 -19 -108 -19zM329 657l-93 -82h-87
l122 172h143l58 -172h-81z" />
    <glyph glyph-name="Cdotaccent" unicode="&#x10a;" horiz-adv-x="639" 
d="M378 -19q-67 0 -125.5 21t-105.5 62q-52 45 -80.5 111t-28.5 141q0 80 24.5 149.5t73.5 126.5q57 67 139 103.5t179 36.5q100 0 182 -41l-44 -239q-75 43 -142 43q-44 0 -79.5 -19.5t-55 -54.5t-19.5 -79q0 -38 15.5 -65.5t43.5 -42.5t66 -15q31 0 66.5 11.5t69.5 32.5
l-48 -258q-66 -24 -131 -24zM385 914q11 18 28.5 28.5t37.5 10.5q22 0 39.5 -10.5t28 -28t10.5 -38.5q0 -22 -10.5 -39.5t-28 -28t-39.5 -10.5q-20 0 -38 10.5t-28.5 28.5t-10.5 39q0 20 11 38z" />
    <glyph glyph-name="cdotaccent" unicode="&#x10b;" horiz-adv-x="472" 
d="M254 -19q-71 0 -127 30t-87 83.5t-31 122.5q0 61 21.5 116t61.5 96q44 45 101 68.5t124 23.5q71 0 134 -29l-34 -188q-23 15 -42.5 22.5t-37.5 7.5q-40 0 -64.5 -25t-24.5 -65q0 -35 21.5 -55.5t57.5 -20.5q30 0 67 19l-32 -187q-62 -19 -108 -19zM264 698q11 18 29.5 29
t38.5 11q22 0 40.5 -10.5t29 -28.5t10.5 -40t-10.5 -40.5t-29 -29t-40.5 -10.5q-21 0 -39 11t-29 29.5t-11 39.5t11 39z" />
    <glyph glyph-name="Ccaron" unicode="&#x10c;" horiz-adv-x="639" 
d="M378 -19q-67 0 -125.5 21t-105.5 62q-52 45 -80.5 111t-28.5 141q0 80 24.5 149.5t73.5 126.5q57 67 139 103.5t179 36.5q100 0 182 -41l-44 -239q-75 43 -142 43q-44 0 -79.5 -19.5t-55 -54.5t-19.5 -79q0 -38 15.5 -65.5t43.5 -42.5t66 -15q31 0 66.5 11.5t69.5 32.5
l-48 -258q-66 -24 -131 -24zM459 876l95 82h89l-122 -172h-143l-58 172h79z" />
    <glyph glyph-name="ccaron" unicode="&#x10d;" horiz-adv-x="472" 
d="M254 -19q-71 0 -127 30t-87 83.5t-31 122.5q0 61 21.5 116t61.5 96q44 45 101 68.5t124 23.5q71 0 134 -29l-34 -188q-23 15 -42.5 22.5t-37.5 7.5q-40 0 -64.5 -25t-24.5 -65q0 -35 21.5 -55.5t57.5 -20.5q30 0 67 19l-32 -187q-62 -19 -108 -19zM330 665l93 82h87
l-122 -172h-143l-58 172h81z" />
    <glyph glyph-name="Dcaron" unicode="&#x10e;" horiz-adv-x="778" 
d="M325 715q87 0 148.5 -8.5t100.5 -27.5q85 -42 129.5 -115t44.5 -169q0 -90 -39 -169t-110 -132q-70 -52 -159 -73t-215 -21h-225l132 715h193zM401.5 235q41.5 20 63 57t21.5 87q0 56 -35 88.5t-95 32.5h-5l-52 -285h3q58 0 99.5 20zM411 876l95 82h89l-122 -172h-143
l-58 172h79z" />
    <glyph glyph-name="dcaron" unicode="&#x10f;" horiz-adv-x="794" 
d="M332 0l16 62q-31 -41 -67.5 -61t-80.5 -20q-52 0 -95.5 28.5t-68.5 78.5t-25 112q0 59 19 118.5t52 102.5q37 49 84 74.5t100 25.5q46 0 81.5 -22t62.5 -67v12q0 31 6 70l43 243h238l-141 -757h-224zM332.5 190.5q15.5 10.5 25 28t9.5 39.5q0 28 -15 44.5t-40 16.5
q-18 0 -33.5 -10.5t-24.5 -29t-9 -41.5q0 -28 14 -43t39 -15q19 0 34.5 10.5zM793 562l-88 37l75 158l113 -45z" />
    <glyph glyph-name="Dcroat" unicode="&#x110;" horiz-adv-x="789" 
d="M-12 285l29 156h76l51 274h193q87 0 148.5 -8.5t100.5 -27.5q85 -42 129.5 -115t44.5 -169q0 -90 -39 -169t-110 -132q-70 -52 -159 -73t-215 -21h-225l53 285h-77zM314 197q98 0 150 48t52 136q0 66 -36 101t-105 35q-16 0 -25 -1l-16 -82h103l-26 -142h-103l-17 -94z
" />
    <glyph glyph-name="dcroat" unicode="&#x111;" horiz-adv-x="684" 
d="M723 543h-66l-101 -543h-224l16 62q-31 -41 -67.5 -61t-80.5 -20q-52 0 -95.5 28.5t-68.5 78.5t-25 112q0 59 19 118.5t52 102.5q37 49 84 74.5t100 25.5q46 0 81.5 -22t62.5 -67v12q0 31 6 70l5 29h-82l29 156h81l10 58h238l-11 -58h66zM332.5 190.5q15.5 10.5 25 28
t9.5 39.5q0 28 -15 44.5t-40 16.5q-18 0 -33.5 -10.5t-24.5 -29t-9 -41.5q0 -28 14 -43t39 -15q19 0 34.5 10.5z" />
    <glyph glyph-name="Emacron" unicode="&#x112;" horiz-adv-x="618" 
d="M622 715l-35 -194h-233l-13 -69h219l-33 -181h-219l-14 -77h254l-36 -194h-512l132 715h490zM575 929l-17 -94h-299l17 94h299z" />
    <glyph glyph-name="emacron" unicode="&#x113;" horiz-adv-x="603" 
d="M240 164q16 -21 45 -21q21 0 37 10.5t34 34.5l179 -38q-89 -169 -278 -169q-73 0 -130.5 30.5t-89 84t-31.5 121.5q0 61 21 115t60 95q44 46 102 70t122 24q74 0 131 -29.5t89 -81t32 -115.5q0 -36 -4 -72h-335q0 -38 16 -59zM358 324q0 24 -13 38t-35 14q-27 0 -45 -14
t-28 -45h121v7zM497 718l-17 -94h-299l17 94h299z" />
    <glyph glyph-name="Ebreve" unicode="&#x114;" horiz-adv-x="618" 
d="M622 715l-35 -194h-233l-13 -69h219l-33 -181h-219l-14 -77h254l-36 -194h-512l132 715h490zM335 956q0 -27 16.5 -41t48.5 -14q37 0 62 16.5t40 48.5h75q-19 -83 -66.5 -124.5t-120.5 -41.5q-63 0 -95 33.5t-32 101.5v31h72v-10z" />
    <glyph glyph-name="ebreve" unicode="&#x115;" horiz-adv-x="603" 
d="M240 164q16 -21 45 -21q21 0 37 10.5t34 34.5l179 -38q-89 -169 -278 -169q-73 0 -130.5 30.5t-89 84t-31.5 121.5q0 61 21 115t60 95q44 46 102 70t122 24q74 0 131 -29.5t89 -81t32 -115.5q0 -36 -4 -72h-335q0 -38 16 -59zM358 324q0 24 -13 38t-35 14q-27 0 -45 -14
t-28 -45h121v7zM280 746q0 -27 16.5 -41t48.5 -14q37 0 62 16.5t40 48.5h75q-19 -83 -66.5 -124.5t-120.5 -41.5q-63 0 -95 33.5t-32 101.5v31h72v-10z" />
    <glyph glyph-name="Edotaccent" unicode="&#x116;" horiz-adv-x="618" 
d="M622 715l-35 -194h-233l-13 -69h219l-33 -181h-219l-14 -77h254l-36 -194h-512l132 715h490zM321 914q11 18 28.5 28.5t37.5 10.5q22 0 39.5 -10.5t28 -28t10.5 -38.5q0 -22 -10.5 -39.5t-28 -28t-39.5 -10.5q-20 0 -38 10.5t-28.5 28.5t-10.5 39q0 20 11 38z" />
    <glyph glyph-name="edotaccent" unicode="&#x117;" horiz-adv-x="603" 
d="M240 164q16 -21 45 -21q21 0 37 10.5t34 34.5l179 -38q-89 -169 -278 -169q-73 0 -130.5 30.5t-89 84t-31.5 121.5q0 61 21 115t60 95q44 46 102 70t122 24q74 0 131 -29.5t89 -81t32 -115.5q0 -36 -4 -72h-335q0 -38 16 -59zM358 324q0 24 -13 38t-35 14q-27 0 -45 -14
t-28 -45h121v7zM295 698q11 18 29.5 29t38.5 11q22 0 40.5 -10.5t29 -28.5t10.5 -40t-10.5 -40.5t-29 -29t-40.5 -10.5q-21 0 -39 11t-29 29.5t-11 39.5t11 39z" />
    <glyph glyph-name="Eogonek" unicode="&#x118;" horiz-adv-x="618" 
d="M622 715l-35 -194h-233l-13 -69h219l-33 -181h-219l-14 -77h254l-36 -194h-512l132 715h490zM381 -48q-14 -22 -14 -47q0 -18 12.5 -26.5t43.5 -8.5h37l-18 -101h-28q-56 0 -87 9t-44.5 30.5t-13.5 59.5q0 33 27 69t73 63h56q-30 -26 -44 -48z" />
    <glyph glyph-name="eogonek" unicode="&#x119;" horiz-adv-x="603" 
d="M240 164q16 -21 45 -21q21 0 37 10.5t34 34.5l179 -38q-89 -169 -278 -169q-73 0 -130.5 30.5t-89 84t-31.5 121.5q0 61 21 115t60 95q44 46 102 70t122 24q74 0 131 -29.5t89 -81t32 -115.5q0 -36 -4 -72h-335q0 -38 16 -59zM358 324q0 24 -13 38t-35 14q-27 0 -45 -14
t-28 -45h121v7zM328 -48q-14 -22 -14 -47q0 -17 9 -26t27 -9h57l-18 -98h-28q-49 0 -79.5 9t-45.5 30t-15 57q0 37 23 69t72 63h56q-30 -26 -44 -48z" />
    <glyph glyph-name="Ecaron" unicode="&#x11a;" horiz-adv-x="618" 
d="M622 715l-35 -194h-233l-13 -69h219l-33 -181h-219l-14 -77h254l-36 -194h-512l132 715h490zM395 876l95 82h89l-122 -172h-143l-58 172h79z" />
    <glyph glyph-name="ecaron" unicode="&#x11b;" horiz-adv-x="603" 
d="M240 164q16 -21 45 -21q21 0 37 10.5t34 34.5l179 -38q-89 -169 -278 -169q-73 0 -130.5 30.5t-89 84t-31.5 121.5q0 61 21 115t60 95q44 46 102 70t122 24q74 0 131 -29.5t89 -81t32 -115.5q0 -36 -4 -72h-335q0 -38 16 -59zM358 324q0 24 -13 38t-35 14q-27 0 -45 -14
t-28 -45h121v7zM361 665l93 82h87l-122 -172h-143l-58 172h81z" />
    <glyph glyph-name="Gcircumflex" unicode="&#x11c;" horiz-adv-x="801" 
d="M397 -19q-107 0 -188.5 42.5t-126 119t-44.5 173.5q0 80 24.5 149.5t73.5 126.5q57 67 139 103t180 36q229 0 324 -183l-232 -86q-19 26 -43 38t-56 12q-45 0 -80 -23t-54.5 -63.5t-19.5 -92.5q0 -44 17.5 -77t49.5 -51t75 -18q18 0 37 3l13 70h-93l30 162h340l-62 -339
q-147 -102 -304 -102zM520 868l-95 -82h-89l122 172h143l58 -172h-79z" />
    <glyph glyph-name="gcircumflex" unicode="&#x11d;" horiz-adv-x="684" 
d="M563 48q-25 -130 -106.5 -197t-213.5 -67q-59 0 -116.5 14.5t-117.5 44.5l80 145q33 -22 64 -32.5t65 -10.5q45 0 77 27t46 78l12 43q-64 -84 -154 -84q-56 0 -98.5 25t-66 71t-23.5 106q0 54 18.5 108.5t51.5 98.5q37 50 84 75.5t100 25.5q48 0 83 -21.5t60 -66.5l9 74
h232zM269 299.5q-19 -22.5 -19 -56.5q0 -27 13.5 -41.5t38.5 -14.5q31 0 51 21t20 55q0 27 -15.5 43t-40.5 16q-29 0 -48 -22.5zM419 657l-93 -82h-87l122 172h143l58 -172h-81z" />
    <glyph glyph-name="Gbreve" unicode="&#x11e;" horiz-adv-x="801" 
d="M397 -19q-107 0 -188.5 42.5t-126 119t-44.5 173.5q0 80 24.5 149.5t73.5 126.5q57 67 139 103t180 36q229 0 324 -183l-232 -86q-19 26 -43 38t-56 12q-45 0 -80 -23t-54.5 -63.5t-19.5 -92.5q0 -44 17.5 -77t49.5 -51t75 -18q18 0 37 3l13 70h-93l30 162h340l-62 -339
q-147 -102 -304 -102zM438 956q0 -27 16.5 -41t48.5 -14q37 0 62 16.5t40 48.5h75q-19 -83 -66.5 -124.5t-120.5 -41.5q-63 0 -95 33.5t-32 101.5v31h72v-10z" />
    <glyph glyph-name="gbreve" unicode="&#x11f;" horiz-adv-x="684" 
d="M563 48q-25 -130 -106.5 -197t-213.5 -67q-59 0 -116.5 14.5t-117.5 44.5l80 145q33 -22 64 -32.5t65 -10.5q45 0 77 27t46 78l12 43q-64 -84 -154 -84q-56 0 -98.5 25t-66 71t-23.5 106q0 54 18.5 108.5t51.5 98.5q37 50 84 75.5t100 25.5q48 0 83 -21.5t60 -66.5l9 74
h232zM269 299.5q-19 -22.5 -19 -56.5q0 -27 13.5 -41.5t38.5 -14.5q31 0 51 21t20 55q0 27 -15.5 43t-40.5 16q-29 0 -48 -22.5zM339 746q0 -27 16.5 -41t48.5 -14q37 0 62 16.5t40 48.5h75q-19 -83 -66.5 -124.5t-120.5 -41.5q-63 0 -95 33.5t-32 101.5v31h72v-10z" />
    <glyph glyph-name="Gdotaccent" unicode="&#x120;" horiz-adv-x="801" 
d="M397 -19q-107 0 -188.5 42.5t-126 119t-44.5 173.5q0 80 24.5 149.5t73.5 126.5q57 67 139 103t180 36q229 0 324 -183l-232 -86q-19 26 -43 38t-56 12q-45 0 -80 -23t-54.5 -63.5t-19.5 -92.5q0 -44 17.5 -77t49.5 -51t75 -18q18 0 37 3l13 70h-93l30 162h340l-62 -339
q-147 -102 -304 -102zM424 914q11 18 28.5 28.5t37.5 10.5q22 0 39.5 -10.5t28 -28t10.5 -38.5q0 -22 -10.5 -39.5t-28 -28t-39.5 -10.5q-20 0 -38 10.5t-28.5 28.5t-10.5 39q0 20 11 38z" />
    <glyph glyph-name="gdotaccent" unicode="&#x121;" horiz-adv-x="684" 
d="M563 48q-25 -130 -106.5 -197t-213.5 -67q-59 0 -116.5 14.5t-117.5 44.5l80 145q33 -22 64 -32.5t65 -10.5q45 0 77 27t46 78l12 43q-64 -84 -154 -84q-56 0 -98.5 25t-66 71t-23.5 106q0 54 18.5 108.5t51.5 98.5q37 50 84 75.5t100 25.5q48 0 83 -21.5t60 -66.5l9 74
h232zM269 299.5q-19 -22.5 -19 -56.5q0 -27 13.5 -41.5t38.5 -14.5q31 0 51 21t20 55q0 27 -15.5 43t-40.5 16q-29 0 -48 -22.5zM354 698q11 18 29.5 29t38.5 11q22 0 40.5 -10.5t29 -28.5t10.5 -40t-10.5 -40.5t-29 -29t-40.5 -10.5q-21 0 -39 11t-29 29.5t-11 39.5t11 39z
" />
    <glyph glyph-name="Gcommaaccent" unicode="&#x122;" horiz-adv-x="801" 
d="M397 -19q-107 0 -188.5 42.5t-126 119t-44.5 173.5q0 80 24.5 149.5t73.5 126.5q57 67 139 103t180 36q229 0 324 -183l-232 -86q-19 26 -43 38t-56 12q-45 0 -80 -23t-54.5 -63.5t-19.5 -92.5q0 -44 17.5 -77t49.5 -51t75 -18q18 0 37 3l13 70h-93l30 162h340l-62 -339
q-147 -102 -304 -102zM331 -240l-88 37l75 158l113 -45z" />
    <glyph glyph-name="gcommaaccent" unicode="&#x123;" horiz-adv-x="684" 
d="M563 48q-25 -130 -106.5 -197t-213.5 -67q-59 0 -116.5 14.5t-117.5 44.5l80 145q33 -22 64 -32.5t65 -10.5q45 0 77 27t46 78l12 43q-64 -84 -154 -84q-56 0 -98.5 25t-66 71t-23.5 106q0 54 18.5 108.5t51.5 98.5q37 50 84 75.5t100 25.5q48 0 83 -21.5t60 -66.5l9 74
h232zM269 299.5q-19 -22.5 -19 -56.5q0 -27 13.5 -41.5t38.5 -14.5q31 0 51 21t20 55q0 27 -15.5 43t-40.5 16q-29 0 -48 -22.5zM446 771l88 -37l-75 -158l-113 45z" />
    <glyph glyph-name="Hcircumflex" unicode="&#x124;" horiz-adv-x="792" 
d="M391 715l-45 -247h141l45 247h260l-133 -715h-259l48 257h-141l-48 -257h-259l132 715h259zM511 868l-95 -82h-89l122 172h143l58 -172h-79z" />
    <glyph glyph-name="hcircumflex" unicode="&#x125;" horiz-adv-x="660" 
d="M363 757l-47 -247q-7 -35 -21 -77q39 45 79 66t90 21q44 0 76.5 -18t50.5 -52t18 -80t-9 -95l-50 -275h-240l47 254q5 26 5 49q0 14 -8.5 22.5t-21.5 8.5q-28 0 -43.5 -26.5t-25.5 -83.5l-41 -224h-238l139 757h240zM271 909l-93 -82h-87l122 172h143l58 -172h-81z" />
    <glyph glyph-name="Hbar" unicode="&#x126;" horiz-adv-x="792" 
d="M832 532h-74l-99 -532h-259l48 257h-141l-48 -257h-259l98 532h-74l25 130h73l10 53h259l-10 -53h141l10 53h260l-10 -53h74zM487 468l12 64h-141l-12 -64h141z" />
    <glyph glyph-name="hbar" unicode="&#x127;" horiz-adv-x="660" 
d="M540.5 502q32.5 -18 50.5 -52t18 -80t-9 -95l-50 -275h-240l47 254q5 26 5 49q0 14 -8.5 22.5t-21.5 8.5q-28 0 -43.5 -26.5t-25.5 -83.5l-41 -224h-238l100 543h-65l29 156h64l11 58h240l-11 -58h80l-29 -156h-81l-6 -33q-7 -35 -21 -77q39 45 79 66t90 21
q44 0 76.5 -18z" />
    <glyph glyph-name="Itilde" unicode="&#x128;" horiz-adv-x="405" 
d="M400 715l-132 -715h-263l132 715h263zM398.5 849.5q-27.5 -33.5 -70.5 -33.5q-22 0 -43 7l-31 10q-20 6 -31 6q-34 0 -44 -33h-61q29 136 113 136q19 0 45 -8l31 -10q18 -6 27 -6q19 0 29 8.5t18 30.5h62q-17 -74 -44.5 -107.5z" />
    <glyph glyph-name="itilde" unicode="&#x129;" horiz-adv-x="354" 
d="M323 505l-93 -505h-238l93 505h238zM335.5 634.5q-27.5 -33.5 -70.5 -33.5q-22 0 -43 7l-31 10q-20 6 -31 6q-34 0 -44 -33h-61q29 136 113 136q19 0 45 -8l31 -10q18 -6 27 -6q19 0 29 8.5t18 30.5h62q-17 -74 -44.5 -107.5z" />
    <glyph glyph-name="Imacron" unicode="&#x12a;" horiz-adv-x="405" 
d="M400 715l-132 -715h-263l132 715h263zM456 929l-17 -94h-299l17 94h299z" />
    <glyph glyph-name="imacron" unicode="&#x12b;" horiz-adv-x="354" 
d="M323 505l-93 -505h-238l93 505h238zM368 718l-17 -94h-299l17 94h299z" />
    <glyph glyph-name="Ibreve" unicode="&#x12c;" horiz-adv-x="405" 
d="M400 715l-132 -715h-263l132 715h263zM216 956q0 -27 16.5 -41t48.5 -14q37 0 62 16.5t40 48.5h75q-19 -83 -66.5 -124.5t-120.5 -41.5q-63 0 -95 33.5t-32 101.5v31h72v-10z" />
    <glyph glyph-name="ibreve" unicode="&#x12d;" horiz-adv-x="354" 
d="M323 505l-93 -505h-238l93 505h238zM151 746q0 -27 16.5 -41t48.5 -14q37 0 62 16.5t40 48.5h75q-19 -83 -66.5 -124.5t-120.5 -41.5q-63 0 -95 33.5t-32 101.5v31h72v-10z" />
    <glyph glyph-name="Iogonek" unicode="&#x12e;" horiz-adv-x="405" 
d="M400 715l-132 -715h-263l132 715h263zM142 -48q-14 -22 -14 -47q0 -18 12.5 -26.5t43.5 -8.5h37l-18 -101h-28q-56 0 -87 9t-44.5 30.5t-13.5 59.5q0 33 27 69t73 63h56q-30 -26 -44 -48z" />
    <glyph glyph-name="iogonek" unicode="&#x12f;" horiz-adv-x="354" 
d="M154 546q-29 15 -45 41t-16 58q0 34 19.5 63.5t52.5 47t72 17.5q35 0 64 -15t45 -41t16 -58q0 -34 -19.5 -63.5t-52.5 -47t-72 -17.5q-35 0 -64 15zM323 505l-93 -505h-238l93 505h238zM119 -48q-14 -22 -14 -47q0 -17 9 -26t27 -9h57l-18 -98h-28q-49 0 -79.5 9
t-45.5 30t-15 57q0 37 23 69t72 63h56q-30 -26 -44 -48z" />
    <glyph glyph-name="Idotaccent" unicode="&#x130;" horiz-adv-x="405" 
d="M221 816q-29 15 -45 41t-16 58q0 34 19.5 63.5t52.5 47t72 17.5q35 0 64 -15t45 -41t16 -58q0 -34 -19.5 -63.5t-52.5 -47t-72 -17.5q-35 0 -64 15zM400 715l-132 -715h-263l132 715h263z" />
    <glyph glyph-name="dotlessi" unicode="&#x131;" horiz-adv-x="354" 
d="M323 505l-93 -505h-238l93 505h238z" />
    <glyph glyph-name="Jcircumflex" unicode="&#x134;" horiz-adv-x="494" 
d="M70.5 231.5q13.5 -5.5 24.5 -5.5q23 0 36.5 12t21 34.5t14.5 63.5l70 379h261l-77 -417q-10 -55 -20.5 -94t-28.5 -74.5t-46 -65.5q-38 -41 -87.5 -62t-106.5 -21q-86 0 -162 46l67 222q20 -12 33.5 -17.5zM416 868l-95 -82h-89l122 172h143l58 -172h-79z" />
    <glyph glyph-name="jcircumflex" unicode="&#x135;" horiz-adv-x="354" 
d="M323 505l-134 -723h-237l133 723h238zM251 657l-93 -82h-87l122 172h143l58 -172h-81z" />
    <glyph glyph-name="Kcommaaccent" unicode="&#x136;" horiz-adv-x="726" 
d="M391 715l-54 -290l191 290h302l-270 -361l146 -354h-280l-109 313l-58 -313h-259l132 715h259zM315 -240l-88 37l75 158l113 -45z" />
    <glyph glyph-name="kcommaaccent" unicode="&#x137;" horiz-adv-x="647" 
d="M362 757l-86 -463l145 211h262l-208 -250l113 -255h-252l-72 226l-42 -226h-236l141 757h235zM252 -240l-88 37l75 158l113 -45z" />
    <glyph glyph-name="kgreenlandic" unicode="&#x138;" horiz-adv-x="647" 
d="M315 505l-40 -216l146 216h262l-209 -255l114 -250h-252l-73 221l-41 -221h-236l94 505h235z" />
    <glyph glyph-name="Lacute" unicode="&#x139;" horiz-adv-x="549" 
d="M396 715l-92 -495h220l-41 -220h-483l132 715h264zM450 958l-181 -172h-93l108 172h166z" />
    <glyph glyph-name="lacute" unicode="&#x13a;" horiz-adv-x="354" 
d="M134 757h235l-140 -757h-235zM440 998l-181 -172h-93l108 172h166z" />
    <glyph glyph-name="Lcommaaccent" unicode="&#x13b;" horiz-adv-x="549" 
d="M396 715l-92 -495h220l-41 -220h-483l132 715h264zM204 -240l-88 37l75 158l113 -45z" />
    <glyph glyph-name="lcommaaccent" unicode="&#x13c;" horiz-adv-x="354" 
d="M134 757h235l-140 -757h-235zM107 -240l-88 37l75 158l113 -45z" />
    <glyph glyph-name="Lcaron" unicode="&#x13d;" horiz-adv-x="549" 
d="M396 715l-92 -495h220l-41 -220h-483l132 715h264zM521 520l-88 37l75 158l113 -45z" />
    <glyph glyph-name="lcaron" unicode="&#x13e;" horiz-adv-x="354" 
d="M134 757h235l-140 -757h-235zM465 562l-88 37l75 158l113 -45z" />
    <glyph glyph-name="Ldot" unicode="&#x13f;" horiz-adv-x="645" 
d="M396 715l-92 -495h220l-41 -220h-483l132 715h264zM458.5 325.5q-29.5 16.5 -46.5 43.5t-17 59q0 40 20 74t55 53.5t76 19.5q37 0 66.5 -16.5t46 -44.5t16.5 -62q0 -37 -20.5 -70t-55.5 -53t-75 -20q-36 0 -65.5 16.5z" />
    <glyph glyph-name="ldot" unicode="&#x140;" horiz-adv-x="595" 
d="M134 757h235l-140 -757h-235zM408.5 297.5q-29.5 16.5 -46.5 43.5t-17 59q0 40 20 74t55 53.5t76 19.5q37 0 66.5 -16.5t46 -44.5t16.5 -62q0 -37 -20.5 -70t-55.5 -53t-75 -20q-36 0 -65.5 16.5z" />
    <glyph glyph-name="Lslash" unicode="&#x141;" horiz-adv-x="565" 
d="M17 205l-61 129l141 79l56 302h258l-31 -171l88 50l74 -125l-197 -112l-26 -142h225l-40 -215h-483l43 231z" />
    <glyph glyph-name="lslash" unicode="&#x142;" horiz-adv-x="382" 
d="M424 403l-119 -68l-62 -335h-236l36 192q7 33 15 57l-43 -26l-49 113l115 64l67 357h235l-39 -211q-4 -23 -17 -60l48 28z" />
    <glyph glyph-name="Nacute" unicode="&#x143;" horiz-adv-x="848" 
d="M394 715l82 -227q3 -8 12.5 -33.5t17.5 -54t14 -57.5l69 372h259l-132 -715h-262l-132 369q-1 -35 -8 -79.5t-15 -89.5l-37 -200h-262l132 715h262zM662 958l-181 -172h-93l108 172h166z" />
    <glyph glyph-name="nacute" unicode="&#x144;" horiz-adv-x="660" 
d="M302 505l-15 -73q87 89 178 89q43 0 76 -18.5t51 -53t18 -79.5q0 -39 -10 -95l-50 -275h-240l47 254q5 26 5 49q0 14 -8.5 22.5t-21.5 8.5q-28 0 -43.5 -26t-25.5 -83l-41 -225h-238l94 505h224zM540 746l-181 -172h-93l108 172h166z" />
    <glyph glyph-name="Ncommaaccent" unicode="&#x145;" horiz-adv-x="848" 
d="M394 715l82 -227q3 -8 12.5 -33.5t17.5 -54t14 -57.5l69 372h259l-132 -715h-262l-132 369q-1 -35 -8 -79.5t-15 -89.5l-37 -200h-262l132 715h262zM354 -240l-88 37l75 158l113 -45z" />
    <glyph glyph-name="ncommaaccent" unicode="&#x146;" horiz-adv-x="660" 
d="M302 505l-15 -73q87 89 178 89q43 0 76 -18.5t51 -53t18 -79.5q0 -39 -10 -95l-50 -275h-240l47 254q5 26 5 49q0 14 -8.5 22.5t-21.5 8.5q-28 0 -43.5 -26t-25.5 -83l-41 -225h-238l94 505h224zM232 -240l-88 37l75 158l113 -45z" />
    <glyph glyph-name="Ncaron" unicode="&#x147;" horiz-adv-x="848" 
d="M394 715l82 -227q3 -8 12.5 -33.5t17.5 -54t14 -57.5l69 372h259l-132 -715h-262l-132 369q-1 -35 -8 -79.5t-15 -89.5l-37 -200h-262l132 715h262zM504 876l95 82h89l-122 -172h-143l-58 172h79z" />
    <glyph glyph-name="ncaron" unicode="&#x148;" horiz-adv-x="660" 
d="M302 505l-15 -73q87 89 178 89q43 0 76 -18.5t51 -53t18 -79.5q0 -39 -10 -95l-50 -275h-240l47 254q5 26 5 49q0 14 -8.5 22.5t-21.5 8.5q-28 0 -43.5 -26t-25.5 -83l-41 -225h-238l94 505h224zM398 665l93 82h87l-122 -172h-143l-58 172h81z" />
    <glyph glyph-name="napostrophe" unicode="&#x149;" horiz-adv-x="660" 
d="M302 505l-15 -73q87 89 178 89q43 0 76 -18.5t51 -53t18 -79.5q0 -39 -10 -95l-50 -275h-240l47 254q5 26 5 49q0 14 -8.5 22.5t-21.5 8.5q-28 0 -43.5 -26t-25.5 -83l-41 -225h-238l94 505h224zM115 506l-72 31l73 157l99 -39z" />
    <glyph glyph-name="Eng" unicode="&#x14a;" horiz-adv-x="848" 
d="M848 715l-114 -616q-10 -55 -20.5 -94t-28.5 -74.5t-46 -65.5q-38 -41 -87.5 -62t-106.5 -21q-86 0 -162 46l61 202q20 -12 33.5 -17.5t24.5 -5.5q28 0 43 19l-123 343q-1 -35 -8 -79.5t-15 -89.5l-37 -200h-262l132 715h262l82 -227q3 -8 12.5 -33.5t17.5 -54t14 -57.5
l69 372h259z" />
    <glyph glyph-name="eng" unicode="&#x14b;" horiz-adv-x="660" 
d="M302 505l-15 -73q87 89 178 89q43 0 76 -18.5t51 -53t18 -79.5q0 -39 -10 -95l-90 -493h-240l87 472q5 26 5 49q0 14 -8.5 22.5t-21.5 8.5q-28 0 -43.5 -26t-25.5 -83l-41 -225h-238l94 505h224z" />
    <glyph glyph-name="Omacron" unicode="&#x14c;" horiz-adv-x="852" 
d="M147 65q-51 45 -80 110.5t-29 140.5q0 161 98 276q57 67 139 103.5t178 36.5q107 0 189 -42.5t127 -119t45 -173.5q0 -80 -24.5 -150t-73.5 -126q-59 -68 -140 -104t-178 -36q-153 0 -251 84zM364.5 474q-32.5 -20 -51 -54.5t-18.5 -76.5q0 -37 14.5 -65.5t41.5 -44
t63 -15.5q40 0 72.5 21t51 56.5t18.5 77.5q0 35 -15.5 62.5t-42.5 43t-61 15.5q-40 0 -72.5 -20zM659 929l-17 -94h-299l17 94h299z" />
    <glyph glyph-name="omacron" unicode="&#x14d;" horiz-adv-x="616" 
d="M27 332q21 54 62 95q45 46 102 69.5t122 23.5q77 0 135.5 -30t90 -84.5t31.5 -126.5q0 -52 -17.5 -99.5t-50.5 -87.5q-44 -53 -107 -82t-136 -29t-130.5 30.5t-90 84t-32.5 120.5q0 62 21 116zM262 308q-16 -11 -25 -29.5t-9 -41.5q0 -25 14.5 -40.5t38.5 -15.5
q31 0 50 23t19 59q0 26 -14 41t-39 15q-19 0 -35 -11zM500 718l-17 -94h-299l17 94h299z" />
    <glyph glyph-name="Obreve" unicode="&#x14e;" horiz-adv-x="852" 
d="M147 65q-51 45 -80 110.5t-29 140.5q0 161 98 276q57 67 139 103.5t178 36.5q107 0 189 -42.5t127 -119t45 -173.5q0 -80 -24.5 -150t-73.5 -126q-59 -68 -140 -104t-178 -36q-153 0 -251 84zM364.5 474q-32.5 -20 -51 -54.5t-18.5 -76.5q0 -37 14.5 -65.5t41.5 -44
t63 -15.5q40 0 72.5 21t51 56.5t18.5 77.5q0 35 -15.5 62.5t-42.5 43t-61 15.5q-40 0 -72.5 -20zM419 956q0 -27 16.5 -41t48.5 -14q37 0 62 16.5t40 48.5h75q-19 -83 -66.5 -124.5t-120.5 -41.5q-63 0 -95 33.5t-32 101.5v31h72v-10z" />
    <glyph glyph-name="obreve" unicode="&#x14f;" horiz-adv-x="616" 
d="M27 332q21 54 62 95q45 46 102 69.5t122 23.5q77 0 135.5 -30t90 -84.5t31.5 -126.5q0 -52 -17.5 -99.5t-50.5 -87.5q-44 -53 -107 -82t-136 -29t-130.5 30.5t-90 84t-32.5 120.5q0 62 21 116zM262 308q-16 -11 -25 -29.5t-9 -41.5q0 -25 14.5 -40.5t38.5 -15.5
q31 0 50 23t19 59q0 26 -14 41t-39 15q-19 0 -35 -11zM283 746q0 -27 16.5 -41t48.5 -14q37 0 62 16.5t40 48.5h75q-19 -83 -66.5 -124.5t-120.5 -41.5q-63 0 -95 33.5t-32 101.5v31h72v-10z" />
    <glyph glyph-name="Ohungarumlaut" unicode="&#x150;" horiz-adv-x="852" 
d="M147 65q-51 45 -80 110.5t-29 140.5q0 161 98 276q57 67 139 103.5t178 36.5q107 0 189 -42.5t127 -119t45 -173.5q0 -80 -24.5 -150t-73.5 -126q-59 -68 -140 -104t-178 -36q-153 0 -251 84zM364.5 474q-32.5 -20 -51 -54.5t-18.5 -76.5q0 -37 14.5 -65.5t41.5 -44
t63 -15.5q40 0 72.5 21t51 56.5t18.5 77.5q0 35 -15.5 62.5t-42.5 43t-61 15.5q-40 0 -72.5 -20zM547 958l-135 -172h-66l67 172h134zM722 958l-157 -172h-72l89 172h140z" />
    <glyph glyph-name="ohungarumlaut" unicode="&#x151;" horiz-adv-x="616" 
d="M27 332q21 54 62 95q45 46 102 69.5t122 23.5q77 0 135.5 -30t90 -84.5t31.5 -126.5q0 -52 -17.5 -99.5t-50.5 -87.5q-44 -53 -107 -82t-136 -29t-130.5 30.5t-90 84t-32.5 120.5q0 62 21 116zM262 308q-16 -11 -25 -29.5t-9 -41.5q0 -25 14.5 -40.5t38.5 -15.5
q31 0 50 23t19 59q0 26 -14 41t-39 15q-19 0 -35 -11zM418 747l-135 -172h-66l67 172h134zM592 747l-157 -172h-71l89 172h139z" />
    <glyph glyph-name="OE" unicode="&#x152;" horiz-adv-x="1122" 
d="M857 521l-13 -69h219l-33 -181h-219l-14 -77h253l-36 -194h-458l26 107q-45 -65 -103 -95.5t-138 -30.5q-94 0 -163 39t-106 110.5t-37 168.5q0 85 26 161.5t75 135.5q54 65 131.5 101.5t164.5 36.5q160 0 233 -127l21 108h439l-36 -194h-232zM370.5 474.5
q-35.5 -20.5 -55.5 -55t-20 -76.5q0 -38 16 -66.5t45 -44t69 -15.5q43 0 78.5 21.5t56 57t20.5 77.5q0 35 -17 63t-46.5 43.5t-66.5 15.5q-44 0 -79.5 -20.5z" />
    <glyph glyph-name="oe" unicode="&#x153;" horiz-adv-x="934" 
d="M570.5 164q16.5 -21 45.5 -21q21 0 36.5 10.5t33.5 34.5l180 -38q-44 -83 -112.5 -125t-158.5 -42q-52 0 -92 13.5t-70 41.5q-45 -29 -86.5 -42.5t-89.5 -13.5q-73 0 -130 30.5t-89 84t-32 120.5q0 61 21 114.5t61 94.5q46 46 103.5 70t121.5 24q98 0 162 -52
q73 52 169 52q72 0 129 -29.5t89 -81t32 -114.5q0 -32 -5 -72h-335q0 -38 16.5 -59zM688 324q0 24 -12.5 38t-34.5 14q-27 0 -45 -14t-28 -45h120v7zM262 308q-16 -11 -25 -29.5t-9 -41.5q0 -25 14.5 -40.5t38.5 -15.5q31 0 50 23t19 59q0 26 -14 41t-39 15q-19 0 -35 -11z
" />
    <glyph glyph-name="Racute" unicode="&#x154;" horiz-adv-x="744" 
d="M407 715q156 0 235.5 -55t79.5 -160q0 -89 -46 -148t-130 -77l103 -275h-265l-78 260l-48 -260h-258l132 715h275zM437 417q28 19 28 60q0 31 -22.5 45.5t-70.5 14.5h-15l-26 -139h19q59 0 87 19zM569 958l-181 -172h-93l108 172h166z" />
    <glyph glyph-name="racute" unicode="&#x155;" horiz-adv-x="471" 
d="M296 505l-17 -69q26 43 60 64t78 21q21 0 58 -8l-38 -206q-49 17 -81 17q-30 0 -48.5 -10.5t-28.5 -31.5t-16 -57l-41 -225h-238l94 505h218zM448 746l-181 -172h-93l108 172h166z" />
    <glyph glyph-name="Rcommaaccent" unicode="&#x156;" horiz-adv-x="744" 
d="M407 715q156 0 235.5 -55t79.5 -160q0 -89 -46 -148t-130 -77l103 -275h-265l-78 260l-48 -260h-258l132 715h275zM437 417q28 19 28 60q0 31 -22.5 45.5t-70.5 14.5h-15l-26 -139h19q59 0 87 19zM296 -240l-88 37l75 158l113 -45z" />
    <glyph glyph-name="rcommaaccent" unicode="&#x157;" horiz-adv-x="471" 
d="M296 505l-17 -69q26 43 60 64t78 21q21 0 58 -8l-38 -206q-49 17 -81 17q-30 0 -48.5 -10.5t-28.5 -31.5t-16 -57l-41 -225h-238l94 505h218zM76 -240l-88 37l75 158l113 -45z" />
    <glyph glyph-name="Rcaron" unicode="&#x158;" horiz-adv-x="744" 
d="M407 715q156 0 235.5 -55t79.5 -160q0 -89 -46 -148t-130 -77l103 -275h-265l-78 260l-48 -260h-258l132 715h275zM437 417q28 19 28 60q0 31 -22.5 45.5t-70.5 14.5h-15l-26 -139h19q59 0 87 19zM411 876l95 82h89l-122 -172h-143l-58 172h79z" />
    <glyph glyph-name="rcaron" unicode="&#x159;" horiz-adv-x="471" 
d="M296 505l-17 -69q26 43 60 64t78 21q21 0 58 -8l-38 -206q-49 17 -81 17q-30 0 -48.5 -10.5t-28.5 -31.5t-16 -57l-41 -225h-238l94 505h218zM306 665l93 82h87l-122 -172h-143l-58 172h81z" />
    <glyph glyph-name="Sacute" unicode="&#x15a;" horiz-adv-x="594" 
d="M174.5 219q48.5 -28 96.5 -28q22 0 34.5 8t12.5 20q0 14 -12 22t-44 20l-19 8q-90 38 -132.5 87.5t-42.5 121.5t36 130t103 90.5t156 32.5q152 0 258 -90l-100 -175q-85 75 -144 75q-18 0 -29 -8.5t-11 -22.5q0 -11 7.5 -19.5t23 -16.5t34.5 -16l26 -11q54 -24 87 -51.5
t49.5 -64t16.5 -86.5q0 -73 -39 -132.5t-109 -94.5t-159 -35q-84 0 -165 33t-154 97l128 187q43 -53 91.5 -81zM550 958l-181 -172h-93l108 172h166z" />
    <glyph glyph-name="sacute" unicode="&#x15b;" horiz-adv-x="481" 
d="M127.5 158q35.5 -19 62.5 -19q12 0 19.5 6t7.5 15q0 10 -7.5 16t-30.5 18l-38 20q-45 23 -66.5 55t-21.5 74q0 50 27 90.5t76 64t113 23.5q50 0 99 -15t100 -46l-81 -136q-26 25 -49.5 37.5t-42.5 12.5q-12 0 -20 -6.5t-8 -15.5q0 -8 6 -12.5t17.5 -10t18.5 -8.5l30 -14
q46 -21 68 -53.5t22 -80.5q0 -56 -28 -99.5t-79.5 -68t-120.5 -24.5q-109 0 -236 85l89 149q38 -38 73.5 -57zM454 746l-181 -172h-93l108 172h166z" />
    <glyph glyph-name="Scircumflex" unicode="&#x15c;" horiz-adv-x="594" 
d="M174.5 219q48.5 -28 96.5 -28q22 0 34.5 8t12.5 20q0 14 -12 22t-44 20l-19 8q-90 38 -132.5 87.5t-42.5 121.5t36 130t103 90.5t156 32.5q152 0 258 -90l-100 -175q-85 75 -144 75q-18 0 -29 -8.5t-11 -22.5q0 -11 7.5 -19.5t23 -16.5t34.5 -16l26 -11q54 -24 87 -51.5
t49.5 -64t16.5 -86.5q0 -73 -39 -132.5t-109 -94.5t-159 -35q-84 0 -165 33t-154 97l128 187q43 -53 91.5 -81zM414 868l-95 -82h-89l122 172h143l58 -172h-79z" />
    <glyph glyph-name="scircumflex" unicode="&#x15d;" horiz-adv-x="481" 
d="M127.5 158q35.5 -19 62.5 -19q12 0 19.5 6t7.5 15q0 10 -7.5 16t-30.5 18l-38 20q-45 23 -66.5 55t-21.5 74q0 50 27 90.5t76 64t113 23.5q50 0 99 -15t100 -46l-81 -136q-26 25 -49.5 37.5t-42.5 12.5q-12 0 -20 -6.5t-8 -15.5q0 -8 6 -12.5t17.5 -10t18.5 -8.5l30 -14
q46 -21 68 -53.5t22 -80.5q0 -56 -28 -99.5t-79.5 -68t-120.5 -24.5q-109 0 -236 85l89 149q38 -38 73.5 -57zM311 657l-93 -82h-87l122 172h143l58 -172h-81z" />
    <glyph glyph-name="Scedilla" unicode="&#x15e;" horiz-adv-x="594" 
d="M174.5 219q48.5 -28 96.5 -28q22 0 34.5 8t12.5 20q0 14 -12 22t-44 20l-19 8q-90 38 -132.5 87.5t-42.5 121.5t36 130t103 90.5t156 32.5q152 0 258 -90l-100 -175q-85 75 -144 75q-18 0 -29 -8.5t-11 -22.5q0 -11 7.5 -19.5t23 -16.5t34.5 -16l26 -11q54 -24 87 -51.5
t49.5 -64t16.5 -86.5q0 -73 -39 -132.5t-109 -94.5t-159 -35q-84 0 -165 33t-154 97l128 187q43 -53 91.5 -81zM223 -173q22 0 34 9.5t12 25.5q0 18 -19.5 25t-62.5 7h-11l36 106h58l-16 -45q114 -2 114 -85q0 -53 -35 -83t-101 -30q-51 0 -144 29l26 66q63 -25 109 -25z
" />
    <glyph glyph-name="scedilla" unicode="&#x15f;" horiz-adv-x="481" 
d="M127.5 158q35.5 -19 62.5 -19q12 0 19.5 6t7.5 15q0 10 -7.5 16t-30.5 18l-38 20q-45 23 -66.5 55t-21.5 74q0 50 27 90.5t76 64t113 23.5q50 0 99 -15t100 -46l-81 -136q-26 25 -49.5 37.5t-42.5 12.5q-12 0 -20 -6.5t-8 -15.5q0 -8 6 -12.5t17.5 -10t18.5 -8.5l30 -14
q46 -21 68 -53.5t22 -80.5q0 -56 -28 -99.5t-79.5 -68t-120.5 -24.5q-109 0 -236 85l89 149q38 -38 73.5 -57zM166 -169q20 0 30.5 8t10.5 23t-17.5 21.5t-59.5 6.5h-11l36 110h58l-16 -45q114 -2 114 -85q0 -55 -35 -85.5t-101 -30.5q-51 0 -144 29l26 73q63 -25 109 -25z
" />
    <glyph glyph-name="Scaron" unicode="&#x160;" horiz-adv-x="594" 
d="M174.5 219q48.5 -28 96.5 -28q22 0 34.5 8t12.5 20q0 14 -12 22t-44 20l-19 8q-90 38 -132.5 87.5t-42.5 121.5t36 130t103 90.5t156 32.5q152 0 258 -90l-100 -175q-85 75 -144 75q-18 0 -29 -8.5t-11 -22.5q0 -11 7.5 -19.5t23 -16.5t34.5 -16l26 -11q54 -24 87 -51.5
t49.5 -64t16.5 -86.5q0 -73 -39 -132.5t-109 -94.5t-159 -35q-84 0 -165 33t-154 97l128 187q43 -53 91.5 -81zM392 876l95 82h89l-122 -172h-143l-58 172h79z" />
    <glyph glyph-name="scaron" unicode="&#x161;" horiz-adv-x="481" 
d="M127.5 158q35.5 -19 62.5 -19q12 0 19.5 6t7.5 15q0 10 -7.5 16t-30.5 18l-38 20q-45 23 -66.5 55t-21.5 74q0 50 27 90.5t76 64t113 23.5q50 0 99 -15t100 -46l-81 -136q-26 25 -49.5 37.5t-42.5 12.5q-12 0 -20 -6.5t-8 -15.5q0 -8 6 -12.5t17.5 -10t18.5 -8.5l30 -14
q46 -21 68 -53.5t22 -80.5q0 -56 -28 -99.5t-79.5 -68t-120.5 -24.5q-109 0 -236 85l89 149q38 -38 73.5 -57zM312 665l93 82h87l-122 -172h-143l-58 172h81z" />
    <glyph glyph-name="uni0162" unicode="&#x162;" horiz-adv-x="583" 
d="M33 498l41 217h562l-40 -217h-148l-92 -498h-262l92 498h-153zM208 -240l-88 37l75 158l113 -45z" />
    <glyph glyph-name="uni0163" unicode="&#x163;" horiz-adv-x="427" 
d="M21 323l34 182h63l26 141h238l-26 -141h73l-34 -182h-73l-60 -323h-237l59 323h-63zM128 -240l-88 37l75 158l113 -45z" />
    <glyph glyph-name="Tcaron" unicode="&#x164;" horiz-adv-x="583" 
d="M33 498l41 217h562l-40 -217h-148l-92 -498h-262l92 498h-153zM375 876l95 82h89l-122 -172h-143l-58 172h79z" />
    <glyph glyph-name="tcaron" unicode="&#x165;" horiz-adv-x="427" 
d="M21 323l34 182h63l26 141h238l-26 -141h73l-34 -182h-73l-60 -323h-237l59 323h-63zM524 601l-88 37l75 158l113 -45z" />
    <glyph glyph-name="Tbar" unicode="&#x166;" horiz-adv-x="583" 
d="M448 498l-16 -87h79l-29 -156h-79l-47 -255h-262l47 256h-79l29 156h79l16 86h-153l41 217h562l-40 -217h-148z" />
    <glyph glyph-name="tbar" unicode="&#x167;" horiz-adv-x="427" 
d="M322 323l-8 -44h73l-30 -156h-72l-23 -123h-237l22 123h-64l30 156h63l8 44h-63l34 182h63l26 141h238l-26 -141h73l-34 -182h-73z" />
    <glyph glyph-name="Utilde" unicode="&#x168;" horiz-adv-x="763" 
d="M322 368q-6 -33 -10.5 -59.5t-4.5 -38.5q0 -28 14 -43t40 -15q27 0 41.5 15t22.5 43t19 85l66 360h261l-73 -398q-14 -72 -31.5 -123t-43.5 -86q-45 -61 -114.5 -94t-153.5 -33q-96 0 -165.5 31.5t-106.5 90t-37 139.5q0 28 5.5 67.5t16.5 99.5l56 306h262zM597.5 849.5
q-27.5 -33.5 -70.5 -33.5q-22 0 -43 7l-31 10q-20 6 -31 6q-34 0 -44 -33h-61q29 136 113 136q19 0 45 -8l31 -10q18 -6 27 -6q19 0 29 8.5t18 30.5h62q-17 -74 -44.5 -107.5z" />
    <glyph glyph-name="utilde" unicode="&#x169;" horiz-adv-x="653" 
d="M269 290q-2 -9 -5.5 -28t-3.5 -31q0 -20 10 -31t27 -11q19 0 30 11.5t17.5 32.5t14.5 65l38 207h231l-42 -228q-19 -107 -55 -171t-96.5 -94t-156.5 -30q-81 0 -139 25.5t-88.5 74t-30.5 115.5q0 23 5 56t12 68l34 184h237zM498.5 634.5q-27.5 -33.5 -70.5 -33.5
q-22 0 -43 7l-31 10q-20 6 -31 6q-34 0 -44 -33h-61q29 136 113 136q19 0 45 -8l31 -10q18 -6 27 -6q19 0 29 8.5t18 30.5h62q-17 -74 -44.5 -107.5z" />
    <glyph glyph-name="Umacron" unicode="&#x16a;" horiz-adv-x="763" 
d="M322 368q-6 -33 -10.5 -59.5t-4.5 -38.5q0 -28 14 -43t40 -15q27 0 41.5 15t22.5 43t19 85l66 360h261l-73 -398q-14 -72 -31.5 -123t-43.5 -86q-45 -61 -114.5 -94t-153.5 -33q-96 0 -165.5 31.5t-106.5 90t-37 139.5q0 28 5.5 67.5t16.5 99.5l56 306h262zM655 929
l-17 -94h-299l17 94h299z" />
    <glyph glyph-name="umacron" unicode="&#x16b;" horiz-adv-x="653" 
d="M269 290q-2 -9 -5.5 -28t-3.5 -31q0 -20 10 -31t27 -11q19 0 30 11.5t17.5 32.5t14.5 65l38 207h231l-42 -228q-19 -107 -55 -171t-96.5 -94t-156.5 -30q-81 0 -139 25.5t-88.5 74t-30.5 115.5q0 23 5 56t12 68l34 184h237zM531 718l-17 -94h-299l17 94h299z" />
    <glyph glyph-name="Ubreve" unicode="&#x16c;" horiz-adv-x="763" 
d="M322 368q-6 -33 -10.5 -59.5t-4.5 -38.5q0 -28 14 -43t40 -15q27 0 41.5 15t22.5 43t19 85l66 360h261l-73 -398q-14 -72 -31.5 -123t-43.5 -86q-45 -61 -114.5 -94t-153.5 -33q-96 0 -165.5 31.5t-106.5 90t-37 139.5q0 28 5.5 67.5t16.5 99.5l56 306h262zM415 956
q0 -27 16.5 -41t48.5 -14q37 0 62 16.5t40 48.5h75q-19 -83 -66.5 -124.5t-120.5 -41.5q-63 0 -95 33.5t-32 101.5v31h72v-10z" />
    <glyph glyph-name="ubreve" unicode="&#x16d;" horiz-adv-x="653" 
d="M269 290q-2 -9 -5.5 -28t-3.5 -31q0 -20 10 -31t27 -11q19 0 30 11.5t17.5 32.5t14.5 65l38 207h231l-42 -228q-19 -107 -55 -171t-96.5 -94t-156.5 -30q-81 0 -139 25.5t-88.5 74t-30.5 115.5q0 23 5 56t12 68l34 184h237zM314 746q0 -27 16.5 -41t48.5 -14
q37 0 62 16.5t40 48.5h75q-19 -83 -66.5 -124.5t-120.5 -41.5q-63 0 -95 33.5t-32 101.5v31h72v-10z" />
    <glyph glyph-name="Uring" unicode="&#x16e;" horiz-adv-x="763" 
d="M322 368q-6 -33 -10.5 -59.5t-4.5 -38.5q0 -28 14 -43t40 -15q27 0 41.5 15t22.5 43t19 85l66 360h261l-73 -398q-14 -72 -31.5 -123t-43.5 -86q-45 -61 -114.5 -94t-153.5 -33q-96 0 -165.5 31.5t-106.5 90t-37 139.5q0 28 5.5 67.5t16.5 99.5l56 306h262zM343.5 927.5
q17.5 30.5 47.5 48t66 17.5q35 0 65.5 -17.5t48.5 -48t18 -65.5q0 -36 -17.5 -66.5t-48 -48t-66.5 -17.5t-66 17.5t-47.5 48t-17.5 66.5q0 35 17.5 65.5zM419.5 824.5q15.5 -15.5 37.5 -15.5q23 0 38 15.5t15 37.5t-15.5 37.5t-37.5 15.5t-37.5 -15.5t-15.5 -37.5
t15.5 -37.5z" />
    <glyph glyph-name="uring" unicode="&#x16f;" horiz-adv-x="653" 
d="M269 290q-2 -9 -5.5 -28t-3.5 -31q0 -20 10 -31t27 -11q19 0 30 11.5t17.5 32.5t14.5 65l38 207h231l-42 -228q-19 -107 -55 -171t-96.5 -94t-156.5 -30q-81 0 -139 25.5t-88.5 74t-30.5 115.5q0 23 5 56t12 68l34 184h237zM259.5 764.5q17.5 30.5 48 48.5t66.5 18
t66.5 -18t48.5 -48.5t18 -66.5t-18 -66.5t-48.5 -48t-66.5 -17.5q-37 0 -67 17.5t-47.5 47.5t-17.5 67q0 36 17.5 66.5zM331 655q17 -17 43 -17t43 17t17 42t-17.5 43t-42.5 18q-26 0 -43 -17.5t-17 -43.5q0 -25 17 -42z" />
    <glyph glyph-name="Uhungarumlaut" unicode="&#x170;" horiz-adv-x="763" 
d="M322 368q-6 -33 -10.5 -59.5t-4.5 -38.5q0 -28 14 -43t40 -15q27 0 41.5 15t22.5 43t19 85l66 360h261l-73 -398q-14 -72 -31.5 -123t-43.5 -86q-45 -61 -114.5 -94t-153.5 -33q-96 0 -165.5 31.5t-106.5 90t-37 139.5q0 28 5.5 67.5t16.5 99.5l56 306h262zM543 958
l-135 -172h-66l67 172h134zM718 958l-157 -172h-72l89 172h140z" />
    <glyph glyph-name="uhungarumlaut" unicode="&#x171;" horiz-adv-x="653" 
d="M269 290q-2 -9 -5.5 -28t-3.5 -31q0 -20 10 -31t27 -11q19 0 30 11.5t17.5 32.5t14.5 65l38 207h231l-42 -228q-19 -107 -55 -171t-96.5 -94t-156.5 -30q-81 0 -139 25.5t-88.5 74t-30.5 115.5q0 23 5 56t12 68l34 184h237zM449 747l-135 -172h-66l67 172h134zM623 747
l-157 -172h-71l89 172h139z" />
    <glyph glyph-name="Uogonek" unicode="&#x172;" horiz-adv-x="763" 
d="M322 368q-6 -33 -10.5 -59.5t-4.5 -38.5q0 -28 14 -43t40 -15q27 0 41.5 15t22.5 43t19 85l66 360h261l-73 -398q-14 -72 -31.5 -123t-43.5 -86q-45 -61 -114.5 -94t-153.5 -33q-96 0 -165.5 31.5t-106.5 90t-37 139.5q0 28 5.5 67.5t16.5 99.5l56 306h262zM429 -48
q-14 -22 -14 -47q0 -18 12.5 -26.5t43.5 -8.5h37l-18 -101h-28q-56 0 -87 9t-44.5 30.5t-13.5 59.5q0 33 27 69t73 63h56q-30 -26 -44 -48z" />
    <glyph glyph-name="uogonek" unicode="&#x173;" horiz-adv-x="653" 
d="M269 290q-2 -9 -5.5 -28t-3.5 -31q0 -20 10 -31t27 -11q19 0 30 11.5t17.5 32.5t14.5 65l38 207h231l-42 -228q-19 -107 -55 -171t-96.5 -94t-156.5 -30q-81 0 -139 25.5t-88.5 74t-30.5 115.5q0 23 5 56t12 68l34 184h237zM361 -48q-14 -22 -14 -47q0 -17 9 -26t27 -9
h57l-18 -98h-28q-49 0 -79.5 9t-45.5 30t-15 57q0 37 23 69t72 63h56q-30 -26 -44 -48z" />
    <glyph glyph-name="Wcircumflex" unicode="&#x174;" horiz-adv-x="1009" 
d="M279 715l9 -221q3 -52 3 -99q0 -39 -3 -77l156 397h206l25 -393q23 86 44 137l99 256h272l-306 -715h-261l-24 394q-18 -72 -46 -139l-108 -255h-258l-57 715h249zM586 868l-95 -82h-89l122 172h143l58 -172h-79z" />
    <glyph glyph-name="wcircumflex" unicode="&#x175;" horiz-adv-x="843" 
d="M222 505l13 -111q3 -27 4.5 -58t2.5 -61l105 230h156l15 -127q5 -48 5 -81q0 -19 -1 -28l109 236h243l-268 -505h-195l-22 251q-9 -28 -21 -56t-19.5 -43l-10.5 -21l-64 -131h-193l-86 505h227zM470 657l-93 -82h-87l122 172h143l58 -172h-81z" />
    <glyph glyph-name="Ycircumflex" unicode="&#x176;" horiz-adv-x="640" 
d="M-7 715h282l31 -94q19 -57 25 -101q7 26 17.5 45t31.5 51l63 99h310l-323 -422l-54 -293h-262l55 297zM405 868l-95 -82h-89l122 172h143l58 -172h-79z" />
    <glyph glyph-name="ycircumflex" unicode="&#x177;" horiz-adv-x="579" 
d="M0 505h228l25 -125q12 -55 13 -95q9 42 36 96l60 124h249l-425 -723h-260l188 309zM356 657l-93 -82h-87l122 172h143l58 -172h-81z" />
    <glyph glyph-name="Ydieresis" unicode="&#x178;" horiz-adv-x="640" 
d="M-7 715h282l31 -94q19 -57 25 -101q7 26 17.5 45t31.5 51l63 99h310l-323 -422l-54 -293h-262l55 297zM239 912.5q10 16.5 26.5 26.5t36.5 10t37 -9.5t26.5 -26t9.5 -36.5q0 -32 -20.5 -52.5t-52.5 -20.5q-20 0 -37 9.5t-26.5 26t-9.5 37.5q0 19 10 35.5zM421 912.5
q10 16.5 26.5 26.5t35.5 10q20 0 36.5 -9.5t26.5 -26t10 -36.5q0 -32 -20.5 -52.5t-52.5 -20.5q-20 0 -36.5 9.5t-26 26.5t-9.5 37q0 19 10 35.5z" />
    <glyph glyph-name="Zacute" unicode="&#x179;" horiz-adv-x="660" 
d="M54 504l39 211h657l-365 -497h230l-40 -218h-635l365 504h-251zM573 958l-181 -172h-93l108 172h166z" />
    <glyph glyph-name="zacute" unicode="&#x17a;" horiz-adv-x="593" 
d="M32 319l34 186h527l-3 -14l-244 -306h188l-35 -185h-537l244 319h-174zM510 746l-181 -172h-93l108 172h166z" />
    <glyph glyph-name="Zdotaccent" unicode="&#x17b;" horiz-adv-x="660" 
d="M54 504l39 211h657l-365 -497h230l-40 -218h-635l365 504h-251zM341 914q11 18 28.5 28.5t37.5 10.5q22 0 39.5 -10.5t28 -28t10.5 -38.5q0 -22 -10.5 -39.5t-28 -28t-39.5 -10.5q-20 0 -38 10.5t-28.5 28.5t-10.5 39q0 20 11 38z" />
    <glyph glyph-name="zdotaccent" unicode="&#x17c;" horiz-adv-x="593" 
d="M32 319l34 186h527l-3 -14l-244 -306h188l-35 -185h-537l244 319h-174zM302 698q11 18 29.5 29t38.5 11q22 0 40.5 -10.5t29 -28.5t10.5 -40t-10.5 -40.5t-29 -29t-40.5 -10.5q-21 0 -39 11t-29 29.5t-11 39.5t11 39z" />
    <glyph glyph-name="Zcaron" unicode="&#x17d;" horiz-adv-x="660" 
d="M54 504l39 211h657l-365 -497h230l-40 -218h-635l365 504h-251zM415 876l95 82h89l-122 -172h-143l-58 172h79z" />
    <glyph glyph-name="zcaron" unicode="&#x17e;" horiz-adv-x="593" 
d="M32 319l34 186h527l-3 -14l-244 -306h188l-35 -185h-537l244 319h-174zM368 665l93 82h87l-122 -172h-143l-58 172h81z" />
    <glyph glyph-name="florin" unicode="&#x192;" horiz-adv-x="685" 
d="M144 437h95l18 98q9 48 21 79t37 56q28 28 72 44.5t94 16.5q76 0 132 -14l-30 -182q-25 7 -40 7q-23 0 -35 -15t-18 -49l-7 -41h89l-25 -139h-89l-42 -225q-14 -78 -30 -126.5t-43 -81.5q-29 -37 -81 -56.5t-121 -19.5q-44 0 -107 11l32 181q19 -4 35 -4q28 0 43.5 18
t24 53t21.5 113q2 18 4 27l18 110h-93z" />
    <glyph glyph-name="Ohorn" unicode="&#x1a0;" horiz-adv-x="863" 
d="M883.5 713.5q-19.5 -36.5 -58 -60.5t-94.5 -31q44 -48 63.5 -105.5t19.5 -119.5q0 -116 -52.5 -211t-147.5 -150.5t-216 -55.5q-107 0 -189 43.5t-126.5 120t-44.5 172.5q0 121 55 215.5t150 147.5t210 53q42 0 74.5 -6t71.5 -17q28 -8 45.5 -11.5t36.5 -3.5q26 0 49 13
t36.5 36t13.5 52q0 31 -4 44h121q6 -18 6 -44q0 -45 -19.5 -81.5zM486.5 239q32.5 21 51 56.5t18.5 77.5q0 35 -15.5 62.5t-42.5 43t-61 15.5q-40 0 -72.5 -19.5t-51 -54t-18.5 -77.5q0 -37 14.5 -65.5t41.5 -44t63 -15.5q40 0 72.5 21z" />
    <glyph glyph-name="ohorn" unicode="&#x1a1;" horiz-adv-x="649" 
d="M654 481.5q-43 -47.5 -127 -59.5q43 -63 43 -143q0 -69 -35.5 -138t-106.5 -114.5t-169 -45.5q-73 0 -130.5 30.5t-90 84t-32.5 120.5q0 84 40 154t110.5 110t156.5 40q31 0 52 -3.5t54 -10.5q3 -1 16 -4t24 -4.5t22 -1.5q21 0 42.5 10.5t36 32.5t14.5 55q0 18 -4 42h121
q6 -18 6 -37q0 -70 -43 -117.5zM331 204q19 23 19 59q0 26 -14 41t-39 15q-19 0 -35 -11t-25 -29.5t-9 -41.5q0 -27 14.5 -41.5t38.5 -14.5q31 0 50 23z" />
    <glyph glyph-name="Uhorn" unicode="&#x1af;" horiz-adv-x="791" 
d="M878.5 707q-44.5 -41 -119.5 -55l-61 -335q-14 -72 -31.5 -123t-43.5 -86q-45 -61 -114.5 -94t-153.5 -33q-96 0 -165.5 31.5t-106.5 90t-37 139.5q0 28 5.5 67.5t16.5 99.5l56 306h262l-64 -347q-6 -33 -10.5 -59.5t-4.5 -38.5q0 -28 14 -43t40 -15q27 0 41.5 15
t22.5 43t19 85l66 360h179q32 0 57 12.5t39.5 35.5t14.5 52q0 21 -4 44h121q6 -16 6 -44q0 -67 -44.5 -108z" />
    <glyph glyph-name="uhorn" unicode="&#x1b0;" horiz-adv-x="659" 
d="M269 290q-2 -9 -5.5 -28t-3.5 -31q0 -20 10 -31t27 -11q19 0 30 11.5t17.5 32.5t14.5 65l38 207h231l-42 -228q-19 -107 -55 -171t-96.5 -94t-156.5 -30q-81 0 -139 25.5t-88.5 74t-30.5 115.5q0 23 5 56t12 68l34 184h237zM539 505q32 0 57 12.5t39.5 35.5t14.5 52
q0 21 -4 44h121q6 -16 6 -44q0 -57 -33 -95.5t-89 -57t-125 -18.5z" />
    <glyph glyph-name="Scommaaccent" unicode="&#x218;" horiz-adv-x="594" 
d="M174.5 219q48.5 -28 96.5 -28q22 0 34.5 8t12.5 20q0 14 -12 22t-44 20l-19 8q-90 38 -132.5 87.5t-42.5 121.5t36 130t103 90.5t156 32.5q152 0 258 -90l-100 -175q-85 75 -144 75q-18 0 -29 -8.5t-11 -22.5q0 -11 7.5 -19.5t23 -16.5t34.5 -16l26 -11q54 -24 87 -51.5
t49.5 -64t16.5 -86.5q0 -73 -39 -132.5t-109 -94.5t-159 -35q-84 0 -165 33t-154 97l128 187q43 -53 91.5 -81zM227 -240l-88 37l75 158l113 -45z" />
    <glyph glyph-name="scommaaccent" unicode="&#x219;" horiz-adv-x="481" 
d="M127.5 158q35.5 -19 62.5 -19q12 0 19.5 6t7.5 15q0 10 -7.5 16t-30.5 18l-38 20q-45 23 -66.5 55t-21.5 74q0 50 27 90.5t76 64t113 23.5q50 0 99 -15t100 -46l-81 -136q-26 25 -49.5 37.5t-42.5 12.5q-12 0 -20 -6.5t-8 -15.5q0 -8 6 -12.5t17.5 -10t18.5 -8.5l30 -14
q46 -21 68 -53.5t22 -80.5q0 -56 -28 -99.5t-79.5 -68t-120.5 -24.5q-109 0 -236 85l89 149q38 -38 73.5 -57zM171 -240l-88 37l75 158l113 -45z" />
    <glyph glyph-name="uni021A" unicode="&#x21a;" horiz-adv-x="583" 
d="M33 498l41 217h562l-40 -217h-148l-92 -498h-262l92 498h-153zM208 -240l-88 37l75 158l113 -45z" />
    <glyph glyph-name="uni021B" unicode="&#x21b;" horiz-adv-x="427" 
d="M21 323l34 182h63l26 141h238l-26 -141h73l-34 -182h-73l-60 -323h-237l59 323h-63zM128 -240l-88 37l75 158l113 -45z" />
    <glyph glyph-name="dotlessj" unicode="&#x237;" horiz-adv-x="354" 
d="M323 505l-134 -723h-237l133 723h238z" />
    <glyph glyph-name="uni02BC" unicode="&#x2bc;" horiz-adv-x="480" 
d="M155 507l-72 31l73 157l99 -39z" />
    <glyph glyph-name="circumflex" unicode="&#x2c6;" horiz-adv-x="500" 
d="M301 657l-93 -82h-87l122 172h143l58 -172h-81z" />
    <glyph glyph-name="caron" unicode="&#x2c7;" horiz-adv-x="500" 
d="M303 665l93 82h87l-122 -172h-143l-58 172h81z" />
    <glyph glyph-name="uni02C9" unicode="&#x2c9;" horiz-adv-x="681" 
d="M467 718l-17 -94h-299l17 94h299z" />
    <glyph glyph-name="breve" unicode="&#x2d8;" horiz-adv-x="500" 
d="M279 956q0 -27 16.5 -41t48.5 -14q37 0 62 16.5t40 48.5h75q-19 -83 -66.5 -124.5t-120.5 -41.5q-63 0 -95 33.5t-32 101.5v31h72v-10z" />
    <glyph glyph-name="dotaccent" unicode="&#x2d9;" horiz-adv-x="500" 
d="M238 698q11 18 29.5 29t38.5 11q22 0 40.5 -10.5t29 -28.5t10.5 -40t-10.5 -40.5t-29 -29t-40.5 -10.5q-21 0 -39 11t-29 29.5t-11 39.5t11 39z" />
    <glyph glyph-name="ring" unicode="&#x2da;" horiz-adv-x="500" 
d="M201.5 764.5q17.5 30.5 48 48.5t66.5 18t66.5 -18t48.5 -48.5t18 -66.5t-18 -66.5t-48.5 -48t-66.5 -17.5q-37 0 -67 17.5t-47.5 47.5t-17.5 67q0 36 17.5 66.5zM273 655q17 -17 43 -17t43 17t17 42t-17.5 43t-42.5 18q-26 0 -43 -17.5t-17 -43.5q0 -25 17 -42z" />
    <glyph glyph-name="ogonek" unicode="&#x2db;" horiz-adv-x="500" 
d="M181 -48q-14 -22 -14 -47q0 -17 9 -26t27 -9h57l-18 -98h-28q-49 0 -79.5 9t-45.5 30t-15 57q0 37 23 69t72 63h56q-30 -26 -44 -48z" />
    <glyph glyph-name="tilde" unicode="&#x2dc;" horiz-adv-x="500" 
d="M412.5 634.5q-27.5 -33.5 -70.5 -33.5q-22 0 -43 7l-31 10q-20 6 -31 6q-34 0 -44 -33h-61q29 136 113 136q19 0 45 -8l31 -10q18 -6 27 -6q19 0 29 8.5t18 30.5h62q-17 -74 -44.5 -107.5z" />
    <glyph glyph-name="hungarumlaut" unicode="&#x2dd;" horiz-adv-x="500" 
d="M373 747l-135 -172h-66l67 172h134zM547 747l-157 -172h-71l89 172h139z" />
    <glyph glyph-name="gravecomb" unicode="&#x300;" horiz-adv-x="0" 
d="M153 575h-91l-134 172h150z" />
    <glyph glyph-name="acutecomb" unicode="&#x301;" horiz-adv-x="0" 
d="M242 746l-181 -172h-93l108 172h166z" />
    <glyph glyph-name="circumflexcomb" unicode="&#x302;" horiz-adv-x="0" 
d="M79 657l-93 -82h-87l122 172h143l58 -172h-81z" />
    <glyph glyph-name="tildecomb" unicode="&#x303;" horiz-adv-x="0" 
d="M190.5 628.5q-27.5 -33.5 -70.5 -33.5q-22 0 -43 7l-31 10q-20 6 -31 6q-34 0 -44 -33h-61q29 136 113 136q19 0 45 -8l31 -10q18 -6 27 -6q19 0 29 8.5t18 30.5h62q-17 -74 -44.5 -107.5z" />
    <glyph glyph-name="brevecomb" unicode="&#x306;" horiz-adv-x="0" 
d="M28 732q0 -27 16.5 -41t48.5 -14q37 0 62 16.5t40 48.5h75q-19 -83 -66.5 -124.5t-120.5 -41.5q-63 0 -95 33.5t-32 101.5v31h72v-10z" />
    <glyph glyph-name="commaturnedabovecomb" unicode="&#x312;" horiz-adv-x="0" 
d="M196 759l88 -37l-75 -158l-113 45z" />
    <glyph glyph-name="uni031B" unicode="&#x31b;" horiz-adv-x="0" 
d="M50 523q32 0 57 12.5t39.5 35.5t14.5 52q0 21 -4 44h121q6 -16 6 -44q0 -57 -33 -95.5t-89 -57t-125 -18.5z" />
    <glyph glyph-name="dotbelowcomb" unicode="&#x323;" horiz-adv-x="0" 
d="M-97 -93q11 18 29.5 29t38.5 11q22 0 40.5 -10.5t29 -28.5t10.5 -40t-10.5 -40.5t-29 -29t-40.5 -10.5q-21 0 -39 11t-29 29.5t-11 39.5t11 39z" />
    <glyph glyph-name="commaaccent" unicode="&#x326;" horiz-adv-x="0" 
d="M31 -240l-88 37l75 158l113 -45z" />
    <glyph glyph-name="uni0335" unicode="&#x335;" horiz-adv-x="0" 
d="M237 718l-17 -94h-299l17 94h299z" />
    <glyph glyph-name="uni0394" unicode="&#x394;" horiz-adv-x="715" 
d="M679 0h-749l373 715h283zM415 194l-8 147q0 9 -1.5 37.5t-1.5 57.5q0 32 1 50q-19 -59 -36 -103l-79 -189h125z" />
    <glyph glyph-name="uni03A9" unicode="&#x3a9;" horiz-adv-x="786" 
d="M406 264q33 8 59 32t41 57t15 69q0 42 -26 66t-74 24q-41 0 -74 -20.5t-52 -56.5t-19 -81q0 -34 19 -58t52 -32l-49 -264h-333l36 194h156l2 12q-35 10 -62 37t-42 64.5t-15 80.5q0 98 53 176t147 122.5t210 44.5q103 0 176.5 -29t112.5 -84.5t39 -133.5q0 -55 -28 -115
t-75 -105t-100 -58l-2 -12h154l-36 -194h-334z" />
    <glyph glyph-name="uni03BC" unicode="&#x3bc;" horiz-adv-x="670" 
d="M251 205q0 -33 15.5 -49t46.5 -16q39 0 60.5 25.5t29.5 78.5l41 287h204l-77 -531h-180l9 64q-18 -34 -40.5 -50t-51.5 -16q-60 0 -86 61l-35 -265h-201l102 737h206l-41 -300q-2 -18 -2 -26z" />
    <glyph glyph-name="pi" unicode="&#x3c0;" horiz-adv-x="707" 
d="M488 -12q-78 0 -116 28.5t-38 93.5q0 27 6 58l28 155h-64l-60 -323h-238l60 323h-53l34 182h660l-34 -182h-67l-19 -102q-2 -12 -2 -14q0 -12 6.5 -16.5t20.5 -4.5t38 6l-35 -187q-59 -17 -127 -17z" />
    <glyph glyph-name="Wgrave" unicode="&#x1e80;" horiz-adv-x="1009" 
d="M279 715l9 -221q3 -52 3 -99q0 -39 -3 -77l156 397h206l25 -393q23 86 44 137l99 256h272l-306 -715h-261l-24 394q-18 -72 -46 -139l-108 -255h-258l-57 715h249zM653 786h-91l-134 172h150z" />
    <glyph glyph-name="wgrave" unicode="&#x1e81;" horiz-adv-x="843" 
d="M222 505l13 -111q3 -27 4.5 -58t2.5 -61l105 230h156l15 -127q5 -48 5 -81q0 -19 -1 -28l109 236h243l-268 -505h-195l-22 251q-9 -28 -21 -56t-19.5 -43l-10.5 -21l-64 -131h-193l-86 505h227zM524 575h-91l-134 172h150z" />
    <glyph glyph-name="Wacute" unicode="&#x1e82;" horiz-adv-x="1009" 
d="M279 715l9 -221q3 -52 3 -99q0 -39 -3 -77l156 397h206l25 -393q23 86 44 137l99 256h272l-306 -715h-261l-24 394q-18 -72 -46 -139l-108 -255h-258l-57 715h249zM722 958l-181 -172h-93l108 172h166z" />
    <glyph glyph-name="wacute" unicode="&#x1e83;" horiz-adv-x="843" 
d="M222 505l13 -111q3 -27 4.5 -58t2.5 -61l105 230h156l15 -127q5 -48 5 -81q0 -19 -1 -28l109 236h243l-268 -505h-195l-22 251q-9 -28 -21 -56t-19.5 -43l-10.5 -21l-64 -131h-193l-86 505h227zM613 746l-181 -172h-93l108 172h166z" />
    <glyph glyph-name="Wdieresis" unicode="&#x1e84;" horiz-adv-x="1009" 
d="M279 715l9 -221q3 -52 3 -99q0 -39 -3 -77l156 397h206l25 -393q23 86 44 137l99 256h272l-306 -715h-261l-24 394q-18 -72 -46 -139l-108 -255h-258l-57 715h249zM420 912.5q10 16.5 26.5 26.5t36.5 10t37 -9.5t26.5 -26t9.5 -36.5q0 -32 -20.5 -52.5t-52.5 -20.5
q-20 0 -37 9.5t-26.5 26t-9.5 37.5q0 19 10 35.5zM602 912.5q10 16.5 26.5 26.5t35.5 10q20 0 36.5 -9.5t26.5 -26t10 -36.5q0 -32 -20.5 -52.5t-52.5 -20.5q-20 0 -36.5 9.5t-26 26.5t-9.5 37q0 19 10 35.5z" />
    <glyph glyph-name="wdieresis" unicode="&#x1e85;" horiz-adv-x="843" 
d="M222 505l13 -111q3 -27 4.5 -58t2.5 -61l105 230h156l15 -127q5 -48 5 -81q0 -19 -1 -28l109 236h243l-268 -505h-195l-22 251q-9 -28 -21 -56t-19.5 -43l-10.5 -21l-64 -131h-193l-86 505h227zM302 701.5q10 16.5 26.5 26.5t36.5 10t37 -9.5t26.5 -26t9.5 -36.5
q0 -32 -20.5 -52.5t-52.5 -20.5q-20 0 -37 9.5t-26.5 26t-9.5 37.5q0 19 10 35.5zM484 701.5q10 16.5 26.5 26.5t35.5 10q20 0 36.5 -9.5t26.5 -26t10 -36.5q0 -32 -20.5 -52.5t-52.5 -20.5q-20 0 -36.5 9.5t-26 26.5t-9.5 37q0 19 10 35.5z" />
    <glyph glyph-name="Germandbls" unicode="&#x1e9e;" horiz-adv-x="747" 
d="M699 347.5q30 -45.5 30 -107.5q0 -66 -27 -124.5t-88 -96.5t-157 -38q-37 0 -81 9t-70 22l43 199q17 -11 35.5 -17.5t36.5 -6.5q20 0 32.5 9.5t12.5 26.5q0 16 -12.5 25.5t-33.5 15t-55 10.5l21 113l90 117h-126l-93 -504h-257l132 715h620l-30 -164l-113 -138
q60 -20 90 -65.5z" />
    <glyph glyph-name="uni1EA0" unicode="&#x1ea0;" horiz-adv-x="715" 
d="M586 715l93 -715h-254l-5 95h-172l-39 -95h-279l373 715h283zM407 341q0 9 -1.5 37.5t-1.5 57.5q0 32 1 50q-19 -59 -36 -103l-50 -119h91zM237 -93q11 18 29.5 29t38.5 11q22 0 40.5 -10.5t29 -28.5t10.5 -40t-10.5 -40.5t-29 -29t-40.5 -10.5q-21 0 -39 11t-29 29.5
t-11 39.5t11 39z" />
    <glyph glyph-name="uni1EA1" unicode="&#x1ea1;" horiz-adv-x="671" 
d="M554 0h-224l18 68q-32 -44 -69 -65t-83 -21q-53 0 -95.5 28t-66.5 79t-24 117q0 57 18.5 112.5t51.5 100.5q38 50 84.5 76t99.5 26q48 0 83 -22t60 -67l9 73h232zM266.5 293.5q-18.5 -22.5 -18.5 -58.5q0 -28 13.5 -42.5t38.5 -14.5q31 0 50.5 22t19.5 56q0 28 -15.5 44
t-40.5 16q-29 0 -47.5 -22.5zM199 -93q11 18 29.5 29t38.5 11q22 0 40.5 -10.5t29 -28.5t10.5 -40t-10.5 -40.5t-29 -29t-40.5 -10.5q-21 0 -39 11t-29 29.5t-11 39.5t11 39z" />
    <glyph glyph-name="uni1EA2" unicode="&#x1ea2;" horiz-adv-x="715" 
d="M586 715l93 -715h-254l-5 95h-172l-39 -95h-279l373 715h283zM407 341q0 9 -1.5 37.5t-1.5 57.5q0 32 1 50q-19 -59 -36 -103l-50 -119h91zM556 957q35 -23 35 -68q0 -33 -20 -60t-56.5 -43t-84.5 -16q-19 0 -32.5 2t-16.5 3l11 65q16 -3 31 -3q23 0 37.5 8.5t14.5 27.5
q0 27 -40 27q-21 0 -44.5 -5t-44.5 -14l12 72q24 13 50 20t57 7q56 0 91 -23z" />
    <glyph glyph-name="uni1EA3" unicode="&#x1ea3;" horiz-adv-x="671" 
d="M554 0h-224l18 68q-32 -44 -69 -65t-83 -21q-53 0 -95.5 28t-66.5 79t-24 117q0 57 18.5 112.5t51.5 100.5q38 50 84.5 76t99.5 26q48 0 83 -22t60 -67l9 73h232zM266.5 293.5q-18.5 -22.5 -18.5 -58.5q0 -28 13.5 -42.5t38.5 -14.5q31 0 50.5 22t19.5 56q0 28 -15.5 44
t-40.5 16q-29 0 -47.5 -22.5zM501 747q35 -23 35 -68q0 -33 -20 -60t-56.5 -43t-84.5 -16q-19 0 -32.5 2t-16.5 3l11 65q16 -3 31 -3q23 0 37.5 8.5t14.5 27.5q0 27 -40 27q-21 0 -44.5 -5t-44.5 -14l12 72q24 13 50 20t57 7q56 0 91 -23z" />
    <glyph glyph-name="uni1EA4" unicode="&#x1ea4;" horiz-adv-x="715" 
d="M586 715l93 -715h-254l-5 95h-172l-39 -95h-279l373 715h283zM407 341q0 9 -1.5 37.5t-1.5 57.5q0 32 1 50q-19 -59 -36 -103l-50 -119h91zM804 1015l-138 -111h-70l82 111h126zM475 864l-103 -83h-84l123 173h143l60 -173h-80z" />
    <glyph glyph-name="uni1EA5" unicode="&#x1ea5;" horiz-adv-x="671" 
d="M554 0h-224l18 68q-32 -44 -69 -65t-83 -21q-53 0 -95.5 28t-66.5 79t-24 117q0 57 18.5 112.5t51.5 100.5q38 50 84.5 76t99.5 26q48 0 83 -22t60 -67l9 73h232zM266.5 293.5q-18.5 -22.5 -18.5 -58.5q0 -28 13.5 -42.5t38.5 -14.5q31 0 50.5 22t19.5 56q0 28 -15.5 44
t-40.5 16q-29 0 -47.5 -22.5zM749 805l-138 -111h-70l82 111h126zM420 654l-103 -83h-84l123 173h143l60 -173h-80z" />
    <glyph glyph-name="uni1EA6" unicode="&#x1ea6;" horiz-adv-x="715" 
d="M586 715l93 -715h-254l-5 95h-172l-39 -95h-279l373 715h283zM407 341q0 9 -1.5 37.5t-1.5 57.5q0 32 1 50q-19 -59 -36 -103l-50 -119h91zM347 904h-61l-102 111h114zM474 864l-101 -83h-85l122 173h143l60 -173h-78z" />
    <glyph glyph-name="uni1EA7" unicode="&#x1ea7;" horiz-adv-x="671" 
d="M554 0h-224l18 68q-32 -44 -69 -65t-83 -21q-53 0 -95.5 28t-66.5 79t-24 117q0 57 18.5 112.5t51.5 100.5q38 50 84.5 76t99.5 26q48 0 83 -22t60 -67l9 73h232zM266.5 293.5q-18.5 -22.5 -18.5 -58.5q0 -28 13.5 -42.5t38.5 -14.5q31 0 50.5 22t19.5 56q0 28 -15.5 44
t-40.5 16q-29 0 -47.5 -22.5zM292 694h-61l-102 111h114zM419 654l-101 -83h-85l122 173h143l60 -173h-78z" />
    <glyph glyph-name="uni1EA8" unicode="&#x1ea8;" horiz-adv-x="715" 
d="M586 715l93 -715h-254l-5 95h-172l-39 -95h-279l373 715h283zM407 341q0 9 -1.5 37.5t-1.5 57.5q0 32 1 50q-19 -59 -36 -103l-50 -119h91zM727 1024.5q23 -15.5 23 -43.5q0 -38 -30.5 -59t-86.5 -21q-20 0 -38 4l7 40l22 -1q24 0 33.5 7t9.5 20q0 10 -7 14t-23 4
q-13 0 -32.5 -4.5t-35.5 -10.5l10 50q21 9 40 12.5t44 3.5q41 0 64 -15.5zM474 864l-101 -83h-85l122 173h143l60 -173h-78z" />
    <glyph glyph-name="uni1EA9" unicode="&#x1ea9;" horiz-adv-x="671" 
d="M554 0h-224l18 68q-32 -44 -69 -65t-83 -21q-53 0 -95.5 28t-66.5 79t-24 117q0 57 18.5 112.5t51.5 100.5q38 50 84.5 76t99.5 26q48 0 83 -22t60 -67l9 73h232zM266.5 293.5q-18.5 -22.5 -18.5 -58.5q0 -28 13.5 -42.5t38.5 -14.5q31 0 50.5 22t19.5 56q0 28 -15.5 44
t-40.5 16q-29 0 -47.5 -22.5zM672 814.5q23 -15.5 23 -43.5q0 -38 -30.5 -59t-86.5 -21q-20 0 -38 4l7 40l22 -1q24 0 33.5 7t9.5 20q0 10 -7 14t-23 4q-13 0 -32.5 -4.5t-35.5 -10.5l10 50q21 9 40 12.5t44 3.5q41 0 64 -15.5zM419 654l-101 -83h-85l122 173h143l60 -173
h-78z" />
    <glyph glyph-name="uni1EAA" unicode="&#x1eaa;" horiz-adv-x="715" 
d="M586 715l93 -715h-254l-5 95h-172l-39 -95h-279l373 715h283zM407 341q0 9 -1.5 37.5t-1.5 57.5q0 32 1 50q-19 -59 -36 -103l-50 -119h91zM390.5 988.5q-10.5 -8.5 -18.5 -28.5h-57q17 64 40 93t65 29q26 0 59 -11l23 -8q11 -4 21.5 -6t23.5 -2q14 0 25.5 10t21.5 32h57
q-14 -53 -29 -81.5t-32 -39t-38 -10.5q-25 0 -61 11l-22 7q-18 6 -31 9.5t-21 3.5q-16 0 -26.5 -8.5zM540 927l69 -142h-82l-64 61l-98 -61h-87l119 142h143z" />
    <glyph glyph-name="uni1EAB" unicode="&#x1eab;" horiz-adv-x="671" 
d="M554 0h-224l18 68q-32 -44 -69 -65t-83 -21q-53 0 -95.5 28t-66.5 79t-24 117q0 57 18.5 112.5t51.5 100.5q38 50 84.5 76t99.5 26q48 0 83 -22t60 -67l9 73h232zM266.5 293.5q-18.5 -22.5 -18.5 -58.5q0 -28 13.5 -42.5t38.5 -14.5q31 0 50.5 22t19.5 56q0 28 -15.5 44
t-40.5 16q-29 0 -47.5 -22.5zM335.5 778.5q-10.5 -8.5 -18.5 -28.5h-57q17 64 40 93t65 29q26 0 59 -11l23 -8q11 -4 21.5 -6t23.5 -2q14 0 25.5 10t21.5 32h57q-14 -53 -29 -81.5t-32 -39t-38 -10.5q-25 0 -61 11l-22 7q-18 6 -31 9.5t-21 3.5q-16 0 -26.5 -8.5zM485 717
l69 -142h-82l-64 61l-98 -61h-87l119 142h143z" />
    <glyph glyph-name="uni1EAC" unicode="&#x1eac;" horiz-adv-x="715" 
d="M586 715l93 -715h-254l-5 95h-172l-39 -95h-279l373 715h283zM407 341q0 9 -1.5 37.5t-1.5 57.5q0 32 1 50q-19 -59 -36 -103l-50 -119h91zM470 867l-93 -82h-87l122 172h143l58 -172h-81zM237 -93q11 18 29.5 29t38.5 11q22 0 40.5 -10.5t29 -28.5t10.5 -40t-10.5 -40.5
t-29 -29t-40.5 -10.5q-21 0 -39 11t-29 29.5t-11 39.5t11 39z" />
    <glyph glyph-name="uni1EAD" unicode="&#x1ead;" horiz-adv-x="671" 
d="M554 0h-224l18 68q-32 -44 -69 -65t-83 -21q-53 0 -95.5 28t-66.5 79t-24 117q0 57 18.5 112.5t51.5 100.5q38 50 84.5 76t99.5 26q48 0 83 -22t60 -67l9 73h232zM266.5 293.5q-18.5 -22.5 -18.5 -58.5q0 -28 13.5 -42.5t38.5 -14.5q31 0 50.5 22t19.5 56q0 28 -15.5 44
t-40.5 16q-29 0 -47.5 -22.5zM415 657l-93 -82h-87l122 172h143l58 -172h-81zM199 -93q11 18 29.5 29t38.5 11q22 0 40.5 -10.5t29 -28.5t10.5 -40t-10.5 -40.5t-29 -29t-40.5 -10.5q-21 0 -39 11t-29 29.5t-11 39.5t11 39z" />
    <glyph glyph-name="uni1EAE" unicode="&#x1eae;" horiz-adv-x="715" 
d="M586 715l93 -715h-254l-5 95h-172l-39 -95h-279l373 715h283zM407 341q0 9 -1.5 37.5t-1.5 57.5q0 32 1 50q-19 -59 -36 -103l-50 -119h91zM643 1039l-140 -113h-70l83 113h127zM400 935q0 -21 20.5 -34t55.5 -13q72 0 99 55h72q-15 -67 -61.5 -104.5t-118.5 -37.5
q-66 0 -101 32t-35 95q0 12 1 15h68v-8z" />
    <glyph glyph-name="uni1EAF" unicode="&#x1eaf;" horiz-adv-x="671" 
d="M554 0h-224l18 68q-32 -44 -69 -65t-83 -21q-53 0 -95.5 28t-66.5 79t-24 117q0 57 18.5 112.5t51.5 100.5q38 50 84.5 76t99.5 26q48 0 83 -22t60 -67l9 73h232zM266.5 293.5q-18.5 -22.5 -18.5 -58.5q0 -28 13.5 -42.5t38.5 -14.5q31 0 50.5 22t19.5 56q0 28 -15.5 44
t-40.5 16q-29 0 -47.5 -22.5zM587 829l-140 -113h-70l83 113h127zM344 725q0 -21 20.5 -34t55.5 -13q72 0 99 55h72q-15 -67 -61.5 -104.5t-118.5 -37.5q-66 0 -101 32t-35 95q0 12 1 15h68v-8z" />
    <glyph glyph-name="uni1EB0" unicode="&#x1eb0;" horiz-adv-x="715" 
d="M586 715l93 -715h-254l-5 95h-172l-39 -95h-279l373 715h283zM407 341q0 9 -1.5 37.5t-1.5 57.5q0 32 1 50q-19 -59 -36 -103l-50 -119h91zM507 927h-61l-104 113h115zM312 933q0 7 1 10h68v-4q0 -25 20 -38t57 -13t60.5 13.5t37.5 41.5h73q-37 -143 -181 -143
q-136 0 -136 133z" />
    <glyph glyph-name="uni1EB1" unicode="&#x1eb1;" horiz-adv-x="671" 
d="M554 0h-224l18 68q-32 -44 -69 -65t-83 -21q-53 0 -95.5 28t-66.5 79t-24 117q0 57 18.5 112.5t51.5 100.5q38 50 84.5 76t99.5 26q48 0 83 -22t60 -67l9 73h232zM266.5 293.5q-18.5 -22.5 -18.5 -58.5q0 -28 13.5 -42.5t38.5 -14.5q31 0 50.5 22t19.5 56q0 28 -15.5 44
t-40.5 16q-29 0 -47.5 -22.5zM452 717h-61l-104 113h115zM257 723q0 7 1 10h68v-4q0 -25 20 -38t57 -13t60.5 13.5t37.5 41.5h73q-37 -143 -181 -143q-136 0 -136 133z" />
    <glyph glyph-name="uni1EB2" unicode="&#x1eb2;" horiz-adv-x="715" 
d="M586 715l93 -715h-254l-5 95h-172l-39 -95h-279l373 715h283zM407 341q0 9 -1.5 37.5t-1.5 57.5q0 32 1 50q-19 -59 -36 -103l-50 -119h91zM549.5 1048q21.5 -14 21.5 -42q0 -37 -30 -59.5t-85 -22.5q-20 0 -38 4l7 40l22 -1q24 0 33.5 7t9.5 20q0 10 -7 14t-23 4
q-13 0 -32.5 -4.5t-35.5 -10.5l10 49q21 9 40 12.5t44 3.5q42 0 63.5 -14zM358.5 832.5q-34.5 32.5 -34.5 95.5q0 8 1 15h68v-4q0 -25 20 -38t57 -13t60.5 13.5t37.5 41.5h73q-37 -143 -181 -143q-67 0 -101.5 32.5z" />
    <glyph glyph-name="uni1EB3" unicode="&#x1eb3;" horiz-adv-x="671" 
d="M554 0h-224l18 68q-32 -44 -69 -65t-83 -21q-53 0 -95.5 28t-66.5 79t-24 117q0 57 18.5 112.5t51.5 100.5q38 50 84.5 76t99.5 26q48 0 83 -22t60 -67l9 73h232zM266.5 293.5q-18.5 -22.5 -18.5 -58.5q0 -28 13.5 -42.5t38.5 -14.5q31 0 50.5 22t19.5 56q0 28 -15.5 44
t-40.5 16q-29 0 -47.5 -22.5zM494.5 838q21.5 -14 21.5 -42q0 -37 -30 -59.5t-85 -22.5q-20 0 -38 4l7 40l22 -1q24 0 33.5 7t9.5 20q0 10 -7 14t-23 4q-13 0 -32.5 -4.5t-35.5 -10.5l10 49q21 9 40 12.5t44 3.5q42 0 63.5 -14zM303.5 622.5q-34.5 32.5 -34.5 95.5q0 8 1 15
h68v-4q0 -25 20 -38t57 -13t60.5 13.5t37.5 41.5h73q-37 -143 -181 -143q-67 0 -101.5 32.5z" />
    <glyph glyph-name="uni1EB4" unicode="&#x1eb4;" horiz-adv-x="715" 
d="M586 715l93 -715h-254l-5 95h-172l-39 -95h-279l373 715h283zM407 341q0 9 -1.5 37.5t-1.5 57.5q0 32 1 50q-19 -59 -36 -103l-50 -119h91zM635 1015.5q-15 -28.5 -32 -39t-38 -10.5q-25 0 -61 11l-22 7q-18 6 -31 9.5t-21 3.5q-16 0 -26.5 -8.5t-18.5 -28.5h-57
q17 64 40 93t65 29q26 0 59 -11l23 -8q11 -4 21.5 -6t23.5 -2q14 0 25.5 10t21.5 32h57q-14 -53 -29 -81.5zM394 934q0 -23 20 -34.5t58 -11.5q42 0 67 12t40 37h72q-17 -69 -63.5 -102.5t-122.5 -33.5q-69 0 -104 32t-35 94q0 7 1 10h67v-3z" />
    <glyph glyph-name="uni1EB5" unicode="&#x1eb5;" horiz-adv-x="671" 
d="M554 0h-224l18 68q-32 -44 -69 -65t-83 -21q-53 0 -95.5 28t-66.5 79t-24 117q0 57 18.5 112.5t51.5 100.5q38 50 84.5 76t99.5 26q48 0 83 -22t60 -67l9 73h232zM266.5 293.5q-18.5 -22.5 -18.5 -58.5q0 -28 13.5 -42.5t38.5 -14.5q31 0 50.5 22t19.5 56q0 28 -15.5 44
t-40.5 16q-29 0 -47.5 -22.5zM580 805.5q-15 -28.5 -32 -39t-38 -10.5q-25 0 -61 11l-22 7q-18 6 -31 9.5t-21 3.5q-16 0 -26.5 -8.5t-18.5 -28.5h-57q17 64 40 93t65 29q26 0 59 -11l23 -8q11 -4 21.5 -6t23.5 -2q14 0 25.5 10t21.5 32h57q-14 -53 -29 -81.5zM339 724
q0 -23 20 -34.5t58 -11.5q42 0 67 12t40 37h72q-17 -69 -63.5 -102.5t-122.5 -33.5q-69 0 -104 32t-35 94q0 7 1 10h67v-3z" />
    <glyph glyph-name="uni1EB6" unicode="&#x1eb6;" horiz-adv-x="715" 
d="M586 715l93 -715h-254l-5 95h-172l-39 -95h-279l373 715h283zM407 341q0 9 -1.5 37.5t-1.5 57.5q0 32 1 50q-19 -59 -36 -103l-50 -119h91zM400 942q0 -27 16.5 -41t48.5 -14q37 0 62 16.5t40 48.5h75q-19 -83 -66.5 -124.5t-120.5 -41.5q-63 0 -95 33.5t-32 101.5v31h72
v-10zM237 -93q11 18 29.5 29t38.5 11q22 0 40.5 -10.5t29 -28.5t10.5 -40t-10.5 -40.5t-29 -29t-40.5 -10.5q-21 0 -39 11t-29 29.5t-11 39.5t11 39z" />
    <glyph glyph-name="uni1EB7" unicode="&#x1eb7;" horiz-adv-x="671" 
d="M554 0h-224l18 68q-32 -44 -69 -65t-83 -21q-53 0 -95.5 28t-66.5 79t-24 117q0 57 18.5 112.5t51.5 100.5q38 50 84.5 76t99.5 26q48 0 83 -22t60 -67l9 73h232zM266.5 293.5q-18.5 -22.5 -18.5 -58.5q0 -28 13.5 -42.5t38.5 -14.5q31 0 50.5 22t19.5 56q0 28 -15.5 44
t-40.5 16q-29 0 -47.5 -22.5zM345 732q0 -27 16.5 -41t48.5 -14q37 0 62 16.5t40 48.5h75q-19 -83 -66.5 -124.5t-120.5 -41.5q-63 0 -95 33.5t-32 101.5v31h72v-10zM199 -93q11 18 29.5 29t38.5 11q22 0 40.5 -10.5t29 -28.5t10.5 -40t-10.5 -40.5t-29 -29t-40.5 -10.5
q-21 0 -39 11t-29 29.5t-11 39.5t11 39z" />
    <glyph glyph-name="uni1EB8" unicode="&#x1eb8;" horiz-adv-x="618" 
d="M622 715l-35 -194h-233l-13 -69h219l-33 -181h-219l-14 -77h254l-36 -194h-512l132 715h490zM163 -93q11 18 29.5 29t38.5 11q22 0 40.5 -10.5t29 -28.5t10.5 -40t-10.5 -40.5t-29 -29t-40.5 -10.5q-21 0 -39 11t-29 29.5t-11 39.5t11 39z" />
    <glyph glyph-name="uni1EB9" unicode="&#x1eb9;" horiz-adv-x="603" 
d="M240 164q16 -21 45 -21q21 0 37 10.5t34 34.5l179 -38q-89 -169 -278 -169q-73 0 -130.5 30.5t-89 84t-31.5 121.5q0 61 21 115t60 95q44 46 102 70t122 24q74 0 131 -29.5t89 -81t32 -115.5q0 -36 -4 -72h-335q0 -38 16 -59zM358 324q0 24 -13 38t-35 14q-27 0 -45 -14
t-28 -45h121v7zM168 -93q11 18 29.5 29t38.5 11q22 0 40.5 -10.5t29 -28.5t10.5 -40t-10.5 -40.5t-29 -29t-40.5 -10.5q-21 0 -39 11t-29 29.5t-11 39.5t11 39z" />
    <glyph glyph-name="uni1EBA" unicode="&#x1eba;" horiz-adv-x="618" 
d="M622 715l-35 -194h-233l-13 -69h219l-33 -181h-219l-14 -77h254l-36 -194h-512l132 715h490zM497 957q35 -23 35 -68q0 -33 -20 -60t-56.5 -43t-84.5 -16q-19 0 -32.5 2t-16.5 3l11 65q16 -3 31 -3q23 0 37.5 8.5t14.5 27.5q0 27 -40 27q-21 0 -44.5 -5t-44.5 -14l12 72
q24 13 50 20t57 7q56 0 91 -23z" />
    <glyph glyph-name="uni1EBB" unicode="&#x1ebb;" horiz-adv-x="603" 
d="M240 164q16 -21 45 -21q21 0 37 10.5t34 34.5l179 -38q-89 -169 -278 -169q-73 0 -130.5 30.5t-89 84t-31.5 121.5q0 61 21 115t60 95q44 46 102 70t122 24q74 0 131 -29.5t89 -81t32 -115.5q0 -36 -4 -72h-335q0 -38 16 -59zM358 324q0 24 -13 38t-35 14q-27 0 -45 -14
t-28 -45h121v7zM442 747q35 -23 35 -68q0 -33 -20 -60t-56.5 -43t-84.5 -16q-19 0 -32.5 2t-16.5 3l11 65q16 -3 31 -3q23 0 37.5 8.5t14.5 27.5q0 27 -40 27q-21 0 -44.5 -5t-44.5 -14l12 72q24 13 50 20t57 7q56 0 91 -23z" />
    <glyph glyph-name="uni1EBC" unicode="&#x1ebc;" horiz-adv-x="618" 
d="M622 715l-35 -194h-233l-13 -69h219l-33 -181h-219l-14 -77h254l-36 -194h-512l132 715h490zM517.5 849.5q-27.5 -33.5 -70.5 -33.5q-22 0 -43 7l-31 10q-20 6 -31 6q-34 0 -44 -33h-61q29 136 113 136q19 0 45 -8l31 -10q18 -6 27 -6q19 0 29 8.5t18 30.5h62
q-17 -74 -44.5 -107.5z" />
    <glyph glyph-name="uni1EBD" unicode="&#x1ebd;" horiz-adv-x="603" 
d="M240 164q16 -21 45 -21q21 0 37 10.5t34 34.5l179 -38q-89 -169 -278 -169q-73 0 -130.5 30.5t-89 84t-31.5 121.5q0 61 21 115t60 95q44 46 102 70t122 24q74 0 131 -29.5t89 -81t32 -115.5q0 -36 -4 -72h-335q0 -38 16 -59zM358 324q0 24 -13 38t-35 14q-27 0 -45 -14
t-28 -45h121v7zM464.5 634.5q-27.5 -33.5 -70.5 -33.5q-22 0 -43 7l-31 10q-20 6 -31 6q-34 0 -44 -33h-61q29 136 113 136q19 0 45 -8l31 -10q18 -6 27 -6q19 0 29 8.5t18 30.5h62q-17 -74 -44.5 -107.5z" />
    <glyph glyph-name="uni1EBE" unicode="&#x1ebe;" horiz-adv-x="618" 
d="M622 715l-35 -194h-233l-13 -69h219l-33 -181h-219l-14 -77h254l-36 -194h-512l132 715h490zM745 1015l-138 -111h-70l82 111h126zM416 864l-103 -83h-84l123 173h143l60 -173h-80z" />
    <glyph glyph-name="uni1EBF" unicode="&#x1ebf;" horiz-adv-x="603" 
d="M240 164q16 -21 45 -21q21 0 37 10.5t34 34.5l179 -38q-89 -169 -278 -169q-73 0 -130.5 30.5t-89 84t-31.5 121.5q0 61 21 115t60 95q44 46 102 70t122 24q74 0 131 -29.5t89 -81t32 -115.5q0 -36 -4 -72h-335q0 -38 16 -59zM358 324q0 24 -13 38t-35 14q-27 0 -45 -14
t-28 -45h121v7zM690 805l-138 -111h-70l82 111h126zM361 654l-103 -83h-84l123 173h143l60 -173h-80z" />
    <glyph glyph-name="uni1EC0" unicode="&#x1ec0;" horiz-adv-x="618" 
d="M622 715l-35 -194h-233l-13 -69h219l-33 -181h-219l-14 -77h254l-36 -194h-512l132 715h490zM448 927h-61l-104 113h115zM253 933q0 7 1 10h68v-4q0 -25 20 -38t57 -13t60.5 13.5t37.5 41.5h73q-37 -143 -181 -143q-136 0 -136 133z" />
    <glyph glyph-name="uni1EC1" unicode="&#x1ec1;" horiz-adv-x="603" 
d="M240 164q16 -21 45 -21q21 0 37 10.5t34 34.5l179 -38q-89 -169 -278 -169q-73 0 -130.5 30.5t-89 84t-31.5 121.5q0 61 21 115t60 95q44 46 102 70t122 24q74 0 131 -29.5t89 -81t32 -115.5q0 -36 -4 -72h-335q0 -38 16 -59zM358 324q0 24 -13 38t-35 14q-27 0 -45 -14
t-28 -45h121v7zM233 694h-61l-102 111h114zM360 654l-101 -83h-85l122 173h143l60 -173h-78z" />
    <glyph glyph-name="uni1EC2" unicode="&#x1ec2;" horiz-adv-x="618" 
d="M622 715l-35 -194h-233l-13 -69h219l-33 -181h-219l-14 -77h254l-36 -194h-512l132 715h490zM668 1024.5q23 -15.5 23 -43.5q0 -38 -30.5 -59t-86.5 -21q-20 0 -38 4l7 40l22 -1q24 0 33.5 7t9.5 20q0 10 -7 14t-23 4q-13 0 -32.5 -4.5t-35.5 -10.5l10 50q21 9 40 12.5
t44 3.5q41 0 64 -15.5zM415 864l-101 -83h-85l122 173h143l60 -173h-78z" />
    <glyph glyph-name="uni1EC3" unicode="&#x1ec3;" horiz-adv-x="603" 
d="M240 164q16 -21 45 -21q21 0 37 10.5t34 34.5l179 -38q-89 -169 -278 -169q-73 0 -130.5 30.5t-89 84t-31.5 121.5q0 61 21 115t60 95q44 46 102 70t122 24q74 0 131 -29.5t89 -81t32 -115.5q0 -36 -4 -72h-335q0 -38 16 -59zM358 324q0 24 -13 38t-35 14q-27 0 -45 -14
t-28 -45h121v7zM613 814.5q23 -15.5 23 -43.5q0 -38 -30.5 -59t-86.5 -21q-20 0 -38 4l7 40l22 -1q24 0 33.5 7t9.5 20q0 10 -7 14t-23 4q-13 0 -32.5 -4.5t-35.5 -10.5l10 50q21 9 40 12.5t44 3.5q41 0 64 -15.5zM360 654l-101 -83h-85l122 173h143l60 -173h-78z" />
    <glyph glyph-name="uni1EC4" unicode="&#x1ec4;" horiz-adv-x="618" 
d="M622 715l-35 -194h-233l-13 -69h219l-33 -181h-219l-14 -77h254l-36 -194h-512l132 715h490zM331.5 988.5q-10.5 -8.5 -18.5 -28.5h-57q17 64 40 93t65 29q26 0 59 -11l23 -8q11 -4 21.5 -6t23.5 -2q14 0 25.5 10t21.5 32h57q-14 -53 -29 -81.5t-32 -39t-38 -10.5
q-25 0 -61 11l-22 7q-18 6 -31 9.5t-21 3.5q-16 0 -26.5 -8.5zM481 927l69 -142h-82l-64 61l-98 -61h-87l119 142h143z" />
    <glyph glyph-name="uni1EC5" unicode="&#x1ec5;" horiz-adv-x="603" 
d="M240 164q16 -21 45 -21q21 0 37 10.5t34 34.5l179 -38q-89 -169 -278 -169q-73 0 -130.5 30.5t-89 84t-31.5 121.5q0 61 21 115t60 95q44 46 102 70t122 24q74 0 131 -29.5t89 -81t32 -115.5q0 -36 -4 -72h-335q0 -38 16 -59zM358 324q0 24 -13 38t-35 14q-27 0 -45 -14
t-28 -45h121v7zM276.5 778.5q-10.5 -8.5 -18.5 -28.5h-57q17 64 40 93t65 29q26 0 59 -11l23 -8q11 -4 21.5 -6t23.5 -2q14 0 25.5 10t21.5 32h57q-14 -53 -29 -81.5t-32 -39t-38 -10.5q-25 0 -61 11l-22 7q-18 6 -31 9.5t-21 3.5q-16 0 -26.5 -8.5zM426 717l69 -142h-82
l-64 61l-98 -61h-87l119 142h143z" />
    <glyph glyph-name="uni1EC6" unicode="&#x1ec6;" horiz-adv-x="618" 
d="M622 715l-35 -194h-233l-13 -69h219l-33 -181h-219l-14 -77h254l-36 -194h-512l132 715h490zM411 867l-93 -82h-87l122 172h143l58 -172h-81zM163 -93q11 18 29.5 29t38.5 11q22 0 40.5 -10.5t29 -28.5t10.5 -40t-10.5 -40.5t-29 -29t-40.5 -10.5q-21 0 -39 11t-29 29.5
t-11 39.5t11 39z" />
    <glyph glyph-name="uni1EC7" unicode="&#x1ec7;" horiz-adv-x="603" 
d="M240 164q16 -21 45 -21q21 0 37 10.5t34 34.5l179 -38q-89 -169 -278 -169q-73 0 -130.5 30.5t-89 84t-31.5 121.5q0 61 21 115t60 95q44 46 102 70t122 24q74 0 131 -29.5t89 -81t32 -115.5q0 -36 -4 -72h-335q0 -38 16 -59zM358 324q0 24 -13 38t-35 14q-27 0 -45 -14
t-28 -45h121v7zM356 657l-93 -82h-87l122 172h143l58 -172h-81zM168 -93q11 18 29.5 29t38.5 11q22 0 40.5 -10.5t29 -28.5t10.5 -40t-10.5 -40.5t-29 -29t-40.5 -10.5q-21 0 -39 11t-29 29.5t-11 39.5t11 39z" />
    <glyph glyph-name="uni1EC8" unicode="&#x1ec8;" horiz-adv-x="405" 
d="M400 715l-132 -715h-263l132 715h263zM378 957q35 -23 35 -68q0 -33 -20 -60t-56.5 -43t-84.5 -16q-19 0 -32.5 2t-16.5 3l11 65q16 -3 31 -3q23 0 37.5 8.5t14.5 27.5q0 27 -40 27q-21 0 -44.5 -5t-44.5 -14l12 72q24 13 50 20t57 7q56 0 91 -23z" />
    <glyph glyph-name="uni1EC9" unicode="&#x1ec9;" horiz-adv-x="354" 
d="M323 505l-93 -505h-238l93 505h238zM313 747q35 -23 35 -68q0 -33 -20 -60t-56.5 -43t-84.5 -16q-19 0 -32.5 2t-16.5 3l11 65q16 -3 31 -3q23 0 37.5 8.5t14.5 27.5q0 27 -40 27q-21 0 -44.5 -5t-44.5 -14l12 72q24 13 50 20t57 7q56 0 91 -23z" />
    <glyph glyph-name="uni1ECA" unicode="&#x1eca;" horiz-adv-x="405" 
d="M400 715l-132 -715h-263l132 715h263zM57 -93q11 18 29.5 29t38.5 11q22 0 40.5 -10.5t29 -28.5t10.5 -40t-10.5 -40.5t-29 -29t-40.5 -10.5q-21 0 -39 11t-29 29.5t-11 39.5t11 39z" />
    <glyph glyph-name="uni1ECB" unicode="&#x1ecb;" horiz-adv-x="354" 
d="M154 546q-29 15 -45 41t-16 58q0 34 19.5 63.5t52.5 47t72 17.5q35 0 64 -15t45 -41t16 -58q0 -34 -19.5 -63.5t-52.5 -47t-72 -17.5q-35 0 -64 15zM323 505l-93 -505h-238l93 505h238zM14 -93q11 18 29.5 29t38.5 11q22 0 40.5 -10.5t29 -28.5t10.5 -40t-10.5 -40.5
t-29 -29t-40.5 -10.5q-21 0 -39 11t-29 29.5t-11 39.5t11 39z" />
    <glyph glyph-name="uni1ECC" unicode="&#x1ecc;" horiz-adv-x="852" 
d="M147 65q-51 45 -80 110.5t-29 140.5q0 161 98 276q57 67 139 103.5t178 36.5q107 0 189 -42.5t127 -119t45 -173.5q0 -80 -24.5 -150t-73.5 -126q-59 -68 -140 -104t-178 -36q-153 0 -251 84zM364.5 474q-32.5 -20 -51 -54.5t-18.5 -76.5q0 -37 14.5 -65.5t41.5 -44
t63 -15.5q40 0 72.5 21t51 56.5t18.5 77.5q0 35 -15.5 62.5t-42.5 43t-61 15.5q-40 0 -72.5 -20zM267 -93q11 18 29.5 29t38.5 11q22 0 40.5 -10.5t29 -28.5t10.5 -40t-10.5 -40.5t-29 -29t-40.5 -10.5q-21 0 -39 11t-29 29.5t-11 39.5t11 39z" />
    <glyph glyph-name="uni1ECD" unicode="&#x1ecd;" horiz-adv-x="616" 
d="M27 332q21 54 62 95q45 46 102 69.5t122 23.5q77 0 135.5 -30t90 -84.5t31.5 -126.5q0 -52 -17.5 -99.5t-50.5 -87.5q-44 -53 -107 -82t-136 -29t-130.5 30.5t-90 84t-32.5 120.5q0 62 21 116zM262 308q-16 -11 -25 -29.5t-9 -41.5q0 -25 14.5 -40.5t38.5 -15.5
q31 0 50 23t19 59q0 26 -14 41t-39 15q-19 0 -35 -11zM156 -93q11 18 29.5 29t38.5 11q22 0 40.5 -10.5t29 -28.5t10.5 -40t-10.5 -40.5t-29 -29t-40.5 -10.5q-21 0 -39 11t-29 29.5t-11 39.5t11 39z" />
    <glyph glyph-name="uni1ECE" unicode="&#x1ece;" horiz-adv-x="852" 
d="M147 65q-51 45 -80 110.5t-29 140.5q0 161 98 276q57 67 139 103.5t178 36.5q107 0 189 -42.5t127 -119t45 -173.5q0 -80 -24.5 -150t-73.5 -126q-59 -68 -140 -104t-178 -36q-153 0 -251 84zM364.5 474q-32.5 -20 -51 -54.5t-18.5 -76.5q0 -37 14.5 -65.5t41.5 -44
t63 -15.5q40 0 72.5 21t51 56.5t18.5 77.5q0 35 -15.5 62.5t-42.5 43t-61 15.5q-40 0 -72.5 -20zM581 957q35 -23 35 -68q0 -33 -20 -60t-56.5 -43t-84.5 -16q-19 0 -32.5 2t-16.5 3l11 65q16 -3 31 -3q23 0 37.5 8.5t14.5 27.5q0 27 -40 27q-21 0 -44.5 -5t-44.5 -14l12 72
q24 13 50 20t57 7q56 0 91 -23z" />
    <glyph glyph-name="uni1ECF" unicode="&#x1ecf;" horiz-adv-x="616" 
d="M27 332q21 54 62 95q45 46 102 69.5t122 23.5q77 0 135.5 -30t90 -84.5t31.5 -126.5q0 -52 -17.5 -99.5t-50.5 -87.5q-44 -53 -107 -82t-136 -29t-130.5 30.5t-90 84t-32.5 120.5q0 62 21 116zM262 308q-16 -11 -25 -29.5t-9 -41.5q0 -25 14.5 -40.5t38.5 -15.5
q31 0 50 23t19 59q0 26 -14 41t-39 15q-19 0 -35 -11zM445 747q35 -23 35 -68q0 -33 -20 -60t-56.5 -43t-84.5 -16q-19 0 -32.5 2t-16.5 3l11 65q16 -3 31 -3q23 0 37.5 8.5t14.5 27.5q0 27 -40 27q-21 0 -44.5 -5t-44.5 -14l12 72q24 13 50 20t57 7q56 0 91 -23z" />
    <glyph glyph-name="uni1ED0" unicode="&#x1ed0;" horiz-adv-x="852" 
d="M147 65q-51 45 -80 110.5t-29 140.5q0 161 98 276q57 67 139 103.5t178 36.5q107 0 189 -42.5t127 -119t45 -173.5q0 -80 -24.5 -150t-73.5 -126q-59 -68 -140 -104t-178 -36q-153 0 -251 84zM364.5 474q-32.5 -20 -51 -54.5t-18.5 -76.5q0 -37 14.5 -65.5t41.5 -44
t63 -15.5q40 0 72.5 21t51 56.5t18.5 77.5q0 35 -15.5 62.5t-42.5 43t-61 15.5q-40 0 -72.5 -20zM829 1015l-138 -111h-70l82 111h126zM500 864l-103 -83h-84l123 173h143l60 -173h-80z" />
    <glyph glyph-name="uni1ED1" unicode="&#x1ed1;" horiz-adv-x="616" 
d="M27 332q21 54 62 95q45 46 102 69.5t122 23.5q77 0 135.5 -30t90 -84.5t31.5 -126.5q0 -52 -17.5 -99.5t-50.5 -87.5q-44 -53 -107 -82t-136 -29t-130.5 30.5t-90 84t-32.5 120.5q0 62 21 116zM262 308q-16 -11 -25 -29.5t-9 -41.5q0 -25 14.5 -40.5t38.5 -15.5
q31 0 50 23t19 59q0 26 -14 41t-39 15q-19 0 -35 -11zM693 805l-138 -111h-70l82 111h126zM364 654l-103 -83h-84l123 173h143l60 -173h-80z" />
    <glyph glyph-name="uni1ED2" unicode="&#x1ed2;" horiz-adv-x="852" 
d="M147 65q-51 45 -80 110.5t-29 140.5q0 161 98 276q57 67 139 103.5t178 36.5q107 0 189 -42.5t127 -119t45 -173.5q0 -80 -24.5 -150t-73.5 -126q-59 -68 -140 -104t-178 -36q-153 0 -251 84zM364.5 474q-32.5 -20 -51 -54.5t-18.5 -76.5q0 -37 14.5 -65.5t41.5 -44
t63 -15.5q40 0 72.5 21t51 56.5t18.5 77.5q0 35 -15.5 62.5t-42.5 43t-61 15.5q-40 0 -72.5 -20zM372 904h-61l-102 111h114zM499 864l-101 -83h-85l122 173h143l60 -173h-78z" />
    <glyph glyph-name="uni1ED3" unicode="&#x1ed3;" horiz-adv-x="616" 
d="M27 332q21 54 62 95q45 46 102 69.5t122 23.5q77 0 135.5 -30t90 -84.5t31.5 -126.5q0 -52 -17.5 -99.5t-50.5 -87.5q-44 -53 -107 -82t-136 -29t-130.5 30.5t-90 84t-32.5 120.5q0 62 21 116zM262 308q-16 -11 -25 -29.5t-9 -41.5q0 -25 14.5 -40.5t38.5 -15.5
q31 0 50 23t19 59q0 26 -14 41t-39 15q-19 0 -35 -11zM236 694h-61l-102 111h114zM363 654l-101 -83h-85l122 173h143l60 -173h-78z" />
    <glyph glyph-name="uni1ED4" unicode="&#x1ed4;" horiz-adv-x="852" 
d="M147 65q-51 45 -80 110.5t-29 140.5q0 161 98 276q57 67 139 103.5t178 36.5q107 0 189 -42.5t127 -119t45 -173.5q0 -80 -24.5 -150t-73.5 -126q-59 -68 -140 -104t-178 -36q-153 0 -251 84zM364.5 474q-32.5 -20 -51 -54.5t-18.5 -76.5q0 -37 14.5 -65.5t41.5 -44
t63 -15.5q40 0 72.5 21t51 56.5t18.5 77.5q0 35 -15.5 62.5t-42.5 43t-61 15.5q-40 0 -72.5 -20zM752 1024.5q23 -15.5 23 -43.5q0 -38 -30.5 -59t-86.5 -21q-20 0 -38 4l7 40l22 -1q24 0 33.5 7t9.5 20q0 10 -7 14t-23 4q-13 0 -32.5 -4.5t-35.5 -10.5l10 50q21 9 40 12.5
t44 3.5q41 0 64 -15.5zM499 864l-101 -83h-85l122 173h143l60 -173h-78z" />
    <glyph glyph-name="uni1ED5" unicode="&#x1ed5;" horiz-adv-x="616" 
d="M27 332q21 54 62 95q45 46 102 69.5t122 23.5q77 0 135.5 -30t90 -84.5t31.5 -126.5q0 -52 -17.5 -99.5t-50.5 -87.5q-44 -53 -107 -82t-136 -29t-130.5 30.5t-90 84t-32.5 120.5q0 62 21 116zM262 308q-16 -11 -25 -29.5t-9 -41.5q0 -25 14.5 -40.5t38.5 -15.5
q31 0 50 23t19 59q0 26 -14 41t-39 15q-19 0 -35 -11zM616 814.5q23 -15.5 23 -43.5q0 -38 -30.5 -59t-86.5 -21q-20 0 -38 4l7 40l22 -1q24 0 33.5 7t9.5 20q0 10 -7 14t-23 4q-13 0 -32.5 -4.5t-35.5 -10.5l10 50q21 9 40 12.5t44 3.5q41 0 64 -15.5zM363 654l-101 -83
h-85l122 173h143l60 -173h-78z" />
    <glyph glyph-name="uni1ED6" unicode="&#x1ed6;" horiz-adv-x="852" 
d="M147 65q-51 45 -80 110.5t-29 140.5q0 161 98 276q57 67 139 103.5t178 36.5q107 0 189 -42.5t127 -119t45 -173.5q0 -80 -24.5 -150t-73.5 -126q-59 -68 -140 -104t-178 -36q-153 0 -251 84zM364.5 474q-32.5 -20 -51 -54.5t-18.5 -76.5q0 -37 14.5 -65.5t41.5 -44
t63 -15.5q40 0 72.5 21t51 56.5t18.5 77.5q0 35 -15.5 62.5t-42.5 43t-61 15.5q-40 0 -72.5 -20zM415.5 988.5q-10.5 -8.5 -18.5 -28.5h-57q17 64 40 93t65 29q26 0 59 -11l23 -8q11 -4 21.5 -6t23.5 -2q14 0 25.5 10t21.5 32h57q-14 -53 -29 -81.5t-32 -39t-38 -10.5
q-25 0 -61 11l-22 7q-18 6 -31 9.5t-21 3.5q-16 0 -26.5 -8.5zM565 927l69 -142h-82l-64 61l-98 -61h-87l119 142h143z" />
    <glyph glyph-name="uni1ED7" unicode="&#x1ed7;" horiz-adv-x="616" 
d="M27 332q21 54 62 95q45 46 102 69.5t122 23.5q77 0 135.5 -30t90 -84.5t31.5 -126.5q0 -52 -17.5 -99.5t-50.5 -87.5q-44 -53 -107 -82t-136 -29t-130.5 30.5t-90 84t-32.5 120.5q0 62 21 116zM262 308q-16 -11 -25 -29.5t-9 -41.5q0 -25 14.5 -40.5t38.5 -15.5
q31 0 50 23t19 59q0 26 -14 41t-39 15q-19 0 -35 -11zM279.5 778.5q-10.5 -8.5 -18.5 -28.5h-57q17 64 40 93t65 29q26 0 59 -11l23 -8q11 -4 21.5 -6t23.5 -2q14 0 25.5 10t21.5 32h57q-14 -53 -29 -81.5t-32 -39t-38 -10.5q-25 0 -61 11l-22 7q-18 6 -31 9.5t-21 3.5
q-16 0 -26.5 -8.5zM429 717l69 -142h-82l-64 61l-98 -61h-87l119 142h143z" />
    <glyph glyph-name="uni1ED8" unicode="&#x1ed8;" horiz-adv-x="852" 
d="M147 65q-51 45 -80 110.5t-29 140.5q0 161 98 276q57 67 139 103.5t178 36.5q107 0 189 -42.5t127 -119t45 -173.5q0 -80 -24.5 -150t-73.5 -126q-59 -68 -140 -104t-178 -36q-153 0 -251 84zM364.5 474q-32.5 -20 -51 -54.5t-18.5 -76.5q0 -37 14.5 -65.5t41.5 -44
t63 -15.5q40 0 72.5 21t51 56.5t18.5 77.5q0 35 -15.5 62.5t-42.5 43t-61 15.5q-40 0 -72.5 -20zM495 867l-93 -82h-87l122 172h143l58 -172h-81zM267 -93q11 18 29.5 29t38.5 11q22 0 40.5 -10.5t29 -28.5t10.5 -40t-10.5 -40.5t-29 -29t-40.5 -10.5q-21 0 -39 11t-29 29.5
t-11 39.5t11 39z" />
    <glyph glyph-name="uni1ED9" unicode="&#x1ed9;" horiz-adv-x="616" 
d="M27 332q21 54 62 95q45 46 102 69.5t122 23.5q77 0 135.5 -30t90 -84.5t31.5 -126.5q0 -52 -17.5 -99.5t-50.5 -87.5q-44 -53 -107 -82t-136 -29t-130.5 30.5t-90 84t-32.5 120.5q0 62 21 116zM262 308q-16 -11 -25 -29.5t-9 -41.5q0 -25 14.5 -40.5t38.5 -15.5
q31 0 50 23t19 59q0 26 -14 41t-39 15q-19 0 -35 -11zM359 657l-93 -82h-87l122 172h143l58 -172h-81zM156 -93q11 18 29.5 29t38.5 11q22 0 40.5 -10.5t29 -28.5t10.5 -40t-10.5 -40.5t-29 -29t-40.5 -10.5q-21 0 -39 11t-29 29.5t-11 39.5t11 39z" />
    <glyph glyph-name="uni1EDA" unicode="&#x1eda;" horiz-adv-x="863" 
d="M883.5 713.5q-19.5 -36.5 -58 -60.5t-94.5 -31q44 -48 63.5 -105.5t19.5 -119.5q0 -116 -52.5 -211t-147.5 -150.5t-216 -55.5q-107 0 -189 43.5t-126.5 120t-44.5 172.5q0 121 55 215.5t150 147.5t210 53q42 0 74.5 -6t71.5 -17q28 -8 45.5 -11.5t36.5 -3.5q26 0 49 13
t36.5 36t13.5 52q0 31 -4 44h121q6 -18 6 -44q0 -45 -19.5 -81.5zM486.5 239q32.5 21 51 56.5t18.5 77.5q0 35 -15.5 62.5t-42.5 43t-61 15.5q-40 0 -72.5 -19.5t-51 -54t-18.5 -77.5q0 -37 14.5 -65.5t41.5 -44t63 -15.5q40 0 72.5 21zM637 958l-181 -172h-93l108 172h166z
" />
    <glyph glyph-name="uni1EDB" unicode="&#x1edb;" horiz-adv-x="649" 
d="M654 481.5q-43 -47.5 -127 -59.5q43 -63 43 -143q0 -69 -35.5 -138t-106.5 -114.5t-169 -45.5q-73 0 -130.5 30.5t-90 84t-32.5 120.5q0 84 40 154t110.5 110t156.5 40q31 0 52 -3.5t54 -10.5q3 -1 16 -4t24 -4.5t22 -1.5q21 0 42.5 10.5t36 32.5t14.5 55q0 18 -4 42h121
q6 -18 6 -37q0 -70 -43 -117.5zM331 204q19 23 19 59q0 26 -14 41t-39 15q-19 0 -35 -11t-25 -29.5t-9 -41.5q0 -27 14.5 -41.5t38.5 -14.5q31 0 50 23zM506 746l-181 -172h-93l108 172h166z" />
    <glyph glyph-name="uni1EDC" unicode="&#x1edc;" horiz-adv-x="863" 
d="M883.5 713.5q-19.5 -36.5 -58 -60.5t-94.5 -31q44 -48 63.5 -105.5t19.5 -119.5q0 -116 -52.5 -211t-147.5 -150.5t-216 -55.5q-107 0 -189 43.5t-126.5 120t-44.5 172.5q0 121 55 215.5t150 147.5t210 53q42 0 74.5 -6t71.5 -17q28 -8 45.5 -11.5t36.5 -3.5q26 0 49 13
t36.5 36t13.5 52q0 31 -4 44h121q6 -18 6 -44q0 -45 -19.5 -81.5zM486.5 239q32.5 21 51 56.5t18.5 77.5q0 35 -15.5 62.5t-42.5 43t-61 15.5q-40 0 -72.5 -19.5t-51 -54t-18.5 -77.5q0 -37 14.5 -65.5t41.5 -44t63 -15.5q40 0 72.5 21zM568 786h-91l-134 172h150z" />
    <glyph glyph-name="uni1EDD" unicode="&#x1edd;" horiz-adv-x="649" 
d="M654 481.5q-43 -47.5 -127 -59.5q43 -63 43 -143q0 -69 -35.5 -138t-106.5 -114.5t-169 -45.5q-73 0 -130.5 30.5t-90 84t-32.5 120.5q0 84 40 154t110.5 110t156.5 40q31 0 52 -3.5t54 -10.5q3 -1 16 -4t24 -4.5t22 -1.5q21 0 42.5 10.5t36 32.5t14.5 55q0 18 -4 42h121
q6 -18 6 -37q0 -70 -43 -117.5zM331 204q19 23 19 59q0 26 -14 41t-39 15q-19 0 -35 -11t-25 -29.5t-9 -41.5q0 -27 14.5 -41.5t38.5 -14.5q31 0 50 23zM417 575h-91l-134 172h150z" />
    <glyph glyph-name="uni1EDE" unicode="&#x1ede;" horiz-adv-x="863" 
d="M883.5 713.5q-19.5 -36.5 -58 -60.5t-94.5 -31q44 -48 63.5 -105.5t19.5 -119.5q0 -116 -52.5 -211t-147.5 -150.5t-216 -55.5q-107 0 -189 43.5t-126.5 120t-44.5 172.5q0 121 55 215.5t150 147.5t210 53q42 0 74.5 -6t71.5 -17q28 -8 45.5 -11.5t36.5 -3.5q26 0 49 13
t36.5 36t13.5 52q0 31 -4 44h121q6 -18 6 -44q0 -45 -19.5 -81.5zM486.5 239q32.5 21 51 56.5t18.5 77.5q0 35 -15.5 62.5t-42.5 43t-61 15.5q-40 0 -72.5 -19.5t-51 -54t-18.5 -77.5q0 -37 14.5 -65.5t41.5 -44t63 -15.5q40 0 72.5 21zM581 957q35 -23 35 -68
q0 -33 -20 -60t-56.5 -43t-84.5 -16q-19 0 -32.5 2t-16.5 3l11 65q16 -3 31 -3q23 0 37.5 8.5t14.5 27.5q0 27 -40 27q-21 0 -44.5 -5t-44.5 -14l12 72q24 13 50 20t57 7q56 0 91 -23z" />
    <glyph glyph-name="uni1EDF" unicode="&#x1edf;" horiz-adv-x="649" 
d="M654 481.5q-43 -47.5 -127 -59.5q43 -63 43 -143q0 -69 -35.5 -138t-106.5 -114.5t-169 -45.5q-73 0 -130.5 30.5t-90 84t-32.5 120.5q0 84 40 154t110.5 110t156.5 40q31 0 52 -3.5t54 -10.5q3 -1 16 -4t24 -4.5t22 -1.5q21 0 42.5 10.5t36 32.5t14.5 55q0 18 -4 42h121
q6 -18 6 -37q0 -70 -43 -117.5zM331 204q19 23 19 59q0 26 -14 41t-39 15q-19 0 -35 -11t-25 -29.5t-9 -41.5q0 -27 14.5 -41.5t38.5 -14.5q31 0 50 23zM445 747q35 -23 35 -68q0 -33 -20 -60t-56.5 -43t-84.5 -16q-19 0 -32.5 2t-16.5 3l11 65q16 -3 31 -3q23 0 37.5 8.5
t14.5 27.5q0 27 -40 27q-21 0 -44.5 -5t-44.5 -14l12 72q24 13 50 20t57 7q56 0 91 -23z" />
    <glyph glyph-name="uni1EE0" unicode="&#x1ee0;" horiz-adv-x="863" 
d="M883.5 713.5q-19.5 -36.5 -58 -60.5t-94.5 -31q44 -48 63.5 -105.5t19.5 -119.5q0 -116 -52.5 -211t-147.5 -150.5t-216 -55.5q-107 0 -189 43.5t-126.5 120t-44.5 172.5q0 121 55 215.5t150 147.5t210 53q42 0 74.5 -6t71.5 -17q28 -8 45.5 -11.5t36.5 -3.5q26 0 49 13
t36.5 36t13.5 52q0 31 -4 44h121q6 -18 6 -44q0 -45 -19.5 -81.5zM486.5 239q32.5 21 51 56.5t18.5 77.5q0 35 -15.5 62.5t-42.5 43t-61 15.5q-40 0 -72.5 -19.5t-51 -54t-18.5 -77.5q0 -37 14.5 -65.5t41.5 -44t63 -15.5q40 0 72.5 21zM601.5 849.5
q-27.5 -33.5 -70.5 -33.5q-22 0 -43 7l-31 10q-20 6 -31 6q-34 0 -44 -33h-61q29 136 113 136q19 0 45 -8l31 -10q18 -6 27 -6q19 0 29 8.5t18 30.5h62q-17 -74 -44.5 -107.5z" />
    <glyph glyph-name="uni1EE1" unicode="&#x1ee1;" horiz-adv-x="649" 
d="M654 481.5q-43 -47.5 -127 -59.5q43 -63 43 -143q0 -69 -35.5 -138t-106.5 -114.5t-169 -45.5q-73 0 -130.5 30.5t-90 84t-32.5 120.5q0 84 40 154t110.5 110t156.5 40q31 0 52 -3.5t54 -10.5q3 -1 16 -4t24 -4.5t22 -1.5q21 0 42.5 10.5t36 32.5t14.5 55q0 18 -4 42h121
q6 -18 6 -37q0 -70 -43 -117.5zM331 204q19 23 19 59q0 26 -14 41t-39 15q-19 0 -35 -11t-25 -29.5t-9 -41.5q0 -27 14.5 -41.5t38.5 -14.5q31 0 50 23zM467.5 634.5q-27.5 -33.5 -70.5 -33.5q-22 0 -43 7l-31 10q-20 6 -31 6q-34 0 -44 -33h-61q29 136 113 136q19 0 45 -8
l31 -10q18 -6 27 -6q19 0 29 8.5t18 30.5h62q-17 -74 -44.5 -107.5z" />
    <glyph glyph-name="uni1EE2" unicode="&#x1ee2;" horiz-adv-x="863" 
d="M883.5 713.5q-19.5 -36.5 -58 -60.5t-94.5 -31q44 -48 63.5 -105.5t19.5 -119.5q0 -116 -52.5 -211t-147.5 -150.5t-216 -55.5q-107 0 -189 43.5t-126.5 120t-44.5 172.5q0 121 55 215.5t150 147.5t210 53q42 0 74.5 -6t71.5 -17q28 -8 45.5 -11.5t36.5 -3.5q26 0 49 13
t36.5 36t13.5 52q0 31 -4 44h121q6 -18 6 -44q0 -45 -19.5 -81.5zM486.5 239q32.5 21 51 56.5t18.5 77.5q0 35 -15.5 62.5t-42.5 43t-61 15.5q-40 0 -72.5 -19.5t-51 -54t-18.5 -77.5q0 -37 14.5 -65.5t41.5 -44t63 -15.5q40 0 72.5 21zM267 -93q11 18 29.5 29t38.5 11
q22 0 40.5 -10.5t29 -28.5t10.5 -40t-10.5 -40.5t-29 -29t-40.5 -10.5q-21 0 -39 11t-29 29.5t-11 39.5t11 39z" />
    <glyph glyph-name="uni1EE3" unicode="&#x1ee3;" horiz-adv-x="649" 
d="M654 481.5q-43 -47.5 -127 -59.5q43 -63 43 -143q0 -69 -35.5 -138t-106.5 -114.5t-169 -45.5q-73 0 -130.5 30.5t-90 84t-32.5 120.5q0 84 40 154t110.5 110t156.5 40q31 0 52 -3.5t54 -10.5q3 -1 16 -4t24 -4.5t22 -1.5q21 0 42.5 10.5t36 32.5t14.5 55q0 18 -4 42h121
q6 -18 6 -37q0 -70 -43 -117.5zM331 204q19 23 19 59q0 26 -14 41t-39 15q-19 0 -35 -11t-25 -29.5t-9 -41.5q0 -27 14.5 -41.5t38.5 -14.5q31 0 50 23zM156 -93q11 18 29.5 29t38.5 11q22 0 40.5 -10.5t29 -28.5t10.5 -40t-10.5 -40.5t-29 -29t-40.5 -10.5q-21 0 -39 11
t-29 29.5t-11 39.5t11 39z" />
    <glyph glyph-name="uni1EE4" unicode="&#x1ee4;" horiz-adv-x="763" 
d="M322 368q-6 -33 -10.5 -59.5t-4.5 -38.5q0 -28 14 -43t40 -15q27 0 41.5 15t22.5 43t19 85l66 360h261l-73 -398q-14 -72 -31.5 -123t-43.5 -86q-45 -61 -114.5 -94t-153.5 -33q-96 0 -165.5 31.5t-106.5 90t-37 139.5q0 28 5.5 67.5t16.5 99.5l56 306h262zM247 -93
q11 18 29.5 29t38.5 11q22 0 40.5 -10.5t29 -28.5t10.5 -40t-10.5 -40.5t-29 -29t-40.5 -10.5q-21 0 -39 11t-29 29.5t-11 39.5t11 39z" />
    <glyph glyph-name="uni1EE5" unicode="&#x1ee5;" horiz-adv-x="653" 
d="M269 290q-2 -9 -5.5 -28t-3.5 -31q0 -20 10 -31t27 -11q19 0 30 11.5t17.5 32.5t14.5 65l38 207h231l-42 -228q-19 -107 -55 -171t-96.5 -94t-156.5 -30q-81 0 -139 25.5t-88.5 74t-30.5 115.5q0 23 5 56t12 68l34 184h237zM182 -93q11 18 29.5 29t38.5 11
q22 0 40.5 -10.5t29 -28.5t10.5 -40t-10.5 -40.5t-29 -29t-40.5 -10.5q-21 0 -39 11t-29 29.5t-11 39.5t11 39z" />
    <glyph glyph-name="uni1EE6" unicode="&#x1ee6;" horiz-adv-x="763" 
d="M322 368q-6 -33 -10.5 -59.5t-4.5 -38.5q0 -28 14 -43t40 -15q27 0 41.5 15t22.5 43t19 85l66 360h261l-73 -398q-14 -72 -31.5 -123t-43.5 -86q-45 -61 -114.5 -94t-153.5 -33q-96 0 -165.5 31.5t-106.5 90t-37 139.5q0 28 5.5 67.5t16.5 99.5l56 306h262zM577 957
q35 -23 35 -68q0 -33 -20 -60t-56.5 -43t-84.5 -16q-19 0 -32.5 2t-16.5 3l11 65q16 -3 31 -3q23 0 37.5 8.5t14.5 27.5q0 27 -40 27q-21 0 -44.5 -5t-44.5 -14l12 72q24 13 50 20t57 7q56 0 91 -23z" />
    <glyph glyph-name="uni1EE7" unicode="&#x1ee7;" horiz-adv-x="653" 
d="M269 290q-2 -9 -5.5 -28t-3.5 -31q0 -20 10 -31t27 -11q19 0 30 11.5t17.5 32.5t14.5 65l38 207h231l-42 -228q-19 -107 -55 -171t-96.5 -94t-156.5 -30q-81 0 -139 25.5t-88.5 74t-30.5 115.5q0 23 5 56t12 68l34 184h237zM476 747q35 -23 35 -68q0 -33 -20 -60
t-56.5 -43t-84.5 -16q-19 0 -32.5 2t-16.5 3l11 65q16 -3 31 -3q23 0 37.5 8.5t14.5 27.5q0 27 -40 27q-21 0 -44.5 -5t-44.5 -14l12 72q24 13 50 20t57 7q56 0 91 -23z" />
    <glyph glyph-name="uni1EE8" unicode="&#x1ee8;" horiz-adv-x="791" 
d="M878.5 707q-44.5 -41 -119.5 -55l-61 -335q-14 -72 -31.5 -123t-43.5 -86q-45 -61 -114.5 -94t-153.5 -33q-96 0 -165.5 31.5t-106.5 90t-37 139.5q0 28 5.5 67.5t16.5 99.5l56 306h262l-64 -347q-6 -33 -10.5 -59.5t-4.5 -38.5q0 -28 14 -43t40 -15q27 0 41.5 15
t22.5 43t19 85l66 360h179q32 0 57 12.5t39.5 35.5t14.5 52q0 21 -4 44h121q6 -16 6 -44q0 -67 -44.5 -108zM633 958l-181 -172h-93l108 172h166z" />
    <glyph glyph-name="uni1EE9" unicode="&#x1ee9;" horiz-adv-x="659" 
d="M269 290q-2 -9 -5.5 -28t-3.5 -31q0 -20 10 -31t27 -11q19 0 30 11.5t17.5 32.5t14.5 65l38 207h231l-42 -228q-19 -107 -55 -171t-96.5 -94t-156.5 -30q-81 0 -139 25.5t-88.5 74t-30.5 115.5q0 23 5 56t12 68l34 184h237zM539 505q32 0 57 12.5t39.5 35.5t14.5 52
q0 21 -4 44h121q6 -16 6 -44q0 -57 -33 -95.5t-89 -57t-125 -18.5zM537 746l-181 -172h-93l108 172h166z" />
    <glyph glyph-name="uni1EEA" unicode="&#x1eea;" horiz-adv-x="791" 
d="M878.5 707q-44.5 -41 -119.5 -55l-61 -335q-14 -72 -31.5 -123t-43.5 -86q-45 -61 -114.5 -94t-153.5 -33q-96 0 -165.5 31.5t-106.5 90t-37 139.5q0 28 5.5 67.5t16.5 99.5l56 306h262l-64 -347q-6 -33 -10.5 -59.5t-4.5 -38.5q0 -28 14 -43t40 -15q27 0 41.5 15
t22.5 43t19 85l66 360h179q32 0 57 12.5t39.5 35.5t14.5 52q0 21 -4 44h121q6 -16 6 -44q0 -67 -44.5 -108zM564 786h-91l-134 172h150z" />
    <glyph glyph-name="uni1EEB" unicode="&#x1eeb;" horiz-adv-x="659" 
d="M269 290q-2 -9 -5.5 -28t-3.5 -31q0 -20 10 -31t27 -11q19 0 30 11.5t17.5 32.5t14.5 65l38 207h231l-42 -228q-19 -107 -55 -171t-96.5 -94t-156.5 -30q-81 0 -139 25.5t-88.5 74t-30.5 115.5q0 23 5 56t12 68l34 184h237zM539 505q32 0 57 12.5t39.5 35.5t14.5 52
q0 21 -4 44h121q6 -16 6 -44q0 -57 -33 -95.5t-89 -57t-125 -18.5zM448 575h-91l-134 172h150z" />
    <glyph glyph-name="uni1EEC" unicode="&#x1eec;" horiz-adv-x="791" 
d="M878.5 707q-44.5 -41 -119.5 -55l-61 -335q-14 -72 -31.5 -123t-43.5 -86q-45 -61 -114.5 -94t-153.5 -33q-96 0 -165.5 31.5t-106.5 90t-37 139.5q0 28 5.5 67.5t16.5 99.5l56 306h262l-64 -347q-6 -33 -10.5 -59.5t-4.5 -38.5q0 -28 14 -43t40 -15q27 0 41.5 15
t22.5 43t19 85l66 360h179q32 0 57 12.5t39.5 35.5t14.5 52q0 21 -4 44h121q6 -16 6 -44q0 -67 -44.5 -108zM577 957q35 -23 35 -68q0 -33 -20 -60t-56.5 -43t-84.5 -16q-19 0 -32.5 2t-16.5 3l11 65q16 -3 31 -3q23 0 37.5 8.5t14.5 27.5q0 27 -40 27q-21 0 -44.5 -5
t-44.5 -14l12 72q24 13 50 20t57 7q56 0 91 -23z" />
    <glyph glyph-name="uni1EED" unicode="&#x1eed;" horiz-adv-x="659" 
d="M269 290q-2 -9 -5.5 -28t-3.5 -31q0 -20 10 -31t27 -11q19 0 30 11.5t17.5 32.5t14.5 65l38 207h231l-42 -228q-19 -107 -55 -171t-96.5 -94t-156.5 -30q-81 0 -139 25.5t-88.5 74t-30.5 115.5q0 23 5 56t12 68l34 184h237zM539 505q32 0 57 12.5t39.5 35.5t14.5 52
q0 21 -4 44h121q6 -16 6 -44q0 -57 -33 -95.5t-89 -57t-125 -18.5zM476 747q35 -23 35 -68q0 -33 -20 -60t-56.5 -43t-84.5 -16q-19 0 -32.5 2t-16.5 3l11 65q16 -3 31 -3q23 0 37.5 8.5t14.5 27.5q0 27 -40 27q-21 0 -44.5 -5t-44.5 -14l12 72q24 13 50 20t57 7
q56 0 91 -23z" />
    <glyph glyph-name="uni1EEE" unicode="&#x1eee;" horiz-adv-x="791" 
d="M878.5 707q-44.5 -41 -119.5 -55l-61 -335q-14 -72 -31.5 -123t-43.5 -86q-45 -61 -114.5 -94t-153.5 -33q-96 0 -165.5 31.5t-106.5 90t-37 139.5q0 28 5.5 67.5t16.5 99.5l56 306h262l-64 -347q-6 -33 -10.5 -59.5t-4.5 -38.5q0 -28 14 -43t40 -15q27 0 41.5 15
t22.5 43t19 85l66 360h179q32 0 57 12.5t39.5 35.5t14.5 52q0 21 -4 44h121q6 -16 6 -44q0 -67 -44.5 -108zM597.5 849.5q-27.5 -33.5 -70.5 -33.5q-22 0 -43 7l-31 10q-20 6 -31 6q-34 0 -44 -33h-61q29 136 113 136q19 0 45 -8l31 -10q18 -6 27 -6q19 0 29 8.5t18 30.5h62
q-17 -74 -44.5 -107.5z" />
    <glyph glyph-name="uni1EEF" unicode="&#x1eef;" horiz-adv-x="659" 
d="M269 290q-2 -9 -5.5 -28t-3.5 -31q0 -20 10 -31t27 -11q19 0 30 11.5t17.5 32.5t14.5 65l38 207h231l-42 -228q-19 -107 -55 -171t-96.5 -94t-156.5 -30q-81 0 -139 25.5t-88.5 74t-30.5 115.5q0 23 5 56t12 68l34 184h237zM539 505q32 0 57 12.5t39.5 35.5t14.5 52
q0 21 -4 44h121q6 -16 6 -44q0 -57 -33 -95.5t-89 -57t-125 -18.5zM498.5 634.5q-27.5 -33.5 -70.5 -33.5q-22 0 -43 7l-31 10q-20 6 -31 6q-34 0 -44 -33h-61q29 136 113 136q19 0 45 -8l31 -10q18 -6 27 -6q19 0 29 8.5t18 30.5h62q-17 -74 -44.5 -107.5z" />
    <glyph glyph-name="uni1EF0" unicode="&#x1ef0;" horiz-adv-x="791" 
d="M878.5 707q-44.5 -41 -119.5 -55l-61 -335q-14 -72 -31.5 -123t-43.5 -86q-45 -61 -114.5 -94t-153.5 -33q-96 0 -165.5 31.5t-106.5 90t-37 139.5q0 28 5.5 67.5t16.5 99.5l56 306h262l-64 -347q-6 -33 -10.5 -59.5t-4.5 -38.5q0 -28 14 -43t40 -15q27 0 41.5 15
t22.5 43t19 85l66 360h179q32 0 57 12.5t39.5 35.5t14.5 52q0 21 -4 44h121q6 -16 6 -44q0 -67 -44.5 -108zM247 -93q11 18 29.5 29t38.5 11q22 0 40.5 -10.5t29 -28.5t10.5 -40t-10.5 -40.5t-29 -29t-40.5 -10.5q-21 0 -39 11t-29 29.5t-11 39.5t11 39z" />
    <glyph glyph-name="uni1EF1" unicode="&#x1ef1;" horiz-adv-x="659" 
d="M269 290q-2 -9 -5.5 -28t-3.5 -31q0 -20 10 -31t27 -11q19 0 30 11.5t17.5 32.5t14.5 65l38 207h231l-42 -228q-19 -107 -55 -171t-96.5 -94t-156.5 -30q-81 0 -139 25.5t-88.5 74t-30.5 115.5q0 23 5 56t12 68l34 184h237zM539 505q32 0 57 12.5t39.5 35.5t14.5 52
q0 21 -4 44h121q6 -16 6 -44q0 -57 -33 -95.5t-89 -57t-125 -18.5zM182 -93q11 18 29.5 29t38.5 11q22 0 40.5 -10.5t29 -28.5t10.5 -40t-10.5 -40.5t-29 -29t-40.5 -10.5q-21 0 -39 11t-29 29.5t-11 39.5t11 39z" />
    <glyph glyph-name="Ygrave" unicode="&#x1ef2;" horiz-adv-x="640" 
d="M-7 715h282l31 -94q19 -57 25 -101q7 26 17.5 45t31.5 51l63 99h310l-323 -422l-54 -293h-262l55 297zM472 786h-91l-134 172h150z" />
    <glyph glyph-name="ygrave" unicode="&#x1ef3;" horiz-adv-x="579" 
d="M0 505h228l25 -125q12 -55 13 -95q9 42 36 96l60 124h249l-425 -723h-260l188 309zM410 575h-91l-134 172h150z" />
    <glyph glyph-name="uni1EF4" unicode="&#x1ef4;" horiz-adv-x="640" 
d="M-7 715h282l31 -94q19 -57 25 -101q7 26 17.5 45t31.5 51l63 99h310l-323 -422l-54 -293h-262l55 297zM152 -93q11 18 29.5 29t38.5 11q22 0 40.5 -10.5t29 -28.5t10.5 -40t-10.5 -40.5t-29 -29t-40.5 -10.5q-21 0 -39 11t-29 29.5t-11 39.5t11 39z" />
    <glyph glyph-name="uni1EF5" unicode="&#x1ef5;" horiz-adv-x="579" 
d="M0 505h228l25 -125q12 -55 13 -95q9 42 36 96l60 124h249l-425 -723h-260l188 309zM305 -93q11 18 29.5 29t38.5 11q22 0 40.5 -10.5t29 -28.5t10.5 -40t-10.5 -40.5t-29 -29t-40.5 -10.5q-21 0 -39 11t-29 29.5t-11 39.5t11 39z" />
    <glyph glyph-name="uni1EF6" unicode="&#x1ef6;" horiz-adv-x="640" 
d="M-7 715h282l31 -94q19 -57 25 -101q7 26 17.5 45t31.5 51l63 99h310l-323 -422l-54 -293h-262l55 297zM485 957q35 -23 35 -68q0 -33 -20 -60t-56.5 -43t-84.5 -16q-19 0 -32.5 2t-16.5 3l11 65q16 -3 31 -3q23 0 37.5 8.5t14.5 27.5q0 27 -40 27q-21 0 -44.5 -5
t-44.5 -14l12 72q24 13 50 20t57 7q56 0 91 -23z" />
    <glyph glyph-name="uni1EF7" unicode="&#x1ef7;" horiz-adv-x="579" 
d="M0 505h228l25 -125q12 -55 13 -95q9 42 36 96l60 124h249l-425 -723h-260l188 309zM438 747q35 -23 35 -68q0 -33 -20 -60t-56.5 -43t-84.5 -16q-19 0 -32.5 2t-16.5 3l11 65q16 -3 31 -3q23 0 37.5 8.5t14.5 27.5q0 27 -40 27q-21 0 -44.5 -5t-44.5 -14l12 72
q24 13 50 20t57 7q56 0 91 -23z" />
    <glyph glyph-name="uni1EF8" unicode="&#x1ef8;" horiz-adv-x="640" 
d="M-7 715h282l31 -94q19 -57 25 -101q7 26 17.5 45t31.5 51l63 99h310l-323 -422l-54 -293h-262l55 297zM505.5 849.5q-27.5 -33.5 -70.5 -33.5q-22 0 -43 7l-31 10q-20 6 -31 6q-34 0 -44 -33h-61q29 136 113 136q19 0 45 -8l31 -10q18 -6 27 -6q19 0 29 8.5t18 30.5h62
q-17 -74 -44.5 -107.5z" />
    <glyph glyph-name="uni1EF9" unicode="&#x1ef9;" horiz-adv-x="579" 
d="M0 505h228l25 -125q12 -55 13 -95q9 42 36 96l60 124h249l-425 -723h-260l188 309zM460.5 634.5q-27.5 -33.5 -70.5 -33.5q-22 0 -43 7l-31 10q-20 6 -31 6q-34 0 -44 -33h-61q29 136 113 136q19 0 45 -8l31 -10q18 -6 27 -6q19 0 29 8.5t18 30.5h62
q-17 -74 -44.5 -107.5z" />
    <glyph glyph-name="uni2011" unicode="&#x2011;" horiz-adv-x="440" 
d="M407 351l-38 -200h-374l39 200h373z" />
    <glyph glyph-name="endash" unicode="&#x2013;" horiz-adv-x="500" 
d="M-13 159l39 185h442l-39 -185h-442z" />
    <glyph glyph-name="emdash" unicode="&#x2014;" horiz-adv-x="1058" 
d="M1026 344l-39 -185h-1000l39 185h1000z" />
    <glyph glyph-name="quoteleft" unicode="&#x2018;" horiz-adv-x="343" 
d="M4 366l224 349h210l-180 -349h-254z" />
    <glyph glyph-name="quoteright" unicode="&#x2019;" horiz-adv-x="343" 
d="M441 715l-225 -349h-209l180 349h254z" />
    <glyph glyph-name="quotesinglbase" unicode="&#x201a;" horiz-adv-x="343" 
d="M299 185l-224 -349h-210l181 349h253z" />
    <glyph glyph-name="quotedblleft" unicode="&#x201c;" horiz-adv-x="655" 
d="M5 366l224 349h209l-180 -349h-253zM317 366l224 349h210l-180 -349h-254z" />
    <glyph glyph-name="quotedblright" unicode="&#x201d;" horiz-adv-x="655" 
d="M441 715l-225 -349h-209l180 349h254zM753 715l-224 -349h-210l181 349h253z" />
    <glyph glyph-name="quotedblbase" unicode="&#x201e;" horiz-adv-x="655" 
d="M299 185l-224 -349h-210l181 349h253zM612 185l-225 -349h-209l180 349h254z" />
    <glyph glyph-name="dagger" unicode="&#x2020;" horiz-adv-x="648" 
d="M46 326l41 208h157l34 179h234l-35 -179h149l-41 -208h-148l-106 -545h-234l106 545h-157z" />
    <glyph glyph-name="daggerdbl" unicode="&#x2021;" horiz-adv-x="648" 
d="M-15 -44l36 185h167l44 226h-167l36 188h168l31 158h206l-31 -158h163l-37 -188h-162l-44 -226h163l-36 -185h-163l-34 -174h-206l33 174h-167z" />
    <glyph glyph-name="bullet" unicode="&#x2022;" horiz-adv-x="590" 
d="M169.5 444q19.5 33 53 52.5t72.5 19.5t72 -19.5t52.5 -52.5t19.5 -72t-19.5 -72.5t-53 -53t-72.5 -19.5t-72 19.5t-52.5 53t-19.5 72.5t19.5 72z" />
    <glyph glyph-name="ellipsis" unicode="&#x2026;" horiz-adv-x="1000" 
d="M63 2.5q-30 16.5 -47 44t-17 59.5q0 40 20 74t55 53.5t76 19.5q37 0 66.5 -16.5t46 -44.5t16.5 -62q0 -37 -20.5 -70.5t-55 -53.5t-74.5 -20q-36 0 -66 16.5zM396 2.5q-30 16.5 -47 44t-17 59.5q0 40 20 74t55 53.5t76 19.5q37 0 66.5 -16.5t46 -44.5t16.5 -62
q0 -37 -20.5 -70.5t-55 -53.5t-74.5 -20q-36 0 -66 16.5zM730 2.5q-30 16.5 -47 44t-17 59.5q0 40 20 74t55 53.5t76 19.5q37 0 66.5 -16.5t46 -44.5t16.5 -62q0 -37 -20.5 -70.5t-55 -53.5t-74.5 -20q-36 0 -66 16.5z" />
    <glyph glyph-name="perthousand" unicode="&#x2030;" horiz-adv-x="1267" 
d="M373.5 449q-25.5 -50 -71.5 -78.5t-105 -28.5q-76 0 -118 43t-42 121q0 63 26.5 112.5t73 76.5t105.5 27q48 0 83.5 -19.5t54.5 -55t19 -84.5q0 -64 -25.5 -114zM690 722l-428 -741h-96l426 741h98zM235 469.5q12 16.5 19.5 45t7.5 62.5q0 21 -6.5 31.5t-19.5 10.5
q-15 0 -27.5 -17t-20 -46t-7.5 -63q0 -40 28 -40q14 0 26 16.5zM796.5 87.5q-25.5 -50.5 -71.5 -79t-105 -28.5q-76 0 -118 43t-42 121q0 63 26.5 112.5t73 77t105.5 27.5q48 0 83.5 -19.5t54.5 -55t19 -84.5q0 -64 -25.5 -114.5zM1204.5 87.5q-25.5 -50.5 -72 -79
t-105.5 -28.5q-76 0 -118 43t-42 121q0 63 26.5 112.5t73 77t105.5 27.5q48 0 83.5 -19.5t55 -55.5t19.5 -84q0 -64 -25.5 -114.5zM651.5 105.5q12.5 16.5 20 45.5t7.5 63q0 21 -6.5 31t-19.5 10q-15 0 -27.5 -17t-20 -46t-7.5 -63q0 -40 27 -40q14 0 26.5 16.5z
M1058.5 105.5q12.5 16.5 20 45.5t7.5 63q0 21 -6.5 31t-19.5 10q-15 0 -27.5 -17t-20 -46t-7.5 -63q0 -40 27 -40q14 0 26.5 16.5z" />
    <glyph glyph-name="guilsinglleft" unicode="&#x2039;" horiz-adv-x="315" 
d="M263 103l-113 -77l-144 236l187 214l97 -78l-125 -141z" />
    <glyph glyph-name="guilsinglright" unicode="&#x203a;" horiz-adv-x="315" 
d="M12 399l113 77l145 -236l-188 -214l-97 78l125 140z" />
    <glyph glyph-name="fraction" unicode="&#x2044;" horiz-adv-x="167" 
d="M333 722l-392 -741h-108l392 741h108z" />
    <glyph glyph-name="zero.superior" unicode="&#x2070;" horiz-adv-x="470" 
d="M67.5 584q28.5 62 85 96t137.5 34q50 0 90.5 -21.5t63.5 -60t23 -88.5q0 -78 -28.5 -140.5t-82 -98t-127.5 -35.5q-57 0 -100 21t-66.5 59.5t-23.5 88.5q0 83 28.5 145zM228 535q-10 -27 -16 -53.5t-7 -43.5q0 -14 8.5 -22t21.5 -8q11 0 21 6t16 18q11 20 20 52t9 57
q0 15 -7.5 23t-20.5 8q-31 0 -45 -37z" />
    <glyph glyph-name="four.superior" unicode="&#x2074;" 
d="M9 360l18 88l235 260h210l-49 -239h40l-21 -109h-41l-15 -79h-157l16 79h-236zM297 606h-3q-13 -18 -42 -50l-43 -49l-37 -38h94l18 84q8 36 13 53z" />
    <glyph glyph-name="five.superior" unicode="&#x2075;" 
d="M123.5 396q31.5 -12 74.5 -12q34 0 47.5 10t14.5 29q0 27 -26.5 43t-81.5 16q-30 0 -47 -1.5t-31 -4.5l77 230h304l-24 -117h-186l-8 -35q18 2 27 2q80 0 122.5 -33t42.5 -90q0 -46 -26 -83t-76.5 -58.5t-119.5 -21.5q-56 0 -102 13.5t-89 40.5l44 110q32 -26 63.5 -38z
" />
    <glyph glyph-name="six.superior" unicode="&#x2076;" 
d="M309 559q64 0 98 -24q24 -17 36.5 -41t12.5 -54q0 -37 -18 -70.5t-52 -58.5q-55 -41 -153 -41q-61 0 -106 20t-68.5 56.5t-23.5 86.5q0 67 53.5 134t166.5 140h214l-214 -153q22 5 54 5zM210 405.5q13 -9.5 33 -9.5t33.5 10t14.5 26q0 15 -13 25.5t-33 10.5
q-21 0 -34.5 -11t-13.5 -27q0 -15 13 -24.5z" />
    <glyph glyph-name="seven.superior" unicode="&#x2077;" 
d="M65 584l27 122h403v-6l-254 -419h-183l211 303h-204z" />
    <glyph glyph-name="eight.superior" unicode="&#x2078;" 
d="M93.5 537q-15.5 21 -15.5 50q0 37 23 66t67 45t105 16q60 0 102.5 -14.5t64.5 -41t22 -62.5q0 -41 -24 -67.5t-70 -34.5q35 -10 55.5 -34t20.5 -54q0 -42 -24.5 -72.5t-72 -47t-113.5 -16.5t-113.5 16.5t-72 45.5t-24.5 68q0 43 29 71t84 35q-28 10 -43.5 31zM240 602.5
q-12 -9.5 -12 -24.5q0 -13 10.5 -21t30.5 -8q19 0 30.5 9.5t12.5 24.5q0 13 -10.5 21t-29.5 8q-20 0 -32 -9.5zM204 440.5q-14 -12.5 -14 -28.5q0 -15 11.5 -23.5t32.5 -8.5q22 0 35.5 11.5t13.5 29.5q0 13 -12 22.5t-32 9.5q-21 0 -35 -12.5z" />
    <glyph glyph-name="nine.superior" unicode="&#x2079;" 
d="M190 425q-63 0 -98 24q-24 17 -36.5 41t-12.5 54q0 37 18 70.5t52 58.5q55 41 153 41q61 0 106 -20t68.5 -56.5t23.5 -86.5q0 -67 -53.5 -134t-166.5 -140h-214l214 153q-22 -5 -54 -5zM289 578.5q-13 9.5 -33 9.5t-33.5 -10t-14.5 -26q0 -15 13 -25.5t33 -10.5
q21 0 34.5 11t13.5 27q0 15 -13 24.5z" />
    <glyph glyph-name="uni207A" unicode="&#x207a;" 
d="M406 507v-80h-134v-139h-82v139h-135v80h135v139h82v-139h134z" />
    <glyph glyph-name="uni207B" unicode="&#x207b;" 
d="M60 426v81h351v-81h-351z" />
    <glyph glyph-name="uni207C" unicode="&#x207c;" 
d="M50 496v80h351v-80h-351zM50 358v80h351v-80h-351z" />
    <glyph glyph-name="uni207D" unicode="&#x207d;" horiz-adv-x="163" 
d="M188.5 581.5q-29.5 -39.5 -43.5 -83t-14 -96.5q0 -49 13.5 -90t41.5 -85l-108 -60q-45 59 -66.5 120.5t-21.5 127.5q0 201 205 336l72 -87q-49 -43 -78.5 -82.5z" />
    <glyph glyph-name="uni207E" unicode="&#x207e;" horiz-adv-x="163" 
d="M12.5 336.5q29.5 39.5 43.5 83t14 96.5q0 49 -13.5 90t-41.5 85l108 60q45 -59 66.5 -120.5t21.5 -127.5q0 -201 -205 -336l-72 87q49 43 78.5 82.5z" />
    <glyph glyph-name="zero.inferior" unicode="&#x2080;" horiz-adv-x="470" 
d="M-8.5 174q28.5 62 85 96t137.5 34q50 0 90.5 -21.5t63.5 -60t23 -88.5q0 -78 -28.5 -140.5t-82 -98t-127.5 -35.5q-57 0 -100 21t-66.5 59.5t-23.5 88.5q0 83 28.5 145zM152 125q-10 -27 -16 -53.5t-7 -43.5q0 -14 8.5 -22t21.5 -8q11 0 21 6t16 18q11 20 20 52t9 57
q0 15 -7.5 23t-20.5 8q-31 0 -45 -37z" />
    <glyph glyph-name="one.inferior" unicode="&#x2081;" 
d="M38 175l25 121h218l-87 -425h-162l62 304h-56z" />
    <glyph glyph-name="two.inferior" unicode="&#x2082;" 
d="M118.5 73.5q62.5 48.5 62.5 73.5q0 13 -8 20t-22 7q-16 0 -27 -10.5t-13 -29.5h-146q13 85 65.5 127.5t142.5 42.5q54 0 95.5 -16.5t64 -46.5t22.5 -67q0 -107 -177 -185h151l-25 -118h-387l17 85q122 69 184.5 117.5z" />
    <glyph glyph-name="three.inferior" unicode="&#x2083;" 
d="M137 -27q19 0 30.5 9.5t11.5 24.5q0 34 -46 34q-1 0 -4.5 -0.5t-11.5 -0.5l19 93q12 -2 19 -2q22 0 34.5 9.5t12.5 25.5q0 13 -9 20.5t-25 7.5q-17 0 -28.5 -9.5t-14.5 -26.5h-155q16 72 72.5 109t150.5 37q47 0 84 -15.5t58 -42t21 -58.5q0 -39 -24.5 -63.5t-74.5 -38.5
q40 -7 61.5 -30t21.5 -58q0 -39 -24.5 -70.5t-70.5 -49.5t-107 -18q-60 0 -105 18t-70 51.5t-28 78.5h155q6 -35 47 -35z" />
    <glyph glyph-name="four.inferior" unicode="&#x2084;" 
d="M-67 -50l18 88l235 260h210l-49 -239h40l-21 -109h-41l-15 -79h-157l16 79h-236zM221 196h-3q-13 -18 -42 -50l-43 -49l-37 -38h94l18 84q8 36 13 53z" />
    <glyph glyph-name="five.inferior" unicode="&#x2085;" 
d="M47.5 -14q31.5 -12 74.5 -12q34 0 47.5 10t14.5 29q0 27 -26.5 43t-81.5 16q-30 0 -47 -1.5t-31 -4.5l77 230h304l-24 -117h-186l-8 -35q18 2 27 2q80 0 122.5 -33t42.5 -90q0 -46 -26 -83t-76.5 -58.5t-119.5 -21.5q-56 0 -102 13.5t-89 40.5l44 110q32 -26 63.5 -38z
" />
    <glyph glyph-name="six.inferior" unicode="&#x2086;" 
d="M233 149q64 0 98 -24q24 -17 36.5 -41t12.5 -54q0 -37 -18 -70.5t-52 -58.5q-55 -41 -153 -41q-61 0 -106 20t-68.5 56.5t-23.5 86.5q0 67 53.5 134t166.5 140h214l-214 -153q22 5 54 5zM134 -4.5q13 -9.5 33 -9.5t33.5 10t14.5 26q0 15 -13 25.5t-33 10.5
q-21 0 -34.5 -11t-13.5 -27q0 -15 13 -24.5z" />
    <glyph glyph-name="seven.inferior" unicode="&#x2087;" 
d="M-11 174l27 122h403v-6l-254 -419h-183l211 303h-204z" />
    <glyph glyph-name="eight.inferior" unicode="&#x2088;" 
d="M17.5 127q-15.5 21 -15.5 50q0 37 23 66t67 45t105 16q60 0 102.5 -14.5t64.5 -41t22 -62.5q0 -41 -24 -67.5t-70 -34.5q35 -10 55.5 -34t20.5 -54q0 -42 -24.5 -72.5t-72 -47t-113.5 -16.5t-113.5 16.5t-72 45.5t-24.5 68q0 43 29 71t84 35q-28 10 -43.5 31zM164 192.5
q-12 -9.5 -12 -24.5q0 -13 10.5 -21t30.5 -8q19 0 30.5 9.5t12.5 24.5q0 13 -10.5 21t-29.5 8q-20 0 -32 -9.5zM128 30.5q-14 -12.5 -14 -28.5q0 -15 11.5 -23.5t32.5 -8.5q22 0 35.5 11.5t13.5 29.5q0 13 -12 22.5t-32 9.5q-21 0 -35 -12.5z" />
    <glyph glyph-name="nine.inferior" unicode="&#x2089;" 
d="M114 15q-63 0 -98 24q-24 17 -36.5 41t-12.5 54q0 37 18 70.5t52 58.5q55 41 153 41q61 0 106 -20t68.5 -56.5t23.5 -86.5q0 -67 -53.5 -134t-166.5 -140h-214l214 153q-22 -5 -54 -5zM213 168.5q-13 9.5 -33 9.5t-33.5 -10t-14.5 -26q0 -15 13 -25.5t33 -10.5
q21 0 34.5 11t13.5 27q0 15 -13 24.5z" />
    <glyph glyph-name="uni208A" unicode="&#x208a;" 
d="M351 97v-80h-134v-139h-82v139h-135v80h135v139h82v-139h134z" />
    <glyph glyph-name="uni208B" unicode="&#x208b;" 
d="M0 16v81h351v-81h-351z" />
    <glyph glyph-name="uni208C" unicode="&#x208c;" 
d="M1 86v80h351v-80h-351zM1 -52v80h351v-80h-351z" />
    <glyph glyph-name="uni208D" unicode="&#x208d;" horiz-adv-x="277" 
d="M188.5 171.5q-29.5 -39.5 -43.5 -83t-14 -96.5q0 -49 13.5 -90t41.5 -85l-108 -60q-45 59 -66.5 120.5t-21.5 127.5q0 201 205 336l72 -87q-49 -43 -78.5 -82.5z" />
    <glyph glyph-name="uni208E" unicode="&#x208e;" horiz-adv-x="277" 
d="M12.5 -73.5q29.5 39.5 43.5 83t14 96.5q0 49 -13.5 90t-41.5 85l108 60q45 -59 66.5 -120.5t21.5 -127.5q0 -201 -205 -336l-72 87q49 43 78.5 82.5z" />
    <glyph glyph-name="dong" unicode="&#x20ab;" horiz-adv-x="653" 
d="M690 534h-61l-103 -534h-220l16 58q-56 -76 -139 -76q-49 0 -88.5 26.5t-62 73.5t-22.5 107q0 83 31.5 152t86 109t119.5 40q46 0 81 -22t53 -62q0 21 1 40t5 38l9 50h-75l20 108h74l11 66h236l-13 -66h61zM323.5 192.5q18.5 19.5 18.5 49.5q0 25 -14 40t-35 15
q-17 0 -31 -9.5t-22 -26t-8 -36.5q0 -25 12.5 -38.5t33.5 -13.5q27 0 45.5 19.5zM5 -76h571l-21 -108h-571z" />
    <glyph glyph-name="Euro" unicode="&#x20ac;" horiz-adv-x="685" 
d="M573 497q-31 10 -71 10q-51 0 -81.5 -13t-52.5 -44h210l-37 -68h-194q-4 -30 -4 -46v-10h170l-37 -67h-122q13 -34 44 -51t77 -17q31 0 66.5 11.5t69.5 32.5l-45 -229q-66 -24 -131 -24q-145 0 -229.5 68t-106.5 209h-100l27 67h69q0 32 4 56h-80l26 68h70q28 88 84 149
t134.5 92t172.5 31q100 0 182 -41l-44 -217q-40 23 -71 33z" />
    <glyph glyph-name="uni20B9" unicode="&#x20b9;" horiz-adv-x="685" 
d="M577 549h82l-48 -84h-35q-9 -41 -33.5 -77.5t-61 -62.5t-81.5 -34l141 -291h-268l-111 240l74 146q44 2 69.5 21.5t35.5 57.5h-256l38 84h224q-7 38 -40 56.5t-90 18.5h-122l38 84h570l-48 -84h-115q26 -32 37 -75z" />
    <glyph glyph-name="uni20BA" unicode="&#x20ba;" horiz-adv-x="685" 
d="M690 335q-53 -120 -120.5 -193t-162.5 -107.5t-230 -34.5h-159l51 274l-84 -26l25 70l71 22l11 61l-83 -26l25 71l71 22l44 240h258l-29 -156l70 22l-31 -71l-51 -16l-11 -62l69 21l-30 -70l-51 -16l-23 -123q27 0 45.5 8.5t34 29.5t32.5 59z" />
    <glyph glyph-name="uni20BD" unicode="&#x20bd;" horiz-adv-x="685" 
d="M301 219l-10 -53h107l-20 -107h-107l-11 -59h-260l11 59h-58l20 107h58l10 53h-57l34 178h56l58 311h245q160 0 238 -55t78 -170q0 -82 -37 -141t-109 -91t-175 -32h-71zM334 397h19q36 0 58.5 18t22.5 52q0 26 -18.5 39t-46.5 13h-12z" />
    <glyph glyph-name="uni2113" unicode="&#x2113;" horiz-adv-x="563" 
d="M519.5 418.5q-71.5 -82.5 -231.5 -167.5l-1 -14q0 -28 14 -43.5t46 -15.5q18 0 39 7t58 24l49 -147q-121 -74 -252 -74q-85 0 -134 36.5t-61 102.5l-51 -27l-44 92l100 54v2l45 212q28 132 98.5 197t192.5 65q100 0 152 -36.5t52 -101.5q0 -83 -71.5 -165.5zM370.5 587.5
q-15.5 -26.5 -26.5 -76.5l-26 -119q61 38 89 84t28 91q0 23 -7.5 35t-21.5 12q-20 0 -35.5 -26.5z" />
    <glyph glyph-name="uni2117" unicode="&#x2117;" horiz-adv-x="834" 
d="M558.5 702.5q67.5 -27.5 119.5 -79.5q51 -51 78.5 -118.5t27.5 -141.5q0 -76 -27 -141.5t-79 -115.5q-54 -53 -122 -81.5t-140 -28.5q-73 0 -139 28t-119 81q-52 52 -80 118.5t-28 139.5t28 140.5t81 121.5q50 51 116 78t141 27t142.5 -27.5zM687 476q-22 53 -63 94
q-42 42 -94.5 64t-112.5 22t-112.5 -21.5t-92.5 -62.5q-42 -43 -64.5 -96.5t-22.5 -111.5t22 -111t64 -95t94.5 -64t111.5 -22q58 0 111.5 22t96.5 65q41 41 62.5 92.5t21.5 112.5q0 59 -22 112zM446 559q82 0 124 -34t42 -106q0 -68 -38 -99t-112 -31h-56v-127h-125v397
h165zM435 375q26 0 40.5 13.5t14.5 33.5q0 22 -14 34.5t-41 12.5h-29v-94h29z" />
    <glyph glyph-name="trademark" unicode="&#x2122;" horiz-adv-x="833" 
d="M258 643v-199h-99v199h-79v74h257v-74h-79zM606 717h125v-273h-89v179l-67 -179h-34l-67 179v-179h-89v273h125l48 -130z" />
    <glyph glyph-name="Omega" unicode="&#x2126;" horiz-adv-x="786" 
d="M406 264q33 8 59 32t41 57t15 69q0 42 -26 66t-74 24q-41 0 -74 -20.5t-52 -56.5t-19 -81q0 -34 19 -58t52 -32l-49 -264h-333l36 194h156l2 12q-35 10 -62 37t-42 64.5t-15 80.5q0 98 53 176t147 122.5t210 44.5q103 0 176.5 -29t112.5 -84.5t39 -133.5q0 -55 -28 -115
t-75 -105t-100 -58l-2 -12h154l-36 -194h-334z" />
    <glyph glyph-name="estimated" unicode="&#x212e;" horiz-adv-x="600" 
d="M149 85q31 -31 69.5 -47t83.5 -16q66 0 114 29.5t88 95.5l38 -24q-33 -51 -67 -82t-76 -45.5t-97 -14.5q-81 0 -142.5 38.5t-95 104.5t-33.5 147t33.5 147.5t95 104.5t142.5 38q80 0 142 -37t96 -103.5t34 -150.5h-425v-185zM456 458q-69 64 -155 64t-152 -64v-147h307
v147z" />
    <glyph glyph-name="partialdiff" unicode="&#x2202;" horiz-adv-x="664" 
d="M472.5 676q75.5 -46 116 -129.5t40.5 -195.5q0 -107 -40 -190t-112.5 -128.5t-166.5 -45.5q-81 0 -146 32.5t-102 90t-37 128.5q0 68 33.5 121t93.5 82.5t137 29.5q34 0 63.5 -5.5t48.5 -15.5q-4 39 -34 61.5t-79 22.5q-37 0 -77 -13.5t-77 -39.5l-95 154q53 41 119.5 64
t135.5 23q103 0 178.5 -46zM378 224.5q19 25.5 23 80.5q-27 16 -63 16t-57 -17.5t-21 -47.5q0 -26 16.5 -41.5t45.5 -15.5q37 0 56 25.5z" />
    <glyph glyph-name="Delta" unicode="&#x2206;" horiz-adv-x="715" 
d="M679 0h-749l373 715h283zM415 194l-8 147q0 9 -1.5 37.5t-1.5 57.5q0 32 1 50q-19 -59 -36 -103l-79 -189h125z" />
    <glyph glyph-name="product" unicode="&#x220f;" horiz-adv-x="806" 
d="M738 715v-933h-257v708h-157v-708h-257v933h671z" />
    <glyph glyph-name="summation" unicode="&#x2211;" horiz-adv-x="687" 
d="M25 -35l221 290l-210 277v183h615v-213h-322l177 -246l-193 -261h349v-213h-637v183z" />
    <glyph glyph-name="minus" unicode="&#x2212;" horiz-adv-x="833" 
d="M124 231v135h585v-135h-585z" />
    <glyph glyph-name="uni2215" unicode="&#x2215;" horiz-adv-x="420" 
d="M483 722l-392 -741h-108l392 741h108z" />
    <glyph glyph-name="uni2219" unicode="&#x2219;" horiz-adv-x="590" 
d="M169.5 444q19.5 33 53 52.5t72.5 19.5t72 -19.5t52.5 -52.5t19.5 -72t-19.5 -72.5t-53 -53t-72.5 -19.5t-72 19.5t-52.5 53t-19.5 72.5t19.5 72z" />
    <glyph glyph-name="radical" unicode="&#x221a;" horiz-adv-x="709" 
d="M0 53v217h232l95 -205l148 721h224l-217 -1004h-246l-129 271h-107z" />
    <glyph glyph-name="infinity" unicode="&#x221e;" horiz-adv-x="958" 
d="M835.5 203.5q-22.5 -44.5 -65.5 -70.5t-102 -26q-56 0 -102 27t-87 72q-41 -46 -84.5 -72t-101.5 -26t-101.5 25.5t-67.5 69.5t-24 98q0 53 22.5 96.5t65.5 69t101 25.5q60 0 104 -27.5t86 -76.5q42 50 86.5 77.5t103.5 27.5q58 0 101 -25.5t65.5 -69t22.5 -96.5
q0 -54 -22.5 -98.5zM710 346q-16 17 -45 17q-26 0 -51 -18t-52 -47q26 -28 52 -44.5t54 -16.5q26 0 42 17.5t16 44.5q0 30 -16 47zM289 362q-25 0 -41 -18t-16 -45q0 -28 16 -44.5t44 -16.5q48 0 104 60q-64 64 -107 64z" />
    <glyph glyph-name="integral" unicode="&#x222b;" horiz-adv-x="435" 
d="M422 767v-190q-26 4 -35 4q-27 0 -37 -14.5t-10 -46.5v-522q0 -105 -56.5 -161t-160.5 -56q-55 0 -110 12v190q26 -4 35 -4q27 0 37 14.5t10 46.5v522q0 105 56.5 161t160.5 56q54 0 110 -12z" />
    <glyph glyph-name="approxequal" unicode="&#x2248;" horiz-adv-x="822" 
d="M573 462q11 13 17 35h108q-7 -77 -49.5 -125.5t-125.5 -48.5q-29 0 -57.5 8.5t-70.5 24.5q-39 16 -64.5 23.5t-50.5 7.5q-20 0 -31 -13t-17 -35h-108q7 77 49.5 125.5t125.5 48.5q29 0 57.5 -8.5t70.5 -24.5q39 -16 64.5 -23.5t50.5 -7.5q20 0 31 13zM573 252
q11 13 17 35h108q-7 -77 -49.5 -125.5t-125.5 -48.5q-29 0 -57.5 8.5t-70.5 24.5q-39 16 -64.5 23.5t-50.5 7.5q-20 0 -31 -13t-17 -35h-108q7 77 49.5 125.5t125.5 48.5q29 0 57.5 -8.5t70.5 -24.5q39 -16 64.5 -23.5t50.5 -7.5q20 0 31 13z" />
    <glyph glyph-name="notequal" unicode="&#x2260;" horiz-adv-x="833" 
d="M503 347l-55 -97h261v-133h-338l-63 -110h-118l63 110h-129v133h206l55 97h-261v133h338l63 110h118l-63 -110h129v-133h-206z" />
    <glyph glyph-name="lessequal" unicode="&#x2264;" horiz-adv-x="843" 
d="M139 490l575 188v-147l-391 -110l391 -110v-146l-575 188v137zM129 135h585v-135h-585v135z" />
    <glyph glyph-name="greaterequal" unicode="&#x2265;" horiz-adv-x="843" 
d="M129 165v146l391 110l-391 110v147l575 -188v-137zM129 0v135h585v-135h-585z" />
    <glyph glyph-name="lozenge" unicode="&#x25ca;" horiz-adv-x="615" 
d="M235 -35l-185 386l187 387h138l190 -387l-190 -386h-140zM305 544l-84 -193l84 -191l87 191z" />
    <glyph glyph-name="uniFEFF" unicode="&#xfeff;" horiz-adv-x="600" 
 />
    <glyph glyph-name="f_i" horiz-adv-x="763" 
d="M563 546q-29 15 -45 41t-16 58q0 34 19 63.5t52 47t72 17.5q35 0 64 -15t45.5 -41t16.5 -58q0 -34 -19.5 -63.5t-52.5 -47t-72 -17.5q-35 0 -64 15zM25 324l33 181h63q16 92 47 150t80.5 86t121.5 28q56 0 118 -21l-35 -190q-30 16 -50 16q-23 0 -34.5 -16.5t-13.5 -52.5
h88l-34 -181h-87l-60 -324h-235l60 324h-62zM732 505l-94 -505h-238l94 505h238z" />
    <glyph glyph-name="f_l" horiz-adv-x="761" 
d="M25 324l33 181h63q16 92 47 150t80.5 86t121.5 28q56 0 118 -21l-35 -190q-30 16 -50 16q-23 0 -34.5 -16.5t-13.5 -52.5h88l-34 -181h-87l-60 -324h-235l60 324h-62zM541 757h235l-140 -757h-236z" />
    <glyph glyph-name="one.numerator" 
d="M178 592l23 112h208l-83 -396h-154l59 284h-53z" />
    <glyph glyph-name="two.numerator" 
d="M234 497q60 45 60 69q0 11 -8 18t-21 7q-15 0 -26 -9.5t-12 -27.5h-140q12 79 62.5 118.5t136.5 39.5q52 0 91 -15.5t60.5 -43t21.5 -62.5q0 -99 -168 -173h143l-23 -110h-370l16 80q117 64 177 109z" />
    <glyph glyph-name="three.numerator" 
d="M243 403q18 0 29.5 9t11.5 23q0 15 -11 23t-33 8h-15l17 87q14 -2 18 -2q21 0 33 9t12 24q0 11 -8.5 18t-24.5 7t-26.5 -8.5t-13.5 -24.5h-148q15 67 69 101.5t143 34.5q45 0 80.5 -14t55.5 -39t20 -55q0 -36 -23.5 -59.5t-70.5 -35.5q38 -7 58.5 -28.5t20.5 -54.5
q0 -37 -23.5 -66t-67.5 -46t-102 -17q-57 0 -100 17t-67 48.5t-27 73.5h149q5 -33 44 -33z" />
    <glyph glyph-name="four.numerator" 
d="M37 383l17 82l210 242h205l-46 -223h42l-21 -101h-42l-15 -74h-150l15 74h-215zM295.5 587q3.5 15 6.5 25h-3q-12 -30 -27 -47l-33 -43q-18 -23 -37 -38h71l17 79q2 9 5.5 24z" />
    <glyph glyph-name="five.numerator" horiz-adv-x="453" 
d="M134.5 414.5q28.5 -11.5 61.5 -11.5q34 0 50.5 10.5t16.5 27.5q0 24 -29 38.5t-87 14.5q-36 0 -57 -5l71 215h290l-22 -109h-180l-7 -32h17q80 0 121 -31t41 -86q0 -43 -24 -76.5t-71.5 -53t-115.5 -19.5q-97 0 -174 50l41 103q29 -24 57.5 -35.5z" />
    <glyph glyph-name="seven.numerator" 
d="M86 590l26 114h377v-6l-236 -390h-170l203 282h-200z" />
    <glyph glyph-name="eight.numerator" horiz-adv-x="453" 
d="M111 549q-15 20 -15 49q1 33 22.5 59t62 40.5t95.5 14.5q56 0 96 -13.5t60.5 -38.5t20.5 -59q0 -36 -24 -61t-67 -32q34 -10 54 -33.5t20 -52.5q0 -38 -23.5 -66t-68 -43.5t-105.5 -15.5t-104.5 15t-66 42.5t-22.5 63.5q0 41 28 67t80 34q-28 10 -43 30zM247 609
q-10 -9 -11 -23q0 -13 9 -20t27 -7t28 9t11 23q0 12 -9.5 19.5t-26.5 7.5q-18 0 -28 -9zM213 458q-12 -12 -12 -29q0 -13 10.5 -21.5t28.5 -8.5q21 0 32.5 10.5t11.5 28.5q0 14 -10.5 23t-29.5 9t-31 -12z" />
    <glyph glyph-name="zero.numerator" 
d="M376 693q39 -19 59 -54t20 -82q0 -55 -17.5 -107.5t-46.5 -86.5q-29 -33 -67 -49.5t-93 -16.5q-56 0 -95.5 19.5t-59.5 55t-20 82.5q0 57 17.5 108.5t46.5 83.5q29 34 67.5 50t94.5 16q55 0 94 -19zM250 573q-11 -8 -18 -24q-11 -26 -16.5 -54t-5.5 -44q0 -13 8.5 -19.5
t20.5 -6.5q9 0 18.5 5t15.5 14q11 18 19 50t9 57q0 15 -7.5 22.5t-19.5 7.5q-13 0 -24 -8z" />
    <glyph glyph-name="six.numerator" 
d="M266 565q13 1 25 1q62 0 93 -22q23 -16 35 -39.5t12 -52.5q-1 -34 -18.5 -65.5t-48.5 -52.5q-55 -37 -143 -37q-89 0 -135.5 40t-46.5 111q0 67 42 129t145 126h215l-198 -141q10 2 23 3zM199.5 423q11.5 -9 31.5 -9q21 0 33 9t12 24t-11.5 24.5t-32.5 9.5
q-20 0 -32 -9.5t-12 -24.5t11.5 -24z" />
    <glyph glyph-name="nine.numerator" 
d="M232 444q-13 -1 -25 -1q-62 0 -93 22q-23 16 -35 39.5t-12 52.5q1 34 18.5 65.5t48.5 52.5q55 37 143 37q57 0 98 -18.5t62.5 -52.5t21.5 -80q0 -66 -41.5 -127t-145.5 -128h-215l198 141q-10 -2 -23 -3zM298.5 586q-11.5 9 -31.5 9q-21 0 -33 -9t-12 -24t11.5 -24.5
t32.5 -9.5q20 0 32 9.5t12 24.5t-11.5 24z" />
    <glyph glyph-name="zero.denominator" 
d="M319 385q39 -19 59 -54t20 -82q0 -55 -17.5 -107.5t-46.5 -86.5q-29 -33 -67 -49.5t-93 -16.5q-56 0 -95.5 19.5t-59.5 55t-20 82.5q0 57 17.5 108.5t46.5 83.5q29 34 67.5 50t94.5 16q55 0 94 -19zM193 265q-11 -8 -18 -24q-11 -26 -16.5 -54t-5.5 -44q0 -13 8.5 -19.5
t20.5 -6.5q9 0 18.5 5t15.5 14q11 18 19 50t9 57q0 15 -7.5 22.5t-19.5 7.5q-13 0 -24 -8z" />
    <glyph glyph-name="one.denominator" 
d="M121 284l23 112h208l-83 -396h-154l59 284h-53z" />
    <glyph glyph-name="two.denominator" 
d="M177 189q60 45 60 69q0 11 -8 18t-21 7q-15 0 -26 -9.5t-12 -27.5h-140q12 79 62.5 118.5t136.5 39.5q52 0 91 -15.5t60.5 -43t21.5 -62.5q0 -99 -168 -173h143l-23 -110h-370l16 80q117 64 177 109z" />
    <glyph glyph-name="three.denominator" 
d="M186 95q18 0 29.5 9t11.5 23q0 15 -11 23t-33 8h-15l17 87q14 -2 18 -2q21 0 33 9t12 24q0 11 -8.5 18t-24.5 7t-26.5 -8.5t-13.5 -24.5h-148q15 67 69 101.5t143 34.5q45 0 80.5 -14t55.5 -39t20 -55q0 -36 -23.5 -59.5t-70.5 -35.5q38 -7 58.5 -28.5t20.5 -54.5
q0 -37 -23.5 -66t-67.5 -46t-102 -17q-57 0 -100 17t-67 48.5t-27 73.5h149q5 -33 44 -33z" />
    <glyph glyph-name="four.denominator" 
d="M-20 74l17 82l210 242h205l-46 -223h42l-21 -101h-42l-15 -74h-150l15 74h-215zM238.5 278q3.5 15 6.5 25h-3q-12 -30 -27 -47l-33 -43q-18 -23 -37 -38h71l17 79q2 9 5.5 24z" />
    <glyph glyph-name="five.denominator" 
d="M76.5 106.5q28.5 -11.5 61.5 -11.5q34 0 50.5 10.5t16.5 27.5q0 24 -29 38.5t-87 14.5q-36 0 -57 -5l71 215h290l-22 -109h-180l-7 -32h17q80 0 121 -31t41 -86q0 -43 -24 -76.5t-71.5 -53t-115.5 -19.5q-97 0 -174 50l41 103q29 -24 57.5 -35.5z" />
    <glyph glyph-name="six.denominator" 
d="M209 257q13 1 25 1q62 0 93 -22q23 -16 35 -39.5t12 -52.5q-1 -34 -18.5 -65.5t-48.5 -52.5q-55 -37 -143 -37q-89 0 -135.5 40t-46.5 111q0 67 42 129t145 126h215l-198 -141q10 2 23 3zM142.5 115q11.5 -9 31.5 -9q21 0 33 9t12 24t-11.5 24.5t-32.5 9.5
q-20 0 -32 -9.5t-12 -24.5t11.5 -24z" />
    <glyph glyph-name="seven.denominator" 
d="M28 282l26 114h377v-6l-236 -390h-170l203 282h-200z" />
    <glyph glyph-name="eight.denominator" 
d="M53 241q-15 20 -15 49q1 33 22.5 59t62 40.5t95.5 14.5q56 0 96 -13.5t60.5 -38.5t20.5 -59q0 -36 -24 -61t-67 -32q34 -10 54 -33.5t20 -52.5q0 -38 -23.5 -66t-68 -43.5t-105.5 -15.5t-104.5 15t-66 42.5t-22.5 63.5q0 41 28 67t80 34q-28 10 -43 30zM189 301
q-10 -9 -11 -23q0 -13 9 -20t27 -7t28 9t11 23q0 12 -9.5 19.5t-26.5 7.5q-18 0 -28 -9zM155 150q-12 -12 -12 -29q0 -13 10.5 -21.5t28.5 -8.5q21 0 32.5 10.5t11.5 28.5q0 14 -10.5 23t-29.5 9t-31 -12z" />
    <glyph glyph-name="nine.denominator" 
d="M175 136q-13 -1 -25 -1q-62 0 -93 22q-23 16 -35 39.5t-12 52.5q1 34 18.5 65.5t48.5 52.5q55 37 143 37q57 0 98 -18.5t62.5 -52.5t21.5 -80q0 -66 -41.5 -127t-145.5 -128h-215l198 141q-10 -2 -23 -3zM241.5 278q-11.5 9 -31.5 9q-21 0 -33 -9t-12 -24t11.5 -24.5
t32.5 -9.5q20 0 32 9.5t12 24.5t-11.5 24z" />
    <glyph glyph-name="acute.cap" horiz-adv-x="297" 
d="M398 958l-181 -172h-93l108 172h166z" />
    <glyph glyph-name="breve.cap" horiz-adv-x="369" 
d="M230 956q0 -27 16.5 -41t48.5 -14q37 0 62 16.5t40 48.5h75q-19 -83 -66.5 -124.5t-120.5 -41.5q-63 0 -95 33.5t-32 101.5v31h72v-10z" />
    <glyph glyph-name="caron.cap" horiz-adv-x="383" 
d="M300 876l95 82h89l-122 -172h-143l-58 172h79z" />
    <glyph glyph-name="circumflex.cap" horiz-adv-x="383" 
d="M316 868l-95 -82h-89l122 172h143l58 -172h-79z" />
    <glyph glyph-name="dieresis.cap" horiz-adv-x="390" 
d="M157 912.5q10 16.5 26.5 26.5t36.5 10t37 -9.5t26.5 -26t9.5 -36.5q0 -32 -20.5 -52.5t-52.5 -20.5q-20 0 -37 9.5t-26.5 26t-9.5 37.5q0 19 10 35.5zM339 912.5q10 16.5 26.5 26.5t35.5 10q20 0 36.5 -9.5t26.5 -26t10 -36.5q0 -32 -20.5 -52.5t-52.5 -20.5
q-20 0 -36.5 9.5t-26 26.5t-9.5 37q0 19 10 35.5z" />
    <glyph glyph-name="dotaccent.cap" horiz-adv-x="218" 
d="M158 914q11 18 28.5 28.5t37.5 10.5q22 0 39.5 -10.5t28 -28t10.5 -38.5q0 -22 -10.5 -39.5t-28 -28t-39.5 -10.5q-20 0 -38 10.5t-28.5 28.5t-10.5 39q0 20 11 38z" />
    <glyph glyph-name="grave.cap" horiz-adv-x="307" 
d="M384 786h-91l-134 172h150z" />
    <glyph glyph-name="hungarumlaut.cap" horiz-adv-x="403" 
d="M330 958l-135 -172h-66l67 172h134zM505 958l-157 -172h-72l89 172h140z" />
    <glyph glyph-name="macron.cap" horiz-adv-x="359" 
d="M454 929l-17 -94h-299l17 94h299z" />
    <glyph glyph-name="ring.cap" horiz-adv-x="327" 
d="M162.5 927.5q17.5 30.5 47.5 48t66 17.5q35 0 65.5 -17.5t48.5 -48t18 -65.5q0 -36 -17.5 -66.5t-48 -48t-66.5 -17.5t-66 17.5t-47.5 48t-17.5 66.5q0 35 17.5 65.5zM238.5 824.5q15.5 -15.5 37.5 -15.5q23 0 38 15.5t15 37.5t-15.5 37.5t-37.5 15.5t-37.5 -15.5
t-15.5 -37.5t15.5 -37.5z" />
    <glyph glyph-name="tilde.cap" horiz-adv-x="360" 
d="M390.5 849.5q-27.5 -33.5 -70.5 -33.5q-22 0 -43 7l-31 10q-20 6 -31 6q-34 0 -44 -33h-61q29 136 113 136q19 0 45 -8l31 -10q18 -6 27 -6q19 0 29 8.5t18 30.5h62q-17 -74 -44.5 -107.5z" />
    <glyph glyph-name="caron.alt" horiz-adv-x="210" 
d="M179 559l-88 37l75 158l113 -45z" />
    <glyph glyph-name="zero.lf" horiz-adv-x="691" 
d="M59 457q30 89 79 147t112 88t134 30q82 0 144.5 -36t97.5 -101t35 -150q0 -95 -30 -184.5t-80 -149.5q-49 -58 -111 -88.5t-133 -30.5q-82 0 -145 36.5t-98 102t-35 151.5q0 96 30 185zM341.5 472.5q-14.5 -14.5 -25.5 -43.5q-18 -47 -27.5 -93.5t-9.5 -76.5
q0 -25 9 -36.5t28 -11.5q27 0 46 35q19 34 33 89.5t14 99.5q0 27 -8 39.5t-26 12.5q-19 0 -33.5 -14.5z" />
    <glyph glyph-name="one.lf" horiz-adv-x="410" 
d="M47 507l37 201h330l-131 -708h-245l94 507h-85z" />
    <glyph glyph-name="two.lf" horiz-adv-x="638" 
d="M268.5 337.5q94.5 80.5 94.5 122.5q0 21 -12 33t-34 12q-25 0 -41 -17t-19 -49h-222q20 140 99.5 211.5t216.5 71.5q82 0 144.5 -28t96.5 -77.5t34 -111.5q0 -177 -268 -308h228l-37 -197h-587l26 142q186 115 280.5 195.5z" />
    <glyph glyph-name="three.lf" horiz-adv-x="661" 
d="M302 170q29 0 47 16t18 41q0 27 -18 41.5t-52 14.5q-2 0 -7.5 -0.5t-16.5 -0.5l28 155q15 -3 29 -3q33 0 52 15.5t19 42.5q0 21 -14 33.5t-38 12.5q-26 0 -43 -15.5t-21 -43.5h-235q23 119 109 181t228 62q72 0 128 -25.5t87.5 -70t31.5 -98.5q0 -64 -37 -105.5
t-113 -63.5q61 -13 93.5 -51t32.5 -97q0 -65 -37.5 -117.5t-107 -82.5t-161.5 -30q-91 0 -159 30t-106.5 86t-42.5 132h236q8 -59 70 -59z" />
    <glyph glyph-name="four.lf" horiz-adv-x="689" 
d="M-14 132l27 146l333 433h326l-74 -398h67l-33 -181h-67l-24 -132h-238l24 132h-341zM394 489q6 28 13 52h-5q-17 -47 -43 -84l-52 -76q-27 -39 -59 -68h112l27 140q1 8 7 36z" />
    <glyph glyph-name="five.lf" horiz-adv-x="622" 
d="M138 190.5q50 -20.5 101 -20.5q41 0 64.5 18t23.5 46t-21 50.5t-61.5 35.5t-96.5 13q-47 0 -90 -10l121 385h453l-36 -195h-270l-12 -57h17q79 0 136.5 -26t88 -74t30.5 -112q0 -75 -41 -135t-115.5 -94.5t-171.5 -34.5q-150 0 -292 90l70 183q52 -42 102 -62.5z" />
    <glyph glyph-name="six.lf" horiz-adv-x="681" 
d="M432 462q68 0 124 -38q42 -28 65 -71.5t23 -93.5q0 -60 -30 -115t-85 -97q-44 -32 -98 -49t-116 -17q-90 0 -156 34t-102 97t-36 147q0 107 82 218t248 231h344l-323 -253q37 7 60 7zM285 207.5q18 -17.5 44 -17.5t44.5 17.5t18.5 42.5t-18.5 42.5t-44.5 17.5t-44 -17.5
t-18 -42.5t18 -42.5z" />
    <glyph glyph-name="seven.lf" horiz-adv-x="607" 
d="M34 504l42 204h621v-10l-410 -698h-295l355 504h-313z" />
    <glyph glyph-name="eight.lf" horiz-adv-x="662" 
d="M106.5 430.5q-25.5 35.5 -25.5 87.5q0 60 34 106.5t97.5 72.5t150.5 26q89 0 152 -25t96 -71t33 -107q0 -65 -39.5 -107t-114.5 -55q61 -17 95 -59t34 -96q0 -68 -36.5 -118t-106 -77.5t-165.5 -27.5q-98 0 -168.5 27.5t-108 77.5t-37.5 115q0 74 47 119.5t137 58.5
q-49 17 -74.5 52.5zM325 537.5q-16 -16.5 -16 -40.5q0 -21 14 -34.5t38 -13.5q23 0 38.5 16.5t15.5 40.5q0 21 -14.5 34.5t-36.5 13.5q-23 0 -39 -16.5zM282.5 280q-14.5 -10 -23.5 -26.5t-9 -34.5q0 -24 16.5 -40t41.5 -16q28 0 46 19.5t18 49.5q0 25 -16.5 41.5
t-41.5 16.5q-17 0 -31.5 -10z" />
    <glyph glyph-name="nine.lf" horiz-adv-x="685" 
d="M251 243q-63 0 -112 25.5t-75.5 71.5t-26.5 104q0 79 41.5 142t117.5 99.5t174 36.5q88 0 154.5 -34t102.5 -94.5t36 -137.5q0 -191 -176 -331l-156 -125h-344l323 248q-25 -5 -59 -5zM397 495.5q-18 17.5 -44 17.5t-44 -17.5t-18 -42.5t18 -42.5t44 -17.5t44 17.5
t18 42.5t-18 42.5z" />
    <glyph glyph-name="cent.lf" horiz-adv-x="497" 
d="M322 -3.5q-25 -4.5 -45 -4.5l-14 -83h-110l18 103q-73 27 -111.5 81.5t-38.5 131.5q0 72 28.5 133.5t81 103.5t124.5 58l13 80h112l-12 -77q64 -7 108 -27l-35 -185q-47 29 -83 29q-27 0 -48 -11.5t-32.5 -31.5t-11.5 -46q0 -34 22.5 -54.5t59.5 -20.5q28 0 69 19
l-33 -184q-37 -10 -62 -14.5z" />
    <glyph glyph-name="currency.lf" horiz-adv-x="587" 
d="M231.5 577q28.5 8 61.5 8q66 0 115 -33l97 97l65 -66l-96 -99q32 -52 32 -112t-32 -112l96 -98l-65 -67l-97 98q-50 -34 -115 -34q-33 0 -61.5 8.5t-54.5 25.5l-97 -98l-65 67l96 98q-32 49 -32 113q0 61 32 111l-96 99l65 66l97 -97q26 17 54.5 25zM395.5 430.5
q-16.5 27.5 -44 44t-58.5 16.5q-32 0 -59.5 -16.5t-44 -44t-16.5 -58.5q0 -32 16 -59t44 -43.5t60 -16.5t59.5 16.5t43.5 43.5t16 59q0 31 -16.5 58.5z" />
    <glyph glyph-name="dollar.lf" horiz-adv-x="621" 
d="M178.5 215.5q48.5 -27.5 95.5 -27.5q23 0 35.5 8t12.5 20q0 13 -11 20t-41 19l-24 10q-90 37 -132 85.5t-42 119.5q0 62 28.5 114t81.5 86t125 44l12 79h177l-15 -89q78 -21 143 -74l-99 -172q-85 73 -144 73q-19 0 -29.5 -8t-10.5 -22q0 -11 8 -19.5t25.5 -17
t38.5 -17.5l19 -8q54 -24 87 -50.5t49.5 -62.5t16.5 -85q0 -59 -28 -110t-81 -87.5t-125 -52.5l-23 -121h-176l25 128q-124 30 -218 114l128 183q43 -52 91.5 -79.5z" />
    <glyph glyph-name="dong.lf" horiz-adv-x="653" 
d="M690 534h-61l-103 -534h-220l16 58q-56 -76 -139 -76q-49 0 -88.5 26.5t-62 73.5t-22.5 107q0 83 31.5 152t86 109t119.5 40q46 0 81 -22t53 -62q0 21 1 40t5 38l9 50h-75l20 108h74l11 66h236l-13 -66h61zM323.5 192.5q18.5 19.5 18.5 49.5q0 25 -14 40t-35 15
q-17 0 -31 -9.5t-22 -26t-8 -36.5q0 -25 12.5 -38.5t33.5 -13.5q27 0 45.5 19.5zM5 -76h571l-21 -108h-571z" />
    <glyph glyph-name="Euro.lf" horiz-adv-x="679" 
d="M573 497q-31 10 -71 10q-51 0 -81.5 -13t-52.5 -44h210l-37 -68h-194q-4 -30 -4 -46v-10h170l-37 -67h-122q13 -34 44 -51t77 -17q31 0 66.5 11.5t69.5 32.5l-45 -229q-66 -24 -131 -24q-145 0 -229.5 68t-106.5 209h-100l27 67h69q0 32 4 56h-80l26 68h70q28 88 84 149
t134.5 92t172.5 31q100 0 182 -41l-44 -217q-40 23 -71 33z" />
    <glyph glyph-name="florin.lf" horiz-adv-x="494" 
d="M44 437h95l18 98q9 48 21 79t37 56q28 28 72 44.5t94 16.5q76 0 132 -14l-30 -182q-25 7 -40 7q-23 0 -35 -15t-18 -49l-7 -41h89l-25 -139h-89l-42 -225q-14 -78 -30 -126.5t-43 -81.5q-29 -37 -81 -56.5t-121 -19.5q-44 0 -107 11l32 181q19 -4 35 -4q28 0 43.5 18
t24 53t21.5 113q2 18 4 27l18 110h-93z" />
    <glyph glyph-name="uni20BA.lf" horiz-adv-x="742" 
d="M737 345q-53 -126 -121.5 -200.5t-169 -109.5t-248.5 -35h-173l51 274l-84 -26l25 70l71 22l11 61l-83 -26l25 71l71 22l44 240h258l-29 -156l110 34l-31 -71l-91 -28l-11 -63l109 34l-30 -70l-91 -28l-23 -123q38 0 64 9t47.5 32t40.5 66z" />
    <glyph glyph-name="uni20BD.lf" horiz-adv-x="710" 
d="M312 219l-10 -53h107l-20 -107h-107l-11 -59h-260l11 59h-58l20 107h58l10 53h-57l34 178h56l58 311h245q160 0 238 -55t78 -170q0 -82 -37 -141t-109 -91t-175 -32h-71zM345 397h19q36 0 58.5 18t22.5 52q0 26 -18.5 39t-46.5 13h-12z" />
    <glyph glyph-name="uni20B9.lf" horiz-adv-x="558" 
d="M501 549h82l-48 -84h-35q-9 -41 -33.5 -77.5t-61 -62.5t-81.5 -34l141 -291h-268l-111 240l74 146q44 2 69.5 21.5t35.5 57.5h-256l38 84h224q-7 38 -40 56.5t-90 18.5h-122l38 84h570l-48 -84h-115q26 -32 37 -75z" />
    <glyph glyph-name="sterling.lf" horiz-adv-x="632" 
d="M31.5 153q32.5 17 68.5 24q44 42 45 91h-128l27 139h79q-17 49 -17 90q0 65 33 116.5t94.5 80t142.5 28.5q78 0 135 -29t87 -83t30 -129h-185q-8 76 -69 76q-39 0 -62.5 -24.5t-23.5 -65.5q0 -27 8 -60h212l-26 -139h-172v-9q0 -30 -10.5 -51t-34.5 -38q21 0 54 -12
l21 -8q17 -7 35 -7q23 0 47.5 14t53.5 43l114 -121q-53 -51 -108 -74.5t-122 -23.5q-54 0 -94 11l-43 11q-32 9 -54 9q-45 0 -84 -29l-112 126q26 27 58.5 44z" />
    <glyph glyph-name="yen.lf" horiz-adv-x="759" 
d="M8 248l17 89h204l-34 80h-156l17 89h100l-87 202h249l35 -98q20 -55 34 -126q50 91 70 120l69 104h277l-154 -202h103l-16 -89h-156l-61 -80h202l-16 -89h-231l-48 -248h-236l48 248h-230z" />
    <glyph glyph-name="gravecomb.cap" horiz-adv-x="0" 
d="M204 785h-91l-134 172h150z" />
    <glyph glyph-name="acutecomb.cap" horiz-adv-x="0" 
d="M342 956l-181 -172h-93l108 172h166z" />
    <glyph glyph-name="uni0302.cap" horiz-adv-x="0" 
d="M179 867l-93 -82h-87l122 172h143l58 -172h-81z" />
    <glyph glyph-name="uni0306.cap" horiz-adv-x="0" 
d="M129 942q0 -27 16.5 -41t48.5 -14q37 0 62 16.5t40 48.5h75q-19 -83 -66.5 -124.5t-120.5 -41.5q-63 0 -95 33.5t-32 101.5v31h72v-10z" />
    <glyph glyph-name="tildecomb.cap" horiz-adv-x="0" 
d="M290.5 838.5q-27.5 -33.5 -70.5 -33.5q-22 0 -43 7l-31 10q-20 6 -31 6q-34 0 -44 -33h-61q29 136 113 136q19 0 45 -8l31 -10q18 -6 27 -6q19 0 29 8.5t18 30.5h62q-17 -74 -44.5 -107.5z" />
    <glyph glyph-name="uni031B.cap" horiz-adv-x="0" 
d="M150 715q32 0 57 12.5t39.5 35.5t14.5 52q0 21 -4 44h121q6 -16 6 -44q0 -57 -33 -95.5t-89 -57t-125 -18.5z" />
    <glyph glyph-name="cedilla.cap" horiz-adv-x="597" 
d="M79 -173q22 0 34 9.5t12 25.5q0 18 -19.5 25t-62.5 7h-11l36 106h58l-16 -45q114 -2 114 -85q0 -53 -35 -83t-101 -30q-51 0 -144 29l26 66q63 -25 109 -25z" />
    <glyph glyph-name="ogonek.cap" horiz-adv-x="519" 
d="M68 -48q-14 -22 -14 -47q0 -18 12.5 -26.5t43.5 -8.5h37l-18 -101h-28q-56 0 -87 9t-44.5 30.5t-13.5 59.5q0 33 27 69t73 63h56q-30 -26 -44 -48z" />
    <glyph glyph-name="hookcomb" horiz-adv-x="0" 
d="M224 747q35 -23 35 -68q0 -33 -20 -60t-56.5 -43t-84.5 -16q-19 0 -32.5 2t-16.5 3l11 65q16 -3 31 -3q23 0 37.5 8.5t14.5 27.5q0 27 -40 27q-21 0 -44.5 -5t-44.5 -14l12 72q24 13 50 20t57 7q56 0 91 -23z" />
    <glyph glyph-name="hookcomb.cap" horiz-adv-x="0" 
d="M424 957q35 -23 35 -68q0 -33 -20 -60t-56.5 -43t-84.5 -16q-19 0 -32.5 2t-16.5 3l11 65q16 -3 31 -3q23 0 37.5 8.5t14.5 27.5q0 27 -40 27q-21 0 -44.5 -5t-44.5 -14l12 72q24 13 50 20t57 7q56 0 91 -23z" />
    <glyph glyph-name="acubreveviet" horiz-adv-x="0" 
d="M-213 829l-140 -113h-70l83 113h127zM-456 725q0 -21 20.5 -34t55.5 -13q72 0 99 55h72q-15 -67 -61.5 -104.5t-118.5 -37.5q-66 0 -101 32t-35 95q0 12 1 15h68v-8z" />
    <glyph glyph-name="acutcircviet" horiz-adv-x="0" 
d="M6 805l-138 -111h-70l82 111h126zM-323 654l-103 -83h-84l123 173h143l60 -173h-80z" />
    <glyph glyph-name="gravbreveviet" horiz-adv-x="0" 
d="M-130 717h-61l-104 113h115zM-325 723q0 7 1 10h68v-4q0 -25 20 -38t57 -13t60.5 13.5t37.5 41.5h73q-37 -143 -181 -143q-136 0 -136 133z" />
    <glyph glyph-name="gravcircviet" horiz-adv-x="0" 
d="M-304 694h-61l-102 111h114zM-177 654l-101 -83h-85l122 173h143l60 -173h-78z" />
    <glyph glyph-name="hoibreveviet" horiz-adv-x="0" 
d="M-132.5 838q21.5 -14 21.5 -42q0 -37 -30 -59.5t-85 -22.5q-20 0 -38 4l7 40l22 -1q24 0 33.5 7t9.5 20q0 10 -7 14t-23 4q-13 0 -32.5 -4.5t-35.5 -10.5l10 49q21 9 40 12.5t44 3.5q42 0 63.5 -14zM-323.5 622.5q-34.5 32.5 -34.5 95.5q0 8 1 15h68v-4q0 -25 20 -38
t57 -13t60.5 13.5t37.5 41.5h73q-37 -143 -181 -143q-67 0 -101.5 32.5z" />
    <glyph glyph-name="hoicircviet" horiz-adv-x="0" 
d="M35 814.5q23 -15.5 23 -43.5q0 -38 -30.5 -59t-86.5 -21q-20 0 -38 4l7 40l22 -1q24 0 33.5 7t9.5 20q0 10 -7 14t-23 4q-13 0 -32.5 -4.5t-35.5 -10.5l10 50q21 9 40 12.5t44 3.5q41 0 64 -15.5zM-218 654l-101 -83h-85l122 173h143l60 -173h-78z" />
    <glyph glyph-name="tildebreveviet" horiz-adv-x="0" 
d="M-28 805.5q-15 -28.5 -32 -39t-38 -10.5q-25 0 -61 11l-22 7q-18 6 -31 9.5t-21 3.5q-16 0 -26.5 -8.5t-18.5 -28.5h-57q17 64 40 93t65 29q26 0 59 -11l23 -8q11 -4 21.5 -6t23.5 -2q14 0 25.5 10t21.5 32h57q-14 -53 -29 -81.5zM-269 724q0 -23 20 -34.5t58 -11.5
q42 0 67 12t40 37h72q-17 -69 -63.5 -102.5t-122.5 -33.5q-69 0 -104 32t-35 94q0 7 1 10h67v-3z" />
    <glyph glyph-name="tildecircviet" horiz-adv-x="0" 
d="M-225.5 778.5q-10.5 -8.5 -18.5 -28.5h-57q17 64 40 93t65 29q26 0 59 -11l23 -8q11 -4 21.5 -6t23.5 -2q14 0 25.5 10t21.5 32h57q-14 -53 -29 -81.5t-32 -39t-38 -10.5q-25 0 -61 11l-22 7q-18 6 -31 9.5t-21 3.5q-16 0 -26.5 -8.5zM-76 717l69 -142h-82l-64 61
l-98 -61h-87l119 142h143z" />
    <glyph glyph-name="acubreveviet.cap" horiz-adv-x="0" 
d="M-12 1039l-140 -113h-70l83 113h127zM-255 935q0 -21 20.5 -34t55.5 -13q72 0 99 55h72q-15 -67 -61.5 -104.5t-118.5 -37.5q-66 0 -101 32t-35 95q0 12 1 15h68v-8z" />
    <glyph glyph-name="acutcircviet.cap" horiz-adv-x="0" 
d="M6 1015l-138 -111h-70l82 111h126zM-323 864l-103 -83h-84l123 173h143l60 -173h-80z" />
    <glyph glyph-name="gravbreveviet.cap" horiz-adv-x="0" 
d="M-130 927h-61l-104 113h115zM-325 933q0 7 1 10h68v-4q0 -25 20 -38t57 -13t60.5 13.5t37.5 41.5h73q-37 -143 -181 -143q-136 0 -136 133z" />
    <glyph glyph-name="gravcircviet.cap" horiz-adv-x="0" 
d="M-304 904h-61l-102 111h114zM-177 864l-101 -83h-85l122 173h143l60 -173h-78z" />
    <glyph glyph-name="hoibreveviet.cap" horiz-adv-x="0" 
d="M-132.5 1048q21.5 -14 21.5 -42q0 -37 -30 -59.5t-85 -22.5q-20 0 -38 4l7 40l22 -1q24 0 33.5 7t9.5 20q0 10 -7 14t-23 4q-13 0 -32.5 -4.5t-35.5 -10.5l10 49q21 9 40 12.5t44 3.5q42 0 63.5 -14zM-323.5 832.5q-34.5 32.5 -34.5 95.5q0 8 1 15h68v-4q0 -25 20 -38
t57 -13t60.5 13.5t37.5 41.5h73q-37 -143 -181 -143q-67 0 -101.5 32.5z" />
    <glyph glyph-name="hoicircviet.cap" horiz-adv-x="0" 
d="M75 1024.5q23 -15.5 23 -43.5q0 -38 -30.5 -59t-86.5 -21q-20 0 -38 4l7 40l22 -1q24 0 33.5 7t9.5 20q0 10 -7 14t-23 4q-13 0 -32.5 -4.5t-35.5 -10.5l10 50q21 9 40 12.5t44 3.5q41 0 64 -15.5zM-178 864l-101 -83h-85l122 173h143l60 -173h-78z" />
    <glyph glyph-name="tildebreveviet.cap" horiz-adv-x="0" 
d="M-28 1015.5q-15 -28.5 -32 -39t-38 -10.5q-25 0 -61 11l-22 7q-18 6 -31 9.5t-21 3.5q-16 0 -26.5 -8.5t-18.5 -28.5h-57q17 64 40 93t65 29q26 0 59 -11l23 -8q11 -4 21.5 -6t23.5 -2q14 0 25.5 10t21.5 32h57q-14 -53 -29 -81.5zM-269 934q0 -23 20 -34.5t58 -11.5
q42 0 67 12t40 37h72q-17 -69 -63.5 -102.5t-122.5 -33.5q-69 0 -104 32t-35 94q0 7 1 10h67v-3z" />
    <glyph glyph-name="tildecircviet.cap" horiz-adv-x="0" 
d="M-225.5 988.5q-10.5 -8.5 -18.5 -28.5h-57q17 64 40 93t65 29q26 0 59 -11l23 -8q11 -4 21.5 -6t23.5 -2q14 0 25.5 10t21.5 32h57q-14 -53 -29 -81.5t-32 -39t-38 -10.5q-25 0 -61 11l-22 7q-18 6 -31 9.5t-21 3.5q-16 0 -26.5 -8.5zM-76 927l69 -142h-82l-64 61
l-98 -61h-87l119 142h143z" />
    </font>
</defs>
</svg>
