<svg xmlns="http://www.w3.org/2000/svg" width="274.006" height="176.757" viewBox="0 0 274.006 176.757">
  <g id="Group_3856" data-name="Group 3856" transform="translate(-24.832 -123)">
    <g id="Group_3847" data-name="Group 3847" transform="translate(0 -2)">
      <path id="Path_2225" data-name="Path 2225" d="M6.864,5.12c-3.536,0-6.032,2.352-6.032,5.7,0,3.216,2.352,5.392,5.824,5.392a5.53,5.53,0,0,0,5.792-5.872v-.208C12.32,7.1,10.1,5.12,6.864,5.12Zm2.816,5.5a2.915,2.915,0,0,1-3.088,3.024A2.8,2.8,0,0,1,3.6,10.72,3,3,0,0,1,6.752,7.68a2.75,2.75,0,0,1,2.912,2.752A.779.779,0,0,1,9.68,10.624Zm11.84-5.5c-2.256,0-3.92,1.424-3.92,3.36,0,1.44.56,2.128,2.464,3.088,1.008.5,1.248.752,1.248,1.216,0,.656-.576,1.088-1.424,1.088a3.722,3.722,0,0,1-2.256-.88L16.416,15.04a6.135,6.135,0,0,0,3.6,1.168c2.384,0,4.08-1.5,4.08-3.648,0-1.408-.608-2.16-2.368-2.992-1.088-.512-1.36-.768-1.36-1.28,0-.576.464-.928,1.2-.928a3.114,3.114,0,0,1,1.872.784L24.624,6.1A5.5,5.5,0,0,0,21.52,5.12Zm11.392.208-.736,6.08A2.82,2.82,0,0,1,31.6,13.12a1.992,1.992,0,0,1-1.52.528c-1.184,0-1.76-.544-1.76-1.664,0-.272.016-.576.048-.9l.7-5.76H26.384l-.7,5.76a13.962,13.962,0,0,0-.128,1.472c0,2.288,1.68,3.648,4.448,3.648a5.205,5.205,0,0,0,3.648-1.184c.688-.656.96-1.472,1.216-3.52l.752-6.176Zm11.36,0-2.72,5.36a7.946,7.946,0,0,0-.608,1.456,9.763,9.763,0,0,0-.336-1.952L39.392,5.328h-2.88L39.3,16h2.288L47.312,5.328ZM61.36,13.552a6.583,6.583,0,0,0,.816-3.184c0-3.136-2.256-5.248-5.584-5.248-3.536,0-6.032,2.352-6.032,5.7,0,3.2,2.352,5.392,5.792,5.392a6.65,6.65,0,0,0,2.208-.336l.72.992,2.384-.48-1.248-1.648A4.791,4.791,0,0,0,61.36,13.552Zm-3.632-2.384-2.352.4L56.944,13.6a3.106,3.106,0,0,1-.624.048,2.8,2.8,0,0,1-2.992-2.928A3,3,0,0,1,56.48,7.68a2.788,2.788,0,0,1,2.928,2.96,2.97,2.97,0,0,1-.672,1.968ZM70.9,5.328l-.736,6.08a2.82,2.82,0,0,1-.576,1.712,1.992,1.992,0,0,1-1.52.528c-1.184,0-1.76-.544-1.76-1.664,0-.272.016-.576.048-.9l.7-5.76H64.368l-.7,5.76a13.962,13.962,0,0,0-.128,1.472c0,2.288,1.68,3.648,4.448,3.648a5.205,5.205,0,0,0,3.648-1.184c.688-.656.96-1.472,1.216-3.52L73.6,5.328Zm4.72,0L74.3,16h5.968l.288-2.352H77.3l.224-1.856h3.04l.288-2.336h-3.04l.224-1.776h3.136l.288-2.352ZM85.312,16h2.7l.432-3.536h1.2a4.931,4.931,0,0,0,3.712-1.232,3.553,3.553,0,0,0,.832-2.512,3.236,3.236,0,0,0-.9-2.448,4.185,4.185,0,0,0-3.1-.944H86.624Zm4.5-8.432a1.757,1.757,0,0,1,1.312.352,1.249,1.249,0,0,1,.3.912,1.3,1.3,0,0,1-.336.944,2.17,2.17,0,0,1-1.5.448h-.848l.32-2.656Zm12.352-2.24-.736,6.08a2.82,2.82,0,0,1-.576,1.712,1.992,1.992,0,0,1-1.52.528c-1.184,0-1.76-.544-1.76-1.664,0-.272.016-.576.048-.9l.7-5.76H95.632l-.7,5.76A13.961,13.961,0,0,0,94.8,12.56c0,2.288,1.68,3.648,4.448,3.648a5.205,5.205,0,0,0,3.648-1.184c.688-.656.96-1.472,1.216-3.52l.752-6.176Zm4.72,0L105.568,16h6.1l.3-2.352H108.56l1.024-8.32Zm10.7-.208c-2.256,0-3.92,1.424-3.92,3.36,0,1.44.56,2.128,2.464,3.088,1.008.5,1.248.752,1.248,1.216,0,.656-.576,1.088-1.424,1.088a3.722,3.722,0,0,1-2.256-.88L112.48,15.04a6.135,6.135,0,0,0,3.6,1.168c2.384,0,4.08-1.5,4.08-3.648,0-1.408-.608-2.16-2.368-2.992-1.088-.512-1.36-.768-1.36-1.28,0-.576.464-.928,1.2-.928a3.114,3.114,0,0,1,1.872.784L120.688,6.1A5.5,5.5,0,0,0,117.584,5.12Zm10.272,9.088L128.3,16h2.832L128.56,5.328h-3.04L120.224,16h3.008l.816-1.792Zm-1.744-4.5a11.343,11.343,0,0,0,.48-1.264,3.1,3.1,0,0,0,.064.384c.048.32.064.416.24,1.232l.448,2.032h-2.3Z" transform="translate(24 245.757)" fill="#fff"/>
      <path id="Path_2224" data-name="Path 2224" d="M6.624,5.12A5.747,5.747,0,0,0,.8,10.912a5.108,5.108,0,0,0,5.36,5.3A6.458,6.458,0,0,0,8.672,15.7l.336-2.72a4.879,4.879,0,0,1-2.448.672,2.782,2.782,0,0,1-2.992-2.864,3.116,3.116,0,0,1,3.36-3.1,3.919,3.919,0,0,1,2.608.976l.32-2.64A6.147,6.147,0,0,0,6.624,5.12Zm9.728,0c-3.536,0-6.032,2.352-6.032,5.7,0,3.216,2.352,5.392,5.824,5.392a5.53,5.53,0,0,0,5.792-5.872v-.208C21.808,7.1,19.584,5.12,16.352,5.12Zm2.816,5.5a2.915,2.915,0,0,1-3.088,3.024,2.8,2.8,0,0,1-2.992-2.928A3,3,0,0,1,16.24,7.68a2.75,2.75,0,0,1,2.912,2.752A.779.779,0,0,1,19.168,10.624Zm13.376-5.3-2.512,4.944a12.925,12.925,0,0,0-.608,1.456,26.769,26.769,0,0,0-.48-2.8l-.8-3.6H25.472L22.1,16H24.88l1.376-4.624c.176-.624.3-1.136.56-2.448a21.439,21.439,0,0,0,.448,2.944L28.176,16H29.6l2.624-5.136a18.182,18.182,0,0,0,.752-1.76,12.822,12.822,0,0,0-.128,1.776v.336L32.976,16h2.7L35.344,5.328Zm16.128,0-2.72,5.36a7.946,7.946,0,0,0-.608,1.456,9.763,9.763,0,0,0-.336-1.952L43.792,5.328h-2.88L43.7,16h2.288L51.712,5.328Zm8.416-.208c-3.536,0-6.032,2.352-6.032,5.7,0,3.216,2.352,5.392,5.824,5.392a5.53,5.53,0,0,0,5.792-5.872v-.208C62.544,7.1,60.32,5.12,57.088,5.12Zm2.816,5.5a2.915,2.915,0,0,1-3.088,3.024,2.8,2.8,0,0,1-2.992-2.928,3,3,0,0,1,3.152-3.04,2.75,2.75,0,0,1,2.912,2.752A.779.779,0,0,1,59.9,10.624Zm9.6-5.5a5.747,5.747,0,0,0-5.824,5.792,5.108,5.108,0,0,0,5.36,5.3,6.458,6.458,0,0,0,2.512-.512l.336-2.72a4.879,4.879,0,0,1-2.448.672,2.782,2.782,0,0,1-2.992-2.864,3.116,3.116,0,0,1,3.36-3.1,3.919,3.919,0,0,1,2.608.976l.32-2.64A6.147,6.147,0,0,0,69.5,5.12Zm4.848.208L73.04,16h5.968l.288-2.352H76.032l.224-1.856H79.3l.288-2.336h-3.04l.224-1.776H79.9l.288-2.352Zm3.456-1.76,1.328,1.056,1.312-1.152-2.4-1.9L74.976,3.52l1.12,1.1Zm4.208,9.392a1.6,1.6,0,0,0-1.584,1.616,1.663,1.663,0,0,0,1.648,1.632,1.624,1.624,0,1,0-.064-3.248Z" transform="translate(92.238 261.757)" fill="#fff"/>
    </g>
    <g id="Group_3846" data-name="Group 3846">
      <g id="Group_3853" data-name="Group 3853" transform="translate(-617.546 -261)">
        <g id="Group_3620" data-name="Group 3620" transform="translate(680.233 393.303)" style="isolation: isolate">
          <path id="Path_2160" data-name="Path 2160" d="M702.065,485.2H680.233V401.21h34.753q14.145,0,21.665,7.351t7.519,20.718q0,13.367-7.519,20.719t-21.665,7.351H702.065Zm0-45.446h7.24q12.029,0,12.03-10.471t-12.03-10.47h-7.24Z" transform="translate(-680.233 -401.21)" fill="#ff1431"/>
        </g>
        <g id="Group_3621" data-name="Group 3621" transform="translate(796.274 384)" style="isolation: isolate">
          <path id="Path_2161" data-name="Path 2161" d="M916.728,384v65.5H942.9v18.49H894.9V384Z" transform="translate(-894.896 -384)" fill="#ff1431"/>
        </g>
        <g id="Group_3622" data-name="Group 3622" transform="translate(793.695 464.727)" style="isolation: isolate">
          <path id="Path_2162" data-name="Path 2162" d="M944.173,559.154a29.259,29.259,0,0,0-7.721-4.645,20.517,20.517,0,0,0-7.48-1.509,12.133,12.133,0,0,0-7.48,2.172,6.767,6.767,0,0,0-2.895,5.67,5.636,5.636,0,0,0,1.447,3.981,12.6,12.6,0,0,0,3.8,2.715,32.25,32.25,0,0,0,5.308,1.99q2.955.846,5.851,1.809,11.582,3.863,16.95,10.315t5.368,16.829a32.764,32.764,0,0,1-2.353,12.668,26.421,26.421,0,0,1-6.876,9.711,31.7,31.7,0,0,1-11.1,6.273,46.251,46.251,0,0,1-14.9,2.232,54.785,54.785,0,0,1-31.97-10.255l10.134-19.061a41.065,41.065,0,0,0,10.5,7,25.215,25.215,0,0,0,10.255,2.292q5.791,0,8.627-2.654a8.22,8.22,0,0,0,2.11-9.591,7.711,7.711,0,0,0-2.413-2.775,19.357,19.357,0,0,0-4.4-2.353q-2.714-1.086-6.575-2.413-4.586-1.448-8.988-3.2a28.227,28.227,0,0,1-7.841-4.645,21.54,21.54,0,0,1-5.55-7.3,25.8,25.8,0,0,1-2.111-11.16A32.221,32.221,0,0,1,896.1,551.01a27.2,27.2,0,0,1,6.273-9.41,27.973,27.973,0,0,1,9.893-6.093,37.4,37.4,0,0,1,13.089-2.172,57.326,57.326,0,0,1,14.115,1.87,62.363,62.363,0,0,1,14.115,5.489Z" transform="translate(-890.126 -533.336)" fill="#ff1431"/>
        </g>
        <g id="Group_3623" data-name="Group 3623" transform="translate(856.569 469.323)" style="isolation: isolate">
          <path id="Path_2163" data-name="Path 2163" d="M1065.75,561.554h-36.038v14.964h36.038v19.715h-36.038v15.439h36.038v19.714h-59.315V541.839h59.315Z" transform="translate(-1006.435 -541.839)" fill="#ff1431" stroke="rgba(0,0,0,0)" stroke-width="1"/>
        </g>
        <g id="Group_3624" data-name="Group 3624" transform="translate(741.201 403.806)" style="isolation: isolate">
          <path id="Path_2164" data-name="Path 2164" d="M810.158,420.639V456.5q0,2.887.219,5.9a16.133,16.133,0,0,0,1.312,5.466,9.094,9.094,0,0,0,3.454,3.979,12.187,12.187,0,0,0,6.647,1.53,11.959,11.959,0,0,0,6.6-1.53,9.481,9.481,0,0,0,3.454-3.979A15.555,15.555,0,0,0,833.2,462.4q.217-3.017.219-5.9V420.639h17.054v38.219q0,15.394-7.039,22.476t-21.647,7.084q-14.606,0-21.689-7.084t-7.084-22.476V420.639Z" transform="translate(-793.017 -420.639)" fill="#ff1431"/>
        </g>
      </g>
      <path id="Path_2223" data-name="Path 2223" d="M2.852,7.659.966,23H4.853l.736-6h4.416l.414-3.358H6l.322-2.6h4.853l.414-3.381Zm10.9,0L11.868,23h3.887L17.641,7.659ZM28.635,20.424,29.279,23H33.35l-3.7-15.341h-4.37L17.664,23h4.324l1.173-2.576Zm-2.507-6.463a16.305,16.305,0,0,0,.69-1.817,4.452,4.452,0,0,0,.092.552c.069.46.092.6.345,1.771l.644,2.921H24.587ZM44.459,11.04l.414-3.381H34.454L34.04,11.04h3.266L35.834,23H39.7l1.495-11.96Z" transform="translate(35 133.478)" fill="#fff"/>
      <g id="flag-color" transform="translate(244.05 158.708)">
        <g id="Group_462" data-name="Group 462" transform="translate(0 0)">
          <path id="Path_134" data-name="Path 134" d="M10.275,0,3.25,23.541H0L7.023,0Z" fill="#209051"/>
        </g>
        <g id="Group_463" data-name="Group 463" transform="translate(7.379 0)">
          <path id="Path_135" data-name="Path 135" d="M406.973,0,399.95,23.541H396.7L403.723,0Z" transform="translate(-396.7)" fill="#edede3"/>
        </g>
        <g id="Group_464" data-name="Group 464" transform="translate(14.705 0)">
          <path id="Path_136" data-name="Path 136" d="M800.873,0,793.85,23.541H790.6L797.623,0Z" transform="translate(-790.6)" fill="#edede3"/>
        </g>
        <g id="Group_465" data-name="Group 465" transform="translate(22.082 0)">
          <path id="Path_137" data-name="Path 137" d="M1197.475,0l-7.025,23.541h-3.25L1194.223,0Z" transform="translate(-1187.2)" fill="#ff1430"/>
        </g>
      </g>
    </g>
  </g>
</svg>
