<svg xmlns="http://www.w3.org/2000/svg" width="370.685" height="279.925" viewBox="0 0 370.685 279.925">
  <g id="Group_3847" data-name="Group 3847" transform="translate(48.63 228.477)">
    <text id="O_SUV_QUE_PULSA" data-name="O SUV QUE PULSA" transform="translate(-1 -6)" fill="#fff" font-size="25" font-family="FuturaPT-BoldObl, Futura PT" font-weight="700" font-style="oblique" letter-spacing="-0.01em"><tspan x="0" y="25">O SUV QUE PULSA</tspan></text>
    <text id="COM_VOCÊ." data-name="COM VOCÊ." transform="translate(104.62 17.448)" fill="#fff" font-size="25" font-family="FuturaPT-BoldObl, Futura PT" font-weight="700" font-style="oblique" letter-spacing="-0.01em"><tspan x="0" y="25">COM VOCÊ.</tspan></text>
  </g>
  <g id="Group_3846" data-name="Group 3846" transform="translate(0 0)">
    <g id="PULSE" transform="translate(35.11 0)">
      <g id="Group_3625" data-name="Group 3625">
        <g id="Group_3620" data-name="Group 3620" transform="translate(0 11.894)" style="isolation: isolate">
          <path id="Path_2160" data-name="Path 2160" d="M706.693,503h-26.46V401.21h42.12q17.143,0,26.258,8.91t9.113,25.11q0,16.2-9.113,25.111t-26.258,8.91h-15.66Zm0-55.08h8.775q14.579,0,14.58-12.691t-14.58-12.69h-8.775Z" transform="translate(-680.233 -401.21)" fill="#f00d38"/>
        </g>
        <g id="Group_3621" data-name="Group 3621" transform="translate(141.178)" style="isolation: isolate">
          <path id="Path_2161" data-name="Path 2161" d="M921.05,383.491v80h31.934V485.9H894.559V383.491Z" transform="translate(-894.559 -383.491)" fill="#f00d38"/>
        </g>
        <g id="Group_3622" data-name="Group 3622" transform="translate(138.721 99.788)" style="isolation: isolate">
          <path id="Path_2162" data-name="Path 2162" d="M956.156,564.27a35.9,35.9,0,0,0-9.433-5.565,25.5,25.5,0,0,0-9.138-1.808,15.03,15.03,0,0,0-9.138,2.6,8.059,8.059,0,0,0-3.537,6.794,6.677,6.677,0,0,0,1.768,4.77,15.391,15.391,0,0,0,4.643,3.253,39.886,39.886,0,0,0,6.485,2.385q3.61,1.013,7.148,2.168,14.15,4.628,20.708,12.359t6.559,20.164a38.589,38.589,0,0,1-2.874,15.178,31.669,31.669,0,0,1-8.4,11.636,38.927,38.927,0,0,1-13.56,7.516,57.526,57.526,0,0,1-18.2,2.674,67.834,67.834,0,0,1-39.058-12.287l12.38-22.838a50.259,50.259,0,0,0,12.823,8.384,31.314,31.314,0,0,0,12.528,2.746q7.075,0,10.539-3.18a9.71,9.71,0,0,0,2.578-11.491,9.29,9.29,0,0,0-2.948-3.325,23.8,23.8,0,0,0-5.379-2.819q-3.315-1.3-8.032-2.891-5.6-1.735-10.98-3.83a34.628,34.628,0,0,1-9.58-5.566,25.871,25.871,0,0,1-6.78-8.744q-2.581-5.276-2.579-13.371a37.948,37.948,0,0,1,2.727-14.671,32.557,32.557,0,0,1,7.664-11.274,34.288,34.288,0,0,1,12.086-7.3,46.5,46.5,0,0,1,15.991-2.6,71.333,71.333,0,0,1,17.244,2.241,77.091,77.091,0,0,1,17.245,6.577Z" transform="translate(-890.126 -533.336)" fill="#f00d38"/>
        </g>
        <g id="Group_3623" data-name="Group 3623" transform="translate(215.408 106.771)" style="isolation: isolate">
          <path id="Path_2163" data-name="Path 2163" d="M1126.555,564.594H1033.3v17.271h93.3v22.755h-93.3v17.82h93.253V645.2h-120.12V541.839h120.12Z" transform="translate(-1006.435 -541.839)" fill="#f00d38"/>
        </g>
        <g id="Group_3624" data-name="Group 3624" transform="translate(74.415 24.624)" style="isolation: isolate">
          <path id="Path_2164" data-name="Path 2164" d="M813.792,420.639V464.1q0,3.5.265,7.155a19.554,19.554,0,0,0,1.59,6.625,11.022,11.022,0,0,0,4.187,4.823q2.863,1.855,8.056,1.855t8-1.855a11.49,11.49,0,0,0,4.187-4.823,18.85,18.85,0,0,0,1.643-6.625q.263-3.657.266-7.155V420.639h20.669V466.96q0,18.658-8.532,27.241t-26.236,8.586q-17.7,0-26.287-8.586t-8.585-27.241V420.639Z" transform="translate(-793.017 -420.639)" fill="#f00d38"/>
        </g>
      </g>
    </g>
    <text id="FIAT" transform="translate(0 12.736)" fill="#fff" font-size="27" font-family="FuturaPT-BoldObl, Futura PT" font-weight="700" font-style="oblique"><tspan x="0" y="27">FIAT</tspan></text>
    <g id="flag-color" transform="translate(254.098 43.402)">
      <g id="Group_462" data-name="Group 462" transform="translate(0 0)">
        <path id="Path_134" data-name="Path 134" d="M12.489,0,3.95,28.614H0L8.536,0Z" fill="#209051"/>
      </g>
      <g id="Group_463" data-name="Group 463" transform="translate(8.969 0)">
        <path id="Path_135" data-name="Path 135" d="M409.186,0,400.65,28.614H396.7L405.236,0Z" transform="translate(-396.7)" fill="#edede3"/>
      </g>
      <g id="Group_464" data-name="Group 464" transform="translate(17.874 0)">
        <path id="Path_136" data-name="Path 136" d="M803.086,0,794.55,28.614H790.6L799.136,0Z" transform="translate(-790.6)" fill="#edede3"/>
      </g>
      <g id="Group_465" data-name="Group 465" transform="translate(26.84 0)">
        <path id="Path_137" data-name="Path 137" d="M1199.689,0l-8.539,28.614h-3.95L1195.737,0Z" transform="translate(-1187.2)" fill="#ff1430"/>
      </g>
    </g>
  </g>
</svg>
