<svg xmlns="http://www.w3.org/2000/svg" width="40" height="40" viewBox="0 0 45 45">
    <defs>
        <style>
            .cls-3{fill:none;stroke:#fff;stroke-width:2.109px}
        </style>
    </defs>
    <g id="_360" transform="translate(-162 -298)">
        <circle id="Ellipse_5" cx="22.5" cy="22.5" r="22.5" fill="#ff8094" transform="translate(162 298)"/>
        <g id="tap" transform="translate(176.661 307.251)">
            <path id="Path_197" fill="#fff" d="M13.146 41.492h-.027a1.48 1.48 0 0 0-1 .379 1.556 1.556 0 0 0-1.445-1.055 1.5 1.5 0 0 0-1.071.461 1.534 1.534 0 0 0-1.367-.877h-.028a1.405 1.405 0 0 0-.881.294v-3.717a1.6 1.6 0 0 0-1.551-1.63 1.593 1.593 0 0 0-1.546 1.629l-.007 7.378-.423-.507a2.106 2.106 0 0 0-1.488-.782 2.072 2.072 0 0 0-1.552.549l-.363.3a.323.323 0 0 0-.08.4L3.853 51.1a3.642 3.642 0 0 0 3.207 2.017h3.98a3.79 3.79 0 0 0 3.657-3.9v-2.26-3.842a1.585 1.585 0 0 0-1.551-1.623zm.9 5.457v2.263a3.153 3.153 0 0 1-3.02 3.258H7.06a3 3 0 0 1-2.634-1.67l-3.412-6.552.168-.14.012-.011a1.433 1.433 0 0 1 1.076-.387 1.465 1.465 0 0 1 1.034.547l.988 1.2a.323.323 0 0 0 .572-.2l.006-8.278a.951.951 0 0 1 .9-.983.951.951 0 0 1 .9.984V44.181a.323.323 0 1 0 .646 0v-2.2a.905.905 0 0 1 .881-.932h.029a.943.943 0 0 1 .906.974v1.953a.323.323 0 0 0 .646 0v-1.534a.893.893 0 1 1 1.776 0v1.445a.323.323 0 0 0 .646 0V43.1a.938.938 0 0 1 .908-.967h.027a.937.937 0 0 1 .9.973c.012 1.716.011 2.294.009 3.843zm0 0" transform="translate(-.284 -35.348)"/>
        </g>
        <path id="Path_131" d="M3.8 8.578L0 4.291 3.813 0" class="cls-3" transform="translate(167.835 312.782)"/>
        <path id="Path_132" d="M3.8 8.578L0 4.291 3.813 0" class="cls-3" transform="rotate(180 100.597 160.68)"/>
        <text id="_360_" fill="#fff" font-family="Helvetica-Bold, Helvetica" font-size="8px" font-weight="700" letter-spacing="-0.009em" transform="translate(184.1 333.824)">
            <tspan x="-5.017" y="0">360ยบ</tspan>
        </text>
    </g>
</svg>
