<svg width="50" height="50" viewBox="0 0 50 50" fill="none" xmlns="http://www.w3.org/2000/svg">
<path d="M30.5069 25L49.2012 6.30488C49.7154 5.79025 49.9992 5.10367 50 4.37155C50 3.63903 49.7163 2.95163 49.2012 2.43781L47.563 0.800007C47.048 0.284153 46.3614 0.00163269 45.6285 0.00163269C44.8967 0.00163269 44.2102 0.284153 43.6951 0.800007L25.0008 19.4939L6.30569 0.800007C5.79146 0.284153 5.10447 0.00163269 4.37195 0.00163269C3.64024 0.00163269 2.95325 0.284153 2.43902 0.800007L0.8 2.43781C-0.266667 3.50448 -0.266667 5.23944 0.8 6.30488L19.4947 25L0.8 43.6943C0.285366 44.2098 0.00203252 44.8963 0.00203252 45.6285C0.00203252 46.3606 0.285366 47.0472 0.8 47.5622L2.43862 49.2C2.95285 49.7155 3.64024 49.9984 4.37154 49.9984C5.10406 49.9984 5.79106 49.7155 6.30528 49.2L25.0004 30.5057L43.6947 49.2C44.2098 49.7155 44.8963 49.9984 45.628 49.9984H45.6289C46.361 49.9984 47.0476 49.7155 47.5626 49.2L49.2008 47.5622C49.715 47.0476 49.9988 46.3606 49.9988 45.6285C49.9988 44.8963 49.715 44.2098 49.2008 43.6947L30.5069 25Z" fill="#1FC1D5"/>
</svg>
