<svg xmlns="http://www.w3.org/2000/svg" xmlns:xlink="http://www.w3.org/1999/xlink" width="300" height="87" viewBox="0 0 300 87">
  <defs>
    <clipPath id="clip-path">
      <rect id="Rectangle_2814" data-name="Rectangle 2814" width="300" height="87" transform="translate(338 1235.328)" fill="#fff" stroke="#707070" stroke-width="1"/>
    </clipPath>
  </defs>
  <g id="scudo-cargo" transform="translate(-338 -1235.328)" clip-path="url(#clip-path)">
    <g id="logo-scudo-cargo" transform="translate(7.5 12.897)">
      <path id="Path_4688" data-name="Path 4688" d="M26.832-29.952a18.087,18.087,0,0,0-9.744-2.784C12-32.736,8.4-31.1,5.952-28.608a10.358,10.358,0,0,0-3.12,7.632,7.991,7.991,0,0,0,2.3,5.9A9.662,9.662,0,0,0,10.7-12.336l2.832.528a4.35,4.35,0,0,1,2.208.768,1.553,1.553,0,0,1,.384,1.1A1.716,1.716,0,0,1,15.5-8.5a3.976,3.976,0,0,1-2.5.576,11.278,11.278,0,0,1-6.48-2.352l-1.248-.96-3.5,9.024,1.056.432a26.612,26.612,0,0,0,10.9,2.5c6,0,9.456-2.208,11.28-4.08a10.313,10.313,0,0,0,2.88-7.536,8.548,8.548,0,0,0-2.448-6.336,10.812,10.812,0,0,0-5.472-2.736l-3.7-.816c-1.776-.384-1.872-1.008-1.872-1.68a1.31,1.31,0,0,1,.576-1.152,3.818,3.818,0,0,1,2.208-.576,12.421,12.421,0,0,1,6.528,2.4ZM56.3-12.528A8.948,8.948,0,0,1,49.824-9.5a6.616,6.616,0,0,1-4.752-1.824A6.34,6.34,0,0,1,43.2-15.936a6.774,6.774,0,0,1,1.68-4.56,6.3,6.3,0,0,1,4.656-1.968A10.14,10.14,0,0,1,56.3-19.3l-.336-12.192a24.172,24.172,0,0,0-7.632-1.248,16.543,16.543,0,0,0-12.1,4.848,17.11,17.11,0,0,0-4.8,12.144A16.532,16.532,0,0,0,36.1-3.936,16.81,16.81,0,0,0,47.9.72a24.451,24.451,0,0,0,8.064-1.3Zm4.944.96A11.307,11.307,0,0,0,64.176-3.5C67.824.432,73.152.72,76.08.72,79.632.72,84.24.1,87.5-3.264a12.747,12.747,0,0,0,3.36-9.12V-32.016H79.3V-13.44c0,.816,0,2.5-.864,3.36a3.171,3.171,0,0,1-2.352.768,2.9,2.9,0,0,1-2.3-.864,4.613,4.613,0,0,1-1.008-3.264V-32.016H61.248ZM112.512,0a15.729,15.729,0,0,0,11.472-4.512A15,15,0,0,0,128.112-15.6c0-5.9-2.256-9.5-4.32-11.568-4.656-4.608-11.472-4.848-14.16-4.848H97.3V0Zm-3.7-22.224h1.248a6.56,6.56,0,0,1,4.56,1.536,6.681,6.681,0,0,1,1.872,4.8,6.034,6.034,0,0,1-1.872,4.608,7.036,7.036,0,0,1-4.944,1.488h-.864Zm58.32,6.192A16.288,16.288,0,0,0,162.672-27.6a18.293,18.293,0,0,0-13.3-5.136,18.293,18.293,0,0,0-13.3,5.136,16.288,16.288,0,0,0-4.464,11.568A16.323,16.323,0,0,0,136.08-4.416,18.293,18.293,0,0,0,149.376.72a18.293,18.293,0,0,0,13.3-5.136A16.323,16.323,0,0,0,167.136-16.032Zm-17.76-6.384a5.793,5.793,0,0,1,4.176,1.632,6.513,6.513,0,0,1,1.824,4.8,6.708,6.708,0,0,1-1.824,4.752A5.824,5.824,0,0,1,149.376-9.6a5.824,5.824,0,0,1-4.176-1.632,6.8,6.8,0,0,1-1.824-4.752,7.187,7.187,0,0,1,1.824-4.8A5.555,5.555,0,0,1,149.376-22.416Z" transform="translate(333.5 1268.274)" fill="none" stroke="#202550" stroke-width="2"/>
      <path id="Path_4689" data-name="Path 4689" d="M13.44-4.224A4.847,4.847,0,0,1,9.7-2.472,5.3,5.3,0,0,1,4.272-7.944a5.355,5.355,0,0,1,5.3-5.592,5.149,5.149,0,0,1,3.864,1.8v-3.648A8.046,8.046,0,0,0,9.5-16.368a8.193,8.193,0,0,0-5.88,2.112A8.369,8.369,0,0,0,1.056-7.992a7.978,7.978,0,0,0,2.568,6.12A7.892,7.892,0,0,0,9.48.36a8.289,8.289,0,0,0,3.96-.936ZM23.856-9.048a3.764,3.764,0,0,0-3.336-1.68,5.2,5.2,0,0,0-5.16,5.52,5.274,5.274,0,0,0,5.3,5.544,3.727,3.727,0,0,0,3.192-1.68V0h2.928V-10.392H23.856Zm-2.592.912a2.826,2.826,0,0,1,2.88,2.928,2.846,2.846,0,0,1-2.88,2.952,2.846,2.846,0,0,1-2.88-2.952A2.826,2.826,0,0,1,21.264-8.136ZM29.568,0H32.5V-4.992a3.57,3.57,0,0,1,.576-2.3,2.393,2.393,0,0,1,1.944-.84,2.2,2.2,0,0,1,1.368.384l.384-2.736a3.6,3.6,0,0,0-1.248-.24,3.184,3.184,0,0,0-1.728.456,3.5,3.5,0,0,0-1.3,1.44v-1.56H29.568Zm16.3-9.048a3.656,3.656,0,0,0-3.264-1.68,5.086,5.086,0,0,0-3.576,1.392,5.782,5.782,0,0,0-1.608,4.128A5.709,5.709,0,0,0,39.072-1.08a4.921,4.921,0,0,0,3.6,1.416,3.642,3.642,0,0,0,3.192-1.728V.072a2.928,2.928,0,0,1-.744,2.3,2.469,2.469,0,0,1-1.776.648,2.584,2.584,0,0,1-1.776-.552,2.5,2.5,0,0,1-.72-1.248H37.68a5.758,5.758,0,0,0,1.68,3.1,5.651,5.651,0,0,0,3.888,1.2,5.522,5.522,0,0,0,4.1-1.464A5.955,5.955,0,0,0,48.792-.48v-9.912H45.864Zm-2.544.912a2.666,2.666,0,0,1,2.04.84,2.96,2.96,0,0,1,.84,2.088,3.062,3.062,0,0,1-.936,2.232,2.944,2.944,0,0,1-1.944.72,2.843,2.843,0,0,1-2.112-.912,2.886,2.886,0,0,1-.768-2.04,2.848,2.848,0,0,1,.936-2.208A2.817,2.817,0,0,1,43.32-8.136ZM57-10.728a5.98,5.98,0,0,0-4.2,1.464,5.475,5.475,0,0,0-1.752,4.08A5.46,5.46,0,0,0,52.8-1.128,5.98,5.98,0,0,0,57,.336a5.98,5.98,0,0,0,4.2-1.464,5.46,5.46,0,0,0,1.752-4.056A5.475,5.475,0,0,0,61.2-9.264,5.98,5.98,0,0,0,57-10.728Zm0,8.472a2.894,2.894,0,0,1-2.928-2.928A2.9,2.9,0,0,1,57-8.136a2.9,2.9,0,0,1,2.928,2.952A2.894,2.894,0,0,1,57-2.256ZM74.88,0H78V-16.008H72.576v2.688h2.3ZM82.8-1.56A1.844,1.844,0,0,0,84.672.312,1.844,1.844,0,0,0,86.544-1.56a1.844,1.844,0,0,0-1.872-1.872A1.844,1.844,0,0,0,82.8-1.56ZM99.024-16.008H91.632l-1.9,8.4A6.584,6.584,0,0,1,93.192-8.64a3.54,3.54,0,0,1,2.5.816,2.728,2.728,0,0,1,.936,2.208,3.391,3.391,0,0,1-.84,2.328,3.205,3.205,0,0,1-2.448.96,4.742,4.742,0,0,1-2.328-.6,4.866,4.866,0,0,1-1.656-1.44L88.32-1.68A7.963,7.963,0,0,0,90.264-.312,7.963,7.963,0,0,0,93.72.36a5.7,5.7,0,0,0,4.392-1.632,5.569,5.569,0,0,0,1.632-4.176,5.294,5.294,0,0,0-1.416-3.84A5.835,5.835,0,0,0,94.2-10.9a6.942,6.942,0,0,0-1.08.1l.576-2.52h5.328Zm18.36,2.688v-2.688h-10.32v2.688h3.6V0h3.12V-13.32Zm.528,2.928v6.36A3.928,3.928,0,0,0,119.184-.84,5.971,5.971,0,0,0,122.952.336,5.972,5.972,0,0,0,126.72-.84a3.928,3.928,0,0,0,1.272-3.192v-6.36h-2.928v5.88a2.336,2.336,0,0,1-.624,1.824,2.384,2.384,0,0,1-1.488.528,2.384,2.384,0,0,1-1.488-.528,2.336,2.336,0,0,1-.624-1.824v-5.88ZM130.776,0H133.7V-4.992a3.57,3.57,0,0,1,.576-2.3,2.393,2.393,0,0,1,1.944-.84,2.2,2.2,0,0,1,1.368.384l.384-2.736a3.6,3.6,0,0,0-1.248-.24,3.184,3.184,0,0,0-1.728.456,3.5,3.5,0,0,0-1.3,1.44v-1.56h-2.928Zm11.568-17.5h-2.928V0h2.928V-1.344a3.928,3.928,0,0,0,3.312,1.68c3.072,0,5.184-2.376,5.184-5.544,0-3.144-2.04-5.52-5.112-5.52a4.031,4.031,0,0,0-3.384,1.68Zm2.592,9.36a2.826,2.826,0,0,1,2.88,2.928,2.846,2.846,0,0,1-2.88,2.952,2.846,2.846,0,0,1-2.88-2.952A2.826,2.826,0,0,1,144.936-8.136Zm13.584-2.592a5.98,5.98,0,0,0-4.2,1.464,5.475,5.475,0,0,0-1.752,4.08,5.46,5.46,0,0,0,1.752,4.056,5.98,5.98,0,0,0,4.2,1.464,5.98,5.98,0,0,0,4.2-1.464,5.46,5.46,0,0,0,1.752-4.056,5.475,5.475,0,0,0-1.752-4.08A5.98,5.98,0,0,0,158.52-10.728Zm0,8.472a2.894,2.894,0,0,1-2.928-2.928,2.9,2.9,0,0,1,2.928-2.952,2.9,2.9,0,0,1,2.928,2.952A2.894,2.894,0,0,1,158.52-2.256Zm14.232-13.752V0h4.128a9.186,9.186,0,0,0,5.856-1.536,7.633,7.633,0,0,0,3.216-6.456,7.924,7.924,0,0,0-3.072-6.456,9.323,9.323,0,0,0-5.952-1.56Zm3.12,2.688h.96a6.514,6.514,0,0,1,3.936,1.056,5.334,5.334,0,0,1,1.968,4.272,5.207,5.207,0,0,1-1.992,4.248,6.7,6.7,0,0,1-3.912,1.056h-.96ZM188.4-10.392V0h2.928V-10.392Zm-.288-4.392a1.762,1.762,0,0,0,1.752,1.752,1.762,1.762,0,0,0,1.752-1.752,1.762,1.762,0,0,0-1.752-1.752A1.762,1.762,0,0,0,188.112-14.784ZM201.624-3.336A2.679,2.679,0,0,1,199.2-1.968a2.474,2.474,0,0,1-2.088-.984,3.066,3.066,0,0,1-.5-1.752h7.776v-.24a6.213,6.213,0,0,0-1.248-4.08,4.967,4.967,0,0,0-4.056-1.7,5.324,5.324,0,0,0-3.912,1.464,5.535,5.535,0,0,0-1.584,4.08,5.236,5.236,0,0,0,1.632,4.056A5.439,5.439,0,0,0,199.2.336a5.134,5.134,0,0,0,5.112-3.24Zm-4.92-3.24a2.446,2.446,0,0,1,2.448-2.088,2.447,2.447,0,0,1,2.472,2.088Zm17.04-3.048a5.183,5.183,0,0,0-3.312-1.1,4.288,4.288,0,0,0-2.712.744,3.087,3.087,0,0,0-1.08,2.352,2.788,2.788,0,0,0,.792,1.992,5.607,5.607,0,0,0,2.232,1.248l.672.24a1.159,1.159,0,0,1,.912,1.056c0,.72-.624,1.128-1.44,1.128a3.222,3.222,0,0,1-2.3-1.2l-1.536,1.776A5.252,5.252,0,0,0,210,.336a4.364,4.364,0,0,0,3.12-1.1,3.454,3.454,0,0,0,1.152-2.64,3.013,3.013,0,0,0-.528-1.728,5.324,5.324,0,0,0-2.64-1.488l-.7-.216c-.816-.264-.936-.672-.936-.936,0-.5.432-.84,1.128-.84a2.431,2.431,0,0,1,1.7.7Zm10.1,6.288a2.679,2.679,0,0,1-2.424,1.368,2.474,2.474,0,0,1-2.088-.984,3.066,3.066,0,0,1-.5-1.752h7.776v-.24a6.213,6.213,0,0,0-1.248-4.08,4.967,4.967,0,0,0-4.056-1.7,5.324,5.324,0,0,0-3.912,1.464,5.535,5.535,0,0,0-1.584,4.08,5.236,5.236,0,0,0,1.632,4.056A5.439,5.439,0,0,0,221.424.336a5.134,5.134,0,0,0,5.112-3.24Zm-4.92-3.24a2.446,2.446,0,0,1,2.448-2.088,2.447,2.447,0,0,1,2.472,2.088Zm9.936-10.92V0h2.928V-17.5Z" transform="translate(394 1289.959)" fill="#891039"/>
      <g id="flag-color" transform="translate(368.032 1273.919)">
        <g id="Group_4592" data-name="Group 4592" transform="translate(0 0)">
          <path id="Path_4690" data-name="Path 4690" d="M7.293,0,2.307,16.71H0L4.985,0Z" fill="#891039"/>
        </g>
        <g id="Group_4593" data-name="Group 4593" transform="translate(5.238 0)">
          <path id="Path_4691" data-name="Path 4691" d="M403.992,0l-4.985,16.71H396.7L401.685,0Z" transform="translate(-396.7)" fill="#891039"/>
        </g>
        <g id="Group_4594" data-name="Group 4594" transform="translate(10.438 0)">
          <path id="Path_4692" data-name="Path 4692" d="M797.892,0l-4.985,16.71H790.6L795.586,0Z" transform="translate(-790.6)" fill="#891039"/>
        </g>
        <g id="Group_4595" data-name="Group 4595" transform="translate(15.674 0)">
          <path id="Path_4693" data-name="Path 4693" d="M1194.494,0l-4.986,16.71H1187.2L1192.185,0Z" transform="translate(-1187.2)" fill="#891039"/>
        </g>
      </g>
    </g>
  </g>
</svg>
