<svg xmlns="http://www.w3.org/2000/svg" width="313" height="153.24" viewBox="0 0 313 153.24">
  <g id="titulo-novo-fiat-scudo-campanha" transform="translate(-120 -73)">
    <rect id="Rectangle_2681" data-name="Rectangle 2681" width="313" height="40" transform="translate(120 73)" fill="#ff1430"/>
    <path id="Path_4726" data-name="Path 4726" d="M9.536,0V-7.264a26.314,26.314,0,0,0-.48-3.936H9.28a28.409,28.409,0,0,0,1.472,2.784L16.064,0h7.424V-21.344H16.064v6.784A25.058,25.058,0,0,0,16.736-9.5h-.224A22.989,22.989,0,0,0,14.5-13.28l-4.96-8.064H2.144V0ZM49.728-10.688A10.858,10.858,0,0,0,46.752-18.4a12.2,12.2,0,0,0-8.864-3.424A12.2,12.2,0,0,0,29.024-18.4a10.858,10.858,0,0,0-2.976,7.712,10.882,10.882,0,0,0,2.976,7.744A12.2,12.2,0,0,0,37.888.48a12.2,12.2,0,0,0,8.864-3.424A10.882,10.882,0,0,0,49.728-10.688Zm-11.84-4.256a3.862,3.862,0,0,1,2.784,1.088,4.342,4.342,0,0,1,1.216,3.2,4.472,4.472,0,0,1-1.216,3.168A3.883,3.883,0,0,1,37.888-6.4,3.883,3.883,0,0,1,35.1-7.488a4.534,4.534,0,0,1-1.216-3.168,4.791,4.791,0,0,1,1.216-3.2A3.7,3.7,0,0,1,37.888-14.944ZM57.632,0h6.656l8.256-21.344h-8.1L61.536-11.3a12.846,12.846,0,0,0-.448,2.848H60.9a15.584,15.584,0,0,0-.48-2.848L57.44-21.344h-8.1ZM95.84-10.688A10.858,10.858,0,0,0,92.864-18.4,12.2,12.2,0,0,0,84-21.824,12.2,12.2,0,0,0,75.136-18.4a10.858,10.858,0,0,0-2.976,7.712,10.882,10.882,0,0,0,2.976,7.744A12.2,12.2,0,0,0,84,.48a12.2,12.2,0,0,0,8.864-3.424A10.882,10.882,0,0,0,95.84-10.688ZM84-14.944a3.862,3.862,0,0,1,2.784,1.088A4.342,4.342,0,0,1,88-10.656a4.472,4.472,0,0,1-1.216,3.168A3.883,3.883,0,0,1,84-6.4a3.883,3.883,0,0,1-2.784-1.088A4.534,4.534,0,0,1,80-10.656a4.791,4.791,0,0,1,1.216-3.2A3.7,3.7,0,0,1,84-14.944ZM112.832,0V-7.456h5.7v-5.632h-5.7v-2.176h6.5v-6.08h-14.24V0Zm16.576,0V-21.344h-7.744V0ZM145.44-2.656l.7,2.656h8.224l-7.616-21.344h-8.576L130.784,0h8.192l.576-2.656ZM143.1-11.808l.992,4.1h-3.1l1.056-4.1a11.111,11.111,0,0,0,.352-2.4h.288A23.639,23.639,0,0,0,143.1-11.808ZM164.832,0V-14.592l4.352.192v-6.944h-16.32V-14.4l4.352-.192V0Zm28.384-19.968a12.058,12.058,0,0,0-6.5-1.856,9.937,9.937,0,0,0-7.424,2.752,6.906,6.906,0,0,0-2.08,5.088,5.327,5.327,0,0,0,1.536,3.936,6.441,6.441,0,0,0,3.712,1.824l1.888.352a2.9,2.9,0,0,1,1.472.512,1.035,1.035,0,0,1,.256.736,1.144,1.144,0,0,1-.416.96A2.651,2.651,0,0,1,184-5.28a7.519,7.519,0,0,1-4.32-1.568l-.832-.64-2.336,6.016.7.288A17.741,17.741,0,0,0,184.48.48c4,0,6.3-1.472,7.52-2.72a6.875,6.875,0,0,0,1.92-5.024,5.7,5.7,0,0,0-1.632-4.224,7.208,7.208,0,0,0-3.648-1.824l-2.464-.544c-1.184-.256-1.248-.672-1.248-1.12a.873.873,0,0,1,.384-.768,2.546,2.546,0,0,1,1.472-.384,8.281,8.281,0,0,1,4.352,1.6ZM212.1-8.352a5.965,5.965,0,0,1-4.32,2.016,4.411,4.411,0,0,1-3.168-1.216,4.227,4.227,0,0,1-1.248-3.072,4.516,4.516,0,0,1,1.12-3.04,4.2,4.2,0,0,1,3.1-1.312,6.76,6.76,0,0,1,4.512,2.112l-.224-8.128a16.115,16.115,0,0,0-5.088-.832,11.029,11.029,0,0,0-8.064,3.232,11.407,11.407,0,0,0-3.2,8.1,11.021,11.021,0,0,0,3.1,7.872A11.207,11.207,0,0,0,206.5.48a16.3,16.3,0,0,0,5.376-.864Zm2.528.64a7.538,7.538,0,0,0,1.952,5.376C219.008.288,222.56.48,224.512.48c2.368,0,5.44-.416,7.616-2.656a8.5,8.5,0,0,0,2.24-6.08V-21.344h-7.712V-8.96a3.336,3.336,0,0,1-.576,2.24,2.114,2.114,0,0,1-1.568.512,1.933,1.933,0,0,1-1.536-.576A3.075,3.075,0,0,1,222.3-8.96V-21.344h-7.68ZM248.032,0a10.486,10.486,0,0,0,7.648-3.008,10,10,0,0,0,2.752-7.392,10.459,10.459,0,0,0-2.88-7.712c-3.1-3.072-7.648-3.232-9.44-3.232h-8.224V0Zm-2.464-14.816h.832a4.373,4.373,0,0,1,3.04,1.024,4.454,4.454,0,0,1,1.248,3.2A4.023,4.023,0,0,1,249.44-7.52a4.69,4.69,0,0,1-3.3.992h-.576Zm38.112,4.128A10.858,10.858,0,0,0,280.7-18.4a12.2,12.2,0,0,0-8.864-3.424,12.2,12.2,0,0,0-8.864,3.424A10.858,10.858,0,0,0,260-10.688a10.882,10.882,0,0,0,2.976,7.744A12.2,12.2,0,0,0,271.84.48,12.2,12.2,0,0,0,280.7-2.944,10.882,10.882,0,0,0,283.68-10.688Zm-11.84-4.256a3.862,3.862,0,0,1,2.784,1.088,4.342,4.342,0,0,1,1.216,3.2,4.472,4.472,0,0,1-1.216,3.168A3.883,3.883,0,0,1,271.84-6.4a3.883,3.883,0,0,1-2.784-1.088,4.535,4.535,0,0,1-1.216-3.168,4.792,4.792,0,0,1,1.216-3.2A3.7,3.7,0,0,1,271.84-14.944Zm22.144,3.136a3.474,3.474,0,0,0-.992-2.336,4.681,4.681,0,0,0-3.232-1.216,4.659,4.659,0,0,0-3.2,1.216,3.474,3.474,0,0,0-.992,2.336,3.489,3.489,0,0,0,.992,2.368,4.659,4.659,0,0,0,3.2,1.216,4.681,4.681,0,0,0,3.232-1.216A3.489,3.489,0,0,0,293.984-11.808Zm0,8.64a3.474,3.474,0,0,0-.992-2.336A4.681,4.681,0,0,0,289.76-6.72a4.659,4.659,0,0,0-3.2,1.216,3.474,3.474,0,0,0-.992,2.336A3.489,3.489,0,0,0,286.56-.8a4.659,4.659,0,0,0,3.2,1.216A4.681,4.681,0,0,0,292.992-.8,3.489,3.489,0,0,0,293.984-3.168Z" transform="translate(128 104)" fill="#ededed"/>
    <path id="Path_4725" data-name="Path 4725" d="M17.888-19.968a12.058,12.058,0,0,0-6.5-1.856,9.937,9.937,0,0,0-7.424,2.752,6.906,6.906,0,0,0-2.08,5.088,5.327,5.327,0,0,0,1.536,3.936A6.441,6.441,0,0,0,7.136-8.224l1.888.352A2.9,2.9,0,0,1,10.5-7.36a1.035,1.035,0,0,1,.256.736,1.144,1.144,0,0,1-.416.96,2.651,2.651,0,0,1-1.664.384,7.519,7.519,0,0,1-4.32-1.568l-.832-.64L1.184-1.472l.7.288A17.741,17.741,0,0,0,9.152.48c4,0,6.3-1.472,7.52-2.72a6.875,6.875,0,0,0,1.92-5.024,5.7,5.7,0,0,0-1.632-4.224,7.208,7.208,0,0,0-3.648-1.824l-2.464-.544c-1.184-.256-1.248-.672-1.248-1.12a.873.873,0,0,1,.384-.768,2.546,2.546,0,0,1,1.472-.384,8.281,8.281,0,0,1,4.352,1.6ZM33.5-2.656,34.208,0h8.224L34.816-21.344H26.24L18.848,0H27.04l.576-2.656Zm-2.336-9.152.992,4.1h-3.1l1.056-4.1a11.11,11.11,0,0,0,.352-2.4h.288A23.642,23.642,0,0,0,31.168-11.808ZM51.392,0V-21.344H43.648V0Zm3.36-7.712A7.538,7.538,0,0,0,56.7-2.336C59.136.288,62.688.48,64.64.48c2.368,0,5.44-.416,7.616-2.656a8.5,8.5,0,0,0,2.24-6.08V-21.344H66.784V-8.96a3.336,3.336,0,0,1-.576,2.24,2.114,2.114,0,0,1-1.568.512A1.933,1.933,0,0,1,63.1-6.784a3.075,3.075,0,0,1-.672-2.176V-21.344h-7.68ZM94.528,0a10.486,10.486,0,0,0,7.648-3.008,10,10,0,0,0,2.752-7.392,10.459,10.459,0,0,0-2.88-7.712c-3.1-3.072-7.648-3.232-9.44-3.232H84.384V0ZM92.064-14.816H92.9a4.373,4.373,0,0,1,3.04,1.024,4.454,4.454,0,0,1,1.248,3.2A4.023,4.023,0,0,1,95.936-7.52a4.69,4.69,0,0,1-3.3.992h-.576Zm27.1,12.16.7,2.656H128.1L120.48-21.344H111.9L104.512,0H112.7l.576-2.656Zm-2.336-9.152.992,4.1h-3.1l1.056-4.1a11.11,11.11,0,0,0,.352-2.4h.288A23.641,23.641,0,0,0,116.832-11.808Zm29.44,4.448h3.52a3.18,3.18,0,0,1-3.168,1.824A3.557,3.557,0,0,1,144.1-6.5a5.381,5.381,0,0,1-1.408-3.808,5.409,5.409,0,0,1,1.568-4.032,3.981,3.981,0,0,1,2.72-.992A3.332,3.332,0,0,1,149.92-13.7l7.232-2.688a9.921,9.921,0,0,0-4.1-3.936,12.8,12.8,0,0,0-6.272-1.5,12.12,12.12,0,0,0-8.96,3.36,10.778,10.778,0,0,0-2.944,7.84,10.662,10.662,0,0,0,2.752,7.584,11.435,11.435,0,0,0,8.8,3.52,12.43,12.43,0,0,0,9.056-3.488c2.56-2.752,2.784-6.3,2.784-8.928v-.48h-12Zm25.664,4.7L172.64,0h8.224l-7.616-21.344h-8.576L157.28,0h8.192l.576-2.656ZM169.6-11.808l.992,4.1h-3.1l1.056-4.1a11.111,11.111,0,0,0,.352-2.4h.288A23.639,23.639,0,0,0,169.6-11.808ZM189.632,0V-6.848l.128-.064a3.492,3.492,0,0,0,.288.672L193.12,0h8.928l-4.8-7.2a3,3,0,0,0-1.12-.992v-.192a5.1,5.1,0,0,0,2.944-1.7,5.757,5.757,0,0,0,1.184-3.808,7.062,7.062,0,0,0-2.016-5.248c-1.952-1.952-4.288-2.208-6.528-2.208H182.08V0Zm0-15.488h1.344a1.693,1.693,0,0,1,1.312.576,1.926,1.926,0,0,1,.416,1.28,1.683,1.683,0,0,1-.544,1.312,2.536,2.536,0,0,1-1.632.48h-.9ZM216.416-2.656,217.12,0h8.224l-7.616-21.344h-8.576L201.76,0h8.192l.576-2.656Zm-2.336-9.152.992,4.1h-3.1l1.056-4.1a11.11,11.11,0,0,0,.352-2.4h.288A23.643,23.643,0,0,0,214.08-11.808ZM236.192-7.36h3.52a3.18,3.18,0,0,1-3.168,1.824,3.557,3.557,0,0,1-2.528-.96,5.381,5.381,0,0,1-1.408-3.808,5.409,5.409,0,0,1,1.568-4.032,3.981,3.981,0,0,1,2.72-.992A3.332,3.332,0,0,1,239.84-13.7l7.232-2.688a9.921,9.921,0,0,0-4.1-3.936,12.8,12.8,0,0,0-6.272-1.5,12.12,12.12,0,0,0-8.96,3.36,10.778,10.778,0,0,0-2.944,7.84,10.662,10.662,0,0,0,2.752,7.584,11.435,11.435,0,0,0,8.8,3.52,12.43,12.43,0,0,0,9.056-3.488c2.56-2.752,2.784-6.3,2.784-8.928v-.48h-12ZM265.152,0V-5.856H258.3V-7.9h6.048v-5.6H258.3v-1.984h6.656v-5.856h-14.4V0Zm9.056,0,1.056-10.016c.032-.416.032-1.248.032-1.664h.224a8.907,8.907,0,0,0,.416,2.336L278.784,0h4.544L286.5-9.888c.128-.416.32-1.248.416-1.792h.128a20.239,20.239,0,0,0,.128,2.112L288.128,0h7.456L292.1-21.344h-7.9l-2.5,8.736a9.244,9.244,0,0,0-.416,2.464h-.192a15.869,15.869,0,0,0-.48-2.464l-2.5-8.736h-7.968L266.688,0Zm32.16-5.44H299.04L295.616,5.12h5.7Z" transform="translate(126 145)" fill="#3b369e"/>
    <path id="Path_4724" data-name="Path 4724" d="M17.888-19.968a12.058,12.058,0,0,0-6.5-1.856,9.937,9.937,0,0,0-7.424,2.752,6.906,6.906,0,0,0-2.08,5.088,5.327,5.327,0,0,0,1.536,3.936A6.441,6.441,0,0,0,7.136-8.224l1.888.352A2.9,2.9,0,0,1,10.5-7.36a1.035,1.035,0,0,1,.256.736,1.144,1.144,0,0,1-.416.96,2.651,2.651,0,0,1-1.664.384,7.519,7.519,0,0,1-4.32-1.568l-.832-.64L1.184-1.472l.7.288A17.741,17.741,0,0,0,9.152.48c4,0,6.3-1.472,7.52-2.72a6.875,6.875,0,0,0,1.92-5.024,5.7,5.7,0,0,0-1.632-4.224,7.208,7.208,0,0,0-3.648-1.824l-2.464-.544c-1.184-.256-1.248-.672-1.248-1.12a.873.873,0,0,1,.384-.768,2.546,2.546,0,0,1,1.472-.384,8.281,8.281,0,0,1,4.352,1.6ZM33.5-2.656,34.208,0h8.224L34.816-21.344H26.24L18.848,0H27.04l.576-2.656Zm-2.336-9.152.992,4.1h-3.1l1.056-4.1a11.11,11.11,0,0,0,.352-2.4h.288A23.642,23.642,0,0,0,31.168-11.808ZM51.392,0V-21.344H43.648V0Zm3.36-7.712A7.538,7.538,0,0,0,56.7-2.336C59.136.288,62.688.48,64.64.48c2.368,0,5.44-.416,7.616-2.656a8.5,8.5,0,0,0,2.24-6.08V-21.344H66.784V-8.96a3.336,3.336,0,0,1-.576,2.24,2.114,2.114,0,0,1-1.568.512A1.933,1.933,0,0,1,63.1-6.784a3.075,3.075,0,0,1-.672-2.176V-21.344h-7.68ZM91.776,0V-7.264A26.314,26.314,0,0,0,91.3-11.2h.224a28.41,28.41,0,0,0,1.472,2.784L98.3,0h7.424V-21.344H98.3v6.784A25.058,25.058,0,0,0,98.976-9.5h-.224a22.99,22.99,0,0,0-2.016-3.776l-4.96-8.064H84.384V0Zm40.032-10.688a10.858,10.858,0,0,0-2.976-7.712,12.2,12.2,0,0,0-8.864-3.424A12.2,12.2,0,0,0,111.1-18.4a10.858,10.858,0,0,0-2.976,7.712A10.882,10.882,0,0,0,111.1-2.944,12.2,12.2,0,0,0,119.968.48a12.2,12.2,0,0,0,8.864-3.424A10.882,10.882,0,0,0,131.808-10.688Zm-11.84-4.256a3.862,3.862,0,0,1,2.784,1.088,4.342,4.342,0,0,1,1.216,3.2,4.472,4.472,0,0,1-1.216,3.168A3.883,3.883,0,0,1,119.968-6.4a3.883,3.883,0,0,1-2.784-1.088,4.534,4.534,0,0,1-1.216-3.168,4.791,4.791,0,0,1,1.216-3.2A3.7,3.7,0,0,1,119.968-14.944ZM155.008,0V-6.88H148.48V-21.344h-7.744V0Zm1.344-7.712A7.538,7.538,0,0,0,158.3-2.336C160.736.288,164.288.48,166.24.48c2.368,0,5.44-.416,7.616-2.656a8.5,8.5,0,0,0,2.24-6.08V-21.344h-7.712V-8.96a3.336,3.336,0,0,1-.576,2.24,2.114,2.114,0,0,1-1.568.512,1.933,1.933,0,0,1-1.536-.576,3.075,3.075,0,0,1-.672-2.176V-21.344h-7.68Zm38.72-.64a5.965,5.965,0,0,1-4.32,2.016,4.411,4.411,0,0,1-3.168-1.216,4.227,4.227,0,0,1-1.248-3.072,4.516,4.516,0,0,1,1.12-3.04,4.2,4.2,0,0,1,3.1-1.312,6.76,6.76,0,0,1,4.512,2.112l-.224-8.128a16.115,16.115,0,0,0-5.088-.832,11.029,11.029,0,0,0-8.064,3.232,11.407,11.407,0,0,0-3.2,8.1,11.021,11.021,0,0,0,3.1,7.872,11.207,11.207,0,0,0,7.872,3.1,16.3,16.3,0,0,0,5.376-.864ZM204.992,0V-6.848l.128-.064a3.492,3.492,0,0,0,.288.672L208.48,0h8.928l-4.8-7.2a3,3,0,0,0-1.12-.992v-.192a5.1,5.1,0,0,0,2.944-1.7,5.757,5.757,0,0,0,1.184-3.808,7.062,7.062,0,0,0-2.016-5.248c-1.952-1.952-4.288-2.208-6.528-2.208H197.44V0Zm0-15.488h1.344a1.693,1.693,0,0,1,1.312.576,1.926,1.926,0,0,1,.416,1.28,1.683,1.683,0,0,1-.544,1.312,2.536,2.536,0,0,1-1.632.48h-.9Zm36.192,4.8a10.858,10.858,0,0,0-2.976-7.712,12.2,12.2,0,0,0-8.864-3.424A12.2,12.2,0,0,0,220.48-18.4a10.858,10.858,0,0,0-2.976,7.712,10.882,10.882,0,0,0,2.976,7.744A12.2,12.2,0,0,0,229.344.48a12.2,12.2,0,0,0,8.864-3.424A10.882,10.882,0,0,0,241.184-10.688Zm-11.84-4.256a3.862,3.862,0,0,1,2.784,1.088,4.342,4.342,0,0,1,1.216,3.2,4.472,4.472,0,0,1-1.216,3.168A3.883,3.883,0,0,1,229.344-6.4a3.883,3.883,0,0,1-2.784-1.088,4.534,4.534,0,0,1-1.216-3.168,4.791,4.791,0,0,1,1.216-3.2A3.7,3.7,0,0,1,229.344-14.944ZM251.328-3.168a3.474,3.474,0,0,0-.992-2.336A4.681,4.681,0,0,0,247.1-6.72,4.659,4.659,0,0,0,243.9-5.5a3.474,3.474,0,0,0-.992,2.336A3.489,3.489,0,0,0,243.9-.8,4.659,4.659,0,0,0,247.1.416,4.681,4.681,0,0,0,250.336-.8,3.489,3.489,0,0,0,251.328-3.168Z" transform="translate(126 179)" fill="#3b369e"/>
    <path id="Path_4723" data-name="Path 4723" d="M7.328-1.328,7.68,0h4.112L7.984-10.672H3.7L0,0H4.1l.288-1.328ZM6.16-5.9l.5,2.048H5.1L5.632-5.9a5.555,5.555,0,0,0,.176-1.2h.144A11.821,11.821,0,0,0,6.16-5.9ZM18.9,0h3.328l4.128-10.672H22.3L20.848-5.648a6.423,6.423,0,0,0-.224,1.424h-.1a7.792,7.792,0,0,0-.24-1.424L18.8-10.672H14.752ZM32.5-1.328,32.848,0H36.96L33.152-10.672H28.864L25.168,0h4.1l.288-1.328ZM31.328-5.9l.5,2.048H30.272L30.8-5.9a5.555,5.555,0,0,0,.176-1.2h.144A11.821,11.821,0,0,0,31.328-5.9ZM41.344,0V-3.632A13.157,13.157,0,0,0,41.1-5.6h.112a14.205,14.205,0,0,0,.736,1.392L44.608,0H48.32V-10.672H44.608V-7.28a12.529,12.529,0,0,0,.336,2.528h-.112A11.5,11.5,0,0,0,43.824-6.64l-2.48-4.032h-3.7V0ZM60.512,0V-10.672H55.024V-7.1l1.648-.128V0Zm12.1-5.344A6.074,6.074,0,0,0,71.04-9.568a4.846,4.846,0,0,0-3.5-1.344,4.846,4.846,0,0,0-3.5,1.344,6.074,6.074,0,0,0-1.568,4.224A6.085,6.085,0,0,0,64.032-1.1,4.846,4.846,0,0,0,67.536.24,4.846,4.846,0,0,0,71.04-1.1,6.085,6.085,0,0,0,72.608-5.344Zm-5.072-2.4a.984.984,0,0,1,.672.272,2.87,2.87,0,0,1,.688,2.08,2.915,2.915,0,0,1-.688,2.064.984.984,0,0,1-.672.272.966.966,0,0,1-.688-.272,2.83,2.83,0,0,1-.688-2.064,3,3,0,0,1,.688-2.08A.966.966,0,0,1,67.536-7.744Zm16,2.4a6.074,6.074,0,0,0-1.568-4.224,4.846,4.846,0,0,0-3.5-1.344,4.846,4.846,0,0,0-3.5,1.344,6.074,6.074,0,0,0-1.568,4.224A6.085,6.085,0,0,0,74.96-1.1,4.846,4.846,0,0,0,78.464.24a4.846,4.846,0,0,0,3.5-1.344A6.085,6.085,0,0,0,83.536-5.344Zm-5.072-2.4a.984.984,0,0,1,.672.272,2.87,2.87,0,0,1,.688,2.08,2.915,2.915,0,0,1-.688,2.064.984.984,0,0,1-.672.272.966.966,0,0,1-.688-.272,2.83,2.83,0,0,1-.688-2.064,3,3,0,0,1,.688-2.08A.966.966,0,0,1,78.464-7.744ZM90.88-7.888A2.783,2.783,0,0,0,90.064-9.9a3.511,3.511,0,0,0-2.576-.928,3.5,3.5,0,0,0-2.56.928,2.783,2.783,0,0,0-.816,2.016,2.783,2.783,0,0,0,.816,2.016,3.5,3.5,0,0,0,2.56.928,3.511,3.511,0,0,0,2.576-.928A2.783,2.783,0,0,0,90.88-7.888Zm-4-.016a.874.874,0,0,1,.224-.624.6.6,0,0,1,.432-.176.577.577,0,0,1,.448.176.812.812,0,0,1,.192.576.889.889,0,0,1-.224.624.565.565,0,0,1-.432.16.565.565,0,0,1-.432-.16A.825.825,0,0,1,86.88-7.9ZM87.968,0h1.744L95.92-10.672H94.16Zm11.84-2.768a2.783,2.783,0,0,0-.816-2.016,3.511,3.511,0,0,0-2.576-.928,3.5,3.5,0,0,0-2.56.928,2.783,2.783,0,0,0-.816,2.016,2.783,2.783,0,0,0,.816,2.016,3.5,3.5,0,0,0,2.56.928,3.511,3.511,0,0,0,2.576-.928A2.783,2.783,0,0,0,99.808-2.768Zm-4-.016a.874.874,0,0,1,.224-.624.6.6,0,0,1,.432-.176.577.577,0,0,1,.448.176.812.812,0,0,1,.192.576.889.889,0,0,1-.224.624.565.565,0,0,1-.432.16.565.565,0,0,1-.432-.16A.825.825,0,0,1,95.808-2.784ZM108,0V-3.216h1.872A3.653,3.653,0,0,0,112.5-4.08a3.427,3.427,0,0,0,1.056-2.672,3.822,3.822,0,0,0-1.088-2.8,4.355,4.355,0,0,0-3.12-1.12h-5.12V0Zm0-7.744h.7a1.342,1.342,0,0,1,.784.24.8.8,0,0,1,.288.656.835.835,0,0,1-.256.656,1.212,1.212,0,0,1-.864.288H108ZM121.808,0V-2.928h-3.424V-3.952h3.024v-2.8h-3.024v-.992h3.328v-2.928h-7.2V0Zm4.976,0V-3.632a13.157,13.157,0,0,0-.24-1.968h.112a14.205,14.205,0,0,0,.736,1.392L130.048,0h3.712V-10.672h-3.712V-7.28a12.529,12.529,0,0,0,.336,2.528h-.112a11.494,11.494,0,0,0-1.008-1.888l-2.48-4.032h-3.7V0Zm16.608-9.984a6.029,6.029,0,0,0-3.248-.928,4.969,4.969,0,0,0-3.712,1.376,3.453,3.453,0,0,0-1.04,2.544,2.663,2.663,0,0,0,.768,1.968,3.221,3.221,0,0,0,1.856.912l.944.176a1.45,1.45,0,0,1,.736.256.518.518,0,0,1,.128.368.572.572,0,0,1-.208.48,1.325,1.325,0,0,1-.832.192,3.759,3.759,0,0,1-2.16-.784l-.416-.32L135.04-.736l.352.144a8.871,8.871,0,0,0,3.632.832,5.029,5.029,0,0,0,3.76-1.36,3.438,3.438,0,0,0,.96-2.512,2.849,2.849,0,0,0-.816-2.112,3.6,3.6,0,0,0-1.824-.912l-1.232-.272c-.592-.128-.624-.336-.624-.56a.437.437,0,0,1,.192-.384,1.273,1.273,0,0,1,.736-.192,4.14,4.14,0,0,1,2.176.8Zm7.888,8.656L151.632,0h4.112l-3.808-10.672h-4.288L143.952,0h4.1l.288-1.328ZM150.112-5.9l.5,2.048h-1.552l.528-2.048a5.556,5.556,0,0,0,.176-1.2h.144A11.82,11.82,0,0,0,150.112-5.9ZM161.5,0a5.243,5.243,0,0,0,3.824-1.5A5,5,0,0,0,166.7-5.2a5.23,5.23,0,0,0-1.44-3.856,6.744,6.744,0,0,0-4.72-1.616h-4.112V0Zm-1.232-7.408h.416a2.187,2.187,0,0,1,1.52.512,2.227,2.227,0,0,1,.624,1.6,2.011,2.011,0,0,1-.624,1.536,2.345,2.345,0,0,1-1.648.5h-.288ZM173.9-1.328,174.256,0h4.112L174.56-10.672h-4.288L166.576,0h4.1l.288-1.328ZM172.736-5.9l.5,2.048H171.68l.528-2.048a5.555,5.555,0,0,0,.176-1.2h.144A11.82,11.82,0,0,0,172.736-5.9ZM186.176,0V-3.216h1.872a3.653,3.653,0,0,0,2.624-.864,3.427,3.427,0,0,0,1.056-2.672,3.822,3.822,0,0,0-1.088-2.8,4.355,4.355,0,0,0-3.12-1.12H182.4V0Zm0-7.744h.7a1.342,1.342,0,0,1,.784.24.8.8,0,0,1,.288.656.835.835,0,0,1-.256.656,1.212,1.212,0,0,1-.864.288h-.656Zm11.968,6.416L198.5,0h4.112L198.8-10.672h-4.288L190.816,0h4.1l.288-1.328ZM196.976-5.9l.5,2.048H195.92l.528-2.048a5.555,5.555,0,0,0,.176-1.2h.144A11.82,11.82,0,0,0,196.976-5.9Zm10.1,5.9V-3.424l.064-.032a1.746,1.746,0,0,0,.144.336L208.816,0h4.464l-2.4-3.6a1.5,1.5,0,0,0-.56-.5v-.1a2.548,2.548,0,0,0,1.472-.848,2.878,2.878,0,0,0,.592-1.9,3.531,3.531,0,0,0-1.008-2.624,4.254,4.254,0,0,0-3.264-1.1H203.3V0Zm0-7.744h.672a.846.846,0,0,1,.656.288.963.963,0,0,1,.208.64.841.841,0,0,1-.272.656,1.268,1.268,0,0,1-.816.24h-.448Zm13.472,6.416L220.9,0h4.112L221.2-10.672h-4.288L213.216,0h4.1l.288-1.328ZM219.376-5.9l.5,2.048H218.32l.528-2.048a5.556,5.556,0,0,0,.176-1.2h.144A11.82,11.82,0,0,0,219.376-5.9ZM4.848,21V17.576l.064-.032a1.746,1.746,0,0,0,.144.336L6.592,21h4.464l-2.4-3.6a1.5,1.5,0,0,0-.56-.5v-.1a2.548,2.548,0,0,0,1.472-.848,2.879,2.879,0,0,0,.592-1.9,3.531,3.531,0,0,0-1.008-2.624,4.254,4.254,0,0,0-3.264-1.1H1.072V21Zm0-7.744H5.52a.846.846,0,0,1,.656.288.963.963,0,0,1,.208.64.841.841,0,0,1-.272.656,1.268,1.268,0,0,1-.816.24H4.848ZM19.36,21V18.072H15.936V17.048H18.96v-2.8H15.936v-.992h3.328V10.328h-7.2V21Zm4.976,0V17.368A13.157,13.157,0,0,0,24.1,15.4h.112a14.2,14.2,0,0,0,.736,1.392L27.6,21h3.712V10.328H27.6V13.72a12.529,12.529,0,0,0,.336,2.528h-.112a11.5,11.5,0,0,0-1.008-1.888l-2.48-4.032h-3.7V21ZM38.1,21V13.7l2.176.1V10.328h-8.16V13.8l2.176-.1V21Zm8.752-1.328L47.2,21h4.112L47.5,10.328H43.216L39.52,21h4.1l.288-1.328ZM45.68,15.1l.5,2.048H44.624l.528-2.048a5.555,5.555,0,0,0,.176-1.2h.144A11.821,11.821,0,0,0,45.68,15.1ZM52,21h5.424a4.277,4.277,0,0,0,2.736-.816,2.607,2.607,0,0,0,1.008-2.16,2.419,2.419,0,0,0-.784-1.856,2.473,2.473,0,0,0-1.12-.64l.016-.1A2.067,2.067,0,0,0,60.656,13.3a2.749,2.749,0,0,0-.816-2.08,4.774,4.774,0,0,0-3.184-.9H52Zm3.584-8.112h.608a1.27,1.27,0,0,1,.7.176.707.707,0,0,1,.24.56.764.764,0,0,1-.208.56,1.13,1.13,0,0,1-.736.24h-.608Zm0,3.776h.832a1.384,1.384,0,0,1,.848.224.809.809,0,0,1,.288.64.842.842,0,0,1-.368.72,1.575,1.575,0,0,1-.816.176h-.784ZM66.32,21V10.328H62.448V21Zm8.9,0V17.56H71.952V10.328H68.08V21ZM80,21V10.328H76.128V21Zm1.824-7.44H84.9a2.718,2.718,0,0,0,.768-.16l.032.064a6.779,6.779,0,0,0-.848,1.152L80.9,21H91.28V17.7H87.888l-.736.064L87.12,17.7a4.8,4.8,0,0,0,.592-.784l4.048-6.592H81.824Zm17.088,6.112L99.264,21h4.112L99.568,10.328H95.28L91.584,21h4.1l.288-1.328ZM97.744,15.1l.5,2.048H96.688l.528-2.048a5.555,5.555,0,0,0,.176-1.2h.144A11.82,11.82,0,0,0,97.744,15.1Zm10.1,5.9V17.576l.064-.032a1.746,1.746,0,0,0,.144.336L109.584,21h4.464l-2.4-3.6a1.5,1.5,0,0,0-.56-.5v-.1a2.548,2.548,0,0,0,1.472-.848,2.878,2.878,0,0,0,.592-1.9,3.531,3.531,0,0,0-1.008-2.624,4.254,4.254,0,0,0-3.264-1.1h-4.816V21Zm0-7.744h.672a.846.846,0,0,1,.656.288.963.963,0,0,1,.208.64.841.841,0,0,1-.272.656,1.268,1.268,0,0,1-.816.24h-.448Zm21.92,2.4a5.429,5.429,0,0,0-1.488-3.856,6.593,6.593,0,0,0-8.864,0,5.429,5.429,0,0,0-1.488,3.856,5.441,5.441,0,0,0,1.488,3.872,6.593,6.593,0,0,0,8.864,0A5.441,5.441,0,0,0,129.76,15.656Zm-5.92-2.128a1.931,1.931,0,0,1,1.392.544,2.171,2.171,0,0,1,.608,1.6,2.236,2.236,0,0,1-.608,1.584,2.053,2.053,0,0,1-2.784,0,2.267,2.267,0,0,1-.608-1.584,2.4,2.4,0,0,1,.608-1.6A1.852,1.852,0,0,1,123.84,13.528Zm18.416-2.512a6.029,6.029,0,0,0-3.248-.928,4.969,4.969,0,0,0-3.712,1.376,3.453,3.453,0,0,0-1.04,2.544,2.663,2.663,0,0,0,.768,1.968,3.221,3.221,0,0,0,1.856.912l.944.176a1.45,1.45,0,0,1,.736.256.518.518,0,0,1,.128.368.572.572,0,0,1-.208.48,1.325,1.325,0,0,1-.832.192,3.759,3.759,0,0,1-2.16-.784l-.416-.32L133.9,20.264l.352.144a8.871,8.871,0,0,0,3.632.832,5.029,5.029,0,0,0,3.76-1.36,3.438,3.438,0,0,0,.96-2.512,2.85,2.85,0,0,0-.816-2.112,3.6,3.6,0,0,0-1.824-.912l-1.232-.272c-.592-.128-.624-.336-.624-.56a.437.437,0,0,1,.192-.384,1.273,1.273,0,0,1,.736-.192,4.14,4.14,0,0,1,2.176.8ZM151.184,21V18.072H147.76V17.048h3.024v-2.8H147.76v-.992h3.328V10.328h-7.2V21Zm1.28-3.856a3.769,3.769,0,0,0,.976,2.688,5.262,5.262,0,0,0,3.968,1.408,5.17,5.17,0,0,0,3.808-1.328,4.249,4.249,0,0,0,1.12-3.04V10.328H158.48V16.52a1.668,1.668,0,0,1-.288,1.12,1.057,1.057,0,0,1-.784.256.967.967,0,0,1-.768-.288,1.538,1.538,0,0,1-.336-1.088V10.328h-3.84ZM171.136,21V17.368a13.157,13.157,0,0,0-.24-1.968h.112a14.2,14.2,0,0,0,.736,1.392L174.4,21h3.712V10.328H174.4V13.72a12.529,12.529,0,0,0,.336,2.528h-.112a11.494,11.494,0,0,0-1.008-1.888l-2.48-4.032h-3.7V21Zm16.032,0V18.072h-3.424V17.048h3.024v-2.8h-3.024v-.992h3.328V10.328h-7.2V21Zm6.5-3.68h1.76a1.59,1.59,0,0,1-1.584.912,1.778,1.778,0,0,1-1.264-.48,2.69,2.69,0,0,1-.7-1.9,2.7,2.7,0,0,1,.784-2.016,1.99,1.99,0,0,1,1.36-.5,1.666,1.666,0,0,1,1.472.816l3.616-1.344a4.961,4.961,0,0,0-2.048-1.968,6.4,6.4,0,0,0-3.136-.752,6.06,6.06,0,0,0-4.48,1.68,5.389,5.389,0,0,0-1.472,3.92,5.331,5.331,0,0,0,1.376,3.792,5.718,5.718,0,0,0,4.4,1.76,6.215,6.215,0,0,0,4.528-1.744,6.256,6.256,0,0,0,1.392-4.464v-.24h-6Zm18.624-1.664A5.429,5.429,0,0,0,210.8,11.8a6.593,6.593,0,0,0-8.864,0,5.429,5.429,0,0,0-1.488,3.856,5.441,5.441,0,0,0,1.488,3.872,6.593,6.593,0,0,0,8.864,0A5.441,5.441,0,0,0,212.288,15.656Zm-5.92-2.128a1.931,1.931,0,0,1,1.392.544,2.171,2.171,0,0,1,.608,1.6,2.236,2.236,0,0,1-.608,1.584,2.053,2.053,0,0,1-2.784,0,2.267,2.267,0,0,1-.608-1.584,2.4,2.4,0,0,1,.608-1.6A1.852,1.852,0,0,1,206.368,13.528ZM205.2,8.536l1.392.88,2.336-2.048L207.056,6.2Zm16.176,8.288a2.983,2.983,0,0,1-2.16,1.008,2.205,2.205,0,0,1-1.584-.608,2.113,2.113,0,0,1-.624-1.536,2.258,2.258,0,0,1,.56-1.52,2.1,2.1,0,0,1,1.552-.656,3.38,3.38,0,0,1,2.256,1.056l-.112-4.064a8.057,8.057,0,0,0-2.544-.416,5.514,5.514,0,0,0-4.032,1.616,5.7,5.7,0,0,0-1.6,4.048,5.511,5.511,0,0,0,1.552,3.936,5.6,5.6,0,0,0,3.936,1.552,8.151,8.151,0,0,0,2.688-.432ZM226.512,21V10.328H222.64V21Zm13.12-5.344a5.429,5.429,0,0,0-1.488-3.856,6.593,6.593,0,0,0-8.864,0,5.429,5.429,0,0,0-1.488,3.856,5.441,5.441,0,0,0,1.488,3.872,6.593,6.593,0,0,0,8.864,0A5.441,5.441,0,0,0,239.632,15.656Zm-5.92-2.128a1.931,1.931,0,0,1,1.392.544,2.171,2.171,0,0,1,.608,1.6,2.236,2.236,0,0,1-.608,1.584,2.053,2.053,0,0,1-2.784,0,2.267,2.267,0,0,1-.608-1.584,2.4,2.4,0,0,1,.608-1.6A1.852,1.852,0,0,1,233.712,13.528Zm11.072,5.888a1.737,1.737,0,0,0-.5-1.168,2.43,2.43,0,0,0-3.216,0,1.642,1.642,0,0,0,0,2.352,2.43,2.43,0,0,0,3.216,0A1.744,1.744,0,0,0,244.784,19.416Z" transform="translate(128 205)" fill="#edede3"/>
  </g>
</svg>
