<svg xmlns="http://www.w3.org/2000/svg" xmlns:xlink="http://www.w3.org/1999/xlink" width="300" height="87" viewBox="0 0 300 87">
  <defs>
    <clipPath id="clip-path">
      <rect id="Rectangle_2813" data-name="Rectangle 2813" width="300" height="87" transform="translate(338 1235.328)" fill="#fff" stroke="#707070" stroke-width="1"/>
    </clipPath>
  </defs>
  <g id="scudo-escudo" transform="translate(-338 -1235.328)" clip-path="url(#clip-path)">
    <g id="Group_4349" data-name="Group 4349" transform="translate(7.5 12.569)">
      <path id="Path_4722" data-name="Path 4722" d="M26.832-29.952a18.087,18.087,0,0,0-9.744-2.784C12-32.736,8.4-31.1,5.952-28.608a10.358,10.358,0,0,0-3.12,7.632,7.991,7.991,0,0,0,2.3,5.9A9.662,9.662,0,0,0,10.7-12.336l2.832.528a4.35,4.35,0,0,1,2.208.768,1.553,1.553,0,0,1,.384,1.1A1.716,1.716,0,0,1,15.5-8.5a3.976,3.976,0,0,1-2.5.576,11.278,11.278,0,0,1-6.48-2.352l-1.248-.96-3.5,9.024,1.056.432a26.612,26.612,0,0,0,10.9,2.5c6,0,9.456-2.208,11.28-4.08a10.313,10.313,0,0,0,2.88-7.536,8.548,8.548,0,0,0-2.448-6.336,10.812,10.812,0,0,0-5.472-2.736l-3.7-.816c-1.776-.384-1.872-1.008-1.872-1.68a1.31,1.31,0,0,1,.576-1.152,3.818,3.818,0,0,1,2.208-.576,12.421,12.421,0,0,1,6.528,2.4ZM56.3-12.528A8.948,8.948,0,0,1,49.824-9.5a6.616,6.616,0,0,1-4.752-1.824A6.34,6.34,0,0,1,43.2-15.936a6.774,6.774,0,0,1,1.68-4.56,6.3,6.3,0,0,1,4.656-1.968A10.14,10.14,0,0,1,56.3-19.3l-.336-12.192a24.172,24.172,0,0,0-7.632-1.248,16.543,16.543,0,0,0-12.1,4.848,17.11,17.11,0,0,0-4.8,12.144A16.532,16.532,0,0,0,36.1-3.936,16.81,16.81,0,0,0,47.9.72a24.451,24.451,0,0,0,8.064-1.3Zm4.944.96A11.307,11.307,0,0,0,64.176-3.5C67.824.432,73.152.72,76.08.72,79.632.72,84.24.1,87.5-3.264a12.747,12.747,0,0,0,3.36-9.12V-32.016H79.3V-13.44c0,.816,0,2.5-.864,3.36a3.171,3.171,0,0,1-2.352.768,2.9,2.9,0,0,1-2.3-.864,4.613,4.613,0,0,1-1.008-3.264V-32.016H61.248ZM112.512,0a15.729,15.729,0,0,0,11.472-4.512A15,15,0,0,0,128.112-15.6c0-5.9-2.256-9.5-4.32-11.568-4.656-4.608-11.472-4.848-14.16-4.848H97.3V0Zm-3.7-22.224h1.248a6.56,6.56,0,0,1,4.56,1.536,6.681,6.681,0,0,1,1.872,4.8,6.034,6.034,0,0,1-1.872,4.608,7.036,7.036,0,0,1-4.944,1.488h-.864Zm58.32,6.192A16.288,16.288,0,0,0,162.672-27.6a18.293,18.293,0,0,0-13.3-5.136,18.293,18.293,0,0,0-13.3,5.136,16.288,16.288,0,0,0-4.464,11.568A16.323,16.323,0,0,0,136.08-4.416,18.293,18.293,0,0,0,149.376.72a18.293,18.293,0,0,0,13.3-5.136A16.323,16.323,0,0,0,167.136-16.032Zm-17.76-6.384a5.793,5.793,0,0,1,4.176,1.632,6.513,6.513,0,0,1,1.824,4.8,6.708,6.708,0,0,1-1.824,4.752A5.824,5.824,0,0,1,149.376-9.6a5.824,5.824,0,0,1-4.176-1.632,6.8,6.8,0,0,1-1.824-4.752,7.187,7.187,0,0,1,1.824-4.8A5.555,5.555,0,0,1,149.376-22.416Z" transform="translate(333.5 1268.274)" fill="none" stroke="#202550" stroke-width="2"/>
      <path id="Path_4719" data-name="Path 4719" d="M8.9-3.336A2.679,2.679,0,0,1,6.48-1.968a2.474,2.474,0,0,1-2.088-.984,3.066,3.066,0,0,1-.5-1.752h7.776v-.24a6.213,6.213,0,0,0-1.248-4.08,4.967,4.967,0,0,0-4.056-1.7A5.324,5.324,0,0,0,2.448-9.264,5.535,5.535,0,0,0,.864-5.184,5.236,5.236,0,0,0,2.5-1.128,5.439,5.439,0,0,0,6.48.336,5.134,5.134,0,0,0,11.592-2.9Zm-4.92-3.24A2.446,2.446,0,0,1,6.432-8.664,2.447,2.447,0,0,1,8.9-6.576Zm10.992,2.4h6.24V-6.864h-6.24ZM33.744-14.5a6.156,6.156,0,0,0-4.536-1.872c-3.552,0-5.136,2.352-5.136,4.7a3.725,3.725,0,0,0,1.272,2.976A7.7,7.7,0,0,0,28.008-7.3,7.17,7.17,0,0,1,30.48-6.12,1.859,1.859,0,0,1,31.1-4.68a2.245,2.245,0,0,1-2.472,2.208,3.753,3.753,0,0,1-3.36-2.136l-2.04,1.944A6.589,6.589,0,0,0,28.752.36C32.064.36,34.32-1.776,34.32-4.9a4.354,4.354,0,0,0-1.368-3.36,9.313,9.313,0,0,0-3.24-1.608,5.457,5.457,0,0,1-1.92-.912,1.348,1.348,0,0,1-.5-1.08c0-.816.528-1.872,2.208-1.872a3.127,3.127,0,0,1,2.616,1.368Zm10.7,4.392a6.2,6.2,0,0,0-2.808-.624A5.535,5.535,0,0,0,37.9-9.384,5.552,5.552,0,0,0,36.1-5.16a5.336,5.336,0,0,0,1.656,3.984A5.865,5.865,0,0,0,41.76.336a5.935,5.935,0,0,0,2.688-.648V-3.168a3.391,3.391,0,0,1-2.3.912A2.894,2.894,0,0,1,39.12-5.208a2.792,2.792,0,0,1,2.928-2.928,3.376,3.376,0,0,1,2.4.912Zm2.208-.288v6.36A3.928,3.928,0,0,0,47.928-.84,5.971,5.971,0,0,0,51.7.336,5.971,5.971,0,0,0,55.464-.84a3.928,3.928,0,0,0,1.272-3.192v-6.36H53.808v5.88a2.336,2.336,0,0,1-.624,1.824A2.384,2.384,0,0,1,51.7-2.16a2.384,2.384,0,0,1-1.488-.528,2.336,2.336,0,0,1-.624-1.824v-5.88ZM67.488-9.048a3.764,3.764,0,0,0-3.336-1.68,5.2,5.2,0,0,0-5.16,5.52A5.274,5.274,0,0,0,64.3.336a3.727,3.727,0,0,0,3.192-1.68V0h2.928V-17.5H67.488ZM64.9-8.136a2.826,2.826,0,0,1,2.88,2.928A2.846,2.846,0,0,1,64.9-2.256a2.846,2.846,0,0,1-2.88-2.952A2.826,2.826,0,0,1,64.9-8.136Zm13.728-2.592a5.98,5.98,0,0,0-4.2,1.464,5.475,5.475,0,0,0-1.752,4.08,5.46,5.46,0,0,0,1.752,4.056,5.98,5.98,0,0,0,4.2,1.464,5.98,5.98,0,0,0,4.2-1.464,5.46,5.46,0,0,0,1.752-4.056,5.475,5.475,0,0,0-1.752-4.08A5.98,5.98,0,0,0,78.624-10.728Zm0,8.472A2.894,2.894,0,0,1,75.7-5.184a2.9,2.9,0,0,1,2.928-2.952,2.9,2.9,0,0,1,2.928,2.952A2.894,2.894,0,0,1,78.624-2.256Z" transform="translate(452 1289.959)" fill="#891039"/>
      <g id="flag-color" transform="translate(426.032 1273.919)">
        <g id="Group_462" data-name="Group 462" transform="translate(0 0)">
          <path id="Path_134" data-name="Path 134" d="M7.293,0,2.307,16.71H0L4.985,0Z" fill="#891039"/>
        </g>
        <g id="Group_463" data-name="Group 463" transform="translate(5.238 0)">
          <path id="Path_135" data-name="Path 135" d="M403.992,0l-4.985,16.71H396.7L401.685,0Z" transform="translate(-396.7)" fill="#891039"/>
        </g>
        <g id="Group_464" data-name="Group 464" transform="translate(10.438 0)">
          <path id="Path_136" data-name="Path 136" d="M797.892,0l-4.985,16.71H790.6L795.586,0Z" transform="translate(-790.6)" fill="#891039"/>
        </g>
        <g id="Group_465" data-name="Group 465" transform="translate(15.674 0)">
          <path id="Path_137" data-name="Path 137" d="M1194.494,0l-4.986,16.71H1187.2L1192.185,0Z" transform="translate(-1187.2)" fill="#891039"/>
        </g>
      </g>
    </g>
  </g>
</svg>
