<svg xmlns="http://www.w3.org/2000/svg" xmlns:xlink="http://www.w3.org/1999/xlink" width="300" height="131" viewBox="0 0 300 131">
  <defs>
    <clipPath id="clip-path">
      <rect id="Rectangle_2801" data-name="Rectangle 2801" width="300" height="131" transform="translate(48.305 1350)" fill="#00ff3b"/>
    </clipPath>
  </defs>
  <g id="logo-scudo" transform="translate(-48.305 -1350)" clip-path="url(#clip-path)">
    <g id="Titulo-escudo" transform="translate(-38.235 -101.808)">
      <g id="nome-versao" transform="translate(161.341 1553.687)">
        <path id="Path_4644" data-name="Path 4644" d="M12.99,3.86A4.041,4.041,0,0,1,9.334,5.923,3.731,3.731,0,0,1,6.185,4.439,4.625,4.625,0,0,1,5.425,1.8H17.153V1.435A9.37,9.37,0,0,0,15.27-4.719a7.491,7.491,0,0,0-6.117-2.57,8.03,8.03,0,0,0-5.9,2.208A8.348,8.348,0,0,0,.864,1.073,7.9,7.9,0,0,0,3.325,7.19,8.2,8.2,0,0,0,9.334,9.4c5.466,0,7.239-3.728,7.71-4.887ZM5.57-1.026A3.689,3.689,0,0,1,9.262-4.176,3.691,3.691,0,0,1,12.99-1.026Zm16.578,3.62h9.411V-1.461H22.148ZM50.454-12.971a9.285,9.285,0,0,0-6.841-2.823c-5.357,0-7.746,3.547-7.746,7.095a5.618,5.618,0,0,0,1.918,4.488,11.617,11.617,0,0,0,4.018,2.1A10.814,10.814,0,0,1,45.531-.339a2.8,2.8,0,0,1,.941,2.172c0,2.027-1.593,3.33-3.728,3.33a5.661,5.661,0,0,1-5.068-3.222L34.6,4.874a9.937,9.937,0,0,0,8.325,4.561c5,0,8.4-3.222,8.4-7.927A6.567,6.567,0,0,0,49.259-3.56a14.046,14.046,0,0,0-4.887-2.425,8.23,8.23,0,0,1-2.9-1.375,2.033,2.033,0,0,1-.76-1.629c0-1.231.8-2.823,3.33-2.823A4.716,4.716,0,0,1,47.992-9.75ZM66.6-6.347a9.351,9.351,0,0,0-4.235-.941,8.348,8.348,0,0,0-5.647,2.027A8.373,8.373,0,0,0,54,1.109a8.048,8.048,0,0,0,2.5,6.009A8.846,8.846,0,0,0,62.543,9.4,8.951,8.951,0,0,0,66.6,8.421V4.113a5.114,5.114,0,0,1-3.475,1.375,4.365,4.365,0,0,1-4.561-4.452,4.211,4.211,0,0,1,4.416-4.416A5.092,5.092,0,0,1,66.6-2Zm3.33-.434V2.81a5.924,5.924,0,0,0,1.918,4.814,9.991,9.991,0,0,0,11.366,0A5.924,5.924,0,0,0,85.13,2.81V-6.782H80.714V2.086a3.524,3.524,0,0,1-.941,2.751,3.56,3.56,0,0,1-4.488,0,3.524,3.524,0,0,1-.941-2.751V-6.782Zm31.419,2.027a5.677,5.677,0,0,0-5.031-2.534c-4.633,0-7.782,3.692-7.782,8.325,0,4.6,3.185,8.361,8,8.361a5.621,5.621,0,0,0,4.814-2.534V8.891h4.416V-17.5h-4.416ZM97.437-3.379a4.262,4.262,0,0,1,4.344,4.416,4.345,4.345,0,1,1-8.687,0A4.262,4.262,0,0,1,97.437-3.379Zm20.7-3.909a9.019,9.019,0,0,0-6.334,2.208,8.257,8.257,0,0,0-2.642,6.153,8.235,8.235,0,0,0,2.642,6.117,10.19,10.19,0,0,0,12.669,0,8.235,8.235,0,0,0,2.642-6.117,8.257,8.257,0,0,0-2.642-6.153A9.019,9.019,0,0,0,118.142-7.289Zm0,12.777a4.364,4.364,0,0,1-4.416-4.416,4.416,4.416,0,1,1,8.832,0A4.364,4.364,0,0,1,118.142,5.489Z" transform="translate(39.604 17.496)" fill="#891039"/>
        <g id="flag-color" transform="translate(0 2.195)">
          <g id="Group_462" data-name="Group 462" transform="translate(0 0)">
            <path id="Path_134" data-name="Path 134" d="M11,0,3.479,25.2H0L7.519,0Z" fill="#891039"/>
          </g>
          <g id="Group_463" data-name="Group 463" transform="translate(7.899 0)">
            <path id="Path_135" data-name="Path 135" d="M407.7,0l-7.519,25.2H396.7L404.218,0Z" transform="translate(-396.7)" fill="#891039"/>
          </g>
          <g id="Group_464" data-name="Group 464" transform="translate(15.743 0)">
            <path id="Path_136" data-name="Path 136" d="M801.6,0l-7.519,25.2H790.6L798.119,0Z" transform="translate(-790.6)" fill="#891039"/>
          </g>
          <g id="Group_465" data-name="Group 465" transform="translate(23.64 0)">
            <path id="Path_137" data-name="Path 137" d="M1198.2,0l-7.521,25.2H1187.2L1194.719,0Z" transform="translate(-1187.2)" fill="#891039"/>
          </g>
        </g>
      </g>
      <path id="Path_4643" data-name="Path 4643" d="M135.628,21.707a31.826,31.826,0,0,0-17.145-4.9c-8.953,0-15.287,2.872-19.595,7.263A18.226,18.226,0,0,0,93.4,37.5a14.06,14.06,0,0,0,4.054,10.388,17,17,0,0,0,9.8,4.814l4.983.929c2.111.422,3.209.676,3.885,1.351a2.732,2.732,0,0,1,.676,1.943,3.019,3.019,0,0,1-1.1,2.534c-.422.338-1.6,1.014-4.392,1.014a19.845,19.845,0,0,1-11.4-4.139l-2.2-1.689L91.54,70.524l1.858.76c4.814,1.943,10.557,4.392,19.172,4.392,10.557,0,16.638-3.885,19.848-7.179a18.147,18.147,0,0,0,5.068-13.26,15.041,15.041,0,0,0-4.307-11.149,19.024,19.024,0,0,0-9.628-4.814l-6.5-1.436c-3.125-.676-3.294-1.774-3.294-2.956a2.3,2.3,0,0,1,1.013-2.027,6.719,6.719,0,0,1,3.885-1.014c4.561,0,9.037,2.534,11.486,4.223Zm51.858,30.659a15.744,15.744,0,0,1-11.4,5.321,11.642,11.642,0,0,1-8.361-3.209,11.155,11.155,0,0,1-3.294-8.108,11.92,11.92,0,0,1,2.956-8.024,11.082,11.082,0,0,1,8.193-3.463c5.152,0,9.544,3.209,11.909,5.574L186.894,19a42.533,42.533,0,0,0-13.429-2.2,29.109,29.109,0,0,0-21.284,8.53,30.106,30.106,0,0,0-8.446,21.368c0,7.939,2.872,15.54,8.193,20.777a29.578,29.578,0,0,0,20.777,8.193,43.024,43.024,0,0,0,14.189-2.28Zm8.7,1.689a19.9,19.9,0,0,0,5.152,14.189c6.419,6.926,15.794,7.432,20.946,7.432,6.25,0,14.358-1.1,20.1-7.01,5.068-5.236,5.912-11.655,5.912-16.047V18.075H227.942V50.761c0,1.436,0,4.392-1.52,5.912a5.579,5.579,0,0,1-4.138,1.351,5.1,5.1,0,0,1-4.054-1.52c-1.6-1.689-1.774-4.054-1.774-5.743V18.075h-20.27Zm90.2,20.355c10.22,0,16.807-4.476,20.186-7.939,6.166-6.166,7.263-13.682,7.263-19.51,0-10.388-3.97-16.723-7.6-20.355-8.193-8.108-20.186-8.53-24.915-8.53H259.614V74.409Zm-6.5-39.1h2.2a11.543,11.543,0,0,1,8.024,2.7,11.756,11.756,0,0,1,3.294,8.446,10.617,10.617,0,0,1-3.294,8.108c-2.872,2.534-6.334,2.618-8.7,2.618h-1.52ZM382.5,46.2a28.659,28.659,0,0,0-7.855-20.355c-4.814-4.9-12.669-9.037-23.4-9.037s-18.581,4.138-23.4,9.037A28.659,28.659,0,0,0,320,46.2c0,9.037,3.463,15.963,7.855,20.439,4.814,4.9,12.669,9.037,23.4,9.037s18.581-4.139,23.4-9.037C379.039,62.163,382.5,55.237,382.5,46.2Zm-31.25-11.233a10.193,10.193,0,0,1,7.348,2.872,11.459,11.459,0,0,1,3.209,8.446,11.8,11.8,0,0,1-3.209,8.361,10.837,10.837,0,0,1-14.7,0,11.968,11.968,0,0,1-3.209-8.361,12.646,12.646,0,0,1,3.209-8.446A9.775,9.775,0,0,1,351.252,34.967Z" transform="translate(0 1437)" fill="none" stroke="#202550" stroke-width="2"/>
    </g>
  </g>
</svg>
