<svg xmlns="http://www.w3.org/2000/svg" width="371.84" height="86.664" viewBox="0 0 371.84 86.664">
  <g id="e-scudo" transform="translate(0 -4.336)">
    <path id="Path_4732" data-name="Path 4732" d="M33.856-13.5c0-3.2-.512-8.192-4.544-12.032A15.672,15.672,0,0,0,18.3-29.44c-5.632,0-9.344,1.856-11.712,4.16A15.269,15.269,0,0,0,2.3-14.208,14.983,14.983,0,0,0,6.528-3.392C10.048.128,14.592.96,18.368.96,24.576.96,27.9-.96,30.016-3.008A12.86,12.86,0,0,0,33.472-8.9H23.68a4.765,4.765,0,0,1-1.792,1.92,8.08,8.08,0,0,1-3.328.768,5.753,5.753,0,0,1-4.224-1.408,7.226,7.226,0,0,1-1.792-4.8H33.856ZM12.864-18.3A5.839,5.839,0,0,1,14.4-21.376a5.5,5.5,0,0,1,4.16-1.536,5.966,5.966,0,0,1,4.224,1.536A6.864,6.864,0,0,1,24.448-18.3Zm30.592,5.376H59.648V-21.44H43.456ZM65.408-3.84A29.8,29.8,0,0,0,71.872-.448,22.817,22.817,0,0,0,80.256.96c4.544,0,8.96-.7,12.608-4.352C95.936-6.464,96.9-10.24,96.9-14.144a10.078,10.078,0,0,0-2.752-7.616c-2.24-2.432-5.056-3.392-7.744-4.224l-3.392-1.024c-2.624-.768-3.392-1.536-3.712-1.92a2.855,2.855,0,0,1-.576-1.92,3.159,3.159,0,0,1,1.088-2.3,5.317,5.317,0,0,1,3.648-1.28c1.472,0,3.968.256,7.3,2.88l4.416-8.64a29.985,29.985,0,0,0-13.184-3.456c-5.184,0-8.768,1.856-10.944,4.032a13.957,13.957,0,0,0-3.9,10.3c0,2.176.256,5.184,2.432,7.552A13.942,13.942,0,0,0,75.712-18.3l2.88.9c2.752.832,4.416,1.28,5.5,2.24a3.335,3.335,0,0,1,1.216,2.56A3.818,3.818,0,0,1,84.224-9.92a5.619,5.619,0,0,1-4.288,1.472c-3.84,0-7.424-2.112-9.792-4.352Zm69.12-10.432a12.528,12.528,0,0,1-9.664,4.48,11.92,11.92,0,0,1-7.936-2.944,11.778,11.778,0,0,1-3.456-8.32,11.922,11.922,0,0,1,3.712-8.768,10.812,10.812,0,0,1,7.68-2.816,11.887,11.887,0,0,1,9.664,4.672V-41.216a26.463,26.463,0,0,0-9.984-2.176,22.648,22.648,0,0,0-16.128,6.656,22.859,22.859,0,0,0-6.464,15.744A22.4,22.4,0,0,0,108.416-5.44,23.216,23.216,0,0,0,124.928.96c2.752,0,5.184-.512,9.6-2.112Zm7.04-28.416v24.512c0,4.544.448,9.984,4.16,14.016,2.624,2.816,7.424,5.12,14.144,5.12,6.016,0,10.5-1.664,14.08-5.312,4.608-4.672,4.8-9.344,4.8-13.824V-42.688H167.68v24.32c0,2.368.064,5.5-2.5,7.744a8.054,8.054,0,0,1-5.12,1.856,8,8,0,0,1-5.248-2.048c-2.112-2.048-2.176-4.8-2.176-6.592v-25.28ZM203.2,0a23.183,23.183,0,0,0,16.384-6.464c4.16-4.16,5.568-9.152,5.568-14.784,0-4.608-.96-10.752-5.952-15.552-5.5-5.312-12.672-5.888-16.96-5.888H187.712V0Zm-4.416-33.28h2.688c2.752,0,6.208.256,8.832,2.688,2.112,1.984,3.328,5.376,3.328,9.344,0,4.736-1.856,7.424-3.264,8.768-2.88,2.816-6.656,3.072-9.344,3.072h-2.24Zm78.592,11.968a22.082,22.082,0,0,0-6.72-16,24.334,24.334,0,0,0-16.832-6.336,24.334,24.334,0,0,0-16.832,6.336,22.082,22.082,0,0,0-6.72,16,22.15,22.15,0,0,0,6.72,15.936A24.334,24.334,0,0,0,253.824.96a24.334,24.334,0,0,0,16.832-6.336A22.15,22.15,0,0,0,277.376-21.312ZM253.824-32.9A12.778,12.778,0,0,1,262.4-29.5a11.519,11.519,0,0,1,3.456,8.192A11.755,11.755,0,0,1,262.4-13.12a11.7,11.7,0,0,1-8.576,3.328,12.111,12.111,0,0,1-8.64-3.392,10.849,10.849,0,0,1-3.392-7.936,11.7,11.7,0,0,1,3.392-8.384A12.3,12.3,0,0,1,253.824-32.9Z" transform="translate(80 85.178)" fill="#edede3"/>
    <path id="Path_4731" data-name="Path 4731" d="M8.88,12.832a3.366,3.366,0,0,1-2.448,1.1A3.122,3.122,0,0,1,3.2,10.688,3.418,3.418,0,0,1,4.208,8.224a2.994,2.994,0,0,1,2.176-.832,3.382,3.382,0,0,1,2.5,1.136V5.68a6.353,6.353,0,0,0-2.56-.592A5.665,5.665,0,0,0,2.336,6.624,5.567,5.567,0,0,0,.672,10.64a5.587,5.587,0,0,0,1.664,4.048A5.716,5.716,0,0,0,6.528,16.24a4.958,4.958,0,0,0,2.352-.576Zm9.728-.4a3.834,3.834,0,0,0-1.072-2.656,4.4,4.4,0,0,0-3.12-1.152A4.4,4.4,0,0,0,11.3,9.776a3.826,3.826,0,0,0,0,5.312,4.4,4.4,0,0,0,3.12,1.152,4.4,4.4,0,0,0,3.12-1.152A3.834,3.834,0,0,0,18.608,12.432Zm-4.192-1.856a1.76,1.76,0,0,1,1.3.512,1.806,1.806,0,0,1,.528,1.344,1.806,1.806,0,0,1-.528,1.344,1.749,1.749,0,0,1-1.28.512,1.774,1.774,0,0,1-1.312-.512,1.811,1.811,0,0,1-.528-1.344,1.806,1.806,0,0,1,.528-1.344A1.76,1.76,0,0,1,14.416,10.576ZM20.048,16h2.3V12.336a1.826,1.826,0,0,1,.448-1.36,1.252,1.252,0,0,1,.96-.384,1.208,1.208,0,0,1,.88.32,1.978,1.978,0,0,1,.384,1.424V16h2.3V11.488a2.8,2.8,0,0,0-.72-2.1,2.812,2.812,0,0,0-2.048-.72,2.606,2.606,0,0,0-2.208,1.04V8.864h-2.3Zm9.136,0h2.3V12.432a2.032,2.032,0,0,1,.48-1.488,1.251,1.251,0,0,1,.912-.352,1.306,1.306,0,0,1,.9.32,1.919,1.919,0,0,1,.384,1.424V16h2.3V11.472a2.826,2.826,0,0,0-.7-2.08,2.715,2.715,0,0,0-2.016-.72,2.682,2.682,0,0,0-1.392.3,2.9,2.9,0,0,0-.864.736V4.336h-2.3Zm10.8-4.544a1.6,1.6,0,0,1,.4-.768,1.691,1.691,0,0,1,2.256-.064,1.815,1.815,0,0,1,.464.832Zm5.248,1.136a4.07,4.07,0,0,0-1.008-2.9,4.222,4.222,0,0,0-5.568-.048,4.063,4.063,0,0,0-1.088,2.816,3.833,3.833,0,0,0,1.072,2.752,3.7,3.7,0,0,0,2.848,1.024,4.237,4.237,0,0,0,2.256-.528A3.191,3.191,0,0,0,45.12,13.92L42.944,13.7a1.4,1.4,0,0,1-.5.592,1.893,1.893,0,0,1-.928.208,1.546,1.546,0,0,1-1.184-.448,1.95,1.95,0,0,1-.432-1.216h5.328Zm6.8-3.568a4.067,4.067,0,0,0-1.808-.4,3.745,3.745,0,0,0-3.9,3.824,3.72,3.72,0,0,0,1.12,2.72,3.835,3.835,0,0,0,2.768,1.072,3.565,3.565,0,0,0,1.824-.432v-2.08a2.249,2.249,0,0,1-1.472.56,1.9,1.9,0,0,1-1.392-.576,1.848,1.848,0,0,1-.48-1.28,1.88,1.88,0,0,1,.528-1.344,1.835,1.835,0,0,1,1.312-.512,2.313,2.313,0,0,1,1.5.544Zm-2.176,7.712-1.568,2.4,1.184.64L51.36,17.44ZM59.04,9.664a2.677,2.677,0,0,0-2.24-1.04,3.44,3.44,0,0,0-2.48.976,4.064,4.064,0,0,0-1.1,2.88,3.776,3.776,0,0,0,1.04,2.672,3.382,3.382,0,0,0,2.672,1.088,2.378,2.378,0,0,0,2.112-1.1V16h2.3V8.864h-2.3Zm-1.664.944a1.928,1.928,0,0,1,1.28.5,1.893,1.893,0,0,1-.032,2.656,1.707,1.707,0,0,1-1.2.5,1.892,1.892,0,0,1-1.36-.56,1.84,1.84,0,0,1-.48-1.28,1.783,1.783,0,0,1,.528-1.3A1.816,1.816,0,0,1,57.376,10.608Zm14.96-.944a2.677,2.677,0,0,0-2.24-1.04,3.44,3.44,0,0,0-2.48.976,4.064,4.064,0,0,0-1.1,2.88,3.776,3.776,0,0,0,1.04,2.672,3.382,3.382,0,0,0,2.672,1.088,2.378,2.378,0,0,0,2.112-1.1V16h2.3V8.864h-2.3Zm-1.664.944a1.928,1.928,0,0,1,1.28.5,1.893,1.893,0,0,1-.032,2.656,1.707,1.707,0,0,1-1.2.5,1.892,1.892,0,0,1-1.36-.56,1.84,1.84,0,0,1-.48-1.28,1.783,1.783,0,0,1,.528-1.3A1.816,1.816,0,0,1,70.672,10.608ZM79.3,8.864,82.912,16h1.44l3.616-7.136H85.44l-1.808,3.824L81.824,8.864ZM90.72,11.456a1.6,1.6,0,0,1,.4-.768,1.691,1.691,0,0,1,2.256-.064,1.814,1.814,0,0,1,.464.832Zm5.248,1.136A4.07,4.07,0,0,0,94.96,9.7a4.222,4.222,0,0,0-5.568-.048A4.063,4.063,0,0,0,88.3,12.464a3.833,3.833,0,0,0,1.072,2.752,3.7,3.7,0,0,0,2.848,1.024,4.237,4.237,0,0,0,2.256-.528,3.191,3.191,0,0,0,1.376-1.792L93.68,13.7a1.4,1.4,0,0,1-.5.592,1.893,1.893,0,0,1-.928.208,1.546,1.546,0,0,1-1.184-.448,1.95,1.95,0,0,1-.432-1.216h5.328ZM97.408,16h2.3V13.1a2.71,2.71,0,0,1,.56-1.92,1.5,1.5,0,0,1,1.152-.48,2.175,2.175,0,0,1,1.04.256l.128-2.16a2.313,2.313,0,0,0-.752-.112,2.208,2.208,0,0,0-1.232.3,2.56,2.56,0,0,0-.9.992V8.864h-2.3Zm11.424-6.768a4.5,4.5,0,0,0-2.368-.608,3.146,3.146,0,0,0-2.16.72,2.211,2.211,0,0,0-.688,1.648,1.76,1.76,0,0,0,.512,1.3,2.85,2.85,0,0,0,1.152.656l.576.176a3.036,3.036,0,0,1,.7.256.471.471,0,0,1,.256.416.608.608,0,0,1-.24.464,1.289,1.289,0,0,1-.72.16,2.154,2.154,0,0,1-.96-.224,3.967,3.967,0,0,1-.784-.528l-.976,1.552a4.241,4.241,0,0,0,2.928,1.024,3.083,3.083,0,0,0,2.32-.816,2.591,2.591,0,0,0,.736-1.872,1.7,1.7,0,0,0-.56-1.36,3.034,3.034,0,0,0-1.184-.624l-.608-.192a4.141,4.141,0,0,1-.688-.24.374.374,0,0,1-.224-.32A.493.493,0,0,1,106,10.5a.978.978,0,0,1,.656-.208,2.62,2.62,0,0,1,1.264.4Zm7.136.432a2.677,2.677,0,0,0-2.24-1.04,3.44,3.44,0,0,0-2.48.976,4.064,4.064,0,0,0-1.1,2.88,3.776,3.776,0,0,0,1.04,2.672,3.382,3.382,0,0,0,2.672,1.088,2.378,2.378,0,0,0,2.112-1.1V16h2.3V8.864h-2.3Zm-1.664.944a1.928,1.928,0,0,1,1.28.5,1.893,1.893,0,0,1-.032,2.656,1.707,1.707,0,0,1-1.2.5,1.892,1.892,0,0,1-1.36-.56,1.84,1.84,0,0,1-.48-1.28,1.783,1.783,0,0,1,.528-1.3A1.816,1.816,0,0,1,114.3,10.608Zm1.76-5.12a.683.683,0,0,1-.64.592,2.506,2.506,0,0,1-.848-.224l-.544-.208a2.81,2.81,0,0,0-.992-.208,1.455,1.455,0,0,0-1.136.48,2.7,2.7,0,0,0-.544,1.008l1.04.7c.144-.384.368-.592.688-.592a2.265,2.265,0,0,1,.784.208l.56.208a3.062,3.062,0,0,0,.944.224,1.63,1.63,0,0,0,1.12-.48,3.809,3.809,0,0,0,.624-1.008ZM128.1,12.432a3.834,3.834,0,0,0-1.072-2.656,4.8,4.8,0,0,0-6.24,0,3.826,3.826,0,0,0,0,5.312,4.8,4.8,0,0,0,6.24,0A3.834,3.834,0,0,0,128.1,12.432ZM123.9,10.576a1.76,1.76,0,0,1,1.3.512,1.806,1.806,0,0,1,.528,1.344,1.806,1.806,0,0,1-.528,1.344,1.749,1.749,0,0,1-1.28.512,1.774,1.774,0,0,1-1.312-.512,1.811,1.811,0,0,1-.528-1.344,1.806,1.806,0,0,1,.528-1.344A1.76,1.76,0,0,1,123.9,10.576Zm11.424.88a1.6,1.6,0,0,1,.4-.768,1.691,1.691,0,0,1,2.256-.064,1.815,1.815,0,0,1,.464.832Zm5.248,1.136a4.07,4.07,0,0,0-1.008-2.9A4.222,4.222,0,0,0,134,9.648a4.063,4.063,0,0,0-1.088,2.816,3.833,3.833,0,0,0,1.072,2.752,3.7,3.7,0,0,0,2.848,1.024,4.237,4.237,0,0,0,2.256-.528,3.191,3.191,0,0,0,1.376-1.792l-2.176-.224a1.4,1.4,0,0,1-.5.592,1.893,1.893,0,0,1-.928.208,1.546,1.546,0,0,1-1.184-.448,1.95,1.95,0,0,1-.432-1.216h5.328Zm1.5-8.256V16h2.3V4.336Zm6.224,7.12a1.6,1.6,0,0,1,.4-.768,1.691,1.691,0,0,1,2.256-.064,1.815,1.815,0,0,1,.464.832Zm5.248,1.136a4.07,4.07,0,0,0-1.008-2.9,4.222,4.222,0,0,0-5.568-.048,4.063,4.063,0,0,0-1.088,2.816,3.833,3.833,0,0,0,1.072,2.752,3.7,3.7,0,0,0,2.848,1.024,4.237,4.237,0,0,0,2.256-.528,3.191,3.191,0,0,0,1.376-1.792l-2.176-.224a1.4,1.4,0,0,1-.5.592,1.893,1.893,0,0,1-.928.208,1.546,1.546,0,0,1-1.184-.448,1.95,1.95,0,0,1-.432-1.216h5.328ZM150.576,4.56l-1.968,2.432,1.04.768L152.08,5.6Zm8.208,6.16V8.864H157.36V6.56h-2.3v2.3h-.8V10.72h.8V16h2.3V10.72Zm.992,5.28h2.3V13.1a2.711,2.711,0,0,1,.56-1.92,1.5,1.5,0,0,1,1.152-.48,2.175,2.175,0,0,1,1.04.256l.128-2.16a2.313,2.313,0,0,0-.752-.112,2.208,2.208,0,0,0-1.232.3,2.56,2.56,0,0,0-.9.992V8.864h-2.3Zm6.3-7.136V16h2.3V8.864Zm-.192-3.04a1.344,1.344,0,1,0,1.344-1.344A1.332,1.332,0,0,0,165.888,5.824Zm9.808,3.2a4.067,4.067,0,0,0-1.808-.4,3.745,3.745,0,0,0-3.9,3.824,3.72,3.72,0,0,0,1.12,2.72,3.835,3.835,0,0,0,2.768,1.072,3.565,3.565,0,0,0,1.824-.432v-2.08a2.249,2.249,0,0,1-1.472.56,1.9,1.9,0,0,1-1.392-.576,1.848,1.848,0,0,1-.48-1.28,1.88,1.88,0,0,1,.528-1.344,1.835,1.835,0,0,1,1.312-.512,2.313,2.313,0,0,1,1.5.544Zm7.008.64a2.677,2.677,0,0,0-2.24-1.04,3.441,3.441,0,0,0-2.48.976,4.064,4.064,0,0,0-1.1,2.88,3.776,3.776,0,0,0,1.04,2.672,3.382,3.382,0,0,0,2.672,1.088,2.378,2.378,0,0,0,2.112-1.1V16h2.3V8.864h-2.3Zm-1.664.944a1.928,1.928,0,0,1,1.28.5,1.893,1.893,0,0,1-.032,2.656,1.707,1.707,0,0,1-1.2.5,1.893,1.893,0,0,1-1.36-.56,1.84,1.84,0,0,1-.48-1.28,1.783,1.783,0,0,1,.528-1.3A1.816,1.816,0,0,1,181.04,10.608ZM198.3,4.336H196V9.664a2.662,2.662,0,0,0-2.224-1.04,3.6,3.6,0,0,0-2.48.96,3.814,3.814,0,0,0-1.12,2.816,4,4,0,0,0,1.12,2.864,3.2,3.2,0,0,0,2.448.976,2.537,2.537,0,0,0,2.256-1.1V16h2.3Zm-3.968,6.272a1.692,1.692,0,0,1,1.3.528,1.839,1.839,0,0,1,.512,1.312,1.735,1.735,0,0,1-.528,1.28,1.966,1.966,0,0,1-1.312.528,1.767,1.767,0,0,1-1.2-.5,1.808,1.808,0,0,1-.56-1.312,1.838,1.838,0,0,1,.56-1.36A1.673,1.673,0,0,1,194.336,10.608Zm13.856,1.824a3.834,3.834,0,0,0-1.072-2.656,4.8,4.8,0,0,0-6.24,0,3.826,3.826,0,0,0,0,5.312,4.8,4.8,0,0,0,6.24,0A3.834,3.834,0,0,0,208.192,12.432ZM204,10.576a1.76,1.76,0,0,1,1.3.512,1.806,1.806,0,0,1,.528,1.344,1.806,1.806,0,0,1-.528,1.344,1.749,1.749,0,0,1-1.28.512,1.774,1.774,0,0,1-1.312-.512,1.811,1.811,0,0,1-.528-1.344,1.806,1.806,0,0,1,.528-1.344A1.76,1.76,0,0,1,204,10.576Zm14.64-1.344a4.5,4.5,0,0,0-2.368-.608,3.146,3.146,0,0,0-2.16.72,2.211,2.211,0,0,0-.688,1.648,1.76,1.76,0,0,0,.512,1.3,2.85,2.85,0,0,0,1.152.656l.576.176a3.037,3.037,0,0,1,.7.256.471.471,0,0,1,.256.416.608.608,0,0,1-.24.464,1.289,1.289,0,0,1-.72.16,2.154,2.154,0,0,1-.96-.224,3.967,3.967,0,0,1-.784-.528l-.976,1.552a4.241,4.241,0,0,0,2.928,1.024,3.083,3.083,0,0,0,2.32-.816,2.591,2.591,0,0,0,.736-1.872,1.7,1.7,0,0,0-.56-1.36,3.035,3.035,0,0,0-1.184-.624l-.608-.192a4.141,4.141,0,0,1-.688-.24.374.374,0,0,1-.224-.32.493.493,0,0,1,.144-.32.978.978,0,0,1,.656-.208,2.62,2.62,0,0,1,1.264.4Zm3.728,2.224a1.6,1.6,0,0,1,.4-.768,1.691,1.691,0,0,1,2.256-.064,1.815,1.815,0,0,1,.464.832Zm5.248,1.136a4.07,4.07,0,0,0-1.008-2.9,4.222,4.222,0,0,0-5.568-.048,4.063,4.063,0,0,0-1.088,2.816,3.833,3.833,0,0,0,1.072,2.752,3.7,3.7,0,0,0,2.848,1.024,4.237,4.237,0,0,0,2.256-.528A3.191,3.191,0,0,0,227.5,13.92l-2.176-.224a1.4,1.4,0,0,1-.5.592,1.893,1.893,0,0,1-.928.208,1.546,1.546,0,0,1-1.184-.448,1.95,1.95,0,0,1-.432-1.216h5.328Zm1.44-3.728v4.3a2.733,2.733,0,0,0,.784,2.144,4.908,4.908,0,0,0,5.744,0,2.863,2.863,0,0,0,.8-2.288V8.864h-2.3V12.8a1.553,1.553,0,0,1-.384,1.152,1.428,1.428,0,0,1-.976.336,1.359,1.359,0,0,1-.96-.336,1.5,1.5,0,0,1-.4-1.152V8.864Zm15.152,6.32a2.575,2.575,0,0,0,2.272,1.056,3.172,3.172,0,0,0,2.416-.96,3.875,3.875,0,0,0,1.136-2.864,3.9,3.9,0,0,0-1.072-2.784,3.457,3.457,0,0,0-2.528-1.008,2.669,2.669,0,0,0-2.224,1.088V8.864h-2.3v10.8h2.3Zm1.664-4.576a1.775,1.775,0,0,1,1.792,1.792,1.954,1.954,0,0,1-.56,1.36,1.829,1.829,0,0,1-1.232.5,1.879,1.879,0,0,1-1.312-.544,1.849,1.849,0,0,1-.512-1.264,1.91,1.91,0,0,1,.544-1.312A1.774,1.774,0,0,1,245.872,10.608Zm5.6,5.392h2.3V13.1a2.711,2.711,0,0,1,.56-1.92,1.5,1.5,0,0,1,1.152-.48,2.175,2.175,0,0,1,1.04.256l.128-2.16a2.313,2.313,0,0,0-.752-.112,2.208,2.208,0,0,0-1.232.3,2.56,2.56,0,0,0-.9.992V8.864h-2.3Zm13.936-3.568a3.834,3.834,0,0,0-1.072-2.656,4.8,4.8,0,0,0-6.24,0,3.826,3.826,0,0,0,0,5.312,4.8,4.8,0,0,0,6.24,0A3.834,3.834,0,0,0,265.408,12.432Zm-4.192-1.856a1.76,1.76,0,0,1,1.3.512,1.806,1.806,0,0,1,.528,1.344,1.806,1.806,0,0,1-.528,1.344,1.749,1.749,0,0,1-1.28.512,1.774,1.774,0,0,1-1.312-.512,1.811,1.811,0,0,1-.528-1.344,1.806,1.806,0,0,1,.528-1.344A1.76,1.76,0,0,1,261.216,10.576Zm.816-6.016-1.968,2.432,1.04.768,2.432-2.16ZM265.824,16H268.8l1.952-2.3L272.7,16h2.976l-3.488-3.888,2.832-3.248H272.08l-1.328,1.648-1.328-1.648H266.48l2.832,3.248Zm10.944-7.136V16h2.3V8.864Zm-.192-3.04A1.344,1.344,0,1,0,277.92,4.48,1.332,1.332,0,0,0,276.576,5.824ZM281.024,16h2.3V12.352a2.167,2.167,0,0,1,.448-1.456,1.123,1.123,0,0,1,.8-.288,1.035,1.035,0,0,1,.768.288,1.922,1.922,0,0,1,.368,1.392V16h2.3V12.448a2.293,2.293,0,0,1,.352-1.408,1.107,1.107,0,0,1,.9-.432,1.057,1.057,0,0,1,.832.384,2.356,2.356,0,0,1,.3,1.392V16h2.3V11.488a2.878,2.878,0,0,0-.736-2.128,2.864,2.864,0,0,0-2-.672A2.742,2.742,0,0,0,287.536,10a2.112,2.112,0,0,0-.864-.992,2.66,2.66,0,0,0-1.344-.32,2.252,2.252,0,0,0-2,1.008V8.864h-2.3Zm21.52-3.568a3.834,3.834,0,0,0-1.072-2.656,4.8,4.8,0,0,0-6.24,0,3.826,3.826,0,0,0,0,5.312,4.8,4.8,0,0,0,6.24,0A3.834,3.834,0,0,0,302.544,12.432Zm-4.192-1.856a1.76,1.76,0,0,1,1.3.512,1.806,1.806,0,0,1,.528,1.344,1.806,1.806,0,0,1-.528,1.344,1.749,1.749,0,0,1-1.28.512,1.774,1.774,0,0,1-1.312-.512,1.811,1.811,0,0,1-.528-1.344,1.806,1.806,0,0,1,.528-1.344A1.76,1.76,0,0,1,298.352,10.576Zm9.36-1.712v4.3a2.733,2.733,0,0,0,.784,2.144,4.908,4.908,0,0,0,5.744,0,2.863,2.863,0,0,0,.8-2.288V8.864h-2.3V12.8a1.553,1.553,0,0,1-.384,1.152,1.428,1.428,0,0,1-.976.336,1.359,1.359,0,0,1-.96-.336,1.5,1.5,0,0,1-.4-1.152V8.864Zm12.912,1.856V8.864H319.2V6.56h-2.3v2.3h-.8V10.72h.8V16h2.3V10.72Zm1.152-1.856V16h2.3V8.864Zm-.192-3.04a1.344,1.344,0,1,0,1.344-1.344A1.332,1.332,0,0,0,321.584,5.824ZM326.1,4.336V16h2.3V4.336Zm4.32,4.528V16h2.3V8.864Zm-.192-3.04a1.344,1.344,0,1,0,1.344-1.344A1.332,1.332,0,0,0,330.224,5.824Zm8.24,4.9V8.864H337.04V6.56h-2.3v2.3h-.8V10.72h.8V16h2.3V10.72Zm6.464-1.056a2.677,2.677,0,0,0-2.24-1.04,3.44,3.44,0,0,0-2.48.976,4.064,4.064,0,0,0-1.1,2.88,3.776,3.776,0,0,0,1.04,2.672,3.382,3.382,0,0,0,2.672,1.088,2.378,2.378,0,0,0,2.112-1.1V16h2.3V8.864h-2.3Zm-1.664.944a1.928,1.928,0,0,1,1.28.5,1.893,1.893,0,0,1-.032,2.656,1.707,1.707,0,0,1-1.2.5,1.893,1.893,0,0,1-1.36-.56,1.84,1.84,0,0,1-.48-1.28,1.783,1.783,0,0,1,.528-1.3A1.816,1.816,0,0,1,343.264,10.608Zm.848-6.048-1.968,2.432,1.04.768,2.432-2.16ZM349.024,16h2.3V13.1a2.71,2.71,0,0,1,.56-1.92,1.5,1.5,0,0,1,1.152-.48,2.175,2.175,0,0,1,1.04.256l.128-2.16a2.313,2.313,0,0,0-.752-.112,2.208,2.208,0,0,0-1.232.3,2.56,2.56,0,0,0-.9.992V8.864h-2.3Zm6.3-7.136V16h2.3V8.864Zm-.192-3.04A1.344,1.344,0,1,0,356.48,4.48,1.332,1.332,0,0,0,355.136,5.824Zm12.48,6.608a3.834,3.834,0,0,0-1.072-2.656,4.8,4.8,0,0,0-6.24,0,3.826,3.826,0,0,0,0,5.312,4.8,4.8,0,0,0,6.24,0A3.834,3.834,0,0,0,367.616,12.432Zm-4.192-1.856a1.76,1.76,0,0,1,1.3.512,1.806,1.806,0,0,1,.528,1.344,1.806,1.806,0,0,1-.528,1.344,1.749,1.749,0,0,1-1.28.512,1.774,1.774,0,0,1-1.312-.512,1.811,1.811,0,0,1-.528-1.344,1.806,1.806,0,0,1,.528-1.344A1.76,1.76,0,0,1,363.424,10.576Zm5.5,4.224a1.456,1.456,0,1,0,1.456-1.456A1.441,1.441,0,0,0,368.928,14.8Z" fill="#edede3"/>
    <g id="flag-color" transform="translate(0 38)">
      <g id="Group_462" data-name="Group 462" transform="translate(0 0)">
        <path id="Path_134" data-name="Path 134" d="M23.133,0,7.317,53H0L15.812,0Z" fill="#278f53"/>
      </g>
      <g id="Group_463" data-name="Group 463" transform="translate(16.612 0)">
        <path id="Path_135" data-name="Path 135" d="M419.829,0,404.017,53H396.7L412.512,0Z" transform="translate(-396.7)" fill="#278f53"/>
      </g>
      <g id="Group_464" data-name="Group 464" transform="translate(33.108 0)">
        <path id="Path_136" data-name="Path 136" d="M813.729,0,797.917,53H790.6L806.412,0Z" transform="translate(-790.6)" fill="#278f53"/>
      </g>
      <g id="Group_465" data-name="Group 465" transform="translate(49.716 0)">
        <path id="Path_137" data-name="Path 137" d="M1210.334,0l-15.816,53H1187.2l15.812-53Z" transform="translate(-1187.2)" fill="#278f53"/>
      </g>
    </g>
  </g>
</svg>
