<?xml version="1.0" encoding="utf-8"?>
<!-- Generator: Adobe Illustrator 26.3.1, SVG Export Plug-In . SVG Version: 6.00 Build 0)  -->
<svg version="1.1" id="Layer_1" xmlns="http://www.w3.org/2000/svg" xmlns:xlink="http://www.w3.org/1999/xlink" x="0px" y="0px"
	 viewBox="0 0 222.5 77.7" style="enable-background:new 0 0 222.5 77.7;" xml:space="preserve">
<style type="text/css">
	.st0{enable-background:new    ;}
	.st1{fill:none;stroke:#202550;stroke-width:2;}
	.st2{fill:#891039;}
</style>
<g id="TITULO" transform="translate(-331.5 -1219.274)">
	<g class="st0">
		<path class="st1" d="M357.2,1246.5c-1.4-1-3.9-2.4-6.5-2.4c-0.6,0-1.6,0.1-2.2,0.6c-0.4,0.3-0.6,0.7-0.6,1.2
			c0,0.7,0.1,1.3,1.9,1.7l3.7,0.8c2.8,0.6,4.5,1.8,5.5,2.7c2,2,2.4,4.4,2.4,6.3c0,2.7-0.7,5.3-2.9,7.5c-1.8,1.9-5.3,4.1-11.3,4.1
			c-4.9,0-8.2-1.4-10.9-2.5l-1.1-0.4l3.5-9l1.2,1c1.2,0.9,3.6,2.4,6.5,2.4c1.6,0,2.3-0.4,2.5-0.6c0.5-0.4,0.6-1,0.6-1.4
			c0-0.3,0-0.8-0.4-1.1c-0.4-0.4-1-0.5-2.2-0.8l-2.8-0.5c-1.8-0.3-3.8-0.9-5.6-2.7c-1.6-1.7-2.3-3.6-2.3-5.9c0-3,1-5.5,3.1-7.6
			c2.4-2.5,6-4.1,11.1-4.1c2.5,0,5.9,0.4,9.7,2.8L357.2,1246.5z"/>
		<path class="st1" d="M389.5,1267.7c-3,1.2-6.6,1.3-8.1,1.3c-4.2,0-8.6-1.5-11.8-4.7c-3-3-4.7-7.3-4.7-11.8c0-4.9,1.9-9.2,4.8-12.1
			c2.3-2.3,6.1-4.8,12.1-4.8c2.4,0,5.1,0.4,7.6,1.2l0.3,12.2c-1.3-1.3-3.8-3.2-6.8-3.2c-1.8,0-3.5,0.7-4.7,2
			c-1.1,1.2-1.7,2.9-1.7,4.6c0,1.7,0.6,3.4,1.9,4.6c1,0.9,2.4,1.8,4.8,1.8c3.3,0,5.5-2,6.5-3L389.5,1267.7z"/>
		<path class="st1" d="M394.7,1236.3h11.5v18.6c0,1,0.1,2.3,1,3.3c0.6,0.7,1.4,0.9,2.3,0.9c1.2,0,1.9-0.3,2.4-0.8
			c0.9-0.9,0.9-2.5,0.9-3.4v-18.6h11.6v19.6c0,2.5-0.5,6.1-3.4,9.1c-3.3,3.4-7.9,4-11.4,4c-2.9,0-8.3-0.3-11.9-4.2
			c-2.5-2.7-2.9-5.7-2.9-8.1V1236.3z"/>
		<path class="st1" d="M430.8,1268.3v-32h12.3c2.7,0,9.5,0.2,14.2,4.8c2.1,2.1,4.3,5.7,4.3,11.6c0,3.3-0.6,7.6-4.1,11.1
			c-1.9,2-5.7,4.5-11.5,4.5H430.8z M442.3,1258.5h0.9c1.3,0,3.3,0,4.9-1.5c1.1-1,1.9-2.6,1.9-4.6c0-2.1-0.8-3.8-1.9-4.8
			c-1.4-1.3-3.2-1.5-4.6-1.5h-1.2V1258.5z"/>
		<path class="st1" d="M496.2,1263.9c-2.7,2.8-7.2,5.1-13.3,5.1c-6.1,0-10.6-2.4-13.3-5.1c-2.5-2.5-4.5-6.5-4.5-11.6
			c0-5.1,2-9,4.5-11.6c2.7-2.8,7.2-5.1,13.3-5.1c6.1,0,10.6,2.4,13.3,5.1c2.5,2.5,4.5,6.5,4.5,11.6
			C500.6,1257.4,498.7,1261.3,496.2,1263.9z M478.7,1247.5c-1.2,1.2-1.8,3.1-1.8,4.8c0,1.8,0.7,3.6,1.8,4.8c1,1,2.4,1.6,4.2,1.6
			c1.8,0,3.2-0.7,4.2-1.6c1.1-1.1,1.8-2.7,1.8-4.8s-0.7-3.7-1.8-4.8c-0.9-0.9-2.3-1.6-4.2-1.6
			C480.8,1245.9,479.5,1246.7,478.7,1247.5z"/>
	</g>
	<g class="st0">
		<path class="st2" d="M465.4,1289.4c-1,0.5-2.2,0.9-4,0.9c-2.8,0-4.5-1-5.9-2.2c-1.8-1.8-2.6-3.8-2.6-6.1c0-2.9,1.2-5,2.6-6.3
			c1.6-1.5,3.6-2.1,5.9-2.1c1.1,0,2.5,0.2,3.9,1v3.6c-1.5-1.7-3.3-1.8-3.9-1.8c-3.2,0-5.3,2.6-5.3,5.6c0,3.6,2.7,5.5,5.4,5.5
			c1.5,0,2.8-0.6,3.7-1.8V1289.4z"/>
		<path class="st2" d="M475.9,1279.6h2.9v10.4h-2.9v-1.3c-1.1,1.5-2.4,1.7-3.2,1.7c-3.2,0-5.3-2.5-5.3-5.5c0-3.1,2.1-5.5,5.2-5.5
			c0.8,0,2.4,0.1,3.3,1.7V1279.6z M470.4,1284.8c0,1.7,1.2,3,2.9,3c1.7,0,2.9-1.3,2.9-3c0-1.7-1.2-2.9-2.9-2.9
			C471.6,1281.8,470.4,1283.1,470.4,1284.8z"/>
		<path class="st2" d="M481.6,1279.6h2.9v1.6c0.5-0.9,1.1-1.3,1.3-1.4c0.5-0.3,1-0.5,1.7-0.5c0.5,0,0.9,0.1,1.2,0.2l-0.4,2.7
			c-0.4-0.3-0.8-0.4-1.4-0.4c-0.6,0-1.4,0.1-1.9,0.8c-0.6,0.7-0.6,1.6-0.6,2.3v5h-2.9V1279.6z"/>
		<path class="st2" d="M497.9,1279.6h2.9v9.9c0,1.6-0.1,3.2-1.4,4.5c-0.7,0.7-2,1.5-4.1,1.5c-2,0-3.2-0.6-3.9-1.2
			c-0.8-0.7-1.4-1.9-1.7-3.1h3.2c0.1,0.5,0.4,1,0.7,1.2c0.6,0.5,1.4,0.6,1.8,0.6c0.8,0,1.4-0.3,1.8-0.6c0.7-0.6,0.7-1.5,0.7-2.3
			v-1.5c-1,1.5-2.4,1.7-3.2,1.7c-1.4,0-2.6-0.4-3.6-1.4c-0.8-0.8-1.7-2.1-1.7-4.1c0-1.6,0.6-3.1,1.6-4.1c0.9-0.9,2.2-1.4,3.6-1.4
			c1.9,0,2.9,1.1,3.3,1.7V1279.6z M493.4,1282.5c-0.5,0.4-0.9,1.1-0.9,2.2c0,0.9,0.3,1.6,0.8,2c0.6,0.7,1.4,0.9,2.1,0.9
			c0.7,0,1.4-0.3,1.9-0.7c0.6-0.6,0.9-1.4,0.9-2.2c0-1-0.4-1.7-0.8-2.1c-0.6-0.6-1.2-0.8-2-0.8
			C494.4,1281.8,493.7,1282.2,493.4,1282.5z"/>
		<path class="st2" d="M513.2,1280.7c1,0.9,1.8,2.4,1.8,4.1c0,1.7-0.7,3.1-1.8,4.1c-0.9,0.8-2.2,1.5-4.2,1.5c-2,0-3.3-0.6-4.2-1.5
			c-1-0.9-1.8-2.4-1.8-4.1c0-1.7,0.7-3.1,1.8-4.1c0.9-0.8,2.2-1.5,4.2-1.5C511,1279.2,512.3,1279.9,513.2,1280.7z M511.9,1284.8
			c0-1.6-1.2-3-2.9-3s-2.9,1.3-2.9,3c0,1.6,1.2,2.9,2.9,2.9S511.9,1286.4,511.9,1284.8z"/>
		<path class="st2" d="M526.9,1276.6h-2.3v-2.7h5.4v16h-3.1V1276.6z"/>
		<path class="st2" d="M536.7,1286.5c1.1,0,1.9,0.8,1.9,1.9c0,1.1-0.8,1.9-1.9,1.9s-1.9-0.8-1.9-1.9
			C534.8,1287.3,535.6,1286.5,536.7,1286.5z"/>
		<path class="st2" d="M551,1276.6h-5.3l-0.6,2.5c0.3,0,0.7-0.1,1.1-0.1c1.7,0,3.2,0.7,4.1,1.6c1.3,1.3,1.4,2.9,1.4,3.8
			c0,1.7-0.5,3.1-1.6,4.2c-1.3,1.3-2.7,1.6-4.4,1.6c-0.9,0-2.2-0.1-3.5-0.7c-0.6-0.3-1.4-0.8-1.9-1.4l1-2.7c0.4,0.6,0.9,1.1,1.7,1.4
			c0.8,0.4,1.6,0.6,2.3,0.6c1.3,0,2.1-0.6,2.4-1c0.5-0.5,0.8-1.3,0.8-2.3c0-0.9-0.3-1.6-0.9-2.2c-0.8-0.7-1.7-0.8-2.5-0.8
			c-1.1,0-2.3,0.3-3.5,1l1.9-8.4h7.4V1276.6z"/>
	</g>
	<g id="flag-color" transform="translate(426.032 1273.919)">
		<g id="Group_462" transform="translate(0 0)">
			<path id="Path_134" class="st2" d="M7.3,0l-5,16.7H0L5,0H7.3z"/>
		</g>
		<g id="Group_463" transform="translate(5.238 0)">
			<path id="Path_135" class="st2" d="M7.3,0l-5,16.7H0L5,0H7.3z"/>
		</g>
		<g id="Group_464" transform="translate(10.438 0)">
			<path id="Path_136" class="st2" d="M7.3,0l-5,16.7H0L5,0H7.3z"/>
		</g>
		<g id="Group_465" transform="translate(15.674 0)">
			<path id="Path_137" class="st2" d="M7.3,0l-5,16.7H0L5,0H7.3z"/>
		</g>
	</g>
</g>
</svg>
