<?xml version="1.0" encoding="utf-8"?>
<!-- Generator: Adobe Illustrator 26.3.1, SVG Export Plug-In . SVG Version: 6.00 Build 0)  -->
<svg version="1.1" id="Layer_1" xmlns="http://www.w3.org/2000/svg" xmlns:xlink="http://www.w3.org/1999/xlink" x="0px" y="0px"
	 viewBox="0 0 138 27" style="enable-background:new 0 0 138 27;" xml:space="preserve">
<style type="text/css">
	.st0{fill:#EDEDE3;}
	.st1{fill:#268F52;}
	.st2{fill:#FFFFFF;}
	.st3{fill:#FC1430;}
	.st4{enable-background:new    ;}
</style>
<g id="Group_4138" transform="translate(-86 -9)">
	<path id="Union_7" class="st0" d="M107.8,30.5l0-14.2h-2.1v-1.8h7.2v1.8h-2.1l0,14.2H107.8z M103.5,30.5c0-0.4,0-5.9-0.3-7.2h-3
		v7.2h-2.7v-16h5.9c2.8,4.4,2.9,11.9,2.8,16H103.5z M100.2,21.4h2.9c0,0-0.1-0.9-0.3-1.9c-0.2-1.1-0.6-2.2-1.1-3.2h-1.4L100.2,21.4z
		 M93,30.5v-16h3v16H93z M86,30.5v-16h5.7v1.8H89v5.1h2.2v1.9H89v7.3H86z"/>
	<g id="Group_4137" transform="translate(-136.258 -32.402)">
		<g id="flag-color" transform="translate(254.098 43.402)">
			<g id="Group_462" transform="translate(0 0)">
				<path id="Path_134" class="st1" d="M9.8,0L3.1,22.4H0L6.7,0H9.8z"/>
			</g>
			<g id="Group_463" transform="translate(7.02 0)">
				<path id="Path_135" class="st2" d="M9.8,0L3.1,22.4H0L6.7,0H9.8z"/>
			</g>
			<g id="Group_464" transform="translate(13.99 0)">
				<path id="Path_136" class="st2" d="M9.8,0L3.1,22.4H0L6.7,0H9.8z"/>
			</g>
			<g id="Group_465" transform="translate(21.008 0)">
				<path id="Path_137" class="st3" d="M9.8,0L3.1,22.4H0L6.7,0H9.8z"/>
			</g>
		</g>
	</g>
	<g class="st4">
		<path class="st0" d="M154.4,25.8c0.8,0.7,2,1.4,3.2,1.4c0.7,0,1.2-0.2,1.4-0.5c0.2-0.2,0.4-0.5,0.4-0.9c0-0.3-0.1-0.6-0.4-0.8
			c-0.4-0.3-0.9-0.5-1.8-0.7l-0.9-0.3c-0.6-0.2-1.4-0.5-2-1.1c-0.7-0.8-0.8-1.8-0.8-2.5c0-1.7,0.7-2.8,1.3-3.4
			c0.7-0.7,1.9-1.3,3.6-1.3c1.4,0,3,0.4,4.3,1.1l-1.4,2.8c-1.1-0.9-1.9-0.9-2.4-0.9c-0.4,0-0.8,0.1-1.2,0.4
			c-0.2,0.2-0.4,0.4-0.4,0.8c0,0.3,0,0.4,0.2,0.6c0.1,0.1,0.4,0.4,1.2,0.6l1.1,0.3c0.9,0.3,1.8,0.6,2.5,1.4c0.7,0.8,0.9,1.5,0.9,2.5
			c0,1.3-0.3,2.5-1.3,3.5c-1.2,1.2-2.6,1.4-4.1,1.4c-0.9,0-1.7-0.1-2.8-0.5c-0.2-0.1-1.1-0.4-2.1-1.1L154.4,25.8z"/>
		<path class="st0" d="M175.5,29.6c-1.4,0.5-2.2,0.7-3.1,0.7c-2.4,0-4.3-1-5.4-2.1c-1.4-1.4-2.1-3.3-2.1-5.1c0-2,0.9-3.9,2.1-5.2
			c1.2-1.3,3.1-2.2,5.3-2.2c0.7,0,1.8,0.1,3.3,0.7v4.3c-1.2-1.4-2.6-1.5-3.2-1.5c-1,0-1.8,0.3-2.5,0.9c-0.9,0.8-1.2,1.9-1.2,2.9
			c0,1,0.4,2,1.1,2.7c0.6,0.6,1.6,1,2.6,1c0.5,0,1.9-0.1,3.2-1.5V29.6z"/>
		<path class="st0" d="M181.5,16v8.3c0,0.6,0,1.5,0.7,2.2c0.4,0.4,1.1,0.7,1.7,0.7s1.3-0.3,1.7-0.6c0.8-0.7,0.8-1.8,0.8-2.5v-8h3.6
			v8c0,1.5-0.1,3-1.6,4.5c-1.2,1.2-2.6,1.7-4.6,1.7c-2.2,0-3.8-0.8-4.6-1.7c-1.2-1.3-1.4-3.1-1.4-4.6v-8H181.5z"/>
		<path class="st0" d="M193,30V16h4.8c1.4,0,3.8,0.2,5.6,1.9c1.6,1.6,2,3.6,2,5.1c0,1.8-0.5,3.5-1.8,4.8c-1.1,1.1-3,2.1-5.4,2.1H193
			z M196.6,26.9h0.7c0.9,0,2.1-0.1,3.1-1c0.5-0.4,1.1-1.3,1.1-2.9c0-1.3-0.4-2.4-1.1-3.1c-0.9-0.8-2-0.9-2.9-0.9h-0.9V26.9z"/>
		<path class="st0" d="M220.2,28.2c-1.4,1.4-3.4,2.1-5.5,2.1c-2.1,0-4.1-0.7-5.5-2.1c-1.5-1.4-2.2-3.4-2.2-5.2
			c0-1.9,0.7-3.8,2.2-5.2c1.4-1.4,3.4-2.1,5.5-2.1c2.1,0,4.1,0.7,5.5,2.1c1.5,1.4,2.2,3.4,2.2,5.2C222.4,24.9,221.7,26.8,220.2,28.2
			z M211.8,20.3c-0.8,0.7-1.1,1.8-1.1,2.8c0,1.2,0.6,2.1,1.1,2.6c0.7,0.7,1.6,1.1,2.8,1.1c1.2,0,2.2-0.4,2.8-1.1
			c0.7-0.7,1.1-1.6,1.1-2.7c0-1.1-0.5-2.1-1.1-2.7c-0.8-0.7-1.8-1.1-2.8-1.1C213.7,19.2,212.6,19.6,211.8,20.3z"/>
	</g>
</g>
</svg>
