<svg xmlns="http://www.w3.org/2000/svg" xmlns:xlink="http://www.w3.org/1999/xlink" width="300" height="131" viewBox="0 0 300 131">
  <defs>
    <clipPath id="clip-path">
      <rect id="Rectangle_2807" data-name="Rectangle 2807" width="300" height="131" transform="translate(48.305 1350)" fill="#00ff3b"/>
    </clipPath>
  </defs>
  <g id="titulo-multi" transform="translate(-48.305 -1350)" clip-path="url(#clip-path)">
    <path id="Path_4662" data-name="Path 4662" d="M133.712,21.494a30.443,30.443,0,0,0-16.4-4.686c-8.564,0-14.623,2.747-18.743,6.948A17.434,17.434,0,0,0,93.317,36.6,13.449,13.449,0,0,0,97.2,46.538a16.262,16.262,0,0,0,9.371,4.6l4.767.889c2.02.4,3.07.646,3.716,1.293a2.613,2.613,0,0,1,.646,1.858,2.888,2.888,0,0,1-1.05,2.424c-.4.323-1.535.969-4.2.969a18.982,18.982,0,0,1-10.906-3.959L97.438,53l-5.9,15.188,1.777.727c4.6,1.858,10.1,4.2,18.339,4.2,10.1,0,15.915-3.716,18.985-6.867a17.358,17.358,0,0,0,4.847-12.684,14.388,14.388,0,0,0-4.12-10.664,18.2,18.2,0,0,0-9.21-4.6l-6.221-1.373c-2.989-.646-3.151-1.7-3.151-2.828a2.2,2.2,0,0,1,.969-1.939,6.427,6.427,0,0,1,3.716-.969c4.363,0,8.644,2.424,10.987,4.039Zm49.6,29.326a15.06,15.06,0,0,1-10.906,5.09,11.136,11.136,0,0,1-8-3.07,10.671,10.671,0,0,1-3.151-7.756,11.4,11.4,0,0,1,2.828-7.675,10.6,10.6,0,0,1,7.837-3.312c4.928,0,9.129,3.07,11.391,5.332l-.566-20.52a40.684,40.684,0,0,0-12.845-2.1,27.844,27.844,0,0,0-20.359,8.16,28.8,28.8,0,0,0-8.079,20.439A27.825,27.825,0,0,0,149.3,65.281a28.292,28.292,0,0,0,19.874,7.836,41.154,41.154,0,0,0,13.572-2.181Zm8.321,1.616a19.03,19.03,0,0,0,4.928,13.572c6.14,6.625,15.107,7.109,20.036,7.109,5.978,0,13.734-1.05,19.228-6.705,4.847-5.009,5.655-11.149,5.655-15.35V18.02h-19.47V49.285c0,1.373,0,4.2-1.454,5.655a5.337,5.337,0,0,1-3.959,1.293,4.881,4.881,0,0,1-3.878-1.454c-1.535-1.616-1.7-3.878-1.7-5.494V18.02H191.637Zm86.282,19.47c9.775,0,16.077-4.282,19.308-7.594,5.9-5.9,6.948-13.088,6.948-18.662,0-9.937-3.8-16-7.271-19.47-7.836-7.756-19.308-8.16-23.833-8.16H252.309V71.906ZM271.7,34.5h2.1a11.041,11.041,0,0,1,7.675,2.585,11.245,11.245,0,0,1,3.151,8.079,10.156,10.156,0,0,1-3.151,7.756c-2.747,2.424-6.059,2.5-8.321,2.5H271.7Zm98.158,10.422a27.413,27.413,0,0,0-7.513-19.47c-4.6-4.686-12.118-8.644-22.378-8.644s-17.773,3.959-22.378,8.644a27.413,27.413,0,0,0-7.513,19.47c0,8.644,3.312,15.269,7.513,19.551,4.6,4.686,12.118,8.644,22.378,8.644s17.773-3.959,22.378-8.644C366.544,60.191,369.856,53.567,369.856,44.922ZM339.964,34.177a9.75,9.75,0,0,1,7.029,2.747A10.961,10.961,0,0,1,350.063,45a11.291,11.291,0,0,1-3.07,8,10.366,10.366,0,0,1-14.057,0,11.448,11.448,0,0,1-3.07-8,12.1,12.1,0,0,1,3.07-8.079A9.35,9.35,0,0,1,339.964,34.177Z" transform="translate(-33.734 1337.192)" fill="none" stroke="#202550" stroke-width="2"/>
    <g id="Multi" transform="translate(-66.954 -91.641)">
      <path id="Path_4716" data-name="Path 4716" d="M.966,0H4L5.566-9.453,9.5,0h1.012l4.117-9.453L16.008,0h3.036L16.468-15.341H14.306L10.051-5.589,5.98-15.341H3.818ZM21.344-9.959v6.095A3.764,3.764,0,0,0,22.563-.805,5.723,5.723,0,0,0,26.174.322,5.723,5.723,0,0,0,29.785-.805,3.764,3.764,0,0,0,31-3.864V-9.959H28.2v5.635a2.239,2.239,0,0,1-.6,1.748,2.285,2.285,0,0,1-1.426.506,2.285,2.285,0,0,1-1.426-.506,2.239,2.239,0,0,1-.6-1.748V-9.959Zm12.328-6.808V0h2.806V-16.767Zm10.212,9.2V-9.959H41.952v-3.4H39.146v3.4h-1.1v2.392h1.1V0h2.806V-7.567Zm1.472-2.392V0h2.806V-9.959Zm-.276-4.209a1.688,1.688,0,0,0,1.679,1.679,1.688,1.688,0,0,0,1.679-1.679,1.688,1.688,0,0,0-1.679-1.679A1.688,1.688,0,0,0,45.08-14.168ZM60.1,0h2.99V-15.341h-5.2v2.576H60.1Zm7.59-1.495A1.768,1.768,0,0,0,69.483.3a1.768,1.768,0,0,0,1.794-1.794,1.768,1.768,0,0,0-1.794-1.794A1.768,1.768,0,0,0,67.689-1.495ZM83.237-15.341H76.153l-1.817,8.05a6.31,6.31,0,0,1,3.312-.989A3.393,3.393,0,0,1,80.04-7.5a2.614,2.614,0,0,1,.9,2.116,3.25,3.25,0,0,1-.805,2.231,3.072,3.072,0,0,1-2.346.92,4.544,4.544,0,0,1-2.231-.575,4.664,4.664,0,0,1-1.587-1.38L72.979-1.61A7.631,7.631,0,0,0,74.842-.3a7.631,7.631,0,0,0,3.312.644,5.464,5.464,0,0,0,4.209-1.564,5.337,5.337,0,0,0,1.564-4A5.073,5.073,0,0,0,82.57-8.9a5.592,5.592,0,0,0-3.956-1.541,6.653,6.653,0,0,0-1.035.092l.552-2.415h5.106Zm17.6,2.576v-2.576h-9.89v2.576h3.45V0h2.99V-12.765Zm.506,2.806v6.095a3.764,3.764,0,0,0,1.219,3.059A5.723,5.723,0,0,0,106.168.322a5.723,5.723,0,0,0,3.611-1.127A3.764,3.764,0,0,0,111-3.864V-9.959h-2.806v5.635a2.239,2.239,0,0,1-.6,1.748,2.284,2.284,0,0,1-1.426.506,2.285,2.285,0,0,1-1.426-.506,2.239,2.239,0,0,1-.6-1.748V-9.959ZM113.666,0h2.806V-4.784a3.422,3.422,0,0,1,.552-2.208,2.293,2.293,0,0,1,1.863-.805,2.109,2.109,0,0,1,1.311.368l.368-2.622a3.452,3.452,0,0,0-1.2-.23,3.052,3.052,0,0,0-1.656.437,3.359,3.359,0,0,0-1.242,1.38V-9.959h-2.806Zm11.086-16.767h-2.806V0h2.806V-1.288a3.765,3.765,0,0,0,3.174,1.61c2.944,0,4.968-2.277,4.968-5.313,0-3.013-1.955-5.29-4.9-5.29a3.863,3.863,0,0,0-3.243,1.61Zm2.484,8.97A2.708,2.708,0,0,1,130-4.991a2.727,2.727,0,0,1-2.76,2.829,2.727,2.727,0,0,1-2.76-2.829A2.708,2.708,0,0,1,127.236-7.8Zm13.018-2.484a5.731,5.731,0,0,0-4.025,1.4,5.246,5.246,0,0,0-1.679,3.91,5.232,5.232,0,0,0,1.679,3.887,5.731,5.731,0,0,0,4.025,1.4,5.731,5.731,0,0,0,4.025-1.4,5.232,5.232,0,0,0,1.679-3.887,5.246,5.246,0,0,0-1.679-3.91A5.731,5.731,0,0,0,140.254-10.281Zm0,8.119a2.773,2.773,0,0,1-2.806-2.806A2.779,2.779,0,0,1,140.254-7.8a2.779,2.779,0,0,1,2.806,2.829A2.773,2.773,0,0,1,140.254-2.162Zm13.639-13.179V0h3.956a8.8,8.8,0,0,0,5.612-1.472,7.315,7.315,0,0,0,3.082-6.187,7.594,7.594,0,0,0-2.944-6.187,8.934,8.934,0,0,0-5.7-1.495Zm2.99,2.576h.92a6.243,6.243,0,0,1,3.772,1.012,5.112,5.112,0,0,1,1.886,4.094,4.99,4.99,0,0,1-1.909,4.071A6.419,6.419,0,0,1,157.8-2.576h-.92Zm12.006,2.806V0h2.806V-9.959Zm-.276-4.209a1.688,1.688,0,0,0,1.679,1.679,1.688,1.688,0,0,0,1.679-1.679,1.688,1.688,0,0,0-1.679-1.679A1.688,1.688,0,0,0,168.613-14.168ZM181.562-3.2a2.568,2.568,0,0,1-2.323,1.311,2.371,2.371,0,0,1-2-.943,2.939,2.939,0,0,1-.483-1.679h7.452v-.23a5.954,5.954,0,0,0-1.2-3.91,4.76,4.76,0,0,0-3.887-1.633,5.1,5.1,0,0,0-3.749,1.4,5.3,5.3,0,0,0-1.518,3.91,5.018,5.018,0,0,0,1.564,3.887,5.213,5.213,0,0,0,3.818,1.4,4.92,4.92,0,0,0,4.9-3.1Zm-4.715-3.1a2.344,2.344,0,0,1,2.346-2,2.345,2.345,0,0,1,2.369,2Zm16.33-2.921A4.967,4.967,0,0,0,190-10.281a4.11,4.11,0,0,0-2.6.713,2.958,2.958,0,0,0-1.035,2.254,2.672,2.672,0,0,0,.759,1.909,5.373,5.373,0,0,0,2.139,1.2l.644.23a1.11,1.11,0,0,1,.874,1.012c0,.69-.6,1.081-1.38,1.081a3.087,3.087,0,0,1-2.208-1.15l-1.472,1.7A5.033,5.033,0,0,0,189.589.322a4.182,4.182,0,0,0,2.99-1.058,3.31,3.31,0,0,0,1.1-2.53,2.887,2.887,0,0,0-.506-1.656,5.1,5.1,0,0,0-2.53-1.426l-.667-.207c-.782-.253-.9-.644-.9-.9,0-.483.414-.8,1.081-.8a2.329,2.329,0,0,1,1.633.667ZM202.86-3.2a2.568,2.568,0,0,1-2.323,1.311,2.371,2.371,0,0,1-2-.943,2.939,2.939,0,0,1-.483-1.679H205.5v-.23a5.954,5.954,0,0,0-1.2-3.91,4.76,4.76,0,0,0-3.887-1.633,5.1,5.1,0,0,0-3.749,1.4,5.3,5.3,0,0,0-1.518,3.91,5.018,5.018,0,0,0,1.564,3.887,5.213,5.213,0,0,0,3.818,1.4,4.92,4.92,0,0,0,4.9-3.1Zm-4.715-3.1a2.344,2.344,0,0,1,2.346-2,2.345,2.345,0,0,1,2.369,2Zm9.522-10.465V0h2.806V-16.767Z" transform="translate(174.256 1566.528)" fill="#891039"/>
      <g id="nome-versao" transform="translate(142.258 1545.515)">
        <g id="flag-color" transform="translate(0 2.43)">
          <g id="Group_4574" data-name="Group 4574" transform="translate(0 0)">
            <path id="Path_4663" data-name="Path 4663" d="M9.033,0,2.857,20.7H0L6.174,0Z" fill="#891039"/>
          </g>
          <g id="Group_4575" data-name="Group 4575" transform="translate(6.487 0)">
            <path id="Path_4664" data-name="Path 4664" d="M405.731,0l-6.174,20.7H396.7L402.874,0Z" transform="translate(-396.7)" fill="#891039"/>
          </g>
          <g id="Group_4576" data-name="Group 4576" transform="translate(12.928 0)">
            <path id="Path_4665" data-name="Path 4665" d="M799.631,0l-6.174,20.7H790.6L796.775,0Z" transform="translate(-790.6)" fill="#891039"/>
          </g>
          <g id="Group_4577" data-name="Group 4577" transform="translate(19.413 0)">
            <path id="Path_4666" data-name="Path 4666" d="M1196.233,0l-6.176,20.7H1187.2L1193.375,0Z" transform="translate(-1187.2)" fill="#891039"/>
          </g>
        </g>
      </g>
    </g>
  </g>
</svg>
