<svg id="_004-instagram" data-name="004-instagram" xmlns="http://www.w3.org/2000/svg" width="27.638" height="27.638" viewBox="0 0 27.638 27.638">
  <g id="Grupo_50" data-name="Grupo 50">
    <g id="Grupo_49" data-name="Grupo 49">
      <path id="Caminho_6" data-name="Caminho 6" d="M19.61,0H8.028A8.038,8.038,0,0,0,0,8.028V19.61a8.038,8.038,0,0,0,8.028,8.028H19.61a8.038,8.038,0,0,0,8.028-8.028V8.028A8.038,8.038,0,0,0,19.61,0Zm5.869,19.61a5.876,5.876,0,0,1-5.869,5.869H8.028A5.876,5.876,0,0,1,2.159,19.61V8.028A5.876,5.876,0,0,1,8.028,2.159H19.61a5.876,5.876,0,0,1,5.869,5.869Z" fill="#edede3"/>
    </g>
  </g>
  <g id="Grupo_52" data-name="Grupo 52" transform="translate(6.37 6.37)">
    <g id="Grupo_51" data-name="Grupo 51">
      <path id="Caminho_7" data-name="Caminho 7" d="M125.449,118a7.449,7.449,0,1,0,7.449,7.449A7.458,7.458,0,0,0,125.449,118Zm0,12.739a5.29,5.29,0,1,1,5.29-5.29A5.3,5.3,0,0,1,125.449,130.739Z" transform="translate(-118 -118)" fill="#edede3"/>
    </g>
  </g>
  <g id="Grupo_54" data-name="Grupo 54" transform="translate(20.615 5.62)">
    <g id="Grupo_53" data-name="Grupo 53" transform="translate(0 0)">
      <ellipse id="Elipse_2" data-name="Elipse 2" cx="0.703" cy="0.703" rx="0.703" ry="0.703" fill="#edede3"/>
    </g>
  </g>
</svg>
