<svg xmlns="http://www.w3.org/2000/svg" width="34.016" height="27.638" viewBox="0 0 34.016 27.638">
  <g id="Grupo_48" data-name="Grupo 48" transform="translate(0)">
    <path id="Caminho_5" data-name="Caminho 5" d="M34.016,51.272A14.539,14.539,0,0,1,30,52.373a6.934,6.934,0,0,0,3.068-3.854,13.937,13.937,0,0,1-4.422,1.688,6.973,6.973,0,0,0-12.063,4.769,7.181,7.181,0,0,0,.162,1.59A19.739,19.739,0,0,1,2.368,49.271a6.975,6.975,0,0,0,2.143,9.32,6.887,6.887,0,0,1-3.151-.859v.077a7.006,7.006,0,0,0,5.587,6.852,6.96,6.96,0,0,1-1.828.23,6.166,6.166,0,0,1-1.32-.119,7.04,7.04,0,0,0,6.516,4.858A14.012,14.012,0,0,1,1.669,72.6,13.064,13.064,0,0,1,0,72.509a19.633,19.633,0,0,0,10.7,3.129c12.833,0,19.848-10.63,19.848-19.844,0-.308-.011-.606-.026-.9A13.912,13.912,0,0,0,34.016,51.272Z" transform="translate(0 -48)" fill="#edede3"/>
  </g>
</svg>
