<svg xmlns="http://www.w3.org/2000/svg" width="16.878" height="24.004" viewBox="0 0 16.878 24.004"><defs><style>.a{fill:#e9e9df;}</style></defs><path class="a" d="M84.439,0A8.446,8.446,0,0,0,76,8.439a8.322,8.322,0,0,0,1.266,4.431l6.6,10.8a.666.666,0,0,0,.478.324.7.7,0,0,0,.717-.338l6.62-10.9a8.323,8.323,0,0,0,1.2-4.318A8.446,8.446,0,0,0,84.439,0Zm0,12.658a4.219,4.219,0,1,1,4.219-4.219A4.214,4.214,0,0,1,84.439,12.658Z" transform="translate(-76)"/><path class="a" d="M256,0V4.219a4.219,4.219,0,1,1,0,8.439V24a.7.7,0,0,0,.624-.346l6.62-10.9a8.322,8.322,0,0,0,1.2-4.318A8.446,8.446,0,0,0,256,0Z" transform="translate(-247.561)"/></svg>