<svg xmlns="http://www.w3.org/2000/svg" width="18.942" height="26.94" viewBox="0 0 18.942 26.94"><defs><style>.a{fill:#1fc1d5;}</style></defs><g transform="translate(0)"><path class="a" d="M85.471,0A9.479,9.479,0,0,0,76,9.471a9.34,9.34,0,0,0,1.421,4.972l7.408,12.124a.748.748,0,0,0,.537.363.786.786,0,0,0,.805-.379L93.6,14.317a9.341,9.341,0,0,0,1.342-4.846A9.479,9.479,0,0,0,85.471,0Zm0,14.207a4.736,4.736,0,1,1,4.736-4.736A4.729,4.729,0,0,1,85.471,14.207Z" transform="translate(-76)"/><path class="a" d="M256,0V4.736a4.736,4.736,0,1,1,0,9.471V26.94a.782.782,0,0,0,.7-.388l7.43-12.234a9.341,9.341,0,0,0,1.342-4.846A9.479,9.479,0,0,0,256,0Z" transform="translate(-246.529)"/></g></svg>