<?xml version="1.0" encoding="utf-8"?>
<!-- Generator: Adobe Illustrator 25.2.3, SVG Export Plug-In . SVG Version: 6.00 Build 0)  -->
<svg version="1.1" id="Layer_1" xmlns="http://www.w3.org/2000/svg" xmlns:xlink="http://www.w3.org/1999/xlink" x="0px" y="0px"
	 viewBox="0 0 389.03 67.81" style="enable-background:new 0 0 389.03 67.81;" xml:space="preserve">
<style type="text/css">
	.st0{fill:#FFFFFF;}
</style>
<g>
	<g>
		<path class="st0" d="M0.78,15.81V0.35h4.07l5.84,7.95c0.15,0.22,0.33,0.55,0.56,0.98c0.29,0.56,0.57,1.14,0.84,1.74
			c-0.11-0.81-0.17-1.38-0.18-1.7c-0.04-0.51-0.06-0.95-0.06-1.34V0.35h4.04v15.46h-4.04L6.01,7.83C5.92,7.71,5.74,7.38,5.45,6.83
			C5.2,6.38,4.91,5.81,4.6,5.12c0.07,0.55,0.14,1.12,0.2,1.71C4.83,7.5,4.85,7.94,4.85,8.18v7.64H0.78z"/>
		<path class="st0" d="M35.09,8.11c0,1.12-0.2,2.17-0.6,3.14c-0.4,0.95-1,1.82-1.79,2.6c-0.79,0.76-1.69,1.35-2.7,1.75
			c-1.06,0.42-2.12,0.62-3.16,0.62c-1.06,0-2.11-0.21-3.16-0.62c-1.03-0.42-1.93-1-2.68-1.75c-0.76-0.73-1.36-1.6-1.79-2.62
			c-0.42-1-0.63-2.04-0.63-3.12S18.78,6,19.2,5C19.64,3.98,20.24,3.1,21,2.38c0.77-0.77,1.67-1.37,2.68-1.77
			C24.66,0.2,25.72,0,26.84,0c1.12,0,2.18,0.2,3.18,0.61c1,0.41,1.89,1,2.68,1.77c0.78,0.77,1.38,1.65,1.8,2.62
			C34.89,5.97,35.09,7.01,35.09,8.11z M26.83,12.66c1.16,0,2.13-0.43,2.92-1.3c0.39-0.43,0.67-0.91,0.86-1.45
			c0.18-0.54,0.27-1.13,0.27-1.8c0-1.29-0.38-2.37-1.15-3.24c-0.78-0.87-1.75-1.3-2.89-1.3c-1.18,0-2.14,0.43-2.91,1.3
			c-0.76,0.87-1.14,1.95-1.14,3.24c0,1.35,0.37,2.43,1.12,3.26C24.67,12.23,25.65,12.66,26.83,12.66z"/>
		<path class="st0" d="M42.16,15.81L35.67,0.35h4.48L43.25,9c0.05,0.19,0.11,0.41,0.17,0.64c0.08,0.37,0.2,0.84,0.35,1.43
			c0.09-0.42,0.2-0.84,0.33-1.27c0.09-0.42,0.16-0.68,0.21-0.8l3.07-8.65h4.48l-6.49,15.46H42.16z"/>
		<path class="st0" d="M68.99,8.11c0,1.12-0.2,2.17-0.6,3.14c-0.4,0.95-1,1.82-1.79,2.6c-0.79,0.76-1.69,1.35-2.7,1.75
			c-1.06,0.42-2.12,0.62-3.16,0.62c-1.05,0-2.11-0.21-3.16-0.62c-1.04-0.42-1.93-1-2.68-1.75c-0.76-0.73-1.36-1.6-1.79-2.62
			c-0.42-1-0.63-2.04-0.63-3.12S52.68,6,53.1,5c0.44-1.02,1.03-1.89,1.79-2.62c0.77-0.77,1.67-1.37,2.68-1.77
			C58.56,0.2,59.61,0,60.73,0s2.18,0.2,3.18,0.61c1,0.41,1.89,1,2.68,1.77c0.79,0.77,1.38,1.65,1.8,2.62
			C68.79,5.97,68.99,7.01,68.99,8.11z M60.73,12.66c1.16,0,2.13-0.43,2.92-1.3c0.39-0.43,0.67-0.91,0.86-1.45
			c0.18-0.54,0.28-1.13,0.28-1.8c0-1.29-0.38-2.37-1.15-3.24c-0.78-0.87-1.75-1.3-2.89-1.3c-1.18,0-2.14,0.43-2.91,1.3
			c-0.76,0.87-1.14,1.95-1.14,3.24c0,1.35,0.37,2.43,1.12,3.26C58.57,12.23,59.54,12.66,60.73,12.66z"/>
		<path class="st0" d="M78.4,15.81V0.35h9.47v3.4h-5.37v2.67h5.06v3.33h-5.06v6.06H78.4z"/>
		<path class="st0" d="M90.27,15.81V0.35h4.26v15.46H90.27z"/>
		<path class="st0" d="M96.12,15.81l5.33-15.46h5.28l5.35,15.46h-4.19l-0.78-2.77h-5.99l-0.8,2.77H96.12z M102.02,10.04h4.19
			l-1.57-5.1c-0.04-0.09-0.1-0.34-0.2-0.76c-0.12-0.49-0.23-0.93-0.33-1.32c-0.1,0.36-0.18,0.72-0.25,1.09
			c-0.11,0.35-0.21,0.68-0.29,0.99L102.02,10.04z"/>
		<path class="st0" d="M115.78,15.81V4h-3.46V0.35h11.14V4H120v11.81H115.78z"/>
	</g>
	<g>
		<path class="st0" d="M29.11,30.29V41.6c-1.49-1.61-2.89-2.78-4.2-3.5c-1.47-0.71-2.99-1.06-4.57-1.06c-2.96,0-5.37,1.01-7.24,3.04
			c-0.64,0.73-1.16,1.48-1.56,2.27c-0.4,0.79-0.7,1.68-0.89,2.67c-0.2,0.99-0.3,2-0.3,3.02c0,3.04,0.93,5.58,2.8,7.6
			c1.89,1.99,4.28,2.98,7.19,2.98c1.56,0,3.08-0.37,4.57-1.12c1.31-0.67,2.71-1.83,4.2-3.48v11.34c-1.92,0.9-3.55,1.5-4.9,1.79
			c-1.68,0.4-3.32,0.6-4.93,0.6c-2.04,0-3.96-0.25-5.76-0.74s-3.41-1.24-4.82-2.24c-2.83-1.94-4.99-4.32-6.47-7.16
			C0.74,54.67,0,51.41,0,47.83c0-2.87,0.48-5.51,1.45-7.91c0.43-1.16,0.98-2.25,1.65-3.28c0.67-1.03,1.53-2.1,2.58-3.2
			c1.81-1.87,3.85-3.25,6.12-4.15c2.25-0.92,4.74-1.38,7.49-1.38c1.57,0,3.21,0.19,4.92,0.57C25.9,28.93,27.54,29.53,29.11,30.29z"
			/>
		<path class="st0" d="M73.94,47.88c0,2.75-0.49,5.32-1.48,7.71c-0.99,2.33-2.45,4.46-4.41,6.38c-1.94,1.87-4.15,3.3-6.64,4.31
			c-2.61,1.02-5.2,1.53-7.75,1.53c-2.59,0-5.18-0.51-7.75-1.53c-2.54-1.02-4.74-2.46-6.59-4.31c-1.87-1.78-3.34-3.93-4.41-6.43
			c-1.04-2.46-1.56-5.01-1.56-7.65c0-2.65,0.52-5.2,1.56-7.65c1.07-2.51,2.54-4.65,4.41-6.43c1.9-1.9,4.1-3.36,6.59-4.36
			c2.42-0.99,5-1.48,7.75-1.48c2.75,0,5.35,0.5,7.8,1.49c2.46,0.99,4.65,2.44,6.57,4.35c1.93,1.9,3.4,4.05,4.42,6.43
			C73.45,42.62,73.94,45.17,73.94,47.88z M53.65,59.04c2.85,0,5.24-1.06,7.16-3.19c0.95-1.05,1.65-2.24,2.1-3.55
			s0.67-2.78,0.67-4.41c0-3.16-0.94-5.82-2.83-7.96c-1.92-2.13-4.29-3.19-7.11-3.19c-2.89,0-5.27,1.06-7.13,3.19
			c-1.87,2.13-2.8,4.78-2.8,7.96c0,3.3,0.92,5.98,2.75,8.02C48.35,57.99,50.75,59.04,53.65,59.04z"/>
		<path class="st0" d="M80.42,66.79V28.81h9.99l14.35,19.53c0.36,0.54,0.82,1.34,1.38,2.41c0.71,1.38,1.4,2.81,2.08,4.28
			c-0.26-1.99-0.41-3.38-0.44-4.18c-0.1-1.25-0.16-2.34-0.16-3.29V28.81h9.94v37.98h-9.94L93.27,47.18
			c-0.21-0.28-0.67-1.09-1.38-2.44c-0.62-1.11-1.31-2.51-2.08-4.2c0.17,1.35,0.34,2.75,0.49,4.2c0.07,1.63,0.1,2.72,0.1,3.29v18.76
			H80.42z"/>
		<path class="st0" d="M125.7,66.79V28.81h9.99l14.35,19.53c0.36,0.54,0.82,1.34,1.38,2.41c0.71,1.38,1.4,2.81,2.08,4.28
			c-0.26-1.99-0.41-3.38-0.44-4.18c-0.1-1.25-0.16-2.34-0.16-3.29V28.81h9.94v37.98h-9.94l-14.35-19.61
			c-0.21-0.28-0.67-1.09-1.38-2.44c-0.62-1.11-1.32-2.51-2.08-4.2c0.17,1.35,0.34,2.75,0.49,4.2c0.07,1.63,0.1,2.72,0.1,3.29v18.76
			H125.7z"/>
		<path class="st0" d="M170.97,66.79V28.81h23.27v8.35h-13.18v6.56h12.43v8.17h-12.43v6.38h13.18v8.51H170.97z"/>
		<path class="st0" d="M228.61,30.29V41.6c-1.49-1.61-2.89-2.78-4.2-3.5c-1.47-0.71-2.99-1.06-4.57-1.06
			c-2.96,0-5.37,1.01-7.24,3.04c-0.64,0.73-1.16,1.48-1.56,2.27s-0.7,1.68-0.9,2.67s-0.3,2-0.3,3.02c0,3.04,0.93,5.58,2.8,7.6
			c1.88,1.99,4.28,2.98,7.19,2.98c1.56,0,3.08-0.37,4.57-1.12c1.31-0.67,2.71-1.83,4.2-3.48v11.34c-1.92,0.9-3.55,1.5-4.9,1.79
			c-1.68,0.4-3.32,0.6-4.93,0.6c-2.04,0-3.96-0.25-5.76-0.74s-3.41-1.24-4.82-2.24c-2.83-1.94-4.99-4.32-6.47-7.16
			c-1.48-2.94-2.23-6.2-2.23-9.78c0-2.87,0.48-5.51,1.45-7.91c0.43-1.16,0.98-2.25,1.65-3.28s1.52-2.1,2.58-3.2
			c1.81-1.87,3.85-3.25,6.12-4.15c2.25-0.92,4.74-1.38,7.49-1.38c1.57,0,3.21,0.19,4.93,0.57
			C225.41,28.93,227.04,29.53,228.61,30.29z"/>
		<path class="st0" d="M239.92,66.79v-29h-8.51v-8.98h27.37v8.98h-8.51v29H239.92z"/>
	</g>
	<g>
		<path class="st0" d="M360.18,66.79h-9.68l-2.23-16.42c-0.19-1.47-0.33-2.76-0.42-3.87c-0.12-1.09-0.24-2.64-0.36-4.64
			c-0.31,1.8-0.8,3.8-1.45,6.02c-0.14,0.43-0.24,0.8-0.31,1.12l-5.16,17.8h-6.9L328.51,49c-0.05-0.29-0.16-0.67-0.31-1.12
			c-0.73-2.33-1.2-4.34-1.43-6.02c-0.14,1.9-0.27,3.32-0.39,4.25c-0.05,0.48-0.13,1.19-0.23,2.13c-0.1,0.93-0.18,1.64-0.23,2.13
			l-2.23,16.42h-9.62l5.86-37.98h10.25l5.73,19.59c0.1,0.36,0.17,0.6,0.21,0.7c0.5,1.63,0.84,3.11,1.01,4.46
			c0.04-0.47,0.17-1.23,0.39-2.28c0.07-0.26,0.33-1.24,0.78-2.93l5.79-19.53h10.27L360.18,66.79z"/>
		<path class="st0" d="M365.76,66.79V28.81h23.27v8.35h-13.18v6.56h12.43v8.17h-12.43v6.38h13.18v8.51H365.76z"/>
	</g>
	<g>
		<polygon class="st0" points="275.87,27.27 270.3,27.27 258.47,66.79 264.03,66.79 		"/>
		<polygon class="st0" points="288.29,27.27 282.73,27.27 270.89,66.79 276.45,66.79 		"/>
		<polygon class="st0" points="300.48,27.27 294.92,27.27 283.08,66.79 288.65,66.79 		"/>
		<polygon class="st0" points="312.9,27.27 307.34,27.27 295.5,66.79 301.07,66.79 		"/>
	</g>
</g>
</svg>
