<svg xmlns="http://www.w3.org/2000/svg" width="412.762" height="66.828" viewBox="0 0 412.762 66.828">
  <g id="connect-fiat" transform="translate(-434.999 -1427.5)">
    <path id="Path_1162" data-name="Path 1162" d="M1163.876,1439.1h-13.247v7.163h12.509v9.439h-12.509v7.391h13.247v9.439h-24.392v-42.871h24.392Z" transform="translate(-316.115 -0.971)" fill="#fff"/>
    <g id="Group_3363" data-name="Group 3363" transform="translate(711.73 1428.762)">
      <path id="Path_1163" data-name="Path 1163" d="M943.118,1472.593h-6.142l13.749-42.8h6.141Z" transform="translate(-936.977 -1429.79)" fill="#fff"/>
      <path id="Path_1164" data-name="Path 1164" d="M966.726,1472.593h-6.141l13.749-42.8h6.141Z" transform="translate(-947.57 -1429.79)" fill="#fff"/>
      <path id="Path_1165" data-name="Path 1165" d="M990.335,1472.593h-6.142l13.749-42.8h6.141Z" transform="translate(-958.164 -1429.79)" fill="#fff"/>
      <path id="Path_1166" data-name="Path 1166" d="M1013.61,1472.593h-6.142l13.749-42.8h6.142Z" transform="translate(-968.608 -1429.79)" fill="#fff"/>
    </g>
    <path id="Path_1167" data-name="Path 1167" d="M467.806,1443.022a11.893,11.893,0,0,0-9.552-4.719,11.7,11.7,0,0,0-4.634.909,11.1,11.1,0,0,0-6.084,6.2,12.207,12.207,0,0,0-.882,4.662,12.353,12.353,0,0,0,.882,4.719,11.363,11.363,0,0,0,6.113,6.254,11.322,11.322,0,0,0,4.549.91q5.343,0,9.608-4.548V1470.6l-1.137.4a32.878,32.878,0,0,1-4.776,1.336,23.133,23.133,0,0,1-4.378.427,22.375,22.375,0,0,1-15.665-6.4,23.434,23.434,0,0,1-4.975-7.221,23.152,23.152,0,0,1-.029-18.194,22.643,22.643,0,0,1,20.725-13.447,23.534,23.534,0,0,1,5.033.54,30.557,30.557,0,0,1,5.2,1.677Z" transform="translate(0)" fill="#fff"/>
    <path id="Path_1168" data-name="Path 1168" d="M502.347,1450.13a22.414,22.414,0,0,1,1.762-8.9,22,22,0,0,1,12.367-12,27.252,27.252,0,0,1,19.133,0,22.6,22.6,0,0,1,7.534,4.8,21.989,21.989,0,0,1,4.919,7.192,23.352,23.352,0,0,1,0,17.8,21.981,21.981,0,0,1-4.919,7.193,22.57,22.57,0,0,1-7.534,4.8,27.241,27.241,0,0,1-19.133,0,22.17,22.17,0,0,1-14.129-20.895Zm11.656,0a11.412,11.412,0,0,0,.966,4.719,11.805,11.805,0,0,0,6.453,6.226,12.62,12.62,0,0,0,9.268,0,12.142,12.142,0,0,0,3.867-2.473,11.725,11.725,0,0,0,2.644-3.753,12.007,12.007,0,0,0,0-9.439,11.732,11.732,0,0,0-2.644-3.752,12.176,12.176,0,0,0-3.867-2.475,12.643,12.643,0,0,0-9.268,0,11.816,11.816,0,0,0-6.453,6.227A11.416,11.416,0,0,0,514,1450.13Z" transform="translate(-30.22)" fill="#fff"/>
    <path id="Path_1169" data-name="Path 1169" d="M686.678,1472.536v-42.871h11.145l20.582,26.212v-26.212h11.087v42.871H718.4l-20.582-26.211v26.211Z" transform="translate(-112.933 -0.971)" fill="#fff"/>
    <path id="Path_1170" data-name="Path 1170" d="M598.416,1472.536v-42.871h11.145l20.582,26.212v-26.212H641.23v42.871H630.143l-20.582-26.211v26.211Z" transform="translate(-73.328 -0.971)" fill="#fff"/>
    <path id="Path_1171" data-name="Path 1171" d="M799.451,1439.1H786.2v7.163h12.51v9.439H786.2v7.391h13.248v9.439H775.059v-42.871h24.392Z" transform="translate(-152.591 -0.971)" fill="#fff"/>
    <path id="Path_1172" data-name="Path 1172" d="M860.569,1443.022a11.894,11.894,0,0,0-9.553-4.719,11.7,11.7,0,0,0-4.634.909,11.109,11.109,0,0,0-6.082,6.2,12.2,12.2,0,0,0-.883,4.662,12.343,12.343,0,0,0,.883,4.719,11.383,11.383,0,0,0,10.661,7.164q5.343,0,9.608-4.548V1470.6l-1.137.4a32.94,32.94,0,0,1-4.775,1.336,23.162,23.162,0,0,1-4.379.427,22.375,22.375,0,0,1-15.665-6.4,23.452,23.452,0,0,1-4.974-7.221,23.155,23.155,0,0,1-.029-18.194,22.641,22.641,0,0,1,20.725-13.447,23.518,23.518,0,0,1,5.033.54,30.518,30.518,0,0,1,5.2,1.677Z" transform="translate(-176.24)" fill="#fff"/>
    <path id="Path_1173" data-name="Path 1173" d="M912.457,1439.1v33.432H901.313V1439.1h-9.155v-9.44h29.455v9.44Z" transform="translate(-205.135 -0.971)" fill="#fff"/>
    <path id="Path_1174" data-name="Path 1174" d="M1031.826,1472.537l13.637-42.871h11.031l5.2,22.858,11.919-22.858h11.03l.184,42.871h-10.566l.177-24.676-13.78,24.676h-4.435l-5.95-24.676-7.355,24.676Z" transform="translate(-267.807 -0.972)" fill="#fff"/>
    <g id="Group_3364" data-name="Group 3364" transform="translate(763.722 1477.442)">
      <rect id="Rectangle_1886" data-name="Rectangle 1886" width="2.485" height="16.649" transform="translate(5.839 0)" fill="#fff"/>
      <path id="Path_1175" data-name="Path 1175" d="M1031.286,1534.744h2.485v-7.537h1.818v-1.929h-1.818v-5.264h2.334v-1.919h-4.819Z" transform="translate(-1031.286 -1518.094)" fill="#fff"/>
      <path id="Path_1176" data-name="Path 1176" d="M1061.231,1518.093v1.92h1.778l.01,14.73h2.455l-.01-14.73h1.8v-1.92Z" transform="translate(-1044.723 -1518.093)" fill="#fff"/>
      <path id="Path_1177" data-name="Path 1177" d="M1051.039,1525.287v-5.294h1.214a14.336,14.336,0,0,1,.918,3.283c.192,1.092.293,2.01.293,2.01Zm2.729-7.194h-4.961v16.65h2.262v-7.528h2.5c.222,1.375.242,7.082.242,7.528h2.295c.069-4.234.03-12.1-2.334-16.65" transform="translate(-1039.148 -1518.093)" fill="#fff"/>
    </g>
    <path id="Path_1178" data-name="Path 1178" d="M1085.177,1518.574v1.995a3.43,3.43,0,0,0-1.429-.416,2.335,2.335,0,0,0-1.355.389,2.839,2.839,0,0,0-.933,1.2,7.616,7.616,0,0,0-.544,2.052,21.265,21.265,0,0,0-.175,2.938q0,6.1,3.123,6.1a3.343,3.343,0,0,0,1.312-.341v2.037a3.6,3.6,0,0,1-1.792.448q-5,0-5-8.168,0-4.416,1.22-6.569a4.017,4.017,0,0,1,3.738-2.154A3.827,3.827,0,0,1,1085.177,1518.574Z" transform="translate(-288.699 -40.646)" fill="#fff"/>
    <path id="Path_1179" data-name="Path 1179" d="M1101.3,1526.954q0,4.361-.97,6.2a3.387,3.387,0,0,1-3.253,1.834,3.467,3.467,0,0,1-3.381-1.973q-.97-1.931-.969-6.856,0-4.394.959-6.218a3.415,3.415,0,0,1,3.285-1.833,3.506,3.506,0,0,1,3.071,1.418,6.711,6.711,0,0,1,.959,2.7A28.038,28.038,0,0,1,1101.3,1526.954Zm-2.325.234a26.288,26.288,0,0,0-.384-5.673q-.385-1.406-1.567-1.407a1.571,1.571,0,0,0-1.578,1.29,22.465,22.465,0,0,0-.384,5.225,20.737,20.737,0,0,0,.406,5.011,1.59,1.59,0,0,0,1.557,1.323,1.556,1.556,0,0,0,1.535-1.237A16.328,16.328,0,0,0,1098.974,1527.188Z" transform="translate(-295.134 -40.655)" fill="#fff"/>
    <path id="Path_1180" data-name="Path 1180" d="M1111.195,1518.489h2.067l2.208,6.568a59.685,59.685,0,0,1,1.7,5.941q-.266-1.91-.394-3.456t-.127-2.911v-6.143h2.228v16.465h-2.08l-2.484-7.411q-.341-1.034-.644-2.122t-.561-2.282c-.013-.1-.037-.22-.07-.362s-.068-.306-.111-.491l.054.474q.021.2.031.336l.118,1.674.117,2.036c.007.114.012.252.016.416s.005.349.005.554l.117,7.177h-2.185Z" transform="translate(-303.421 -40.828)" fill="#fff"/>
    <path id="Path_1181" data-name="Path 1181" d="M1127.889,1518.489h2.068l2.207,6.568a59.685,59.685,0,0,1,1.7,5.941q-.266-1.91-.394-3.456t-.128-2.911v-6.143h2.228v16.465h-2.079l-2.485-7.411q-.34-1.034-.645-2.122t-.56-2.282c-.014-.1-.038-.22-.069-.362s-.068-.306-.112-.491c.021.185.039.344.053.474s.025.244.032.336l.118,1.674.117,2.036c.007.114.011.252.016.416s0,.349,0,.554l.117,7.177h-2.185Z" transform="translate(-310.912 -40.828)" fill="#fff"/>
    <path id="Path_1182" data-name="Path 1182" d="M1144.584,1518.489h5.9v1.878H1146.8v5.214h3.263v1.876H1146.8v5.621h3.679v1.876h-5.9Z" transform="translate(-318.403 -40.828)" fill="#fff"/>
    <path id="Path_1183" data-name="Path 1183" d="M1164.1,1518.574v1.995a3.426,3.426,0,0,0-1.429-.416,2.329,2.329,0,0,0-1.354.389,2.831,2.831,0,0,0-.933,1.2,7.518,7.518,0,0,0-.543,2.052,21.171,21.171,0,0,0-.176,2.938q0,6.1,3.124,6.1a3.344,3.344,0,0,0,1.312-.341v2.037a3.6,3.6,0,0,1-1.791.448q-5,0-5-8.168,0-4.416,1.221-6.569a4.016,4.016,0,0,1,3.738-2.154A3.821,3.821,0,0,1,1164.1,1518.574Z" transform="translate(-324.113 -40.646)" fill="#fff"/>
    <path id="Path_1184" data-name="Path 1184" d="M1170.636,1518.489h7.219v1.941h-2.484v14.524H1173.2V1520.43h-2.559Z" transform="translate(-330.093 -40.828)" fill="#fff"/>
    <path id="Path_1185" data-name="Path 1185" d="M996.793,1523h2.55q2.993,0,2.994,3.716a4.416,4.416,0,0,1-.39,2.108,2.43,2.43,0,0,1-1.375,1.04,2.994,2.994,0,0,1,1.547,1.156,4.106,4.106,0,0,1,.426,2.1q0,3.842-3.291,3.843h-2.46Zm1.772,6.149a1.907,1.907,0,0,0,1.519-.506,3.1,3.1,0,0,0,.424-1.873q0-2.26-1.627-2.26h-.226a.243.243,0,0,0-.09.009Zm0,6.2a2.081,2.081,0,0,0,1.6-.5,2.749,2.749,0,0,0,.444-1.8,2.906,2.906,0,0,0-.461-1.872,1.972,1.972,0,0,0-1.583-.542Z" transform="translate(-252.087 -42.851)" fill="#fff"/>
    <path id="Path_1186" data-name="Path 1186" d="M1007.645,1523h1.989l.923,3.038c.029.09.06.19.09.3s.066.226.108.353a21.7,21.7,0,0,1,.7,2.766c.11-.747.2-1.27.272-1.564l.289-1.249.109-.487.777-3.156h1.963l-2.432,7.957v6h-1.881v-6Z" transform="translate(-256.956 -42.851)" fill="#fff"/>
  </g>
</svg>
