<svg xmlns="http://www.w3.org/2000/svg" width="180" height="29.143" viewBox="0 0 180 29.143"><defs><style>.a{fill:#fff;}</style></defs><g transform="translate(-434.999 -1427.5)"><path class="a" d="M1150.121,1433.781h-5.777v3.124h5.455v4.116h-5.455v3.223h5.777v4.116h-10.637v-18.7h10.637Z" transform="translate(-535.122 -1.645)"/><g transform="translate(555.678 1428.051)"><path class="a" d="M939.655,1448.456h-2.678l6-18.666h2.678Z" transform="translate(-936.977 -1429.79)"/><path class="a" d="M963.264,1448.456h-2.678l6-18.666h2.678Z" transform="translate(-954.91 -1429.79)"/><path class="a" d="M986.872,1448.456h-2.678l6-18.666h2.678Z" transform="translate(-972.842 -1429.79)"/><path class="a" d="M1010.147,1448.456h-2.678l6-18.666h2.678Z" transform="translate(-990.522 -1429.79)"/></g><path class="a" d="M449.306,1434.269a5.186,5.186,0,0,0-4.166-2.058,5.1,5.1,0,0,0-2.021.4,4.842,4.842,0,0,0-2.653,2.7,5.323,5.323,0,0,0-.384,2.033,5.387,5.387,0,0,0,.384,2.058,4.955,4.955,0,0,0,2.666,2.727,4.936,4.936,0,0,0,1.984.4,5.627,5.627,0,0,0,4.19-1.983v5.752l-.5.174a14.34,14.34,0,0,1-2.083.583,10.089,10.089,0,0,1-1.909.186,9.757,9.757,0,0,1-6.831-2.79,10.219,10.219,0,0,1-2.169-3.149,10.1,10.1,0,0,1-.013-7.934,9.874,9.874,0,0,1,9.038-5.864,10.263,10.263,0,0,1,2.195.236,13.315,13.315,0,0,1,2.268.731Z" transform="translate(0)"/><path class="a" d="M502.347,1437.369a9.774,9.774,0,0,1,.768-3.881,9.594,9.594,0,0,1,5.393-5.231,11.883,11.883,0,0,1,8.344,0,9.855,9.855,0,0,1,3.285,2.1,9.589,9.589,0,0,1,2.145,3.136,10.184,10.184,0,0,1,0,7.761,9.587,9.587,0,0,1-2.145,3.137,9.842,9.842,0,0,1-3.285,2.095,11.88,11.88,0,0,1-8.344,0,9.668,9.668,0,0,1-6.162-9.112Zm5.083,0a4.976,4.976,0,0,0,.421,2.058,5.148,5.148,0,0,0,2.814,2.715,5.5,5.5,0,0,0,4.042,0,5.3,5.3,0,0,0,1.686-1.078,5.114,5.114,0,0,0,1.153-1.636,5.235,5.235,0,0,0,0-4.116,5.117,5.117,0,0,0-1.153-1.636,5.312,5.312,0,0,0-1.686-1.079,5.513,5.513,0,0,0-4.042,0,5.152,5.152,0,0,0-2.814,2.716A4.978,4.978,0,0,0,507.43,1437.369Z" transform="translate(-51.157)"/><path class="a" d="M686.678,1448.361v-18.7h4.86l8.975,11.431v-11.431h4.835v18.7h-4.835l-8.975-11.43v11.43Z" transform="translate(-191.174 -1.645)"/><path class="a" d="M598.416,1448.361v-18.7h4.86l8.975,11.431v-11.431h4.835v18.7h-4.835l-8.975-11.43v11.43Z" transform="translate(-124.13 -1.645)"/><path class="a" d="M785.7,1433.781h-5.777v3.124h5.455v4.116h-5.455v3.223H785.7v4.116H775.059v-18.7H785.7Z" transform="translate(-258.307 -1.645)"/><path class="a" d="M842.069,1434.269a5.187,5.187,0,0,0-4.166-2.058,5.1,5.1,0,0,0-2.021.4,4.843,4.843,0,0,0-2.652,2.7,5.318,5.318,0,0,0-.385,2.033,5.382,5.382,0,0,0,.385,2.058,4.964,4.964,0,0,0,4.649,3.124,5.628,5.628,0,0,0,4.19-1.983v5.752l-.5.174a14.366,14.366,0,0,1-2.082.583,10.1,10.1,0,0,1-1.91.186,9.757,9.757,0,0,1-6.831-2.79,10.226,10.226,0,0,1-2.169-3.149,10.1,10.1,0,0,1-.013-7.934,9.873,9.873,0,0,1,9.038-5.864,10.255,10.255,0,0,1,2.195.236,13.294,13.294,0,0,1,2.269.731Z" transform="translate(-298.34)"/><path class="a" d="M901.01,1433.781v14.579h-4.86v-14.579h-3.992v-4.116H905v4.116Z" transform="translate(-347.255 -1.645)"/><path class="a" d="M1031.826,1448.362l5.947-18.7h4.81l2.266,9.968,5.2-9.968h4.81l.08,18.7h-4.608l.077-10.761-6.009,10.761h-1.934l-2.595-10.761-3.208,10.761Z" transform="translate(-453.346 -1.645)"/><g transform="translate(578.35 1449.279)"><rect class="a" width="1.084" height="7.261" transform="translate(2.546 0)"/><path class="a" d="M1031.286,1525.355h1.084v-3.287h.793v-.841h-.793v-2.3h1.018v-.837h-2.1Z" transform="translate(-1031.286 -1518.094)"/><path class="a" d="M1061.231,1518.093v.837h.775l0,6.424h1.071l0-6.424h.784v-.837Z" transform="translate(-1054.032 -1518.093)"/><path class="a" d="M1049.78,1521.23v-2.309h.529a6.25,6.25,0,0,1,.4,1.432c.084.476.128.877.128.877Zm1.19-3.137h-2.163v7.261h.987v-3.283h1.088c.1.6.106,3.089.106,3.283h1c.03-1.846.013-5.278-1.018-7.261" transform="translate(-1044.595 -1518.093)"/></g><path class="a" d="M1081.347,1518.3v.87a1.5,1.5,0,0,0-.623-.182,1.019,1.019,0,0,0-.591.169,1.237,1.237,0,0,0-.407.523,3.321,3.321,0,0,0-.237.9,9.263,9.263,0,0,0-.076,1.281q0,2.66,1.362,2.66a1.456,1.456,0,0,0,.572-.149v.888a1.57,1.57,0,0,1-.781.2q-2.181,0-2.181-3.562a5.991,5.991,0,0,1,.532-2.865,1.752,1.752,0,0,1,1.63-.939A1.669,1.669,0,0,1,1081.347,1518.3Z" transform="translate(-488.712 -68.806)"/><path class="a" d="M1096.464,1521.963a6.212,6.212,0,0,1-.423,2.7,1.477,1.477,0,0,1-1.418.8,1.512,1.512,0,0,1-1.474-.86,7.342,7.342,0,0,1-.423-2.99,6.287,6.287,0,0,1,.418-2.711,1.489,1.489,0,0,1,1.432-.8,1.529,1.529,0,0,1,1.339.619,2.926,2.926,0,0,1,.418,1.176A12.221,12.221,0,0,1,1096.464,1521.963Zm-1.014.1a11.467,11.467,0,0,0-.167-2.474q-.168-.613-.683-.614a.685.685,0,0,0-.688.563,9.8,9.8,0,0,0-.167,2.279,9.043,9.043,0,0,0,.177,2.185.694.694,0,0,0,.679.577.678.678,0,0,0,.669-.539A7.125,7.125,0,0,0,1095.451,1522.065Z" transform="translate(-499.605 -68.821)"/><path class="a" d="M1111.195,1518.489h.9l.963,2.865a26.039,26.039,0,0,1,.739,2.591q-.116-.833-.172-1.507t-.056-1.269v-2.679h.972v7.18h-.907l-1.083-3.232q-.148-.451-.281-.925t-.245-1c-.006-.044-.016-.1-.031-.158s-.03-.133-.049-.214l.024.207q.009.087.013.147l.052.73.051.888c0,.05.005.11.007.182s0,.152,0,.241l.051,3.13h-.953Z" transform="translate(-513.634 -69.115)"/><path class="a" d="M1127.889,1518.489h.9l.963,2.865a26.007,26.007,0,0,1,.739,2.591q-.116-.833-.172-1.507t-.056-1.269v-2.679h.972v7.18h-.907l-1.084-3.232q-.148-.451-.281-.925t-.244-1c-.006-.044-.016-.1-.03-.158s-.03-.133-.049-.214l.023.207q.009.087.014.147l.052.73.051.888c0,.05,0,.11.007.182s0,.152,0,.241l.051,3.13h-.953Z" transform="translate(-526.315 -69.115)"/><path class="a" d="M1144.584,1518.489h2.571v.819h-1.6v2.274h1.423v.818h-1.423v2.451h1.6v.818h-2.571Z" transform="translate(-538.996 -69.115)"/><path class="a" d="M1160.27,1518.3v.87a1.494,1.494,0,0,0-.623-.182,1.016,1.016,0,0,0-.59.169,1.234,1.234,0,0,0-.407.523,3.277,3.277,0,0,0-.237.9,9.235,9.235,0,0,0-.077,1.281q0,2.66,1.362,2.66a1.457,1.457,0,0,0,.572-.149v.888a1.569,1.569,0,0,1-.781.2q-2.181,0-2.181-3.562a5.986,5.986,0,0,1,.532-2.865,1.751,1.751,0,0,1,1.63-.939A1.667,1.667,0,0,1,1160.27,1518.3Z" transform="translate(-548.661 -68.806)"/><path class="a" d="M1170.636,1518.489h3.148v.846H1172.7v6.334h-.949v-6.334h-1.116Z" transform="translate(-558.785 -69.115)"/><path class="a" d="M996.793,1523H997.9q1.305,0,1.305,1.62a1.926,1.926,0,0,1-.17.919,1.06,1.06,0,0,1-.6.453,1.306,1.306,0,0,1,.675.5,1.791,1.791,0,0,1,.186.915q0,1.676-1.435,1.676h-1.073Zm.773,2.681a.832.832,0,0,0,.663-.221,1.35,1.35,0,0,0,.185-.817q0-.985-.709-.985h-.1a.1.1,0,0,0-.039,0Zm0,2.7a.907.907,0,0,0,.7-.217,1.2,1.2,0,0,0,.194-.785,1.267,1.267,0,0,0-.2-.816.86.86,0,0,0-.69-.236Z" transform="translate(-426.735 -72.539)"/><path class="a" d="M1007.645,1523h.867l.4,1.325c.013.039.026.083.039.13s.029.1.047.154a9.467,9.467,0,0,1,.307,1.206c.048-.326.087-.554.119-.682l.126-.545.047-.212.339-1.376h.856l-1.06,3.47v2.618h-.82v-2.618Z" transform="translate(-434.978 -72.539)"/></g></svg>