<?xml version="1.0" standalone="no"?>
<!DOCTYPE svg PUBLIC "-//W3C//DTD SVG 1.1//EN" "http://www.w3.org/Graphics/SVG/1.1/DTD/svg11.dtd" >
<svg xmlns="http://www.w3.org/2000/svg" xmlns:xlink="http://www.w3.org/1999/xlink" version="1.1">
<metadata>
Created by FontForge 20170731 at Mon Mar  5 17:27:44 2018
 By Aleksey,,,
Copyright (c) 2018 Monotype Imaging Inc. All rights reserved.
</metadata>
<defs>
<font id="NeuePlak-CondExtraBlack" horiz-adv-x="0" >
  <font-face 
    font-family="Neue Plak Condensed ExtraBlack"
    font-weight="900"
    font-stretch="condensed"
    units-per-em="1000"
    panose-1="2 11 11 6 3 2 2 2 2 4"
    ascent="800"
    descent="-200"
    x-height="525"
    cap-height="706"
    bbox="-554 -188 793 1085"
    underline-thickness="50"
    underline-position="-200"
    unicode-range="U+000D-FEFF"
  />
<missing-glyph horiz-adv-x="460" 
d="M19 0v706h422v-706h-422zM185 146h90v414h-90v-414z" />
    <glyph glyph-name=".notdef" horiz-adv-x="460" 
d="M19 0v706h422v-706h-422zM185 146h90v414h-90v-414z" />
    <glyph glyph-name=".null" 
 />
    <glyph glyph-name="nonmarkingreturn" horiz-adv-x="333" 
 />
    <glyph glyph-name="NULL" 
 />
    <glyph glyph-name="NULL" 
 />
    <glyph glyph-name="CR" unicode="&#xd;" horiz-adv-x="127" 
 />
    <glyph glyph-name="space" unicode=" " horiz-adv-x="127" 
 />
    <glyph glyph-name="exclam" unicode="!" horiz-adv-x="261" 
d="M67 213l-19 493h166l-20 -493h-127zM131 -12q-39 0 -63 23t-24 62q0 40 24 63t63 23t62.5 -23t23.5 -63q0 -39 -23.5 -62t-62.5 -23z" />
    <glyph glyph-name="quotedbl" unicode="&#x22;" horiz-adv-x="405" 
d="M58 444l-20 262h151l-20 -262h-111zM236 444l-20 262h151l-20 -262h-111z" />
    <glyph glyph-name="numbersign" unicode="#" horiz-adv-x="527" 
d="M501 412h-70l-13 -117h69l-16 -136h-69l-20 -173h-130l20 173h-62l-20 -173h-129l20 173h-71l16 136h70l14 117h-70l17 136h68l20 172h130l-20 -172h62l20 172h130l-20 -172h70zM288 295l13 117h-62l-13 -117h62z" />
    <glyph glyph-name="dollar" unicode="$" horiz-adv-x="432" 
d="M406 324q18 -40 18 -126q0 -79 -17 -117q-39 -87 -173 -95v-58h-38v58q-134 6 -173 93q-9 21 -12 45t-3 89h169q0 -67 4 -76q5 -12 18 -18v164q-2 1 -52 22q-91 41 -115 94q-17 38 -17 120q0 71 16 108q40 86 166 92v59h39v-58q127 -6 164 -89q9 -20 12 -43.5t3 -90.5
h-162q0 65 -3 74q-4 12 -18 18v-149l45 -18q55 -24 85.5 -46t43.5 -52zM182 477q5 -10 18 -20v134q-18 -4 -23 -19q-2 -8 -2 -42q0 -38 7 -53zM253 135q2 6 2 52q0 43 -7 58q-6 12 -17 20v-148q17 4 22 18z" />
    <glyph glyph-name="percent" unicode="%" horiz-adv-x="498" 
d="M122 409q-76 0 -100 52q-12 27 -12 100t12 100q24 52 100 52q75 0 99 -52q12 -27 12 -100t-12 -100q-24 -52 -99 -52zM45 0l327 706h81l-327 -706h-81zM122 490q11 0 13 7q3 5 3 64q0 58 -3 64q-3 7 -13 7t-14 -7q-3 -6 -3 -64q0 -57 3 -64q4 -7 14 -7zM377 -6
q-76 0 -100 51q-12 27 -12 100q0 75 12 100q24 52 100 52q75 0 99 -52q12 -25 12 -100q0 -73 -12 -100q-24 -51 -99 -51zM377 75q11 0 13 7q3 5 3 63q0 59 -3 64q-3 7 -13 7q-11 0 -14 -7q-3 -6 -3 -64q0 -55 3 -63q3 -7 14 -7z" />
    <glyph glyph-name="ampersand" unicode="&#x26;" horiz-adv-x="500" 
d="M486 310q-13 -94 -39 -158q20 -7 38 -8v-144q-74 0 -128 31q-59 -41 -148 -41q-99 0 -147 47.5t-48 129.5q0 67 32.5 119.5t88.5 104.5q-54 116 -54 181q0 66 43 107t132 41q77 0 123.5 -34.5t46.5 -109.5q0 -35 -21.5 -73.5t-43 -62t-64.5 -65.5l53 -119q7 26 16 76z
M255 616q-30 0 -30 -42q0 -27 21 -79q36 44 36 85q0 36 -27 36zM176 188q0 -34 16.5 -53t44.5 -19q14 0 29 6q-12 22 -14 26l-54 112q-22 -36 -22 -72z" />
    <glyph glyph-name="quotesingle" unicode="'" horiz-adv-x="227" 
d="M58 444l-20 262h151l-20 -262h-111z" />
    <glyph glyph-name="parenleft" unicode="(" horiz-adv-x="257" 
d="M128 -170q-50 113 -73 222t-23 248q0 140 23 248t73 223h126q-85 -231 -85 -471t85 -470h-126z" />
    <glyph glyph-name="parenright" unicode=")" horiz-adv-x="257" 
d="M129 -170h-126q85 230 85 470t-85 471h126q50 -115 73 -223t23 -248q0 -139 -23 -248t-73 -222z" />
    <glyph glyph-name="asterisk" unicode="*" horiz-adv-x="349" 
d="M142 432l-91 66l77 59l-98 3l35 107l81 -55l-28 94h113l-28 -94l81 55l35 -107l-98 -3l77 -59l-91 -66l-33 92z" />
    <glyph glyph-name="plus" unicode="+" horiz-adv-x="410" 
d="M383 368v-118h-118v-120h-120v120h-118v118h118v121h121v-121h117z" />
    <glyph glyph-name="comma" unicode="," horiz-adv-x="232" 
d="M17 -161l44 323h140l-73 -323h-111z" />
    <glyph glyph-name="hyphen" unicode="-" horiz-adv-x="272" 
d="M27 243v134h218v-134h-218z" />
    <glyph glyph-name="period" unicode="." horiz-adv-x="264" 
d="M132 -12q-39 0 -63 23t-24 62q0 40 24 63t63 23t62.5 -23t23.5 -63q0 -39 -23.5 -62t-62.5 -23z" />
    <glyph glyph-name="slash" unicode="/" horiz-adv-x="386" 
d="M16 -50l209 770h146l-209 -770h-146z" />
    <glyph glyph-name="zero" unicode="0" horiz-adv-x="449" 
d="M224 -14q-137 0 -183 106q-15 35 -20 85t-5 176t5 176t20 85q46 106 183 106q138 0 184 -106q15 -36 20 -86.5t5 -174.5t-5 -174.5t-20 -86.5q-46 -106 -184 -106zM224 132q26 0 34 19q5 12 5 202t-5 202q-8 19 -34 19q-27 0 -33 -19q-5 -12 -5 -202t5 -202q6 -19 33 -19
z" />
    <glyph glyph-name="one" unicode="1" horiz-adv-x="265" 
d="M73 0v552h-73l26 154h211v-706h-164z" />
    <glyph glyph-name="two" unicode="2" horiz-adv-x="405" 
d="M7 0v2l180 371q26 55 34 80.5t8 58.5q0 38 -3 45q-7 18 -28 18q-22 0 -30 -18q-5 -11 -5 -81h-156q0 111 19 155q40 89 174 89q135 0 178 -95q16 -36 16 -98q0 -97 -43 -181q-41 -93 -98 -198h143v-148h-389z" />
    <glyph glyph-name="three" unicode="3" horiz-adv-x="415" 
d="M387 321q12 -27 12 -104q0 -70 -3 -94.5t-12 -44.5q-42 -92 -181 -92q-138 0 -177 88q-19 40 -19 161h153q0 -76 6 -87q7 -20 32 -20q26 0 33 20q4 8 4 74q0 47 -6 62q-12 25 -58 25h-18v123h19q42 0 55 25q5 13 5 53q0 45 -4 56q-7 18 -30 18q-24 0 -31 -19
q-2 -7 -4 -68h-152q0 101 16 135q39 88 178 88q133 0 173 -89q15 -34 15 -116q0 -64 -11 -87q-17 -37 -63 -54q51 -14 68 -53z" />
    <glyph glyph-name="four" unicode="4" horiz-adv-x="483" 
d="M475 280v-150h-53v-130h-161v130h-270v1l134 575h297v-426h53zM193 280h68v359h-2z" />
    <glyph glyph-name="five" unicode="5" horiz-adv-x="413" 
d="M207 -14q-136 0 -179 91q-19 41 -19 158h155q0 -79 6 -92q9 -18 31 -18q23 0 31 19q5 10 5 89q0 76 -8 96q-17 37 -101 37q-45 0 -99 -7l40 347h323l-25 -150h-164l-11 -86q29 6 56 6q103 0 136 -76q17 -35 17 -157q0 -80 -3 -111.5t-14 -54.5q-40 -91 -177 -91z" />
    <glyph glyph-name="six" unicode="6" horiz-adv-x="444" 
d="M415 399q9 -20 12 -48t3 -106q0 -79 -3.5 -108t-14.5 -54q-42 -97 -184 -97q-139 0 -187 107q-15 35 -20 85t-5 172q0 123 5 173.5t21 85.5q51 111 189 111q95 0 146 -51q24 -25 34 -64.5t13 -102.5h-156q-1 61 -9 70q-10 10 -29 10q-32 0 -43 -28q-9 -19 -9 -130
q36 45 110 45q96 0 127 -70zM262 149q4 11 4 86q0 78 -5 89q-8 21 -34 21q-27 0 -36 -22q-5 -15 -5 -89q0 -72 5 -85q8 -22 35 -22t36 22z" />
    <glyph glyph-name="seven" unicode="7" horiz-adv-x="393" 
d="M46 0l144 552h-178v154h387l-177 -706h-176z" />
    <glyph glyph-name="eight" unicode="8" horiz-adv-x="436" 
d="M407 340q14 -31 14 -130q0 -104 -13 -132q-43 -92 -190 -92q-148 0 -189 92q-14 31 -14 132q0 98 13 129q19 43 73 58q-50 16 -68 56q-11 23 -11 91q0 64 13 90q39 86 183 86q143 0 184 -86q13 -29 13 -90q0 -65 -11 -91q-18 -40 -68 -56q51 -15 71 -57zM187 578
q-5 -9 -5 -58t4 -57q8 -19 32 -19t32 19q4 8 4 57t-4 58q-10 19 -32 19q-23 0 -31 -19zM252 142q4 8 4 82q0 70 -4 81q-9 20 -34 20q-24 0 -33 -20q-5 -10 -5 -81t4 -82q10 -19 34 -19q25 0 34 19z" />
    <glyph glyph-name="nine" unicode="9" horiz-adv-x="444" 
d="M403 614q15 -35 20 -85t5 -172q0 -123 -5 -173.5t-21 -85.5q-51 -111 -189 -111q-95 0 -146 51q-40 41 -47 166h155q3 -60 9 -69q11 -11 30 -11q30 0 43 29q8 20 8 130q-36 -45 -109 -45q-96 0 -127 69q-9 21 -12 49t-3 105q0 79 3.5 108.5t14.5 54.5q42 96 184 96
q139 0 187 -106zM253 384q4 12 4 89q0 74 -4 85q-9 22 -35 22q-27 0 -36 -22q-4 -11 -4 -86q0 -77 4 -89q10 -22 35 -22q26 0 36 23z" />
    <glyph glyph-name="colon" unicode=":" horiz-adv-x="264" 
d="M132 335q-39 0 -63 23t-24 62t24 62.5t63 23.5t62.5 -23.5t23.5 -62.5t-23.5 -62t-62.5 -23zM132 -12q-39 0 -63 23t-24 62q0 40 24 63t63 23t62.5 -23t23.5 -63q0 -39 -23.5 -62t-62.5 -23z" />
    <glyph glyph-name="semicolon" unicode=";" horiz-adv-x="261" 
d="M129 335q-39 0 -63 23t-24 62t24 62.5t63 23.5t62.5 -23.5t23.5 -62.5t-23.5 -62t-62.5 -23zM17 -161l44 323h140l-73 -323h-111z" />
    <glyph glyph-name="less" unicode="&#x3c;" horiz-adv-x="410" 
d="M383 492v-117l-230 -65l230 -65v-118l-356 105v156z" />
    <glyph glyph-name="equal" unicode="=" horiz-adv-x="410" 
d="M27 338v117h356v-117h-356zM27 164v117h356v-117h-356z" />
    <glyph glyph-name="greater" unicode="&#x3e;" horiz-adv-x="410" 
d="M27 492l356 -104v-156l-356 -105v118l230 65l-230 65v117z" />
    <glyph glyph-name="question" unicode="?" horiz-adv-x="421" 
d="M119 213q100 262 109 295q6 25 6 48q0 33 -27 33q-18 0 -24 -14q-3 -9 -3 -61h-156q0 83 14 116q41 90 174 90q86 0 135.5 -41.5t49.5 -116.5q0 -32 -12.5 -72t-69.5 -199q-18 -49 -28 -78h-168zM200 -12q-39 0 -63 23t-24 62q0 40 24 63t63 23q38 0 62 -23t24 -63
q0 -39 -24 -62t-62 -23z" />
    <glyph glyph-name="at" unicode="@" horiz-adv-x="553" 
d="M509 569q29 -65 29 -233q0 -152 -22 -202q-20 -44 -56.5 -62.5t-103.5 -18.5h-52v50q-34 -51 -92 -51q-60 0 -80 44q-10 21 -10 95q0 72 10 95q13 29 43.5 43t95.5 14h29v8q0 78 -2 84q-4 10 -20 10q-15 0 -20 -10q-3 -6 -3 -50h-124q-2 59 12 89q28 61 139 61
q104 0 130 -55q13 -27 13 -121v-230q23 10 35 38q13 30 13 167q0 159 -23 210q-42 91 -171 91q-128 0 -171 -98q-28 -62 -28 -220q0 -201 28 -262q44 -97 193 -97q39 0 78 6v-60q-43 -5 -79 -5q-192 0 -253 130q-32 70 -32 285q0 173 35 249q58 128 231 128t228 -122z
M301 264v7h-15q-25 0 -31 -13q-3 -6 -3 -37q0 -41 2 -46q6 -11 21 -11q18 0 23 13q3 7 3 87z" />
    <glyph glyph-name="A" unicode="A" horiz-adv-x="481" 
d="M315 0l-12 97h-124l-13 -97h-167l113 706h257l113 -706h-167zM196 233h89l-43 339h-2z" />
    <glyph glyph-name="B" unicode="B" horiz-adv-x="434" 
d="M409 312q11 -24 11 -104q0 -104 -12 -133q-34 -75 -149 -75h-235v706h233q107 0 140 -68q13 -28 13 -110q0 -70 -11 -96q-21 -44 -86 -55q75 -17 96 -65zM189 586v-156h11q27 0 37 22q3 10 3 65q0 37 -3 48q-9 21 -36 21h-12zM243 145q4 11 4 74q0 53 -4 64q-8 22 -42 22
h-12v-183h12q34 0 42 23z" />
    <glyph glyph-name="C" unicode="C" horiz-adv-x="465" 
d="M240 -13q-149 0 -201 118q-15 34 -19.5 81.5t-4.5 166.5t4.5 166.5t19.5 81.5q54 118 201 118q92 0 148 -51q36 -32 50 -77.5t14 -121.5h-171q0 51 -3 67.5t-12 23.5q-11 11 -31 11q-30 0 -41 -27q-8 -20 -8 -191t7 -191q13 -27 43 -27q19 0 32 11t14 87h172
q-2 -138 -63 -195q-56 -51 -151 -51z" />
    <glyph glyph-name="D" unicode="D" horiz-adv-x="467" 
d="M24 0v706h206q147 0 199 -113q14 -32 18.5 -75.5t4.5 -164.5t-4.5 -164.5t-18.5 -75.5q-52 -113 -199 -113h-206zM190 140h21q45 0 62 33q8 19 8 177q0 164 -8 183q-17 33 -62 33h-21v-426z" />
    <glyph glyph-name="E" unicode="E" horiz-adv-x="341" 
d="M24 0v706h301v-147h-135v-118h132v-143h-132v-152h135v-146h-301z" />
    <glyph glyph-name="F" unicode="F" horiz-adv-x="310" 
d="M24 0v706h272v-146h-106v-119h104v-144h-104v-297h-166z" />
    <glyph glyph-name="G" unicode="G" horiz-adv-x="469" 
d="M235 376h219v-54q0 -103 -5 -146t-19 -77q-51 -112 -191 -112q-147 0 -200 118q-15 34 -19.5 81.5t-4.5 166.5t4.5 166.5t19.5 81.5q53 118 200 118q95 0 150 -51q34 -31 47.5 -74.5t15.5 -116.5h-168q-1 74 -14 85q-11 11 -33 11q-32 0 -43 -28q-8 -20 -8 -192t8 -192
q11 -28 48 -28q33 0 43 25q5 15 5 87h-55v131z" />
    <glyph glyph-name="H" unicode="H" horiz-adv-x="470" 
d="M24 0v706h166v-265h90v265h166v-706h-166v295h-90v-295h-166z" />
    <glyph glyph-name="I" unicode="I" horiz-adv-x="213" 
d="M24 0v706h166v-706h-166z" />
    <glyph glyph-name="J" unicode="J" horiz-adv-x="247" 
d="M59 -2q-18 0 -54 2v152q3 0 9 -0.5t9 -0.5q23 0 32 11t9 38v506h166v-535q0 -89 -40.5 -131t-130.5 -42z" />
    <glyph glyph-name="K" unicode="K" horiz-adv-x="477" 
d="M479 0h-181l-108 305v-305h-166v706h166v-246l90 246h179l-127 -319z" />
    <glyph glyph-name="L" unicode="L" horiz-adv-x="284" 
d="M24 0v706h166v-556h89v-150h-255z" />
    <glyph glyph-name="M" unicode="M" horiz-adv-x="612" 
d="M24 0v706h199l83 -340l83 340h199v-706h-158v365l-80 -365h-88l-80 365v-365h-158z" />
    <glyph glyph-name="N" unicode="N" horiz-adv-x="498" 
d="M24 0v706h148l142 -326v326h161v-706h-145l-146 333v-333h-160z" />
    <glyph glyph-name="O" unicode="O" horiz-adv-x="479" 
d="M239 -14q-147 0 -199 117q-15 34 -20 82.5t-5 167.5t5 167.5t20 82.5q52 117 199 117q148 0 200 -117q15 -34 20 -82.5t5 -167.5t-5 -167.5t-20 -82.5q-52 -117 -200 -117zM239 135q34 0 46 31q8 19 8 187q0 171 -7 187q-12 31 -47 31q-34 0 -46 -31q-7 -16 -7 -187
q0 -167 7 -187q14 -31 46 -31z" />
    <glyph glyph-name="P" unicode="P" horiz-adv-x="425" 
d="M24 0v706h232q116 0 147 -71q15 -35 15 -136q0 -97 -15 -131q-32 -73 -147 -73h-66v-295h-166zM190 421h18q28 0 36 16q5 10 5 62t-5 62q-8 16 -36 16h-18v-156z" />
    <glyph glyph-name="Q" unicode="Q" horiz-adv-x="479" 
d="M439 103q-26 -57 -74 -86l55 -108l-137 -60l-61 137q-133 8 -182 117q-15 34 -20 82.5t-5 167.5t5 167.5t20 82.5q52 117 199 117q148 0 200 -117q15 -34 20 -82.5t5 -167.5t-5 -167.5t-20 -82.5zM186 353q0 -167 7 -187q14 -31 46 -31q34 0 46 31q8 19 8 187
q0 171 -7 187q-12 31 -47 31q-34 0 -46 -31q-7 -16 -7 -187z" />
    <glyph glyph-name="R" unicode="R" horiz-adv-x="441" 
d="M358 365q55 -24 55 -108v-257h-166v254q0 22 -9 31.5t-31 9.5h-17v-295h-166v706h233q117 0 147 -68q15 -34 15 -124q0 -78 -12 -103q-13 -31 -49 -46zM245 440q4 12 4 67q0 43 -4 54q-10 17 -33 17h-22v-154h22q23 0 33 16z" />
    <glyph glyph-name="S" unicode="S" horiz-adv-x="425" 
d="M211 -14q-147 0 -189 93q-9 21 -12 45t-3 89h175q0 -61 3 -72q7 -18 29 -18q21 0 27 16q2 6 2 48q0 38 -6 54q-5 10 -16 19t-19.5 13.5t-30 14t-30.5 13.5q-88 46 -111 96q-16 37 -16 123q0 71 16 107q43 93 182 93q136 0 178 -89q9 -21 12 -44t3 -90h-168q0 65 -4 74
q-6 14 -25 14q-20 0 -25 -15q-2 -5 -2 -40q0 -34 6 -50q3 -7 8.5 -12.5t16 -11.5t16.5 -9t23.5 -10t24.5 -10q52 -24 81.5 -46t43.5 -54q17 -39 17 -128q0 -80 -17 -118q-43 -95 -190 -95z" />
    <glyph glyph-name="T" unicode="T" horiz-adv-x="333" 
d="M84 0v560h-79v146h323v-146h-78v-560h-166z" />
    <glyph glyph-name="U" unicode="U" horiz-adv-x="452" 
d="M225 -14q-110 0 -158.5 47.5t-48.5 148.5v524h166v-522q0 -50 41 -50q43 0 43 50v522h166v-524q0 -100 -49.5 -148t-159.5 -48z" />
    <glyph glyph-name="V" unicode="V" horiz-adv-x="463" 
d="M298 706h166l-151 -706h-162l-152 706h166l67 -424z" />
    <glyph glyph-name="W" unicode="W" horiz-adv-x="676" 
d="M516 706h161l-119 -706h-165l-55 374l-55 -374h-163l-121 706h161l50 -387l50 387h157l50 -391z" />
    <glyph glyph-name="X" unicode="X" horiz-adv-x="484" 
d="M-3 0l133 374l-119 332h175l56 -213l57 213h175l-120 -334l132 -372h-176l-68 250l-68 -250h-177z" />
    <glyph glyph-name="Y" unicode="Y" horiz-adv-x="443" 
d="M139 0v282l-140 424h167l56 -237l55 237h167l-139 -424v-282h-166z" />
    <glyph glyph-name="Z" unicode="Z" horiz-adv-x="375" 
d="M3 0l142 560h-131v146h347l-141 -560h146v-146h-363z" />
    <glyph glyph-name="bracketleft" unicode="[" horiz-adv-x="240" 
d="M40 -170v941h189v-124h-54v-693h54v-124h-189z" />
    <glyph glyph-name="backslash" unicode="\" horiz-adv-x="386" 
d="M371 -50h-146l-209 770h146z" />
    <glyph glyph-name="bracketright" unicode="]" horiz-adv-x="240" 
d="M200 -170h-188v124h53v693h-53v124h188v-941z" />
    <glyph glyph-name="asciicircum" unicode="^" horiz-adv-x="376" 
d="M367 410h-145l-34 161l-33 -161h-146l80 296h198z" />
    <glyph glyph-name="underscore" unicode="_" horiz-adv-x="274" 
d="M0 -171v132h274v-132h-274z" />
    <glyph glyph-name="grave" unicode="`" horiz-adv-x="312" 
d="M262 565h-130l-82 141h148z" />
    <glyph glyph-name="a" unicode="a" horiz-adv-x="397" 
d="M365 458q15 -34 15 -122v-336h-155v50q-39 -59 -108 -59q-75 0 -99 53q-12 27 -12 105q0 79 12 105q30 69 170 69h37v7q0 66 -3 75q-6 13 -24 13q-20 0 -25 -13q-3 -5 -3 -40h-152q0 63 12 89q36 79 169 79q131 0 166 -75zM192 110q23 0 29 16q4 9 4 96v7h-20
q-31 0 -37 -14q-2 -6 -2 -44q0 -43 2 -48q6 -13 24 -13z" />
    <glyph glyph-name="b" unicode="b" horiz-adv-x="413" 
d="M383 467q11 -23 14.5 -61t3.5 -144q0 -105 -3.5 -143t-14.5 -62q-31 -66 -109 -66q-69 0 -104 56v-47h-151v706h155v-222q35 50 100 50q78 0 109 -67zM234 136q5 11 5 126q0 116 -5 127q-6 17 -29 17q-32 0 -32 -45v-198q0 -44 32 -44q23 0 29 17z" />
    <glyph glyph-name="c" unicode="c" horiz-adv-x="401" 
d="M201 -9q-128 0 -170 93q-11 24 -15 59t-4 119q0 85 4 119.5t15 59.5q42 93 170 93q92 0 139 -43q28 -25 37.5 -60t11.5 -102h-162q-1 64 -9 71q-6 6 -17 6q-16 0 -22 -14q-4 -10 -4 -130t4 -129q6 -14 22 -14q10 0 17 5q9 10 9 84h161q-1 -75 -10.5 -111.5t-38.5 -62.5
q-48 -43 -138 -43z" />
    <glyph glyph-name="d" unicode="d" horiz-adv-x="414" 
d="M240 706h155v-706h-152v46q-35 -55 -104 -55q-78 0 -109 66q-11 24 -14.5 62t-3.5 143q0 106 3.5 144t14.5 61q31 67 109 67q65 0 101 -51v223zM240 163v198q0 45 -32 45q-21 0 -29 -17q-5 -15 -5 -127q0 -111 5 -126q8 -17 29 -17q32 0 32 44z" />
    <glyph glyph-name="e" unicode="e" horiz-adv-x="402" 
d="M224 119q7 7 8 55h157q-1 -56 -11 -86t-35 -53q-48 -44 -138 -44q-133 0 -175 93q-11 25 -14.5 59.5t-3.5 120.5q0 87 3.5 119.5t14.5 56.5q42 94 169 94q129 0 173 -95q12 -27 15 -63t3 -147h-222q0 -89 5 -101q6 -16 30 -16q12 0 21 7zM201 416q-22 0 -28 -16
q-4 -11 -5 -77h66q0 62 -4 76q-8 17 -29 17z" />
    <glyph glyph-name="f" unicode="f" horiz-adv-x="277" 
d="M48 0v386h-41v139h41v45q0 79 40 113t126 34q33 0 57 -4v-130q-14 3 -27 3q-41 0 -41 -44v-17h62v-139h-62v-386h-155z" />
    <glyph glyph-name="g" unicode="g" horiz-adv-x="414" 
d="M244 525h151v-500q0 -88 -17 -122q-38 -85 -173 -85q-97 0 -145 42q-36 33 -43 109h156q1 -25 8 -31q7 -7 26 -7q25 0 31 16q3 11 3 52v50q-37 -55 -103 -55q-77 0 -107 63q-12 26 -15.5 62.5t-3.5 142.5q0 112 3.5 146.5t15.5 59.5q31 65 107 65q69 0 106 -57v49z
M208 119q33 0 33 44v201q0 42 -33 42q-21 0 -29 -17q-5 -14 -5 -125q0 -116 5 -128q8 -17 29 -17z" />
    <glyph glyph-name="h" unicode="h" horiz-adv-x="402" 
d="M280 533q105 0 105 -123v-410h-155v370q0 36 -27 36q-29 0 -29 -37v-369h-155v706h155v-231q41 58 106 58z" />
    <glyph glyph-name="i" unicode="i" horiz-adv-x="193" 
d="M97 563q-35 0 -58 21.5t-23 56.5t23 56t58 21t58 -21t23 -56t-23 -56.5t-58 -21.5zM19 0v525h155v-525h-155z" />
    <glyph glyph-name="j" unicode="j" horiz-adv-x="197" 
d="M101 563q-35 0 -58.5 21.5t-23.5 56.5t23.5 56t58.5 21t57.5 -21t22.5 -56t-23 -56.5t-57 -21.5zM31 -172q-39 0 -57 2v135q18 -2 20 -2q30 0 30 35v527h155v-557q0 -74 -36 -107t-112 -33z" />
    <glyph glyph-name="k" unicode="k" horiz-adv-x="415" 
d="M424 0h-180l-70 210v-210h-155v706h155v-351l61 170h177l-98 -241z" />
    <glyph glyph-name="l" unicode="l" horiz-adv-x="193" 
d="M19 0v706h155v-706h-155z" />
    <glyph glyph-name="m" unicode="m" horiz-adv-x="609" 
d="M488 533q104 0 104 -124v-409h-155v366q0 40 -27 40t-27 -41v-365h-155v368q0 38 -27 38t-27 -41v-365h-155v525h155v-51q36 59 108 59q76 0 94 -60q41 60 112 60z" />
    <glyph glyph-name="n" unicode="n" horiz-adv-x="402" 
d="M280 533q105 0 105 -122v-411h-155v370q0 36 -27 36q-29 0 -29 -37v-369h-155v525h155v-49q41 57 106 57z" />
    <glyph glyph-name="o" unicode="o" horiz-adv-x="407" 
d="M203 -9q-130 0 -173 94q-11 25 -14.5 58t-3.5 119t3.5 119.5t14.5 58.5q43 94 173 94q131 0 173 -94q12 -25 15.5 -58t3.5 -120q0 -86 -3.5 -119t-15.5 -58q-42 -94 -173 -94zM203 119q19 0 27 15q4 12 4 128q0 117 -4 129q-8 15 -27 15q-20 0 -26 -15q-4 -12 -4 -129
q0 -116 4 -128q6 -15 26 -15z" />
    <glyph glyph-name="p" unicode="p" horiz-adv-x="413" 
d="M383 467q11 -23 14.5 -61t3.5 -144q0 -105 -3.5 -143t-14.5 -62q-31 -66 -109 -66q-64 0 -100 51v-212h-155v695h151v-48q35 57 104 57q78 0 109 -67zM234 137q5 11 5 125q0 116 -5 127q-6 17 -29 17q-32 0 -32 -45v-196q0 -45 32 -45q23 0 29 17z" />
    <glyph glyph-name="q" unicode="q" horiz-adv-x="414" 
d="M243 525h152v-695h-155v212q-36 -51 -101 -51q-78 0 -109 66q-11 24 -14.5 62t-3.5 143q0 106 3.5 144t14.5 61q31 67 109 67q69 0 104 -56v47zM208 120q32 0 32 45v196q0 45 -32 45q-21 0 -29 -17q-5 -15 -5 -127q0 -110 5 -125q8 -17 29 -17z" />
    <glyph glyph-name="r" unicode="r" horiz-adv-x="281" 
d="M252 528q12 0 22 -3v-146q-10 2 -20 2q-38 0 -59 -27t-21 -79v-275h-155v525h151v-55q27 58 82 58z" />
    <glyph glyph-name="s" unicode="s" horiz-adv-x="370" 
d="M183 -11q-124 0 -160 78q-14 30 -14 106h153q0 -49 3 -56q4 -12 19 -12q14 0 17 10q2 4 2 24q0 27 -4 35q-9 19 -60 41q-45 20 -71 39t-39 49q-13 27 -13 83q0 42 12 71q33 76 157 76q123 0 156 -73q12 -26 12 -89h-150q0 33 -3 41q-5 11 -16 11q-12 0 -16 -9
q-2 -8 -2 -16q0 -21 4 -29q8 -18 67 -44q34 -16 49.5 -24t34.5 -25t28 -38q12 -24 12 -87q0 -53 -13 -83q-36 -79 -165 -79z" />
    <glyph glyph-name="t" unicode="t" horiz-adv-x="273" 
d="M191 -6q-77 0 -110 30t-33 112v250h-41v139h41v112h155v-112h57v-139h-57v-216q0 -25 8 -34t27 -9q7 0 27 2v-128q-36 -7 -74 -7z" />
    <glyph glyph-name="u" unicode="u" horiz-adv-x="402" 
d="M228 525h155v-525h-155v49q-41 -58 -106 -58q-105 0 -105 123v411h155v-370q0 -36 27 -36q29 0 29 37v369z" />
    <glyph glyph-name="v" unicode="v" horiz-adv-x="405" 
d="M115 0l-121 525h164l45 -334l44 334h164l-121 -525h-175z" />
    <glyph glyph-name="w" unicode="w" horiz-adv-x="622" 
d="M471 525h157l-119 -525h-154l-44 272l-44 -272h-155l-118 525h155l40 -271l50 271h142l51 -268z" />
    <glyph glyph-name="x" unicode="x" horiz-adv-x="420" 
d="M-7 0l116 273l-109 252h170l40 -140l41 140h169l-109 -252l116 -273h-167l-50 157l-49 -157h-168z" />
    <glyph glyph-name="y" unicode="y" horiz-adv-x="394" 
d="M241 525h159l-130 -524l-46 -171h-150l45 173l-125 522h164l39 -314z" />
    <glyph glyph-name="z" unicode="z" horiz-adv-x="347" 
d="M351 525l-139 -386h128v-139h-344l147 386h-134v139h342z" />
    <glyph glyph-name="braceleft" unicode="{" horiz-adv-x="277" 
d="M210 408q0 -49 -16.5 -74.5t-55.5 -32.5q39 -7 55.5 -33t16.5 -75v-185q0 -36 10.5 -49.5t41.5 -13.5h3v-115h-38q-76 0 -110 36.5t-34 115.5v192q0 32 -12.5 44t-42.5 12v141q31 0 43 12t12 44v191q0 79 34 116t110 37h38v-115h-3q-31 0 -41.5 -13.5t-10.5 -49.5v-185z
" />
    <glyph glyph-name="bar" unicode="|" horiz-adv-x="235" 
d="M43 -170v926h149v-926h-149z" />
    <glyph glyph-name="braceright" unicode="}" horiz-adv-x="277" 
d="M194 427q0 -32 12 -44t43 -12v-141q-30 0 -42.5 -12t-12.5 -44v-192q0 -79 -34 -115.5t-110 -36.5h-38v115h3q31 0 41.5 13.5t10.5 49.5v185q0 49 16.5 75t55.5 33q-39 7 -55.5 32.5t-16.5 74.5v185q0 36 -10.5 49.5t-41.5 13.5h-3v115h38q76 0 110 -37t34 -116v-191z
" />
    <glyph glyph-name="asciitilde" unicode="~" horiz-adv-x="410" 
d="M271 210q-33 0 -77 35q-25 17 -34 17q-18 0 -19 -51h-104q2 106 24 152t80 46q31 0 77 -34q23 -18 34 -18q18 0 19 51h103q-2 -106 -24 -152t-79 -46z" />
    <glyph glyph-name="uni00A0" unicode="&#xa0;" horiz-adv-x="127" 
 />
    <glyph glyph-name="exclamdown" unicode="&#xa1;" horiz-adv-x="261" 
d="M131 363q-39 0 -63 23t-24 62q0 40 24 63t63 23t62.5 -23t23.5 -63q0 -39 -23.5 -62t-62.5 -23zM46 -170l21 479h128l18 -479h-167z" />
    <glyph glyph-name="cent" unicode="&#xa2;" horiz-adv-x="401" 
d="M228 217q9 12 9 82h151q-1 -76 -10.5 -112t-38.5 -62q-42 -39 -118 -43v-82h-38v81q-114 8 -153 94q-11 25 -14.5 59t-3.5 119q0 84 3.5 118.5t14.5 59.5q39 86 153 94v81h38v-82q78 -5 119 -43q28 -25 37.5 -59.5t11.5 -101.5h-152q-1 61 -9 70q-4 5 -10 8v-289
q4 2 10 8zM170 224q6 -12 16 -15v289q-10 -3 -16 -15q-5 -11 -5 -130q0 -118 5 -129z" />
    <glyph glyph-name="sterling" unicode="&#xa3;" horiz-adv-x="458" 
d="M281 160q5 11 5 75h159q0 -60 -4 -88.5t-16 -54.5q-42 -92 -168 -92h-245v137h40v186h-40v73h40v57q0 81 4 113.5t17 59.5q41 94 178 94q133 0 174 -93q21 -47 21 -150h-160q0 77 -5 90q-7 18 -29 18t-29 -19q-5 -11 -5 -111v-59h136v-73h-136v-186h22q31 0 41 23z" />
    <glyph glyph-name="currency" unicode="&#xa4;" horiz-adv-x="391" 
d="M348 209q-9 -20 -23 -36l51 -112h-97l-31 70q-27 -5 -52 -5q-27 0 -55 5l-31 -70h-95l51 113q-14 16 -23 35q-16 36 -16 144t16 144q10 20 24 37l-53 112h96l32 -71q27 5 54 5q26 0 53 -5l32 71h96l-53 -112q14 -15 24 -37q17 -38 17 -144t-17 -144zM155 270
q10 -25 41 -25t41 25q5 17 5 83t-5 83q-10 25 -41 25q-30 0 -42 -25q-4 -13 -4 -83q0 -71 5 -83z" />
    <glyph glyph-name="yen" unicode="&#xa5;" horiz-adv-x="432" 
d="M439 706l-134 -365h103v-63h-107v-31h107v-63h-107v-184h-166v184h-109v63h109v31h-109v63h105l-137 365h169l56 -213l56 213h164z" />
    <glyph glyph-name="brokenbar" unicode="&#xa6;" horiz-adv-x="235" 
d="M43 443v313h149v-313h-149zM43 -170v313h149v-313h-149z" />
    <glyph glyph-name="section" unicode="&#xa7;" horiz-adv-x="387" 
d="M363 68q13 -29 13 -83t-14 -85q-37 -80 -170 -80q-130 0 -168 79q-13 27 -13 106h156q0 -43 3 -51q6 -13 23 -13t22 12q2 5 2 25q0 24 -5 34q-10 21 -68 49q-48 23 -75 43t-42 52q-14 33 -14 114q0 66 12 91q18 40 62 61q-42 29 -56 63q-14 31 -14 79q0 44 12 73
q36 82 167 82q126 0 162 -77q13 -29 13 -93h-154q0 31 -3 39q-5 12 -20 12q-16 0 -21 -12q-2 -10 -2 -18q0 -16 5 -26q6 -13 20.5 -22.5t48.5 -27.5q33 -16 50.5 -26t37 -28t29.5 -40q12 -26 12 -116q0 -69 -13 -99q-16 -36 -52 -55q38 -27 54 -62zM165 329q-2 -5 -2 -52
q0 -51 2 -56q6 -16 29 -16q22 0 28 15q3 6 3 57q0 46 -3 52q-6 17 -29 17q-22 0 -28 -17z" />
    <glyph glyph-name="dieresis" unicode="&#xa8;" horiz-adv-x="419" 
d="M125 561q-33 0 -54 20t-21 52t21 51.5t54 19.5q32 0 52.5 -19.5t20.5 -51.5t-20.5 -52t-52.5 -20zM296 560q-32 0 -53.5 20.5t-21.5 52.5t21 51.5t54 19.5q32 0 52.5 -19.5t20.5 -51.5t-20.5 -52.5t-52.5 -20.5z" />
    <glyph glyph-name="copyright" unicode="&#xa9;" horiz-adv-x="538" 
d="M269 -14q-166 0 -225 130q-29 68 -29 237q0 170 29 236q60 131 225 131q166 0 224 -128q30 -66 30 -239q0 -171 -29 -236q-61 -131 -225 -131zM269 44q124 0 169 103q22 47 22 204q0 162 -24 214q-43 97 -166 97q-125 0 -171 -101q-21 -48 -21 -207q0 -162 22 -208
q46 -102 169 -102zM271 103q-101 0 -138 81q-10 22 -13.5 52.5t-3.5 116.5q0 85 3.5 116t13.5 53q36 82 138 82q63 0 104 -36q44 -41 44 -137h-125q-2 47 -4 54q-6 12 -21 12q-16 0 -23 -15q-4 -11 -4 -128q0 -115 5 -124q6 -14 22 -14q15 0 22 13q3 9 3 54h126
q0 -57 -9.5 -89.5t-33.5 -54.5q-41 -36 -106 -36z" />
    <glyph glyph-name="ordfeminine" unicode="&#xaa;" horiz-adv-x="281" 
d="M259 663q10 -24 10 -85v-235h-112v36q-29 -42 -76 -42q-51 0 -69 36q-8 20 -8 71q0 57 9 76q22 48 119 48h25v4q0 46 -2 54q-5 8 -16 8q-12 0 -14 -8q-2 -4 -2 -27h-111q0 44 9 63q24 55 119 55q93 0 119 -54zM137 422q13 0 18 10q2 10 2 65v7h-13q-18 0 -22 -9
q-2 -3 -2 -31q0 -30 2 -33q3 -9 15 -9z" />
    <glyph glyph-name="guillemotleft" unicode="&#xab;" horiz-adv-x="418" 
d="M92 141l-85 163l85 164h139l-85 -164l85 -163h-139zM272 141l-85 163l85 164h139l-85 -164l85 -163h-139z" />
    <glyph glyph-name="logicalnot" unicode="&#xac;" horiz-adv-x="410" 
d="M263 131v170h-236v117h356v-287h-120z" />
    <glyph glyph-name="uni00AD" unicode="&#xad;" horiz-adv-x="272" 
d="M27 243v134h218v-134h-218z" />
    <glyph glyph-name="registered" unicode="&#xae;" horiz-adv-x="359" 
d="M330 636q11 -23 14 -45t3 -79t-3 -79t-14 -45q-36 -77 -151 -77q-114 0 -150 77q-11 23 -14 45t-3 79t3 79t14 45q36 77 150 77q115 0 151 -77zM281 408q12 24 12 104t-12 104q-22 48 -102 48q-79 0 -101 -48q-12 -27 -12 -104t12 -104q22 -48 101 -48q80 0 102 48z
M262 558q0 -26 -5.5 -38t-21.5 -16q26 -9 26 -43v-64h-70v62q0 9 -2.5 12t-11.5 3h-6v-77h-70v230h94q40 0 53.5 -15t13.5 -54zM180 533q7 0 9.5 4t2.5 16t-2.5 16t-9.5 4h-9v-40h9z" />
    <glyph glyph-name="macron" unicode="&#xaf;" horiz-adv-x="343" 
d="M50 579v103h243v-103h-243z" />
    <glyph glyph-name="degree" unicode="&#xb0;" horiz-adv-x="304" 
d="M152 460q-60 0 -97.5 36.5t-37.5 93.5t37.5 93.5t97.5 36.5t97.5 -36.5t37.5 -93.5t-37.5 -93.5t-97.5 -36.5zM152 552q36 0 36 38q0 18 -10 28t-26 10t-26 -10t-10 -28q0 -38 36 -38z" />
    <glyph glyph-name="plusminus" unicode="&#xb1;" horiz-adv-x="410" 
d="M265 427h118v-117h-119v-83h-119v83h-118v117h118v83h120v-83zM27 88v118h356v-118h-356z" />
    <glyph glyph-name="uni00B2" unicode="&#xb2;" horiz-adv-x="272" 
d="M1 438v4l123 199q25 41 25 67q0 25 -2 27q-3 7 -14 7q-12 0 -16 -9q-3 -4 -3 -27h-109q0 50 11 72q26 56 117 56q94 0 120 -56q10 -23 10 -51q0 -57 -26 -102q-22 -39 -57 -87h81v-100h-260z" />
    <glyph glyph-name="uni00B3" unicode="&#xb3;" horiz-adv-x="273" 
d="M254 616q7 -14 7 -58q0 -55 -9 -73q-25 -55 -123 -55q-89 0 -113 53q-10 23 -10 92l104 -1q0 -39 2 -44q3 -8 16 -8q12 0 15 7q3 5 3 34q0 23 -4 30q-6 11 -29 11h-9v78h9q23 0 28 12q3 6 3 20q0 19 -1 21q-3 7 -14 7t-14 -7q-3 -6 -3 -29h-104q0 48 9 70q26 58 116 58
q92 0 117 -55q8 -19 8 -60q0 -26 -6 -41q-11 -23 -40 -32q32 -8 42 -30z" />
    <glyph glyph-name="acute" unicode="&#xb4;" horiz-adv-x="312" 
d="M50 565l64 141h148l-82 -141h-130z" />
    <glyph glyph-name="uni00B5" unicode="&#xb5;" horiz-adv-x="404" 
d="M230 525h155v-525h-150v62q-27 -68 -73 -71q11 -63 11 -126v-36h-154v696h155v-366q0 -20 6 -28t21 -8q29 0 29 37v365z" />
    <glyph glyph-name="paragraph" unicode="&#xb6;" horiz-adv-x="541" 
d="M201 -170v433h-32q-115 0 -147 75q-10 20 -12.5 47t-2.5 100q0 72 2.5 99t12.5 48q33 74 151 74h364v-131h-40v-745h-130v745h-37v-745h-129z" />
    <glyph glyph-name="periodcentered" unicode="&#xb7;" horiz-adv-x="264" 
d="M132 224q-39 0 -63 23t-24 62q0 40 24 63t63 23t62.5 -23t23.5 -63q0 -39 -23.5 -62t-62.5 -23z" />
    <glyph glyph-name="cedilla" unicode="&#xb8;" horiz-adv-x="317" 
d="M186 -17q38 -2 59.5 -22t21.5 -55q0 -90 -131 -90q-42 0 -86 14l16 68q26 -10 58 -10q41 0 41 22q0 13 -11.5 18t-39.5 5h-40l19 89h101z" />
    <glyph glyph-name="uni00B9" unicode="&#xb9;" horiz-adv-x="189" 
d="M49 438v288h-49l15 100h152v-388h-118z" />
    <glyph glyph-name="ordmasculine" unicode="&#xba;" horiz-adv-x="288" 
d="M144 336q-93 0 -122 65q-13 28 -13 126q0 97 13 125q29 65 122 65t122 -65q13 -28 13 -125q0 -98 -13 -126q-29 -65 -122 -65zM144 429q12 0 16 9q3 9 3 89q0 79 -3 88q-4 9 -16 9t-16 -9q-3 -9 -3 -88q0 -80 3 -89q4 -9 16 -9z" />
    <glyph glyph-name="guillemotright" unicode="&#xbb;" horiz-adv-x="418" 
d="M146 141h-139l85 163l-85 164h139l85 -164zM326 141h-139l85 163l-85 164h139l85 -164z" />
    <glyph glyph-name="onequarter" unicode="&#xbc;" horiz-adv-x="623" 
d="M49 318v288h-49l15 100h152v-388h-118zM72 0l305 706h73l-305 -706h-73zM471 0v60h-173v2l84 326h197v-225h38v-103h-38v-60h-108zM433 163h38v184z" />
    <glyph glyph-name="onehalf" unicode="&#xbd;" horiz-adv-x="593" 
d="M49 318v288h-49l15 100h152v-388h-118zM72 0l305 706h73l-305 -706h-73zM322 0v4l123 199q25 41 25 67q0 25 -2 27q-4 7 -14 7q-12 0 -16 -9q-3 -4 -3 -27h-109q0 50 11 72q26 56 117 56q94 0 120 -56q10 -23 10 -51q0 -57 -26 -102q-22 -39 -57 -87h81v-100h-260z" />
    <glyph glyph-name="threequarters" unicode="&#xbe;" horiz-adv-x="703" 
d="M252 365q-25 -55 -123 -55q-89 0 -113 53q-10 23 -10 92l104 -1q0 -39 2 -44q3 -8 16 -8q12 0 15 7q3 4 3 34q0 23 -4 30q-6 11 -29 11h-9v78h9q23 0 28 12q3 6 3 20q0 19 -1 21q-3 7 -14 7t-14 -7q-3 -6 -3 -29h-104q0 48 9 70q26 58 116 58q92 0 117 -55q8 -19 8 -60
q0 -26 -6 -41q-11 -23 -40 -32q32 -8 42 -30q7 -14 7 -58q0 -55 -9 -73zM457 706h73l-305 -706h-73zM659 163h38v-103h-38v-60h-108v60h-173v2l84 326h197v-225zM551 163v184l-38 -184h38z" />
    <glyph glyph-name="questiondown" unicode="&#xbf;" horiz-adv-x="420" 
d="M221 363q-39 0 -63 23t-24 62q0 40 24 63t63 23t62.5 -23t23.5 -63q0 -39 -23.5 -62t-62.5 -23zM208 -181q-85 0 -134.5 41t-49.5 114q0 30 12.5 69t61.5 172q22 59 35 94h168q-100 -250 -109 -283q-6 -23 -6 -45q0 -32 27 -32q18 0 24 15q3 8 3 61h156q0 -82 -13 -114
q-40 -92 -175 -92z" />
    <glyph glyph-name="Agrave" unicode="&#xc0;" horiz-adv-x="481" 
d="M317 742h-136l-88 119h153zM315 0l-12 97h-124l-13 -97h-167l113 706h257l113 -706h-167zM196 233h89l-43 339h-2z" />
    <glyph glyph-name="Aacute" unicode="&#xc1;" horiz-adv-x="481" 
d="M388 861l-89 -119h-135l71 119h153zM315 0l-12 97h-124l-13 -97h-167l113 706h257l113 -706h-167zM196 233h89l-43 339h-2z" />
    <glyph glyph-name="Acircumflex" unicode="&#xc2;" horiz-adv-x="481" 
d="M240 794l-30 -52h-126l70 119h172l71 -119h-127zM315 0l-12 97h-124l-13 -97h-167l113 706h257l113 -706h-167zM196 233h89l-43 339h-2z" />
    <glyph glyph-name="Atilde" unicode="&#xc3;" horiz-adv-x="481" 
d="M199 767q-20 0 -23 -25h-86q1 120 89 120q22 0 60 -17q23 -10 37 -10q20 0 27 25h87q-1 -60 -22.5 -89.5t-67.5 -29.5q-28 0 -58 13q-33 13 -43 13zM315 0l-12 97h-124l-13 -97h-167l113 706h257l113 -706h-167zM196 233h89l-43 339h-2z" />
    <glyph glyph-name="Adieresis" unicode="&#xc4;" horiz-adv-x="481" 
d="M156 737q-32 0 -52 19.5t-20 50.5q0 32 20.5 50.5t51.5 18.5t51 -18.5t20 -50.5q0 -31 -20 -50.5t-51 -19.5zM328 737q-32 0 -52 19.5t-20 50.5q0 32 20.5 50.5t51.5 18.5t51 -18.5t20 -50.5q0 -31 -20 -50.5t-51 -19.5zM315 0l-12 97h-124l-13 -97h-167l113 706h257
l113 -706h-167zM196 233h89l-43 339h-2z" />
    <glyph glyph-name="Aring" unicode="&#xc5;" horiz-adv-x="481" 
d="M240 722q-51 0 -83 28.5t-32 75.5t32 75.5t83 28.5q52 0 84 -28.5t32 -75.5t-32.5 -75.5t-83.5 -28.5zM240 860q-15 0 -24 -9.5t-9 -24.5t9 -24.5t24 -9.5q16 0 25.5 9.5t9.5 24.5t-9.5 24.5t-25.5 9.5zM315 0l-12 97h-124l-13 -97h-167l113 706h257l113 -706h-167z
M196 233h89l-43 339h-2z" />
    <glyph glyph-name="AE" unicode="&#xc6;" horiz-adv-x="555" 
d="M539 559h-128l7 -118h118v-143h-109l9 -152h103v-146h-255l-5 97h-98l-15 -97h-167l136 706h404v-147zM202 233h70l-16 330h-2z" />
    <glyph glyph-name="Ccedilla" unicode="&#xc7;" horiz-adv-x="465" 
d="M282 233h172q-2 -138 -63 -195q-44 -39 -109 -48l-1 -7q38 -2 59.5 -22t21.5 -55q0 -90 -131 -90q-42 0 -86 14l16 68q26 -10 58 -10q41 0 41 22q0 13 -11.5 18t-39.5 5h-40l13 59q-102 21 -143 113q-15 34 -19.5 81.5t-4.5 166.5t4.5 166.5t19.5 81.5q54 118 201 118
q92 0 148 -51q36 -32 50 -77.5t14 -121.5h-171q0 51 -3 67.5t-12 23.5q-11 11 -31 11q-30 0 -41 -27q-8 -20 -8 -191t7 -191q13 -27 43 -27q19 0 32 11t14 87z" />
    <glyph glyph-name="Egrave" unicode="&#xc8;" horiz-adv-x="341" 
d="M252 742h-136l-88 119h153zM24 0v706h301v-147h-135v-118h132v-143h-132v-152h135v-146h-301z" />
    <glyph glyph-name="Eacute" unicode="&#xc9;" horiz-adv-x="341" 
d="M99 742l71 119h153l-89 -119h-135zM24 0v706h301v-147h-135v-118h132v-143h-132v-152h135v-146h-301z" />
    <glyph glyph-name="Ecircumflex" unicode="&#xca;" horiz-adv-x="341" 
d="M19 742l70 119h172l71 -119h-127l-30 52l-30 -52h-126zM24 0v706h301v-147h-135v-118h132v-143h-132v-152h135v-146h-301z" />
    <glyph glyph-name="Edieresis" unicode="&#xcb;" horiz-adv-x="341" 
d="M91 737q-32 0 -52 19.5t-20 50.5q0 32 20.5 50.5t51.5 18.5t51 -18.5t20 -50.5q0 -31 -20 -50.5t-51 -19.5zM263 737q-32 0 -52 19.5t-20 50.5q0 32 20.5 50.5t51.5 18.5t51 -18.5t20 -50.5q0 -31 -20 -50.5t-51 -19.5zM24 0v706h301v-147h-135v-118h132v-143h-132v-152
h135v-146h-301z" />
    <glyph glyph-name="Igrave" unicode="&#xcc;" horiz-adv-x="213" 
d="M184 742h-136l-88 119h153zM24 0v706h166v-706h-166z" />
    <glyph glyph-name="Iacute" unicode="&#xcd;" horiz-adv-x="213" 
d="M30 742l71 119h153l-89 -119h-135zM24 0v706h166v-706h-166z" />
    <glyph glyph-name="Icircumflex" unicode="&#xce;" horiz-adv-x="213" 
d="M-43 742l64 119h169l66 -119h-125l-24 49l-26 -49h-124zM24 0v706h166v-706h-166z" />
    <glyph glyph-name="Idieresis" unicode="&#xcf;" horiz-adv-x="213" 
d="M32 736q-29 0 -48 19.5t-19 50.5q0 32 19 50.5t48 18.5q30 0 48.5 -18.5t18.5 -50.5q0 -31 -19 -50.5t-48 -19.5zM184 736q-30 0 -49 19.5t-19 50.5q0 32 19 50.5t49 18.5q29 0 48 -18.5t19 -50.5q0 -31 -19 -50.5t-48 -19.5zM24 0v706h166v-706h-166z" />
    <glyph glyph-name="Eth" unicode="&#xd0;" horiz-adv-x="474" 
d="M436 593q14 -32 18.5 -75.5t4.5 -164.5t-4.5 -164.5t-18.5 -75.5q-52 -113 -199 -113h-206v308h-34v121h34v277h206q147 0 199 -113zM280 173q8 19 8 177q0 164 -8 183q-15 33 -62 33h-21v-137h56v-121h-56v-168h21q47 0 62 33z" />
    <glyph glyph-name="Ntilde" unicode="&#xd1;" horiz-adv-x="498" 
d="M308 741q-28 0 -58 13q-33 13 -43 13q-20 0 -23 -25h-86q1 120 89 120q22 0 60 -17q23 -10 37 -10q20 0 27 25h87q-1 -60 -22.5 -89.5t-67.5 -29.5zM24 0v706h148l142 -326v326h161v-706h-145l-146 333v-333h-160z" />
    <glyph glyph-name="Ograve" unicode="&#xd2;" horiz-adv-x="479" 
d="M317 742h-136l-88 119h153zM239 -14q-147 0 -199 117q-15 34 -20 82.5t-5 167.5t5 167.5t20 82.5q52 117 199 117q148 0 200 -117q15 -34 20 -82.5t5 -167.5t-5 -167.5t-20 -82.5q-52 -117 -200 -117zM239 135q34 0 46 31q8 19 8 187q0 171 -7 187q-12 31 -47 31
q-34 0 -46 -31q-7 -16 -7 -187q0 -167 7 -187q14 -31 46 -31z" />
    <glyph glyph-name="Oacute" unicode="&#xd3;" horiz-adv-x="479" 
d="M163 742l71 119h153l-89 -119h-135zM239 -14q-147 0 -199 117q-15 34 -20 82.5t-5 167.5t5 167.5t20 82.5q52 117 199 117q148 0 200 -117q15 -34 20 -82.5t5 -167.5t-5 -167.5t-20 -82.5q-52 -117 -200 -117zM239 135q34 0 46 31q8 19 8 187q0 171 -7 187q-12 31 -47 31
q-34 0 -46 -31q-7 -16 -7 -187q0 -167 7 -187q14 -31 46 -31z" />
    <glyph glyph-name="Ocircumflex" unicode="&#xd4;" horiz-adv-x="479" 
d="M83 742l70 119h172l71 -119h-127l-30 52l-30 -52h-126zM239 -14q-147 0 -199 117q-15 34 -20 82.5t-5 167.5t5 167.5t20 82.5q52 117 199 117q148 0 200 -117q15 -34 20 -82.5t5 -167.5t-5 -167.5t-20 -82.5q-52 -117 -200 -117zM239 135q34 0 46 31q8 19 8 187
q0 171 -7 187q-12 31 -47 31q-34 0 -46 -31q-7 -16 -7 -187q0 -167 7 -187q14 -31 46 -31z" />
    <glyph glyph-name="Otilde" unicode="&#xd5;" horiz-adv-x="479" 
d="M300 741q-28 0 -58 13q-33 13 -43 13q-20 0 -23 -25h-86q1 120 89 120q22 0 60 -17q23 -10 37 -10q20 0 27 25h87q-1 -60 -22.5 -89.5t-67.5 -29.5zM239 -14q-147 0 -199 117q-15 34 -20 82.5t-5 167.5t5 167.5t20 82.5q52 117 199 117q148 0 200 -117q15 -34 20 -82.5
t5 -167.5t-5 -167.5t-20 -82.5q-52 -117 -200 -117zM239 135q34 0 46 31q8 19 8 187q0 171 -7 187q-12 31 -47 31q-34 0 -46 -31q-7 -16 -7 -187q0 -167 7 -187q14 -31 46 -31z" />
    <glyph glyph-name="Odieresis" unicode="&#xd6;" horiz-adv-x="479" 
d="M155 737q-32 0 -52 19.5t-20 50.5q0 32 20.5 50.5t51.5 18.5t51 -18.5t20 -50.5q0 -31 -20 -50.5t-51 -19.5zM327 737q-32 0 -52 19.5t-20 50.5q0 32 20.5 50.5t51.5 18.5t51 -18.5t20 -50.5q0 -31 -20 -50.5t-51 -19.5zM239 -14q-147 0 -199 117q-15 34 -20 82.5
t-5 167.5t5 167.5t20 82.5q52 117 199 117q148 0 200 -117q15 -34 20 -82.5t5 -167.5t-5 -167.5t-20 -82.5q-52 -117 -200 -117zM239 135q34 0 46 31q8 19 8 187q0 171 -7 187q-12 31 -47 31q-34 0 -46 -31q-7 -16 -7 -187q0 -167 7 -187q14 -31 46 -31z" />
    <glyph glyph-name="multiply" unicode="&#xd7;" horiz-adv-x="410" 
d="M379 402l-92 -92l92 -92l-81 -82l-92 93l-93 -93l-81 82l92 92l-92 92l81 82l93 -92l92 92z" />
    <glyph glyph-name="Oslash" unicode="&#xd8;" horiz-adv-x="479" 
d="M434 613l2.5 -5l2.5 -5q15 -34 20 -82.5t5 -167.5t-5 -167.5t-20 -82.5q-52 -117 -200 -117q-108 0 -166 66l-33 -51h-57l62 92q-3 5 -5 10q-15 34 -20 82.5t-5 167.5t5 167.5t20 82.5q52 117 199 117q108 0 167 -65l34 52h57zM193 540q-7 -16 -7 -187v-52l106 186
q-1 40 -6 53q-12 31 -47 31q-34 0 -46 -31zM285 166q8 19 8 187v55l-106 -188q1 -41 6 -54q14 -31 46 -31q34 0 46 31z" />
    <glyph glyph-name="Ugrave" unicode="&#xd9;" horiz-adv-x="452" 
d="M303 742h-136l-88 119h153zM225 -14q-110 0 -158.5 47.5t-48.5 148.5v524h166v-522q0 -50 41 -50q43 0 43 50v522h166v-524q0 -100 -49.5 -148t-159.5 -48z" />
    <glyph glyph-name="Uacute" unicode="&#xda;" horiz-adv-x="452" 
d="M150 742l71 119h153l-89 -119h-135zM225 -14q-110 0 -158.5 47.5t-48.5 148.5v524h166v-522q0 -50 41 -50q43 0 43 50v522h166v-524q0 -100 -49.5 -148t-159.5 -48z" />
    <glyph glyph-name="Ucircumflex" unicode="&#xdb;" horiz-adv-x="452" 
d="M70 742l70 119h172l71 -119h-127l-30 52l-30 -52h-126zM225 -14q-110 0 -158.5 47.5t-48.5 148.5v524h166v-522q0 -50 41 -50q43 0 43 50v522h166v-524q0 -100 -49.5 -148t-159.5 -48z" />
    <glyph glyph-name="Udieresis" unicode="&#xdc;" horiz-adv-x="452" 
d="M141 737q-32 0 -52 19.5t-20 50.5q0 32 20.5 50.5t51.5 18.5t51 -18.5t20 -50.5q0 -31 -20 -50.5t-51 -19.5zM313 737q-32 0 -52 19.5t-20 50.5q0 32 20.5 50.5t51.5 18.5t51 -18.5t20 -50.5q0 -31 -20 -50.5t-51 -19.5zM225 -14q-110 0 -158.5 47.5t-48.5 148.5v524h166
v-522q0 -50 41 -50q43 0 43 50v522h166v-524q0 -100 -49.5 -148t-159.5 -48z" />
    <glyph glyph-name="Yacute" unicode="&#xdd;" horiz-adv-x="443" 
d="M147 742l71 119h153l-89 -119h-135zM139 0v282l-140 424h167l56 -237l55 237h167l-139 -424v-282h-166z" />
    <glyph glyph-name="Thorn" unicode="&#xde;" horiz-adv-x="425" 
d="M24 0v706h166v-104h58q119 0 154 -76q10 -22 13 -53t3 -111t-3 -111.5t-13 -53.5q-35 -76 -154 -76h-58v-121h-166zM190 252h14q30 0 40 19q5 11 5 91q0 79 -5 90q-10 19 -40 19h-14v-219z" />
    <glyph glyph-name="germandbls" unicode="&#xdf;" horiz-adv-x="421" 
d="M393 356q10 -21 13 -47t3 -90q0 -65 -3 -91.5t-13 -46.5q-36 -81 -162 -81h-37v127h6q33 0 43 24q5 11 5 82t-5 81q-9 24 -41 24h-7v122h5q30 0 37 18q3 9 3 51q0 40 -3 49q-9 17 -29 17q-21 0 -29 -18q-5 -11 -5 -69v-508h-155v501q0 89 17 130q40 89 172 89t170 -86
q14 -32 14 -93q0 -64 -13 -96q-12 -26 -37 -38q33 -14 51 -51z" />
    <glyph glyph-name="agrave" unicode="&#xe0;" horiz-adv-x="397" 
d="M281 565h-130l-82 141h148zM365 458q15 -34 15 -122v-336h-155v50q-39 -59 -108 -59q-75 0 -99 53q-12 27 -12 105q0 79 12 105q30 69 170 69h37v7q0 66 -3 75q-6 13 -24 13q-20 0 -25 -13q-3 -5 -3 -40h-152q0 63 12 89q36 79 169 79q131 0 166 -75zM192 110q23 0 29 16
q4 9 4 96v7h-20q-31 0 -37 -14q-2 -6 -2 -44q0 -43 2 -48q6 -13 24 -13z" />
    <glyph glyph-name="aacute" unicode="&#xe1;" horiz-adv-x="397" 
d="M339 706l-82 -141h-130l64 141h148zM365 458q15 -34 15 -122v-336h-155v50q-39 -59 -108 -59q-75 0 -99 53q-12 27 -12 105q0 79 12 105q30 69 170 69h37v7q0 66 -3 75q-6 13 -24 13q-20 0 -25 -13q-3 -5 -3 -40h-152q0 63 12 89q36 79 169 79q131 0 166 -75zM192 110
q23 0 29 16q4 9 4 96v7h-20q-31 0 -37 -14q-2 -6 -2 -44q0 -43 2 -48q6 -13 24 -13z" />
    <glyph glyph-name="acircumflex" unicode="&#xe2;" horiz-adv-x="397" 
d="M204 627l-31 -62h-126l77 141h161l76 -141h-126zM365 458q15 -34 15 -122v-336h-155v50q-39 -59 -108 -59q-75 0 -99 53q-12 27 -12 105q0 79 12 105q30 69 170 69h37v7q0 66 -3 75q-6 13 -24 13q-20 0 -25 -13q-3 -5 -3 -40h-152q0 63 12 89q36 79 169 79q131 0 166 -75
zM192 110q23 0 29 16q4 9 4 96v7h-20q-31 0 -37 -14q-2 -6 -2 -44q0 -43 2 -48q6 -13 24 -13z" />
    <glyph glyph-name="atilde" unicode="&#xe3;" horiz-adv-x="397" 
d="M163 598q-22 0 -26 -33h-82q1 74 20 108t64 34q29 0 63 -18q32 -16 44 -16q23 0 26 33h82q-1 -74 -19.5 -108t-63.5 -34q-30 0 -64 18q-28 16 -44 16zM365 458q15 -34 15 -122v-336h-155v50q-39 -59 -108 -59q-75 0 -99 53q-12 27 -12 105q0 79 12 105q30 69 170 69h37v7
q0 66 -3 75q-6 13 -24 13q-20 0 -25 -13q-3 -5 -3 -40h-152q0 63 12 89q36 79 169 79q131 0 166 -75zM192 110q23 0 29 16q4 9 4 96v7h-20q-31 0 -37 -14q-2 -6 -2 -44q0 -43 2 -48q6 -13 24 -13z" />
    <glyph glyph-name="adieresis" unicode="&#xe4;" horiz-adv-x="397" 
d="M120 561q-33 0 -54 20t-21 52t21 51.5t54 19.5q32 0 52.5 -19.5t20.5 -51.5t-20.5 -52t-52.5 -20zM291 560q-32 0 -53.5 20.5t-21.5 52.5t21 51.5t54 19.5q32 0 52.5 -19.5t20.5 -51.5t-20.5 -52.5t-52.5 -20.5zM365 458q15 -34 15 -122v-336h-155v50q-39 -59 -108 -59
q-75 0 -99 53q-12 27 -12 105q0 79 12 105q30 69 170 69h37v7q0 66 -3 75q-6 13 -24 13q-20 0 -25 -13q-3 -5 -3 -40h-152q0 63 12 89q36 79 169 79q131 0 166 -75zM192 110q23 0 29 16q4 9 4 96v7h-20q-31 0 -37 -14q-2 -6 -2 -44q0 -43 2 -48q6 -13 24 -13z" />
    <glyph glyph-name="aring" unicode="&#xe5;" horiz-adv-x="397" 
d="M204 555q-51 0 -83 28.5t-32 74.5q0 47 32 75.5t83 28.5q52 0 84 -28t32 -76q0 -46 -32.5 -74.5t-83.5 -28.5zM204 693q-15 0 -24 -9.5t-9 -25.5q0 -15 9 -24t24 -9q16 0 25.5 9t9.5 24q0 16 -9.5 25.5t-25.5 9.5zM365 458q15 -34 15 -122v-336h-155v50q-39 -59 -108 -59
q-75 0 -99 53q-12 27 -12 105q0 79 12 105q30 69 170 69h37v7q0 66 -3 75q-6 13 -24 13q-20 0 -25 -13q-3 -5 -3 -40h-152q0 63 12 89q36 79 169 79q131 0 166 -75zM192 110q23 0 29 16q4 9 4 96v7h-20q-31 0 -37 -14q-2 -6 -2 -44q0 -43 2 -48q6 -13 24 -13z" />
    <glyph glyph-name="ae" unicode="&#xe6;" horiz-adv-x="605" 
d="M426 118q8 7 9 56h157q-1 -56 -11 -86.5t-35 -53.5q-47 -43 -135 -43q-99 0 -142 60q-46 -60 -132 -60q-93 0 -118 56q-13 27 -13 106q0 75 12 101q30 69 170 69h37v7q0 66 -3 75q-6 13 -24 13q-20 0 -25 -13q-3 -5 -3 -40h-152q0 63 12 89q36 79 169 79q72 0 109 -22
q38 23 98 23q127 0 169 -94q12 -27 15 -62t3 -149h-214q0 -89 5 -102q6 -15 25 -15q13 0 17 6zM408 416q-18 0 -24 -15q-4 -11 -5 -78h57q0 66 -4 77q-6 16 -24 16zM225 222v7h-20q-31 0 -37 -14q-2 -6 -2 -44q0 -43 2 -48q6 -13 24 -13q23 0 29 16q4 9 4 96z" />
    <glyph glyph-name="ccedilla" unicode="&#xe7;" horiz-adv-x="401" 
d="M218 124q9 10 9 84h161q-1 -75 -10.5 -111.5t-38.5 -62.5q-34 -31 -94 -40l-2 -11q38 -2 59.5 -22t21.5 -55q0 -90 -131 -90q-42 0 -86 14l16 68q26 -10 58 -10q41 0 41 22q0 13 -11.5 18t-39.5 5h-40l14 63q-83 18 -114 88q-11 24 -15 59t-4 119q0 85 4 119.5t15 59.5
q42 93 170 93q92 0 139 -43q28 -25 37.5 -60t11.5 -102h-162q-1 64 -9 71q-6 6 -17 6q-16 0 -22 -14q-4 -10 -4 -130t4 -129q6 -14 22 -14q10 0 17 5z" />
    <glyph glyph-name="egrave" unicode="&#xe8;" horiz-adv-x="402" 
d="M278 565h-130l-82 141h148zM224 119q7 7 8 55h157q-1 -56 -11 -86t-35 -53q-48 -44 -138 -44q-133 0 -175 93q-11 25 -14.5 59.5t-3.5 120.5q0 87 3.5 119.5t14.5 56.5q42 94 169 94q129 0 173 -95q12 -27 15 -63t3 -147h-222q0 -89 5 -101q6 -16 30 -16q12 0 21 7z
M201 416q-22 0 -28 -16q-4 -11 -5 -77h66q0 62 -4 76q-8 17 -29 17z" />
    <glyph glyph-name="eacute" unicode="&#xe9;" horiz-adv-x="402" 
d="M336 706l-82 -141h-130l64 141h148zM224 119q7 7 8 55h157q-1 -56 -11 -86t-35 -53q-48 -44 -138 -44q-133 0 -175 93q-11 25 -14.5 59.5t-3.5 120.5q0 87 3.5 119.5t14.5 56.5q42 94 169 94q129 0 173 -95q12 -27 15 -63t3 -147h-222q0 -89 5 -101q6 -16 30 -16
q12 0 21 7zM201 416q-22 0 -28 -16q-4 -11 -5 -77h66q0 62 -4 76q-8 17 -29 17z" />
    <glyph glyph-name="ecircumflex" unicode="&#xea;" horiz-adv-x="402" 
d="M201 627l-31 -62h-126l77 141h161l76 -141h-126zM224 119q7 7 8 55h157q-1 -56 -11 -86t-35 -53q-48 -44 -138 -44q-133 0 -175 93q-11 25 -14.5 59.5t-3.5 120.5q0 87 3.5 119.5t14.5 56.5q42 94 169 94q129 0 173 -95q12 -27 15 -63t3 -147h-222q0 -89 5 -101
q6 -16 30 -16q12 0 21 7zM201 416q-22 0 -28 -16q-4 -11 -5 -77h66q0 62 -4 76q-8 17 -29 17z" />
    <glyph glyph-name="edieresis" unicode="&#xeb;" horiz-adv-x="402" 
d="M117 561q-33 0 -54 20t-21 52t21 51.5t54 19.5q32 0 52.5 -19.5t20.5 -51.5t-20.5 -52t-52.5 -20zM288 560q-32 0 -53.5 20.5t-21.5 52.5t21 51.5t54 19.5q32 0 52.5 -19.5t20.5 -51.5t-20.5 -52.5t-52.5 -20.5zM224 119q7 7 8 55h157q-1 -56 -11 -86t-35 -53
q-48 -44 -138 -44q-133 0 -175 93q-11 25 -14.5 59.5t-3.5 120.5q0 87 3.5 119.5t14.5 56.5q42 94 169 94q129 0 173 -95q12 -27 15 -63t3 -147h-222q0 -89 5 -101q6 -16 30 -16q12 0 21 7zM201 416q-22 0 -28 -16q-4 -11 -5 -77h66q0 62 -4 76q-8 17 -29 17z" />
    <glyph glyph-name="igrave" unicode="&#xec;" horiz-adv-x="193" 
d="M176 565h-119l-68 141h142zM19 0v525h155v-525h-155z" />
    <glyph glyph-name="iacute" unicode="&#xed;" horiz-adv-x="193" 
d="M17 565l46 141h141l-67 -141h-120zM19 0v525h155v-525h-155z" />
    <glyph glyph-name="icircumflex" unicode="&#xee;" horiz-adv-x="193" 
d="M-15 565l43 141h138l42 -141h-92l-19 67l-21 -67h-91zM19 0v525h155v-525h-155z" />
    <glyph glyph-name="idieresis" unicode="&#xef;" horiz-adv-x="193" 
d="M36 563q-58 0 -58 70q0 69 58 69q56 0 56 -69q0 -33 -14.5 -51.5t-41.5 -18.5zM158 563q-57 0 -57 70q0 69 57 69q27 0 42 -18t15 -51t-15 -51.5t-42 -18.5zM19 0v525h155v-525h-155z" />
    <glyph glyph-name="eth" unicode="&#xf0;" horiz-adv-x="410" 
d="M350 564q32 -71 40 -122t8 -178q0 -92 -3 -125t-14 -57q-41 -91 -180 -91q-133 0 -173 89q-10 22 -13 53t-3 117q0 94 3 127.5t13 54.5q30 69 110 69q54 0 92 -33q-3 9 -16 40q-4 10 -25 49l-143 -45v93l93 29q-25 36 -52 70v2h170q8 -9 22 -27l95 30v-94l-43 -14
q3 -6 19 -37zM233 134q4 8 4 120q0 92 -4 104q-7 17 -27 17t-26 -17q-5 -11 -5 -104q0 -110 4 -119q6 -18 27 -18t27 17z" />
    <glyph glyph-name="ntilde" unicode="&#xf1;" horiz-adv-x="402" 
d="M163 598q-22 0 -26 -33h-82q1 74 20 108t64 34q29 0 63 -18q32 -16 44 -16q23 0 26 33h82q-1 -74 -19.5 -108t-63.5 -34q-30 0 -64 18q-28 16 -44 16zM280 533q105 0 105 -122v-411h-155v370q0 36 -27 36q-29 0 -29 -37v-369h-155v525h155v-49q41 57 106 57z" />
    <glyph glyph-name="ograve" unicode="&#xf2;" horiz-adv-x="407" 
d="M281 565h-130l-82 141h148zM203 -9q-130 0 -173 94q-11 25 -14.5 58t-3.5 119t3.5 119.5t14.5 58.5q43 94 173 94q131 0 173 -94q12 -25 15.5 -58t3.5 -120q0 -86 -3.5 -119t-15.5 -58q-42 -94 -173 -94zM203 119q19 0 27 15q4 12 4 128q0 117 -4 129q-8 15 -27 15
q-20 0 -26 -15q-4 -12 -4 -129q0 -116 4 -128q6 -15 26 -15z" />
    <glyph glyph-name="oacute" unicode="&#xf3;" horiz-adv-x="407" 
d="M127 565l64 141h148l-82 -141h-130zM203 -9q-130 0 -173 94q-11 25 -14.5 58t-3.5 119t3.5 119.5t14.5 58.5q43 94 173 94q131 0 173 -94q12 -25 15.5 -58t3.5 -120q0 -86 -3.5 -119t-15.5 -58q-42 -94 -173 -94zM203 119q19 0 27 15q4 12 4 128q0 117 -4 129
q-8 15 -27 15q-20 0 -26 -15q-4 -12 -4 -129q0 -116 4 -128q6 -15 26 -15z" />
    <glyph glyph-name="ocircumflex" unicode="&#xf4;" horiz-adv-x="407" 
d="M47 565l77 141h161l76 -141h-126l-31 62l-31 -62h-126zM203 -9q-130 0 -173 94q-11 25 -14.5 58t-3.5 119t3.5 119.5t14.5 58.5q43 94 173 94q131 0 173 -94q12 -25 15.5 -58t3.5 -120q0 -86 -3.5 -119t-15.5 -58q-42 -94 -173 -94zM203 119q19 0 27 15q4 12 4 128
q0 117 -4 129q-8 15 -27 15q-20 0 -26 -15q-4 -12 -4 -129q0 -116 4 -128q6 -15 26 -15z" />
    <glyph glyph-name="otilde" unicode="&#xf5;" horiz-adv-x="407" 
d="M270 564q-30 0 -64 18q-28 16 -44 16q-22 0 -26 -33h-82q1 74 20 108t64 34q29 0 63 -18q32 -16 44 -16q23 0 26 33h82q-1 -74 -19.5 -108t-63.5 -34zM203 -9q-130 0 -173 94q-11 25 -14.5 58t-3.5 119t3.5 119.5t14.5 58.5q43 94 173 94q131 0 173 -94q12 -25 15.5 -58
t3.5 -120q0 -86 -3.5 -119t-15.5 -58q-42 -94 -173 -94zM203 119q19 0 27 15q4 12 4 128q0 117 -4 129q-8 15 -27 15q-20 0 -26 -15q-4 -12 -4 -129q0 -116 4 -128q6 -15 26 -15z" />
    <glyph glyph-name="odieresis" unicode="&#xf6;" horiz-adv-x="407" 
d="M119 561q-33 0 -54 20t-21 52t21 51.5t54 19.5q32 0 52.5 -19.5t20.5 -51.5t-20.5 -52t-52.5 -20zM290 560q-32 0 -53.5 20.5t-21.5 52.5t21 51.5t54 19.5q32 0 52.5 -19.5t20.5 -51.5t-20.5 -52.5t-52.5 -20.5zM203 -9q-130 0 -173 94q-11 25 -14.5 58t-3.5 119
t3.5 119.5t14.5 58.5q43 94 173 94q131 0 173 -94q12 -25 15.5 -58t3.5 -120q0 -86 -3.5 -119t-15.5 -58q-42 -94 -173 -94zM203 119q19 0 27 15q4 12 4 128q0 117 -4 129q-8 15 -27 15q-20 0 -26 -15q-4 -12 -4 -129q0 -116 4 -128q6 -15 26 -15z" />
    <glyph glyph-name="divide" unicode="&#xf7;" horiz-adv-x="410" 
d="M206 401q-30 0 -48.5 18t-18.5 48t18.5 47.5t48.5 17.5q29 0 47 -17.5t18 -47.5t-18 -48t-47 -18zM27 251v117h356v-117h-356zM206 87q-30 0 -48.5 18t-18.5 48t18.5 48t48.5 18q29 0 47 -18t18 -48t-18 -48t-47 -18z" />
    <glyph glyph-name="oslash" unicode="&#xf8;" horiz-adv-x="407" 
d="M359 469q9 -12 17 -29q12 -25 15.5 -58t3.5 -120q0 -86 -3.5 -119t-15.5 -58q-42 -94 -173 -94q-77 0 -125 34l-16 -25h-52l37 56q-7 9 -17 29q-11 25 -14.5 58t-3.5 119t3.5 119.5t14.5 58.5q43 94 173 94q79 0 125 -34l17 25h52zM177 391q-4 -12 -4 -129v-16l60 108
q0 30 -3 37q-8 15 -27 15q-20 0 -26 -15zM230 134q4 12 4 128v18l-61 -105q1 -32 4 -41q6 -15 26 -15q19 0 27 15z" />
    <glyph glyph-name="ugrave" unicode="&#xf9;" horiz-adv-x="402" 
d="M272 565h-130l-82 141h148zM228 525h155v-525h-155v49q-41 -58 -106 -58q-105 0 -105 123v411h155v-370q0 -36 27 -36q29 0 29 37v369z" />
    <glyph glyph-name="uacute" unicode="&#xfa;" horiz-adv-x="402" 
d="M330 706l-82 -141h-130l64 141h148zM228 525h155v-525h-155v49q-41 -58 -106 -58q-105 0 -105 123v411h155v-370q0 -36 27 -36q29 0 29 37v369z" />
    <glyph glyph-name="ucircumflex" unicode="&#xfb;" horiz-adv-x="402" 
d="M195 627l-31 -62h-126l77 141h161l76 -141h-126zM228 525h155v-525h-155v49q-41 -58 -106 -58q-105 0 -105 123v411h155v-370q0 -36 27 -36q29 0 29 37v369z" />
    <glyph glyph-name="udieresis" unicode="&#xfc;" horiz-adv-x="402" 
d="M111 561q-33 0 -54 20t-21 52t21 51.5t54 19.5q32 0 52.5 -19.5t20.5 -51.5t-20.5 -52t-52.5 -20zM282 560q-32 0 -53.5 20.5t-21.5 52.5t21 51.5t54 19.5q32 0 52.5 -19.5t20.5 -51.5t-20.5 -52.5t-52.5 -20.5zM228 525h155v-525h-155v49q-41 -58 -106 -58
q-105 0 -105 123v411h155v-370q0 -36 27 -36q29 0 29 37v369z" />
    <glyph glyph-name="yacute" unicode="&#xfd;" horiz-adv-x="394" 
d="M334 706l-82 -141h-130l64 141h148zM241 525h159l-130 -524l-46 -171h-150l45 173l-125 522h164l39 -314z" />
    <glyph glyph-name="thorn" unicode="&#xfe;" horiz-adv-x="413" 
d="M383 467q11 -23 14.5 -61t3.5 -144q0 -105 -3.5 -143t-14.5 -62q-31 -66 -109 -66q-64 0 -100 51v-212h-155v876h155v-223q36 51 100 51q78 0 109 -67zM234 137q5 11 5 125q0 116 -5 127q-6 17 -29 17q-18 0 -25 -10.5t-7 -34.5v-196q0 -24 7 -34.5t25 -10.5q23 0 29 17z
" />
    <glyph glyph-name="ydieresis" unicode="&#xff;" horiz-adv-x="394" 
d="M115 561q-33 0 -54 20t-21 52t21 51.5t54 19.5q32 0 52.5 -19.5t20.5 -51.5t-20.5 -52t-52.5 -20zM286 560q-32 0 -53.5 20.5t-21.5 52.5t21 51.5t54 19.5q32 0 52.5 -19.5t20.5 -51.5t-20.5 -52.5t-52.5 -20.5zM241 525h159l-130 -524l-46 -171h-150l45 173l-125 522
h164l39 -314z" />
    <glyph glyph-name="Amacron" unicode="&#x100;" horiz-adv-x="481" 
d="M367 853v-98h-253v98h253zM315 0l-12 97h-124l-13 -97h-167l113 706h257l113 -706h-167zM196 233h89l-43 339h-2z" />
    <glyph glyph-name="amacron" unicode="&#x101;" horiz-adv-x="397" 
d="M326 682v-103h-243v103h243zM365 458q15 -34 15 -122v-336h-155v50q-39 -59 -108 -59q-75 0 -99 53q-12 27 -12 105q0 79 12 105q30 69 170 69h37v7q0 66 -3 75q-6 13 -24 13q-20 0 -25 -13q-3 -5 -3 -40h-152q0 63 12 89q36 79 169 79q131 0 166 -75zM192 110
q23 0 29 16q4 9 4 96v7h-20q-31 0 -37 -14q-2 -6 -2 -44q0 -43 2 -48q6 -13 24 -13z" />
    <glyph glyph-name="Abreve" unicode="&#x102;" horiz-adv-x="481" 
d="M241 736q-144 0 -147 125h105q4 -43 42 -43q37 0 44 43h101q-3 -125 -145 -125zM315 0l-12 97h-124l-13 -97h-167l113 706h257l113 -706h-167zM196 233h89l-43 339h-2z" />
    <glyph glyph-name="abreve" unicode="&#x103;" horiz-adv-x="397" 
d="M205 559q-148 0 -151 147h106q1 -32 12 -45.5t33 -13.5t32.5 13.5t11.5 45.5h106q-3 -147 -150 -147zM365 458q15 -34 15 -122v-336h-155v50q-39 -59 -108 -59q-75 0 -99 53q-12 27 -12 105q0 79 12 105q30 69 170 69h37v7q0 66 -3 75q-6 13 -24 13q-20 0 -25 -13
q-3 -5 -3 -40h-152q0 63 12 89q36 79 169 79q131 0 166 -75zM192 110q23 0 29 16q4 9 4 96v7h-20q-31 0 -37 -14q-2 -6 -2 -44q0 -43 2 -48q6 -13 24 -13z" />
    <glyph glyph-name="Aogonek" unicode="&#x104;" horiz-adv-x="481" 
d="M421 -65q0 -26 28 -26q18 0 32 7v-86q-30 -12 -67 -12q-51 0 -81.5 22.5t-30.5 63.5q0 61 79 96h-66l-12 97h-124l-13 -97h-167l113 706h257l113 -706q-31 -19 -46 -33t-15 -32zM196 233h89l-43 339h-2z" />
    <glyph glyph-name="aogonek" unicode="&#x105;" horiz-adv-x="397" 
d="M380 0q-31 -19 -46 -33t-15 -32q0 -26 28 -26q18 0 32 7v-86q-30 -12 -67 -12q-51 0 -81.5 22.5t-30.5 63.5q0 61 79 96h-54v50q-39 -59 -108 -59q-75 0 -99 53q-12 27 -12 105q0 79 12 105q30 69 170 69h37v7q0 66 -3 75q-6 13 -24 13q-20 0 -25 -13q-3 -5 -3 -40h-152
q0 63 12 89q36 79 169 79q131 0 166 -75q15 -34 15 -122v-336zM192 110q23 0 29 16q4 9 4 96v7h-20q-31 0 -37 -14q-2 -6 -2 -44q0 -43 2 -48q6 -13 24 -13z" />
    <glyph glyph-name="Cacute" unicode="&#x106;" horiz-adv-x="465" 
d="M163 742l71 119h153l-89 -119h-135zM240 -13q-149 0 -201 118q-15 34 -19.5 81.5t-4.5 166.5t4.5 166.5t19.5 81.5q54 118 201 118q92 0 148 -51q36 -32 50 -77.5t14 -121.5h-171q0 51 -3 67.5t-12 23.5q-11 11 -31 11q-30 0 -41 -27q-8 -20 -8 -191t7 -191
q13 -27 43 -27q19 0 32 11t14 87h172q-2 -138 -63 -195q-56 -51 -151 -51z" />
    <glyph glyph-name="cacute" unicode="&#x107;" horiz-adv-x="401" 
d="M124 565l64 141h148l-82 -141h-130zM201 -9q-128 0 -170 93q-11 24 -15 59t-4 119q0 85 4 119.5t15 59.5q42 93 170 93q92 0 139 -43q28 -25 37.5 -60t11.5 -102h-162q-1 64 -9 71q-6 6 -17 6q-16 0 -22 -14q-4 -10 -4 -130t4 -129q6 -14 22 -14q10 0 17 5q9 10 9 84h161
q-1 -75 -10.5 -111.5t-38.5 -62.5q-48 -43 -138 -43z" />
    <glyph glyph-name="Ccircumflex" unicode="&#x108;" horiz-adv-x="465" 
d="M83 742l70 119h172l71 -119h-127l-30 52l-30 -52h-126zM240 -13q-149 0 -201 118q-15 34 -19.5 81.5t-4.5 166.5t4.5 166.5t19.5 81.5q54 118 201 118q92 0 148 -51q36 -32 50 -77.5t14 -121.5h-171q0 51 -3 67.5t-12 23.5q-11 11 -31 11q-30 0 -41 -27q-8 -20 -8 -191
t7 -191q13 -27 43 -27q19 0 32 11t14 87h172q-2 -138 -63 -195q-56 -51 -151 -51z" />
    <glyph glyph-name="ccircumflex" unicode="&#x109;" horiz-adv-x="401" 
d="M44 565l77 141h161l76 -141h-126l-31 62l-31 -62h-126zM201 -9q-128 0 -170 93q-11 24 -15 59t-4 119q0 85 4 119.5t15 59.5q42 93 170 93q92 0 139 -43q28 -25 37.5 -60t11.5 -102h-162q-1 64 -9 71q-6 6 -17 6q-16 0 -22 -14q-4 -10 -4 -130t4 -129q6 -14 22 -14
q10 0 17 5q9 10 9 84h161q-1 -75 -10.5 -111.5t-38.5 -62.5q-48 -43 -138 -43z" />
    <glyph glyph-name="Cdotaccent" unicode="&#x10a;" horiz-adv-x="465" 
d="M240 736q-34 0 -56 20.5t-22 54.5t22 54t56 20t56 -20t22 -54t-22 -54.5t-56 -20.5zM240 -13q-149 0 -201 118q-15 34 -19.5 81.5t-4.5 166.5t4.5 166.5t19.5 81.5q54 118 201 118q92 0 148 -51q36 -32 50 -77.5t14 -121.5h-171q0 51 -3 67.5t-12 23.5q-11 11 -31 11
q-30 0 -41 -27q-8 -20 -8 -191t7 -191q13 -27 43 -27q19 0 32 11t14 87h172q-2 -138 -63 -195q-56 -51 -151 -51z" />
    <glyph glyph-name="cdotaccent" unicode="&#x10b;" horiz-adv-x="401" 
d="M202 563q-35 0 -57.5 21.5t-22.5 55.5q0 35 22.5 55.5t57.5 20.5q34 0 56 -20.5t22 -55.5q0 -34 -22 -55.5t-56 -21.5zM201 -9q-128 0 -170 93q-11 24 -15 59t-4 119q0 85 4 119.5t15 59.5q42 93 170 93q92 0 139 -43q28 -25 37.5 -60t11.5 -102h-162q-1 64 -9 71
q-6 6 -17 6q-16 0 -22 -14q-4 -10 -4 -130t4 -129q6 -14 22 -14q10 0 17 5q9 10 9 84h161q-1 -75 -10.5 -111.5t-38.5 -62.5q-48 -43 -138 -43z" />
    <glyph glyph-name="Ccaron" unicode="&#x10c;" horiz-adv-x="465" 
d="M396 861l-70 -119h-172l-71 119h126l31 -52l30 52h126zM240 -13q-149 0 -201 118q-15 34 -19.5 81.5t-4.5 166.5t4.5 166.5t19.5 81.5q54 118 201 118q92 0 148 -51q36 -32 50 -77.5t14 -121.5h-171q0 51 -3 67.5t-12 23.5q-11 11 -31 11q-30 0 -41 -27q-8 -20 -8 -191
t7 -191q13 -27 43 -27q19 0 32 11t14 87h172q-2 -138 -63 -195q-56 -51 -151 -51z" />
    <glyph glyph-name="ccaron" unicode="&#x10d;" horiz-adv-x="401" 
d="M358 706l-76 -141h-162l-76 141h126l31 -62l31 62h126zM201 -9q-128 0 -170 93q-11 24 -15 59t-4 119q0 85 4 119.5t15 59.5q42 93 170 93q92 0 139 -43q28 -25 37.5 -60t11.5 -102h-162q-1 64 -9 71q-6 6 -17 6q-16 0 -22 -14q-4 -10 -4 -130t4 -129q6 -14 22 -14
q10 0 17 5q9 10 9 84h161q-1 -75 -10.5 -111.5t-38.5 -62.5q-48 -43 -138 -43z" />
    <glyph glyph-name="Dcaron" unicode="&#x10e;" horiz-adv-x="467" 
d="M378 861l-70 -119h-172l-71 119h126l31 -52l30 52h126zM24 0v706h206q147 0 199 -113q14 -32 18.5 -75.5t4.5 -164.5t-4.5 -164.5t-18.5 -75.5q-52 -113 -199 -113h-206zM190 140h21q45 0 62 33q8 19 8 177q0 164 -8 183q-17 33 -62 33h-21v-426z" />
    <glyph glyph-name="dcaron" unicode="&#x10f;" horiz-adv-x="529" 
d="M240 483v223h155v-706h-152v46q-35 -55 -104 -55q-78 0 -109 66q-11 24 -14.5 62t-3.5 143q0 106 3.5 144t14.5 61q31 67 109 67q65 0 101 -51zM422 706h112l-31 -157h-96zM240 163v198q0 45 -32 45q-21 0 -29 -17q-5 -15 -5 -127q0 -111 5 -126q8 -17 29 -17q32 0 32 44
z" />
    <glyph glyph-name="Dcroat" unicode="&#x110;" horiz-adv-x="474" 
d="M436 593q14 -32 18.5 -75.5t4.5 -164.5t-4.5 -164.5t-18.5 -75.5q-52 -113 -199 -113h-206v308h-34v121h34v277h206q147 0 199 -113zM280 173q8 19 8 177q0 164 -8 183q-15 33 -62 33h-21v-137h56v-121h-56v-168h21q47 0 62 33z" />
    <glyph glyph-name="dcroat" unicode="&#x111;" horiz-adv-x="414" 
d="M413 662v-94h-18v-568h-152v46q-35 -55 -104 -55q-78 0 -109 66q-11 24 -14.5 62t-3.5 143q0 106 3.5 144t14.5 61q31 67 109 67q65 0 101 -51v85h-133v94h133v44h155v-44h18zM240 163v198q0 45 -32 45q-21 0 -29 -17q-5 -15 -5 -127q0 -111 5 -126q8 -17 29 -17
q32 0 32 44z" />
    <glyph glyph-name="Emacron" unicode="&#x112;" horiz-adv-x="341" 
d="M49 755v98h253v-98h-253zM24 0v706h301v-147h-135v-118h132v-143h-132v-152h135v-146h-301z" />
    <glyph glyph-name="emacron" unicode="&#x113;" horiz-adv-x="402" 
d="M322 682v-103h-243v103h243zM224 119q7 7 8 55h157q-1 -56 -11 -86t-35 -53q-48 -44 -138 -44q-133 0 -175 93q-11 25 -14.5 59.5t-3.5 120.5q0 87 3.5 119.5t14.5 56.5q42 94 169 94q129 0 173 -95q12 -27 15 -63t3 -147h-222q0 -89 5 -101q6 -16 30 -16q12 0 21 7z
M201 416q-22 0 -28 -16q-4 -11 -5 -77h66q0 62 -4 76q-8 17 -29 17z" />
    <glyph glyph-name="Ebreve" unicode="&#x114;" horiz-adv-x="341" 
d="M176 736q-144 0 -147 125h105q4 -43 42 -43q37 0 44 43h101q-3 -125 -145 -125zM24 0v706h301v-147h-135v-118h132v-143h-132v-152h135v-146h-301z" />
    <glyph glyph-name="ebreve" unicode="&#x115;" horiz-adv-x="402" 
d="M202 559q-148 0 -151 147h106q1 -32 12 -45.5t33 -13.5t32.5 13.5t11.5 45.5h106q-3 -147 -150 -147zM224 119q7 7 8 55h157q-1 -56 -11 -86t-35 -53q-48 -44 -138 -44q-133 0 -175 93q-11 25 -14.5 59.5t-3.5 120.5q0 87 3.5 119.5t14.5 56.5q42 94 169 94
q129 0 173 -95q12 -27 15 -63t3 -147h-222q0 -89 5 -101q6 -16 30 -16q12 0 21 7zM201 416q-22 0 -28 -16q-4 -11 -5 -77h66q0 62 -4 76q-8 17 -29 17z" />
    <glyph glyph-name="Edotaccent" unicode="&#x116;" horiz-adv-x="341" 
d="M176 736q-34 0 -56 20.5t-22 54.5t22 54t56 20t56 -20t22 -54t-22 -54.5t-56 -20.5zM24 0v706h301v-147h-135v-118h132v-143h-132v-152h135v-146h-301z" />
    <glyph glyph-name="edotaccent" unicode="&#x117;" horiz-adv-x="402" 
d="M202 563q-35 0 -57.5 21.5t-22.5 55.5q0 35 22.5 55.5t57.5 20.5q34 0 56 -20.5t22 -55.5q0 -34 -22 -55.5t-56 -21.5zM224 119q7 7 8 55h157q-1 -56 -11 -86t-35 -53q-48 -44 -138 -44q-133 0 -175 93q-11 25 -14.5 59.5t-3.5 120.5q0 87 3.5 119.5t14.5 56.5
q42 94 169 94q129 0 173 -95q12 -27 15 -63t3 -147h-222q0 -89 5 -101q6 -16 30 -16q12 0 21 7zM201 416q-22 0 -28 -16q-4 -11 -5 -77h66q0 62 -4 76q-8 17 -29 17z" />
    <glyph glyph-name="Eogonek" unicode="&#x118;" horiz-adv-x="341" 
d="M325 559h-135v-118h132v-143h-132v-152h135v-146q-31 -19 -46 -33t-15 -32q0 -26 28 -26q18 0 32 7v-86q-30 -12 -67 -12q-51 0 -81.5 22.5t-30.5 63.5q0 61 79 96h-200v706h301v-147z" />
    <glyph glyph-name="eogonek" unicode="&#x119;" horiz-adv-x="402" 
d="M224 119q7 7 8 55h157q-2 -62 -15.5 -95.5t-49.5 -63.5q-56 -47 -56 -75q0 -31 29 -31q16 0 30 7v-86q-30 -12 -66 -12q-51 0 -82 24t-31 67q0 49 46 82q-123 4 -164 93q-11 25 -14.5 59.5t-3.5 120.5q0 87 3.5 119.5t14.5 56.5q42 94 169 94q129 0 173 -95
q12 -27 15 -63t3 -147h-222q0 -89 5 -101q6 -16 30 -16q12 0 21 7zM201 416q-22 0 -28 -16q-4 -11 -5 -77h66q0 62 -4 76q-8 17 -29 17z" />
    <glyph glyph-name="Ecaron" unicode="&#x11a;" horiz-adv-x="341" 
d="M332 861l-70 -119h-172l-71 119h126l31 -52l30 52h126zM24 0v706h301v-147h-135v-118h132v-143h-132v-152h135v-146h-301z" />
    <glyph glyph-name="ecaron" unicode="&#x11b;" horiz-adv-x="402" 
d="M282 565h-162l-76 141h126l31 -62l31 62h126zM224 119q7 7 8 55h157q-1 -56 -11 -86t-35 -53q-48 -44 -138 -44q-133 0 -175 93q-11 25 -14.5 59.5t-3.5 120.5q0 87 3.5 119.5t14.5 56.5q42 94 169 94q129 0 173 -95q12 -27 15 -63t3 -147h-222q0 -89 5 -101
q6 -16 30 -16q12 0 21 7zM201 416q-22 0 -28 -16q-4 -11 -5 -77h66q0 62 -4 76q-8 17 -29 17z" />
    <glyph glyph-name="Gcircumflex" unicode="&#x11c;" horiz-adv-x="469" 
d="M239 794l-30 -52h-126l70 119h172l71 -119h-127zM235 376h219v-54q0 -103 -5 -146t-19 -77q-51 -112 -191 -112q-147 0 -200 118q-15 34 -19.5 81.5t-4.5 166.5t4.5 166.5t19.5 81.5q53 118 200 118q95 0 150 -51q34 -31 47.5 -74.5t15.5 -116.5h-168q-1 74 -14 85
q-11 11 -33 11q-32 0 -43 -28q-8 -20 -8 -192t8 -192q11 -28 48 -28q33 0 43 25q5 15 5 87h-55v131z" />
    <glyph glyph-name="gcircumflex" unicode="&#x11d;" horiz-adv-x="414" 
d="M206 627l-31 -62h-126l77 141h161l76 -141h-126zM244 525h151v-500q0 -88 -17 -122q-38 -85 -173 -85q-97 0 -145 42q-36 33 -43 109h156q1 -25 8 -31q7 -7 26 -7q25 0 31 16q3 11 3 52v50q-37 -55 -103 -55q-77 0 -107 63q-12 26 -15.5 62.5t-3.5 142.5q0 112 3.5 146.5
t15.5 59.5q31 65 107 65q69 0 106 -57v49zM208 119q33 0 33 44v201q0 42 -33 42q-21 0 -29 -17q-5 -14 -5 -125q0 -116 5 -128q8 -17 29 -17z" />
    <glyph glyph-name="Gbreve" unicode="&#x11e;" horiz-adv-x="469" 
d="M240 736q-144 0 -147 125h105q4 -43 42 -43q37 0 44 43h101q-3 -125 -145 -125zM235 376h219v-54q0 -103 -5 -146t-19 -77q-51 -112 -191 -112q-147 0 -200 118q-15 34 -19.5 81.5t-4.5 166.5t4.5 166.5t19.5 81.5q53 118 200 118q95 0 150 -51q34 -31 47.5 -74.5
t15.5 -116.5h-168q-1 74 -14 85q-11 11 -33 11q-32 0 -43 -28q-8 -20 -8 -192t8 -192q11 -28 48 -28q33 0 43 25q5 15 5 87h-55v131z" />
    <glyph glyph-name="gbreve" unicode="&#x11f;" horiz-adv-x="414" 
d="M207 559q-148 0 -151 147h106q1 -32 12 -45.5t33 -13.5t32.5 13.5t11.5 45.5h106q-3 -147 -150 -147zM244 525h151v-500q0 -88 -17 -122q-38 -85 -173 -85q-97 0 -145 42q-36 33 -43 109h156q1 -25 8 -31q7 -7 26 -7q25 0 31 16q3 11 3 52v50q-37 -55 -103 -55
q-77 0 -107 63q-12 26 -15.5 62.5t-3.5 142.5q0 112 3.5 146.5t15.5 59.5q31 65 107 65q69 0 106 -57v49zM208 119q33 0 33 44v201q0 42 -33 42q-21 0 -29 -17q-5 -14 -5 -125q0 -116 5 -128q8 -17 29 -17z" />
    <glyph glyph-name="Gdotaccent" unicode="&#x120;" horiz-adv-x="469" 
d="M240 736q-34 0 -56 20.5t-22 54.5t22 54t56 20t56 -20t22 -54t-22 -54.5t-56 -20.5zM235 376h219v-54q0 -103 -5 -146t-19 -77q-51 -112 -191 -112q-147 0 -200 118q-15 34 -19.5 81.5t-4.5 166.5t4.5 166.5t19.5 81.5q53 118 200 118q95 0 150 -51q34 -31 47.5 -74.5
t15.5 -116.5h-168q-1 74 -14 85q-11 11 -33 11q-32 0 -43 -28q-8 -20 -8 -192t8 -192q11 -28 48 -28q33 0 43 25q5 15 5 87h-55v131z" />
    <glyph glyph-name="gdotaccent" unicode="&#x121;" horiz-adv-x="414" 
d="M207 563q-35 0 -57.5 21.5t-22.5 55.5q0 35 22.5 55.5t57.5 20.5q34 0 56 -20.5t22 -55.5q0 -34 -22 -55.5t-56 -21.5zM244 525h151v-500q0 -88 -17 -122q-38 -85 -173 -85q-97 0 -145 42q-36 33 -43 109h156q1 -25 8 -31q7 -7 26 -7q25 0 31 16q3 11 3 52v50
q-37 -55 -103 -55q-77 0 -107 63q-12 26 -15.5 62.5t-3.5 142.5q0 112 3.5 146.5t15.5 59.5q31 65 107 65q69 0 106 -57v49zM208 119q33 0 33 44v201q0 42 -33 42q-21 0 -29 -17q-5 -14 -5 -125q0 -116 5 -128q8 -17 29 -17z" />
    <glyph glyph-name="uni0122" unicode="&#x122;" horiz-adv-x="469" 
d="M235 376h219v-54q0 -103 -5 -146t-19 -77q-51 -112 -191 -112q-147 0 -200 118q-15 34 -19.5 81.5t-4.5 166.5t4.5 166.5t19.5 81.5q53 118 200 118q95 0 150 -51q34 -31 47.5 -74.5t15.5 -116.5h-168q-1 74 -14 85q-11 11 -33 11q-32 0 -43 -28q-8 -20 -8 -192t8 -192
q11 -28 48 -28q33 0 43 25q5 15 5 87h-55v131zM134 -170l27 129h155l-38 -129h-144z" />
    <glyph glyph-name="uni0123" unicode="&#x123;" horiz-adv-x="414" 
d="M283 704l-26 -129h-156l39 129h143zM244 525h151v-500q0 -88 -17 -122q-38 -85 -173 -85q-97 0 -145 42q-36 33 -43 109h156q1 -25 8 -31q7 -7 26 -7q25 0 31 16q3 11 3 52v50q-37 -55 -103 -55q-77 0 -107 63q-12 26 -15.5 62.5t-3.5 142.5q0 112 3.5 146.5t15.5 59.5
q31 65 107 65q69 0 106 -57v49zM208 119q33 0 33 44v201q0 42 -33 42q-21 0 -29 -17q-5 -14 -5 -125q0 -116 5 -128q8 -17 29 -17z" />
    <glyph glyph-name="Hcircumflex" unicode="&#x124;" horiz-adv-x="470" 
d="M78 742l70 119h172l71 -119h-127l-30 52l-30 -52h-126zM24 0v706h166v-265h90v265h166v-706h-166v295h-90v-295h-166z" />
    <glyph glyph-name="hcircumflex" unicode="&#x125;" horiz-adv-x="402" 
d="M202 794l-30 -52h-126l70 119h172l71 -119h-127zM280 533q105 0 105 -123v-410h-155v370q0 36 -27 36q-29 0 -29 -37v-369h-155v706h155v-231q41 58 106 58z" />
    <glyph glyph-name="Hbar" unicode="&#x126;" horiz-adv-x="470" 
d="M280 706h166v-706h-166v295h-90v-295h-166v706h166v-87h90v87zM190 441h90v84h-90v-84z" />
    <glyph glyph-name="hbar" unicode="&#x127;" horiz-adv-x="402" 
d="M280 533q105 0 105 -123v-410h-155v370q0 36 -27 36q-29 0 -29 -37v-369h-155v568h-18v94h18v44h155v-44h133v-94h-133v-93q41 58 106 58z" />
    <glyph glyph-name="Itilde" unicode="&#x128;" horiz-adv-x="213" 
d="M157 741q-23 0 -49 12q-26 14 -35 14q-17 0 -21 -25h-74q1 119 80 119q22 0 50 -15q20 -11 30 -11q17 0 24 26h75q-1 -63 -20 -91.5t-60 -28.5zM24 0v706h166v-706h-166z" />
    <glyph glyph-name="itilde" unicode="&#x129;" horiz-adv-x="193" 
d="M140 564q-31 0 -49 26q-11 13 -18 13q-15 0 -16 -38h-70q1 76 15 109t51 33q31 0 49 -26q11 -13 18 -13q15 0 16 38h70q-1 -76 -15 -109t-51 -33zM19 0v525h155v-525h-155z" />
    <glyph glyph-name="Imacron" unicode="&#x12a;" horiz-adv-x="213" 
d="M-1 755v98h215v-98h-215zM24 0v706h166v-706h-166z" />
    <glyph glyph-name="imacron" unicode="&#x12b;" horiz-adv-x="193" 
d="M-6 579v103h205v-103h-205zM19 0v525h155v-525h-155z" />
    <glyph glyph-name="Ibreve" unicode="&#x12c;" horiz-adv-x="213" 
d="M107 737q-128 0 -128 124h98q1 -43 30 -43q28 0 29 43h98q0 -124 -127 -124zM24 0v706h166v-706h-166z" />
    <glyph glyph-name="ibreve" unicode="&#x12d;" horiz-adv-x="193" 
d="M97 558q-58 0 -84 35t-26 113h88q0 -35 5 -46.5t17 -11.5t17 12t4 46h88q0 -78 -25.5 -113t-83.5 -35zM19 0v525h155v-525h-155z" />
    <glyph glyph-name="Iogonek" unicode="&#x12e;" horiz-adv-x="213" 
d="M190 0q-47 -38 -47 -69q0 -22 22 -22q12 0 24 6v-85q-27 -12 -60 -12q-46 0 -74 22t-28 63q0 62 62 97h-65v706h166v-706z" />
    <glyph glyph-name="iogonek" unicode="&#x12f;" horiz-adv-x="193" 
d="M97 563q-35 0 -58 21.5t-23 56.5t23 56t58 21t58 -21t23 -56t-23 -56.5t-58 -21.5zM19 0v525h155v-525q-47 -38 -47 -69q0 -22 22 -22q12 0 24 6v-85q-27 -12 -60 -12q-46 0 -74 22t-28 63q0 62 62 97h-54z" />
    <glyph glyph-name="Idotaccent" unicode="&#x130;" horiz-adv-x="213" 
d="M107 736q-34 0 -56 20.5t-22 54.5t22 54t56 20t56 -20t22 -54t-22 -54.5t-56 -20.5zM24 0v706h166v-706h-166z" />
    <glyph glyph-name="dotlessi" unicode="&#x131;" horiz-adv-x="193" 
d="M19 0v525h155v-525h-155z" />
    <glyph glyph-name="IJ" unicode="&#x132;" horiz-adv-x="460" 
d="M24 0v706h166v-706h-166zM272 -2q-18 0 -54 2v152q3 0 9 -0.5t9 -0.5q23 0 32 11t9 38v506h166v-535q0 -89 -40.5 -131t-130.5 -42z" />
    <glyph glyph-name="ij" unicode="&#x133;" horiz-adv-x="390" 
d="M97 563q-35 0 -58 21.5t-23 56.5t23 56t58 21t58 -21t23 -56t-23 -56.5t-58 -21.5zM294 563q-35 0 -58.5 21.5t-23.5 56.5t23.5 56t58.5 21t57.5 -21t22.5 -56t-23 -56.5t-57 -21.5zM19 0v525h155v-525h-155zM224 -172q-39 0 -57 2v135q18 -2 20 -2q30 0 30 35v527h155
v-557q0 -74 -36 -107t-112 -33z" />
    <glyph glyph-name="Jcircumflex" unicode="&#x134;" horiz-adv-x="247" 
d="M-1 742l64 119h169l66 -119h-125l-24 49l-26 -49h-124zM59 -2q-18 0 -54 2v152q3 0 9 -0.5t9 -0.5q23 0 32 11t9 38v506h166v-535q0 -89 -40.5 -131t-130.5 -42z" />
    <glyph glyph-name="jcircumflex" unicode="&#x135;" horiz-adv-x="197" 
d="M-12 565l43 141h138l42 -141h-92l-19 67l-21 -67h-91zM31 -172q-39 0 -57 2v135q18 -2 20 -2q30 0 30 35v527h155v-557q0 -74 -36 -107t-112 -33z" />
    <glyph glyph-name="uni0136" unicode="&#x136;" horiz-adv-x="477" 
d="M190 305v-305h-166v706h166v-246l90 246h179l-127 -319l147 -387h-181zM132 -170l27 129h155l-38 -129h-144z" />
    <glyph glyph-name="uni0137" unicode="&#x137;" horiz-adv-x="415" 
d="M174 210v-210h-155v706h155v-351l61 170h177l-98 -241l110 -284h-180zM101 -170l27 129h155l-38 -129h-144z" />
    <glyph glyph-name="kgreenlandic" unicode="&#x138;" horiz-adv-x="415" 
d="M424 0h-180l-70 210v-210h-155v525h155v-170l61 170h177l-98 -241z" />
    <glyph glyph-name="Lacute" unicode="&#x139;" horiz-adv-x="284" 
d="M37 742l71 119h153l-89 -119h-135zM24 0v706h166v-556h89v-150h-255z" />
    <glyph glyph-name="lacute" unicode="&#x13a;" horiz-adv-x="193" 
d="M20 742l71 119h153l-89 -119h-135zM19 0v706h155v-706h-155z" />
    <glyph glyph-name="uni013B" unicode="&#x13b;" horiz-adv-x="284" 
d="M24 0v706h166v-556h89v-150h-255zM47 -170l27 129h155l-38 -129h-144z" />
    <glyph glyph-name="uni013C" unicode="&#x13c;" horiz-adv-x="193" 
d="M19 0v706h155v-706h-155zM-9 -170l27 129h155l-38 -129h-144z" />
    <glyph glyph-name="Lcaron" unicode="&#x13d;" horiz-adv-x="316" 
d="M24 0v706h166v-556h89v-150h-255zM205 549l15 157h112l-31 -157h-96z" />
    <glyph glyph-name="lcaron" unicode="&#x13e;" horiz-adv-x="308" 
d="M19 0v706h155v-706h-155zM186 549l15 157h112l-31 -157h-96z" />
    <glyph glyph-name="Ldot" unicode="&#x13f;" horiz-adv-x="389" 
d="M24 0v706h166v-556h89v-150h-255zM302 318q-39 0 -63 23t-24 62q0 40 24 63t63 23q38 0 62 -23t24 -63q0 -39 -24 -62t-62 -23z" />
    <glyph glyph-name="ldot" unicode="&#x140;" horiz-adv-x="377" 
d="M19 0v706h155v-706h-155zM286 283q-39 0 -63.5 23t-24.5 62q0 40 24 63t64 23q38 0 62 -23t24 -63q0 -39 -24 -62t-62 -23z" />
    <glyph glyph-name="Lslash" unicode="&#x141;" horiz-adv-x="292" 
d="M197 150h89v-150h-255v272l-33 -22v137l33 22v297h166v-212l75 51v-138l-75 -51v-206z" />
    <glyph glyph-name="lslash" unicode="&#x142;" horiz-adv-x="232" 
d="M230 506v-123l-41 -30v-353h-155v268l-34 -24v123l34 24v315h155v-229z" />
    <glyph glyph-name="Nacute" unicode="&#x143;" horiz-adv-x="498" 
d="M172 742l71 119h153l-89 -119h-135zM24 0v706h148l142 -326v326h161v-706h-145l-146 333v-333h-160z" />
    <glyph glyph-name="nacute" unicode="&#x144;" horiz-adv-x="402" 
d="M340 706l-82 -141h-130l64 141h148zM280 533q105 0 105 -122v-411h-155v370q0 36 -27 36q-29 0 -29 -37v-369h-155v525h155v-49q41 57 106 57z" />
    <glyph glyph-name="uni0145" unicode="&#x145;" horiz-adv-x="498" 
d="M24 0v706h148l142 -326v326h161v-706h-145l-146 333v-333h-160zM152 -170l27 129h155l-38 -129h-144z" />
    <glyph glyph-name="uni0146" unicode="&#x146;" horiz-adv-x="402" 
d="M280 533q105 0 105 -122v-411h-155v370q0 36 -27 36q-29 0 -29 -37v-369h-155v525h155v-49q41 57 106 57zM97 -170l27 129h155l-38 -129h-144z" />
    <glyph glyph-name="Ncaron" unicode="&#x147;" horiz-adv-x="498" 
d="M405 861l-70 -119h-172l-71 119h126l31 -52l30 52h126zM24 0v706h148l142 -326v326h161v-706h-145l-146 333v-333h-160z" />
    <glyph glyph-name="ncaron" unicode="&#x148;" horiz-adv-x="402" 
d="M286 565h-162l-76 141h126l31 -62l31 62h126zM280 533q105 0 105 -122v-411h-155v370q0 36 -27 36q-29 0 -29 -37v-369h-155v525h155v-49q41 57 106 57z" />
    <glyph glyph-name="napostrophe" unicode="&#x149;" horiz-adv-x="570" 
d="M55 706h152l-82 -262h-114zM449 533q105 0 105 -122v-411h-155v370q0 36 -28 36q-29 0 -29 -37v-369h-155v525h155v-50q39 58 107 58z" />
    <glyph glyph-name="Eng" unicode="&#x14a;" horiz-adv-x="498" 
d="M314 706h161v-739q0 -74 -37 -107t-113 -33q-31 0 -59 3v134q7 -1 18 -1q31 0 31 36v38l-131 302v-339h-160v706h148l142 -327v327z" />
    <glyph glyph-name="eng" unicode="&#x14b;" horiz-adv-x="402" 
d="M279 533q106 0 106 -122v-444q0 -74 -36 -107t-111 -33q-30 0 -57 3v134q9 -1 19 -1q30 0 30 35v372q0 20 -6.5 28t-21.5 8q-28 0 -28 -37v-369h-155v525h155v-49q41 57 105 57z" />
    <glyph glyph-name="Omacron" unicode="&#x14c;" horiz-adv-x="479" 
d="M113 755v98h253v-98h-253zM239 -14q-147 0 -199 117q-15 34 -20 82.5t-5 167.5t5 167.5t20 82.5q52 117 199 117q148 0 200 -117q15 -34 20 -82.5t5 -167.5t-5 -167.5t-20 -82.5q-52 -117 -200 -117zM239 135q34 0 46 31q8 19 8 187q0 171 -7 187q-12 31 -47 31
q-34 0 -46 -31q-7 -16 -7 -187q0 -167 7 -187q14 -31 46 -31z" />
    <glyph glyph-name="omacron" unicode="&#x14d;" horiz-adv-x="407" 
d="M82 579v103h243v-103h-243zM203 -9q-130 0 -173 94q-11 25 -14.5 58t-3.5 119t3.5 119.5t14.5 58.5q43 94 173 94q131 0 173 -94q12 -25 15.5 -58t3.5 -120q0 -86 -3.5 -119t-15.5 -58q-42 -94 -173 -94zM203 119q19 0 27 15q4 12 4 128q0 117 -4 129q-8 15 -27 15
q-20 0 -26 -15q-4 -12 -4 -129q0 -116 4 -128q6 -15 26 -15z" />
    <glyph glyph-name="Obreve" unicode="&#x14e;" horiz-adv-x="479" 
d="M240 736q-144 0 -147 125h105q4 -43 42 -43q37 0 44 43h101q-3 -125 -145 -125zM239 -14q-147 0 -199 117q-15 34 -20 82.5t-5 167.5t5 167.5t20 82.5q52 117 199 117q148 0 200 -117q15 -34 20 -82.5t5 -167.5t-5 -167.5t-20 -82.5q-52 -117 -200 -117zM239 135
q34 0 46 31q8 19 8 187q0 171 -7 187q-12 31 -47 31q-34 0 -46 -31q-7 -16 -7 -187q0 -167 7 -187q14 -31 46 -31z" />
    <glyph glyph-name="obreve" unicode="&#x14f;" horiz-adv-x="407" 
d="M204 559q-148 0 -151 147h106q1 -32 12 -45.5t33 -13.5t32.5 13.5t11.5 45.5h106q-3 -147 -150 -147zM203 -9q-130 0 -173 94q-11 25 -14.5 58t-3.5 119t3.5 119.5t14.5 58.5q43 94 173 94q131 0 173 -94q12 -25 15.5 -58t3.5 -120q0 -86 -3.5 -119t-15.5 -58
q-42 -94 -173 -94zM203 119q19 0 27 15q4 12 4 128q0 117 -4 129q-8 15 -27 15q-20 0 -26 -15q-4 -12 -4 -129q0 -116 4 -128q6 -15 26 -15z" />
    <glyph glyph-name="Ohungarumlaut" unicode="&#x150;" horiz-adv-x="479" 
d="M106 742l60 119h125l-82 -119h-103zM258 742l60 119h128l-82 -119h-106zM239 -14q-147 0 -199 117q-15 34 -20 82.5t-5 167.5t5 167.5t20 82.5q52 117 199 117q148 0 200 -117q15 -34 20 -82.5t5 -167.5t-5 -167.5t-20 -82.5q-52 -117 -200 -117zM239 135q34 0 46 31
q8 19 8 187q0 171 -7 187q-12 31 -47 31q-34 0 -46 -31q-7 -16 -7 -187q0 -167 7 -187q14 -31 46 -31z" />
    <glyph glyph-name="ohungarumlaut" unicode="&#x151;" horiz-adv-x="407" 
d="M73 565l59 141h122l-82 -141h-99zM222 565l59 141h121l-81 -141h-99zM203 -9q-130 0 -173 94q-11 25 -14.5 58t-3.5 119t3.5 119.5t14.5 58.5q43 94 173 94q131 0 173 -94q12 -25 15.5 -58t3.5 -120q0 -86 -3.5 -119t-15.5 -58q-42 -94 -173 -94zM203 119q19 0 27 15
q4 12 4 128q0 117 -4 129q-8 15 -27 15q-20 0 -26 -15q-4 -12 -4 -129q0 -116 4 -128q6 -15 26 -15z" />
    <glyph glyph-name="OE" unicode="&#x152;" horiz-adv-x="609" 
d="M593 560h-136v-119h133v-143h-133v-152h136v-146h-293q-25 -7 -61 -7q-147 0 -199 110q-15 33 -20 79t-5 171t5 171t20 79q52 110 199 110q36 0 61 -7h293v-146zM239 135q34 0 46 31q8 19 8 187q0 171 -7 187q-12 31 -47 31q-34 0 -46 -31q-7 -16 -7 -187q0 -167 7 -187
q14 -31 46 -31z" />
    <glyph glyph-name="oe" unicode="&#x153;" horiz-adv-x="609" 
d="M430 118q8 7 8 56h158q-1 -56 -11 -86.5t-35 -53.5q-47 -43 -135 -43q-67 0 -108 27q-41 -27 -107 -27q-126 0 -170 93q-11 25 -14.5 58.5t-3.5 119.5t3.5 120t14.5 59q44 93 170 93q65 0 106 -26q40 26 104 26q127 0 169 -94q12 -26 15 -64.5t3 -146.5h-214
q0 -89 5 -102q6 -15 25 -15q11 0 17 6zM412 416q-18 0 -24 -15q-4 -11 -5 -78h57q0 66 -4 77q-6 16 -24 16zM222 132q4 10 4 130t-4 130q-6 14 -22 14q-17 0 -22 -14q-5 -12 -5 -130t5 -130q5 -13 22 -13q16 0 22 13z" />
    <glyph glyph-name="Racute" unicode="&#x154;" horiz-adv-x="441" 
d="M368 861l-89 -119h-135l71 119h153zM358 365q55 -24 55 -108v-257h-166v254q0 22 -9 31.5t-31 9.5h-17v-295h-166v706h233q117 0 147 -68q15 -34 15 -124q0 -78 -12 -103q-13 -31 -49 -46zM245 440q4 12 4 67q0 43 -4 54q-10 17 -33 17h-22v-154h22q23 0 33 16z" />
    <glyph glyph-name="racute" unicode="&#x155;" horiz-adv-x="281" 
d="M285 706l-82 -141h-130l64 141h148zM170 470q27 58 82 58q12 0 22 -3v-146q-10 2 -20 2q-38 0 -59 -27t-21 -79v-275h-155v525h151v-55z" />
    <glyph glyph-name="uni0156" unicode="&#x156;" horiz-adv-x="441" 
d="M358 365q55 -24 55 -108v-257h-166v254q0 22 -9 31.5t-31 9.5h-17v-295h-166v706h233q117 0 147 -68q15 -34 15 -124q0 -78 -12 -103q-13 -31 -49 -46zM245 440q4 12 4 67q0 43 -4 54q-10 17 -33 17h-22v-154h22q23 0 33 16zM113 -170l27 129h155l-38 -129h-144z" />
    <glyph glyph-name="uni0157" unicode="&#x157;" horiz-adv-x="281" 
d="M252 528q12 0 22 -3v-146q-10 2 -20 2q-38 0 -59 -27t-21 -79v-275h-155v525h151v-55q27 58 82 58zM-10 -170l27 129h155l-38 -129h-144z" />
    <glyph glyph-name="Rcaron" unicode="&#x158;" horiz-adv-x="441" 
d="M307 742h-172l-71 119h126l31 -52l30 52h126zM358 365q55 -24 55 -108v-257h-166v254q0 22 -9 31.5t-31 9.5h-17v-295h-166v706h233q117 0 147 -68q15 -34 15 -124q0 -78 -12 -103q-13 -31 -49 -46zM245 440q4 12 4 67q0 43 -4 54q-10 17 -33 17h-22v-154h22q23 0 33 16z
" />
    <glyph glyph-name="rcaron" unicode="&#x159;" horiz-adv-x="281" 
d="M231 565h-162l-76 141h126l31 -62l31 62h126zM170 470q27 58 82 58q12 0 22 -3v-146q-10 2 -20 2q-38 0 -59 -27t-21 -79v-275h-155v525h151v-55z" />
    <glyph glyph-name="Sacute" unicode="&#x15a;" horiz-adv-x="425" 
d="M113 742l70 119h153l-88 -119h-135zM211 -14q-147 0 -189 93q-9 21 -12 45t-3 89h175q0 -61 3 -72q7 -18 29 -18q21 0 27 16q2 6 2 48q0 38 -6 54q-5 10 -16 19t-19.5 13.5t-30 14t-30.5 13.5q-88 46 -111 96q-16 37 -16 123q0 71 16 107q43 93 182 93q136 0 178 -89
q9 -21 12 -44t3 -90h-168q0 65 -4 74q-6 14 -25 14q-20 0 -25 -15q-2 -5 -2 -40q0 -34 6 -50q3 -7 8.5 -12.5t16 -11.5t16.5 -9t23.5 -10t24.5 -10q52 -24 81.5 -46t43.5 -54q17 -39 17 -128q0 -80 -17 -118q-43 -95 -190 -95z" />
    <glyph glyph-name="sacute" unicode="&#x15b;" horiz-adv-x="370" 
d="M109 565l64 141h148l-82 -141h-130zM183 -11q-124 0 -160 78q-14 30 -14 106h153q0 -49 3 -56q4 -12 19 -12q14 0 17 10q2 4 2 24q0 27 -4 35q-9 19 -60 41q-45 20 -71 39t-39 49q-13 27 -13 83q0 42 12 71q33 76 157 76q123 0 156 -73q12 -26 12 -89h-150q0 33 -3 41
q-5 11 -16 11q-12 0 -16 -9q-2 -8 -2 -16q0 -21 4 -29q8 -18 67 -44q34 -16 49.5 -24t34.5 -25t28 -38q12 -24 12 -87q0 -53 -13 -83q-36 -79 -165 -79z" />
    <glyph glyph-name="Scircumflex" unicode="&#x15c;" horiz-adv-x="425" 
d="M52 742l70 119h172l71 -119h-127l-30 52l-30 -52h-126zM211 -14q-147 0 -189 93q-9 21 -12 45t-3 89h175q0 -61 3 -72q7 -18 29 -18q21 0 27 16q2 6 2 48q0 38 -6 54q-5 10 -16 19t-19.5 13.5t-30 14t-30.5 13.5q-88 46 -111 96q-16 37 -16 123q0 71 16 107q43 93 182 93
q136 0 178 -89q9 -21 12 -44t3 -90h-168q0 65 -4 74q-6 14 -25 14q-20 0 -25 -15q-2 -5 -2 -40q0 -34 6 -50q3 -7 8.5 -12.5t16 -11.5t16.5 -9t23.5 -10t24.5 -10q52 -24 81.5 -46t43.5 -54q17 -39 17 -128q0 -80 -17 -118q-43 -95 -190 -95z" />
    <glyph glyph-name="scircumflex" unicode="&#x15d;" horiz-adv-x="370" 
d="M29 565l77 141h161l76 -141h-126l-31 62l-31 -62h-126zM183 -11q-124 0 -160 78q-14 30 -14 106h153q0 -49 3 -56q4 -12 19 -12q14 0 17 10q2 4 2 24q0 27 -4 35q-9 19 -60 41q-45 20 -71 39t-39 49q-13 27 -13 83q0 42 12 71q33 76 157 76q123 0 156 -73q12 -26 12 -89
h-150q0 33 -3 41q-5 11 -16 11q-12 0 -16 -9q-2 -8 -2 -16q0 -21 4 -29q8 -18 67 -44q34 -16 49.5 -24t34.5 -25t28 -38q12 -24 12 -87q0 -53 -13 -83q-36 -79 -165 -79z" />
    <glyph glyph-name="Scedilla" unicode="&#x15e;" horiz-adv-x="425" 
d="M401 327q17 -39 17 -128q0 -80 -17 -118q-37 -79 -147 -93l-1 -5q38 -2 60 -22t22 -55q0 -90 -131 -90q-43 0 -87 14l16 68q26 -10 58 -10q41 0 41 22q0 13 -11.5 18t-39.5 5h-40l12 57q-98 17 -131 89q-9 21 -12 45t-3 89h175q0 -61 3 -72q7 -18 29 -18q21 0 27 16
q2 6 2 48q0 38 -6 54q-5 10 -16 19t-19.5 13.5t-30 14t-30.5 13.5q-88 46 -111 96q-16 37 -16 123q0 71 16 107q43 93 182 93q136 0 178 -89q9 -21 12 -44t3 -90h-168q0 65 -4 74q-6 14 -25 14q-20 0 -25 -15q-2 -5 -2 -40q0 -34 6 -50q3 -7 8.5 -12.5t16 -11.5t16.5 -9
t23.5 -10t24.5 -10q52 -24 81.5 -46t43.5 -54z" />
    <glyph glyph-name="scedilla" unicode="&#x15f;" horiz-adv-x="370" 
d="M349 238q12 -24 12 -87q0 -53 -13 -83q-29 -64 -117 -76l-2 -9q38 -2 59.5 -22t21.5 -55q0 -90 -131 -90q-42 0 -86 14l16 68q26 -10 58 -10q41 0 41 22q0 13 -11.5 18t-39.5 5h-40l13 60q-79 14 -107 74q-14 30 -14 106h153q0 -49 3 -56q4 -12 19 -12q14 0 17 10
q2 4 2 24q0 27 -4 35q-9 19 -60 41q-45 20 -71 39t-39 49q-13 27 -13 83q0 42 12 71q33 76 157 76q123 0 156 -73q12 -26 12 -89h-150q0 33 -3 41q-5 11 -16 11q-12 0 -16 -9q-2 -8 -2 -16q0 -21 4 -29q8 -18 67 -44q34 -16 49.5 -24t34.5 -25t28 -38z" />
    <glyph glyph-name="Scaron" unicode="&#x160;" horiz-adv-x="425" 
d="M365 861l-70 -119h-172l-71 119h126l31 -52l30 52h126zM211 -14q-147 0 -189 93q-9 21 -12 45t-3 89h175q0 -61 3 -72q7 -18 29 -18q21 0 27 16q2 6 2 48q0 38 -6 54q-5 10 -16 19t-19.5 13.5t-30 14t-30.5 13.5q-88 46 -111 96q-16 37 -16 123q0 71 16 107q43 93 182 93
q136 0 178 -89q9 -21 12 -44t3 -90h-168q0 65 -4 74q-6 14 -25 14q-20 0 -25 -15q-2 -5 -2 -40q0 -34 6 -50q3 -7 8.5 -12.5t16 -11.5t16.5 -9t23.5 -10t24.5 -10q52 -24 81.5 -46t43.5 -54q17 -39 17 -128q0 -80 -17 -118q-43 -95 -190 -95z" />
    <glyph glyph-name="scaron" unicode="&#x161;" horiz-adv-x="370" 
d="M343 706l-76 -141h-162l-76 141h126l31 -62l31 62h126zM183 -11q-124 0 -160 78q-14 30 -14 106h153q0 -49 3 -56q4 -12 19 -12q14 0 17 10q2 4 2 24q0 27 -4 35q-9 19 -60 41q-45 20 -71 39t-39 49q-13 27 -13 83q0 42 12 71q33 76 157 76q123 0 156 -73q12 -26 12 -89
h-150q0 33 -3 41q-5 11 -16 11q-12 0 -16 -9q-2 -8 -2 -16q0 -21 4 -29q8 -18 67 -44q34 -16 49.5 -24t34.5 -25t28 -38q12 -24 12 -87q0 -53 -13 -83q-36 -79 -165 -79z" />
    <glyph glyph-name="uni0162" unicode="&#x162;" horiz-adv-x="333" 
d="M250 0h-36l-3 -17q38 -2 59.5 -22t21.5 -55q0 -90 -131 -90q-42 0 -86 14l16 68q26 -10 58 -10q41 0 41 22q0 13 -11.5 18t-39.5 5h-40l14 67h-29v560h-79v146h323v-146h-78v-560z" />
    <glyph glyph-name="uni0163" unicode="&#x163;" horiz-adv-x="273" 
d="M209 -15q38 -2 59.5 -22t21.5 -55q0 -90 -131 -90q-42 0 -86 14l16 68q26 -10 58 -10q41 0 41 22q0 13 -11.5 18t-39.5 5h-40l15 70q-64 25 -64 131v250h-41v139h41v112h155v-112h57v-139h-57v-216q0 -25 8 -34t27 -9q7 0 27 2v-128q-25 -5 -54 -7z" />
    <glyph glyph-name="Tcaron" unicode="&#x164;" horiz-adv-x="333" 
d="M323 861l-70 -119h-172l-71 119h126l31 -52l30 52h126zM84 0v560h-79v146h323v-146h-78v-560h-166z" />
    <glyph glyph-name="tcaron" unicode="&#x165;" horiz-adv-x="333" 
d="M215 549l15 157h112l-31 -157h-96zM191 -6q-77 0 -110 30t-33 112v250h-41v139h41v112h155v-112h57v-139h-57v-216q0 -25 8 -34t27 -9q7 0 27 2v-128q-36 -7 -74 -7z" />
    <glyph glyph-name="Tbar" unicode="&#x166;" horiz-adv-x="333" 
d="M328 560h-78v-131h58v-121h-58v-308h-166v308h-61v121h61v131h-79v146h323v-146z" />
    <glyph glyph-name="tbar" unicode="&#x167;" horiz-adv-x="273" 
d="M238 127q7 0 27 2v-128q-36 -7 -74 -7q-77 0 -110 30t-33 112v77h-42v104h42v69h-41v139h41v112h155v-112h57v-139h-57v-69h57v-104h-57v-43q0 -25 8 -34t27 -9z" />
    <glyph glyph-name="Utilde" unicode="&#x168;" horiz-adv-x="452" 
d="M286 741q-28 0 -58 13q-33 13 -43 13q-20 0 -23 -25h-86q1 120 89 120q22 0 60 -17q23 -10 37 -10q20 0 27 25h87q-1 -60 -22.5 -89.5t-67.5 -29.5zM225 -14q-110 0 -158.5 47.5t-48.5 148.5v524h166v-522q0 -50 41 -50q43 0 43 50v522h166v-524q0 -100 -49.5 -148
t-159.5 -48z" />
    <glyph glyph-name="utilde" unicode="&#x169;" horiz-adv-x="402" 
d="M154 598q-22 0 -26 -33h-82q1 74 20 108t64 34q29 0 63 -18q32 -16 44 -16q23 0 26 33h82q-1 -74 -19.5 -108t-63.5 -34q-30 0 -64 18q-28 16 -44 16zM228 525h155v-525h-155v49q-41 -58 -106 -58q-105 0 -105 123v411h155v-370q0 -36 27 -36q29 0 29 37v369z" />
    <glyph glyph-name="Umacron" unicode="&#x16a;" horiz-adv-x="452" 
d="M99 755v98h253v-98h-253zM225 -14q-110 0 -158.5 47.5t-48.5 148.5v524h166v-522q0 -50 41 -50q43 0 43 50v522h166v-524q0 -100 -49.5 -148t-159.5 -48z" />
    <glyph glyph-name="umacron" unicode="&#x16b;" horiz-adv-x="402" 
d="M317 682v-103h-243v103h243zM228 525h155v-525h-155v49q-41 -58 -106 -58q-105 0 -105 123v411h155v-370q0 -36 27 -36q29 0 29 37v369z" />
    <glyph glyph-name="Ubreve" unicode="&#x16c;" horiz-adv-x="452" 
d="M227 736q-144 0 -147 125h105q4 -43 42 -43q37 0 44 43h101q-3 -125 -145 -125zM225 -14q-110 0 -158.5 47.5t-48.5 148.5v524h166v-522q0 -50 41 -50q43 0 43 50v522h166v-524q0 -100 -49.5 -148t-159.5 -48z" />
    <glyph glyph-name="ubreve" unicode="&#x16d;" horiz-adv-x="402" 
d="M196 559q-148 0 -151 147h106q1 -32 12 -45.5t33 -13.5t32.5 13.5t11.5 45.5h106q-3 -147 -150 -147zM228 525h155v-525h-155v49q-41 -58 -106 -58q-105 0 -105 123v411h155v-370q0 -36 27 -36q29 0 29 37v369z" />
    <glyph glyph-name="Uring" unicode="&#x16e;" horiz-adv-x="452" 
d="M226 722q-51 0 -83 28.5t-32 75.5t32 75.5t83 28.5q52 0 84 -28.5t32 -75.5t-32.5 -75.5t-83.5 -28.5zM226 792q16 0 25.5 9.5t9.5 24.5t-9.5 24.5t-25.5 9.5q-15 0 -24 -9.5t-9 -24.5t9 -24.5t24 -9.5zM225 -14q-110 0 -158.5 47.5t-48.5 148.5v524h166v-522
q0 -50 41 -50q43 0 43 50v522h166v-524q0 -100 -49.5 -148t-159.5 -48z" />
    <glyph glyph-name="uring" unicode="&#x16f;" horiz-adv-x="402" 
d="M195 555q-51 0 -83 28.5t-32 74.5q0 47 32 75.5t83 28.5q52 0 84 -28t32 -76q0 -46 -32.5 -74.5t-83.5 -28.5zM195 693q-15 0 -24 -9.5t-9 -25.5q0 -15 9 -24t24 -9q16 0 25.5 9t9.5 24q0 16 -9.5 25.5t-25.5 9.5zM228 525h155v-525h-155v49q-41 -58 -106 -58
q-105 0 -105 123v411h155v-370q0 -36 27 -36q29 0 29 37v369z" />
    <glyph glyph-name="Uhungarumlaut" unicode="&#x170;" horiz-adv-x="452" 
d="M92 742l60 119h125l-82 -119h-103zM244 742l60 119h128l-82 -119h-106zM225 -14q-110 0 -158.5 47.5t-48.5 148.5v524h166v-522q0 -50 41 -50q43 0 43 50v522h166v-524q0 -100 -49.5 -148t-159.5 -48z" />
    <glyph glyph-name="uhungarumlaut" unicode="&#x171;" horiz-adv-x="402" 
d="M245 706l-82 -141h-99l59 141h122zM312 565h-99l59 141h121zM228 156v369h155v-525h-155v49q-41 -58 -106 -58q-105 0 -105 123v411h155v-370q0 -36 27 -36q29 0 29 37z" />
    <glyph glyph-name="Uogonek" unicode="&#x172;" horiz-adv-x="452" 
d="M268 706h166v-524q0 -67 -19.5 -106t-59.5 -66q-31 -21 -45.5 -36.5t-14.5 -34.5q0 -30 28 -30q18 0 32 7v-86q-30 -12 -67 -12q-51 0 -81.5 23.5t-30.5 66.5q0 47 39 78q-105 2 -151 49.5t-46 146.5v524h166v-522q0 -50 41 -50q43 0 43 50v522z" />
    <glyph glyph-name="uogonek" unicode="&#x173;" horiz-adv-x="402" 
d="M383 0q-31 -19 -46 -33t-15 -32q0 -26 28 -26q18 0 32 7v-86q-30 -12 -67 -12q-51 0 -81.5 22.5t-30.5 63.5q0 61 79 96h-54v49q-41 -58 -106 -58q-105 0 -105 123v411h155v-370q0 -36 27 -36q29 0 29 37v369h155v-525z" />
    <glyph glyph-name="Wcircumflex" unicode="&#x174;" horiz-adv-x="676" 
d="M338 794l-30 -52h-126l70 119h172l71 -119h-127zM516 706h161l-119 -706h-165l-55 374l-55 -374h-163l-121 706h161l50 -387l50 387h157l50 -391z" />
    <glyph glyph-name="wcircumflex" unicode="&#x175;" horiz-adv-x="622" 
d="M310 627l-31 -62h-126l77 141h161l76 -141h-126zM471 525h157l-119 -525h-154l-44 272l-44 -272h-155l-118 525h155l40 -271l50 271h142l51 -268z" />
    <glyph glyph-name="Ycircumflex" unicode="&#x176;" horiz-adv-x="443" 
d="M67 742l70 119h172l71 -119h-127l-30 52l-30 -52h-126zM139 0v282l-140 424h167l56 -237l55 237h167l-139 -424v-282h-166z" />
    <glyph glyph-name="ycircumflex" unicode="&#x177;" horiz-adv-x="394" 
d="M199 627l-31 -62h-126l77 141h161l76 -141h-126zM241 525h159l-130 -524l-46 -171h-150l45 173l-125 522h164l39 -314z" />
    <glyph glyph-name="Ydieresis" unicode="&#x178;" horiz-adv-x="443" 
d="M138 737q-32 0 -52 19.5t-20 50.5q0 32 20.5 50.5t51.5 18.5t51 -18.5t20 -50.5q0 -31 -20 -50.5t-51 -19.5zM310 737q-32 0 -52 19.5t-20 50.5q0 32 20.5 50.5t51.5 18.5t51 -18.5t20 -50.5q0 -31 -20 -50.5t-51 -19.5zM139 0v282l-140 424h167l56 -237l55 237h167
l-139 -424v-282h-166z" />
    <glyph glyph-name="Zacute" unicode="&#x179;" horiz-adv-x="375" 
d="M109 742l71 119h153l-89 -119h-135zM3 0l142 560h-131v146h347l-141 -560h146v-146h-363z" />
    <glyph glyph-name="zacute" unicode="&#x17a;" horiz-adv-x="347" 
d="M313 706l-82 -141h-130l64 141h148zM351 525l-139 -386h128v-139h-344l147 386h-134v139h342z" />
    <glyph glyph-name="Zdotaccent" unicode="&#x17b;" horiz-adv-x="375" 
d="M185 736q-34 0 -56 20.5t-22 54.5t22 54t56 20t56 -20t22 -54t-22 -54.5t-56 -20.5zM3 0l142 560h-131v146h347l-141 -560h146v-146h-363z" />
    <glyph glyph-name="zdotaccent" unicode="&#x17c;" horiz-adv-x="347" 
d="M179 563q-35 0 -57.5 21.5t-22.5 55.5q0 35 22.5 55.5t57.5 20.5q34 0 56 -20.5t22 -55.5q0 -34 -22 -55.5t-56 -21.5zM351 525l-139 -386h128v-139h-344l147 386h-134v139h342z" />
    <glyph glyph-name="Zcaron" unicode="&#x17d;" horiz-adv-x="375" 
d="M342 861l-70 -119h-172l-71 119h126l31 -52l30 52h126zM3 0l142 560h-131v146h347l-141 -560h146v-146h-363z" />
    <glyph glyph-name="zcaron" unicode="&#x17e;" horiz-adv-x="347" 
d="M259 565h-162l-76 141h126l31 -62l31 62h126zM351 525l-139 -386h128v-139h-344l147 386h-134v139h342z" />
    <glyph glyph-name="uni018F" unicode="&#x18f;" horiz-adv-x="469" 
d="M430 601q15 -34 19.5 -81.5t4.5 -166.5t-4.5 -166.5t-19.5 -81.5q-53 -118 -201 -118q-139 0 -190 112q-14 34 -19 77t-5 146v54h268q0 150 -8 169q-11 28 -43 28q-22 0 -33 -11q-13 -11 -14 -85h-168q2 74 15.5 117t47.5 74q56 51 149 51q148 0 201 -118zM227 133
q37 0 48 28q7 19 7 84h-103q0 -76 5 -87q10 -25 43 -25z" />
    <glyph glyph-name="florin" unicode="&#x192;" horiz-adv-x="303" 
d="M63 -4q-32 0 -56 4v130q12 -3 25 -3q42 0 42 42v207h-62v74h62v122q0 78 40.5 111.5t126.5 33.5q32 0 56 -4v-130q-12 3 -27 3q-41 0 -41 -44v-92h63v-74h-63v-235q0 -77 -40 -111t-126 -34z" />
    <glyph glyph-name="Aringacute" unicode="&#x1fa;" horiz-adv-x="481" 
d="M388 1085l-89 -119h-135l71 119h153zM240 722q-51 0 -83 28.5t-32 75.5t32 75.5t83 28.5q52 0 84 -28.5t32 -75.5t-32.5 -75.5t-83.5 -28.5zM240 860q-15 0 -24 -9.5t-9 -24.5t9 -24.5t24 -9.5q16 0 25.5 9.5t9.5 24.5t-9.5 24.5t-25.5 9.5zM315 0l-12 97h-124l-13 -97
h-167l113 706h257l113 -706h-167zM196 233h89l-43 339h-2z" />
    <glyph glyph-name="aringacute" unicode="&#x1fb;" horiz-adv-x="397" 
d="M339 944l-82 -141h-130l64 141h148zM204 555q-51 0 -83 28.5t-32 74.5q0 47 32 75.5t83 28.5q52 0 84 -28t32 -76q0 -46 -32.5 -74.5t-83.5 -28.5zM204 693q-15 0 -24 -9.5t-9 -25.5q0 -15 9 -24t24 -9q16 0 25.5 9t9.5 24q0 16 -9.5 25.5t-25.5 9.5zM365 458
q15 -34 15 -122v-336h-155v50q-39 -59 -108 -59q-75 0 -99 53q-12 27 -12 105q0 79 12 105q30 69 170 69h37v7q0 66 -3 75q-6 13 -24 13q-20 0 -25 -13q-3 -5 -3 -40h-152q0 63 12 89q36 79 169 79q131 0 166 -75zM192 110q23 0 29 16q4 9 4 96v7h-20q-31 0 -37 -14
q-2 -6 -2 -44q0 -43 2 -48q6 -13 24 -13z" />
    <glyph glyph-name="AEacute" unicode="&#x1fc;" horiz-adv-x="555" 
d="M461 861l-89 -119h-135l71 119h153zM539 559h-128l7 -118h118v-143h-109l9 -152h103v-146h-255l-5 97h-98l-15 -97h-167l136 706h404v-147zM202 233h70l-16 330h-2z" />
    <glyph glyph-name="aeacute" unicode="&#x1fd;" horiz-adv-x="605" 
d="M441 706l-82 -141h-130l64 141h148zM426 118q8 7 9 56h157q-1 -56 -11 -86.5t-35 -53.5q-47 -43 -135 -43q-99 0 -142 60q-46 -60 -132 -60q-93 0 -118 56q-13 27 -13 106q0 75 12 101q30 69 170 69h37v7q0 66 -3 75q-6 13 -24 13q-20 0 -25 -13q-3 -5 -3 -40h-152
q0 63 12 89q36 79 169 79q72 0 109 -22q38 23 98 23q127 0 169 -94q12 -27 15 -62t3 -149h-214q0 -89 5 -102q6 -15 25 -15q13 0 17 6zM408 416q-18 0 -24 -15q-4 -11 -5 -78h57q0 66 -4 77q-6 16 -24 16zM225 222v7h-20q-31 0 -37 -14q-2 -6 -2 -44q0 -43 2 -48
q6 -13 24 -13q23 0 29 16q4 9 4 96z" />
    <glyph glyph-name="Oslashacute" unicode="&#x1fe;" horiz-adv-x="479" 
d="M387 861l-89 -119h-135l71 119h153zM434 613l2.5 -5l2.5 -5q15 -34 20 -82.5t5 -167.5t-5 -167.5t-20 -82.5q-52 -117 -200 -117q-108 0 -166 66l-33 -51h-57l62 92q-3 5 -5 10q-15 34 -20 82.5t-5 167.5t5 167.5t20 82.5q52 117 199 117q108 0 167 -65l34 52h57z
M193 540q-7 -16 -7 -187v-52l106 186q-1 40 -6 53q-12 31 -47 31q-34 0 -46 -31zM285 166q8 19 8 187v55l-106 -188q1 -41 6 -54q14 -31 46 -31q34 0 46 31z" />
    <glyph glyph-name="oslashacute" unicode="&#x1ff;" horiz-adv-x="407" 
d="M339 706l-82 -141h-130l64 141h148zM359 469q9 -12 17 -29q12 -25 15.5 -58t3.5 -120q0 -86 -3.5 -119t-15.5 -58q-42 -94 -173 -94q-77 0 -125 34l-16 -25h-52l37 56q-7 9 -17 29q-11 25 -14.5 58t-3.5 119t3.5 119.5t14.5 58.5q43 94 173 94q79 0 125 -34l17 25h52z
M177 391q-4 -12 -4 -129v-16l60 108q0 30 -3 37q-8 15 -27 15q-20 0 -26 -15zM230 134q4 12 4 128v18l-61 -105q1 -32 4 -41q6 -15 26 -15q19 0 27 15z" />
    <glyph glyph-name="uni0218" unicode="&#x218;" horiz-adv-x="425" 
d="M211 -14q-147 0 -189 93q-9 21 -12 45t-3 89h175q0 -61 3 -72q7 -18 29 -18q21 0 27 16q2 6 2 48q0 38 -6 54q-5 10 -16 19t-19.5 13.5t-30 14t-30.5 13.5q-88 46 -111 96q-16 37 -16 123q0 71 16 107q43 93 182 93q136 0 178 -89q9 -21 12 -44t3 -90h-168q0 65 -4 74
q-6 14 -25 14q-20 0 -25 -15q-2 -5 -2 -40q0 -34 6 -50q3 -7 8.5 -12.5t16 -11.5t16.5 -9t23.5 -10t24.5 -10q52 -24 81.5 -46t43.5 -54q17 -39 17 -128q0 -80 -17 -118q-43 -95 -190 -95zM108 -170l27 129h156l-39 -129h-144z" />
    <glyph glyph-name="uni0219" unicode="&#x219;" horiz-adv-x="370" 
d="M183 -11q-124 0 -160 78q-14 30 -14 106h153q0 -49 3 -56q4 -12 19 -12q14 0 17 10q2 4 2 24q0 27 -4 35q-9 19 -60 41q-45 20 -71 39t-39 49q-13 27 -13 83q0 42 12 71q33 76 157 76q123 0 156 -73q12 -26 12 -89h-150q0 33 -3 41q-5 11 -16 11q-12 0 -16 -9
q-2 -8 -2 -16q0 -21 4 -29q8 -18 67 -44q34 -16 49.5 -24t34.5 -25t28 -38q12 -24 12 -87q0 -53 -13 -83q-36 -79 -165 -79zM82 -170l27 129h155l-38 -129h-144z" />
    <glyph glyph-name="uni021A" unicode="&#x21a;" horiz-adv-x="333" 
d="M84 0v560h-79v146h323v-146h-78v-560h-166zM64 -170l27 129h155l-38 -129h-144z" />
    <glyph glyph-name="uni021B" unicode="&#x21b;" horiz-adv-x="273" 
d="M191 -6q-77 0 -110 30t-33 112v250h-41v139h41v112h155v-112h57v-139h-57v-216q0 -25 8 -34t27 -9q7 0 27 2v-128q-36 -7 -74 -7zM62 -168l27 129h155l-38 -129h-144z" />
    <glyph glyph-name="uni0237" unicode="&#x237;" horiz-adv-x="197" 
d="M31 -172q-39 0 -57 2v135q18 -2 20 -2q30 0 30 35v527h155v-557q0 -74 -36 -107t-112 -33z" />
    <glyph glyph-name="uni0259" unicode="&#x259;" horiz-adv-x="402" 
d="M372 441q11 -25 14.5 -59.5t3.5 -120.5q0 -87 -3.5 -119.5t-14.5 -56.5q-42 -94 -169 -94q-129 0 -173 95q-12 27 -15 63t-3 147h222q0 88 -5 101q-6 16 -30 16q-12 0 -21 -7q-7 -7 -8 -55h-157q1 56 11 86t35 53q48 44 138 44q133 0 175 -93zM201 109q22 0 28 16
q4 11 5 77h-66q0 -62 4 -76q8 -17 29 -17z" />
    <glyph glyph-name="circumflex" unicode="&#x2c6;" horiz-adv-x="414" 
d="M50 565l77 141h161l76 -141h-126l-31 62l-31 -62h-126z" />
    <glyph glyph-name="caron" unicode="&#x2c7;" horiz-adv-x="414" 
d="M364 706l-76 -141h-162l-76 141h126l31 -62l31 62h126z" />
    <glyph glyph-name="uni02C9" unicode="&#x2c9;" horiz-adv-x="343" 
d="M50 579v103h243v-103h-243z" />
    <glyph glyph-name="breve" unicode="&#x2d8;" horiz-adv-x="401" 
d="M201 559q-148 0 -151 147h106q1 -32 12 -45.5t33 -13.5t32.5 13.5t11.5 45.5h106q-3 -147 -150 -147z" />
    <glyph glyph-name="dotaccent" unicode="&#x2d9;" horiz-adv-x="258" 
d="M130 563q-35 0 -57.5 21.5t-22.5 55.5q0 35 22.5 55.5t57.5 20.5q34 0 56 -20.5t22 -55.5q0 -34 -22 -55.5t-56 -21.5z" />
    <glyph glyph-name="ring" unicode="&#x2da;" horiz-adv-x="331" 
d="M165 555q-51 0 -83 28.5t-32 74.5q0 47 32 75.5t83 28.5q52 0 84 -28t32 -76q0 -46 -32.5 -74.5t-83.5 -28.5zM165 625q16 0 25.5 9t9.5 24q0 16 -9.5 25.5t-25.5 9.5q-15 0 -24 -9.5t-9 -25.5q0 -15 9 -24t24 -9z" />
    <glyph glyph-name="ogonek" unicode="&#x2db;" horiz-adv-x="280" 
d="M162 -182q-51 0 -81.5 22.5t-30.5 63.5q0 61 79 96h101q-31 -19 -46 -33t-15 -32q0 -26 28 -26q18 0 32 7v-86q-30 -12 -67 -12z" />
    <glyph glyph-name="tilde" unicode="&#x2dc;" horiz-adv-x="399" 
d="M266 564q-30 0 -64 18q-28 16 -44 16q-22 0 -26 -33h-82q1 74 20 108t64 34q29 0 63 -18q32 -16 44 -16q23 0 26 33h82q-1 -74 -19.5 -108t-63.5 -34z" />
    <glyph glyph-name="hungarumlaut" unicode="&#x2dd;" horiz-adv-x="429" 
d="M50 565l59 141h122l-82 -141h-99zM199 565l59 141h121l-81 -141h-99z" />
    <glyph glyph-name="gravecomb" unicode="&#x300;" 
d="M-50 565h-130l-82 141h148z" />
    <glyph glyph-name="acutecomb" unicode="&#x301;" 
d="M-262 565l64 141h148l-82 -141h-130z" />
    <glyph glyph-name="uni0302" unicode="&#x302;" 
d="M-364 565l77 141h161l76 -141h-126l-31 62l-31 -62h-126z" />
    <glyph glyph-name="tildecomb" unicode="&#x303;" 
d="M-133 564q-30 0 -64 18q-28 16 -44 16q-22 0 -26 -33h-82q1 74 20 108t64 34q29 0 63 -18q32 -16 44 -16q23 0 26 33h82q-1 -74 -19.5 -108t-63.5 -34z" />
    <glyph glyph-name="uni0304" unicode="&#x304;" 
d="M-293 579v103h243v-103h-243z" />
    <glyph glyph-name="uni0306" unicode="&#x306;" 
d="M-200 559q-148 0 -151 147h106q1 -32 12 -45.5t33 -13.5t32.5 13.5t11.5 45.5h106q-3 -147 -150 -147z" />
    <glyph glyph-name="uni0307" unicode="&#x307;" 
d="M-128 563q-35 0 -57.5 21.5t-22.5 55.5q0 35 22.5 55.5t57.5 20.5q34 0 56 -20.5t22 -55.5q0 -34 -22 -55.5t-56 -21.5z" />
    <glyph glyph-name="uni0308" unicode="&#x308;" 
d="M-294 561q-33 0 -54 20t-21 52t21 51.5t54 19.5q32 0 52.5 -19.5t20.5 -51.5t-20.5 -52t-52.5 -20zM-123 560q-32 0 -53.5 20.5t-21.5 52.5t21 51.5t54 19.5q32 0 52.5 -19.5t20.5 -51.5t-20.5 -52.5t-52.5 -20.5z" />
    <glyph glyph-name="uni030A" unicode="&#x30a;" 
d="M-166 555q-51 0 -83 28.5t-32 74.5q0 47 32 75.5t83 28.5q52 0 84 -28t32 -76q0 -46 -32.5 -74.5t-83.5 -28.5zM-166 625q16 0 25.5 9t9.5 24q0 16 -9.5 25.5t-25.5 9.5q-15 0 -24 -9.5t-9 -25.5q0 -15 9 -24t24 -9z" />
    <glyph glyph-name="uni030B" unicode="&#x30b;" 
d="M-379 565l59 141h122l-82 -141h-99zM-230 565l59 141h121l-81 -141h-99z" />
    <glyph glyph-name="uni030C" unicode="&#x30c;" 
d="M-50 706l-76 -141h-162l-76 141h126l31 -62l31 62h126z" />
    <glyph glyph-name="uni0312" unicode="&#x312;" 
d="M-50 704l-26 -129h-156l39 129h143z" />
    <glyph glyph-name="uni0326" unicode="&#x326;" 
d="M-232 -170l27 129h155l-38 -129h-144z" />
    <glyph glyph-name="uni0327" unicode="&#x327;" 
d="M-131 -17q38 -2 59.5 -22t21.5 -55q0 -90 -131 -90q-42 0 -86 14l16 68q26 -10 58 -10q41 0 41 22q0 13 -11.5 18t-39.5 5h-40l19 89h101z" />
    <glyph glyph-name="uni0328" unicode="&#x328;" 
d="M-118 -182q-51 0 -81.5 22.5t-30.5 63.5q0 61 79 96h101q-31 -19 -46 -33t-15 -32q0 -26 28 -26q18 0 32 7v-86q-30 -12 -67 -12z" />
    <glyph glyph-name="uni0335" unicode="&#x335;" 
d="M-304 283v104h254v-104h-254z" />
    <glyph glyph-name="uni0336" unicode="&#x336;" 
d="M-209 583v94h209v-94h-209z" />
    <glyph glyph-name="uni0337" unicode="&#x337;" 
d="M-115 424l115 82v-123l-115 -85v27l-115 -81v123l115 82v-25z" />
    <glyph glyph-name="uni0338" unicode="&#x338;" 
d="M-427 0l107 163l4 -9l153 272l2 -4l69 103h52l-103 -152l-3 6l-157 -272l-1 4l-71 -111h-52z" />
    <glyph glyph-name="uni0394" unicode="&#x394;" horiz-adv-x="481" 
d="M369 706l113 -706h-483l113 706h257zM184 136h114l-56 436h-2z" />
    <glyph glyph-name="uni03A9" unicode="&#x3a9;" horiz-adv-x="471" 
d="M360 161v-28h88v-133h-196v271q20 4 31 27q7 15 7 120q0 135 -7 150q-12 27 -48 27q-35 0 -47 -27q-7 -15 -7 -150q0 -105 7 -120q11 -23 31 -27v-271h-197v133h88v28q-55 26 -78 77q-11 25 -14 55.5t-3 124.5q0 108 3.5 143.5t15.5 61.5q45 97 201 97q157 0 202 -97
q12 -27 15.5 -63t3.5 -142q0 -94 -3 -124.5t-15 -55.5q-24 -53 -78 -77z" />
    <glyph glyph-name="uni03BC" unicode="&#x3bc;" horiz-adv-x="404" 
d="M230 525h155v-525h-150v62q-27 -68 -73 -71q11 -63 11 -126v-36h-154v696h155v-366q0 -20 6 -28t21 -8q29 0 29 37v365z" />
    <glyph glyph-name="pi" unicode="&#x3c0;" horiz-adv-x="515" 
d="M429 -6q-76 0 -109.5 31t-33.5 111v250h-58v-386h-155v386h-46v139h461v-139h-47v-219q0 -24 7 -32t24 -8q10 0 16 1v-129q-26 -5 -59 -5z" />
    <glyph glyph-name="Wgrave" unicode="&#x1e80;" horiz-adv-x="676" 
d="M416 742h-136l-88 119h153zM516 706h161l-119 -706h-165l-55 374l-55 -374h-163l-121 706h161l50 -387l50 387h157l50 -391z" />
    <glyph glyph-name="wgrave" unicode="&#x1e81;" horiz-adv-x="622" 
d="M387 565h-130l-82 141h148zM471 525h157l-119 -525h-154l-44 272l-44 -272h-155l-118 525h155l40 -271l50 271h142l51 -268z" />
    <glyph glyph-name="Wacute" unicode="&#x1e82;" horiz-adv-x="676" 
d="M486 861l-89 -119h-135l71 119h153zM516 706h161l-119 -706h-165l-55 374l-55 -374h-163l-121 706h161l50 -387l50 387h157l50 -391z" />
    <glyph glyph-name="wacute" unicode="&#x1e83;" horiz-adv-x="622" 
d="M445 706l-82 -141h-130l64 141h148zM471 525h157l-119 -525h-154l-44 272l-44 -272h-155l-118 525h155l40 -271l50 271h142l51 -268z" />
    <glyph glyph-name="Wdieresis" unicode="&#x1e84;" horiz-adv-x="676" 
d="M254 737q-32 0 -52 19.5t-20 50.5q0 32 20.5 50.5t51.5 18.5t51 -18.5t20 -50.5q0 -31 -20 -50.5t-51 -19.5zM426 737q-32 0 -52 19.5t-20 50.5q0 32 20.5 50.5t51.5 18.5t51 -18.5t20 -50.5q0 -31 -20 -50.5t-51 -19.5zM516 706h161l-119 -706h-165l-55 374l-55 -374
h-163l-121 706h161l50 -387l50 387h157l50 -391z" />
    <glyph glyph-name="wdieresis" unicode="&#x1e85;" horiz-adv-x="622" 
d="M226 561q-33 0 -54 20t-21 52t21 51.5t54 19.5q32 0 52.5 -19.5t20.5 -51.5t-20.5 -52t-52.5 -20zM397 560q-32 0 -53.5 20.5t-21.5 52.5t21 51.5t54 19.5q32 0 52.5 -19.5t20.5 -51.5t-20.5 -52.5t-52.5 -20.5zM471 525h157l-119 -525h-154l-44 272l-44 -272h-155
l-118 525h155l40 -271l50 271h142l51 -268z" />
    <glyph glyph-name="uni1E9E" unicode="&#x1e9e;" horiz-adv-x="462" 
d="M434 357q14 -32 14 -129q0 -114 -15 -148q-37 -82 -158 -82q-36 0 -61 4v132q5 -1 18 -1q35 0 43 22q3 6 3 73q0 69 -3 76q-8 21 -39 21h-12v2l45 233h-80v-560h-165v706h418v-2l-57 -295q34 -18 49 -52z" />
    <glyph glyph-name="Ygrave" unicode="&#x1ef2;" horiz-adv-x="443" 
d="M300 742h-136l-88 119h153zM139 0v282l-140 424h167l56 -237l55 237h167l-139 -424v-282h-166z" />
    <glyph glyph-name="ygrave" unicode="&#x1ef3;" horiz-adv-x="394" 
d="M276 565h-130l-82 141h148zM241 525h159l-130 -524l-46 -171h-150l45 173l-125 522h164l39 -314z" />
    <glyph glyph-name="uni2009" unicode="&#x2009;" horiz-adv-x="51" 
 />
    <glyph glyph-name="uni2011" unicode="&#x2011;" horiz-adv-x="272" 
d="M27 243v134h218v-134h-218z" />
    <glyph glyph-name="endash" unicode="&#x2013;" horiz-adv-x="328" 
d="M27 245v132h274v-132h-274z" />
    <glyph glyph-name="emdash" unicode="&#x2014;" horiz-adv-x="656" 
d="M27 245v132h601v-132h-601z" />
    <glyph glyph-name="quoteleft" unicode="&#x2018;" horiz-adv-x="218" 
d="M207 706l-44 -262h-152l82 262h114z" />
    <glyph glyph-name="quoteright" unicode="&#x2019;" horiz-adv-x="218" 
d="M11 444l44 262h152l-82 -262h-114z" />
    <glyph glyph-name="quotesinglbase" unicode="&#x201a;" horiz-adv-x="218" 
d="M11 -116l44 262h152l-82 -262h-114z" />
    <glyph glyph-name="quotedblleft" unicode="&#x201c;" horiz-adv-x="393" 
d="M207 706l-44 -262h-152l82 262h114zM383 706l-44 -262h-153l82 262h115z" />
    <glyph glyph-name="quotedblright" unicode="&#x201d;" horiz-adv-x="393" 
d="M11 444l44 262h152l-82 -262h-114zM186 444l44 262h153l-82 -262h-115z" />
    <glyph glyph-name="quotedblbase" unicode="&#x201e;" horiz-adv-x="393" 
d="M11 -116l44 262h152l-82 -262h-114zM186 -116l44 262h153l-82 -262h-115z" />
    <glyph glyph-name="dagger" unicode="&#x2020;" horiz-adv-x="313" 
d="M303 566v-150h-67v-416h-158v416h-68v150h68v140h158v-140h67z" />
    <glyph glyph-name="daggerdbl" unicode="&#x2021;" horiz-adv-x="313" 
d="M303 434h-67v-162h67v-150h-67v-122h-158v122h-68v150h68v162h-68v150h68v122h158v-122h67v-150z" />
    <glyph glyph-name="bullet" unicode="&#x2022;" horiz-adv-x="396" 
d="M198 226q-61 0 -100 38.5t-39 100.5q0 64 38 101t101 37q62 0 100 -37t38 -101q0 -63 -38.5 -101t-99.5 -38z" />
    <glyph glyph-name="ellipsis" unicode="&#x2026;" horiz-adv-x="715" 
d="M132 -12q-39 0 -63 23t-24 62q0 40 24 63t63 23t62.5 -23t23.5 -63q0 -39 -23.5 -62t-62.5 -23zM358 -12q-39 0 -63 23t-24 62q0 40 24 63t63 23t62.5 -23t23.5 -63q0 -39 -23.5 -62t-62.5 -23zM584 -12q-39 0 -63.5 23t-24.5 62q0 40 24 63t64 23q38 0 62 -23t24 -63
q0 -39 -24 -62t-62 -23z" />
    <glyph glyph-name="perthousand" unicode="&#x2030;" horiz-adv-x="742" 
d="M122 409q-76 0 -100 52q-12 27 -12 100t12 100q24 52 100 52q75 0 99 -52q12 -27 12 -100t-12 -100q-24 -52 -99 -52zM45 0l327 706h81l-327 -706h-81zM122 490q11 0 13 7q3 5 3 64q0 58 -3 64q-3 7 -13 7t-14 -7q-3 -6 -3 -64q0 -57 3 -64q4 -7 14 -7zM377 -6
q-76 0 -100 51q-12 27 -12 100q0 75 12 100q24 52 100 52q75 0 99 -52q12 -25 12 -100q0 -73 -12 -100q-24 -51 -99 -51zM620 -6q-76 0 -100 51q-12 27 -12 100q0 75 12 100q24 52 100 52q75 0 99 -52q12 -25 12 -100q0 -73 -12 -100q-24 -51 -99 -51zM377 75q11 0 13 7
q3 5 3 63q0 59 -3 64q-3 7 -13 7q-11 0 -14 -7q-3 -6 -3 -64q0 -55 3 -63q3 -7 14 -7zM620 75q11 0 13 7q3 5 3 63q0 59 -3 64q-3 7 -13 7q-11 0 -14 -7q-3 -6 -3 -64q0 -55 3 -63q4 -7 14 -7z" />
    <glyph glyph-name="guilsinglleft" unicode="&#x2039;" horiz-adv-x="238" 
d="M92 141l-85 163l85 164h139l-85 -164l85 -163h-139z" />
    <glyph glyph-name="guilsinglright" unicode="&#x203a;" horiz-adv-x="238" 
d="M146 141h-139l85 163l-85 164h139l85 -164z" />
    <glyph glyph-name="fraction" unicode="&#x2044;" horiz-adv-x="144" 
d="M-117 0l305 706h73l-305 -706h-73z" />
    <glyph glyph-name="uni2070" unicode="&#x2070;" horiz-adv-x="300" 
d="M150 430q-95 0 -123 64q-14 32 -14 138t14 138q28 64 123 64q93 0 123 -64q14 -32 14 -138t-14 -138q-30 -64 -123 -64zM150 527q12 0 15 9t3 96t-3 96t-15 9t-16 -9q-2 -6 -2 -96t2 -96q4 -9 16 -9z" />
    <glyph glyph-name="uni2074" unicode="&#x2074;" horiz-adv-x="318" 
d="M166 438v60h-173v2l84 326h197v-225h38v-103h-38v-60h-108zM128 601h38v184z" />
    <glyph glyph-name="uni2075" unicode="&#x2075;" horiz-adv-x="279" 
d="M137 430q-93 0 -120 58q-10 21 -10 86l108 -1q0 -36 2 -41q5 -10 19 -10q11 0 15 9q2 4 2 36q0 33 -5 42q-11 19 -67 19q-34 0 -66 -3l25 201h219l-12 -91h-110l-3 -37q15 3 39 3q67 0 87 -44q10 -21 10 -83q0 -66 -10 -86q-26 -58 -123 -58z" />
    <glyph glyph-name="uni2076" unicode="&#x2076;" horiz-adv-x="298" 
d="M279 650q7 -18 7 -76q0 -62 -10 -83q-28 -61 -124 -61q-97 0 -127 64q-8 17 -10.5 41.5t-2.5 96.5q0 67 3 91.5t12 46.5q29 64 126 64q64 0 97 -33q23 -23 27 -87h-105q-1 22 -4 25q-4 6 -15 6q-16 0 -22 -14q-4 -7 -4 -56q22 19 66 19q65 0 86 -44zM166 529q2 3 2 36
q0 35 -2 41q-4 9 -16 9q-11 0 -16 -8q-2 -8 -2 -42q0 -30 2 -36q4 -9 16 -9q13 0 16 9z" />
    <glyph glyph-name="uni2077" unicode="&#x2077;" horiz-adv-x="253" 
d="M22 438l83 288h-95v100h248l-113 -388h-123z" />
    <glyph glyph-name="uni2078" unicode="&#x2078;" horiz-adv-x="288" 
d="M269 620q8 -17 8 -65q0 -49 -9 -68q-25 -57 -124 -57q-98 0 -125 58q-8 19 -8 67q0 50 8 66q11 24 45 35q-33 11 -44 36q-6 12 -6 45q0 27 8 43q11 24 43.5 39t78.5 15q47 0 79 -14.5t44 -39.5q8 -20 8 -43q0 -27 -8 -45q-10 -24 -43 -36q32 -11 45 -36zM129 749
q-2 -3 -2 -26q0 -24 2 -26q3 -9 15 -9t16 9q1 2 1 26q0 23 -1 26q-5 8 -16 8q-12 0 -15 -8zM161 523q2 6 2 40q0 33 -2 39q-5 9 -17 9t-16 -9q-2 -3 -2 -39q0 -37 2 -40q4 -9 16 -9t17 9z" />
    <glyph glyph-name="uni2079" unicode="&#x2079;" horiz-adv-x="298" 
d="M273 770q8 -17 10.5 -41.5t2.5 -96.5q0 -67 -3 -91.5t-12 -46.5q-29 -64 -126 -64q-64 0 -97 33q-23 23 -27 87h105q1 -22 4 -25q4 -6 15 -6q16 0 22 14q4 7 4 56q-22 -19 -66 -19q-65 0 -86 44q-7 18 -7 76q0 62 10 83q28 61 124 61q97 0 127 -64zM164 657q2 8 2 42
q0 30 -2 36q-4 9 -16 9q-13 0 -16 -9q-2 -3 -2 -36q0 -35 2 -41q4 -9 16 -9q11 0 16 8z" />
    <glyph glyph-name="uni207A" unicode="&#x207a;" horiz-adv-x="263" 
d="M247 675v-86h-73v-66h-85v66h-73v86h73v67h86v-67h72z" />
    <glyph glyph-name="uni207B" unicode="&#x207b;" horiz-adv-x="263" 
d="M16 589v86h231v-86h-231z" />
    <glyph glyph-name="uni207C" unicode="&#x207c;" horiz-adv-x="250" 
d="M16 645v72h217v-72h-217zM16 546v73h217v-73h-217z" />
    <glyph glyph-name="uni207D" unicode="&#x207d;" horiz-adv-x="169" 
d="M78 370q-31 67 -44.5 125.5t-13.5 136.5q0 79 13.5 137.5t44.5 124.5h89q-47 -135 -47 -262q0 -126 47 -262h-89z" />
    <glyph glyph-name="uni207E" unicode="&#x207e;" horiz-adv-x="169" 
d="M91 370h-89q47 136 47 262q0 127 -47 262h89q31 -68 44.5 -126t13.5 -136t-13.5 -136t-44.5 -126z" />
    <glyph glyph-name="uni207F" unicode="&#x207f;" horiz-adv-x="281" 
d="M196 713q36 0 55 -22t19 -62v-286h-112v254q0 22 -16 22q-18 0 -18 -24v-252h-112v364h112v-29q29 35 72 35z" />
    <glyph glyph-name="uni2080" unicode="&#x2080;" horiz-adv-x="300" 
d="M150 -128q-95 0 -123 64q-14 32 -14 138t14 138q28 64 123 64q93 0 123 -64q14 -32 14 -138t-14 -138q-30 -64 -123 -64zM150 -31q12 0 15 9t3 96t-3 96t-15 9t-16 -9q-2 -6 -2 -96t2 -96q4 -9 16 -9z" />
    <glyph glyph-name="uni2081" unicode="&#x2081;" horiz-adv-x="189" 
d="M49 -120v288h-49l15 100h152v-388h-118z" />
    <glyph glyph-name="uni2082" unicode="&#x2082;" horiz-adv-x="272" 
d="M1 -120v4l123 199q25 41 25 67q0 25 -2 27q-3 7 -14 7q-12 0 -16 -9q-3 -4 -3 -27h-109q0 50 11 72q26 56 117 56q94 0 120 -56q10 -23 10 -51q0 -57 -26 -102q-22 -39 -57 -87h81v-100h-260z" />
    <glyph glyph-name="uni2083" unicode="&#x2083;" horiz-adv-x="273" 
d="M254 58q7 -14 7 -58q0 -55 -9 -73q-25 -55 -123 -55q-89 0 -113 53q-10 23 -10 92l104 -1q0 -39 2 -44q3 -8 16 -8q12 0 15 7q3 4 3 34q0 23 -4 30q-6 11 -29 11h-9v78h9q23 0 28 12q3 6 3 20q0 19 -1 21q-3 7 -14 7t-14 -7q-3 -6 -3 -29h-104q0 48 9 70q26 58 116 58
q92 0 117 -55q8 -19 8 -60q0 -26 -6 -41q-11 -23 -40 -32q32 -8 42 -30z" />
    <glyph glyph-name="uni2084" unicode="&#x2084;" horiz-adv-x="318" 
d="M166 -120v60h-173v2l84 326h197v-225h38v-103h-38v-60h-108zM128 43h38v184z" />
    <glyph glyph-name="uni2085" unicode="&#x2085;" horiz-adv-x="279" 
d="M137 -128q-93 0 -120 58q-10 21 -10 86l108 -1q0 -36 2 -41q5 -10 19 -10q11 0 15 9q2 4 2 36q0 33 -5 42q-11 19 -67 19q-34 0 -66 -3l25 201h219l-12 -91h-110l-3 -37q15 3 39 3q67 0 87 -44q10 -21 10 -83q0 -66 -10 -86q-26 -58 -123 -58z" />
    <glyph glyph-name="uni2086" unicode="&#x2086;" horiz-adv-x="298" 
d="M279 92q7 -17 7 -76q0 -62 -10 -83q-28 -61 -124 -61q-97 0 -127 64q-8 17 -10.5 41.5t-2.5 96.5q0 67 3 91.5t12 46.5q29 64 126 64q64 0 97 -33q23 -23 27 -87h-105q-1 22 -4 25q-4 6 -15 6q-16 0 -22 -14q-4 -7 -4 -56q22 19 66 19q65 0 86 -44zM166 -29q2 3 2 36
q0 35 -2 41q-4 9 -16 9q-11 0 -16 -8q-2 -8 -2 -42q0 -30 2 -36q4 -9 16 -9q13 0 16 9z" />
    <glyph glyph-name="uni2087" unicode="&#x2087;" horiz-adv-x="253" 
d="M22 -120l83 288h-95v100h248l-113 -388h-123z" />
    <glyph glyph-name="uni2088" unicode="&#x2088;" horiz-adv-x="288" 
d="M269 62q8 -17 8 -65q0 -49 -9 -68q-25 -57 -124 -57q-98 0 -125 58q-8 19 -8 67q0 50 8 66q11 24 45 35q-33 11 -44 36q-6 12 -6 45q0 27 8 43q11 24 43.5 39t78.5 15q47 0 79 -14.5t44 -39.5q8 -20 8 -43q0 -27 -8 -45q-10 -24 -43 -36q32 -11 45 -36zM129 191
q-2 -3 -2 -26q0 -24 2 -26q3 -9 15 -9t16 9q1 2 1 26q0 23 -1 26q-5 8 -16 8q-12 0 -15 -8zM161 -35q2 6 2 40q0 33 -2 39q-5 9 -17 9t-16 -9q-2 -3 -2 -39q0 -37 2 -40q4 -9 16 -9t17 9z" />
    <glyph glyph-name="uni2089" unicode="&#x2089;" horiz-adv-x="298" 
d="M273 212q8 -17 10.5 -41.5t2.5 -96.5q0 -67 -3 -91.5t-12 -46.5q-31 -64 -126 -64q-65 0 -97 33q-22 21 -28 87h105q1 -21 4 -25q5 -6 16 -6q16 0 22 14q4 10 4 56q-24 -19 -66 -19q-67 0 -86 44q-8 17 -8 76t10 83q28 61 125 61t127 -64zM163 99q2 4 2 42q0 33 -1 36
q-4 9 -17 9q-11 0 -16 -9q-2 -6 -2 -36q0 -37 3 -41q3 -9 15 -9q13 0 16 8z" />
    <glyph glyph-name="uni208A" unicode="&#x208a;" horiz-adv-x="263" 
d="M247 117v-86h-73v-66h-85v66h-73v86h73v67h86v-67h72z" />
    <glyph glyph-name="uni208B" unicode="&#x208b;" horiz-adv-x="263" 
d="M16 31v86h231v-86h-231z" />
    <glyph glyph-name="uni208C" unicode="&#x208c;" horiz-adv-x="250" 
d="M16 87v72h217v-72h-217zM16 -12v73h217v-73h-217z" />
    <glyph glyph-name="uni208D" unicode="&#x208d;" horiz-adv-x="169" 
d="M78 -188q-31 67 -44.5 125.5t-13.5 136.5q0 79 13.5 137.5t44.5 124.5h89q-47 -135 -47 -262q0 -126 47 -262h-89z" />
    <glyph glyph-name="uni208E" unicode="&#x208e;" horiz-adv-x="169" 
d="M91 -188h-89q47 136 47 262q0 127 -47 262h89q31 -68 44.5 -126t13.5 -136t-13.5 -136t-44.5 -126z" />
    <glyph glyph-name="uni2099" unicode="&#x2099;" horiz-adv-x="281" 
d="M196 185q36 0 55 -22.5t19 -62.5v-285h-112v254q0 21 -16 21q-18 0 -18 -23v-252h-112v364h112v-29q29 35 72 35z" />
    <glyph glyph-name="Euro" unicode="&#x20ac;" horiz-adv-x="495" 
d="M311 233h172q-2 -138 -63 -195q-56 -51 -151 -51q-147 0 -201 118q-22 49 -23 173h-33v64h32v11v21h-32v64h33q2 115 23 163q54 118 201 118q93 0 148 -51q36 -32 50 -77.5t15 -121.5h-172q0 50 -3 67t-11 24q-13 11 -31 11q-31 0 -42 -27q-6 -14 -7 -106h118v-64h-118
v-21v-11h118v-64h-118q1 -103 7 -116q11 -27 42 -27q19 0 32 11t14 87z" />
    <glyph glyph-name="uni20B9" unicode="&#x20b9;" horiz-adv-x="388" 
d="M382 706v-74h-83q6 -9 12 -21q13 -28 14 -96h57v-74h-57q-1 -81 -14 -109q-20 -46 -73 -63l109 -269h-177l-137 370h83q29 0 39 21q5 10 6 50h-142v74h142q-1 35 -6 43q-9 20 -39 20h-96v128h362z" />
    <glyph glyph-name="uni20BA" unicode="&#x20ba;" horiz-adv-x="444" 
d="M278 312h159q0 -105 -4.5 -145t-17.5 -70q-45 -97 -179 -97h-184v283l-40 -18v77l40 18v34l-40 -18v76l40 18v236h164v-171l118 53v-77l-118 -53v-34l118 53v-77l-118 -53v-201h12q34 0 44 24q6 18 6 142z" />
    <glyph glyph-name="uni20BC" unicode="&#x20bc;" horiz-adv-x="642" 
d="M597 531q12 -28 16.5 -61t4.5 -112v-358h-166v361q0 96 -6 110q-11 27 -42 27v-498h-166v498q-31 0 -42 -27q-6 -12 -6 -110v-361h-166v358q0 81 4 113.5t17 59.5q46 102 193 102v73h166v-73q149 0 193 -102z" />
    <glyph glyph-name="uni2113" unicode="&#x2113;" horiz-adv-x="410" 
d="M200 196q3 -38 23.5 -54t64.5 -16q38 0 74 13v-130q-51 -17 -110 -17q-202 0 -208 184h-34v116h34v206q0 114 41 166t134 52q96 0 136 -52t40 -167q0 -129 -45.5 -201t-149.5 -100zM199 548v-220q24 21 32.5 60t8.5 109q0 47 -2.5 70t-7 28.5t-12.5 5.5q-11 0 -15 -10
t-4 -43z" />
    <glyph glyph-name="uni2117" unicode="&#x2117;" horiz-adv-x="538" 
d="M269 -14q-166 0 -225 130q-29 68 -29 237q0 170 29 236q60 131 225 131q166 0 224 -128q30 -66 30 -239q0 -171 -29 -236q-61 -131 -225 -131zM269 44q124 0 169 103q22 47 22 204q0 162 -24 214q-43 97 -166 97q-125 0 -171 -101q-21 -48 -21 -207q0 -162 22 -208
q46 -102 169 -102zM139 112v483h165q79 0 101 -52q11 -23 11 -93q0 -71 -11 -94q-23 -51 -101 -51h-44v-193h-121zM260 399h13q12 0 17 9q3 8 3 42q0 33 -3 42q-5 8 -17 8h-13v-101z" />
    <glyph glyph-name="trademark" unicode="&#x2122;" horiz-adv-x="520" 
d="M41 396v221h-38v89h176v-89h-37v-221h-101zM192 396v310h122l36 -166l35 166h121v-310h-93v158l-36 -158h-55l-37 158v-158h-93z" />
    <glyph glyph-name="uni2126" unicode="&#x2126;" horiz-adv-x="471" 
d="M360 161v-28h88v-133h-196v271q20 4 31 27q7 15 7 120q0 135 -7 150q-12 27 -48 27q-35 0 -47 -27q-7 -15 -7 -150q0 -105 7 -120q11 -23 31 -27v-271h-197v133h88v28q-55 26 -78 77q-11 25 -14 55.5t-3 124.5q0 108 3.5 143.5t15.5 61.5q45 97 201 97q157 0 202 -97
q12 -27 15.5 -63t3.5 -142q0 -94 -3 -124.5t-15 -55.5q-24 -53 -78 -77z" />
    <glyph glyph-name="estimated" unicode="&#x212e;" horiz-adv-x="830" 
d="M415 -11q-100 0 -186 42.5t-139.5 121.5t-53.5 177q0 145 110.5 243t268.5 98q156 0 267 -99.5t111 -247.5h-608q-10 0 -10 -11v-197q47 -51 110 -78.5t130 -27.5q73 0 139 32.5t113 88.5h57q-56 -68 -138 -105t-171 -37zM185 347h461q9 0 9 11v184q-44 51 -108 79.5
t-132 28.5q-70 0 -133 -28.5t-107 -78.5v-185q0 -11 10 -11z" />
    <glyph glyph-name="partialdiff" unicode="&#x2202;" horiz-adv-x="444" 
d="M404 616q14 -32 19 -78t5 -176q0 -134 -5.5 -183.5t-21.5 -83.5q-50 -109 -189 -109q-137 0 -180 96q-11 25 -14.5 54.5t-3.5 108.5q0 78 3 106t12 48q31 70 127 70q73 0 109 -45q0 112 -8 131q-11 27 -41 27q-18 0 -28 -10q-5 -7 -9 -46h-155q8 102 46 142q54 52 149 52
q137 0 185 -104zM253 149q4 11 4 85q0 77 -4 89q-9 22 -36 22q-25 0 -35 -21q-4 -12 -4 -89q0 -75 4 -86q9 -22 36 -22q26 0 35 22z" />
    <glyph glyph-name="uni2206" unicode="&#x2206;" horiz-adv-x="481" 
d="M369 706l113 -706h-483l113 706h257zM184 136h114l-56 436h-2z" />
    <glyph glyph-name="product" unicode="&#x220f;" horiz-adv-x="470" 
d="M24 -170v876h422v-876h-166v731h-90v-731h-166z" />
    <glyph glyph-name="summation" unicode="&#x2211;" horiz-adv-x="360" 
d="M7 -170l124 467l-116 409h338v-146h-129l73 -263l-83 -322h146v-145h-353z" />
    <glyph glyph-name="minus" unicode="&#x2212;" horiz-adv-x="410" 
d="M27 251v117h356v-117h-356z" />
    <glyph glyph-name="uni2215" unicode="&#x2215;" horiz-adv-x="410" 
d="M39 0l203 706h130l-204 -706h-129z" />
    <glyph glyph-name="uni2219" unicode="&#x2219;" horiz-adv-x="410" 
d="M206 224q-39 0 -63.5 23t-24.5 62q0 40 24 63t64 23q38 0 62 -23t24 -63q0 -39 -24 -62t-62 -23z" />
    <glyph glyph-name="radical" unicode="&#x221a;" horiz-adv-x="511" 
d="M345 706h167l-168 -875h-192l-83 422l-59 -14v144l179 35l62 -402z" />
    <glyph glyph-name="infinity" unicode="&#x221e;" horiz-adv-x="603" 
d="M574 415q10 -23 13.5 -49.5t3.5 -102.5t-3.5 -102.5t-13.5 -49.5q-36 -83 -143 -83q-92 0 -130 78q-36 -78 -129 -78q-107 0 -143 83q-11 22 -14 48.5t-3 103.5t3 103.5t14 48.5q37 83 143 83q93 0 129 -78q38 78 130 78q106 0 143 -83zM186 163q14 0 22.5 19.5
t17.5 80.5q-9 61 -17.5 80.5t-22.5 19.5t-21 -13q-3 -9 -3 -87t3 -87q7 -13 21 -13zM437 176q4 8 4 87t-4 87q-5 13 -20 13q-14 0 -22.5 -19.5t-17.5 -80.5q9 -61 17.5 -80.5t22.5 -19.5q15 0 20 13z" />
    <glyph glyph-name="integral" unicode="&#x222b;" horiz-adv-x="318" 
d="M69 -176q-36 0 -69 6l25 132q3 0 9 -0.5t9 -0.5q29 0 30 35l33 572q4 73 42 108t114 35q26 0 56 -5l-23 -134q-4 1 -12 1q-22 0 -25 -35l-34 -572q-4 -73 -41.5 -107.5t-113.5 -34.5z" />
    <glyph glyph-name="approxequal" unicode="&#x2248;" horiz-adv-x="410" 
d="M273 321q-33 0 -81 25q-24 13 -35 13q-19 0 -20 -37h-98q2 76 25 111.5t74 35.5q34 0 81 -25q24 -13 34 -13q20 0 20 37h99q-2 -76 -25 -111.5t-74 -35.5zM273 150q-33 0 -81 25q-24 13 -35 13q-19 0 -20 -37h-98q2 76 25 111.5t74 35.5q34 0 81 -25q24 -13 34 -13
q20 0 20 37h99q-2 -76 -25 -111.5t-74 -35.5z" />
    <glyph glyph-name="notequal" unicode="&#x2260;" horiz-adv-x="410" 
d="M383 338h-127l-30 -57h157v-117h-209l-45 -89h-67l45 89h-80v117h133l30 57h-163v117h216l46 89h67l-46 -89h73v-117z" />
    <glyph glyph-name="lessequal" unicode="&#x2264;" horiz-adv-x="410" 
d="M383 509v-117l-237 -27l237 -27v-118l-356 62v165zM27 88v118h356v-118h-356z" />
    <glyph glyph-name="greaterequal" unicode="&#x2265;" horiz-adv-x="410" 
d="M27 509l356 -62v-165l-356 -62v118l237 27l-237 27v117zM27 88v118h356v-118h-356z" />
    <glyph glyph-name="lozenge" unicode="&#x25ca;" horiz-adv-x="432" 
d="M129 -170l-120 438l120 438h174l120 -438l-120 -438h-174zM216 -16l56 284l-56 283l-55 -283z" />
    <glyph glyph-name="uniFB00" unicode="&#xfb00;" horiz-adv-x="556" 
d="M48 0v386h-41v139h41v45q0 79 40 113t126 34q33 0 57 -4v-130q-14 3 -27 3q-41 0 -41 -44v-17h62v-139h-62v-386h-155zM327 0v386h-41v139h41v45q0 79 40 113t126 34q33 0 57 -4v-130q-14 3 -27 3q-41 0 -41 -44v-17h62v-139h-62v-386h-155z" />
    <glyph glyph-name="fi" unicode="&#xfb01;" horiz-adv-x="470" 
d="M374 563q-35 0 -58 21.5t-23 56.5t23 56t58 21t58 -21t23 -56t-23 -56.5t-58 -21.5zM48 0v386h-41v139h41v45q0 79 40 113t126 34q33 0 57 -4v-130q-14 3 -27 3q-41 0 -41 -44v-17h62v-139h-62v-386h-155zM296 0v525h155v-525h-155z" />
    <glyph glyph-name="fl" unicode="&#xfb02;" horiz-adv-x="470" 
d="M48 0v386h-41v139h41v45q0 79 40 113t126 34q33 0 57 -4v-130q-14 3 -27 3q-41 0 -41 -44v-17h62v-139h-62v-386h-155zM296 0v706h155v-706h-155z" />
    <glyph glyph-name="uniFB03" unicode="&#xfb03;" horiz-adv-x="749" 
d="M653 563q-35 0 -58 21.5t-23 56.5t23 56t58 21t58 -21t23 -56t-23 -56.5t-58 -21.5zM48 0v386h-41v139h41v45q0 79 40 113t126 34q33 0 57 -4v-130q-14 3 -27 3q-41 0 -41 -44v-17h62v-139h-62v-386h-155zM327 0v386h-41v139h41v45q0 79 40 113t126 34q33 0 57 -4v-130
q-14 3 -27 3q-41 0 -41 -44v-17h62v-139h-62v-386h-155zM575 0v525h155v-525h-155z" />
    <glyph glyph-name="uniFB04" unicode="&#xfb04;" horiz-adv-x="749" 
d="M48 0v386h-41v139h41v45q0 79 40 113t126 34q33 0 57 -4v-130q-14 3 -27 3q-41 0 -41 -44v-17h62v-139h-62v-386h-155zM327 0v386h-41v139h41v45q0 79 40 113t126 34q33 0 57 -4v-130q-14 3 -27 3q-41 0 -41 -44v-17h62v-139h-62v-386h-155zM575 0v706h155v-706h-155z
" />
    <glyph glyph-name="uniFEFF" unicode="&#xfeff;" 
 />
    <glyph glyph-name="uni00A40301" horiz-adv-x="247" 
d="M72 742l71 119h153l-89 -119h-135zM59 -2q-18 0 -54 2v152q3 0 9 -0.5t9 -0.5q23 0 32 11t9 38v506h166v-535q0 -89 -40.5 -131t-130.5 -42z" />
    <glyph glyph-name="M.ss01" horiz-adv-x="596" 
d="M24 0v706h191l84 -207l82 207h191v-706h-158v449l-72 -191h-88l-72 191v-449h-158z" />
    <glyph glyph-name="Q.ss02" horiz-adv-x="479" 
d="M439 103q-26 -57 -74 -86l55 -108l-137 -60l-61 137q-133 8 -182 117q-15 34 -20 82.5t-5 167.5t5 167.5t20 82.5q52 117 199 117q148 0 200 -117q15 -34 20 -82.5t5 -167.5t-5 -167.5t-20 -82.5zM186 353q0 -167 7 -187q14 -31 46 -31q34 0 46 31q8 19 8 187
q0 171 -7 187q-12 31 -47 31q-34 0 -46 -31q-7 -16 -7 -187z" />
    <glyph glyph-name="R.ss03" horiz-adv-x="438" 
d="M271 0l-81 300v-300h-166v706h233q115 0 147 -72q15 -33 15 -129q0 -101 -15 -134q-16 -39 -54 -57l94 -314h-173zM208 577h-18v-160h18q28 0 36 16q5 10 5 68q0 51 -5 61q-9 15 -36 15z" />
    <glyph glyph-name="Racute.ss03" horiz-adv-x="438" 
d="M357 861l-89 -119h-135l71 119h153zM271 0l-81 300v-300h-166v706h233q115 0 147 -72q15 -33 15 -129q0 -101 -15 -134q-16 -39 -54 -57l94 -314h-173zM208 577h-18v-160h18q28 0 36 16q5 10 5 68q0 51 -5 61q-9 15 -36 15z" />
    <glyph glyph-name="Rcaron.ss03" horiz-adv-x="438" 
d="M296 742h-172l-71 119h126l31 -52l30 52h126zM271 0l-81 300v-300h-166v706h233q115 0 147 -72q15 -33 15 -129q0 -101 -15 -134q-16 -39 -54 -57l94 -314h-173zM208 577h-18v-160h18q28 0 36 16q5 10 5 68q0 51 -5 61q-9 15 -36 15z" />
    <glyph glyph-name="uni0156.ss03" horiz-adv-x="438" 
d="M190 300v-300h-166v706h233q115 0 147 -72q15 -33 15 -129q0 -101 -15 -134q-16 -39 -54 -57l94 -314h-173zM208 577h-18v-160h18q28 0 36 16q5 10 5 68q0 51 -5 61q-9 15 -36 15zM123 -170l27 129h155l-38 -129h-144z" />
    <glyph glyph-name="Oslash.ss04" horiz-adv-x="479" 
d="M424 631q10 -14 15 -28q15 -34 20 -82.5t5 -167.5t-5 -167.5t-20 -82.5q-52 -117 -200 -117q-42 0 -80 11l-51 -80l-107 66l57 88q-10 14 -18 32q-15 34 -20 82.5t-5 167.5t5 167.5t20 82.5q52 117 199 117q50 0 86 -13l49 81l109 -64zM285 166q8 19 8 187q0 171 -7 187
q-12 31 -47 31q-34 0 -46 -31q-7 -16 -7 -187q0 -167 7 -187q14 -31 46 -31q34 0 46 31z" />
    <glyph glyph-name="i.loclTRK" horiz-adv-x="193" 
d="M97 563q-35 0 -58 21.5t-23 56.5t23 56t58 21t58 -21t23 -56t-23 -56.5t-58 -21.5zM19 0v525h155v-525h-155z" />
    <glyph glyph-name="uni006A0301" horiz-adv-x="197" 
d="M21 565l46 141h141l-67 -141h-120zM31 -172q-39 0 -57 2v135q18 -2 20 -2q30 0 30 35v527h155v-557q0 -74 -36 -107t-112 -33z" />
    <glyph glyph-name="oslash.ss04" horiz-adv-x="407" 
d="M356 474q8 -10 20 -34q12 -25 15.5 -58t3.5 -120q0 -86 -3.5 -119t-15.5 -58q-42 -94 -173 -94q-23 0 -42 3l-36 -69l-113 54l39 72q-13 16 -21 34q-11 25 -14.5 58t-3.5 119t3.5 119.5t14.5 58.5q43 94 173 94q23 0 43 -3l38 71l113 -54zM230 134q4 12 4 128
q0 117 -4 129q-8 15 -27 15q-20 0 -26 -15q-4 -12 -4 -129q0 -116 4 -128q6 -15 26 -15q19 0 27 15z" />
    <glyph glyph-name="r.ss05" horiz-adv-x="340" 
d="M19 0v525h154v-46q29 54 82 54q36 0 59 -22t23 -61q0 -38 -24 -61.5t-61 -23.5q-39 0 -60 28q-11 -5 -14.5 -16.5t-3.5 -39.5v-337h-155z" />
    <glyph glyph-name="racute.ss05" horiz-adv-x="340" 
d="M90 565l46 141h141l-67 -141h-120zM19 0v525h154v-46q29 54 82 54q36 0 59 -22t23 -61q0 -38 -24 -61.5t-61 -23.5q-39 0 -60 28q-11 -5 -14.5 -16.5t-3.5 -39.5v-337h-155z" />
    <glyph glyph-name="rcaron.ss05" horiz-adv-x="340" 
d="M55 706h91l21 -67l19 67h92l-42 -141h-138zM19 0v525h154v-46q29 54 82 54q36 0 59 -22t23 -61q0 -38 -24 -61.5t-61 -23.5q-39 0 -60 28q-11 -5 -14.5 -16.5t-3.5 -39.5v-337h-155z" />
    <glyph glyph-name="uni0157.ss05" horiz-adv-x="340" 
d="M19 0v525h154v-46q29 54 82 54q36 0 59 -22t23 -61q0 -38 -24 -61.5t-61 -23.5q-39 0 -60 28q-11 -5 -14.5 -16.5t-3.5 -39.5v-337h-155zM-9 -170l27 129h155l-38 -129h-144z" />
    <glyph glyph-name="f_i" horiz-adv-x="470" 
d="M374 563q-35 0 -58 21.5t-23 56.5t23 56t58 21t58 -21t23 -56t-23 -56.5t-58 -21.5zM48 0v386h-41v139h41v45q0 79 40 113t126 34q33 0 57 -4v-130q-14 3 -27 3q-41 0 -41 -44v-17h62v-139h-62v-386h-155zM296 0v525h155v-525h-155z" />
    <glyph glyph-name="f_l" horiz-adv-x="470" 
d="M48 0v386h-41v139h41v45q0 79 40 113t126 34q33 0 57 -4v-130q-14 3 -27 3q-41 0 -41 -44v-17h62v-139h-62v-386h-155zM296 0v706h155v-706h-155z" />
    <glyph glyph-name="zero.tf" horiz-adv-x="436" 
d="M218 -14q-134 0 -180 106q-15 34 -20 82t-5 179t5 179t20 82q46 106 180 106q135 0 180 -106q15 -34 20 -82t5 -179t-5 -179t-20 -82q-45 -106 -180 -106zM218 133q25 0 34 19q4 12 4 201q0 188 -4 200q-8 19 -34 19q-27 0 -33 -19q-5 -12 -5 -200q0 -189 5 -201
q7 -19 33 -19z" />
    <glyph glyph-name="one.tf" horiz-adv-x="436" 
d="M155 0v552h-89l25 154h228v-706h-164z" />
    <glyph glyph-name="two.tf" horiz-adv-x="436" 
d="M19 0v2l180 371q26 55 34 80.5t8 58.5q0 38 -3 45q-7 18 -28 18q-22 0 -30 -18q-5 -11 -5 -81h-156q0 111 19 155q40 89 174 89q135 0 178 -95q16 -36 16 -98q0 -97 -43 -181q-41 -93 -98 -198h143v-148h-389z" />
    <glyph glyph-name="three.tf" horiz-adv-x="436" 
d="M402 321q12 -27 12 -104q0 -104 -15 -139q-42 -92 -185 -92q-138 0 -177 88q-18 41 -18 161h156q-1 -73 5 -87q8 -20 33 -20q24 0 32 20q4 9 4 77q0 47 -5 59q-11 25 -58 25h-18v123h18q44 0 55 25q5 10 5 53q0 48 -3 56q-8 18 -31 18q-22 0 -31 -19q-3 -9 -3 -68h-155
q0 101 16 135q39 88 177 88q137 0 177 -89q14 -31 14 -116q0 -63 -10 -87q-17 -37 -63 -54q51 -14 68 -53z" />
    <glyph glyph-name="four.tf" horiz-adv-x="436" 
d="M431 279v-149h-45v-130h-154v130h-232v1l109 575h277v-427h45zM174 279h58v360h-1z" />
    <glyph glyph-name="five.tf" horiz-adv-x="436" 
d="M220 -14q-138 0 -179 91q-20 43 -20 158h156q0 -79 6 -92q9 -18 31 -18t31 19q5 10 5 89q0 76 -8 96q-18 37 -101 37q-45 0 -99 -7l39 347h324l-26 -150h-163l-11 -86q27 6 56 6q101 0 136 -76q17 -35 17 -157q0 -80 -3 -111.5t-14 -54.5q-40 -91 -177 -91z" />
    <glyph glyph-name="six.tf" horiz-adv-x="436" 
d="M407 400q9 -20 12 -48.5t3 -106.5q0 -79 -3.5 -108.5t-14.5 -54.5q-43 -96 -180 -96q-134 0 -183 108q-15 35 -20 84.5t-5 171.5q0 124 5 175t21 86q51 109 185 109q92 0 142 -50q40 -43 47 -168h-154q-1 61 -9 70q-9 10 -27 10q-30 0 -41 -27q-9 -21 -9 -131
q36 45 108 45q92 0 123 -69zM255 148q5 10 5 87q0 79 -5 90q-8 20 -32 20q-25 0 -34 -22q-5 -13 -5 -89q0 -73 5 -86q7 -21 33 -21q25 0 33 21z" />
    <glyph glyph-name="seven.tf" horiz-adv-x="436" 
d="M76 0l144 552h-196v154h405l-177 -706h-176z" />
    <glyph glyph-name="eight.tf" horiz-adv-x="436" 
d="M407 340q14 -31 14 -130q0 -104 -13 -132q-43 -92 -190 -92q-148 0 -189 92q-14 31 -14 132q0 98 13 129q19 43 73 58q-50 16 -68 56q-11 23 -11 91q0 64 13 90q39 86 183 86q143 0 184 -86q13 -29 13 -90q0 -65 -11 -91q-18 -40 -68 -56q51 -15 71 -57zM187 578
q-5 -9 -5 -58t4 -57q8 -19 32 -19t32 19q4 8 4 57t-4 58q-10 19 -32 19q-23 0 -31 -19zM252 142q4 8 4 82q0 70 -4 81q-9 20 -34 20q-24 0 -33 -20q-5 -10 -5 -81t4 -82q10 -19 34 -19q25 0 34 19z" />
    <glyph glyph-name="nine.tf" horiz-adv-x="436" 
d="M395 612q15 -35 20 -84.5t5 -171.5q0 -124 -5 -175t-21 -86q-49 -109 -185 -109q-90 0 -142 50q-41 43 -46 168h153q3 -63 9 -70q9 -10 27 -10q30 0 41 27q9 21 9 131q-34 -45 -108 -45q-92 0 -123 69q-14 33 -14 155q0 79 3.5 108.5t14.5 54.5q41 96 179 96
q135 0 183 -108zM247 383q5 10 5 89q0 76 -5 86q-8 21 -33 21t-33 -21q-5 -13 -5 -87q0 -75 5 -90q8 -20 32 -20q26 0 34 22z" />
    <glyph glyph-name="zero.dnom" horiz-adv-x="300" 
d="M150 -8q-95 0 -123 64q-14 32 -14 138t14 138q28 64 123 64q93 0 123 -64q14 -32 14 -138t-14 -138q-30 -64 -123 -64zM150 89q12 0 15 9t3 96t-3 96t-15 9t-16 -9q-2 -6 -2 -96t2 -96q4 -9 16 -9z" />
    <glyph glyph-name="one.dnom" horiz-adv-x="189" 
d="M49 0v288h-49l15 100h152v-388h-118z" />
    <glyph glyph-name="two.dnom" horiz-adv-x="272" 
d="M1 0v4l123 199q25 41 25 67q0 25 -2 27q-3 7 -14 7q-12 0 -16 -9q-3 -4 -3 -27h-109q0 50 11 72q26 56 117 56q94 0 120 -56q10 -23 10 -51q0 -57 -26 -102q-22 -39 -57 -87h81v-100h-260z" />
    <glyph glyph-name="three.dnom" horiz-adv-x="273" 
d="M254 178q7 -14 7 -58q0 -55 -9 -73q-25 -55 -123 -55q-89 0 -113 53q-10 23 -10 92l104 -1q0 -39 2 -44q3 -8 16 -8q12 0 15 7q3 4 3 34q0 23 -4 30q-6 11 -29 11h-9v78h9q23 0 28 12q3 6 3 20q0 19 -1 21q-3 7 -14 7t-14 -7q-3 -6 -3 -29h-104q0 48 9 70q26 58 116 58
q92 0 117 -55q8 -19 8 -60q0 -26 -6 -41q-11 -23 -40 -32q32 -8 42 -30z" />
    <glyph glyph-name="four.dnom" horiz-adv-x="318" 
d="M166 0v60h-173v2l84 326h197v-225h38v-103h-38v-60h-108zM128 163h38v184z" />
    <glyph glyph-name="five.dnom" horiz-adv-x="279" 
d="M137 -8q-93 0 -120 58q-10 21 -10 86l108 -1q0 -36 2 -41q5 -10 19 -10q11 0 15 9q2 4 2 36q0 33 -5 42q-11 19 -67 19q-34 0 -66 -3l25 201h219l-12 -91h-110l-3 -37q15 3 39 3q67 0 87 -44q10 -21 10 -83q0 -66 -10 -86q-26 -58 -123 -58z" />
    <glyph glyph-name="six.dnom" horiz-adv-x="298" 
d="M279 212q7 -17 7 -76q0 -62 -10 -83q-28 -61 -124 -61q-97 0 -127 64q-8 17 -10.5 41.5t-2.5 96.5q0 67 3 91.5t12 46.5q29 64 126 64q64 0 97 -33q23 -23 27 -87h-105q-1 22 -4 25q-4 6 -15 6q-16 0 -22 -14q-4 -7 -4 -56q22 19 66 19q65 0 86 -44zM166 91q2 3 2 36
q0 35 -2 41q-4 9 -16 9q-11 0 -16 -8q-2 -8 -2 -42q0 -30 2 -36q4 -9 16 -9q13 0 16 9z" />
    <glyph glyph-name="seven.dnom" horiz-adv-x="253" 
d="M22 0l83 288h-95v100h248l-113 -388h-123z" />
    <glyph glyph-name="eight.dnom" horiz-adv-x="288" 
d="M269 182q8 -17 8 -65q0 -49 -9 -68q-25 -57 -124 -57q-98 0 -125 58q-8 19 -8 67q0 50 8 66q11 24 45 35q-33 11 -44 36q-6 12 -6 45q0 27 8 43q11 24 43.5 39t78.5 15q47 0 79 -14.5t44 -39.5q8 -20 8 -43q0 -27 -8 -45q-10 -24 -43 -36q32 -11 45 -36zM129 311
q-2 -3 -2 -26q0 -24 2 -26q3 -9 15 -9t16 9q1 2 1 26q0 23 -1 26q-5 8 -16 8q-12 0 -15 -8zM161 85q2 6 2 40q0 33 -2 39q-5 9 -17 9t-16 -9q-2 -3 -2 -39q0 -37 2 -40q4 -9 16 -9t17 9z" />
    <glyph glyph-name="nine.dnom" horiz-adv-x="298" 
d="M273 332q8 -17 10.5 -41.5t2.5 -96.5q0 -67 -3 -91.5t-12 -46.5q-29 -64 -126 -64q-64 0 -97 33q-23 23 -27 87h105q1 -22 4 -25q4 -6 15 -6q16 0 22 14q4 7 4 56q-22 -19 -66 -19q-65 0 -86 44q-7 18 -7 76q0 62 10 83q28 61 124 61q97 0 127 -64zM164 219q2 8 2 42
q0 30 -2 36q-4 9 -16 9q-13 0 -16 -9q-2 -3 -2 -36q0 -35 2 -41q4 -9 16 -9q11 0 16 8z" />
    <glyph glyph-name="zero.numr" horiz-adv-x="300" 
d="M150 310q-95 0 -123 64q-14 32 -14 138t14 138q28 64 123 64q93 0 123 -64q14 -32 14 -138t-14 -138q-30 -64 -123 -64zM150 407q12 0 15 9t3 96t-3 96t-15 9t-16 -9q-2 -6 -2 -96t2 -96q4 -9 16 -9z" />
    <glyph glyph-name="one.numr" horiz-adv-x="189" 
d="M49 318v288h-49l15 100h152v-388h-118z" />
    <glyph glyph-name="two.numr" horiz-adv-x="272" 
d="M1 318v4l123 199q25 41 25 67q0 25 -2 27q-3 7 -14 7q-12 0 -16 -9q-3 -4 -3 -27h-109q0 50 11 72q26 56 117 56q94 0 120 -56q10 -23 10 -51q0 -57 -26 -102q-22 -39 -57 -87h81v-100h-260z" />
    <glyph glyph-name="three.numr" horiz-adv-x="273" 
d="M254 496q7 -14 7 -58q0 -55 -9 -73q-25 -55 -123 -55q-89 0 -113 53q-10 23 -10 92l104 -1q0 -39 2 -44q3 -8 16 -8q12 0 15 7q3 4 3 34q0 23 -4 30q-6 11 -29 11h-9v78h9q23 0 28 12q3 6 3 20q0 19 -1 21q-3 7 -14 7t-14 -7q-3 -6 -3 -29h-104q0 48 9 70q26 58 116 58
q92 0 117 -55q8 -19 8 -60q0 -26 -6 -41q-11 -23 -40 -32q32 -8 42 -30z" />
    <glyph glyph-name="four.numr" horiz-adv-x="318" 
d="M166 318v60h-173v2l84 326h197v-225h38v-103h-38v-60h-108zM128 481h38v184z" />
    <glyph glyph-name="five.numr" horiz-adv-x="279" 
d="M137 310q-93 0 -120 58q-10 21 -10 86l108 -1q0 -36 2 -41q5 -10 19 -10q11 0 15 9q2 4 2 36q0 33 -5 42q-11 19 -67 19q-34 0 -66 -3l25 201h219l-12 -91h-110l-3 -37q15 3 39 3q67 0 87 -44q10 -21 10 -83q0 -66 -10 -86q-26 -58 -123 -58z" />
    <glyph glyph-name="six.numr" horiz-adv-x="298" 
d="M279 530q7 -18 7 -76q0 -62 -10 -83q-28 -61 -124 -61q-97 0 -127 64q-8 17 -10.5 41.5t-2.5 96.5q0 67 3 91.5t12 46.5q29 64 126 64q64 0 97 -33q23 -23 27 -87h-105q-1 22 -4 25q-4 6 -15 6q-16 0 -22 -14q-4 -7 -4 -56q22 19 66 19q65 0 86 -44zM166 409q2 3 2 36
q0 35 -2 41q-4 9 -16 9q-11 0 -16 -8q-2 -8 -2 -42q0 -30 2 -36q4 -9 16 -9q13 0 16 9z" />
    <glyph glyph-name="seven.numr" horiz-adv-x="253" 
d="M22 318l83 288h-95v100h248l-113 -388h-123z" />
    <glyph glyph-name="eight.numr" horiz-adv-x="288" 
d="M269 500q8 -17 8 -65q0 -49 -9 -68q-25 -57 -124 -57q-98 0 -125 58q-8 19 -8 67q0 50 8 66q11 24 45 35q-33 11 -44 36q-6 12 -6 45q0 27 8 43q11 24 43.5 39t78.5 15q47 0 79 -14.5t44 -39.5q8 -20 8 -43q0 -27 -8 -45q-10 -24 -43 -36q32 -11 45 -36zM129 629
q-2 -3 -2 -26q0 -24 2 -26q3 -9 15 -9t16 9q1 2 1 26q0 23 -1 26q-5 8 -16 8q-12 0 -15 -8zM161 403q2 6 2 40q0 33 -2 39q-5 9 -17 9t-16 -9q-2 -3 -2 -39q0 -37 2 -40q4 -9 16 -9t17 9z" />
    <glyph glyph-name="nine.numr" horiz-adv-x="298" 
d="M273 650q8 -17 10.5 -41.5t2.5 -96.5q0 -67 -3 -91.5t-12 -46.5q-29 -64 -126 -64q-64 0 -97 33q-23 23 -27 87h105q1 -22 4 -25q4 -6 15 -6q16 0 22 14q4 7 4 56q-22 -19 -66 -19q-65 0 -86 44q-7 18 -7 76q0 62 10 83q28 61 124 61q97 0 127 -64zM164 537q2 8 2 42
q0 30 -2 36q-4 9 -16 9q-13 0 -16 -9q-2 -3 -2 -36q0 -35 2 -41q4 -9 16 -9q11 0 16 8z" />
    <glyph glyph-name="colon.case" horiz-adv-x="264" 
d="M132 441q-39 0 -63 23t-24 62t24 62.5t63 23.5t62.5 -23.5t23.5 -62.5t-23.5 -62t-62.5 -23zM132 94q-39 0 -63 23t-24 62q0 40 24 63t63 23t62.5 -23t23.5 -63q0 -39 -23.5 -62t-62.5 -23z" />
    <glyph glyph-name="semicolon.case" horiz-adv-x="261" 
d="M129 441q-39 0 -63 23t-24 62t24 62.5t63 23.5t62.5 -23.5t23.5 -62.5t-23.5 -62t-62.5 -23zM17 -55l44 323h140l-73 -323h-111z" />
    <glyph glyph-name="exclamdown.case" horiz-adv-x="261" 
d="M130 714q39 0 63 -23t24 -62q0 -40 -24 -63t-63 -23t-62.5 23t-23.5 63q0 39 23.5 62t62.5 23zM194 489l20 -493h-166l19 493h127z" />
    <glyph glyph-name="questiondown.case" horiz-adv-x="421" 
d="M221 719q39 0 63.5 -23t24.5 -62q0 -40 -24 -63t-64 -23q-38 0 -62 23t-24 63q0 39 24 62t62 23zM302 494q-100 -262 -109 -295q-6 -25 -6 -48q0 -33 27 -33q18 0 24 14q4 12 4 61h155q0 -86 -14 -116q-40 -90 -174 -90q-86 0 -135.5 41.5t-49.5 116.5q0 8 0.5 15t1.5 14
t4 18t5 19.5t8 26t10.5 31.5t14.5 41t17.5 49t22 61.5t26.5 73.5h168z" />
    <glyph glyph-name="periodcentered.case" horiz-adv-x="264" 
d="M132 285q-39 0 -63 23t-24 62q0 40 24 63t63 23t62.5 -23t23.5 -63q0 -39 -23.5 -62t-62.5 -23z" />
    <glyph glyph-name="periodcentered.loclCAT.case" horiz-adv-x="105" 
d="M18 318q-39 0 -63 23t-24 62q0 40 24 63t63 23q38 0 62 -23t24 -63q0 -39 -24 -62t-62 -23z" />
    <glyph glyph-name="slash.case" horiz-adv-x="386" 
d="M16 -50l218 806h146l-218 -806h-146z" />
    <glyph glyph-name="periodcentered.loclCAT" horiz-adv-x="184" 
d="M93 283q-39 0 -63.5 23t-24.5 62q0 40 24 63t64 23q38 0 62 -23t24 -63q0 -39 -24 -62t-62 -23z" />
    <glyph glyph-name="parenleft.case" horiz-adv-x="257" 
d="M128 -125q-50 114 -73 224t-23 254q0 146 22.5 255t73.5 224h126q-85 -230 -85 -479q0 -248 85 -478h-126z" />
    <glyph glyph-name="parenright.case" horiz-adv-x="257" 
d="M129 -125h-126q85 230 85 478q0 249 -85 479h126q51 -115 73.5 -224t22.5 -255q0 -144 -23 -254t-73 -224z" />
    <glyph glyph-name="braceleft.case" horiz-adv-x="277" 
d="M210 461q0 -50 -17 -76t-58 -32q41 -6 58 -31.5t17 -75.5v-189q0 -36 10.5 -49.5t41.5 -13.5h3v-115h-38q-76 0 -110 36.5t-34 115.5v195q0 32 -12.5 44.5t-42.5 12.5v141q31 0 43 12t12 44v195q0 79 34 116t110 37h38v-116h-3q-32 0 -42 -13t-10 -50v-188z" />
    <glyph glyph-name="braceright.case" horiz-adv-x="277" 
d="M194 480q0 -32 12 -44t43 -12v-141q-31 0 -43 -12.5t-12 -44.5v-195q0 -79 -34 -115.5t-110 -36.5h-38v115h3q31 0 41.5 13.5t10.5 49.5v189q0 50 17 75.5t58 31.5q-41 6 -58 32t-17 76v188q0 37 -10 50t-42 13h-3v116h38q76 0 110 -37t34 -116v-195z" />
    <glyph glyph-name="bracketleft.case" horiz-adv-x="240" 
d="M40 -126v958h189v-124h-54v-710h54v-124h-189z" />
    <glyph glyph-name="bracketright.case" horiz-adv-x="240" 
d="M200 -126h-188v124h53v710h-53v124h188v-958z" />
    <glyph glyph-name="hyphen.case" horiz-adv-x="272" 
d="M27 303v134h218v-134h-218z" />
    <glyph glyph-name="uni00AD.case" horiz-adv-x="272" 
d="M27 303v134h218v-134h-218z" />
    <glyph glyph-name="endash.case" horiz-adv-x="328" 
d="M27 306v131h274v-131h-274z" />
    <glyph glyph-name="emdash.case" horiz-adv-x="656" 
d="M27 306v131h601v-131h-601z" />
    <glyph glyph-name="guillemotleft.case" horiz-adv-x="418" 
d="M92 201l-85 164l85 164h139l-85 -164l85 -164h-139zM272 201l-85 164l85 164h139l-85 -164l85 -164h-139z" />
    <glyph glyph-name="guillemotright.case" horiz-adv-x="418" 
d="M146 201h-139l85 164l-85 164h139l85 -164zM326 201h-139l85 164l-85 164h139l85 -164z" />
    <glyph glyph-name="guilsinglleft.case" horiz-adv-x="238" 
d="M92 201l-85 164l85 164h139l-85 -164l85 -164h-139z" />
    <glyph glyph-name="guilsinglright.case" horiz-adv-x="238" 
d="M146 201h-139l85 164l-85 164h139l85 -164z" />
    <glyph glyph-name="cent.ss06" horiz-adv-x="401" 
d="M218 215q9 9 9 84h161q-1 -76 -10.5 -112t-38.5 -62q-32 -29 -81 -39v-86h-112v86q-84 17 -115 88q-11 25 -15 59.5t-4 119.5t4 119.5t15 59.5q31 71 115 88v86h112v-86q51 -11 82 -39q28 -25 37.5 -59.5t11.5 -101.5h-162q-1 63 -9 71q-8 6 -17 6q-17 0 -22 -15
q-4 -9 -4 -129t4 -129q5 -15 22 -15q9 0 17 6z" />
    <glyph glyph-name="dollar.ss06" horiz-adv-x="427" 
d="M402 327q17 -39 17 -128q0 -80 -17 -118q-33 -74 -133 -91v-86h-115v87q-97 16 -131 88q-9 21 -12 45t-3 89h175q0 -61 3 -72q8 -18 29 -18t27 16q2 6 2 48q0 38 -6 54q-5 10 -16 19t-19.5 13.5t-30 14t-30.5 13.5q-88 46 -111 96q-16 37 -16 123q0 71 16 107
q32 70 123 88v87h115v-86q89 -17 122 -85q9 -21 12 -44t3 -90h-168q0 65 -4 74q-6 14 -25 14q-21 0 -25 -15q-2 -5 -2 -40q0 -34 6 -50q3 -7 8.5 -12.5t16 -11.5t16.5 -9t23.5 -10t24.5 -10q52 -24 81.5 -46t43.5 -54z" />
    <glyph glyph-name="paragraph.ss07" horiz-adv-x="541" 
d="M201 -170v433h-32q-115 0 -147 75q-10 20 -12.5 47.5t-2.5 99.5q0 115 15 147q33 74 151 74h364v-131h-40v-745h-130v745h-37v-745h-129zM183 393h18v184h-18q-27 0 -34 -16q-5 -11 -5 -76t5 -76q7 -16 34 -16z" />
    <glyph glyph-name="caroncomb.alt" 
d="M-122 549l15 157h112l-31 -157h-96z" />
    <glyph glyph-name="uni0335.Eth" 
d="M-256 308v121h256v-121h-256z" />
    <glyph glyph-name="uni0335.Tbar" 
d="M-335 296v121h285v-121h-285z" />
    <glyph glyph-name="caron.alt" horiz-adv-x="227" 
d="M50 549l15 157h112l-31 -157h-96z" />
    <glyph glyph-name="uni0308.case" 
d="M-292 737q-32 0 -52 19.5t-20 50.5q0 32 20.5 50.5t51.5 18.5t51 -18.5t20 -50.5q0 -31 -20 -50.5t-51 -19.5zM-120 737q-32 0 -52 19.5t-20 50.5q0 32 20.5 50.5t51.5 18.5t51 -18.5t20 -50.5q0 -31 -20 -50.5t-51 -19.5z" />
    <glyph glyph-name="uni0307.case" 
d="M-128 736q-34 0 -56 20.5t-22 54.5t22 54t56 20t56 -20t22 -54t-22 -54.5t-56 -20.5z" />
    <glyph glyph-name="gravecomb.case" 
d="M-50 742h-136l-88 119h153z" />
    <glyph glyph-name="acutecomb.case" 
d="M-274 742l71 119h153l-89 -119h-135z" />
    <glyph glyph-name="uni030B.case" 
d="M-390 742l60 119h125l-82 -119h-103zM-238 742l60 119h128l-82 -119h-106z" />
    <glyph glyph-name="uni0302.case" 
d="M-363 742l70 119h172l71 -119h-127l-30 52l-30 -52h-126z" />
    <glyph glyph-name="uni030C.case" 
d="M-50 861l-70 -119h-172l-71 119h126l31 -52l30 52h126z" />
    <glyph glyph-name="uni0306.case" 
d="M-195 736q-144 0 -147 125h105q4 -43 42 -43q37 0 44 43h101q-3 -125 -145 -125z" />
    <glyph glyph-name="uni030A.case" 
d="M-166 722q-51 0 -83 28.5t-32 75.5t32 75.5t83 28.5q52 0 84 -28.5t32 -75.5t-32.5 -75.5t-83.5 -28.5zM-166 792q16 0 25.5 9.5t9.5 24.5t-9.5 24.5t-25.5 9.5q-15 0 -24 -9.5t-9 -24.5t9 -24.5t24 -9.5z" />
    <glyph glyph-name="tildecomb.case" 
d="M-140 741q-28 0 -58 13q-33 13 -43 13q-20 0 -23 -25h-86q1 120 89 120q22 0 60 -17q23 -10 37 -10q20 0 27 25h87q-1 -60 -22.5 -89.5t-67.5 -29.5z" />
    <glyph glyph-name="uni0304.case" 
d="M-303 755v98h253v-98h-253z" />
    <glyph glyph-name="uni0337.case" 
d="M-160 436l160 109v-138l-160 -109v28l-114 -76v138l114 75v-27z" />
    <glyph glyph-name="uni0338.case" 
d="M-554 0l121 181l9 -10l229 403l5 -10l93 142h57l-127 -190l-8 13l-229 -406l-8 9l-85 -132h-57z" />
    <glyph glyph-name="uni0308.narrow.case" 
d="M-269 736q-29 0 -48 19.5t-19 50.5q0 32 19 50.5t48 18.5q30 0 48.5 -18.5t18.5 -50.5q0 -31 -19 -50.5t-48 -19.5zM-117 736q-30 0 -49 19.5t-19 50.5q0 32 19 50.5t49 18.5q29 0 48 -18.5t19 -50.5q0 -31 -19 -50.5t-48 -19.5z" />
    <glyph glyph-name="uni0302.narrow.case" 
d="M-349 742l64 119h169l66 -119h-125l-24 49l-26 -49h-124z" />
    <glyph glyph-name="uni0306.narrow.case" 
d="M-177 737q-128 0 -128 124h98q1 -43 30 -43q28 0 29 43h98q0 -124 -127 -124z" />
    <glyph glyph-name="tildecomb.narrow.case" 
d="M-130 741q-23 0 -49 12q-26 14 -35 14q-17 0 -21 -25h-74q1 119 80 119q22 0 50 -15q20 -11 30 -11q17 0 24 26h75q-1 -63 -20 -91.5t-60 -28.5z" />
    <glyph glyph-name="uni0304.narrow.case" 
d="M-265 755v98h215v-98h-215z" />
    <glyph glyph-name="uni0335.dh" 
d="M-306 292v94h306v-94h-306z" />
    <glyph glyph-name="uni0307.i" 
d="M-131 563q-35 0 -58 21.5t-23 56.5t23 56t58 21t58 -21t23 -56t-23 -56.5t-58 -21.5z" />
    <glyph glyph-name="uni0308.narrow" 
d="M-229 563q-58 0 -58 70q0 69 58 69q56 0 56 -69q0 -33 -14.5 -51.5t-41.5 -18.5zM-107 563q-57 0 -57 70q0 69 57 69q27 0 42 -18t15 -51t-15 -51.5t-42 -18.5z" />
    <glyph glyph-name="gravecomb.narrow" 
d="M-50 565h-119l-68 141h142z" />
    <glyph glyph-name="acutecomb.narrow" 
d="M-237 565l46 141h141l-67 -141h-120z" />
    <glyph glyph-name="uni0302.narrow" 
d="M-273 565l43 141h138l42 -141h-92l-19 67l-21 -67h-91z" />
    <glyph glyph-name="uni030C.narrow" 
d="M-277 706h91l21 -67l19 67h92l-42 -141h-138z" />
    <glyph glyph-name="uni0306.narrow" 
d="M-159 558q-58 0 -84 35t-26 113h88q0 -35 5 -46.5t17 -11.5t17 12t4 46h88q0 -78 -25.5 -113t-83.5 -35z" />
    <glyph glyph-name="tildecomb.narrow" 
d="M-116 564q-31 0 -49 26q-11 13 -18 13q-15 0 -16 -38h-70q1 76 15 109t51 33q31 0 49 -26q11 -13 18 -13q15 0 16 38h70q-1 -76 -15 -109t-51 -33z" />
    <glyph glyph-name="uni0304.narrow" 
d="M-255 579v103h205v-103h-205z" />
    <glyph glyph-name="uni0328.narrow" 
d="M-111 -182q-46 0 -74 22t-28 63q0 62 62 97h101q-47 -38 -47 -69q0 -22 22 -22q12 0 24 6v-85q-27 -12 -60 -12z" />
    <glyph glyph-name="uni0338.ss04" 
d="M-113 364l-64 137l53 100l113 -54zM-283 -76l-113 54l102 186l63 -140z" />
    <glyph glyph-name="uni0338.case.ss04" 
d="M-115 534l-58 141l68 112l109 -64zM-371 -84l-107 66l126 196l78 -111z" />
    </font>
</defs>
</svg>
