<?xml version="1.0" standalone="no"?>
<!DOCTYPE svg PUBLIC "-//W3C//DTD SVG 20010904//EN"
 "http://www.w3.org/TR/2001/REC-SVG-20010904/DTD/svg10.dtd">
<svg version="1.0" xmlns="http://www.w3.org/2000/svg"
 width="720.000000pt" height="720.000000pt" viewBox="0 0 720.000000 720.000000"
 preserveAspectRatio="xMidYMid meet">
<metadata>
Created by potrace 1.14, written by Peter Selinger 2001-2017
</metadata>
<g transform="translate(0.000000,720.000000) scale(0.100000,-0.100000)"
fill="#000000" stroke="none">
<path d="M1619 6033 c-22 -71 -42 -132 -44 -138 -1 -5 -5 -17 -8 -25 -8 -22
-71 -213 -73 -225 -1 -5 -31 -95 -65 -200 -35 -104 -63 -192 -64 -195 -1 -3
-14 -45 -30 -95 -16 -49 -30 -93 -31 -97 -1 -5 -3 -10 -4 -13 -1 -3 -3 -8 -5
-12 -1 -5 -4 -15 -8 -23 -10 -27 -177 -546 -177 -553 0 -3 -4 -16 -9 -29 -5
-13 -9 -26 -10 -30 -1 -4 -24 -73 -51 -153 -27 -80 -47 -145 -44 -145 2 0 -3
-11 -12 -25 -9 -14 -14 -25 -10 -25 3 0 -5 -30 -18 -67 -34 -95 -117 -353
-121 -374 -2 -10 -9 -28 -16 -41 -7 -13 -12 -25 -12 -28 1 -7 -168 -536 -222
-695 -55 -163 -156 -485 -153 -488 2 -2 -2 -10 -8 -18 -9 -11 -21 -44 -28 -79
-4 -17 -130 -402 -143 -435 -8 -22 -16 -47 -18 -56 -3 -16 -90 -288 -102 -319
-3 -8 -7 -19 -8 -25 -2 -5 -20 -62 -41 -125 -21 -63 -39 -117 -39 -120 -3 -12
-34 -107 -40 -122 -7 -17 15 -18 378 -18 l385 0 97 297 c53 164 99 305 102
313 3 8 7 20 8 25 3 13 205 636 212 655 4 8 7 18 8 23 2 4 3 8 5 10 1 1 3 9 5
17 1 9 31 100 65 204 34 103 63 193 64 199 2 7 6 19 9 27 3 8 22 67 42 130 20
63 39 122 43 130 3 8 6 17 6 20 3 12 102 316 148 455 27 83 51 158 53 168 2
10 14 44 26 75 11 31 22 62 23 67 4 21 39 132 56 180 16 45 183 553 185 565 1
3 16 52 35 110 19 58 34 107 35 110 1 3 20 64 44 135 24 72 44 135 46 140 1 6
5 17 8 25 8 22 61 183 63 195 1 6 9 29 18 53 8 23 13 42 9 42 -3 0 -1 6 4 13
5 6 22 53 37 102 15 50 30 97 33 105 4 8 7 20 9 25 1 6 21 66 44 135 23 69 43
130 44 135 2 6 6 17 9 25 3 8 15 47 27 85 12 39 24 77 27 85 3 8 7 21 9 28 2
9 -80 12 -381 12 l-384 0 -42 -127z"/>
<path d="M3192 6133 c-12 -31 -113 -339 -117 -357 -1 -6 -5 -18 -8 -26 -4 -8
-23 -67 -43 -130 -20 -63 -46 -145 -59 -181 -13 -37 -21 -70 -18 -73 4 -3 0
-6 -7 -6 -7 0 -10 -3 -7 -7 4 -3 2 -12 -4 -20 -6 -7 -9 -13 -6 -13 3 0 -3 -26
-14 -57 -11 -32 -22 -62 -23 -68 -3 -12 -55 -175 -63 -195 -4 -8 -7 -17 -8
-20 0 -3 -12 -39 -25 -80 -13 -41 -24 -77 -25 -80 -1 -7 -176 -544 -267 -819
-39 -118 -71 -219 -72 -225 -1 -6 -31 -96 -65 -201 -35 -104 -64 -194 -65
-200 -1 -5 -11 -35 -21 -65 -11 -30 -20 -57 -20 -60 0 -3 -32 -99 -70 -215
-38 -115 -70 -214 -71 -220 -1 -5 -19 -59 -39 -120 -20 -60 -38 -114 -39 -120
-1 -5 -45 -138 -96 -295 -51 -157 -95 -289 -96 -295 -2 -11 -102 -322 -111
-345 -3 -8 -7 -19 -9 -25 -1 -5 -32 -102 -69 -215 -37 -113 -68 -209 -70 -215
-1 -5 -5 -17 -8 -25 -8 -21 -37 -113 -37 -117 0 -2 172 -3 383 -3 l384 0 48
147 c26 82 58 180 70 218 13 39 74 225 136 415 62 190 114 351 115 357 1 7 9
32 18 55 12 34 123 379 222 688 8 25 17 52 21 60 3 8 7 20 8 25 2 6 12 37 23
70 11 33 56 175 101 315 45 140 94 288 108 329 14 40 26 78 28 85 1 6 5 18 8
26 9 25 71 214 73 225 1 6 15 51 31 100 17 50 52 158 78 240 26 83 50 157 53
165 3 8 6 17 7 20 5 20 168 519 175 535 6 15 47 144 55 175 1 3 4 12 8 20 3 8
46 141 96 295 49 154 104 323 121 375 17 52 33 103 35 112 2 9 8 26 14 37 6
11 11 22 11 25 0 3 -173 6 -384 6 l-384 0 -10 -27z"/>
<path d="M4729 6133 c-6 -16 -12 -35 -14 -43 -2 -8 -34 -105 -70 -215 -37
-110 -68 -207 -70 -215 -2 -8 -4 -15 -5 -15 -1 0 -3 -8 -5 -18 -2 -10 -7 -26
-11 -35 -4 -9 -8 -21 -10 -27 -1 -5 -39 -122 -84 -260 -45 -137 -101 -311
-125 -385 -24 -75 -61 -189 -83 -255 -52 -161 -196 -599 -197 -605 -14 -53
-19 -67 -28 -77 -5 -7 -7 -13 -3 -13 3 0 -1 -17 -9 -37 -9 -21 -16 -39 -15
-41 1 -2 -139 -437 -200 -622 -16 -47 -68 -206 -115 -355 -48 -148 -95 -292
-105 -320 -17 -51 -64 -196 -66 -205 0 -3 -3 -12 -7 -20 -3 -8 -47 -143 -97
-300 -51 -157 -103 -319 -117 -360 -14 -41 -26 -79 -27 -85 -1 -5 -4 -14 -7
-20 -5 -8 -16 -45 -24 -75 0 -3 -34 -106 -75 -230 -40 -124 -75 -233 -77 -243
-3 -16 19 -17 380 -15 l382 3 56 170 c74 224 221 677 224 690 1 6 5 17 8 25 3
8 29 87 57 175 28 88 57 174 63 190 6 17 12 35 13 40 1 6 32 102 69 215 36
113 74 228 83 255 9 28 17 53 18 58 1 4 3 9 4 12 1 3 3 8 4 13 2 9 149 459
181 557 13 39 65 198 115 355 50 157 96 297 102 312 5 15 9 28 9 30 -1 2 5 19
13 38 8 19 15 38 15 42 2 9 2 8 36 113 15 44 28 87 30 95 2 8 22 71 45 140 23
69 44 132 45 140 2 8 11 35 20 60 9 25 18 53 20 63 2 10 16 50 30 90 14 40 27
81 30 92 2 11 27 88 55 170 28 83 52 157 54 165 6 22 96 301 106 325 4 11 33
101 65 200 31 99 63 197 71 218 27 72 55 67 -366 67 l-380 0 -11 -27z"/>
<path d="M6231 6023 c-23 -76 -46 -147 -51 -158 -4 -11 -25 -72 -45 -135 -20
-63 -39 -122 -42 -130 -3 -8 -7 -20 -8 -26 -2 -6 -49 -152 -106 -325 -56 -173
-103 -316 -104 -319 -1 -10 -87 -276 -94 -295 -7 -17 -53 -160 -57 -175 0 -3
-3 -12 -7 -20 -3 -8 -45 -136 -92 -285 -48 -148 -89 -277 -92 -285 -4 -8 -7
-17 -8 -20 0 -3 -8 -27 -17 -55 -47 -143 -249 -768 -253 -785 -1 -3 -4 -12 -8
-20 -7 -19 -40 -122 -43 -135 -1 -5 -14 -43 -28 -82 -13 -40 -22 -73 -19 -73
3 0 0 -6 -6 -14 -7 -8 -13 -23 -16 -34 -3 -18 -110 -350 -122 -382 -4 -8 -7
-17 -8 -20 -2 -9 -17 -54 -117 -365 -54 -170 -101 -316 -103 -323 -3 -7 -5
-16 -6 -20 0 -4 -5 -13 -11 -19 -6 -7 -8 -13 -4 -13 3 0 0 -16 -8 -35 -9 -20
-15 -37 -16 -40 0 -3 -2 -10 -5 -17 -62 -191 -115 -361 -115 -368 0 -7 135 -9
381 -8 l381 3 13 35 c8 19 48 143 90 275 42 132 82 254 88 270 7 17 12 32 13
35 0 3 11 39 24 80 13 41 24 77 25 80 0 3 9 30 20 60 10 30 20 60 21 65 1 6
18 57 37 115 20 58 79 240 132 405 53 165 106 325 117 355 11 30 21 63 23 72
4 18 112 353 122 378 3 8 7 20 8 25 3 12 195 604 230 710 38 115 209 639 211
650 1 6 20 64 42 130 22 66 77 235 122 375 74 230 112 348 128 390 3 8 6 20 7
26 4 18 146 457 158 489 7 17 12 33 13 38 1 4 2 8 3 10 2 1 4 12 7 25 l4 22
-383 0 -383 0 -43 -137z"/>
</g>
</svg>
