<svg width="16" height="16" viewBox="0 0 16 16" fill="none" xmlns="http://www.w3.org/2000/svg">
<path fill-rule="evenodd" clip-rule="evenodd" d="M11.9999 8.00001C11.9999 8.13261 11.9472 8.25979 11.8535 8.35356C11.7597 8.44733 11.6325 8.50001 11.4999 8.50001H5.70692L7.85392 10.646C7.90041 10.6925 7.93728 10.7477 7.96244 10.8084C7.9876 10.8692 8.00055 10.9343 8.00055 11C8.00055 11.0658 7.9876 11.1309 7.96244 11.1916C7.93728 11.2523 7.90041 11.3075 7.85392 11.354C7.80743 11.4005 7.75224 11.4374 7.6915 11.4625C7.63076 11.4877 7.56566 11.5006 7.49992 11.5006C7.43417 11.5006 7.36907 11.4877 7.30833 11.4625C7.24759 11.4374 7.19241 11.4005 7.14592 11.354L4.14592 8.35401C4.09935 8.30756 4.06241 8.25238 4.0372 8.19164C4.012 8.13089 3.99902 8.06577 3.99902 8.00001C3.99902 7.93424 4.012 7.86912 4.0372 7.80837C4.06241 7.74763 4.09935 7.69245 4.14592 7.64601L7.14592 4.64601C7.2398 4.55212 7.36714 4.49937 7.49992 4.49937C7.63269 4.49937 7.76003 4.55212 7.85392 4.64601C7.9478 4.73989 8.00055 4.86723 8.00055 5.00001C8.00055 5.13278 7.9478 5.26012 7.85392 5.35401L5.70692 7.50001H11.4999C11.6325 7.50001 11.7597 7.55268 11.8535 7.64645C11.9472 7.74022 11.9999 7.8674 11.9999 8.00001Z" fill="#575757"/>
</svg>
