<svg width="19" height="24" viewBox="0 0 19 24" fill="none" xmlns="http://www.w3.org/2000/svg">
<path d="M18.997 -0.010788C18.6246 0.765594 18.2903 1.50064 17.9255 2.22901C16.6176 4.83461 15.3031 7.43855 13.9817 10.0408C13.7776 10.4431 13.8642 10.6285 14.604 10.6053C15.6091 10.5739 16.6194 10.5921 17.6296 10.6053C18.4689 10.6053 18.5506 10.6864 18.2929 11.2013C17.2725 13.2363 16.2521 15.2702 15.2317 17.303C14.2113 19.321 13.1909 21.334 12.2215 23.3585C12.1682 23.5571 11.9978 23.7345 11.7463 23.8529C11.4948 23.9713 11.182 24.0214 10.8745 23.9925C7.57604 23.9743 4.27759 23.9926 0.981674 23.9826C-0.133123 23.9826 -0.189283 23.9081 0.272451 23.2758C2.21123 20.6271 4.12702 17.9669 6.08621 15.3216C6.44335 14.8399 6.15257 14.7819 5.51992 14.7869C4.01992 14.7968 2.52247 14.7869 1.02247 14.7869C0.787773 14.7869 0.468845 14.8828 0.333643 14.7289C0.167826 14.5402 0.497004 14.411 0.655167 14.2852C3.61095 11.9257 6.57356 9.56961 9.54294 7.21674C12.4052 4.94442 15.2691 2.67317 18.1347 0.403061C18.3286 0.245798 18.4741 0.0339069 18.997 -0.010788Z" fill="#2CFFFE"/>
</svg>
